%TF.GenerationSoftware,KiCad,Pcbnew,9.0.7*%
%TF.CreationDate,2026-04-29T17:25:47-05:00*%
%TF.ProjectId,OSLUV,4f534c55-562e-46b6-9963-61645f706362,01*%
%TF.SameCoordinates,PX2faf080PY5a995c0*%
%TF.FileFunction,Soldermask,Top*%
%TF.FilePolarity,Negative*%
%FSLAX46Y46*%
G04 Gerber Fmt 4.6, Leading zero omitted, Abs format (unit mm)*
G04 Created by KiCad (PCBNEW 9.0.7) date 2026-04-29 17:25:47*
%MOMM*%
%LPD*%
G01*
G04 APERTURE LIST*
G04 Aperture macros list*
%AMRoundRect*
0 Rectangle with rounded corners*
0 $1 Rounding radius*
0 $2 $3 $4 $5 $6 $7 $8 $9 X,Y pos of 4 corners*
0 Add a 4 corners polygon primitive as box body*
4,1,4,$2,$3,$4,$5,$6,$7,$8,$9,$2,$3,0*
0 Add four circle primitives for the rounded corners*
1,1,$1+$1,$2,$3*
1,1,$1+$1,$4,$5*
1,1,$1+$1,$6,$7*
1,1,$1+$1,$8,$9*
0 Add four rect primitives between the rounded corners*
20,1,$1+$1,$2,$3,$4,$5,0*
20,1,$1+$1,$4,$5,$6,$7,0*
20,1,$1+$1,$6,$7,$8,$9,0*
20,1,$1+$1,$8,$9,$2,$3,0*%
G04 Aperture macros list end*
%ADD10R,1.600000X1.600000*%
%ADD11C,1.600000*%
%ADD12R,1.400000X1.100000*%
%ADD13C,1.400000*%
%ADD14R,1.600000X2.000000*%
%ADD15O,1.600000X2.000000*%
%ADD16R,2.000000X1.600000*%
%ADD17O,2.000000X1.600000*%
%ADD18O,3.500000X2.625000*%
%ADD19R,3.200000X2.600000*%
%ADD20O,3.200000X2.600000*%
%ADD21C,1.000000*%
%ADD22RoundRect,0.200000X-0.200000X-0.275000X0.200000X-0.275000X0.200000X0.275000X-0.200000X0.275000X0*%
%ADD23RoundRect,0.250000X1.400000X1.000000X-1.400000X1.000000X-1.400000X-1.000000X1.400000X-1.000000X0*%
%ADD24R,1.200000X0.600000*%
%ADD25RoundRect,0.225000X0.250000X-0.225000X0.250000X0.225000X-0.250000X0.225000X-0.250000X-0.225000X0*%
%ADD26RoundRect,0.250000X-1.100000X0.325000X-1.100000X-0.325000X1.100000X-0.325000X1.100000X0.325000X0*%
%ADD27R,2.000000X3.600000*%
%ADD28RoundRect,0.250000X1.100000X-0.325000X1.100000X0.325000X-1.100000X0.325000X-1.100000X-0.325000X0*%
%ADD29R,1.050000X0.550000*%
%ADD30RoundRect,0.200000X-0.275000X0.200000X-0.275000X-0.200000X0.275000X-0.200000X0.275000X0.200000X0*%
%ADD31RoundRect,0.125000X-0.125000X-0.125000X0.125000X-0.125000X0.125000X0.125000X-0.125000X0.125000X0*%
%ADD32RoundRect,0.225000X-0.250000X0.225000X-0.250000X-0.225000X0.250000X-0.225000X0.250000X0.225000X0*%
%ADD33O,1.905000X4.500000*%
%ADD34RoundRect,0.218750X0.256250X-0.218750X0.256250X0.218750X-0.256250X0.218750X-0.256250X-0.218750X0*%
%ADD35C,2.500000*%
%ADD36RoundRect,0.250000X0.650000X-0.325000X0.650000X0.325000X-0.650000X0.325000X-0.650000X-0.325000X0*%
%ADD37C,0.600000*%
%ADD38C,6.600000*%
%ADD39RoundRect,0.200000X0.200000X0.275000X-0.200000X0.275000X-0.200000X-0.275000X0.200000X-0.275000X0*%
%ADD40RoundRect,0.150000X0.150000X-0.587500X0.150000X0.587500X-0.150000X0.587500X-0.150000X-0.587500X0*%
%ADD41RoundRect,0.250000X0.262500X0.450000X-0.262500X0.450000X-0.262500X-0.450000X0.262500X-0.450000X0*%
%ADD42RoundRect,0.225000X0.225000X0.250000X-0.225000X0.250000X-0.225000X-0.250000X0.225000X-0.250000X0*%
%ADD43RoundRect,0.218750X-0.256250X0.218750X-0.256250X-0.218750X0.256250X-0.218750X0.256250X0.218750X0*%
%ADD44R,1.200000X1.200000*%
%ADD45R,1.600000X1.500000*%
%ADD46RoundRect,0.250000X0.325000X1.100000X-0.325000X1.100000X-0.325000X-1.100000X0.325000X-1.100000X0*%
%ADD47RoundRect,0.250000X-0.262500X-0.450000X0.262500X-0.450000X0.262500X0.450000X-0.262500X0.450000X0*%
%ADD48RoundRect,0.150000X-0.150000X0.512500X-0.150000X-0.512500X0.150000X-0.512500X0.150000X0.512500X0*%
%ADD49RoundRect,0.100000X0.100000X-0.225000X0.100000X0.225000X-0.100000X0.225000X-0.100000X-0.225000X0*%
%ADD50R,0.600000X1.550000*%
%ADD51R,1.200000X1.800000*%
%ADD52RoundRect,0.225000X-0.225000X-0.250000X0.225000X-0.250000X0.225000X0.250000X-0.225000X0.250000X0*%
%ADD53RoundRect,0.218750X0.218750X0.381250X-0.218750X0.381250X-0.218750X-0.381250X0.218750X-0.381250X0*%
%ADD54RoundRect,0.250000X-0.625000X0.375000X-0.625000X-0.375000X0.625000X-0.375000X0.625000X0.375000X0*%
%ADD55R,1.200000X0.400000*%
%ADD56R,1.150000X0.600000*%
%ADD57RoundRect,0.200000X0.275000X-0.200000X0.275000X0.200000X-0.275000X0.200000X-0.275000X-0.200000X0*%
%ADD58C,1.250000*%
%ADD59RoundRect,0.250000X-0.600000X-0.725000X0.600000X-0.725000X0.600000X0.725000X-0.600000X0.725000X0*%
%ADD60O,1.700000X1.950000*%
%ADD61RoundRect,0.125000X0.125000X-0.125000X0.125000X0.125000X-0.125000X0.125000X-0.125000X-0.125000X0*%
%ADD62R,1.450000X0.450000*%
%ADD63R,0.980000X3.700000*%
%ADD64RoundRect,0.100000X-0.637500X-0.100000X0.637500X-0.100000X0.637500X0.100000X-0.637500X0.100000X0*%
%ADD65RoundRect,0.250000X0.625000X-0.312500X0.625000X0.312500X-0.625000X0.312500X-0.625000X-0.312500X0*%
%ADD66R,1.475000X0.600000*%
%ADD67R,0.600000X1.475000*%
%ADD68RoundRect,0.250000X0.312500X0.625000X-0.312500X0.625000X-0.312500X-0.625000X0.312500X-0.625000X0*%
%ADD69RoundRect,0.125000X0.125000X0.125000X-0.125000X0.125000X-0.125000X-0.125000X0.125000X-0.125000X0*%
%ADD70RoundRect,0.125000X-0.125000X0.125000X-0.125000X-0.125000X0.125000X-0.125000X0.125000X0.125000X0*%
%ADD71RoundRect,0.250000X-0.625000X0.312500X-0.625000X-0.312500X0.625000X-0.312500X0.625000X0.312500X0*%
%ADD72R,1.450000X2.500000*%
%ADD73C,0.991000*%
%ADD74C,0.787000*%
%ADD75RoundRect,0.250000X0.475000X-0.250000X0.475000X0.250000X-0.475000X0.250000X-0.475000X-0.250000X0*%
%ADD76RoundRect,0.250000X-0.375000X-0.625000X0.375000X-0.625000X0.375000X0.625000X-0.375000X0.625000X0*%
%ADD77R,0.400000X1.200000*%
%ADD78R,2.000000X2.000000*%
G04 APERTURE END LIST*
D10*
%TO.C,J1*%
X140250000Y-98300000D03*
D11*
X142750000Y-98300000D03*
X145250000Y-98300000D03*
X147750000Y-98300000D03*
%TD*%
D12*
%TO.C,J5*%
X129000000Y-96700000D03*
D13*
X131000000Y-96700000D03*
X133000000Y-96700000D03*
X135000000Y-96700000D03*
%TD*%
D14*
%TO.C,C101*%
X142250000Y-110750000D03*
D15*
X138750000Y-110750000D03*
%TD*%
D16*
%TO.C,C42*%
X101000000Y-132325000D03*
D17*
X101000000Y-128825000D03*
%TD*%
D18*
%TO.C,L101*%
X64800000Y-104580000D03*
X64800000Y-119820000D03*
X64800000Y-124900000D03*
X90200000Y-124900000D03*
X89800000Y-104580000D03*
%TD*%
D19*
%TO.C,J6*%
X53995500Y-117815100D03*
D20*
X53995500Y-101975101D03*
%TD*%
D21*
%TO.C,TP5*%
X102250000Y-99000000D03*
%TD*%
D22*
%TO.C,R34*%
X117675000Y-105250000D03*
X119325000Y-105250000D03*
%TD*%
D23*
%TO.C,D10*%
X148250000Y-111400000D03*
X148250000Y-104600000D03*
%TD*%
D24*
%TO.C,IC7*%
X130300000Y-122150000D03*
X130300000Y-121200000D03*
X130300000Y-120250000D03*
X127800000Y-120250000D03*
X127800000Y-122150000D03*
%TD*%
D25*
%TO.C,C40*%
X116000000Y-133025000D03*
X116000000Y-131475000D03*
%TD*%
D26*
%TO.C,C39*%
X126250000Y-123775000D03*
X126250000Y-126725000D03*
%TD*%
D27*
%TO.C,L1*%
X138550000Y-117250000D03*
X141950000Y-117250000D03*
%TD*%
D25*
%TO.C,C51*%
X104000000Y-109025000D03*
X104000000Y-107475000D03*
%TD*%
D28*
%TO.C,C36*%
X121000000Y-133475000D03*
X121000000Y-130525000D03*
%TD*%
D29*
%TO.C,IC6*%
X139300000Y-123607836D03*
X139300000Y-122657836D03*
X139300000Y-121707836D03*
X136700000Y-121707836D03*
X136700000Y-122657836D03*
X136700000Y-123607836D03*
%TD*%
D30*
%TO.C,R48*%
X131750000Y-131925000D03*
X131750000Y-133575000D03*
%TD*%
D21*
%TO.C,TPB1*%
X122800000Y-127100000D03*
%TD*%
D31*
%TO.C,D16*%
X121050000Y-119250000D03*
X123250000Y-119250000D03*
%TD*%
D32*
%TO.C,C34*%
X128750000Y-131975000D03*
X128750000Y-133525000D03*
%TD*%
D21*
%TO.C,TP9*%
X124250000Y-119250000D03*
%TD*%
D33*
%TO.C,T101*%
X102020000Y-123000000D03*
X107100000Y-123000000D03*
X109640000Y-123000000D03*
X112180000Y-123000000D03*
%TD*%
D30*
%TO.C,R27*%
X135900000Y-104475000D03*
X135900000Y-106125000D03*
%TD*%
D34*
%TO.C,D11*%
X135500000Y-112575000D03*
X135500000Y-111000000D03*
%TD*%
D29*
%TO.C,IC5*%
X131550000Y-130450000D03*
X131550000Y-129500000D03*
X131550000Y-128550000D03*
X128950000Y-128550000D03*
X128950000Y-129500000D03*
X128950000Y-130450000D03*
%TD*%
D35*
%TO.C,M1*%
X118200000Y-125300000D03*
X95800000Y-125300000D03*
%TD*%
D30*
%TO.C,R75*%
X99000000Y-107175000D03*
X99000000Y-108825000D03*
%TD*%
D21*
%TO.C,TP8*%
X116000000Y-123750000D03*
%TD*%
D36*
%TO.C,C50*%
X103500000Y-113512500D03*
X103500000Y-110562500D03*
%TD*%
D32*
%TO.C,C32*%
X133250000Y-128725000D03*
X133250000Y-130275000D03*
%TD*%
D37*
%TO.C,H3*%
X153000000Y-99000000D03*
X154000000Y-97000000D03*
X154000000Y-101000000D03*
X156000000Y-96000000D03*
D38*
X156000000Y-99000000D03*
D37*
X156000000Y-102000000D03*
X158000000Y-97000000D03*
X158000000Y-101000000D03*
X159000000Y-99000000D03*
%TD*%
D39*
%TO.C,R28*%
X126675000Y-103950000D03*
X125025000Y-103950000D03*
%TD*%
D21*
%TO.C,TP4*%
X144250000Y-129750000D03*
%TD*%
D40*
%TO.C,T3*%
X100900000Y-103500000D03*
X102800000Y-103500000D03*
X101850000Y-101625000D03*
%TD*%
D25*
%TO.C,C44*%
X111000000Y-133275000D03*
X111000000Y-131725000D03*
%TD*%
D41*
%TO.C,R60*%
X114412500Y-129000000D03*
X112587500Y-129000000D03*
%TD*%
D31*
%TO.C,D18*%
X122150000Y-106250000D03*
X124350000Y-106250000D03*
%TD*%
D42*
%TO.C,C33*%
X138275000Y-120157836D03*
X136725000Y-120157836D03*
%TD*%
D39*
%TO.C,R80*%
X115575000Y-107750000D03*
X113925000Y-107750000D03*
%TD*%
D43*
%TO.C,D15*%
X139250000Y-125287500D03*
X139250000Y-126862500D03*
%TD*%
D25*
%TO.C,C55*%
X112250000Y-104525000D03*
X112250000Y-102975000D03*
%TD*%
%TO.C,C3*%
X130500000Y-113100000D03*
X130500000Y-111550000D03*
%TD*%
%TO.C,C4*%
X130500000Y-110075000D03*
X130500000Y-108525000D03*
%TD*%
D44*
%TO.C,VR1*%
X120800000Y-125750000D03*
D45*
X121800000Y-122500000D03*
D44*
X122800000Y-125750000D03*
%TD*%
D46*
%TO.C,C5*%
X147475000Y-115750000D03*
X144525000Y-115750000D03*
%TD*%
D21*
%TO.C,TP2*%
X144250000Y-134000000D03*
%TD*%
D30*
%TO.C,R74*%
X108750000Y-109625000D03*
X108750000Y-111275000D03*
%TD*%
D47*
%TO.C,TH1*%
X116300000Y-122200000D03*
X118125000Y-122200000D03*
%TD*%
D48*
%TO.C,IC8*%
X114450000Y-130862500D03*
X113500000Y-130862500D03*
X112550000Y-130862500D03*
X112550000Y-133137500D03*
X113500000Y-133137500D03*
X114450000Y-133137500D03*
%TD*%
D25*
%TO.C,C53*%
X109250000Y-104525000D03*
X109250000Y-102975000D03*
%TD*%
D49*
%TO.C,IC4*%
X145600000Y-130450000D03*
X146250000Y-130450000D03*
X146900000Y-130450000D03*
X146900000Y-128550000D03*
X146250000Y-128550000D03*
X145600000Y-128550000D03*
%TD*%
D50*
%TO.C,J4*%
X100500000Y-98937000D03*
X99500000Y-98937000D03*
D51*
X101800000Y-96412000D03*
X98200000Y-96412000D03*
%TD*%
D39*
%TO.C,R40*%
X130275000Y-105000000D03*
X128625000Y-105000000D03*
%TD*%
D26*
%TO.C,C37*%
X129500000Y-123775000D03*
X129500000Y-126725000D03*
%TD*%
D52*
%TO.C,C54*%
X105725000Y-109700000D03*
X107275000Y-109700000D03*
%TD*%
D21*
%TO.C,TP11*%
X121000000Y-106500000D03*
%TD*%
D53*
%TO.C,L2*%
X136012500Y-102900000D03*
X133887500Y-102900000D03*
%TD*%
D22*
%TO.C,R73*%
X105675000Y-111200000D03*
X107325000Y-111200000D03*
%TD*%
D26*
%TO.C,C43*%
X69550000Y-129775000D03*
X69550000Y-132725000D03*
%TD*%
D54*
%TO.C,F1*%
X143500000Y-103100000D03*
X143500000Y-105900000D03*
%TD*%
D39*
%TO.C,R72*%
X99075000Y-110750000D03*
X97425000Y-110750000D03*
%TD*%
D55*
%TO.C,T5*%
X107050000Y-112600000D03*
X107050000Y-113250000D03*
X107050000Y-113900000D03*
X108950000Y-113900000D03*
X108950000Y-113250000D03*
X108950000Y-112600000D03*
%TD*%
D32*
%TO.C,C52*%
X97500000Y-107225000D03*
X97500000Y-108775000D03*
%TD*%
%TO.C,C41*%
X118000000Y-116475000D03*
X118000000Y-118025000D03*
%TD*%
D46*
%TO.C,C17*%
X147475000Y-122750000D03*
X144525000Y-122750000D03*
%TD*%
D25*
%TO.C,C35*%
X133250000Y-126850000D03*
X133250000Y-125300000D03*
%TD*%
D56*
%TO.C,D13*%
X120950000Y-102550000D03*
X120950000Y-103500000D03*
X120950000Y-104450000D03*
X123550000Y-104450000D03*
X123550000Y-103500000D03*
X123550000Y-102550000D03*
%TD*%
D57*
%TO.C,R36*%
X143250000Y-130075000D03*
X143250000Y-128425000D03*
%TD*%
D30*
%TO.C,R59*%
X119750000Y-118675000D03*
X119750000Y-120325000D03*
%TD*%
D58*
%TO.C,J2*%
X105000000Y-99900000D03*
D59*
X106600000Y-98300000D03*
D60*
X109100000Y-98300000D03*
X111600000Y-98300000D03*
X114100000Y-98300000D03*
X116600000Y-98300000D03*
X119100000Y-98300000D03*
X121600000Y-98300000D03*
X124100000Y-98300000D03*
%TD*%
D30*
%TO.C,R52*%
X117000000Y-107775000D03*
X117000000Y-109425000D03*
%TD*%
D25*
%TO.C,C28*%
X139150000Y-104675000D03*
X139150000Y-103125000D03*
%TD*%
D41*
%TO.C,R42*%
X99362500Y-103500000D03*
X97537500Y-103500000D03*
%TD*%
D26*
%TO.C,C30*%
X135750000Y-128775000D03*
X135750000Y-131725000D03*
%TD*%
D27*
%TO.C,L5*%
X82500000Y-131250000D03*
X79100000Y-131250000D03*
%TD*%
D21*
%TO.C,TP7*%
X123250000Y-133750000D03*
%TD*%
D30*
%TO.C,R29*%
X115750000Y-104675000D03*
X115750000Y-106325000D03*
%TD*%
D26*
%TO.C,C31*%
X141815000Y-120375000D03*
X141815000Y-123325000D03*
%TD*%
D61*
%TO.C,D20*%
X107500000Y-104850000D03*
X107500000Y-102650000D03*
%TD*%
D55*
%TO.C,T2*%
X119250000Y-103700000D03*
X119250000Y-103050000D03*
X119250000Y-102400000D03*
X117350000Y-102400000D03*
X117350000Y-103050000D03*
X117350000Y-103700000D03*
%TD*%
D30*
%TO.C,R53*%
X118500000Y-107775000D03*
X118500000Y-109425000D03*
%TD*%
D42*
%TO.C,C25*%
X147275000Y-132500000D03*
X145725000Y-132500000D03*
%TD*%
D21*
%TO.C,TP13*%
X102000000Y-105500000D03*
%TD*%
D57*
%TO.C,R32*%
X134000000Y-109650000D03*
X134000000Y-108000000D03*
%TD*%
D62*
%TO.C,IC1*%
X110450000Y-108175000D03*
X110450000Y-107525000D03*
X110450000Y-106875000D03*
X110450000Y-106225000D03*
X106050000Y-106225000D03*
X106050000Y-106875000D03*
X106050000Y-107525000D03*
X106050000Y-108175000D03*
%TD*%
D57*
%TO.C,R45*%
X131400000Y-102075000D03*
X131400000Y-100425000D03*
%TD*%
%TO.C,R56*%
X116500000Y-118075000D03*
X116500000Y-116425000D03*
%TD*%
%TO.C,R55*%
X115000000Y-118075000D03*
X115000000Y-116425000D03*
%TD*%
D63*
%TO.C,L3*%
X126685000Y-131250000D03*
X124315000Y-131250000D03*
%TD*%
D30*
%TO.C,R38*%
X143250000Y-131425000D03*
X143250000Y-133075000D03*
%TD*%
D64*
%TO.C,IC2*%
X111987500Y-110900000D03*
X111987500Y-111550000D03*
X111987500Y-112200000D03*
X111987500Y-112850000D03*
X111987500Y-113500000D03*
X111987500Y-114150000D03*
X111987500Y-114800000D03*
X117712500Y-114800000D03*
X117712500Y-114150000D03*
X117712500Y-113500000D03*
X117712500Y-112850000D03*
X117712500Y-112200000D03*
X117712500Y-111550000D03*
X117712500Y-110900000D03*
%TD*%
D57*
%TO.C,R39*%
X104300000Y-104575000D03*
X104300000Y-102925000D03*
%TD*%
D65*
%TO.C,R70*%
X95500000Y-115462500D03*
X95500000Y-112537500D03*
%TD*%
D39*
%TO.C,R81*%
X114150000Y-106250000D03*
X112500000Y-106250000D03*
%TD*%
D66*
%TO.C,IC3*%
X128738000Y-115562000D03*
X128738000Y-114762000D03*
X128738000Y-113962000D03*
X128738000Y-113162000D03*
X128738000Y-112362000D03*
X128738000Y-111562000D03*
X128738000Y-110762000D03*
X128738000Y-109962000D03*
D67*
X127300000Y-108524000D03*
X126500000Y-108524000D03*
X125700000Y-108524000D03*
X124900000Y-108524000D03*
X124100000Y-108524000D03*
X123300000Y-108524000D03*
X122500000Y-108524000D03*
X121700000Y-108524000D03*
D66*
X120262000Y-109962000D03*
X120262000Y-110762000D03*
X120262000Y-111562000D03*
X120262000Y-112362000D03*
X120262000Y-113162000D03*
X120262000Y-113962000D03*
X120262000Y-114762000D03*
X120262000Y-115562000D03*
D67*
X121700000Y-117000000D03*
X122500000Y-117000000D03*
X123300000Y-117000000D03*
X124100000Y-117000000D03*
X124900000Y-117000000D03*
X125700000Y-117000000D03*
X126500000Y-117000000D03*
X127300000Y-117000000D03*
%TD*%
D30*
%TO.C,R64*%
X132000000Y-108000000D03*
X132000000Y-109650000D03*
%TD*%
D63*
%TO.C,L4*%
X134685000Y-122250000D03*
X132315000Y-122250000D03*
%TD*%
D30*
%TO.C,R47*%
X136250000Y-125250000D03*
X136250000Y-126900000D03*
%TD*%
D21*
%TO.C,TPB2*%
X122800000Y-120900000D03*
%TD*%
D65*
%TO.C,R71*%
X98000000Y-115462500D03*
X98000000Y-112537500D03*
%TD*%
D41*
%TO.C,R43*%
X99362500Y-101600000D03*
X97537500Y-101600000D03*
%TD*%
D57*
%TO.C,R51*%
X137750000Y-126900000D03*
X137750000Y-125250000D03*
%TD*%
D68*
%TO.C,R35*%
X147725000Y-126000000D03*
X144800000Y-126000000D03*
%TD*%
D21*
%TO.C,TP1*%
X141500000Y-105250000D03*
%TD*%
D57*
%TO.C,R46*%
X133250000Y-133575000D03*
X133250000Y-131925000D03*
%TD*%
D37*
%TO.C,H4*%
X153000000Y-131000000D03*
X154000000Y-129000000D03*
X154000000Y-133000000D03*
X156000000Y-128000000D03*
D38*
X156000000Y-131000000D03*
D37*
X156000000Y-134000000D03*
X158000000Y-129000000D03*
X158000000Y-133000000D03*
X159000000Y-131000000D03*
%TD*%
D21*
%TO.C,TP14*%
X115000000Y-103000000D03*
%TD*%
D69*
%TO.C,D21*%
X100350000Y-105500000D03*
X98150000Y-105500000D03*
%TD*%
D57*
%TO.C,R31*%
X134000000Y-112650000D03*
X134000000Y-111000000D03*
%TD*%
D65*
%TO.C,R66*%
X109000000Y-129862500D03*
X109000000Y-126937500D03*
%TD*%
D61*
%TO.C,D17*%
X116250000Y-129350000D03*
X116250000Y-127150000D03*
%TD*%
D41*
%TO.C,R63*%
X114412500Y-127000000D03*
X112587500Y-127000000D03*
%TD*%
D30*
%TO.C,R82*%
X113750000Y-102925000D03*
X113750000Y-104575000D03*
%TD*%
D25*
%TO.C,C29*%
X137650000Y-104675000D03*
X137650000Y-103125000D03*
%TD*%
D22*
%TO.C,R62*%
X107175000Y-115300000D03*
X108825000Y-115300000D03*
%TD*%
D28*
%TO.C,C56*%
X101000000Y-132200000D03*
X101000000Y-129250000D03*
%TD*%
D56*
%TO.C,D14*%
X134350000Y-106500000D03*
X134350000Y-105550000D03*
X134350000Y-104600000D03*
X131750000Y-104600000D03*
X131750000Y-105550000D03*
X131750000Y-106500000D03*
%TD*%
D57*
%TO.C,R44*%
X129900000Y-102075000D03*
X129900000Y-100425000D03*
%TD*%
D70*
%TO.C,D19*%
X100750000Y-106900000D03*
X100750000Y-109100000D03*
%TD*%
D46*
%TO.C,C16*%
X147475000Y-119250000D03*
X144525000Y-119250000D03*
%TD*%
D57*
%TO.C,R79*%
X112500000Y-109325000D03*
X112500000Y-107675000D03*
%TD*%
D39*
%TO.C,R54*%
X121325000Y-128500000D03*
X119675000Y-128500000D03*
%TD*%
D30*
%TO.C,R37*%
X140250000Y-131425000D03*
X140250000Y-133075000D03*
%TD*%
D71*
%TO.C,R67*%
X101250000Y-115175000D03*
X101250000Y-118100000D03*
%TD*%
D57*
%TO.C,R76*%
X105800000Y-104575000D03*
X105800000Y-102925000D03*
%TD*%
D72*
%TO.C,C6*%
X155625000Y-119500000D03*
X149875000Y-119500000D03*
%TD*%
D57*
%TO.C,R77*%
X110250000Y-111275000D03*
X110250000Y-109625000D03*
%TD*%
D21*
%TO.C,TP6*%
X124650000Y-122550000D03*
%TD*%
D65*
%TO.C,R65*%
X106500000Y-129862500D03*
X106500000Y-126937500D03*
%TD*%
D25*
%TO.C,C57*%
X113250000Y-118025000D03*
X113250000Y-116475000D03*
%TD*%
D52*
%TO.C,C48*%
X125475000Y-118750000D03*
X127025000Y-118750000D03*
%TD*%
D73*
%TO.C,J3*%
X136163300Y-115885000D03*
X131083300Y-116901000D03*
X131083300Y-114869000D03*
D74*
X134893300Y-115250000D03*
X134893300Y-116520000D03*
X133623300Y-115250000D03*
X133623300Y-116520000D03*
X132353300Y-115250000D03*
X132353300Y-116520000D03*
%TD*%
D39*
%TO.C,R57*%
X127225000Y-106250000D03*
X125575000Y-106250000D03*
%TD*%
D57*
%TO.C,R61*%
X110250000Y-118075000D03*
X110250000Y-116425000D03*
%TD*%
D75*
%TO.C,C1*%
X132250000Y-113025000D03*
X132250000Y-111125000D03*
%TD*%
D39*
%TO.C,R33*%
X134075000Y-119000000D03*
X132425000Y-119000000D03*
%TD*%
D30*
%TO.C,R58*%
X111750000Y-116425000D03*
X111750000Y-118075000D03*
%TD*%
D43*
%TO.C,D12*%
X135500000Y-108037500D03*
X135500000Y-109612500D03*
%TD*%
D39*
%TO.C,R41*%
X130275000Y-103500000D03*
X128625000Y-103500000D03*
%TD*%
D57*
%TO.C,R78*%
X110750000Y-104575000D03*
X110750000Y-102925000D03*
%TD*%
D30*
%TO.C,R49*%
X130250000Y-131925000D03*
X130250000Y-133575000D03*
%TD*%
D32*
%TO.C,C38*%
X126200000Y-120225000D03*
X126200000Y-121775000D03*
%TD*%
D30*
%TO.C,R50*%
X134750000Y-125250000D03*
X134750000Y-126900000D03*
%TD*%
D21*
%TO.C,TP3*%
X141500000Y-126000000D03*
%TD*%
D26*
%TO.C,C47*%
X76050000Y-129775000D03*
X76050000Y-132725000D03*
%TD*%
D76*
%TO.C,F2*%
X133050000Y-100900000D03*
X135850000Y-100900000D03*
%TD*%
D36*
%TO.C,C49*%
X103500000Y-118112500D03*
X103500000Y-115162500D03*
%TD*%
D77*
%TO.C,T4*%
X107450000Y-118750000D03*
X108100000Y-118750000D03*
X108750000Y-118750000D03*
X108750000Y-116850000D03*
X108100000Y-116850000D03*
X107450000Y-116850000D03*
%TD*%
D32*
%TO.C,C27*%
X141750000Y-128475000D03*
X141750000Y-130025000D03*
%TD*%
D57*
%TO.C,R69*%
X102500000Y-109075000D03*
X102500000Y-107425000D03*
%TD*%
D52*
%TO.C,C46*%
X113975000Y-109250000D03*
X115525000Y-109250000D03*
%TD*%
D71*
%TO.C,R68*%
X101250000Y-110575000D03*
X101250000Y-113500000D03*
%TD*%
D25*
%TO.C,C26*%
X141750000Y-133025000D03*
X141750000Y-131475000D03*
%TD*%
D78*
%TO.C,TP12*%
X149900000Y-124000000D03*
%TD*%
D72*
%TO.C,C24*%
X155625000Y-115750000D03*
X149875000Y-115750000D03*
%TD*%
D21*
%TO.C,TP10*%
X111000000Y-128500000D03*
%TD*%
D26*
%TO.C,C45*%
X72800000Y-129775000D03*
X72800000Y-132725000D03*
%TD*%
D39*
%TO.C,R30*%
X126675000Y-102450000D03*
X125025000Y-102450000D03*
%TD*%
M02*
