%TF.GenerationSoftware,KiCad,Pcbnew,9.0.7*%
%TF.CreationDate,2026-04-29T17:25:47-05:00*%
%TF.ProjectId,OSLUV,4f534c55-562e-46b6-9963-61645f706362,01*%
%TF.SameCoordinates,PX2faf080PY5a995c0*%
%TF.FileFunction,Legend,Bot*%
%TF.FilePolarity,Positive*%
%FSLAX46Y46*%
G04 Gerber Fmt 4.6, Leading zero omitted, Abs format (unit mm)*
G04 Created by KiCad (PCBNEW 9.0.7) date 2026-04-29 17:25:47*
%MOMM*%
%LPD*%
G01*
G04 APERTURE LIST*
%ADD10C,0.100000*%
%ADD11C,0.150000*%
%ADD12C,0.200000*%
G04 APERTURE END LIST*
D10*
X86591353Y-105288728D02*
X87448496Y-105288728D01*
X87019925Y-105288728D02*
X87019925Y-103788728D01*
X87019925Y-103788728D02*
X87162782Y-104003014D01*
X87162782Y-104003014D02*
X87305639Y-104145871D01*
X87305639Y-104145871D02*
X87448496Y-104217300D01*
X86091354Y-103788728D02*
X85162782Y-103788728D01*
X85162782Y-103788728D02*
X85662782Y-104360157D01*
X85662782Y-104360157D02*
X85448497Y-104360157D01*
X85448497Y-104360157D02*
X85305640Y-104431585D01*
X85305640Y-104431585D02*
X85234211Y-104503014D01*
X85234211Y-104503014D02*
X85162782Y-104645871D01*
X85162782Y-104645871D02*
X85162782Y-105003014D01*
X85162782Y-105003014D02*
X85234211Y-105145871D01*
X85234211Y-105145871D02*
X85305640Y-105217300D01*
X85305640Y-105217300D02*
X85448497Y-105288728D01*
X85448497Y-105288728D02*
X85877068Y-105288728D01*
X85877068Y-105288728D02*
X86019925Y-105217300D01*
X86019925Y-105217300D02*
X86091354Y-105145871D01*
X87905639Y-125588728D02*
X87619925Y-125588728D01*
X87619925Y-125588728D02*
X87477068Y-125517300D01*
X87477068Y-125517300D02*
X87405639Y-125445871D01*
X87405639Y-125445871D02*
X87262782Y-125231585D01*
X87262782Y-125231585D02*
X87191353Y-124945871D01*
X87191353Y-124945871D02*
X87191353Y-124374442D01*
X87191353Y-124374442D02*
X87262782Y-124231585D01*
X87262782Y-124231585D02*
X87334211Y-124160157D01*
X87334211Y-124160157D02*
X87477068Y-124088728D01*
X87477068Y-124088728D02*
X87762782Y-124088728D01*
X87762782Y-124088728D02*
X87905639Y-124160157D01*
X87905639Y-124160157D02*
X87977068Y-124231585D01*
X87977068Y-124231585D02*
X88048496Y-124374442D01*
X88048496Y-124374442D02*
X88048496Y-124731585D01*
X88048496Y-124731585D02*
X87977068Y-124874442D01*
X87977068Y-124874442D02*
X87905639Y-124945871D01*
X87905639Y-124945871D02*
X87762782Y-125017300D01*
X87762782Y-125017300D02*
X87477068Y-125017300D01*
X87477068Y-125017300D02*
X87334211Y-124945871D01*
X87334211Y-124945871D02*
X87262782Y-124874442D01*
X87262782Y-124874442D02*
X87191353Y-124731585D01*
X67034211Y-124188728D02*
X67319925Y-124188728D01*
X67319925Y-124188728D02*
X67462782Y-124260157D01*
X67462782Y-124260157D02*
X67534211Y-124331585D01*
X67534211Y-124331585D02*
X67677068Y-124545871D01*
X67677068Y-124545871D02*
X67748496Y-124831585D01*
X67748496Y-124831585D02*
X67748496Y-125403014D01*
X67748496Y-125403014D02*
X67677068Y-125545871D01*
X67677068Y-125545871D02*
X67605639Y-125617300D01*
X67605639Y-125617300D02*
X67462782Y-125688728D01*
X67462782Y-125688728D02*
X67177068Y-125688728D01*
X67177068Y-125688728D02*
X67034211Y-125617300D01*
X67034211Y-125617300D02*
X66962782Y-125545871D01*
X66962782Y-125545871D02*
X66891353Y-125403014D01*
X66891353Y-125403014D02*
X66891353Y-125045871D01*
X66891353Y-125045871D02*
X66962782Y-124903014D01*
X66962782Y-124903014D02*
X67034211Y-124831585D01*
X67034211Y-124831585D02*
X67177068Y-124760157D01*
X67177068Y-124760157D02*
X67462782Y-124760157D01*
X67462782Y-124760157D02*
X67605639Y-124831585D01*
X67605639Y-124831585D02*
X67677068Y-124903014D01*
X67677068Y-124903014D02*
X67748496Y-125045871D01*
X66962782Y-118988728D02*
X67677068Y-118988728D01*
X67677068Y-118988728D02*
X67748496Y-119703014D01*
X67748496Y-119703014D02*
X67677068Y-119631585D01*
X67677068Y-119631585D02*
X67534211Y-119560157D01*
X67534211Y-119560157D02*
X67177068Y-119560157D01*
X67177068Y-119560157D02*
X67034211Y-119631585D01*
X67034211Y-119631585D02*
X66962782Y-119703014D01*
X66962782Y-119703014D02*
X66891353Y-119845871D01*
X66891353Y-119845871D02*
X66891353Y-120203014D01*
X66891353Y-120203014D02*
X66962782Y-120345871D01*
X66962782Y-120345871D02*
X67034211Y-120417300D01*
X67034211Y-120417300D02*
X67177068Y-120488728D01*
X67177068Y-120488728D02*
X67534211Y-120488728D01*
X67534211Y-120488728D02*
X67677068Y-120417300D01*
X67677068Y-120417300D02*
X67748496Y-120345871D01*
X67748496Y-103931585D02*
X67677068Y-103860157D01*
X67677068Y-103860157D02*
X67534211Y-103788728D01*
X67534211Y-103788728D02*
X67177068Y-103788728D01*
X67177068Y-103788728D02*
X67034211Y-103860157D01*
X67034211Y-103860157D02*
X66962782Y-103931585D01*
X66962782Y-103931585D02*
X66891353Y-104074442D01*
X66891353Y-104074442D02*
X66891353Y-104217300D01*
X66891353Y-104217300D02*
X66962782Y-104431585D01*
X66962782Y-104431585D02*
X67819925Y-105288728D01*
X67819925Y-105288728D02*
X66891353Y-105288728D01*
D11*
X121600000Y-96800000D02*
X121600000Y-95800000D01*
X124500000Y-96400000D02*
X124100000Y-96800000D01*
X122000000Y-96200000D02*
X121600000Y-95800000D01*
X124100000Y-95800000D02*
X124100000Y-96800000D01*
X123700000Y-96400000D02*
X124100000Y-96800000D01*
X121200000Y-96200000D02*
X121600000Y-95800000D01*
X117119819Y-100562969D02*
X117119819Y-100086779D01*
X117119819Y-100086779D02*
X116119819Y-100086779D01*
X117119819Y-101324874D02*
X116596009Y-101324874D01*
X116596009Y-101324874D02*
X116500771Y-101277255D01*
X116500771Y-101277255D02*
X116453152Y-101182017D01*
X116453152Y-101182017D02*
X116453152Y-100991541D01*
X116453152Y-100991541D02*
X116500771Y-100896303D01*
X117072200Y-101324874D02*
X117119819Y-101229636D01*
X117119819Y-101229636D02*
X117119819Y-100991541D01*
X117119819Y-100991541D02*
X117072200Y-100896303D01*
X117072200Y-100896303D02*
X116976961Y-100848684D01*
X116976961Y-100848684D02*
X116881723Y-100848684D01*
X116881723Y-100848684D02*
X116786485Y-100896303D01*
X116786485Y-100896303D02*
X116738866Y-100991541D01*
X116738866Y-100991541D02*
X116738866Y-101229636D01*
X116738866Y-101229636D02*
X116691247Y-101324874D01*
X117119819Y-101801065D02*
X116453152Y-101801065D01*
X116548390Y-101801065D02*
X116500771Y-101848684D01*
X116500771Y-101848684D02*
X116453152Y-101943922D01*
X116453152Y-101943922D02*
X116453152Y-102086779D01*
X116453152Y-102086779D02*
X116500771Y-102182017D01*
X116500771Y-102182017D02*
X116596009Y-102229636D01*
X116596009Y-102229636D02*
X117119819Y-102229636D01*
X116596009Y-102229636D02*
X116500771Y-102277255D01*
X116500771Y-102277255D02*
X116453152Y-102372493D01*
X116453152Y-102372493D02*
X116453152Y-102515350D01*
X116453152Y-102515350D02*
X116500771Y-102610589D01*
X116500771Y-102610589D02*
X116596009Y-102658208D01*
X116596009Y-102658208D02*
X117119819Y-102658208D01*
X116453152Y-103134398D02*
X117453152Y-103134398D01*
X116500771Y-103134398D02*
X116453152Y-103229636D01*
X116453152Y-103229636D02*
X116453152Y-103420112D01*
X116453152Y-103420112D02*
X116500771Y-103515350D01*
X116500771Y-103515350D02*
X116548390Y-103562969D01*
X116548390Y-103562969D02*
X116643628Y-103610588D01*
X116643628Y-103610588D02*
X116929342Y-103610588D01*
X116929342Y-103610588D02*
X117024580Y-103562969D01*
X117024580Y-103562969D02*
X117072200Y-103515350D01*
X117072200Y-103515350D02*
X117119819Y-103420112D01*
X117119819Y-103420112D02*
X117119819Y-103229636D01*
X117119819Y-103229636D02*
X117072200Y-103134398D01*
X117215057Y-103801065D02*
X117215057Y-104562969D01*
X117119819Y-104943922D02*
X117072200Y-104848684D01*
X117072200Y-104848684D02*
X117024580Y-104801065D01*
X117024580Y-104801065D02*
X116929342Y-104753446D01*
X116929342Y-104753446D02*
X116643628Y-104753446D01*
X116643628Y-104753446D02*
X116548390Y-104801065D01*
X116548390Y-104801065D02*
X116500771Y-104848684D01*
X116500771Y-104848684D02*
X116453152Y-104943922D01*
X116453152Y-104943922D02*
X116453152Y-105086779D01*
X116453152Y-105086779D02*
X116500771Y-105182017D01*
X116500771Y-105182017D02*
X116548390Y-105229636D01*
X116548390Y-105229636D02*
X116643628Y-105277255D01*
X116643628Y-105277255D02*
X116929342Y-105277255D01*
X116929342Y-105277255D02*
X117024580Y-105229636D01*
X117024580Y-105229636D02*
X117072200Y-105182017D01*
X117072200Y-105182017D02*
X117119819Y-105086779D01*
X117119819Y-105086779D02*
X117119819Y-104943922D01*
X116453152Y-105705827D02*
X117119819Y-105705827D01*
X116548390Y-105705827D02*
X116500771Y-105753446D01*
X116500771Y-105753446D02*
X116453152Y-105848684D01*
X116453152Y-105848684D02*
X116453152Y-105991541D01*
X116453152Y-105991541D02*
X116500771Y-106086779D01*
X116500771Y-106086779D02*
X116596009Y-106134398D01*
X116596009Y-106134398D02*
X117119819Y-106134398D01*
X132988866Y-98336779D02*
X132988866Y-99098684D01*
X133369819Y-98717731D02*
X132607914Y-98717731D01*
X132369819Y-99479636D02*
X132369819Y-100098683D01*
X132369819Y-100098683D02*
X132750771Y-99765350D01*
X132750771Y-99765350D02*
X132750771Y-99908207D01*
X132750771Y-99908207D02*
X132798390Y-100003445D01*
X132798390Y-100003445D02*
X132846009Y-100051064D01*
X132846009Y-100051064D02*
X132941247Y-100098683D01*
X132941247Y-100098683D02*
X133179342Y-100098683D01*
X133179342Y-100098683D02*
X133274580Y-100051064D01*
X133274580Y-100051064D02*
X133322200Y-100003445D01*
X133322200Y-100003445D02*
X133369819Y-99908207D01*
X133369819Y-99908207D02*
X133369819Y-99622493D01*
X133369819Y-99622493D02*
X133322200Y-99527255D01*
X133322200Y-99527255D02*
X133274580Y-99479636D01*
X132369819Y-100384398D02*
X133369819Y-100717731D01*
X133369819Y-100717731D02*
X132369819Y-101051064D01*
X132369819Y-101289160D02*
X132369819Y-101908207D01*
X132369819Y-101908207D02*
X132750771Y-101574874D01*
X132750771Y-101574874D02*
X132750771Y-101717731D01*
X132750771Y-101717731D02*
X132798390Y-101812969D01*
X132798390Y-101812969D02*
X132846009Y-101860588D01*
X132846009Y-101860588D02*
X132941247Y-101908207D01*
X132941247Y-101908207D02*
X133179342Y-101908207D01*
X133179342Y-101908207D02*
X133274580Y-101860588D01*
X133274580Y-101860588D02*
X133322200Y-101812969D01*
X133322200Y-101812969D02*
X133369819Y-101717731D01*
X133369819Y-101717731D02*
X133369819Y-101432017D01*
X133369819Y-101432017D02*
X133322200Y-101336779D01*
X133322200Y-101336779D02*
X133274580Y-101289160D01*
X119369819Y-100086779D02*
X118369819Y-100086779D01*
X118369819Y-100086779D02*
X118369819Y-100467731D01*
X118369819Y-100467731D02*
X118417438Y-100562969D01*
X118417438Y-100562969D02*
X118465057Y-100610588D01*
X118465057Y-100610588D02*
X118560295Y-100658207D01*
X118560295Y-100658207D02*
X118703152Y-100658207D01*
X118703152Y-100658207D02*
X118798390Y-100610588D01*
X118798390Y-100610588D02*
X118846009Y-100562969D01*
X118846009Y-100562969D02*
X118893628Y-100467731D01*
X118893628Y-100467731D02*
X118893628Y-100086779D01*
X118369819Y-100991541D02*
X119369819Y-101229636D01*
X119369819Y-101229636D02*
X118655533Y-101420112D01*
X118655533Y-101420112D02*
X119369819Y-101610588D01*
X119369819Y-101610588D02*
X118369819Y-101848684D01*
X119369819Y-102229636D02*
X118369819Y-102229636D01*
X118369819Y-102229636D02*
X119084104Y-102562969D01*
X119084104Y-102562969D02*
X118369819Y-102896302D01*
X118369819Y-102896302D02*
X119369819Y-102896302D01*
X135369819Y-98336779D02*
X134369819Y-98336779D01*
X134369819Y-98336779D02*
X134369819Y-98574874D01*
X134369819Y-98574874D02*
X134417438Y-98717731D01*
X134417438Y-98717731D02*
X134512676Y-98812969D01*
X134512676Y-98812969D02*
X134607914Y-98860588D01*
X134607914Y-98860588D02*
X134798390Y-98908207D01*
X134798390Y-98908207D02*
X134941247Y-98908207D01*
X134941247Y-98908207D02*
X135131723Y-98860588D01*
X135131723Y-98860588D02*
X135226961Y-98812969D01*
X135226961Y-98812969D02*
X135322200Y-98717731D01*
X135322200Y-98717731D02*
X135369819Y-98574874D01*
X135369819Y-98574874D02*
X135369819Y-98336779D01*
X134417438Y-99860588D02*
X134369819Y-99765350D01*
X134369819Y-99765350D02*
X134369819Y-99622493D01*
X134369819Y-99622493D02*
X134417438Y-99479636D01*
X134417438Y-99479636D02*
X134512676Y-99384398D01*
X134512676Y-99384398D02*
X134607914Y-99336779D01*
X134607914Y-99336779D02*
X134798390Y-99289160D01*
X134798390Y-99289160D02*
X134941247Y-99289160D01*
X134941247Y-99289160D02*
X135131723Y-99336779D01*
X135131723Y-99336779D02*
X135226961Y-99384398D01*
X135226961Y-99384398D02*
X135322200Y-99479636D01*
X135322200Y-99479636D02*
X135369819Y-99622493D01*
X135369819Y-99622493D02*
X135369819Y-99717731D01*
X135369819Y-99717731D02*
X135322200Y-99860588D01*
X135322200Y-99860588D02*
X135274580Y-99908207D01*
X135274580Y-99908207D02*
X134941247Y-99908207D01*
X134941247Y-99908207D02*
X134941247Y-99717731D01*
X135369819Y-100336779D02*
X134369819Y-100336779D01*
X134369819Y-100336779D02*
X135369819Y-100908207D01*
X135369819Y-100908207D02*
X134369819Y-100908207D01*
X135369819Y-101384398D02*
X134369819Y-101384398D01*
X134369819Y-101384398D02*
X134369819Y-101622493D01*
X134369819Y-101622493D02*
X134417438Y-101765350D01*
X134417438Y-101765350D02*
X134512676Y-101860588D01*
X134512676Y-101860588D02*
X134607914Y-101908207D01*
X134607914Y-101908207D02*
X134798390Y-101955826D01*
X134798390Y-101955826D02*
X134941247Y-101955826D01*
X134941247Y-101955826D02*
X135131723Y-101908207D01*
X135131723Y-101908207D02*
X135226961Y-101860588D01*
X135226961Y-101860588D02*
X135322200Y-101765350D01*
X135322200Y-101765350D02*
X135369819Y-101622493D01*
X135369819Y-101622493D02*
X135369819Y-101384398D01*
D12*
X64339850Y-115944838D02*
X65292231Y-115944838D01*
X65292231Y-115944838D02*
X65292231Y-113944838D01*
X62816040Y-115944838D02*
X62816040Y-114897219D01*
X62816040Y-114897219D02*
X62911278Y-114706742D01*
X62911278Y-114706742D02*
X63101754Y-114611504D01*
X63101754Y-114611504D02*
X63482707Y-114611504D01*
X63482707Y-114611504D02*
X63673183Y-114706742D01*
X62816040Y-115849600D02*
X63006516Y-115944838D01*
X63006516Y-115944838D02*
X63482707Y-115944838D01*
X63482707Y-115944838D02*
X63673183Y-115849600D01*
X63673183Y-115849600D02*
X63768421Y-115659123D01*
X63768421Y-115659123D02*
X63768421Y-115468647D01*
X63768421Y-115468647D02*
X63673183Y-115278171D01*
X63673183Y-115278171D02*
X63482707Y-115182933D01*
X63482707Y-115182933D02*
X63006516Y-115182933D01*
X63006516Y-115182933D02*
X62816040Y-115087695D01*
X61863659Y-115944838D02*
X61863659Y-114611504D01*
X61863659Y-114801980D02*
X61768421Y-114706742D01*
X61768421Y-114706742D02*
X61577945Y-114611504D01*
X61577945Y-114611504D02*
X61292230Y-114611504D01*
X61292230Y-114611504D02*
X61101754Y-114706742D01*
X61101754Y-114706742D02*
X61006516Y-114897219D01*
X61006516Y-114897219D02*
X61006516Y-115944838D01*
X61006516Y-114897219D02*
X60911278Y-114706742D01*
X60911278Y-114706742D02*
X60720802Y-114611504D01*
X60720802Y-114611504D02*
X60435088Y-114611504D01*
X60435088Y-114611504D02*
X60244611Y-114706742D01*
X60244611Y-114706742D02*
X60149373Y-114897219D01*
X60149373Y-114897219D02*
X60149373Y-115944838D01*
X59196992Y-114611504D02*
X59196992Y-116611504D01*
X59196992Y-114706742D02*
X59006516Y-114611504D01*
X59006516Y-114611504D02*
X58625563Y-114611504D01*
X58625563Y-114611504D02*
X58435087Y-114706742D01*
X58435087Y-114706742D02*
X58339849Y-114801980D01*
X58339849Y-114801980D02*
X58244611Y-114992457D01*
X58244611Y-114992457D02*
X58244611Y-115563885D01*
X58244611Y-115563885D02*
X58339849Y-115754361D01*
X58339849Y-115754361D02*
X58435087Y-115849600D01*
X58435087Y-115849600D02*
X58625563Y-115944838D01*
X58625563Y-115944838D02*
X59006516Y-115944838D01*
X59006516Y-115944838D02*
X59196992Y-115849600D01*
X54816039Y-114040076D02*
X55006515Y-113944838D01*
X55006515Y-113944838D02*
X55292229Y-113944838D01*
X55292229Y-113944838D02*
X55577944Y-114040076D01*
X55577944Y-114040076D02*
X55768420Y-114230552D01*
X55768420Y-114230552D02*
X55863658Y-114421028D01*
X55863658Y-114421028D02*
X55958896Y-114801980D01*
X55958896Y-114801980D02*
X55958896Y-115087695D01*
X55958896Y-115087695D02*
X55863658Y-115468647D01*
X55863658Y-115468647D02*
X55768420Y-115659123D01*
X55768420Y-115659123D02*
X55577944Y-115849600D01*
X55577944Y-115849600D02*
X55292229Y-115944838D01*
X55292229Y-115944838D02*
X55101753Y-115944838D01*
X55101753Y-115944838D02*
X54816039Y-115849600D01*
X54816039Y-115849600D02*
X54720801Y-115754361D01*
X54720801Y-115754361D02*
X54720801Y-115087695D01*
X54720801Y-115087695D02*
X55101753Y-115087695D01*
X53863658Y-115944838D02*
X53863658Y-113944838D01*
X53863658Y-113944838D02*
X52720801Y-115944838D01*
X52720801Y-115944838D02*
X52720801Y-113944838D01*
X51768420Y-115944838D02*
X51768420Y-113944838D01*
X51768420Y-113944838D02*
X51292230Y-113944838D01*
X51292230Y-113944838D02*
X51006515Y-114040076D01*
X51006515Y-114040076D02*
X50816039Y-114230552D01*
X50816039Y-114230552D02*
X50720801Y-114421028D01*
X50720801Y-114421028D02*
X50625563Y-114801980D01*
X50625563Y-114801980D02*
X50625563Y-115087695D01*
X50625563Y-115087695D02*
X50720801Y-115468647D01*
X50720801Y-115468647D02*
X50816039Y-115659123D01*
X50816039Y-115659123D02*
X51006515Y-115849600D01*
X51006515Y-115849600D02*
X51292230Y-115944838D01*
X51292230Y-115944838D02*
X51768420Y-115944838D01*
D11*
X112119819Y-100086779D02*
X111119819Y-100086779D01*
X111119819Y-100086779D02*
X111119819Y-100324874D01*
X111119819Y-100324874D02*
X111167438Y-100467731D01*
X111167438Y-100467731D02*
X111262676Y-100562969D01*
X111262676Y-100562969D02*
X111357914Y-100610588D01*
X111357914Y-100610588D02*
X111548390Y-100658207D01*
X111548390Y-100658207D02*
X111691247Y-100658207D01*
X111691247Y-100658207D02*
X111881723Y-100610588D01*
X111881723Y-100610588D02*
X111976961Y-100562969D01*
X111976961Y-100562969D02*
X112072200Y-100467731D01*
X112072200Y-100467731D02*
X112119819Y-100324874D01*
X112119819Y-100324874D02*
X112119819Y-100086779D01*
X111167438Y-101610588D02*
X111119819Y-101515350D01*
X111119819Y-101515350D02*
X111119819Y-101372493D01*
X111119819Y-101372493D02*
X111167438Y-101229636D01*
X111167438Y-101229636D02*
X111262676Y-101134398D01*
X111262676Y-101134398D02*
X111357914Y-101086779D01*
X111357914Y-101086779D02*
X111548390Y-101039160D01*
X111548390Y-101039160D02*
X111691247Y-101039160D01*
X111691247Y-101039160D02*
X111881723Y-101086779D01*
X111881723Y-101086779D02*
X111976961Y-101134398D01*
X111976961Y-101134398D02*
X112072200Y-101229636D01*
X112072200Y-101229636D02*
X112119819Y-101372493D01*
X112119819Y-101372493D02*
X112119819Y-101467731D01*
X112119819Y-101467731D02*
X112072200Y-101610588D01*
X112072200Y-101610588D02*
X112024580Y-101658207D01*
X112024580Y-101658207D02*
X111691247Y-101658207D01*
X111691247Y-101658207D02*
X111691247Y-101467731D01*
X112119819Y-102086779D02*
X111119819Y-102086779D01*
X111119819Y-102086779D02*
X112119819Y-102658207D01*
X112119819Y-102658207D02*
X111119819Y-102658207D01*
X112119819Y-103134398D02*
X111119819Y-103134398D01*
X111119819Y-103134398D02*
X111119819Y-103372493D01*
X111119819Y-103372493D02*
X111167438Y-103515350D01*
X111167438Y-103515350D02*
X111262676Y-103610588D01*
X111262676Y-103610588D02*
X111357914Y-103658207D01*
X111357914Y-103658207D02*
X111548390Y-103705826D01*
X111548390Y-103705826D02*
X111691247Y-103705826D01*
X111691247Y-103705826D02*
X111881723Y-103658207D01*
X111881723Y-103658207D02*
X111976961Y-103610588D01*
X111976961Y-103610588D02*
X112072200Y-103515350D01*
X112072200Y-103515350D02*
X112119819Y-103372493D01*
X112119819Y-103372493D02*
X112119819Y-103134398D01*
X123619819Y-100086779D02*
X124429342Y-100086779D01*
X124429342Y-100086779D02*
X124524580Y-100134398D01*
X124524580Y-100134398D02*
X124572200Y-100182017D01*
X124572200Y-100182017D02*
X124619819Y-100277255D01*
X124619819Y-100277255D02*
X124619819Y-100467731D01*
X124619819Y-100467731D02*
X124572200Y-100562969D01*
X124572200Y-100562969D02*
X124524580Y-100610588D01*
X124524580Y-100610588D02*
X124429342Y-100658207D01*
X124429342Y-100658207D02*
X123619819Y-100658207D01*
X124334104Y-101086779D02*
X124334104Y-101562969D01*
X124619819Y-100991541D02*
X123619819Y-101324874D01*
X123619819Y-101324874D02*
X124619819Y-101658207D01*
X124619819Y-102562969D02*
X124143628Y-102229636D01*
X124619819Y-101991541D02*
X123619819Y-101991541D01*
X123619819Y-101991541D02*
X123619819Y-102372493D01*
X123619819Y-102372493D02*
X123667438Y-102467731D01*
X123667438Y-102467731D02*
X123715057Y-102515350D01*
X123715057Y-102515350D02*
X123810295Y-102562969D01*
X123810295Y-102562969D02*
X123953152Y-102562969D01*
X123953152Y-102562969D02*
X124048390Y-102515350D01*
X124048390Y-102515350D02*
X124096009Y-102467731D01*
X124096009Y-102467731D02*
X124143628Y-102372493D01*
X124143628Y-102372493D02*
X124143628Y-101991541D01*
X123619819Y-102848684D02*
X123619819Y-103420112D01*
X124619819Y-103134398D02*
X123619819Y-103134398D01*
X124715057Y-103515351D02*
X124715057Y-104277255D01*
X124619819Y-105086779D02*
X124143628Y-104753446D01*
X124619819Y-104515351D02*
X123619819Y-104515351D01*
X123619819Y-104515351D02*
X123619819Y-104896303D01*
X123619819Y-104896303D02*
X123667438Y-104991541D01*
X123667438Y-104991541D02*
X123715057Y-105039160D01*
X123715057Y-105039160D02*
X123810295Y-105086779D01*
X123810295Y-105086779D02*
X123953152Y-105086779D01*
X123953152Y-105086779D02*
X124048390Y-105039160D01*
X124048390Y-105039160D02*
X124096009Y-104991541D01*
X124096009Y-104991541D02*
X124143628Y-104896303D01*
X124143628Y-104896303D02*
X124143628Y-104515351D01*
X123619819Y-105420113D02*
X124619819Y-106086779D01*
X123619819Y-106086779D02*
X124619819Y-105420113D01*
X143024580Y-99886779D02*
X143072200Y-99934398D01*
X143072200Y-99934398D02*
X143119819Y-99886779D01*
X143119819Y-99886779D02*
X143072200Y-99839160D01*
X143072200Y-99839160D02*
X143024580Y-99886779D01*
X143024580Y-99886779D02*
X143119819Y-99886779D01*
X142738866Y-99886779D02*
X142167438Y-99839160D01*
X142167438Y-99839160D02*
X142119819Y-99886779D01*
X142119819Y-99886779D02*
X142167438Y-99934398D01*
X142167438Y-99934398D02*
X142738866Y-99886779D01*
X142738866Y-99886779D02*
X142119819Y-99886779D01*
X143119819Y-100934397D02*
X142643628Y-100601064D01*
X143119819Y-100362969D02*
X142119819Y-100362969D01*
X142119819Y-100362969D02*
X142119819Y-100743921D01*
X142119819Y-100743921D02*
X142167438Y-100839159D01*
X142167438Y-100839159D02*
X142215057Y-100886778D01*
X142215057Y-100886778D02*
X142310295Y-100934397D01*
X142310295Y-100934397D02*
X142453152Y-100934397D01*
X142453152Y-100934397D02*
X142548390Y-100886778D01*
X142548390Y-100886778D02*
X142596009Y-100839159D01*
X142596009Y-100839159D02*
X142643628Y-100743921D01*
X142643628Y-100743921D02*
X142643628Y-100362969D01*
X142596009Y-101362969D02*
X142596009Y-101696302D01*
X143119819Y-101839159D02*
X143119819Y-101362969D01*
X143119819Y-101362969D02*
X142119819Y-101362969D01*
X142119819Y-101362969D02*
X142119819Y-101839159D01*
X143119819Y-102267731D02*
X142119819Y-102267731D01*
X142119819Y-102267731D02*
X142834104Y-102601064D01*
X142834104Y-102601064D02*
X142119819Y-102934397D01*
X142119819Y-102934397D02*
X143119819Y-102934397D01*
X142119819Y-103601064D02*
X142119819Y-103791540D01*
X142119819Y-103791540D02*
X142167438Y-103886778D01*
X142167438Y-103886778D02*
X142262676Y-103982016D01*
X142262676Y-103982016D02*
X142453152Y-104029635D01*
X142453152Y-104029635D02*
X142786485Y-104029635D01*
X142786485Y-104029635D02*
X142976961Y-103982016D01*
X142976961Y-103982016D02*
X143072200Y-103886778D01*
X143072200Y-103886778D02*
X143119819Y-103791540D01*
X143119819Y-103791540D02*
X143119819Y-103601064D01*
X143119819Y-103601064D02*
X143072200Y-103505826D01*
X143072200Y-103505826D02*
X142976961Y-103410588D01*
X142976961Y-103410588D02*
X142786485Y-103362969D01*
X142786485Y-103362969D02*
X142453152Y-103362969D01*
X142453152Y-103362969D02*
X142262676Y-103410588D01*
X142262676Y-103410588D02*
X142167438Y-103505826D01*
X142167438Y-103505826D02*
X142119819Y-103601064D01*
X142119819Y-104315350D02*
X142119819Y-104886778D01*
X143119819Y-104601064D02*
X142119819Y-104601064D01*
X142596009Y-105220112D02*
X142596009Y-105553445D01*
X143119819Y-105696302D02*
X143119819Y-105220112D01*
X143119819Y-105220112D02*
X142119819Y-105220112D01*
X142119819Y-105220112D02*
X142119819Y-105696302D01*
D12*
X60992231Y-105844838D02*
X60992231Y-103844838D01*
X60992231Y-104797219D02*
X59849374Y-104797219D01*
X59849374Y-105844838D02*
X59849374Y-103844838D01*
X59182707Y-103844838D02*
X58516041Y-105844838D01*
X58516041Y-105844838D02*
X57849374Y-103844838D01*
X55277945Y-103844838D02*
X54896992Y-103844838D01*
X54896992Y-103844838D02*
X54706516Y-103940076D01*
X54706516Y-103940076D02*
X54516040Y-104130552D01*
X54516040Y-104130552D02*
X54420802Y-104511504D01*
X54420802Y-104511504D02*
X54420802Y-105178171D01*
X54420802Y-105178171D02*
X54516040Y-105559123D01*
X54516040Y-105559123D02*
X54706516Y-105749600D01*
X54706516Y-105749600D02*
X54896992Y-105844838D01*
X54896992Y-105844838D02*
X55277945Y-105844838D01*
X55277945Y-105844838D02*
X55468421Y-105749600D01*
X55468421Y-105749600D02*
X55658897Y-105559123D01*
X55658897Y-105559123D02*
X55754135Y-105178171D01*
X55754135Y-105178171D02*
X55754135Y-104511504D01*
X55754135Y-104511504D02*
X55658897Y-104130552D01*
X55658897Y-104130552D02*
X55468421Y-103940076D01*
X55468421Y-103940076D02*
X55277945Y-103844838D01*
X53563659Y-103844838D02*
X53563659Y-105463885D01*
X53563659Y-105463885D02*
X53468421Y-105654361D01*
X53468421Y-105654361D02*
X53373183Y-105749600D01*
X53373183Y-105749600D02*
X53182707Y-105844838D01*
X53182707Y-105844838D02*
X52801754Y-105844838D01*
X52801754Y-105844838D02*
X52611278Y-105749600D01*
X52611278Y-105749600D02*
X52516040Y-105654361D01*
X52516040Y-105654361D02*
X52420802Y-105463885D01*
X52420802Y-105463885D02*
X52420802Y-103844838D01*
X51754135Y-103844838D02*
X50611278Y-103844838D01*
X51182707Y-105844838D02*
X51182707Y-103844838D01*
D11*
X109369819Y-100086779D02*
X108369819Y-100086779D01*
X108369819Y-100086779D02*
X108369819Y-100467731D01*
X108369819Y-100467731D02*
X108417438Y-100562969D01*
X108417438Y-100562969D02*
X108465057Y-100610588D01*
X108465057Y-100610588D02*
X108560295Y-100658207D01*
X108560295Y-100658207D02*
X108703152Y-100658207D01*
X108703152Y-100658207D02*
X108798390Y-100610588D01*
X108798390Y-100610588D02*
X108846009Y-100562969D01*
X108846009Y-100562969D02*
X108893628Y-100467731D01*
X108893628Y-100467731D02*
X108893628Y-100086779D01*
X108417438Y-101610588D02*
X108369819Y-101515350D01*
X108369819Y-101515350D02*
X108369819Y-101372493D01*
X108369819Y-101372493D02*
X108417438Y-101229636D01*
X108417438Y-101229636D02*
X108512676Y-101134398D01*
X108512676Y-101134398D02*
X108607914Y-101086779D01*
X108607914Y-101086779D02*
X108798390Y-101039160D01*
X108798390Y-101039160D02*
X108941247Y-101039160D01*
X108941247Y-101039160D02*
X109131723Y-101086779D01*
X109131723Y-101086779D02*
X109226961Y-101134398D01*
X109226961Y-101134398D02*
X109322200Y-101229636D01*
X109322200Y-101229636D02*
X109369819Y-101372493D01*
X109369819Y-101372493D02*
X109369819Y-101467731D01*
X109369819Y-101467731D02*
X109322200Y-101610588D01*
X109322200Y-101610588D02*
X109274580Y-101658207D01*
X109274580Y-101658207D02*
X108941247Y-101658207D01*
X108941247Y-101658207D02*
X108941247Y-101467731D01*
X109369819Y-102086779D02*
X108369819Y-102086779D01*
X108369819Y-102086779D02*
X109369819Y-102658207D01*
X109369819Y-102658207D02*
X108369819Y-102658207D01*
X109369819Y-103134398D02*
X108369819Y-103134398D01*
X108369819Y-103134398D02*
X108369819Y-103372493D01*
X108369819Y-103372493D02*
X108417438Y-103515350D01*
X108417438Y-103515350D02*
X108512676Y-103610588D01*
X108512676Y-103610588D02*
X108607914Y-103658207D01*
X108607914Y-103658207D02*
X108798390Y-103705826D01*
X108798390Y-103705826D02*
X108941247Y-103705826D01*
X108941247Y-103705826D02*
X109131723Y-103658207D01*
X109131723Y-103658207D02*
X109226961Y-103610588D01*
X109226961Y-103610588D02*
X109322200Y-103515350D01*
X109322200Y-103515350D02*
X109369819Y-103372493D01*
X109369819Y-103372493D02*
X109369819Y-103134398D01*
X114274580Y-100086779D02*
X114322200Y-100134398D01*
X114322200Y-100134398D02*
X114369819Y-100086779D01*
X114369819Y-100086779D02*
X114322200Y-100039160D01*
X114322200Y-100039160D02*
X114274580Y-100086779D01*
X114274580Y-100086779D02*
X114369819Y-100086779D01*
X113988866Y-100086779D02*
X113417438Y-100039160D01*
X113417438Y-100039160D02*
X113369819Y-100086779D01*
X113369819Y-100086779D02*
X113417438Y-100134398D01*
X113417438Y-100134398D02*
X113988866Y-100086779D01*
X113988866Y-100086779D02*
X113369819Y-100086779D01*
X114369819Y-101134397D02*
X113893628Y-100801064D01*
X114369819Y-100562969D02*
X113369819Y-100562969D01*
X113369819Y-100562969D02*
X113369819Y-100943921D01*
X113369819Y-100943921D02*
X113417438Y-101039159D01*
X113417438Y-101039159D02*
X113465057Y-101086778D01*
X113465057Y-101086778D02*
X113560295Y-101134397D01*
X113560295Y-101134397D02*
X113703152Y-101134397D01*
X113703152Y-101134397D02*
X113798390Y-101086778D01*
X113798390Y-101086778D02*
X113846009Y-101039159D01*
X113846009Y-101039159D02*
X113893628Y-100943921D01*
X113893628Y-100943921D02*
X113893628Y-100562969D01*
X113846009Y-101562969D02*
X113846009Y-101896302D01*
X114369819Y-102039159D02*
X114369819Y-101562969D01*
X114369819Y-101562969D02*
X113369819Y-101562969D01*
X113369819Y-101562969D02*
X113369819Y-102039159D01*
X114369819Y-102467731D02*
X113369819Y-102467731D01*
X113369819Y-102467731D02*
X114084104Y-102801064D01*
X114084104Y-102801064D02*
X113369819Y-103134397D01*
X113369819Y-103134397D02*
X114369819Y-103134397D01*
X113369819Y-103801064D02*
X113369819Y-103991540D01*
X113369819Y-103991540D02*
X113417438Y-104086778D01*
X113417438Y-104086778D02*
X113512676Y-104182016D01*
X113512676Y-104182016D02*
X113703152Y-104229635D01*
X113703152Y-104229635D02*
X114036485Y-104229635D01*
X114036485Y-104229635D02*
X114226961Y-104182016D01*
X114226961Y-104182016D02*
X114322200Y-104086778D01*
X114322200Y-104086778D02*
X114369819Y-103991540D01*
X114369819Y-103991540D02*
X114369819Y-103801064D01*
X114369819Y-103801064D02*
X114322200Y-103705826D01*
X114322200Y-103705826D02*
X114226961Y-103610588D01*
X114226961Y-103610588D02*
X114036485Y-103562969D01*
X114036485Y-103562969D02*
X113703152Y-103562969D01*
X113703152Y-103562969D02*
X113512676Y-103610588D01*
X113512676Y-103610588D02*
X113417438Y-103705826D01*
X113417438Y-103705826D02*
X113369819Y-103801064D01*
X113369819Y-104515350D02*
X113369819Y-105086778D01*
X114369819Y-104801064D02*
X113369819Y-104801064D01*
X113846009Y-105420112D02*
X113846009Y-105753445D01*
X114369819Y-105896302D02*
X114369819Y-105420112D01*
X114369819Y-105420112D02*
X113369819Y-105420112D01*
X113369819Y-105420112D02*
X113369819Y-105896302D01*
X147167438Y-100410588D02*
X147119819Y-100315350D01*
X147119819Y-100315350D02*
X147119819Y-100172493D01*
X147119819Y-100172493D02*
X147167438Y-100029636D01*
X147167438Y-100029636D02*
X147262676Y-99934398D01*
X147262676Y-99934398D02*
X147357914Y-99886779D01*
X147357914Y-99886779D02*
X147548390Y-99839160D01*
X147548390Y-99839160D02*
X147691247Y-99839160D01*
X147691247Y-99839160D02*
X147881723Y-99886779D01*
X147881723Y-99886779D02*
X147976961Y-99934398D01*
X147976961Y-99934398D02*
X148072200Y-100029636D01*
X148072200Y-100029636D02*
X148119819Y-100172493D01*
X148119819Y-100172493D02*
X148119819Y-100267731D01*
X148119819Y-100267731D02*
X148072200Y-100410588D01*
X148072200Y-100410588D02*
X148024580Y-100458207D01*
X148024580Y-100458207D02*
X147691247Y-100458207D01*
X147691247Y-100458207D02*
X147691247Y-100267731D01*
X148119819Y-100886779D02*
X147119819Y-100886779D01*
X147119819Y-100886779D02*
X148119819Y-101458207D01*
X148119819Y-101458207D02*
X147119819Y-101458207D01*
X148119819Y-101934398D02*
X147119819Y-101934398D01*
X147119819Y-101934398D02*
X147119819Y-102172493D01*
X147119819Y-102172493D02*
X147167438Y-102315350D01*
X147167438Y-102315350D02*
X147262676Y-102410588D01*
X147262676Y-102410588D02*
X147357914Y-102458207D01*
X147357914Y-102458207D02*
X147548390Y-102505826D01*
X147548390Y-102505826D02*
X147691247Y-102505826D01*
X147691247Y-102505826D02*
X147881723Y-102458207D01*
X147881723Y-102458207D02*
X147976961Y-102410588D01*
X147976961Y-102410588D02*
X148072200Y-102315350D01*
X148072200Y-102315350D02*
X148119819Y-102172493D01*
X148119819Y-102172493D02*
X148119819Y-101934398D01*
X145619819Y-100362969D02*
X145619819Y-99886779D01*
X145619819Y-99886779D02*
X144619819Y-99886779D01*
X145619819Y-101124874D02*
X145096009Y-101124874D01*
X145096009Y-101124874D02*
X145000771Y-101077255D01*
X145000771Y-101077255D02*
X144953152Y-100982017D01*
X144953152Y-100982017D02*
X144953152Y-100791541D01*
X144953152Y-100791541D02*
X145000771Y-100696303D01*
X145572200Y-101124874D02*
X145619819Y-101029636D01*
X145619819Y-101029636D02*
X145619819Y-100791541D01*
X145619819Y-100791541D02*
X145572200Y-100696303D01*
X145572200Y-100696303D02*
X145476961Y-100648684D01*
X145476961Y-100648684D02*
X145381723Y-100648684D01*
X145381723Y-100648684D02*
X145286485Y-100696303D01*
X145286485Y-100696303D02*
X145238866Y-100791541D01*
X145238866Y-100791541D02*
X145238866Y-101029636D01*
X145238866Y-101029636D02*
X145191247Y-101124874D01*
X145619819Y-101601065D02*
X144953152Y-101601065D01*
X145048390Y-101601065D02*
X145000771Y-101648684D01*
X145000771Y-101648684D02*
X144953152Y-101743922D01*
X144953152Y-101743922D02*
X144953152Y-101886779D01*
X144953152Y-101886779D02*
X145000771Y-101982017D01*
X145000771Y-101982017D02*
X145096009Y-102029636D01*
X145096009Y-102029636D02*
X145619819Y-102029636D01*
X145096009Y-102029636D02*
X145000771Y-102077255D01*
X145000771Y-102077255D02*
X144953152Y-102172493D01*
X144953152Y-102172493D02*
X144953152Y-102315350D01*
X144953152Y-102315350D02*
X145000771Y-102410589D01*
X145000771Y-102410589D02*
X145096009Y-102458208D01*
X145096009Y-102458208D02*
X145619819Y-102458208D01*
X144953152Y-102934398D02*
X145953152Y-102934398D01*
X145000771Y-102934398D02*
X144953152Y-103029636D01*
X144953152Y-103029636D02*
X144953152Y-103220112D01*
X144953152Y-103220112D02*
X145000771Y-103315350D01*
X145000771Y-103315350D02*
X145048390Y-103362969D01*
X145048390Y-103362969D02*
X145143628Y-103410588D01*
X145143628Y-103410588D02*
X145429342Y-103410588D01*
X145429342Y-103410588D02*
X145524580Y-103362969D01*
X145524580Y-103362969D02*
X145572200Y-103315350D01*
X145572200Y-103315350D02*
X145619819Y-103220112D01*
X145619819Y-103220112D02*
X145619819Y-103029636D01*
X145619819Y-103029636D02*
X145572200Y-102934398D01*
X145715057Y-103601065D02*
X145715057Y-104362969D01*
X145619819Y-104743922D02*
X145572200Y-104648684D01*
X145572200Y-104648684D02*
X145524580Y-104601065D01*
X145524580Y-104601065D02*
X145429342Y-104553446D01*
X145429342Y-104553446D02*
X145143628Y-104553446D01*
X145143628Y-104553446D02*
X145048390Y-104601065D01*
X145048390Y-104601065D02*
X145000771Y-104648684D01*
X145000771Y-104648684D02*
X144953152Y-104743922D01*
X144953152Y-104743922D02*
X144953152Y-104886779D01*
X144953152Y-104886779D02*
X145000771Y-104982017D01*
X145000771Y-104982017D02*
X145048390Y-105029636D01*
X145048390Y-105029636D02*
X145143628Y-105077255D01*
X145143628Y-105077255D02*
X145429342Y-105077255D01*
X145429342Y-105077255D02*
X145524580Y-105029636D01*
X145524580Y-105029636D02*
X145572200Y-104982017D01*
X145572200Y-104982017D02*
X145619819Y-104886779D01*
X145619819Y-104886779D02*
X145619819Y-104743922D01*
X144953152Y-105505827D02*
X145619819Y-105505827D01*
X145048390Y-105505827D02*
X145000771Y-105553446D01*
X145000771Y-105553446D02*
X144953152Y-105648684D01*
X144953152Y-105648684D02*
X144953152Y-105791541D01*
X144953152Y-105791541D02*
X145000771Y-105886779D01*
X145000771Y-105886779D02*
X145096009Y-105934398D01*
X145096009Y-105934398D02*
X145619819Y-105934398D01*
X106488866Y-100086779D02*
X106488866Y-100848684D01*
X106869819Y-100467731D02*
X106107914Y-100467731D01*
X105965057Y-101277255D02*
X105917438Y-101324874D01*
X105917438Y-101324874D02*
X105869819Y-101420112D01*
X105869819Y-101420112D02*
X105869819Y-101658207D01*
X105869819Y-101658207D02*
X105917438Y-101753445D01*
X105917438Y-101753445D02*
X105965057Y-101801064D01*
X105965057Y-101801064D02*
X106060295Y-101848683D01*
X106060295Y-101848683D02*
X106155533Y-101848683D01*
X106155533Y-101848683D02*
X106298390Y-101801064D01*
X106298390Y-101801064D02*
X106869819Y-101229636D01*
X106869819Y-101229636D02*
X106869819Y-101848683D01*
X106203152Y-102705826D02*
X106869819Y-102705826D01*
X105822200Y-102467731D02*
X106536485Y-102229636D01*
X106536485Y-102229636D02*
X106536485Y-102848683D01*
X105869819Y-103086779D02*
X106869819Y-103420112D01*
X106869819Y-103420112D02*
X105869819Y-103753445D01*
X140188866Y-99836779D02*
X140188866Y-100598684D01*
X140569819Y-100217731D02*
X139807914Y-100217731D01*
X139665057Y-101027255D02*
X139617438Y-101074874D01*
X139617438Y-101074874D02*
X139569819Y-101170112D01*
X139569819Y-101170112D02*
X139569819Y-101408207D01*
X139569819Y-101408207D02*
X139617438Y-101503445D01*
X139617438Y-101503445D02*
X139665057Y-101551064D01*
X139665057Y-101551064D02*
X139760295Y-101598683D01*
X139760295Y-101598683D02*
X139855533Y-101598683D01*
X139855533Y-101598683D02*
X139998390Y-101551064D01*
X139998390Y-101551064D02*
X140569819Y-100979636D01*
X140569819Y-100979636D02*
X140569819Y-101598683D01*
X139903152Y-102455826D02*
X140569819Y-102455826D01*
X139522200Y-102217731D02*
X140236485Y-101979636D01*
X140236485Y-101979636D02*
X140236485Y-102598683D01*
X139569819Y-102836779D02*
X140569819Y-103170112D01*
X140569819Y-103170112D02*
X139569819Y-103503445D01*
X131369819Y-98336779D02*
X130703152Y-98336779D01*
X130369819Y-98336779D02*
X130417438Y-98289160D01*
X130417438Y-98289160D02*
X130465057Y-98336779D01*
X130465057Y-98336779D02*
X130417438Y-98384398D01*
X130417438Y-98384398D02*
X130369819Y-98336779D01*
X130369819Y-98336779D02*
X130465057Y-98336779D01*
X130465057Y-98765350D02*
X130417438Y-98812969D01*
X130417438Y-98812969D02*
X130369819Y-98908207D01*
X130369819Y-98908207D02*
X130369819Y-99146302D01*
X130369819Y-99146302D02*
X130417438Y-99241540D01*
X130417438Y-99241540D02*
X130465057Y-99289159D01*
X130465057Y-99289159D02*
X130560295Y-99336778D01*
X130560295Y-99336778D02*
X130655533Y-99336778D01*
X130655533Y-99336778D02*
X130798390Y-99289159D01*
X130798390Y-99289159D02*
X131369819Y-98717731D01*
X131369819Y-98717731D02*
X131369819Y-99336778D01*
X131322200Y-100193921D02*
X131369819Y-100098683D01*
X131369819Y-100098683D02*
X131369819Y-99908207D01*
X131369819Y-99908207D02*
X131322200Y-99812969D01*
X131322200Y-99812969D02*
X131274580Y-99765350D01*
X131274580Y-99765350D02*
X131179342Y-99717731D01*
X131179342Y-99717731D02*
X130893628Y-99717731D01*
X130893628Y-99717731D02*
X130798390Y-99765350D01*
X130798390Y-99765350D02*
X130750771Y-99812969D01*
X130750771Y-99812969D02*
X130703152Y-99908207D01*
X130703152Y-99908207D02*
X130703152Y-100098683D01*
X130703152Y-100098683D02*
X130750771Y-100193921D01*
X131369819Y-101384398D02*
X130369819Y-101384398D01*
X130369819Y-101384398D02*
X130369819Y-101622493D01*
X130369819Y-101622493D02*
X130417438Y-101765350D01*
X130417438Y-101765350D02*
X130512676Y-101860588D01*
X130512676Y-101860588D02*
X130607914Y-101908207D01*
X130607914Y-101908207D02*
X130798390Y-101955826D01*
X130798390Y-101955826D02*
X130941247Y-101955826D01*
X130941247Y-101955826D02*
X131131723Y-101908207D01*
X131131723Y-101908207D02*
X131226961Y-101860588D01*
X131226961Y-101860588D02*
X131322200Y-101765350D01*
X131322200Y-101765350D02*
X131369819Y-101622493D01*
X131369819Y-101622493D02*
X131369819Y-101384398D01*
X131084104Y-102336779D02*
X131084104Y-102812969D01*
X131369819Y-102241541D02*
X130369819Y-102574874D01*
X130369819Y-102574874D02*
X131369819Y-102908207D01*
X130369819Y-103098684D02*
X130369819Y-103670112D01*
X131369819Y-103384398D02*
X130369819Y-103384398D01*
X120869819Y-100086779D02*
X121679342Y-100086779D01*
X121679342Y-100086779D02*
X121774580Y-100134398D01*
X121774580Y-100134398D02*
X121822200Y-100182017D01*
X121822200Y-100182017D02*
X121869819Y-100277255D01*
X121869819Y-100277255D02*
X121869819Y-100467731D01*
X121869819Y-100467731D02*
X121822200Y-100562969D01*
X121822200Y-100562969D02*
X121774580Y-100610588D01*
X121774580Y-100610588D02*
X121679342Y-100658207D01*
X121679342Y-100658207D02*
X120869819Y-100658207D01*
X121584104Y-101086779D02*
X121584104Y-101562969D01*
X121869819Y-100991541D02*
X120869819Y-101324874D01*
X120869819Y-101324874D02*
X121869819Y-101658207D01*
X121869819Y-102562969D02*
X121393628Y-102229636D01*
X121869819Y-101991541D02*
X120869819Y-101991541D01*
X120869819Y-101991541D02*
X120869819Y-102372493D01*
X120869819Y-102372493D02*
X120917438Y-102467731D01*
X120917438Y-102467731D02*
X120965057Y-102515350D01*
X120965057Y-102515350D02*
X121060295Y-102562969D01*
X121060295Y-102562969D02*
X121203152Y-102562969D01*
X121203152Y-102562969D02*
X121298390Y-102515350D01*
X121298390Y-102515350D02*
X121346009Y-102467731D01*
X121346009Y-102467731D02*
X121393628Y-102372493D01*
X121393628Y-102372493D02*
X121393628Y-101991541D01*
X120869819Y-102848684D02*
X120869819Y-103420112D01*
X121869819Y-103134398D02*
X120869819Y-103134398D01*
X121965057Y-103515351D02*
X121965057Y-104277255D01*
X120869819Y-104372494D02*
X120869819Y-104943922D01*
X121869819Y-104658208D02*
X120869819Y-104658208D01*
X120869819Y-105182018D02*
X121869819Y-105848684D01*
X120869819Y-105848684D02*
X121869819Y-105182018D01*
X129369819Y-98336779D02*
X128703152Y-98336779D01*
X128369819Y-98336779D02*
X128417438Y-98289160D01*
X128417438Y-98289160D02*
X128465057Y-98336779D01*
X128465057Y-98336779D02*
X128417438Y-98384398D01*
X128417438Y-98384398D02*
X128369819Y-98336779D01*
X128369819Y-98336779D02*
X128465057Y-98336779D01*
X128465057Y-98765350D02*
X128417438Y-98812969D01*
X128417438Y-98812969D02*
X128369819Y-98908207D01*
X128369819Y-98908207D02*
X128369819Y-99146302D01*
X128369819Y-99146302D02*
X128417438Y-99241540D01*
X128417438Y-99241540D02*
X128465057Y-99289159D01*
X128465057Y-99289159D02*
X128560295Y-99336778D01*
X128560295Y-99336778D02*
X128655533Y-99336778D01*
X128655533Y-99336778D02*
X128798390Y-99289159D01*
X128798390Y-99289159D02*
X129369819Y-98717731D01*
X129369819Y-98717731D02*
X129369819Y-99336778D01*
X129322200Y-100193921D02*
X129369819Y-100098683D01*
X129369819Y-100098683D02*
X129369819Y-99908207D01*
X129369819Y-99908207D02*
X129322200Y-99812969D01*
X129322200Y-99812969D02*
X129274580Y-99765350D01*
X129274580Y-99765350D02*
X129179342Y-99717731D01*
X129179342Y-99717731D02*
X128893628Y-99717731D01*
X128893628Y-99717731D02*
X128798390Y-99765350D01*
X128798390Y-99765350D02*
X128750771Y-99812969D01*
X128750771Y-99812969D02*
X128703152Y-99908207D01*
X128703152Y-99908207D02*
X128703152Y-100098683D01*
X128703152Y-100098683D02*
X128750771Y-100193921D01*
X129274580Y-101955826D02*
X129322200Y-101908207D01*
X129322200Y-101908207D02*
X129369819Y-101765350D01*
X129369819Y-101765350D02*
X129369819Y-101670112D01*
X129369819Y-101670112D02*
X129322200Y-101527255D01*
X129322200Y-101527255D02*
X129226961Y-101432017D01*
X129226961Y-101432017D02*
X129131723Y-101384398D01*
X129131723Y-101384398D02*
X128941247Y-101336779D01*
X128941247Y-101336779D02*
X128798390Y-101336779D01*
X128798390Y-101336779D02*
X128607914Y-101384398D01*
X128607914Y-101384398D02*
X128512676Y-101432017D01*
X128512676Y-101432017D02*
X128417438Y-101527255D01*
X128417438Y-101527255D02*
X128369819Y-101670112D01*
X128369819Y-101670112D02*
X128369819Y-101765350D01*
X128369819Y-101765350D02*
X128417438Y-101908207D01*
X128417438Y-101908207D02*
X128465057Y-101955826D01*
X129369819Y-102860588D02*
X129369819Y-102384398D01*
X129369819Y-102384398D02*
X128369819Y-102384398D01*
X129369819Y-103193922D02*
X128369819Y-103193922D01*
X129369819Y-103765350D02*
X128798390Y-103336779D01*
X128369819Y-103765350D02*
X128941247Y-103193922D01*
M02*
