%TF.GenerationSoftware,KiCad,Pcbnew,9.0.7*%
%TF.CreationDate,2026-04-29T21:10:49-05:00*%
%TF.ProjectId,OSLUV,4f534c55-562e-46b6-9963-61645f706362,01*%
%TF.SameCoordinates,PX2faf080PY5a995c0*%
%TF.FileFunction,Soldermask,Bot*%
%TF.FilePolarity,Negative*%
%FSLAX46Y46*%
G04 Gerber Fmt 4.6, Leading zero omitted, Abs format (unit mm)*
G04 Created by KiCad (PCBNEW 9.0.7) date 2026-04-29 21:10:49*
%MOMM*%
%LPD*%
G01*
G04 APERTURE LIST*
G04 Aperture macros list*
%AMRoundRect*
0 Rectangle with rounded corners*
0 $1 Rounding radius*
0 $2 $3 $4 $5 $6 $7 $8 $9 X,Y pos of 4 corners*
0 Add a 4 corners polygon primitive as box body*
4,1,4,$2,$3,$4,$5,$6,$7,$8,$9,$2,$3,0*
0 Add four circle primitives for the rounded corners*
1,1,$1+$1,$2,$3*
1,1,$1+$1,$4,$5*
1,1,$1+$1,$6,$7*
1,1,$1+$1,$8,$9*
0 Add four rect primitives between the rounded corners*
20,1,$1+$1,$2,$3,$4,$5,0*
20,1,$1+$1,$4,$5,$6,$7,0*
20,1,$1+$1,$6,$7,$8,$9,0*
20,1,$1+$1,$8,$9,$2,$3,0*%
G04 Aperture macros list end*
%ADD10O,1.905000X4.500000*%
%ADD11C,2.500000*%
%ADD12C,0.600000*%
%ADD13C,6.600000*%
%ADD14R,3.200000X2.600000*%
%ADD15O,3.200000X2.600000*%
%ADD16R,2.000000X1.600000*%
%ADD17O,2.000000X1.600000*%
%ADD18C,1.250000*%
%ADD19RoundRect,0.250000X-0.600000X-0.725000X0.600000X-0.725000X0.600000X0.725000X-0.600000X0.725000X0*%
%ADD20O,1.700000X1.950000*%
%ADD21R,1.600000X2.000000*%
%ADD22O,1.600000X2.000000*%
%ADD23R,1.400000X1.100000*%
%ADD24C,1.400000*%
%ADD25C,0.991000*%
%ADD26C,0.787000*%
%ADD27O,3.500000X2.625000*%
%ADD28R,1.600000X1.600000*%
%ADD29C,1.600000*%
%ADD30R,2.000000X2.000000*%
G04 APERTURE END LIST*
D10*
%TO.C,T101*%
X102020000Y-123000000D03*
X107100000Y-123000000D03*
X109640000Y-123000000D03*
X112180000Y-123000000D03*
%TD*%
D11*
%TO.C,M1*%
X118200000Y-125300000D03*
X95800000Y-125300000D03*
%TD*%
D12*
%TO.C,H3*%
X153000000Y-99000000D03*
X154000000Y-97000000D03*
X154000000Y-101000000D03*
X156000000Y-96000000D03*
D13*
X156000000Y-99000000D03*
D12*
X156000000Y-102000000D03*
X158000000Y-97000000D03*
X158000000Y-101000000D03*
X159000000Y-99000000D03*
%TD*%
D14*
%TO.C,J6*%
X53995500Y-117815100D03*
D15*
X53995500Y-101975101D03*
%TD*%
D16*
%TO.C,C42*%
X101000000Y-132325000D03*
D17*
X101000000Y-128825000D03*
%TD*%
D18*
%TO.C,J2*%
X105000000Y-99900000D03*
D19*
X106600000Y-98300000D03*
D20*
X109100000Y-98300000D03*
X111600000Y-98300000D03*
X114100000Y-98300000D03*
X116600000Y-98300000D03*
X119100000Y-98300000D03*
X121600000Y-98300000D03*
X124100000Y-98300000D03*
%TD*%
D12*
%TO.C,H4*%
X153000000Y-131000000D03*
X154000000Y-129000000D03*
X154000000Y-133000000D03*
X156000000Y-128000000D03*
D13*
X156000000Y-131000000D03*
D12*
X156000000Y-134000000D03*
X158000000Y-129000000D03*
X158000000Y-133000000D03*
X159000000Y-131000000D03*
%TD*%
D21*
%TO.C,C101*%
X142250000Y-110750000D03*
D22*
X138750000Y-110750000D03*
%TD*%
D23*
%TO.C,J5*%
X129000000Y-96700000D03*
D24*
X131000000Y-96700000D03*
X133000000Y-96700000D03*
X135000000Y-96700000D03*
%TD*%
D25*
%TO.C,J3*%
X136163300Y-115885000D03*
X131083300Y-116901000D03*
X131083300Y-114869000D03*
D26*
X134893300Y-116520000D03*
X134893300Y-115250000D03*
X133623300Y-116520000D03*
X133623300Y-115250000D03*
X132353300Y-116520000D03*
X132353300Y-115250000D03*
%TD*%
D27*
%TO.C,L101*%
X64800000Y-104580000D03*
X64800000Y-119820000D03*
X64800000Y-124900000D03*
X90200000Y-124900000D03*
X89800000Y-104580000D03*
%TD*%
D28*
%TO.C,J1*%
X140250000Y-98300000D03*
D29*
X142750000Y-98300000D03*
X145250000Y-98300000D03*
X147750000Y-98300000D03*
%TD*%
D30*
%TO.C,TP12*%
X149900000Y-124000000D03*
%TD*%
M02*
