%TF.GenerationSoftware,KiCad,Pcbnew,9.0.2*%
%TF.CreationDate,2026-03-04T09:51:00+01:00*%
%TF.ProjectId,OSLUV,4f534c55-562e-46b6-9963-61645f706362,01*%
%TF.SameCoordinates,PX2faf080PY5a995c0*%
%TF.FileFunction,Legend,Bot*%
%TF.FilePolarity,Positive*%
%FSLAX46Y46*%
G04 Gerber Fmt 4.6, Leading zero omitted, Abs format (unit mm)*
G04 Created by KiCad (PCBNEW 9.0.2) date 2026-03-04 09:51:00*
%MOMM*%
%LPD*%
G01*
G04 APERTURE LIST*
%ADD10C,0.150000*%
%ADD11C,0.508000*%
G04 APERTURE END LIST*
D10*
X63625125Y-29594295D02*
X63167982Y-29594295D01*
X63396554Y-30394295D02*
X63396554Y-29594295D01*
X62596553Y-30356200D02*
X62672744Y-30394295D01*
X62672744Y-30394295D02*
X62825125Y-30394295D01*
X62825125Y-30394295D02*
X62901315Y-30356200D01*
X62901315Y-30356200D02*
X62939411Y-30280009D01*
X62939411Y-30280009D02*
X62939411Y-29975247D01*
X62939411Y-29975247D02*
X62901315Y-29899057D01*
X62901315Y-29899057D02*
X62825125Y-29860961D01*
X62825125Y-29860961D02*
X62672744Y-29860961D01*
X62672744Y-29860961D02*
X62596553Y-29899057D01*
X62596553Y-29899057D02*
X62558458Y-29975247D01*
X62558458Y-29975247D02*
X62558458Y-30051438D01*
X62558458Y-30051438D02*
X62939411Y-30127628D01*
X62215601Y-30394295D02*
X62215601Y-29860961D01*
X62215601Y-29937152D02*
X62177506Y-29899057D01*
X62177506Y-29899057D02*
X62101316Y-29860961D01*
X62101316Y-29860961D02*
X61987030Y-29860961D01*
X61987030Y-29860961D02*
X61910839Y-29899057D01*
X61910839Y-29899057D02*
X61872744Y-29975247D01*
X61872744Y-29975247D02*
X61872744Y-30394295D01*
X61872744Y-29975247D02*
X61834649Y-29899057D01*
X61834649Y-29899057D02*
X61758458Y-29860961D01*
X61758458Y-29860961D02*
X61644173Y-29860961D01*
X61644173Y-29860961D02*
X61567982Y-29899057D01*
X61567982Y-29899057D02*
X61529887Y-29975247D01*
X61529887Y-29975247D02*
X61529887Y-30394295D01*
X61148934Y-29860961D02*
X61148934Y-30660961D01*
X61148934Y-29899057D02*
X61072744Y-29860961D01*
X61072744Y-29860961D02*
X60920363Y-29860961D01*
X60920363Y-29860961D02*
X60844172Y-29899057D01*
X60844172Y-29899057D02*
X60806077Y-29937152D01*
X60806077Y-29937152D02*
X60767982Y-30013342D01*
X60767982Y-30013342D02*
X60767982Y-30241914D01*
X60767982Y-30241914D02*
X60806077Y-30318104D01*
X60806077Y-30318104D02*
X60844172Y-30356200D01*
X60844172Y-30356200D02*
X60920363Y-30394295D01*
X60920363Y-30394295D02*
X61072744Y-30394295D01*
X61072744Y-30394295D02*
X61148934Y-30356200D01*
X71600000Y-1800000D02*
X71600000Y-800000D01*
X74500000Y-1400000D02*
X74100000Y-1800000D01*
X72000000Y-1200000D02*
X71600000Y-800000D01*
X74100000Y-800000D02*
X74100000Y-1800000D01*
X73700000Y-1400000D02*
X74100000Y-1800000D01*
X71200000Y-1200000D02*
X71600000Y-800000D01*
X67144295Y-5420112D02*
X67144295Y-5039160D01*
X67144295Y-5039160D02*
X66344295Y-5039160D01*
X67144295Y-6029636D02*
X66725247Y-6029636D01*
X66725247Y-6029636D02*
X66649057Y-5991541D01*
X66649057Y-5991541D02*
X66610961Y-5915350D01*
X66610961Y-5915350D02*
X66610961Y-5762969D01*
X66610961Y-5762969D02*
X66649057Y-5686779D01*
X67106200Y-6029636D02*
X67144295Y-5953445D01*
X67144295Y-5953445D02*
X67144295Y-5762969D01*
X67144295Y-5762969D02*
X67106200Y-5686779D01*
X67106200Y-5686779D02*
X67030009Y-5648683D01*
X67030009Y-5648683D02*
X66953819Y-5648683D01*
X66953819Y-5648683D02*
X66877628Y-5686779D01*
X66877628Y-5686779D02*
X66839533Y-5762969D01*
X66839533Y-5762969D02*
X66839533Y-5953445D01*
X66839533Y-5953445D02*
X66801438Y-6029636D01*
X67144295Y-6410589D02*
X66610961Y-6410589D01*
X66687152Y-6410589D02*
X66649057Y-6448684D01*
X66649057Y-6448684D02*
X66610961Y-6524874D01*
X66610961Y-6524874D02*
X66610961Y-6639160D01*
X66610961Y-6639160D02*
X66649057Y-6715351D01*
X66649057Y-6715351D02*
X66725247Y-6753446D01*
X66725247Y-6753446D02*
X67144295Y-6753446D01*
X66725247Y-6753446D02*
X66649057Y-6791541D01*
X66649057Y-6791541D02*
X66610961Y-6867732D01*
X66610961Y-6867732D02*
X66610961Y-6982017D01*
X66610961Y-6982017D02*
X66649057Y-7058208D01*
X66649057Y-7058208D02*
X66725247Y-7096303D01*
X66725247Y-7096303D02*
X67144295Y-7096303D01*
X66610961Y-7477256D02*
X67410961Y-7477256D01*
X66649057Y-7477256D02*
X66610961Y-7553446D01*
X66610961Y-7553446D02*
X66610961Y-7705827D01*
X66610961Y-7705827D02*
X66649057Y-7782018D01*
X66649057Y-7782018D02*
X66687152Y-7820113D01*
X66687152Y-7820113D02*
X66763342Y-7858208D01*
X66763342Y-7858208D02*
X66991914Y-7858208D01*
X66991914Y-7858208D02*
X67068104Y-7820113D01*
X67068104Y-7820113D02*
X67106200Y-7782018D01*
X67106200Y-7782018D02*
X67144295Y-7705827D01*
X67144295Y-7705827D02*
X67144295Y-7553446D01*
X67144295Y-7553446D02*
X67106200Y-7477256D01*
X67220485Y-8010590D02*
X67220485Y-8620113D01*
X67144295Y-8924875D02*
X67106200Y-8848685D01*
X67106200Y-8848685D02*
X67068104Y-8810590D01*
X67068104Y-8810590D02*
X66991914Y-8772494D01*
X66991914Y-8772494D02*
X66763342Y-8772494D01*
X66763342Y-8772494D02*
X66687152Y-8810590D01*
X66687152Y-8810590D02*
X66649057Y-8848685D01*
X66649057Y-8848685D02*
X66610961Y-8924875D01*
X66610961Y-8924875D02*
X66610961Y-9039161D01*
X66610961Y-9039161D02*
X66649057Y-9115352D01*
X66649057Y-9115352D02*
X66687152Y-9153447D01*
X66687152Y-9153447D02*
X66763342Y-9191542D01*
X66763342Y-9191542D02*
X66991914Y-9191542D01*
X66991914Y-9191542D02*
X67068104Y-9153447D01*
X67068104Y-9153447D02*
X67106200Y-9115352D01*
X67106200Y-9115352D02*
X67144295Y-9039161D01*
X67144295Y-9039161D02*
X67144295Y-8924875D01*
X66610961Y-9534400D02*
X67144295Y-9534400D01*
X66687152Y-9534400D02*
X66649057Y-9572495D01*
X66649057Y-9572495D02*
X66610961Y-9648685D01*
X66610961Y-9648685D02*
X66610961Y-9762971D01*
X66610961Y-9762971D02*
X66649057Y-9839162D01*
X66649057Y-9839162D02*
X66725247Y-9877257D01*
X66725247Y-9877257D02*
X67144295Y-9877257D01*
X83089533Y-3289160D02*
X83089533Y-3898684D01*
X83394295Y-3593922D02*
X82784771Y-3593922D01*
X82594295Y-4203445D02*
X82594295Y-4698683D01*
X82594295Y-4698683D02*
X82899057Y-4432017D01*
X82899057Y-4432017D02*
X82899057Y-4546302D01*
X82899057Y-4546302D02*
X82937152Y-4622493D01*
X82937152Y-4622493D02*
X82975247Y-4660588D01*
X82975247Y-4660588D02*
X83051438Y-4698683D01*
X83051438Y-4698683D02*
X83241914Y-4698683D01*
X83241914Y-4698683D02*
X83318104Y-4660588D01*
X83318104Y-4660588D02*
X83356200Y-4622493D01*
X83356200Y-4622493D02*
X83394295Y-4546302D01*
X83394295Y-4546302D02*
X83394295Y-4317731D01*
X83394295Y-4317731D02*
X83356200Y-4241540D01*
X83356200Y-4241540D02*
X83318104Y-4203445D01*
X82594295Y-4927255D02*
X83394295Y-5193922D01*
X83394295Y-5193922D02*
X82594295Y-5460588D01*
X82594295Y-5651064D02*
X82594295Y-6146302D01*
X82594295Y-6146302D02*
X82899057Y-5879636D01*
X82899057Y-5879636D02*
X82899057Y-5993921D01*
X82899057Y-5993921D02*
X82937152Y-6070112D01*
X82937152Y-6070112D02*
X82975247Y-6108207D01*
X82975247Y-6108207D02*
X83051438Y-6146302D01*
X83051438Y-6146302D02*
X83241914Y-6146302D01*
X83241914Y-6146302D02*
X83318104Y-6108207D01*
X83318104Y-6108207D02*
X83356200Y-6070112D01*
X83356200Y-6070112D02*
X83394295Y-5993921D01*
X83394295Y-5993921D02*
X83394295Y-5765350D01*
X83394295Y-5765350D02*
X83356200Y-5689159D01*
X83356200Y-5689159D02*
X83318104Y-5651064D01*
X69394295Y-5039160D02*
X68594295Y-5039160D01*
X68594295Y-5039160D02*
X68594295Y-5343922D01*
X68594295Y-5343922D02*
X68632390Y-5420112D01*
X68632390Y-5420112D02*
X68670485Y-5458207D01*
X68670485Y-5458207D02*
X68746676Y-5496303D01*
X68746676Y-5496303D02*
X68860961Y-5496303D01*
X68860961Y-5496303D02*
X68937152Y-5458207D01*
X68937152Y-5458207D02*
X68975247Y-5420112D01*
X68975247Y-5420112D02*
X69013342Y-5343922D01*
X69013342Y-5343922D02*
X69013342Y-5039160D01*
X68594295Y-5762969D02*
X69394295Y-5953445D01*
X69394295Y-5953445D02*
X68822866Y-6105826D01*
X68822866Y-6105826D02*
X69394295Y-6258207D01*
X69394295Y-6258207D02*
X68594295Y-6448684D01*
X69394295Y-6753446D02*
X68594295Y-6753446D01*
X68594295Y-6753446D02*
X69165723Y-7020112D01*
X69165723Y-7020112D02*
X68594295Y-7286779D01*
X68594295Y-7286779D02*
X69394295Y-7286779D01*
X85394295Y-3289160D02*
X84594295Y-3289160D01*
X84594295Y-3289160D02*
X84594295Y-3479636D01*
X84594295Y-3479636D02*
X84632390Y-3593922D01*
X84632390Y-3593922D02*
X84708580Y-3670112D01*
X84708580Y-3670112D02*
X84784771Y-3708207D01*
X84784771Y-3708207D02*
X84937152Y-3746303D01*
X84937152Y-3746303D02*
X85051438Y-3746303D01*
X85051438Y-3746303D02*
X85203819Y-3708207D01*
X85203819Y-3708207D02*
X85280009Y-3670112D01*
X85280009Y-3670112D02*
X85356200Y-3593922D01*
X85356200Y-3593922D02*
X85394295Y-3479636D01*
X85394295Y-3479636D02*
X85394295Y-3289160D01*
X84632390Y-4508207D02*
X84594295Y-4432017D01*
X84594295Y-4432017D02*
X84594295Y-4317731D01*
X84594295Y-4317731D02*
X84632390Y-4203445D01*
X84632390Y-4203445D02*
X84708580Y-4127255D01*
X84708580Y-4127255D02*
X84784771Y-4089160D01*
X84784771Y-4089160D02*
X84937152Y-4051064D01*
X84937152Y-4051064D02*
X85051438Y-4051064D01*
X85051438Y-4051064D02*
X85203819Y-4089160D01*
X85203819Y-4089160D02*
X85280009Y-4127255D01*
X85280009Y-4127255D02*
X85356200Y-4203445D01*
X85356200Y-4203445D02*
X85394295Y-4317731D01*
X85394295Y-4317731D02*
X85394295Y-4393922D01*
X85394295Y-4393922D02*
X85356200Y-4508207D01*
X85356200Y-4508207D02*
X85318104Y-4546303D01*
X85318104Y-4546303D02*
X85051438Y-4546303D01*
X85051438Y-4546303D02*
X85051438Y-4393922D01*
X85394295Y-4889160D02*
X84594295Y-4889160D01*
X84594295Y-4889160D02*
X85394295Y-5346303D01*
X85394295Y-5346303D02*
X84594295Y-5346303D01*
X85394295Y-5727255D02*
X84594295Y-5727255D01*
X84594295Y-5727255D02*
X84594295Y-5917731D01*
X84594295Y-5917731D02*
X84632390Y-6032017D01*
X84632390Y-6032017D02*
X84708580Y-6108207D01*
X84708580Y-6108207D02*
X84784771Y-6146302D01*
X84784771Y-6146302D02*
X84937152Y-6184398D01*
X84937152Y-6184398D02*
X85051438Y-6184398D01*
X85051438Y-6184398D02*
X85203819Y-6146302D01*
X85203819Y-6146302D02*
X85280009Y-6108207D01*
X85280009Y-6108207D02*
X85356200Y-6032017D01*
X85356200Y-6032017D02*
X85394295Y-5917731D01*
X85394295Y-5917731D02*
X85394295Y-5727255D01*
X6929887Y-21094295D02*
X7310839Y-21094295D01*
X7310839Y-21094295D02*
X7310839Y-20294295D01*
X6320363Y-21094295D02*
X6320363Y-20675247D01*
X6320363Y-20675247D02*
X6358458Y-20599057D01*
X6358458Y-20599057D02*
X6434649Y-20560961D01*
X6434649Y-20560961D02*
X6587030Y-20560961D01*
X6587030Y-20560961D02*
X6663220Y-20599057D01*
X6320363Y-21056200D02*
X6396554Y-21094295D01*
X6396554Y-21094295D02*
X6587030Y-21094295D01*
X6587030Y-21094295D02*
X6663220Y-21056200D01*
X6663220Y-21056200D02*
X6701316Y-20980009D01*
X6701316Y-20980009D02*
X6701316Y-20903819D01*
X6701316Y-20903819D02*
X6663220Y-20827628D01*
X6663220Y-20827628D02*
X6587030Y-20789533D01*
X6587030Y-20789533D02*
X6396554Y-20789533D01*
X6396554Y-20789533D02*
X6320363Y-20751438D01*
X5939410Y-21094295D02*
X5939410Y-20560961D01*
X5939410Y-20637152D02*
X5901315Y-20599057D01*
X5901315Y-20599057D02*
X5825125Y-20560961D01*
X5825125Y-20560961D02*
X5710839Y-20560961D01*
X5710839Y-20560961D02*
X5634648Y-20599057D01*
X5634648Y-20599057D02*
X5596553Y-20675247D01*
X5596553Y-20675247D02*
X5596553Y-21094295D01*
X5596553Y-20675247D02*
X5558458Y-20599057D01*
X5558458Y-20599057D02*
X5482267Y-20560961D01*
X5482267Y-20560961D02*
X5367982Y-20560961D01*
X5367982Y-20560961D02*
X5291791Y-20599057D01*
X5291791Y-20599057D02*
X5253696Y-20675247D01*
X5253696Y-20675247D02*
X5253696Y-21094295D01*
X4872743Y-20560961D02*
X4872743Y-21360961D01*
X4872743Y-20599057D02*
X4796553Y-20560961D01*
X4796553Y-20560961D02*
X4644172Y-20560961D01*
X4644172Y-20560961D02*
X4567981Y-20599057D01*
X4567981Y-20599057D02*
X4529886Y-20637152D01*
X4529886Y-20637152D02*
X4491791Y-20713342D01*
X4491791Y-20713342D02*
X4491791Y-20941914D01*
X4491791Y-20941914D02*
X4529886Y-21018104D01*
X4529886Y-21018104D02*
X4567981Y-21056200D01*
X4567981Y-21056200D02*
X4644172Y-21094295D01*
X4644172Y-21094295D02*
X4796553Y-21094295D01*
X4796553Y-21094295D02*
X4872743Y-21056200D01*
X3120362Y-20332390D02*
X3196552Y-20294295D01*
X3196552Y-20294295D02*
X3310838Y-20294295D01*
X3310838Y-20294295D02*
X3425124Y-20332390D01*
X3425124Y-20332390D02*
X3501314Y-20408580D01*
X3501314Y-20408580D02*
X3539409Y-20484771D01*
X3539409Y-20484771D02*
X3577505Y-20637152D01*
X3577505Y-20637152D02*
X3577505Y-20751438D01*
X3577505Y-20751438D02*
X3539409Y-20903819D01*
X3539409Y-20903819D02*
X3501314Y-20980009D01*
X3501314Y-20980009D02*
X3425124Y-21056200D01*
X3425124Y-21056200D02*
X3310838Y-21094295D01*
X3310838Y-21094295D02*
X3234647Y-21094295D01*
X3234647Y-21094295D02*
X3120362Y-21056200D01*
X3120362Y-21056200D02*
X3082266Y-21018104D01*
X3082266Y-21018104D02*
X3082266Y-20751438D01*
X3082266Y-20751438D02*
X3234647Y-20751438D01*
X2739409Y-21094295D02*
X2739409Y-20294295D01*
X2739409Y-20294295D02*
X2282266Y-21094295D01*
X2282266Y-21094295D02*
X2282266Y-20294295D01*
X1901314Y-21094295D02*
X1901314Y-20294295D01*
X1901314Y-20294295D02*
X1710838Y-20294295D01*
X1710838Y-20294295D02*
X1596552Y-20332390D01*
X1596552Y-20332390D02*
X1520362Y-20408580D01*
X1520362Y-20408580D02*
X1482267Y-20484771D01*
X1482267Y-20484771D02*
X1444171Y-20637152D01*
X1444171Y-20637152D02*
X1444171Y-20751438D01*
X1444171Y-20751438D02*
X1482267Y-20903819D01*
X1482267Y-20903819D02*
X1520362Y-20980009D01*
X1520362Y-20980009D02*
X1596552Y-21056200D01*
X1596552Y-21056200D02*
X1710838Y-21094295D01*
X1710838Y-21094295D02*
X1901314Y-21094295D01*
X62144295Y-5039160D02*
X61344295Y-5039160D01*
X61344295Y-5039160D02*
X61344295Y-5229636D01*
X61344295Y-5229636D02*
X61382390Y-5343922D01*
X61382390Y-5343922D02*
X61458580Y-5420112D01*
X61458580Y-5420112D02*
X61534771Y-5458207D01*
X61534771Y-5458207D02*
X61687152Y-5496303D01*
X61687152Y-5496303D02*
X61801438Y-5496303D01*
X61801438Y-5496303D02*
X61953819Y-5458207D01*
X61953819Y-5458207D02*
X62030009Y-5420112D01*
X62030009Y-5420112D02*
X62106200Y-5343922D01*
X62106200Y-5343922D02*
X62144295Y-5229636D01*
X62144295Y-5229636D02*
X62144295Y-5039160D01*
X61382390Y-6258207D02*
X61344295Y-6182017D01*
X61344295Y-6182017D02*
X61344295Y-6067731D01*
X61344295Y-6067731D02*
X61382390Y-5953445D01*
X61382390Y-5953445D02*
X61458580Y-5877255D01*
X61458580Y-5877255D02*
X61534771Y-5839160D01*
X61534771Y-5839160D02*
X61687152Y-5801064D01*
X61687152Y-5801064D02*
X61801438Y-5801064D01*
X61801438Y-5801064D02*
X61953819Y-5839160D01*
X61953819Y-5839160D02*
X62030009Y-5877255D01*
X62030009Y-5877255D02*
X62106200Y-5953445D01*
X62106200Y-5953445D02*
X62144295Y-6067731D01*
X62144295Y-6067731D02*
X62144295Y-6143922D01*
X62144295Y-6143922D02*
X62106200Y-6258207D01*
X62106200Y-6258207D02*
X62068104Y-6296303D01*
X62068104Y-6296303D02*
X61801438Y-6296303D01*
X61801438Y-6296303D02*
X61801438Y-6143922D01*
X62144295Y-6639160D02*
X61344295Y-6639160D01*
X61344295Y-6639160D02*
X62144295Y-7096303D01*
X62144295Y-7096303D02*
X61344295Y-7096303D01*
X62144295Y-7477255D02*
X61344295Y-7477255D01*
X61344295Y-7477255D02*
X61344295Y-7667731D01*
X61344295Y-7667731D02*
X61382390Y-7782017D01*
X61382390Y-7782017D02*
X61458580Y-7858207D01*
X61458580Y-7858207D02*
X61534771Y-7896302D01*
X61534771Y-7896302D02*
X61687152Y-7934398D01*
X61687152Y-7934398D02*
X61801438Y-7934398D01*
X61801438Y-7934398D02*
X61953819Y-7896302D01*
X61953819Y-7896302D02*
X62030009Y-7858207D01*
X62030009Y-7858207D02*
X62106200Y-7782017D01*
X62106200Y-7782017D02*
X62144295Y-7667731D01*
X62144295Y-7667731D02*
X62144295Y-7477255D01*
X73844295Y-5039160D02*
X74491914Y-5039160D01*
X74491914Y-5039160D02*
X74568104Y-5077255D01*
X74568104Y-5077255D02*
X74606200Y-5115350D01*
X74606200Y-5115350D02*
X74644295Y-5191541D01*
X74644295Y-5191541D02*
X74644295Y-5343922D01*
X74644295Y-5343922D02*
X74606200Y-5420112D01*
X74606200Y-5420112D02*
X74568104Y-5458207D01*
X74568104Y-5458207D02*
X74491914Y-5496303D01*
X74491914Y-5496303D02*
X73844295Y-5496303D01*
X74415723Y-5839159D02*
X74415723Y-6220112D01*
X74644295Y-5762969D02*
X73844295Y-6029636D01*
X73844295Y-6029636D02*
X74644295Y-6296302D01*
X74644295Y-7020112D02*
X74263342Y-6753445D01*
X74644295Y-6562969D02*
X73844295Y-6562969D01*
X73844295Y-6562969D02*
X73844295Y-6867731D01*
X73844295Y-6867731D02*
X73882390Y-6943921D01*
X73882390Y-6943921D02*
X73920485Y-6982016D01*
X73920485Y-6982016D02*
X73996676Y-7020112D01*
X73996676Y-7020112D02*
X74110961Y-7020112D01*
X74110961Y-7020112D02*
X74187152Y-6982016D01*
X74187152Y-6982016D02*
X74225247Y-6943921D01*
X74225247Y-6943921D02*
X74263342Y-6867731D01*
X74263342Y-6867731D02*
X74263342Y-6562969D01*
X73844295Y-7248683D02*
X73844295Y-7705826D01*
X74644295Y-7477254D02*
X73844295Y-7477254D01*
X74720485Y-7782017D02*
X74720485Y-8391540D01*
X74644295Y-9039160D02*
X74263342Y-8772493D01*
X74644295Y-8582017D02*
X73844295Y-8582017D01*
X73844295Y-8582017D02*
X73844295Y-8886779D01*
X73844295Y-8886779D02*
X73882390Y-8962969D01*
X73882390Y-8962969D02*
X73920485Y-9001064D01*
X73920485Y-9001064D02*
X73996676Y-9039160D01*
X73996676Y-9039160D02*
X74110961Y-9039160D01*
X74110961Y-9039160D02*
X74187152Y-9001064D01*
X74187152Y-9001064D02*
X74225247Y-8962969D01*
X74225247Y-8962969D02*
X74263342Y-8886779D01*
X74263342Y-8886779D02*
X74263342Y-8582017D01*
X73844295Y-9305826D02*
X74644295Y-9839160D01*
X73844295Y-9839160D02*
X74644295Y-9305826D01*
X48689160Y-3805704D02*
X48689160Y-3158085D01*
X48689160Y-3158085D02*
X48727255Y-3081895D01*
X48727255Y-3081895D02*
X48765350Y-3043800D01*
X48765350Y-3043800D02*
X48841541Y-3005704D01*
X48841541Y-3005704D02*
X48993922Y-3005704D01*
X48993922Y-3005704D02*
X49070112Y-3043800D01*
X49070112Y-3043800D02*
X49108207Y-3081895D01*
X49108207Y-3081895D02*
X49146303Y-3158085D01*
X49146303Y-3158085D02*
X49146303Y-3805704D01*
X49412969Y-3805704D02*
X49679636Y-3005704D01*
X49679636Y-3005704D02*
X49946302Y-3805704D01*
X51203445Y-3005704D02*
X50822493Y-3005704D01*
X50822493Y-3005704D02*
X50822493Y-3805704D01*
X51470112Y-3424752D02*
X51736778Y-3424752D01*
X51851064Y-3005704D02*
X51470112Y-3005704D01*
X51470112Y-3005704D02*
X51470112Y-3805704D01*
X51470112Y-3805704D02*
X51851064Y-3805704D01*
X52193922Y-3005704D02*
X52193922Y-3805704D01*
X52193922Y-3805704D02*
X52384398Y-3805704D01*
X52384398Y-3805704D02*
X52498684Y-3767609D01*
X52498684Y-3767609D02*
X52574874Y-3691419D01*
X52574874Y-3691419D02*
X52612969Y-3615228D01*
X52612969Y-3615228D02*
X52651065Y-3462847D01*
X52651065Y-3462847D02*
X52651065Y-3348561D01*
X52651065Y-3348561D02*
X52612969Y-3196180D01*
X52612969Y-3196180D02*
X52574874Y-3119990D01*
X52574874Y-3119990D02*
X52498684Y-3043800D01*
X52498684Y-3043800D02*
X52384398Y-3005704D01*
X52384398Y-3005704D02*
X52193922Y-3005704D01*
X93068104Y-4839160D02*
X93106200Y-4877255D01*
X93106200Y-4877255D02*
X93144295Y-4839160D01*
X93144295Y-4839160D02*
X93106200Y-4801064D01*
X93106200Y-4801064D02*
X93068104Y-4839160D01*
X93068104Y-4839160D02*
X93144295Y-4839160D01*
X92839533Y-4839160D02*
X92382390Y-4801064D01*
X92382390Y-4801064D02*
X92344295Y-4839160D01*
X92344295Y-4839160D02*
X92382390Y-4877255D01*
X92382390Y-4877255D02*
X92839533Y-4839160D01*
X92839533Y-4839160D02*
X92344295Y-4839160D01*
X93144295Y-5677255D02*
X92763342Y-5410588D01*
X93144295Y-5220112D02*
X92344295Y-5220112D01*
X92344295Y-5220112D02*
X92344295Y-5524874D01*
X92344295Y-5524874D02*
X92382390Y-5601064D01*
X92382390Y-5601064D02*
X92420485Y-5639159D01*
X92420485Y-5639159D02*
X92496676Y-5677255D01*
X92496676Y-5677255D02*
X92610961Y-5677255D01*
X92610961Y-5677255D02*
X92687152Y-5639159D01*
X92687152Y-5639159D02*
X92725247Y-5601064D01*
X92725247Y-5601064D02*
X92763342Y-5524874D01*
X92763342Y-5524874D02*
X92763342Y-5220112D01*
X92725247Y-6020112D02*
X92725247Y-6286778D01*
X93144295Y-6401064D02*
X93144295Y-6020112D01*
X93144295Y-6020112D02*
X92344295Y-6020112D01*
X92344295Y-6020112D02*
X92344295Y-6401064D01*
X93144295Y-6743922D02*
X92344295Y-6743922D01*
X92344295Y-6743922D02*
X92915723Y-7010588D01*
X92915723Y-7010588D02*
X92344295Y-7277255D01*
X92344295Y-7277255D02*
X93144295Y-7277255D01*
X92344295Y-7810589D02*
X92344295Y-7962970D01*
X92344295Y-7962970D02*
X92382390Y-8039160D01*
X92382390Y-8039160D02*
X92458580Y-8115351D01*
X92458580Y-8115351D02*
X92610961Y-8153446D01*
X92610961Y-8153446D02*
X92877628Y-8153446D01*
X92877628Y-8153446D02*
X93030009Y-8115351D01*
X93030009Y-8115351D02*
X93106200Y-8039160D01*
X93106200Y-8039160D02*
X93144295Y-7962970D01*
X93144295Y-7962970D02*
X93144295Y-7810589D01*
X93144295Y-7810589D02*
X93106200Y-7734398D01*
X93106200Y-7734398D02*
X93030009Y-7658208D01*
X93030009Y-7658208D02*
X92877628Y-7620112D01*
X92877628Y-7620112D02*
X92610961Y-7620112D01*
X92610961Y-7620112D02*
X92458580Y-7658208D01*
X92458580Y-7658208D02*
X92382390Y-7734398D01*
X92382390Y-7734398D02*
X92344295Y-7810589D01*
X92344295Y-8382017D02*
X92344295Y-8839160D01*
X93144295Y-8610588D02*
X92344295Y-8610588D01*
X92725247Y-9105827D02*
X92725247Y-9372493D01*
X93144295Y-9486779D02*
X93144295Y-9105827D01*
X93144295Y-9105827D02*
X92344295Y-9105827D01*
X92344295Y-9105827D02*
X92344295Y-9486779D01*
X6310839Y-9394295D02*
X6310839Y-8594295D01*
X6310839Y-8975247D02*
X5853696Y-8975247D01*
X5853696Y-9394295D02*
X5853696Y-8594295D01*
X5587030Y-8594295D02*
X5320363Y-9394295D01*
X5320363Y-9394295D02*
X5053697Y-8594295D01*
X4025125Y-8594295D02*
X3872744Y-8594295D01*
X3872744Y-8594295D02*
X3796554Y-8632390D01*
X3796554Y-8632390D02*
X3720363Y-8708580D01*
X3720363Y-8708580D02*
X3682268Y-8860961D01*
X3682268Y-8860961D02*
X3682268Y-9127628D01*
X3682268Y-9127628D02*
X3720363Y-9280009D01*
X3720363Y-9280009D02*
X3796554Y-9356200D01*
X3796554Y-9356200D02*
X3872744Y-9394295D01*
X3872744Y-9394295D02*
X4025125Y-9394295D01*
X4025125Y-9394295D02*
X4101316Y-9356200D01*
X4101316Y-9356200D02*
X4177506Y-9280009D01*
X4177506Y-9280009D02*
X4215602Y-9127628D01*
X4215602Y-9127628D02*
X4215602Y-8860961D01*
X4215602Y-8860961D02*
X4177506Y-8708580D01*
X4177506Y-8708580D02*
X4101316Y-8632390D01*
X4101316Y-8632390D02*
X4025125Y-8594295D01*
X3339411Y-8594295D02*
X3339411Y-9241914D01*
X3339411Y-9241914D02*
X3301316Y-9318104D01*
X3301316Y-9318104D02*
X3263221Y-9356200D01*
X3263221Y-9356200D02*
X3187030Y-9394295D01*
X3187030Y-9394295D02*
X3034649Y-9394295D01*
X3034649Y-9394295D02*
X2958459Y-9356200D01*
X2958459Y-9356200D02*
X2920364Y-9318104D01*
X2920364Y-9318104D02*
X2882268Y-9241914D01*
X2882268Y-9241914D02*
X2882268Y-8594295D01*
X2615602Y-8594295D02*
X2158459Y-8594295D01*
X2387031Y-9394295D02*
X2387031Y-8594295D01*
X59394295Y-5039160D02*
X58594295Y-5039160D01*
X58594295Y-5039160D02*
X58594295Y-5343922D01*
X58594295Y-5343922D02*
X58632390Y-5420112D01*
X58632390Y-5420112D02*
X58670485Y-5458207D01*
X58670485Y-5458207D02*
X58746676Y-5496303D01*
X58746676Y-5496303D02*
X58860961Y-5496303D01*
X58860961Y-5496303D02*
X58937152Y-5458207D01*
X58937152Y-5458207D02*
X58975247Y-5420112D01*
X58975247Y-5420112D02*
X59013342Y-5343922D01*
X59013342Y-5343922D02*
X59013342Y-5039160D01*
X58632390Y-6258207D02*
X58594295Y-6182017D01*
X58594295Y-6182017D02*
X58594295Y-6067731D01*
X58594295Y-6067731D02*
X58632390Y-5953445D01*
X58632390Y-5953445D02*
X58708580Y-5877255D01*
X58708580Y-5877255D02*
X58784771Y-5839160D01*
X58784771Y-5839160D02*
X58937152Y-5801064D01*
X58937152Y-5801064D02*
X59051438Y-5801064D01*
X59051438Y-5801064D02*
X59203819Y-5839160D01*
X59203819Y-5839160D02*
X59280009Y-5877255D01*
X59280009Y-5877255D02*
X59356200Y-5953445D01*
X59356200Y-5953445D02*
X59394295Y-6067731D01*
X59394295Y-6067731D02*
X59394295Y-6143922D01*
X59394295Y-6143922D02*
X59356200Y-6258207D01*
X59356200Y-6258207D02*
X59318104Y-6296303D01*
X59318104Y-6296303D02*
X59051438Y-6296303D01*
X59051438Y-6296303D02*
X59051438Y-6143922D01*
X59394295Y-6639160D02*
X58594295Y-6639160D01*
X58594295Y-6639160D02*
X59394295Y-7096303D01*
X59394295Y-7096303D02*
X58594295Y-7096303D01*
X59394295Y-7477255D02*
X58594295Y-7477255D01*
X58594295Y-7477255D02*
X58594295Y-7667731D01*
X58594295Y-7667731D02*
X58632390Y-7782017D01*
X58632390Y-7782017D02*
X58708580Y-7858207D01*
X58708580Y-7858207D02*
X58784771Y-7896302D01*
X58784771Y-7896302D02*
X58937152Y-7934398D01*
X58937152Y-7934398D02*
X59051438Y-7934398D01*
X59051438Y-7934398D02*
X59203819Y-7896302D01*
X59203819Y-7896302D02*
X59280009Y-7858207D01*
X59280009Y-7858207D02*
X59356200Y-7782017D01*
X59356200Y-7782017D02*
X59394295Y-7667731D01*
X59394295Y-7667731D02*
X59394295Y-7477255D01*
X64318104Y-5039160D02*
X64356200Y-5077255D01*
X64356200Y-5077255D02*
X64394295Y-5039160D01*
X64394295Y-5039160D02*
X64356200Y-5001064D01*
X64356200Y-5001064D02*
X64318104Y-5039160D01*
X64318104Y-5039160D02*
X64394295Y-5039160D01*
X64089533Y-5039160D02*
X63632390Y-5001064D01*
X63632390Y-5001064D02*
X63594295Y-5039160D01*
X63594295Y-5039160D02*
X63632390Y-5077255D01*
X63632390Y-5077255D02*
X64089533Y-5039160D01*
X64089533Y-5039160D02*
X63594295Y-5039160D01*
X64394295Y-5877255D02*
X64013342Y-5610588D01*
X64394295Y-5420112D02*
X63594295Y-5420112D01*
X63594295Y-5420112D02*
X63594295Y-5724874D01*
X63594295Y-5724874D02*
X63632390Y-5801064D01*
X63632390Y-5801064D02*
X63670485Y-5839159D01*
X63670485Y-5839159D02*
X63746676Y-5877255D01*
X63746676Y-5877255D02*
X63860961Y-5877255D01*
X63860961Y-5877255D02*
X63937152Y-5839159D01*
X63937152Y-5839159D02*
X63975247Y-5801064D01*
X63975247Y-5801064D02*
X64013342Y-5724874D01*
X64013342Y-5724874D02*
X64013342Y-5420112D01*
X63975247Y-6220112D02*
X63975247Y-6486778D01*
X64394295Y-6601064D02*
X64394295Y-6220112D01*
X64394295Y-6220112D02*
X63594295Y-6220112D01*
X63594295Y-6220112D02*
X63594295Y-6601064D01*
X64394295Y-6943922D02*
X63594295Y-6943922D01*
X63594295Y-6943922D02*
X64165723Y-7210588D01*
X64165723Y-7210588D02*
X63594295Y-7477255D01*
X63594295Y-7477255D02*
X64394295Y-7477255D01*
X63594295Y-8010589D02*
X63594295Y-8162970D01*
X63594295Y-8162970D02*
X63632390Y-8239160D01*
X63632390Y-8239160D02*
X63708580Y-8315351D01*
X63708580Y-8315351D02*
X63860961Y-8353446D01*
X63860961Y-8353446D02*
X64127628Y-8353446D01*
X64127628Y-8353446D02*
X64280009Y-8315351D01*
X64280009Y-8315351D02*
X64356200Y-8239160D01*
X64356200Y-8239160D02*
X64394295Y-8162970D01*
X64394295Y-8162970D02*
X64394295Y-8010589D01*
X64394295Y-8010589D02*
X64356200Y-7934398D01*
X64356200Y-7934398D02*
X64280009Y-7858208D01*
X64280009Y-7858208D02*
X64127628Y-7820112D01*
X64127628Y-7820112D02*
X63860961Y-7820112D01*
X63860961Y-7820112D02*
X63708580Y-7858208D01*
X63708580Y-7858208D02*
X63632390Y-7934398D01*
X63632390Y-7934398D02*
X63594295Y-8010589D01*
X63594295Y-8582017D02*
X63594295Y-9039160D01*
X64394295Y-8810588D02*
X63594295Y-8810588D01*
X63975247Y-9305827D02*
X63975247Y-9572493D01*
X64394295Y-9686779D02*
X64394295Y-9305827D01*
X64394295Y-9305827D02*
X63594295Y-9305827D01*
X63594295Y-9305827D02*
X63594295Y-9686779D01*
X97382390Y-5258207D02*
X97344295Y-5182017D01*
X97344295Y-5182017D02*
X97344295Y-5067731D01*
X97344295Y-5067731D02*
X97382390Y-4953445D01*
X97382390Y-4953445D02*
X97458580Y-4877255D01*
X97458580Y-4877255D02*
X97534771Y-4839160D01*
X97534771Y-4839160D02*
X97687152Y-4801064D01*
X97687152Y-4801064D02*
X97801438Y-4801064D01*
X97801438Y-4801064D02*
X97953819Y-4839160D01*
X97953819Y-4839160D02*
X98030009Y-4877255D01*
X98030009Y-4877255D02*
X98106200Y-4953445D01*
X98106200Y-4953445D02*
X98144295Y-5067731D01*
X98144295Y-5067731D02*
X98144295Y-5143922D01*
X98144295Y-5143922D02*
X98106200Y-5258207D01*
X98106200Y-5258207D02*
X98068104Y-5296303D01*
X98068104Y-5296303D02*
X97801438Y-5296303D01*
X97801438Y-5296303D02*
X97801438Y-5143922D01*
X98144295Y-5639160D02*
X97344295Y-5639160D01*
X97344295Y-5639160D02*
X98144295Y-6096303D01*
X98144295Y-6096303D02*
X97344295Y-6096303D01*
X98144295Y-6477255D02*
X97344295Y-6477255D01*
X97344295Y-6477255D02*
X97344295Y-6667731D01*
X97344295Y-6667731D02*
X97382390Y-6782017D01*
X97382390Y-6782017D02*
X97458580Y-6858207D01*
X97458580Y-6858207D02*
X97534771Y-6896302D01*
X97534771Y-6896302D02*
X97687152Y-6934398D01*
X97687152Y-6934398D02*
X97801438Y-6934398D01*
X97801438Y-6934398D02*
X97953819Y-6896302D01*
X97953819Y-6896302D02*
X98030009Y-6858207D01*
X98030009Y-6858207D02*
X98106200Y-6782017D01*
X98106200Y-6782017D02*
X98144295Y-6667731D01*
X98144295Y-6667731D02*
X98144295Y-6477255D01*
X95644295Y-5220112D02*
X95644295Y-4839160D01*
X95644295Y-4839160D02*
X94844295Y-4839160D01*
X95644295Y-5829636D02*
X95225247Y-5829636D01*
X95225247Y-5829636D02*
X95149057Y-5791541D01*
X95149057Y-5791541D02*
X95110961Y-5715350D01*
X95110961Y-5715350D02*
X95110961Y-5562969D01*
X95110961Y-5562969D02*
X95149057Y-5486779D01*
X95606200Y-5829636D02*
X95644295Y-5753445D01*
X95644295Y-5753445D02*
X95644295Y-5562969D01*
X95644295Y-5562969D02*
X95606200Y-5486779D01*
X95606200Y-5486779D02*
X95530009Y-5448683D01*
X95530009Y-5448683D02*
X95453819Y-5448683D01*
X95453819Y-5448683D02*
X95377628Y-5486779D01*
X95377628Y-5486779D02*
X95339533Y-5562969D01*
X95339533Y-5562969D02*
X95339533Y-5753445D01*
X95339533Y-5753445D02*
X95301438Y-5829636D01*
X95644295Y-6210589D02*
X95110961Y-6210589D01*
X95187152Y-6210589D02*
X95149057Y-6248684D01*
X95149057Y-6248684D02*
X95110961Y-6324874D01*
X95110961Y-6324874D02*
X95110961Y-6439160D01*
X95110961Y-6439160D02*
X95149057Y-6515351D01*
X95149057Y-6515351D02*
X95225247Y-6553446D01*
X95225247Y-6553446D02*
X95644295Y-6553446D01*
X95225247Y-6553446D02*
X95149057Y-6591541D01*
X95149057Y-6591541D02*
X95110961Y-6667732D01*
X95110961Y-6667732D02*
X95110961Y-6782017D01*
X95110961Y-6782017D02*
X95149057Y-6858208D01*
X95149057Y-6858208D02*
X95225247Y-6896303D01*
X95225247Y-6896303D02*
X95644295Y-6896303D01*
X95110961Y-7277256D02*
X95910961Y-7277256D01*
X95149057Y-7277256D02*
X95110961Y-7353446D01*
X95110961Y-7353446D02*
X95110961Y-7505827D01*
X95110961Y-7505827D02*
X95149057Y-7582018D01*
X95149057Y-7582018D02*
X95187152Y-7620113D01*
X95187152Y-7620113D02*
X95263342Y-7658208D01*
X95263342Y-7658208D02*
X95491914Y-7658208D01*
X95491914Y-7658208D02*
X95568104Y-7620113D01*
X95568104Y-7620113D02*
X95606200Y-7582018D01*
X95606200Y-7582018D02*
X95644295Y-7505827D01*
X95644295Y-7505827D02*
X95644295Y-7353446D01*
X95644295Y-7353446D02*
X95606200Y-7277256D01*
X95720485Y-7810590D02*
X95720485Y-8420113D01*
X95644295Y-8724875D02*
X95606200Y-8648685D01*
X95606200Y-8648685D02*
X95568104Y-8610590D01*
X95568104Y-8610590D02*
X95491914Y-8572494D01*
X95491914Y-8572494D02*
X95263342Y-8572494D01*
X95263342Y-8572494D02*
X95187152Y-8610590D01*
X95187152Y-8610590D02*
X95149057Y-8648685D01*
X95149057Y-8648685D02*
X95110961Y-8724875D01*
X95110961Y-8724875D02*
X95110961Y-8839161D01*
X95110961Y-8839161D02*
X95149057Y-8915352D01*
X95149057Y-8915352D02*
X95187152Y-8953447D01*
X95187152Y-8953447D02*
X95263342Y-8991542D01*
X95263342Y-8991542D02*
X95491914Y-8991542D01*
X95491914Y-8991542D02*
X95568104Y-8953447D01*
X95568104Y-8953447D02*
X95606200Y-8915352D01*
X95606200Y-8915352D02*
X95644295Y-8839161D01*
X95644295Y-8839161D02*
X95644295Y-8724875D01*
X95110961Y-9334400D02*
X95644295Y-9334400D01*
X95187152Y-9334400D02*
X95149057Y-9372495D01*
X95149057Y-9372495D02*
X95110961Y-9448685D01*
X95110961Y-9448685D02*
X95110961Y-9562971D01*
X95110961Y-9562971D02*
X95149057Y-9639162D01*
X95149057Y-9639162D02*
X95225247Y-9677257D01*
X95225247Y-9677257D02*
X95644295Y-9677257D01*
X56589533Y-5039160D02*
X56589533Y-5648684D01*
X56894295Y-5343922D02*
X56284771Y-5343922D01*
X56170485Y-5991540D02*
X56132390Y-6029636D01*
X56132390Y-6029636D02*
X56094295Y-6105826D01*
X56094295Y-6105826D02*
X56094295Y-6296302D01*
X56094295Y-6296302D02*
X56132390Y-6372493D01*
X56132390Y-6372493D02*
X56170485Y-6410588D01*
X56170485Y-6410588D02*
X56246676Y-6448683D01*
X56246676Y-6448683D02*
X56322866Y-6448683D01*
X56322866Y-6448683D02*
X56437152Y-6410588D01*
X56437152Y-6410588D02*
X56894295Y-5953445D01*
X56894295Y-5953445D02*
X56894295Y-6448683D01*
X56360961Y-7134398D02*
X56894295Y-7134398D01*
X56056200Y-6943922D02*
X56627628Y-6753445D01*
X56627628Y-6753445D02*
X56627628Y-7248684D01*
X56094295Y-7439160D02*
X56894295Y-7705827D01*
X56894295Y-7705827D02*
X56094295Y-7972493D01*
X90289533Y-4789160D02*
X90289533Y-5398684D01*
X90594295Y-5093922D02*
X89984771Y-5093922D01*
X89870485Y-5741540D02*
X89832390Y-5779636D01*
X89832390Y-5779636D02*
X89794295Y-5855826D01*
X89794295Y-5855826D02*
X89794295Y-6046302D01*
X89794295Y-6046302D02*
X89832390Y-6122493D01*
X89832390Y-6122493D02*
X89870485Y-6160588D01*
X89870485Y-6160588D02*
X89946676Y-6198683D01*
X89946676Y-6198683D02*
X90022866Y-6198683D01*
X90022866Y-6198683D02*
X90137152Y-6160588D01*
X90137152Y-6160588D02*
X90594295Y-5703445D01*
X90594295Y-5703445D02*
X90594295Y-6198683D01*
X90060961Y-6884398D02*
X90594295Y-6884398D01*
X89756200Y-6693922D02*
X90327628Y-6503445D01*
X90327628Y-6503445D02*
X90327628Y-6998684D01*
X89794295Y-7189160D02*
X90594295Y-7455827D01*
X90594295Y-7455827D02*
X89794295Y-7722493D01*
X81394295Y-3289160D02*
X80860961Y-3289160D01*
X80594295Y-3289160D02*
X80632390Y-3251064D01*
X80632390Y-3251064D02*
X80670485Y-3289160D01*
X80670485Y-3289160D02*
X80632390Y-3327255D01*
X80632390Y-3327255D02*
X80594295Y-3289160D01*
X80594295Y-3289160D02*
X80670485Y-3289160D01*
X80670485Y-3632016D02*
X80632390Y-3670112D01*
X80632390Y-3670112D02*
X80594295Y-3746302D01*
X80594295Y-3746302D02*
X80594295Y-3936778D01*
X80594295Y-3936778D02*
X80632390Y-4012969D01*
X80632390Y-4012969D02*
X80670485Y-4051064D01*
X80670485Y-4051064D02*
X80746676Y-4089159D01*
X80746676Y-4089159D02*
X80822866Y-4089159D01*
X80822866Y-4089159D02*
X80937152Y-4051064D01*
X80937152Y-4051064D02*
X81394295Y-3593921D01*
X81394295Y-3593921D02*
X81394295Y-4089159D01*
X81356200Y-4774874D02*
X81394295Y-4698683D01*
X81394295Y-4698683D02*
X81394295Y-4546302D01*
X81394295Y-4546302D02*
X81356200Y-4470112D01*
X81356200Y-4470112D02*
X81318104Y-4432017D01*
X81318104Y-4432017D02*
X81241914Y-4393921D01*
X81241914Y-4393921D02*
X81013342Y-4393921D01*
X81013342Y-4393921D02*
X80937152Y-4432017D01*
X80937152Y-4432017D02*
X80899057Y-4470112D01*
X80899057Y-4470112D02*
X80860961Y-4546302D01*
X80860961Y-4546302D02*
X80860961Y-4698683D01*
X80860961Y-4698683D02*
X80899057Y-4774874D01*
X81394295Y-5727255D02*
X80594295Y-5727255D01*
X80594295Y-5727255D02*
X80594295Y-5917731D01*
X80594295Y-5917731D02*
X80632390Y-6032017D01*
X80632390Y-6032017D02*
X80708580Y-6108207D01*
X80708580Y-6108207D02*
X80784771Y-6146302D01*
X80784771Y-6146302D02*
X80937152Y-6184398D01*
X80937152Y-6184398D02*
X81051438Y-6184398D01*
X81051438Y-6184398D02*
X81203819Y-6146302D01*
X81203819Y-6146302D02*
X81280009Y-6108207D01*
X81280009Y-6108207D02*
X81356200Y-6032017D01*
X81356200Y-6032017D02*
X81394295Y-5917731D01*
X81394295Y-5917731D02*
X81394295Y-5727255D01*
X81165723Y-6489159D02*
X81165723Y-6870112D01*
X81394295Y-6412969D02*
X80594295Y-6679636D01*
X80594295Y-6679636D02*
X81394295Y-6946302D01*
X80594295Y-7098683D02*
X80594295Y-7555826D01*
X81394295Y-7327254D02*
X80594295Y-7327254D01*
X71094295Y-5039160D02*
X71741914Y-5039160D01*
X71741914Y-5039160D02*
X71818104Y-5077255D01*
X71818104Y-5077255D02*
X71856200Y-5115350D01*
X71856200Y-5115350D02*
X71894295Y-5191541D01*
X71894295Y-5191541D02*
X71894295Y-5343922D01*
X71894295Y-5343922D02*
X71856200Y-5420112D01*
X71856200Y-5420112D02*
X71818104Y-5458207D01*
X71818104Y-5458207D02*
X71741914Y-5496303D01*
X71741914Y-5496303D02*
X71094295Y-5496303D01*
X71665723Y-5839159D02*
X71665723Y-6220112D01*
X71894295Y-5762969D02*
X71094295Y-6029636D01*
X71094295Y-6029636D02*
X71894295Y-6296302D01*
X71894295Y-7020112D02*
X71513342Y-6753445D01*
X71894295Y-6562969D02*
X71094295Y-6562969D01*
X71094295Y-6562969D02*
X71094295Y-6867731D01*
X71094295Y-6867731D02*
X71132390Y-6943921D01*
X71132390Y-6943921D02*
X71170485Y-6982016D01*
X71170485Y-6982016D02*
X71246676Y-7020112D01*
X71246676Y-7020112D02*
X71360961Y-7020112D01*
X71360961Y-7020112D02*
X71437152Y-6982016D01*
X71437152Y-6982016D02*
X71475247Y-6943921D01*
X71475247Y-6943921D02*
X71513342Y-6867731D01*
X71513342Y-6867731D02*
X71513342Y-6562969D01*
X71094295Y-7248683D02*
X71094295Y-7705826D01*
X71894295Y-7477254D02*
X71094295Y-7477254D01*
X71970485Y-7782017D02*
X71970485Y-8391540D01*
X71094295Y-8467731D02*
X71094295Y-8924874D01*
X71894295Y-8696302D02*
X71094295Y-8696302D01*
X71094295Y-9115350D02*
X71894295Y-9648684D01*
X71094295Y-9648684D02*
X71894295Y-9115350D01*
X79394295Y-3289160D02*
X78860961Y-3289160D01*
X78594295Y-3289160D02*
X78632390Y-3251064D01*
X78632390Y-3251064D02*
X78670485Y-3289160D01*
X78670485Y-3289160D02*
X78632390Y-3327255D01*
X78632390Y-3327255D02*
X78594295Y-3289160D01*
X78594295Y-3289160D02*
X78670485Y-3289160D01*
X78670485Y-3632016D02*
X78632390Y-3670112D01*
X78632390Y-3670112D02*
X78594295Y-3746302D01*
X78594295Y-3746302D02*
X78594295Y-3936778D01*
X78594295Y-3936778D02*
X78632390Y-4012969D01*
X78632390Y-4012969D02*
X78670485Y-4051064D01*
X78670485Y-4051064D02*
X78746676Y-4089159D01*
X78746676Y-4089159D02*
X78822866Y-4089159D01*
X78822866Y-4089159D02*
X78937152Y-4051064D01*
X78937152Y-4051064D02*
X79394295Y-3593921D01*
X79394295Y-3593921D02*
X79394295Y-4089159D01*
X79356200Y-4774874D02*
X79394295Y-4698683D01*
X79394295Y-4698683D02*
X79394295Y-4546302D01*
X79394295Y-4546302D02*
X79356200Y-4470112D01*
X79356200Y-4470112D02*
X79318104Y-4432017D01*
X79318104Y-4432017D02*
X79241914Y-4393921D01*
X79241914Y-4393921D02*
X79013342Y-4393921D01*
X79013342Y-4393921D02*
X78937152Y-4432017D01*
X78937152Y-4432017D02*
X78899057Y-4470112D01*
X78899057Y-4470112D02*
X78860961Y-4546302D01*
X78860961Y-4546302D02*
X78860961Y-4698683D01*
X78860961Y-4698683D02*
X78899057Y-4774874D01*
X79318104Y-6184398D02*
X79356200Y-6146302D01*
X79356200Y-6146302D02*
X79394295Y-6032017D01*
X79394295Y-6032017D02*
X79394295Y-5955826D01*
X79394295Y-5955826D02*
X79356200Y-5841540D01*
X79356200Y-5841540D02*
X79280009Y-5765350D01*
X79280009Y-5765350D02*
X79203819Y-5727255D01*
X79203819Y-5727255D02*
X79051438Y-5689159D01*
X79051438Y-5689159D02*
X78937152Y-5689159D01*
X78937152Y-5689159D02*
X78784771Y-5727255D01*
X78784771Y-5727255D02*
X78708580Y-5765350D01*
X78708580Y-5765350D02*
X78632390Y-5841540D01*
X78632390Y-5841540D02*
X78594295Y-5955826D01*
X78594295Y-5955826D02*
X78594295Y-6032017D01*
X78594295Y-6032017D02*
X78632390Y-6146302D01*
X78632390Y-6146302D02*
X78670485Y-6184398D01*
X79394295Y-6908207D02*
X79394295Y-6527255D01*
X79394295Y-6527255D02*
X78594295Y-6527255D01*
X79394295Y-7174874D02*
X78594295Y-7174874D01*
X79394295Y-7632017D02*
X78937152Y-7289159D01*
X78594295Y-7632017D02*
X79051438Y-7174874D01*
D11*
%TO.C,J6*%
X4376500Y-26668000D02*
G75*
G02*
X3614500Y-26668000I-381000J0D01*
G01*
X3614500Y-26668000D02*
G75*
G02*
X4376500Y-26668000I381000J0D01*
G01*
%TD*%
M02*
