%TF.GenerationSoftware,KiCad,Pcbnew,9.0.2*%
%TF.CreationDate,2026-03-04T09:51:00+01:00*%
%TF.ProjectId,OSLUV,4f534c55-562e-46b6-9963-61645f706362,01*%
%TF.SameCoordinates,PX2faf080PY5a995c0*%
%TF.FileFunction,Legend,Top*%
%TF.FilePolarity,Positive*%
%FSLAX46Y46*%
G04 Gerber Fmt 4.6, Leading zero omitted, Abs format (unit mm)*
G04 Created by KiCad (PCBNEW 9.0.2) date 2026-03-04 09:51:00*
%MOMM*%
%LPD*%
G01*
G04 APERTURE LIST*
%ADD10C,0.150000*%
%ADD11C,0.550000*%
%ADD12C,0.100000*%
%ADD13C,0.300000*%
%ADD14C,0.200000*%
%ADD15C,0.120000*%
%ADD16C,0.022000*%
G04 APERTURE END LIST*
D10*
X78600000Y-24100000D02*
X80800000Y-24100000D01*
X78300000Y-24500000D02*
X78600000Y-24100000D01*
X75100000Y-24500000D02*
X78300000Y-24500000D01*
X78289160Y-23894295D02*
X78289160Y-23360961D01*
X78289160Y-23094295D02*
X78251064Y-23132390D01*
X78251064Y-23132390D02*
X78289160Y-23170485D01*
X78289160Y-23170485D02*
X78327255Y-23132390D01*
X78327255Y-23132390D02*
X78289160Y-23094295D01*
X78289160Y-23094295D02*
X78289160Y-23170485D01*
X78670112Y-23894295D02*
X78670112Y-23094295D01*
X78670112Y-23094295D02*
X78936778Y-23665723D01*
X78936778Y-23665723D02*
X79203445Y-23094295D01*
X79203445Y-23094295D02*
X79203445Y-23894295D01*
X79736779Y-23094295D02*
X79889160Y-23094295D01*
X79889160Y-23094295D02*
X79965350Y-23132390D01*
X79965350Y-23132390D02*
X80041541Y-23208580D01*
X80041541Y-23208580D02*
X80079636Y-23360961D01*
X80079636Y-23360961D02*
X80079636Y-23627628D01*
X80079636Y-23627628D02*
X80041541Y-23780009D01*
X80041541Y-23780009D02*
X79965350Y-23856200D01*
X79965350Y-23856200D02*
X79889160Y-23894295D01*
X79889160Y-23894295D02*
X79736779Y-23894295D01*
X79736779Y-23894295D02*
X79660588Y-23856200D01*
X79660588Y-23856200D02*
X79584398Y-23780009D01*
X79584398Y-23780009D02*
X79546302Y-23627628D01*
X79546302Y-23627628D02*
X79546302Y-23360961D01*
X79546302Y-23360961D02*
X79584398Y-23208580D01*
X79584398Y-23208580D02*
X79660588Y-23132390D01*
X79660588Y-23132390D02*
X79736779Y-23094295D01*
X80384397Y-23856200D02*
X80498683Y-23894295D01*
X80498683Y-23894295D02*
X80689159Y-23894295D01*
X80689159Y-23894295D02*
X80765350Y-23856200D01*
X80765350Y-23856200D02*
X80803445Y-23818104D01*
X80803445Y-23818104D02*
X80841540Y-23741914D01*
X80841540Y-23741914D02*
X80841540Y-23665723D01*
X80841540Y-23665723D02*
X80803445Y-23589533D01*
X80803445Y-23589533D02*
X80765350Y-23551438D01*
X80765350Y-23551438D02*
X80689159Y-23513342D01*
X80689159Y-23513342D02*
X80536778Y-23475247D01*
X80536778Y-23475247D02*
X80460588Y-23437152D01*
X80460588Y-23437152D02*
X80422493Y-23399057D01*
X80422493Y-23399057D02*
X80384397Y-23322866D01*
X80384397Y-23322866D02*
X80384397Y-23246676D01*
X80384397Y-23246676D02*
X80422493Y-23170485D01*
X80422493Y-23170485D02*
X80460588Y-23132390D01*
X80460588Y-23132390D02*
X80536778Y-23094295D01*
X80536778Y-23094295D02*
X80727255Y-23094295D01*
X80727255Y-23094295D02*
X80841540Y-23132390D01*
X69174874Y-31594295D02*
X69632017Y-31594295D01*
X69403445Y-32394295D02*
X69403445Y-31594295D01*
X69898684Y-32394295D02*
X69898684Y-31860961D01*
X69898684Y-32013342D02*
X69936779Y-31937152D01*
X69936779Y-31937152D02*
X69974874Y-31899057D01*
X69974874Y-31899057D02*
X70051065Y-31860961D01*
X70051065Y-31860961D02*
X70127255Y-31860961D01*
X70393922Y-32394295D02*
X70393922Y-31860961D01*
X70393922Y-31594295D02*
X70355826Y-31632390D01*
X70355826Y-31632390D02*
X70393922Y-31670485D01*
X70393922Y-31670485D02*
X70432017Y-31632390D01*
X70432017Y-31632390D02*
X70393922Y-31594295D01*
X70393922Y-31594295D02*
X70393922Y-31670485D01*
X70774874Y-32394295D02*
X70774874Y-31860961D01*
X70774874Y-31937152D02*
X70812969Y-31899057D01*
X70812969Y-31899057D02*
X70889159Y-31860961D01*
X70889159Y-31860961D02*
X71003445Y-31860961D01*
X71003445Y-31860961D02*
X71079636Y-31899057D01*
X71079636Y-31899057D02*
X71117731Y-31975247D01*
X71117731Y-31975247D02*
X71117731Y-32394295D01*
X71117731Y-31975247D02*
X71155826Y-31899057D01*
X71155826Y-31899057D02*
X71232017Y-31860961D01*
X71232017Y-31860961D02*
X71346302Y-31860961D01*
X71346302Y-31860961D02*
X71422493Y-31899057D01*
X71422493Y-31899057D02*
X71460588Y-31975247D01*
X71460588Y-31975247D02*
X71460588Y-32394295D01*
X96700000Y-17500000D02*
X99900000Y-17500000D01*
D11*
X90525000Y-7000000D02*
G75*
G02*
X89975000Y-7000000I-275000J0D01*
G01*
X89975000Y-7000000D02*
G75*
G02*
X90525000Y-7000000I275000J0D01*
G01*
D12*
X106000000Y-7500000D02*
X106000000Y-9000000D01*
D10*
X78100000Y-21200000D02*
X79600000Y-21200000D01*
D11*
X77775000Y-5000000D02*
G75*
G02*
X77225000Y-5000000I-275000J0D01*
G01*
X77225000Y-5000000D02*
G75*
G02*
X77775000Y-5000000I275000J0D01*
G01*
D12*
X105750000Y-10000000D02*
X106250000Y-10000000D01*
D13*
X4050000Y-25300000D02*
G75*
G02*
X3750000Y-25300000I-150000J0D01*
G01*
X3750000Y-25300000D02*
G75*
G02*
X4050000Y-25300000I150000J0D01*
G01*
D12*
X105000000Y-9000000D02*
X107000000Y-9000000D01*
D10*
X95100000Y-35825000D02*
X95100000Y-34975000D01*
D13*
X50750000Y-5000000D02*
G75*
G02*
X50450000Y-5000000I-150000J0D01*
G01*
X50450000Y-5000000D02*
G75*
G02*
X50750000Y-5000000I150000J0D01*
G01*
X57150000Y0D02*
G75*
G02*
X56850000Y0I-150000J0D01*
G01*
X56850000Y0D02*
G75*
G02*
X57150000Y0I150000J0D01*
G01*
D12*
X105500000Y-9500000D02*
X106500000Y-9500000D01*
D10*
X94900000Y-33200000D02*
X94600000Y-33900000D01*
X99508207Y-30632390D02*
X99432017Y-30594295D01*
X99432017Y-30594295D02*
X99317731Y-30594295D01*
X99317731Y-30594295D02*
X99203445Y-30632390D01*
X99203445Y-30632390D02*
X99127255Y-30708580D01*
X99127255Y-30708580D02*
X99089160Y-30784771D01*
X99089160Y-30784771D02*
X99051064Y-30937152D01*
X99051064Y-30937152D02*
X99051064Y-31051438D01*
X99051064Y-31051438D02*
X99089160Y-31203819D01*
X99089160Y-31203819D02*
X99127255Y-31280009D01*
X99127255Y-31280009D02*
X99203445Y-31356200D01*
X99203445Y-31356200D02*
X99317731Y-31394295D01*
X99317731Y-31394295D02*
X99393922Y-31394295D01*
X99393922Y-31394295D02*
X99508207Y-31356200D01*
X99508207Y-31356200D02*
X99546303Y-31318104D01*
X99546303Y-31318104D02*
X99546303Y-31051438D01*
X99546303Y-31051438D02*
X99393922Y-31051438D01*
X99889160Y-31394295D02*
X99889160Y-30594295D01*
X99889160Y-30594295D02*
X100346303Y-31394295D01*
X100346303Y-31394295D02*
X100346303Y-30594295D01*
X100727255Y-31394295D02*
X100727255Y-30594295D01*
X100727255Y-30594295D02*
X100917731Y-30594295D01*
X100917731Y-30594295D02*
X101032017Y-30632390D01*
X101032017Y-30632390D02*
X101108207Y-30708580D01*
X101108207Y-30708580D02*
X101146302Y-30784771D01*
X101146302Y-30784771D02*
X101184398Y-30937152D01*
X101184398Y-30937152D02*
X101184398Y-31051438D01*
X101184398Y-31051438D02*
X101146302Y-31203819D01*
X101146302Y-31203819D02*
X101108207Y-31280009D01*
X101108207Y-31280009D02*
X101032017Y-31356200D01*
X101032017Y-31356200D02*
X100917731Y-31394295D01*
X100917731Y-31394295D02*
X100727255Y-31394295D01*
D14*
X106757275Y-29439850D02*
X106757275Y-29249374D01*
X106757275Y-29249374D02*
X106804894Y-29154136D01*
X106804894Y-29154136D02*
X106900132Y-29058898D01*
X106900132Y-29058898D02*
X107090608Y-29011279D01*
X107090608Y-29011279D02*
X107423941Y-29011279D01*
X107423941Y-29011279D02*
X107614417Y-29058898D01*
X107614417Y-29058898D02*
X107709656Y-29154136D01*
X107709656Y-29154136D02*
X107757275Y-29249374D01*
X107757275Y-29249374D02*
X107757275Y-29439850D01*
X107757275Y-29439850D02*
X107709656Y-29535088D01*
X107709656Y-29535088D02*
X107614417Y-29630326D01*
X107614417Y-29630326D02*
X107423941Y-29677945D01*
X107423941Y-29677945D02*
X107090608Y-29677945D01*
X107090608Y-29677945D02*
X106900132Y-29630326D01*
X106900132Y-29630326D02*
X106804894Y-29535088D01*
X106804894Y-29535088D02*
X106757275Y-29439850D01*
X107709656Y-28630326D02*
X107757275Y-28487469D01*
X107757275Y-28487469D02*
X107757275Y-28249374D01*
X107757275Y-28249374D02*
X107709656Y-28154136D01*
X107709656Y-28154136D02*
X107662036Y-28106517D01*
X107662036Y-28106517D02*
X107566798Y-28058898D01*
X107566798Y-28058898D02*
X107471560Y-28058898D01*
X107471560Y-28058898D02*
X107376322Y-28106517D01*
X107376322Y-28106517D02*
X107328703Y-28154136D01*
X107328703Y-28154136D02*
X107281084Y-28249374D01*
X107281084Y-28249374D02*
X107233465Y-28439850D01*
X107233465Y-28439850D02*
X107185846Y-28535088D01*
X107185846Y-28535088D02*
X107138227Y-28582707D01*
X107138227Y-28582707D02*
X107042989Y-28630326D01*
X107042989Y-28630326D02*
X106947751Y-28630326D01*
X106947751Y-28630326D02*
X106852513Y-28582707D01*
X106852513Y-28582707D02*
X106804894Y-28535088D01*
X106804894Y-28535088D02*
X106757275Y-28439850D01*
X106757275Y-28439850D02*
X106757275Y-28201755D01*
X106757275Y-28201755D02*
X106804894Y-28058898D01*
X107757275Y-27154136D02*
X107757275Y-27630326D01*
X107757275Y-27630326D02*
X106757275Y-27630326D01*
X106757275Y-26820802D02*
X107566798Y-26820802D01*
X107566798Y-26820802D02*
X107662036Y-26773183D01*
X107662036Y-26773183D02*
X107709656Y-26725564D01*
X107709656Y-26725564D02*
X107757275Y-26630326D01*
X107757275Y-26630326D02*
X107757275Y-26439850D01*
X107757275Y-26439850D02*
X107709656Y-26344612D01*
X107709656Y-26344612D02*
X107662036Y-26296993D01*
X107662036Y-26296993D02*
X107566798Y-26249374D01*
X107566798Y-26249374D02*
X106757275Y-26249374D01*
X106757275Y-25916040D02*
X107757275Y-25582707D01*
X107757275Y-25582707D02*
X106757275Y-25249374D01*
X107233465Y-24154135D02*
X107233465Y-23820802D01*
X107757275Y-23677945D02*
X107757275Y-24154135D01*
X107757275Y-24154135D02*
X106757275Y-24154135D01*
X106757275Y-24154135D02*
X106757275Y-23677945D01*
X107757275Y-23344611D02*
X107090608Y-22820802D01*
X107090608Y-23344611D02*
X107757275Y-22820802D01*
X107709656Y-22011278D02*
X107757275Y-22106516D01*
X107757275Y-22106516D02*
X107757275Y-22296992D01*
X107757275Y-22296992D02*
X107709656Y-22392230D01*
X107709656Y-22392230D02*
X107662036Y-22439849D01*
X107662036Y-22439849D02*
X107566798Y-22487468D01*
X107566798Y-22487468D02*
X107281084Y-22487468D01*
X107281084Y-22487468D02*
X107185846Y-22439849D01*
X107185846Y-22439849D02*
X107138227Y-22392230D01*
X107138227Y-22392230D02*
X107090608Y-22296992D01*
X107090608Y-22296992D02*
X107090608Y-22106516D01*
X107090608Y-22106516D02*
X107138227Y-22011278D01*
X107757275Y-21582706D02*
X107090608Y-21582706D01*
X106757275Y-21582706D02*
X106804894Y-21630325D01*
X106804894Y-21630325D02*
X106852513Y-21582706D01*
X106852513Y-21582706D02*
X106804894Y-21535087D01*
X106804894Y-21535087D02*
X106757275Y-21582706D01*
X106757275Y-21582706D02*
X106852513Y-21582706D01*
X107757275Y-21106516D02*
X107090608Y-21106516D01*
X107185846Y-21106516D02*
X107138227Y-21058897D01*
X107138227Y-21058897D02*
X107090608Y-20963659D01*
X107090608Y-20963659D02*
X107090608Y-20820802D01*
X107090608Y-20820802D02*
X107138227Y-20725564D01*
X107138227Y-20725564D02*
X107233465Y-20677945D01*
X107233465Y-20677945D02*
X107757275Y-20677945D01*
X107233465Y-20677945D02*
X107138227Y-20630326D01*
X107138227Y-20630326D02*
X107090608Y-20535088D01*
X107090608Y-20535088D02*
X107090608Y-20392231D01*
X107090608Y-20392231D02*
X107138227Y-20296992D01*
X107138227Y-20296992D02*
X107233465Y-20249373D01*
X107233465Y-20249373D02*
X107757275Y-20249373D01*
X107709656Y-19392231D02*
X107757275Y-19487469D01*
X107757275Y-19487469D02*
X107757275Y-19677945D01*
X107757275Y-19677945D02*
X107709656Y-19773183D01*
X107709656Y-19773183D02*
X107614417Y-19820802D01*
X107614417Y-19820802D02*
X107233465Y-19820802D01*
X107233465Y-19820802D02*
X107138227Y-19773183D01*
X107138227Y-19773183D02*
X107090608Y-19677945D01*
X107090608Y-19677945D02*
X107090608Y-19487469D01*
X107090608Y-19487469D02*
X107138227Y-19392231D01*
X107138227Y-19392231D02*
X107233465Y-19344612D01*
X107233465Y-19344612D02*
X107328703Y-19344612D01*
X107328703Y-19344612D02*
X107423941Y-19820802D01*
X107757275Y-18916040D02*
X107090608Y-18916040D01*
X107281084Y-18916040D02*
X107185846Y-18868421D01*
X107185846Y-18868421D02*
X107138227Y-18820802D01*
X107138227Y-18820802D02*
X107090608Y-18725564D01*
X107090608Y-18725564D02*
X107090608Y-18630326D01*
X107757275Y-17535087D02*
X106757275Y-17535087D01*
X106757275Y-17535087D02*
X106757275Y-17296992D01*
X106757275Y-17296992D02*
X106804894Y-17154135D01*
X106804894Y-17154135D02*
X106900132Y-17058897D01*
X106900132Y-17058897D02*
X106995370Y-17011278D01*
X106995370Y-17011278D02*
X107185846Y-16963659D01*
X107185846Y-16963659D02*
X107328703Y-16963659D01*
X107328703Y-16963659D02*
X107519179Y-17011278D01*
X107519179Y-17011278D02*
X107614417Y-17058897D01*
X107614417Y-17058897D02*
X107709656Y-17154135D01*
X107709656Y-17154135D02*
X107757275Y-17296992D01*
X107757275Y-17296992D02*
X107757275Y-17535087D01*
X107757275Y-16535087D02*
X107090608Y-16535087D01*
X107281084Y-16535087D02*
X107185846Y-16487468D01*
X107185846Y-16487468D02*
X107138227Y-16439849D01*
X107138227Y-16439849D02*
X107090608Y-16344611D01*
X107090608Y-16344611D02*
X107090608Y-16249373D01*
X107757275Y-15916039D02*
X107090608Y-15916039D01*
X106757275Y-15916039D02*
X106804894Y-15963658D01*
X106804894Y-15963658D02*
X106852513Y-15916039D01*
X106852513Y-15916039D02*
X106804894Y-15868420D01*
X106804894Y-15868420D02*
X106757275Y-15916039D01*
X106757275Y-15916039D02*
X106852513Y-15916039D01*
X107090608Y-15535087D02*
X107757275Y-15296992D01*
X107757275Y-15296992D02*
X107090608Y-15058897D01*
X107709656Y-14296992D02*
X107757275Y-14392230D01*
X107757275Y-14392230D02*
X107757275Y-14582706D01*
X107757275Y-14582706D02*
X107709656Y-14677944D01*
X107709656Y-14677944D02*
X107614417Y-14725563D01*
X107614417Y-14725563D02*
X107233465Y-14725563D01*
X107233465Y-14725563D02*
X107138227Y-14677944D01*
X107138227Y-14677944D02*
X107090608Y-14582706D01*
X107090608Y-14582706D02*
X107090608Y-14392230D01*
X107090608Y-14392230D02*
X107138227Y-14296992D01*
X107138227Y-14296992D02*
X107233465Y-14249373D01*
X107233465Y-14249373D02*
X107328703Y-14249373D01*
X107328703Y-14249373D02*
X107423941Y-14725563D01*
X107757275Y-13820801D02*
X107090608Y-13820801D01*
X107281084Y-13820801D02*
X107185846Y-13773182D01*
X107185846Y-13773182D02*
X107138227Y-13725563D01*
X107138227Y-13725563D02*
X107090608Y-13630325D01*
X107090608Y-13630325D02*
X107090608Y-13535087D01*
X109367219Y-29058898D02*
X108891028Y-29392231D01*
X109367219Y-29630326D02*
X108367219Y-29630326D01*
X108367219Y-29630326D02*
X108367219Y-29249374D01*
X108367219Y-29249374D02*
X108414838Y-29154136D01*
X108414838Y-29154136D02*
X108462457Y-29106517D01*
X108462457Y-29106517D02*
X108557695Y-29058898D01*
X108557695Y-29058898D02*
X108700552Y-29058898D01*
X108700552Y-29058898D02*
X108795790Y-29106517D01*
X108795790Y-29106517D02*
X108843409Y-29154136D01*
X108843409Y-29154136D02*
X108891028Y-29249374D01*
X108891028Y-29249374D02*
X108891028Y-29630326D01*
X109319600Y-28249374D02*
X109367219Y-28344612D01*
X109367219Y-28344612D02*
X109367219Y-28535088D01*
X109367219Y-28535088D02*
X109319600Y-28630326D01*
X109319600Y-28630326D02*
X109224361Y-28677945D01*
X109224361Y-28677945D02*
X108843409Y-28677945D01*
X108843409Y-28677945D02*
X108748171Y-28630326D01*
X108748171Y-28630326D02*
X108700552Y-28535088D01*
X108700552Y-28535088D02*
X108700552Y-28344612D01*
X108700552Y-28344612D02*
X108748171Y-28249374D01*
X108748171Y-28249374D02*
X108843409Y-28201755D01*
X108843409Y-28201755D02*
X108938647Y-28201755D01*
X108938647Y-28201755D02*
X109033885Y-28677945D01*
X108700552Y-27868421D02*
X109367219Y-27630326D01*
X109367219Y-27630326D02*
X108700552Y-27392231D01*
X108462457Y-26296992D02*
X108414838Y-26249373D01*
X108414838Y-26249373D02*
X108367219Y-26154135D01*
X108367219Y-26154135D02*
X108367219Y-25916040D01*
X108367219Y-25916040D02*
X108414838Y-25820802D01*
X108414838Y-25820802D02*
X108462457Y-25773183D01*
X108462457Y-25773183D02*
X108557695Y-25725564D01*
X108557695Y-25725564D02*
X108652933Y-25725564D01*
X108652933Y-25725564D02*
X108795790Y-25773183D01*
X108795790Y-25773183D02*
X109367219Y-26344611D01*
X109367219Y-26344611D02*
X109367219Y-25725564D01*
X109271980Y-25296992D02*
X109319600Y-25249373D01*
X109319600Y-25249373D02*
X109367219Y-25296992D01*
X109367219Y-25296992D02*
X109319600Y-25344611D01*
X109319600Y-25344611D02*
X109271980Y-25296992D01*
X109271980Y-25296992D02*
X109367219Y-25296992D01*
X108367219Y-24630326D02*
X108367219Y-24535088D01*
X108367219Y-24535088D02*
X108414838Y-24439850D01*
X108414838Y-24439850D02*
X108462457Y-24392231D01*
X108462457Y-24392231D02*
X108557695Y-24344612D01*
X108557695Y-24344612D02*
X108748171Y-24296993D01*
X108748171Y-24296993D02*
X108986266Y-24296993D01*
X108986266Y-24296993D02*
X109176742Y-24344612D01*
X109176742Y-24344612D02*
X109271980Y-24392231D01*
X109271980Y-24392231D02*
X109319600Y-24439850D01*
X109319600Y-24439850D02*
X109367219Y-24535088D01*
X109367219Y-24535088D02*
X109367219Y-24630326D01*
X109367219Y-24630326D02*
X109319600Y-24725564D01*
X109319600Y-24725564D02*
X109271980Y-24773183D01*
X109271980Y-24773183D02*
X109176742Y-24820802D01*
X109176742Y-24820802D02*
X108986266Y-24868421D01*
X108986266Y-24868421D02*
X108748171Y-24868421D01*
X108748171Y-24868421D02*
X108557695Y-24820802D01*
X108557695Y-24820802D02*
X108462457Y-24773183D01*
X108462457Y-24773183D02*
X108414838Y-24725564D01*
X108414838Y-24725564D02*
X108367219Y-24630326D01*
X109271980Y-23868421D02*
X109319600Y-23820802D01*
X109319600Y-23820802D02*
X109367219Y-23868421D01*
X109367219Y-23868421D02*
X109319600Y-23916040D01*
X109319600Y-23916040D02*
X109271980Y-23868421D01*
X109271980Y-23868421D02*
X109367219Y-23868421D01*
X108367219Y-23201755D02*
X108367219Y-23106517D01*
X108367219Y-23106517D02*
X108414838Y-23011279D01*
X108414838Y-23011279D02*
X108462457Y-22963660D01*
X108462457Y-22963660D02*
X108557695Y-22916041D01*
X108557695Y-22916041D02*
X108748171Y-22868422D01*
X108748171Y-22868422D02*
X108986266Y-22868422D01*
X108986266Y-22868422D02*
X109176742Y-22916041D01*
X109176742Y-22916041D02*
X109271980Y-22963660D01*
X109271980Y-22963660D02*
X109319600Y-23011279D01*
X109319600Y-23011279D02*
X109367219Y-23106517D01*
X109367219Y-23106517D02*
X109367219Y-23201755D01*
X109367219Y-23201755D02*
X109319600Y-23296993D01*
X109319600Y-23296993D02*
X109271980Y-23344612D01*
X109271980Y-23344612D02*
X109176742Y-23392231D01*
X109176742Y-23392231D02*
X108986266Y-23439850D01*
X108986266Y-23439850D02*
X108748171Y-23439850D01*
X108748171Y-23439850D02*
X108557695Y-23392231D01*
X108557695Y-23392231D02*
X108462457Y-23344612D01*
X108462457Y-23344612D02*
X108414838Y-23296993D01*
X108414838Y-23296993D02*
X108367219Y-23201755D01*
X108462457Y-19439849D02*
X108414838Y-19392230D01*
X108414838Y-19392230D02*
X108367219Y-19296992D01*
X108367219Y-19296992D02*
X108367219Y-19058897D01*
X108367219Y-19058897D02*
X108414838Y-18963659D01*
X108414838Y-18963659D02*
X108462457Y-18916040D01*
X108462457Y-18916040D02*
X108557695Y-18868421D01*
X108557695Y-18868421D02*
X108652933Y-18868421D01*
X108652933Y-18868421D02*
X108795790Y-18916040D01*
X108795790Y-18916040D02*
X109367219Y-19487468D01*
X109367219Y-19487468D02*
X109367219Y-18868421D01*
X108367219Y-18011278D02*
X108367219Y-18201754D01*
X108367219Y-18201754D02*
X108414838Y-18296992D01*
X108414838Y-18296992D02*
X108462457Y-18344611D01*
X108462457Y-18344611D02*
X108605314Y-18439849D01*
X108605314Y-18439849D02*
X108795790Y-18487468D01*
X108795790Y-18487468D02*
X109176742Y-18487468D01*
X109176742Y-18487468D02*
X109271980Y-18439849D01*
X109271980Y-18439849D02*
X109319600Y-18392230D01*
X109319600Y-18392230D02*
X109367219Y-18296992D01*
X109367219Y-18296992D02*
X109367219Y-18106516D01*
X109367219Y-18106516D02*
X109319600Y-18011278D01*
X109319600Y-18011278D02*
X109271980Y-17963659D01*
X109271980Y-17963659D02*
X109176742Y-17916040D01*
X109176742Y-17916040D02*
X108938647Y-17916040D01*
X108938647Y-17916040D02*
X108843409Y-17963659D01*
X108843409Y-17963659D02*
X108795790Y-18011278D01*
X108795790Y-18011278D02*
X108748171Y-18106516D01*
X108748171Y-18106516D02*
X108748171Y-18296992D01*
X108748171Y-18296992D02*
X108795790Y-18392230D01*
X108795790Y-18392230D02*
X108843409Y-18439849D01*
X108843409Y-18439849D02*
X108938647Y-18487468D01*
X108319600Y-16773183D02*
X109605314Y-17630325D01*
X108367219Y-16249373D02*
X108367219Y-16154135D01*
X108367219Y-16154135D02*
X108414838Y-16058897D01*
X108414838Y-16058897D02*
X108462457Y-16011278D01*
X108462457Y-16011278D02*
X108557695Y-15963659D01*
X108557695Y-15963659D02*
X108748171Y-15916040D01*
X108748171Y-15916040D02*
X108986266Y-15916040D01*
X108986266Y-15916040D02*
X109176742Y-15963659D01*
X109176742Y-15963659D02*
X109271980Y-16011278D01*
X109271980Y-16011278D02*
X109319600Y-16058897D01*
X109319600Y-16058897D02*
X109367219Y-16154135D01*
X109367219Y-16154135D02*
X109367219Y-16249373D01*
X109367219Y-16249373D02*
X109319600Y-16344611D01*
X109319600Y-16344611D02*
X109271980Y-16392230D01*
X109271980Y-16392230D02*
X109176742Y-16439849D01*
X109176742Y-16439849D02*
X108986266Y-16487468D01*
X108986266Y-16487468D02*
X108748171Y-16487468D01*
X108748171Y-16487468D02*
X108557695Y-16439849D01*
X108557695Y-16439849D02*
X108462457Y-16392230D01*
X108462457Y-16392230D02*
X108414838Y-16344611D01*
X108414838Y-16344611D02*
X108367219Y-16249373D01*
X108367219Y-15582706D02*
X108367219Y-14963659D01*
X108367219Y-14963659D02*
X108748171Y-15296992D01*
X108748171Y-15296992D02*
X108748171Y-15154135D01*
X108748171Y-15154135D02*
X108795790Y-15058897D01*
X108795790Y-15058897D02*
X108843409Y-15011278D01*
X108843409Y-15011278D02*
X108938647Y-14963659D01*
X108938647Y-14963659D02*
X109176742Y-14963659D01*
X109176742Y-14963659D02*
X109271980Y-15011278D01*
X109271980Y-15011278D02*
X109319600Y-15058897D01*
X109319600Y-15058897D02*
X109367219Y-15154135D01*
X109367219Y-15154135D02*
X109367219Y-15439849D01*
X109367219Y-15439849D02*
X109319600Y-15535087D01*
X109319600Y-15535087D02*
X109271980Y-15582706D01*
X108319600Y-13820802D02*
X109605314Y-14677944D01*
X108367219Y-13296992D02*
X108367219Y-13201754D01*
X108367219Y-13201754D02*
X108414838Y-13106516D01*
X108414838Y-13106516D02*
X108462457Y-13058897D01*
X108462457Y-13058897D02*
X108557695Y-13011278D01*
X108557695Y-13011278D02*
X108748171Y-12963659D01*
X108748171Y-12963659D02*
X108986266Y-12963659D01*
X108986266Y-12963659D02*
X109176742Y-13011278D01*
X109176742Y-13011278D02*
X109271980Y-13058897D01*
X109271980Y-13058897D02*
X109319600Y-13106516D01*
X109319600Y-13106516D02*
X109367219Y-13201754D01*
X109367219Y-13201754D02*
X109367219Y-13296992D01*
X109367219Y-13296992D02*
X109319600Y-13392230D01*
X109319600Y-13392230D02*
X109271980Y-13439849D01*
X109271980Y-13439849D02*
X109176742Y-13487468D01*
X109176742Y-13487468D02*
X108986266Y-13535087D01*
X108986266Y-13535087D02*
X108748171Y-13535087D01*
X108748171Y-13535087D02*
X108557695Y-13487468D01*
X108557695Y-13487468D02*
X108462457Y-13439849D01*
X108462457Y-13439849D02*
X108414838Y-13392230D01*
X108414838Y-13392230D02*
X108367219Y-13296992D01*
X108367219Y-12630325D02*
X108367219Y-12011278D01*
X108367219Y-12011278D02*
X108748171Y-12344611D01*
X108748171Y-12344611D02*
X108748171Y-12201754D01*
X108748171Y-12201754D02*
X108795790Y-12106516D01*
X108795790Y-12106516D02*
X108843409Y-12058897D01*
X108843409Y-12058897D02*
X108938647Y-12011278D01*
X108938647Y-12011278D02*
X109176742Y-12011278D01*
X109176742Y-12011278D02*
X109271980Y-12058897D01*
X109271980Y-12058897D02*
X109319600Y-12106516D01*
X109319600Y-12106516D02*
X109367219Y-12201754D01*
X109367219Y-12201754D02*
X109367219Y-12487468D01*
X109367219Y-12487468D02*
X109319600Y-12582706D01*
X109319600Y-12582706D02*
X109271980Y-12630325D01*
D10*
X53089160Y-11144295D02*
X53089160Y-10610961D01*
X53089160Y-10344295D02*
X53051064Y-10382390D01*
X53051064Y-10382390D02*
X53089160Y-10420485D01*
X53089160Y-10420485D02*
X53127255Y-10382390D01*
X53127255Y-10382390D02*
X53089160Y-10344295D01*
X53089160Y-10344295D02*
X53089160Y-10420485D01*
X53851064Y-11144295D02*
X53470112Y-11144295D01*
X53470112Y-11144295D02*
X53470112Y-10344295D01*
X54460588Y-11144295D02*
X54460588Y-10725247D01*
X54460588Y-10725247D02*
X54422493Y-10649057D01*
X54422493Y-10649057D02*
X54346302Y-10610961D01*
X54346302Y-10610961D02*
X54193921Y-10610961D01*
X54193921Y-10610961D02*
X54117731Y-10649057D01*
X54460588Y-11106200D02*
X54384397Y-11144295D01*
X54384397Y-11144295D02*
X54193921Y-11144295D01*
X54193921Y-11144295D02*
X54117731Y-11106200D01*
X54117731Y-11106200D02*
X54079635Y-11030009D01*
X54079635Y-11030009D02*
X54079635Y-10953819D01*
X54079635Y-10953819D02*
X54117731Y-10877628D01*
X54117731Y-10877628D02*
X54193921Y-10839533D01*
X54193921Y-10839533D02*
X54384397Y-10839533D01*
X54384397Y-10839533D02*
X54460588Y-10801438D01*
X95451064Y-38670485D02*
X95489160Y-38632390D01*
X95489160Y-38632390D02*
X95565350Y-38594295D01*
X95565350Y-38594295D02*
X95755826Y-38594295D01*
X95755826Y-38594295D02*
X95832017Y-38632390D01*
X95832017Y-38632390D02*
X95870112Y-38670485D01*
X95870112Y-38670485D02*
X95908207Y-38746676D01*
X95908207Y-38746676D02*
X95908207Y-38822866D01*
X95908207Y-38822866D02*
X95870112Y-38937152D01*
X95870112Y-38937152D02*
X95412969Y-39394295D01*
X95412969Y-39394295D02*
X95908207Y-39394295D01*
X96593922Y-38860961D02*
X96593922Y-39394295D01*
X96403446Y-38556200D02*
X96212969Y-39127628D01*
X96212969Y-39127628D02*
X96708208Y-39127628D01*
X96898684Y-38594295D02*
X97165351Y-39394295D01*
X97165351Y-39394295D02*
X97432017Y-38594295D01*
X97508208Y-39470485D02*
X98117731Y-39470485D01*
X98270112Y-39356200D02*
X98346303Y-39394295D01*
X98346303Y-39394295D02*
X98498684Y-39394295D01*
X98498684Y-39394295D02*
X98574874Y-39356200D01*
X98574874Y-39356200D02*
X98612970Y-39280009D01*
X98612970Y-39280009D02*
X98612970Y-39241914D01*
X98612970Y-39241914D02*
X98574874Y-39165723D01*
X98574874Y-39165723D02*
X98498684Y-39127628D01*
X98498684Y-39127628D02*
X98384398Y-39127628D01*
X98384398Y-39127628D02*
X98308208Y-39089533D01*
X98308208Y-39089533D02*
X98270112Y-39013342D01*
X98270112Y-39013342D02*
X98270112Y-38975247D01*
X98270112Y-38975247D02*
X98308208Y-38899057D01*
X98308208Y-38899057D02*
X98384398Y-38860961D01*
X98384398Y-38860961D02*
X98498684Y-38860961D01*
X98498684Y-38860961D02*
X98574874Y-38899057D01*
X99260589Y-39356200D02*
X99184398Y-39394295D01*
X99184398Y-39394295D02*
X99032017Y-39394295D01*
X99032017Y-39394295D02*
X98955827Y-39356200D01*
X98955827Y-39356200D02*
X98917731Y-39280009D01*
X98917731Y-39280009D02*
X98917731Y-38975247D01*
X98917731Y-38975247D02*
X98955827Y-38899057D01*
X98955827Y-38899057D02*
X99032017Y-38860961D01*
X99032017Y-38860961D02*
X99184398Y-38860961D01*
X99184398Y-38860961D02*
X99260589Y-38899057D01*
X99260589Y-38899057D02*
X99298684Y-38975247D01*
X99298684Y-38975247D02*
X99298684Y-39051438D01*
X99298684Y-39051438D02*
X98917731Y-39127628D01*
X99641541Y-38860961D02*
X99641541Y-39394295D01*
X99641541Y-38937152D02*
X99679636Y-38899057D01*
X99679636Y-38899057D02*
X99755826Y-38860961D01*
X99755826Y-38860961D02*
X99870112Y-38860961D01*
X99870112Y-38860961D02*
X99946303Y-38899057D01*
X99946303Y-38899057D02*
X99984398Y-38975247D01*
X99984398Y-38975247D02*
X99984398Y-39394295D01*
X100327255Y-39356200D02*
X100403446Y-39394295D01*
X100403446Y-39394295D02*
X100555827Y-39394295D01*
X100555827Y-39394295D02*
X100632017Y-39356200D01*
X100632017Y-39356200D02*
X100670113Y-39280009D01*
X100670113Y-39280009D02*
X100670113Y-39241914D01*
X100670113Y-39241914D02*
X100632017Y-39165723D01*
X100632017Y-39165723D02*
X100555827Y-39127628D01*
X100555827Y-39127628D02*
X100441541Y-39127628D01*
X100441541Y-39127628D02*
X100365351Y-39089533D01*
X100365351Y-39089533D02*
X100327255Y-39013342D01*
X100327255Y-39013342D02*
X100327255Y-38975247D01*
X100327255Y-38975247D02*
X100365351Y-38899057D01*
X100365351Y-38899057D02*
X100441541Y-38860961D01*
X100441541Y-38860961D02*
X100555827Y-38860961D01*
X100555827Y-38860961D02*
X100632017Y-38899057D01*
X101317732Y-39356200D02*
X101241541Y-39394295D01*
X101241541Y-39394295D02*
X101089160Y-39394295D01*
X101089160Y-39394295D02*
X101012970Y-39356200D01*
X101012970Y-39356200D02*
X100974874Y-39280009D01*
X100974874Y-39280009D02*
X100974874Y-38975247D01*
X100974874Y-38975247D02*
X101012970Y-38899057D01*
X101012970Y-38899057D02*
X101089160Y-38860961D01*
X101089160Y-38860961D02*
X101241541Y-38860961D01*
X101241541Y-38860961D02*
X101317732Y-38899057D01*
X101317732Y-38899057D02*
X101355827Y-38975247D01*
X101355827Y-38975247D02*
X101355827Y-39051438D01*
X101355827Y-39051438D02*
X100974874Y-39127628D01*
X94189160Y-32994295D02*
X94189160Y-32460961D01*
X94189160Y-32194295D02*
X94151064Y-32232390D01*
X94151064Y-32232390D02*
X94189160Y-32270485D01*
X94189160Y-32270485D02*
X94227255Y-32232390D01*
X94227255Y-32232390D02*
X94189160Y-32194295D01*
X94189160Y-32194295D02*
X94189160Y-32270485D01*
X94570112Y-32994295D02*
X94570112Y-32194295D01*
X94951064Y-32460961D02*
X94951064Y-32994295D01*
X94951064Y-32537152D02*
X94989159Y-32499057D01*
X94989159Y-32499057D02*
X95065349Y-32460961D01*
X95065349Y-32460961D02*
X95179635Y-32460961D01*
X95179635Y-32460961D02*
X95255826Y-32499057D01*
X95255826Y-32499057D02*
X95293921Y-32575247D01*
X95293921Y-32575247D02*
X95293921Y-32994295D01*
X68055826Y-11475247D02*
X67789160Y-11475247D01*
X67789160Y-11894295D02*
X67789160Y-11094295D01*
X67789160Y-11094295D02*
X68170112Y-11094295D01*
X68817731Y-11894295D02*
X68817731Y-11475247D01*
X68817731Y-11475247D02*
X68779636Y-11399057D01*
X68779636Y-11399057D02*
X68703445Y-11360961D01*
X68703445Y-11360961D02*
X68551064Y-11360961D01*
X68551064Y-11360961D02*
X68474874Y-11399057D01*
X68817731Y-11856200D02*
X68741540Y-11894295D01*
X68741540Y-11894295D02*
X68551064Y-11894295D01*
X68551064Y-11894295D02*
X68474874Y-11856200D01*
X68474874Y-11856200D02*
X68436778Y-11780009D01*
X68436778Y-11780009D02*
X68436778Y-11703819D01*
X68436778Y-11703819D02*
X68474874Y-11627628D01*
X68474874Y-11627628D02*
X68551064Y-11589533D01*
X68551064Y-11589533D02*
X68741540Y-11589533D01*
X68741540Y-11589533D02*
X68817731Y-11551438D01*
X69198684Y-11894295D02*
X69198684Y-11360961D01*
X69198684Y-11094295D02*
X69160588Y-11132390D01*
X69160588Y-11132390D02*
X69198684Y-11170485D01*
X69198684Y-11170485D02*
X69236779Y-11132390D01*
X69236779Y-11132390D02*
X69198684Y-11094295D01*
X69198684Y-11094295D02*
X69198684Y-11170485D01*
X69693921Y-11894295D02*
X69617731Y-11856200D01*
X69617731Y-11856200D02*
X69579636Y-11780009D01*
X69579636Y-11780009D02*
X69579636Y-11094295D01*
X66060961Y-8367982D02*
X66594295Y-8367982D01*
X66060961Y-8710839D02*
X66480009Y-8710839D01*
X66480009Y-8710839D02*
X66556200Y-8672744D01*
X66556200Y-8672744D02*
X66594295Y-8596554D01*
X66594295Y-8596554D02*
X66594295Y-8482268D01*
X66594295Y-8482268D02*
X66556200Y-8406077D01*
X66556200Y-8406077D02*
X66518104Y-8367982D01*
X66594295Y-7606077D02*
X66594295Y-7987029D01*
X66594295Y-7987029D02*
X65794295Y-7987029D01*
X66594295Y-6996553D02*
X66175247Y-6996553D01*
X66175247Y-6996553D02*
X66099057Y-7034648D01*
X66099057Y-7034648D02*
X66060961Y-7110839D01*
X66060961Y-7110839D02*
X66060961Y-7263220D01*
X66060961Y-7263220D02*
X66099057Y-7339410D01*
X66556200Y-6996553D02*
X66594295Y-7072744D01*
X66594295Y-7072744D02*
X66594295Y-7263220D01*
X66594295Y-7263220D02*
X66556200Y-7339410D01*
X66556200Y-7339410D02*
X66480009Y-7377506D01*
X66480009Y-7377506D02*
X66403819Y-7377506D01*
X66403819Y-7377506D02*
X66327628Y-7339410D01*
X66327628Y-7339410D02*
X66289533Y-7263220D01*
X66289533Y-7263220D02*
X66289533Y-7072744D01*
X66289533Y-7072744D02*
X66251438Y-6996553D01*
X60960961Y-32067982D02*
X61494295Y-32067982D01*
X60960961Y-32410839D02*
X61380009Y-32410839D01*
X61380009Y-32410839D02*
X61456200Y-32372744D01*
X61456200Y-32372744D02*
X61494295Y-32296554D01*
X61494295Y-32296554D02*
X61494295Y-32182268D01*
X61494295Y-32182268D02*
X61456200Y-32106077D01*
X61456200Y-32106077D02*
X61418104Y-32067982D01*
X60732390Y-31267982D02*
X60694295Y-31344172D01*
X60694295Y-31344172D02*
X60694295Y-31458458D01*
X60694295Y-31458458D02*
X60732390Y-31572744D01*
X60732390Y-31572744D02*
X60808580Y-31648934D01*
X60808580Y-31648934D02*
X60884771Y-31687029D01*
X60884771Y-31687029D02*
X61037152Y-31725125D01*
X61037152Y-31725125D02*
X61151438Y-31725125D01*
X61151438Y-31725125D02*
X61303819Y-31687029D01*
X61303819Y-31687029D02*
X61380009Y-31648934D01*
X61380009Y-31648934D02*
X61456200Y-31572744D01*
X61456200Y-31572744D02*
X61494295Y-31458458D01*
X61494295Y-31458458D02*
X61494295Y-31382267D01*
X61494295Y-31382267D02*
X61456200Y-31267982D01*
X61456200Y-31267982D02*
X61418104Y-31229886D01*
X61418104Y-31229886D02*
X61151438Y-31229886D01*
X61151438Y-31229886D02*
X61151438Y-31382267D01*
X46805704Y-289160D02*
X46158085Y-289160D01*
X46158085Y-289160D02*
X46081895Y-327255D01*
X46081895Y-327255D02*
X46043800Y-365350D01*
X46043800Y-365350D02*
X46005704Y-441541D01*
X46005704Y-441541D02*
X46005704Y-593922D01*
X46005704Y-593922D02*
X46043800Y-670112D01*
X46043800Y-670112D02*
X46081895Y-708207D01*
X46081895Y-708207D02*
X46158085Y-746303D01*
X46158085Y-746303D02*
X46805704Y-746303D01*
X46805704Y-1012969D02*
X46005704Y-1279636D01*
X46005704Y-1279636D02*
X46805704Y-1546302D01*
X46005704Y-2803445D02*
X46005704Y-2422493D01*
X46005704Y-2422493D02*
X46805704Y-2422493D01*
X46424752Y-3070112D02*
X46424752Y-3336778D01*
X46005704Y-3451064D02*
X46005704Y-3070112D01*
X46005704Y-3070112D02*
X46805704Y-3070112D01*
X46805704Y-3070112D02*
X46805704Y-3451064D01*
X46005704Y-3793922D02*
X46805704Y-3793922D01*
X46805704Y-3793922D02*
X46805704Y-3984398D01*
X46805704Y-3984398D02*
X46767609Y-4098684D01*
X46767609Y-4098684D02*
X46691419Y-4174874D01*
X46691419Y-4174874D02*
X46615228Y-4212969D01*
X46615228Y-4212969D02*
X46462847Y-4251065D01*
X46462847Y-4251065D02*
X46348561Y-4251065D01*
X46348561Y-4251065D02*
X46196180Y-4212969D01*
X46196180Y-4212969D02*
X46119990Y-4174874D01*
X46119990Y-4174874D02*
X46043800Y-4098684D01*
X46043800Y-4098684D02*
X46005704Y-3984398D01*
X46005704Y-3984398D02*
X46005704Y-3793922D01*
X90451064Y-8470485D02*
X90489160Y-8432390D01*
X90489160Y-8432390D02*
X90565350Y-8394295D01*
X90565350Y-8394295D02*
X90755826Y-8394295D01*
X90755826Y-8394295D02*
X90832017Y-8432390D01*
X90832017Y-8432390D02*
X90870112Y-8470485D01*
X90870112Y-8470485D02*
X90908207Y-8546676D01*
X90908207Y-8546676D02*
X90908207Y-8622866D01*
X90908207Y-8622866D02*
X90870112Y-8737152D01*
X90870112Y-8737152D02*
X90412969Y-9194295D01*
X90412969Y-9194295D02*
X90908207Y-9194295D01*
X91593922Y-8660961D02*
X91593922Y-9194295D01*
X91403446Y-8356200D02*
X91212969Y-8927628D01*
X91212969Y-8927628D02*
X91708208Y-8927628D01*
X91898684Y-8394295D02*
X92165351Y-9194295D01*
X92165351Y-9194295D02*
X92432017Y-8394295D01*
X90751064Y-29170485D02*
X90789160Y-29132390D01*
X90789160Y-29132390D02*
X90865350Y-29094295D01*
X90865350Y-29094295D02*
X91055826Y-29094295D01*
X91055826Y-29094295D02*
X91132017Y-29132390D01*
X91132017Y-29132390D02*
X91170112Y-29170485D01*
X91170112Y-29170485D02*
X91208207Y-29246676D01*
X91208207Y-29246676D02*
X91208207Y-29322866D01*
X91208207Y-29322866D02*
X91170112Y-29437152D01*
X91170112Y-29437152D02*
X90712969Y-29894295D01*
X90712969Y-29894295D02*
X91208207Y-29894295D01*
X91893922Y-29360961D02*
X91893922Y-29894295D01*
X91703446Y-29056200D02*
X91512969Y-29627628D01*
X91512969Y-29627628D02*
X92008208Y-29627628D01*
X92198684Y-29094295D02*
X92465351Y-29894295D01*
X92465351Y-29894295D02*
X92732017Y-29094295D01*
X92808208Y-29970485D02*
X93417731Y-29970485D01*
X93608208Y-29360961D02*
X93608208Y-30160961D01*
X93608208Y-29399057D02*
X93684398Y-29360961D01*
X93684398Y-29360961D02*
X93836779Y-29360961D01*
X93836779Y-29360961D02*
X93912970Y-29399057D01*
X93912970Y-29399057D02*
X93951065Y-29437152D01*
X93951065Y-29437152D02*
X93989160Y-29513342D01*
X93989160Y-29513342D02*
X93989160Y-29741914D01*
X93989160Y-29741914D02*
X93951065Y-29818104D01*
X93951065Y-29818104D02*
X93912970Y-29856200D01*
X93912970Y-29856200D02*
X93836779Y-29894295D01*
X93836779Y-29894295D02*
X93684398Y-29894295D01*
X93684398Y-29894295D02*
X93608208Y-29856200D01*
X94446303Y-29894295D02*
X94370113Y-29856200D01*
X94370113Y-29856200D02*
X94332018Y-29818104D01*
X94332018Y-29818104D02*
X94293922Y-29741914D01*
X94293922Y-29741914D02*
X94293922Y-29513342D01*
X94293922Y-29513342D02*
X94332018Y-29437152D01*
X94332018Y-29437152D02*
X94370113Y-29399057D01*
X94370113Y-29399057D02*
X94446303Y-29360961D01*
X94446303Y-29360961D02*
X94560589Y-29360961D01*
X94560589Y-29360961D02*
X94636780Y-29399057D01*
X94636780Y-29399057D02*
X94674875Y-29437152D01*
X94674875Y-29437152D02*
X94712970Y-29513342D01*
X94712970Y-29513342D02*
X94712970Y-29741914D01*
X94712970Y-29741914D02*
X94674875Y-29818104D01*
X94674875Y-29818104D02*
X94636780Y-29856200D01*
X94636780Y-29856200D02*
X94560589Y-29894295D01*
X94560589Y-29894295D02*
X94446303Y-29894295D01*
X94979637Y-29360961D02*
X95132018Y-29894295D01*
X95132018Y-29894295D02*
X95284399Y-29513342D01*
X95284399Y-29513342D02*
X95436780Y-29894295D01*
X95436780Y-29894295D02*
X95589161Y-29360961D01*
X96198685Y-29856200D02*
X96122494Y-29894295D01*
X96122494Y-29894295D02*
X95970113Y-29894295D01*
X95970113Y-29894295D02*
X95893923Y-29856200D01*
X95893923Y-29856200D02*
X95855827Y-29780009D01*
X95855827Y-29780009D02*
X95855827Y-29475247D01*
X95855827Y-29475247D02*
X95893923Y-29399057D01*
X95893923Y-29399057D02*
X95970113Y-29360961D01*
X95970113Y-29360961D02*
X96122494Y-29360961D01*
X96122494Y-29360961D02*
X96198685Y-29399057D01*
X96198685Y-29399057D02*
X96236780Y-29475247D01*
X96236780Y-29475247D02*
X96236780Y-29551438D01*
X96236780Y-29551438D02*
X95855827Y-29627628D01*
X96579637Y-29894295D02*
X96579637Y-29360961D01*
X96579637Y-29513342D02*
X96617732Y-29437152D01*
X96617732Y-29437152D02*
X96655827Y-29399057D01*
X96655827Y-29399057D02*
X96732018Y-29360961D01*
X96732018Y-29360961D02*
X96808208Y-29360961D01*
D12*
X1480074Y-26672419D02*
X1003884Y-26672419D01*
X1003884Y-26672419D02*
X1003884Y-25672419D01*
X2241979Y-26672419D02*
X2241979Y-26148609D01*
X2241979Y-26148609D02*
X2194360Y-26053371D01*
X2194360Y-26053371D02*
X2099122Y-26005752D01*
X2099122Y-26005752D02*
X1908646Y-26005752D01*
X1908646Y-26005752D02*
X1813408Y-26053371D01*
X2241979Y-26624800D02*
X2146741Y-26672419D01*
X2146741Y-26672419D02*
X1908646Y-26672419D01*
X1908646Y-26672419D02*
X1813408Y-26624800D01*
X1813408Y-26624800D02*
X1765789Y-26529561D01*
X1765789Y-26529561D02*
X1765789Y-26434323D01*
X1765789Y-26434323D02*
X1813408Y-26339085D01*
X1813408Y-26339085D02*
X1908646Y-26291466D01*
X1908646Y-26291466D02*
X2146741Y-26291466D01*
X2146741Y-26291466D02*
X2241979Y-26243847D01*
X2718170Y-26672419D02*
X2718170Y-26005752D01*
X2718170Y-26100990D02*
X2765789Y-26053371D01*
X2765789Y-26053371D02*
X2861027Y-26005752D01*
X2861027Y-26005752D02*
X3003884Y-26005752D01*
X3003884Y-26005752D02*
X3099122Y-26053371D01*
X3099122Y-26053371D02*
X3146741Y-26148609D01*
X3146741Y-26148609D02*
X3146741Y-26672419D01*
X3146741Y-26148609D02*
X3194360Y-26053371D01*
X3194360Y-26053371D02*
X3289598Y-26005752D01*
X3289598Y-26005752D02*
X3432455Y-26005752D01*
X3432455Y-26005752D02*
X3527694Y-26053371D01*
X3527694Y-26053371D02*
X3575313Y-26148609D01*
X3575313Y-26148609D02*
X3575313Y-26672419D01*
X4051503Y-26005752D02*
X4051503Y-27005752D01*
X4051503Y-26053371D02*
X4146741Y-26005752D01*
X4146741Y-26005752D02*
X4337217Y-26005752D01*
X4337217Y-26005752D02*
X4432455Y-26053371D01*
X4432455Y-26053371D02*
X4480074Y-26100990D01*
X4480074Y-26100990D02*
X4527693Y-26196228D01*
X4527693Y-26196228D02*
X4527693Y-26481942D01*
X4527693Y-26481942D02*
X4480074Y-26577180D01*
X4480074Y-26577180D02*
X4432455Y-26624800D01*
X4432455Y-26624800D02*
X4337217Y-26672419D01*
X4337217Y-26672419D02*
X4146741Y-26672419D01*
X4146741Y-26672419D02*
X4051503Y-26624800D01*
X6241979Y-25720038D02*
X6146741Y-25672419D01*
X6146741Y-25672419D02*
X6003884Y-25672419D01*
X6003884Y-25672419D02*
X5861027Y-25720038D01*
X5861027Y-25720038D02*
X5765789Y-25815276D01*
X5765789Y-25815276D02*
X5718170Y-25910514D01*
X5718170Y-25910514D02*
X5670551Y-26100990D01*
X5670551Y-26100990D02*
X5670551Y-26243847D01*
X5670551Y-26243847D02*
X5718170Y-26434323D01*
X5718170Y-26434323D02*
X5765789Y-26529561D01*
X5765789Y-26529561D02*
X5861027Y-26624800D01*
X5861027Y-26624800D02*
X6003884Y-26672419D01*
X6003884Y-26672419D02*
X6099122Y-26672419D01*
X6099122Y-26672419D02*
X6241979Y-26624800D01*
X6241979Y-26624800D02*
X6289598Y-26577180D01*
X6289598Y-26577180D02*
X6289598Y-26243847D01*
X6289598Y-26243847D02*
X6099122Y-26243847D01*
X6718170Y-26672419D02*
X6718170Y-25672419D01*
X6718170Y-25672419D02*
X7289598Y-26672419D01*
X7289598Y-26672419D02*
X7289598Y-25672419D01*
X7765789Y-26672419D02*
X7765789Y-25672419D01*
X7765789Y-25672419D02*
X8003884Y-25672419D01*
X8003884Y-25672419D02*
X8146741Y-25720038D01*
X8146741Y-25720038D02*
X8241979Y-25815276D01*
X8241979Y-25815276D02*
X8289598Y-25910514D01*
X8289598Y-25910514D02*
X8337217Y-26100990D01*
X8337217Y-26100990D02*
X8337217Y-26243847D01*
X8337217Y-26243847D02*
X8289598Y-26434323D01*
X8289598Y-26434323D02*
X8241979Y-26529561D01*
X8241979Y-26529561D02*
X8146741Y-26624800D01*
X8146741Y-26624800D02*
X8003884Y-26672419D01*
X8003884Y-26672419D02*
X7765789Y-26672419D01*
D10*
X73894295Y-30487030D02*
X73894295Y-29991792D01*
X73894295Y-29991792D02*
X74199057Y-30258458D01*
X74199057Y-30258458D02*
X74199057Y-30144173D01*
X74199057Y-30144173D02*
X74237152Y-30067982D01*
X74237152Y-30067982D02*
X74275247Y-30029887D01*
X74275247Y-30029887D02*
X74351438Y-29991792D01*
X74351438Y-29991792D02*
X74541914Y-29991792D01*
X74541914Y-29991792D02*
X74618104Y-30029887D01*
X74618104Y-30029887D02*
X74656200Y-30067982D01*
X74656200Y-30067982D02*
X74694295Y-30144173D01*
X74694295Y-30144173D02*
X74694295Y-30372744D01*
X74694295Y-30372744D02*
X74656200Y-30448935D01*
X74656200Y-30448935D02*
X74618104Y-30487030D01*
X73894295Y-29763220D02*
X74694295Y-29496553D01*
X74694295Y-29496553D02*
X73894295Y-29229887D01*
X73894295Y-29039411D02*
X73894295Y-28544173D01*
X73894295Y-28544173D02*
X74199057Y-28810839D01*
X74199057Y-28810839D02*
X74199057Y-28696554D01*
X74199057Y-28696554D02*
X74237152Y-28620363D01*
X74237152Y-28620363D02*
X74275247Y-28582268D01*
X74275247Y-28582268D02*
X74351438Y-28544173D01*
X74351438Y-28544173D02*
X74541914Y-28544173D01*
X74541914Y-28544173D02*
X74618104Y-28582268D01*
X74618104Y-28582268D02*
X74656200Y-28620363D01*
X74656200Y-28620363D02*
X74694295Y-28696554D01*
X74694295Y-28696554D02*
X74694295Y-28925125D01*
X74694295Y-28925125D02*
X74656200Y-29001316D01*
X74656200Y-29001316D02*
X74618104Y-29039411D01*
X74908207Y-39694295D02*
X74451064Y-39694295D01*
X74679636Y-39694295D02*
X74679636Y-38894295D01*
X74679636Y-38894295D02*
X74603445Y-39008580D01*
X74603445Y-39008580D02*
X74527255Y-39084771D01*
X74527255Y-39084771D02*
X74451064Y-39122866D01*
X75365350Y-39237152D02*
X75289160Y-39199057D01*
X75289160Y-39199057D02*
X75251065Y-39160961D01*
X75251065Y-39160961D02*
X75212969Y-39084771D01*
X75212969Y-39084771D02*
X75212969Y-39046676D01*
X75212969Y-39046676D02*
X75251065Y-38970485D01*
X75251065Y-38970485D02*
X75289160Y-38932390D01*
X75289160Y-38932390D02*
X75365350Y-38894295D01*
X75365350Y-38894295D02*
X75517731Y-38894295D01*
X75517731Y-38894295D02*
X75593922Y-38932390D01*
X75593922Y-38932390D02*
X75632017Y-38970485D01*
X75632017Y-38970485D02*
X75670112Y-39046676D01*
X75670112Y-39046676D02*
X75670112Y-39084771D01*
X75670112Y-39084771D02*
X75632017Y-39160961D01*
X75632017Y-39160961D02*
X75593922Y-39199057D01*
X75593922Y-39199057D02*
X75517731Y-39237152D01*
X75517731Y-39237152D02*
X75365350Y-39237152D01*
X75365350Y-39237152D02*
X75289160Y-39275247D01*
X75289160Y-39275247D02*
X75251065Y-39313342D01*
X75251065Y-39313342D02*
X75212969Y-39389533D01*
X75212969Y-39389533D02*
X75212969Y-39541914D01*
X75212969Y-39541914D02*
X75251065Y-39618104D01*
X75251065Y-39618104D02*
X75289160Y-39656200D01*
X75289160Y-39656200D02*
X75365350Y-39694295D01*
X75365350Y-39694295D02*
X75517731Y-39694295D01*
X75517731Y-39694295D02*
X75593922Y-39656200D01*
X75593922Y-39656200D02*
X75632017Y-39618104D01*
X75632017Y-39618104D02*
X75670112Y-39541914D01*
X75670112Y-39541914D02*
X75670112Y-39389533D01*
X75670112Y-39389533D02*
X75632017Y-39313342D01*
X75632017Y-39313342D02*
X75593922Y-39275247D01*
X75593922Y-39275247D02*
X75517731Y-39237152D01*
X75898684Y-38894295D02*
X76165351Y-39694295D01*
X76165351Y-39694295D02*
X76432017Y-38894295D01*
D12*
X2303884Y-4622419D02*
X2303884Y-3622419D01*
X2303884Y-4098609D02*
X2875312Y-4098609D01*
X2875312Y-4622419D02*
X2875312Y-3622419D01*
X3208646Y-3622419D02*
X3541979Y-4622419D01*
X3541979Y-4622419D02*
X3875312Y-3622419D01*
X5113408Y-4622419D02*
X5018170Y-4574800D01*
X5018170Y-4574800D02*
X4970551Y-4527180D01*
X4970551Y-4527180D02*
X4922932Y-4431942D01*
X4922932Y-4431942D02*
X4922932Y-4146228D01*
X4922932Y-4146228D02*
X4970551Y-4050990D01*
X4970551Y-4050990D02*
X5018170Y-4003371D01*
X5018170Y-4003371D02*
X5113408Y-3955752D01*
X5113408Y-3955752D02*
X5256265Y-3955752D01*
X5256265Y-3955752D02*
X5351503Y-4003371D01*
X5351503Y-4003371D02*
X5399122Y-4050990D01*
X5399122Y-4050990D02*
X5446741Y-4146228D01*
X5446741Y-4146228D02*
X5446741Y-4431942D01*
X5446741Y-4431942D02*
X5399122Y-4527180D01*
X5399122Y-4527180D02*
X5351503Y-4574800D01*
X5351503Y-4574800D02*
X5256265Y-4622419D01*
X5256265Y-4622419D02*
X5113408Y-4622419D01*
X6303884Y-3955752D02*
X6303884Y-4622419D01*
X5875313Y-3955752D02*
X5875313Y-4479561D01*
X5875313Y-4479561D02*
X5922932Y-4574800D01*
X5922932Y-4574800D02*
X6018170Y-4622419D01*
X6018170Y-4622419D02*
X6161027Y-4622419D01*
X6161027Y-4622419D02*
X6256265Y-4574800D01*
X6256265Y-4574800D02*
X6303884Y-4527180D01*
X6637218Y-3955752D02*
X7018170Y-3955752D01*
X6780075Y-3622419D02*
X6780075Y-4479561D01*
X6780075Y-4479561D02*
X6827694Y-4574800D01*
X6827694Y-4574800D02*
X6922932Y-4622419D01*
X6922932Y-4622419D02*
X7018170Y-4622419D01*
D10*
X86528571Y-12112295D02*
X86528571Y-11312295D01*
X86528571Y-11312295D02*
X86719047Y-11312295D01*
X86719047Y-11312295D02*
X86833333Y-11350390D01*
X86833333Y-11350390D02*
X86909523Y-11426580D01*
X86909523Y-11426580D02*
X86947618Y-11502771D01*
X86947618Y-11502771D02*
X86985714Y-11655152D01*
X86985714Y-11655152D02*
X86985714Y-11769438D01*
X86985714Y-11769438D02*
X86947618Y-11921819D01*
X86947618Y-11921819D02*
X86909523Y-11998009D01*
X86909523Y-11998009D02*
X86833333Y-12074200D01*
X86833333Y-12074200D02*
X86719047Y-12112295D01*
X86719047Y-12112295D02*
X86528571Y-12112295D01*
X87747618Y-12112295D02*
X87290475Y-12112295D01*
X87519047Y-12112295D02*
X87519047Y-11312295D01*
X87519047Y-11312295D02*
X87442856Y-11426580D01*
X87442856Y-11426580D02*
X87366666Y-11502771D01*
X87366666Y-11502771D02*
X87290475Y-11540866D01*
X88052380Y-11388485D02*
X88090476Y-11350390D01*
X88090476Y-11350390D02*
X88166666Y-11312295D01*
X88166666Y-11312295D02*
X88357142Y-11312295D01*
X88357142Y-11312295D02*
X88433333Y-11350390D01*
X88433333Y-11350390D02*
X88471428Y-11388485D01*
X88471428Y-11388485D02*
X88509523Y-11464676D01*
X88509523Y-11464676D02*
X88509523Y-11540866D01*
X88509523Y-11540866D02*
X88471428Y-11655152D01*
X88471428Y-11655152D02*
X88014285Y-12112295D01*
X88014285Y-12112295D02*
X88509523Y-12112295D01*
X100833333Y-1362295D02*
X100833333Y-1933723D01*
X100833333Y-1933723D02*
X100795238Y-2048009D01*
X100795238Y-2048009D02*
X100719047Y-2124200D01*
X100719047Y-2124200D02*
X100604762Y-2162295D01*
X100604762Y-2162295D02*
X100528571Y-2162295D01*
X101633333Y-2162295D02*
X101176190Y-2162295D01*
X101404762Y-2162295D02*
X101404762Y-1362295D01*
X101404762Y-1362295D02*
X101328571Y-1476580D01*
X101328571Y-1476580D02*
X101252381Y-1552771D01*
X101252381Y-1552771D02*
X101176190Y-1590866D01*
X78533333Y-4812295D02*
X78533333Y-5383723D01*
X78533333Y-5383723D02*
X78495238Y-5498009D01*
X78495238Y-5498009D02*
X78419047Y-5574200D01*
X78419047Y-5574200D02*
X78304762Y-5612295D01*
X78304762Y-5612295D02*
X78228571Y-5612295D01*
X79295238Y-4812295D02*
X78914286Y-4812295D01*
X78914286Y-4812295D02*
X78876190Y-5193247D01*
X78876190Y-5193247D02*
X78914286Y-5155152D01*
X78914286Y-5155152D02*
X78990476Y-5117057D01*
X78990476Y-5117057D02*
X79180952Y-5117057D01*
X79180952Y-5117057D02*
X79257143Y-5155152D01*
X79257143Y-5155152D02*
X79295238Y-5193247D01*
X79295238Y-5193247D02*
X79333333Y-5269438D01*
X79333333Y-5269438D02*
X79333333Y-5459914D01*
X79333333Y-5459914D02*
X79295238Y-5536104D01*
X79295238Y-5536104D02*
X79257143Y-5574200D01*
X79257143Y-5574200D02*
X79180952Y-5612295D01*
X79180952Y-5612295D02*
X78990476Y-5612295D01*
X78990476Y-5612295D02*
X78914286Y-5574200D01*
X78914286Y-5574200D02*
X78876190Y-5536104D01*
X102662295Y-13971428D02*
X101862295Y-13971428D01*
X101862295Y-13971428D02*
X101862295Y-13780952D01*
X101862295Y-13780952D02*
X101900390Y-13666666D01*
X101900390Y-13666666D02*
X101976580Y-13590476D01*
X101976580Y-13590476D02*
X102052771Y-13552381D01*
X102052771Y-13552381D02*
X102205152Y-13514285D01*
X102205152Y-13514285D02*
X102319438Y-13514285D01*
X102319438Y-13514285D02*
X102471819Y-13552381D01*
X102471819Y-13552381D02*
X102548009Y-13590476D01*
X102548009Y-13590476D02*
X102624200Y-13666666D01*
X102624200Y-13666666D02*
X102662295Y-13780952D01*
X102662295Y-13780952D02*
X102662295Y-13971428D01*
X102662295Y-12752381D02*
X102662295Y-13209524D01*
X102662295Y-12980952D02*
X101862295Y-12980952D01*
X101862295Y-12980952D02*
X101976580Y-13057143D01*
X101976580Y-13057143D02*
X102052771Y-13133333D01*
X102052771Y-13133333D02*
X102090866Y-13209524D01*
X101862295Y-12257142D02*
X101862295Y-12180952D01*
X101862295Y-12180952D02*
X101900390Y-12104761D01*
X101900390Y-12104761D02*
X101938485Y-12066666D01*
X101938485Y-12066666D02*
X102014676Y-12028571D01*
X102014676Y-12028571D02*
X102167057Y-11990476D01*
X102167057Y-11990476D02*
X102357533Y-11990476D01*
X102357533Y-11990476D02*
X102509914Y-12028571D01*
X102509914Y-12028571D02*
X102586104Y-12066666D01*
X102586104Y-12066666D02*
X102624200Y-12104761D01*
X102624200Y-12104761D02*
X102662295Y-12180952D01*
X102662295Y-12180952D02*
X102662295Y-12257142D01*
X102662295Y-12257142D02*
X102624200Y-12333333D01*
X102624200Y-12333333D02*
X102586104Y-12371428D01*
X102586104Y-12371428D02*
X102509914Y-12409523D01*
X102509914Y-12409523D02*
X102357533Y-12447619D01*
X102357533Y-12447619D02*
X102167057Y-12447619D01*
X102167057Y-12447619D02*
X102014676Y-12409523D01*
X102014676Y-12409523D02*
X101938485Y-12371428D01*
X101938485Y-12371428D02*
X101900390Y-12333333D01*
X101900390Y-12333333D02*
X101862295Y-12257142D01*
X49562295Y-29321428D02*
X49562295Y-28864285D01*
X50362295Y-29092857D02*
X49562295Y-29092857D01*
X50362295Y-28178571D02*
X50362295Y-28635714D01*
X50362295Y-28407142D02*
X49562295Y-28407142D01*
X49562295Y-28407142D02*
X49676580Y-28483333D01*
X49676580Y-28483333D02*
X49752771Y-28559523D01*
X49752771Y-28559523D02*
X49790866Y-28635714D01*
X49562295Y-27683332D02*
X49562295Y-27607142D01*
X49562295Y-27607142D02*
X49600390Y-27530951D01*
X49600390Y-27530951D02*
X49638485Y-27492856D01*
X49638485Y-27492856D02*
X49714676Y-27454761D01*
X49714676Y-27454761D02*
X49867057Y-27416666D01*
X49867057Y-27416666D02*
X50057533Y-27416666D01*
X50057533Y-27416666D02*
X50209914Y-27454761D01*
X50209914Y-27454761D02*
X50286104Y-27492856D01*
X50286104Y-27492856D02*
X50324200Y-27530951D01*
X50324200Y-27530951D02*
X50362295Y-27607142D01*
X50362295Y-27607142D02*
X50362295Y-27683332D01*
X50362295Y-27683332D02*
X50324200Y-27759523D01*
X50324200Y-27759523D02*
X50286104Y-27797618D01*
X50286104Y-27797618D02*
X50209914Y-27835713D01*
X50209914Y-27835713D02*
X50057533Y-27873809D01*
X50057533Y-27873809D02*
X49867057Y-27873809D01*
X49867057Y-27873809D02*
X49714676Y-27835713D01*
X49714676Y-27835713D02*
X49638485Y-27797618D01*
X49638485Y-27797618D02*
X49600390Y-27759523D01*
X49600390Y-27759523D02*
X49562295Y-27683332D01*
X50362295Y-26654761D02*
X50362295Y-27111904D01*
X50362295Y-26883332D02*
X49562295Y-26883332D01*
X49562295Y-26883332D02*
X49676580Y-26959523D01*
X49676580Y-26959523D02*
X49752771Y-27035713D01*
X49752771Y-27035713D02*
X49790866Y-27111904D01*
X85028571Y-19362295D02*
X85028571Y-18562295D01*
X85028571Y-18562295D02*
X85219047Y-18562295D01*
X85219047Y-18562295D02*
X85333333Y-18600390D01*
X85333333Y-18600390D02*
X85409523Y-18676580D01*
X85409523Y-18676580D02*
X85447618Y-18752771D01*
X85447618Y-18752771D02*
X85485714Y-18905152D01*
X85485714Y-18905152D02*
X85485714Y-19019438D01*
X85485714Y-19019438D02*
X85447618Y-19171819D01*
X85447618Y-19171819D02*
X85409523Y-19248009D01*
X85409523Y-19248009D02*
X85333333Y-19324200D01*
X85333333Y-19324200D02*
X85219047Y-19362295D01*
X85219047Y-19362295D02*
X85028571Y-19362295D01*
X86247618Y-19362295D02*
X85790475Y-19362295D01*
X86019047Y-19362295D02*
X86019047Y-18562295D01*
X86019047Y-18562295D02*
X85942856Y-18676580D01*
X85942856Y-18676580D02*
X85866666Y-18752771D01*
X85866666Y-18752771D02*
X85790475Y-18790866D01*
X87009523Y-19362295D02*
X86552380Y-19362295D01*
X86780952Y-19362295D02*
X86780952Y-18562295D01*
X86780952Y-18562295D02*
X86704761Y-18676580D01*
X86704761Y-18676580D02*
X86628571Y-18752771D01*
X86628571Y-18752771D02*
X86552380Y-18790866D01*
X3633333Y-28062295D02*
X3633333Y-28633723D01*
X3633333Y-28633723D02*
X3595238Y-28748009D01*
X3595238Y-28748009D02*
X3519047Y-28824200D01*
X3519047Y-28824200D02*
X3404762Y-28862295D01*
X3404762Y-28862295D02*
X3328571Y-28862295D01*
X4357143Y-28062295D02*
X4204762Y-28062295D01*
X4204762Y-28062295D02*
X4128571Y-28100390D01*
X4128571Y-28100390D02*
X4090476Y-28138485D01*
X4090476Y-28138485D02*
X4014286Y-28252771D01*
X4014286Y-28252771D02*
X3976190Y-28405152D01*
X3976190Y-28405152D02*
X3976190Y-28709914D01*
X3976190Y-28709914D02*
X4014286Y-28786104D01*
X4014286Y-28786104D02*
X4052381Y-28824200D01*
X4052381Y-28824200D02*
X4128571Y-28862295D01*
X4128571Y-28862295D02*
X4280952Y-28862295D01*
X4280952Y-28862295D02*
X4357143Y-28824200D01*
X4357143Y-28824200D02*
X4395238Y-28786104D01*
X4395238Y-28786104D02*
X4433333Y-28709914D01*
X4433333Y-28709914D02*
X4433333Y-28519438D01*
X4433333Y-28519438D02*
X4395238Y-28443247D01*
X4395238Y-28443247D02*
X4357143Y-28405152D01*
X4357143Y-28405152D02*
X4280952Y-28367057D01*
X4280952Y-28367057D02*
X4128571Y-28367057D01*
X4128571Y-28367057D02*
X4052381Y-28405152D01*
X4052381Y-28405152D02*
X4014286Y-28443247D01*
X4014286Y-28443247D02*
X3976190Y-28519438D01*
X88278571Y-33612295D02*
X88278571Y-32812295D01*
X88278571Y-32812295D02*
X88469047Y-32812295D01*
X88469047Y-32812295D02*
X88583333Y-32850390D01*
X88583333Y-32850390D02*
X88659523Y-32926580D01*
X88659523Y-32926580D02*
X88697618Y-33002771D01*
X88697618Y-33002771D02*
X88735714Y-33155152D01*
X88735714Y-33155152D02*
X88735714Y-33269438D01*
X88735714Y-33269438D02*
X88697618Y-33421819D01*
X88697618Y-33421819D02*
X88659523Y-33498009D01*
X88659523Y-33498009D02*
X88583333Y-33574200D01*
X88583333Y-33574200D02*
X88469047Y-33612295D01*
X88469047Y-33612295D02*
X88278571Y-33612295D01*
X89497618Y-33612295D02*
X89040475Y-33612295D01*
X89269047Y-33612295D02*
X89269047Y-32812295D01*
X89269047Y-32812295D02*
X89192856Y-32926580D01*
X89192856Y-32926580D02*
X89116666Y-33002771D01*
X89116666Y-33002771D02*
X89040475Y-33040866D01*
X90221428Y-32812295D02*
X89840476Y-32812295D01*
X89840476Y-32812295D02*
X89802380Y-33193247D01*
X89802380Y-33193247D02*
X89840476Y-33155152D01*
X89840476Y-33155152D02*
X89916666Y-33117057D01*
X89916666Y-33117057D02*
X90107142Y-33117057D01*
X90107142Y-33117057D02*
X90183333Y-33155152D01*
X90183333Y-33155152D02*
X90221428Y-33193247D01*
X90221428Y-33193247D02*
X90259523Y-33269438D01*
X90259523Y-33269438D02*
X90259523Y-33459914D01*
X90259523Y-33459914D02*
X90221428Y-33536104D01*
X90221428Y-33536104D02*
X90183333Y-33574200D01*
X90183333Y-33574200D02*
X90107142Y-33612295D01*
X90107142Y-33612295D02*
X89916666Y-33612295D01*
X89916666Y-33612295D02*
X89840476Y-33574200D01*
X89840476Y-33574200D02*
X89802380Y-33536104D01*
X70752381Y-28780295D02*
X71019048Y-29580295D01*
X71019048Y-29580295D02*
X71285714Y-28780295D01*
X72009524Y-29580295D02*
X71742857Y-29199342D01*
X71552381Y-29580295D02*
X71552381Y-28780295D01*
X71552381Y-28780295D02*
X71857143Y-28780295D01*
X71857143Y-28780295D02*
X71933333Y-28818390D01*
X71933333Y-28818390D02*
X71971428Y-28856485D01*
X71971428Y-28856485D02*
X72009524Y-28932676D01*
X72009524Y-28932676D02*
X72009524Y-29046961D01*
X72009524Y-29046961D02*
X71971428Y-29123152D01*
X71971428Y-29123152D02*
X71933333Y-29161247D01*
X71933333Y-29161247D02*
X71857143Y-29199342D01*
X71857143Y-29199342D02*
X71552381Y-29199342D01*
X72771428Y-29580295D02*
X72314285Y-29580295D01*
X72542857Y-29580295D02*
X72542857Y-28780295D01*
X72542857Y-28780295D02*
X72466666Y-28894580D01*
X72466666Y-28894580D02*
X72390476Y-28970771D01*
X72390476Y-28970771D02*
X72314285Y-29008866D01*
X63812295Y-28278571D02*
X63812295Y-27821428D01*
X64612295Y-28050000D02*
X63812295Y-28050000D01*
X64612295Y-27554761D02*
X63812295Y-27554761D01*
X64193247Y-27554761D02*
X64193247Y-27097618D01*
X64612295Y-27097618D02*
X63812295Y-27097618D01*
X64612295Y-26297619D02*
X64612295Y-26754762D01*
X64612295Y-26526190D02*
X63812295Y-26526190D01*
X63812295Y-26526190D02*
X63926580Y-26602381D01*
X63926580Y-26602381D02*
X64002771Y-26678571D01*
X64002771Y-26678571D02*
X64040866Y-26754762D01*
X47733333Y-2749295D02*
X47733333Y-3320723D01*
X47733333Y-3320723D02*
X47695238Y-3435009D01*
X47695238Y-3435009D02*
X47619047Y-3511200D01*
X47619047Y-3511200D02*
X47504762Y-3549295D01*
X47504762Y-3549295D02*
X47428571Y-3549295D01*
X48457143Y-3015961D02*
X48457143Y-3549295D01*
X48266667Y-2711200D02*
X48076190Y-3282628D01*
X48076190Y-3282628D02*
X48571429Y-3282628D01*
X95233333Y-7143247D02*
X94966667Y-7143247D01*
X94966667Y-7562295D02*
X94966667Y-6762295D01*
X94966667Y-6762295D02*
X95347619Y-6762295D01*
X96071428Y-7562295D02*
X95614285Y-7562295D01*
X95842857Y-7562295D02*
X95842857Y-6762295D01*
X95842857Y-6762295D02*
X95766666Y-6876580D01*
X95766666Y-6876580D02*
X95690476Y-6952771D01*
X95690476Y-6952771D02*
X95614285Y-6990866D01*
X52983333Y-5612295D02*
X52983333Y-6183723D01*
X52983333Y-6183723D02*
X52945238Y-6298009D01*
X52945238Y-6298009D02*
X52869047Y-6374200D01*
X52869047Y-6374200D02*
X52754762Y-6412295D01*
X52754762Y-6412295D02*
X52678571Y-6412295D01*
X53326190Y-5688485D02*
X53364286Y-5650390D01*
X53364286Y-5650390D02*
X53440476Y-5612295D01*
X53440476Y-5612295D02*
X53630952Y-5612295D01*
X53630952Y-5612295D02*
X53707143Y-5650390D01*
X53707143Y-5650390D02*
X53745238Y-5688485D01*
X53745238Y-5688485D02*
X53783333Y-5764676D01*
X53783333Y-5764676D02*
X53783333Y-5840866D01*
X53783333Y-5840866D02*
X53745238Y-5955152D01*
X53745238Y-5955152D02*
X53288095Y-6412295D01*
X53288095Y-6412295D02*
X53783333Y-6412295D01*
X78019048Y-22562295D02*
X78019048Y-21762295D01*
X78857143Y-22486104D02*
X78819047Y-22524200D01*
X78819047Y-22524200D02*
X78704762Y-22562295D01*
X78704762Y-22562295D02*
X78628571Y-22562295D01*
X78628571Y-22562295D02*
X78514285Y-22524200D01*
X78514285Y-22524200D02*
X78438095Y-22448009D01*
X78438095Y-22448009D02*
X78400000Y-22371819D01*
X78400000Y-22371819D02*
X78361904Y-22219438D01*
X78361904Y-22219438D02*
X78361904Y-22105152D01*
X78361904Y-22105152D02*
X78400000Y-21952771D01*
X78400000Y-21952771D02*
X78438095Y-21876580D01*
X78438095Y-21876580D02*
X78514285Y-21800390D01*
X78514285Y-21800390D02*
X78628571Y-21762295D01*
X78628571Y-21762295D02*
X78704762Y-21762295D01*
X78704762Y-21762295D02*
X78819047Y-21800390D01*
X78819047Y-21800390D02*
X78857143Y-21838485D01*
X79123809Y-21762295D02*
X79619047Y-21762295D01*
X79619047Y-21762295D02*
X79352381Y-22067057D01*
X79352381Y-22067057D02*
X79466666Y-22067057D01*
X79466666Y-22067057D02*
X79542857Y-22105152D01*
X79542857Y-22105152D02*
X79580952Y-22143247D01*
X79580952Y-22143247D02*
X79619047Y-22219438D01*
X79619047Y-22219438D02*
X79619047Y-22409914D01*
X79619047Y-22409914D02*
X79580952Y-22486104D01*
X79580952Y-22486104D02*
X79542857Y-22524200D01*
X79542857Y-22524200D02*
X79466666Y-22562295D01*
X79466666Y-22562295D02*
X79238095Y-22562295D01*
X79238095Y-22562295D02*
X79161904Y-22524200D01*
X79161904Y-22524200D02*
X79123809Y-22486104D01*
X101866667Y-27036104D02*
X101828571Y-27074200D01*
X101828571Y-27074200D02*
X101714286Y-27112295D01*
X101714286Y-27112295D02*
X101638095Y-27112295D01*
X101638095Y-27112295D02*
X101523809Y-27074200D01*
X101523809Y-27074200D02*
X101447619Y-26998009D01*
X101447619Y-26998009D02*
X101409524Y-26921819D01*
X101409524Y-26921819D02*
X101371428Y-26769438D01*
X101371428Y-26769438D02*
X101371428Y-26655152D01*
X101371428Y-26655152D02*
X101409524Y-26502771D01*
X101409524Y-26502771D02*
X101447619Y-26426580D01*
X101447619Y-26426580D02*
X101523809Y-26350390D01*
X101523809Y-26350390D02*
X101638095Y-26312295D01*
X101638095Y-26312295D02*
X101714286Y-26312295D01*
X101714286Y-26312295D02*
X101828571Y-26350390D01*
X101828571Y-26350390D02*
X101866667Y-26388485D01*
X102552381Y-26312295D02*
X102400000Y-26312295D01*
X102400000Y-26312295D02*
X102323809Y-26350390D01*
X102323809Y-26350390D02*
X102285714Y-26388485D01*
X102285714Y-26388485D02*
X102209524Y-26502771D01*
X102209524Y-26502771D02*
X102171428Y-26655152D01*
X102171428Y-26655152D02*
X102171428Y-26959914D01*
X102171428Y-26959914D02*
X102209524Y-27036104D01*
X102209524Y-27036104D02*
X102247619Y-27074200D01*
X102247619Y-27074200D02*
X102323809Y-27112295D01*
X102323809Y-27112295D02*
X102476190Y-27112295D01*
X102476190Y-27112295D02*
X102552381Y-27074200D01*
X102552381Y-27074200D02*
X102590476Y-27036104D01*
X102590476Y-27036104D02*
X102628571Y-26959914D01*
X102628571Y-26959914D02*
X102628571Y-26769438D01*
X102628571Y-26769438D02*
X102590476Y-26693247D01*
X102590476Y-26693247D02*
X102552381Y-26655152D01*
X102552381Y-26655152D02*
X102476190Y-26617057D01*
X102476190Y-26617057D02*
X102323809Y-26617057D01*
X102323809Y-26617057D02*
X102247619Y-26655152D01*
X102247619Y-26655152D02*
X102209524Y-26693247D01*
X102209524Y-26693247D02*
X102171428Y-26769438D01*
X85933333Y-21862295D02*
X85933333Y-22433723D01*
X85933333Y-22433723D02*
X85895238Y-22548009D01*
X85895238Y-22548009D02*
X85819047Y-22624200D01*
X85819047Y-22624200D02*
X85704762Y-22662295D01*
X85704762Y-22662295D02*
X85628571Y-22662295D01*
X86238095Y-21862295D02*
X86733333Y-21862295D01*
X86733333Y-21862295D02*
X86466667Y-22167057D01*
X86466667Y-22167057D02*
X86580952Y-22167057D01*
X86580952Y-22167057D02*
X86657143Y-22205152D01*
X86657143Y-22205152D02*
X86695238Y-22243247D01*
X86695238Y-22243247D02*
X86733333Y-22319438D01*
X86733333Y-22319438D02*
X86733333Y-22509914D01*
X86733333Y-22509914D02*
X86695238Y-22586104D01*
X86695238Y-22586104D02*
X86657143Y-22624200D01*
X86657143Y-22624200D02*
X86580952Y-22662295D01*
X86580952Y-22662295D02*
X86352381Y-22662295D01*
X86352381Y-22662295D02*
X86276190Y-22624200D01*
X86276190Y-22624200D02*
X86238095Y-22586104D01*
X39604761Y-34612295D02*
X39223809Y-34612295D01*
X39223809Y-34612295D02*
X39223809Y-33812295D01*
X40290475Y-34612295D02*
X39833332Y-34612295D01*
X40061904Y-34612295D02*
X40061904Y-33812295D01*
X40061904Y-33812295D02*
X39985713Y-33926580D01*
X39985713Y-33926580D02*
X39909523Y-34002771D01*
X39909523Y-34002771D02*
X39833332Y-34040866D01*
X40785714Y-33812295D02*
X40861904Y-33812295D01*
X40861904Y-33812295D02*
X40938095Y-33850390D01*
X40938095Y-33850390D02*
X40976190Y-33888485D01*
X40976190Y-33888485D02*
X41014285Y-33964676D01*
X41014285Y-33964676D02*
X41052380Y-34117057D01*
X41052380Y-34117057D02*
X41052380Y-34307533D01*
X41052380Y-34307533D02*
X41014285Y-34459914D01*
X41014285Y-34459914D02*
X40976190Y-34536104D01*
X40976190Y-34536104D02*
X40938095Y-34574200D01*
X40938095Y-34574200D02*
X40861904Y-34612295D01*
X40861904Y-34612295D02*
X40785714Y-34612295D01*
X40785714Y-34612295D02*
X40709523Y-34574200D01*
X40709523Y-34574200D02*
X40671428Y-34536104D01*
X40671428Y-34536104D02*
X40633333Y-34459914D01*
X40633333Y-34459914D02*
X40595237Y-34307533D01*
X40595237Y-34307533D02*
X40595237Y-34117057D01*
X40595237Y-34117057D02*
X40633333Y-33964676D01*
X40633333Y-33964676D02*
X40671428Y-33888485D01*
X40671428Y-33888485D02*
X40709523Y-33850390D01*
X40709523Y-33850390D02*
X40785714Y-33812295D01*
X41814285Y-34612295D02*
X41357142Y-34612295D01*
X41585714Y-34612295D02*
X41585714Y-33812295D01*
X41585714Y-33812295D02*
X41509523Y-33926580D01*
X41509523Y-33926580D02*
X41433333Y-34002771D01*
X41433333Y-34002771D02*
X41357142Y-34040866D01*
X87043247Y-6116666D02*
X87043247Y-6383332D01*
X87462295Y-6383332D02*
X86662295Y-6383332D01*
X86662295Y-6383332D02*
X86662295Y-6002380D01*
X86738485Y-5735714D02*
X86700390Y-5697618D01*
X86700390Y-5697618D02*
X86662295Y-5621428D01*
X86662295Y-5621428D02*
X86662295Y-5430952D01*
X86662295Y-5430952D02*
X86700390Y-5354761D01*
X86700390Y-5354761D02*
X86738485Y-5316666D01*
X86738485Y-5316666D02*
X86814676Y-5278571D01*
X86814676Y-5278571D02*
X86890866Y-5278571D01*
X86890866Y-5278571D02*
X87005152Y-5316666D01*
X87005152Y-5316666D02*
X87462295Y-5773809D01*
X87462295Y-5773809D02*
X87462295Y-5278571D01*
X101285714Y-18886104D02*
X101247618Y-18924200D01*
X101247618Y-18924200D02*
X101133333Y-18962295D01*
X101133333Y-18962295D02*
X101057142Y-18962295D01*
X101057142Y-18962295D02*
X100942856Y-18924200D01*
X100942856Y-18924200D02*
X100866666Y-18848009D01*
X100866666Y-18848009D02*
X100828571Y-18771819D01*
X100828571Y-18771819D02*
X100790475Y-18619438D01*
X100790475Y-18619438D02*
X100790475Y-18505152D01*
X100790475Y-18505152D02*
X100828571Y-18352771D01*
X100828571Y-18352771D02*
X100866666Y-18276580D01*
X100866666Y-18276580D02*
X100942856Y-18200390D01*
X100942856Y-18200390D02*
X101057142Y-18162295D01*
X101057142Y-18162295D02*
X101133333Y-18162295D01*
X101133333Y-18162295D02*
X101247618Y-18200390D01*
X101247618Y-18200390D02*
X101285714Y-18238485D01*
X101590475Y-18238485D02*
X101628571Y-18200390D01*
X101628571Y-18200390D02*
X101704761Y-18162295D01*
X101704761Y-18162295D02*
X101895237Y-18162295D01*
X101895237Y-18162295D02*
X101971428Y-18200390D01*
X101971428Y-18200390D02*
X102009523Y-18238485D01*
X102009523Y-18238485D02*
X102047618Y-18314676D01*
X102047618Y-18314676D02*
X102047618Y-18390866D01*
X102047618Y-18390866D02*
X102009523Y-18505152D01*
X102009523Y-18505152D02*
X101552380Y-18962295D01*
X101552380Y-18962295D02*
X102047618Y-18962295D01*
X102733333Y-18428961D02*
X102733333Y-18962295D01*
X102542857Y-18124200D02*
X102352380Y-18695628D01*
X102352380Y-18695628D02*
X102847619Y-18695628D01*
D15*
%TO.C,IC2*%
X64850000Y-15240000D02*
X62650000Y-15240000D01*
X64850000Y-15240000D02*
X67050000Y-15240000D01*
X64850000Y-20460000D02*
X62650000Y-20460000D01*
X64850000Y-20460000D02*
X67050000Y-20460000D01*
X61950000Y-15440000D02*
X61710000Y-15110000D01*
X62190000Y-15110000D01*
X61950000Y-15440000D01*
G36*
X61950000Y-15440000D02*
G01*
X61710000Y-15110000D01*
X62190000Y-15110000D01*
X61950000Y-15440000D01*
G37*
%TO.C,IC1*%
X58250000Y-13820000D02*
X61250000Y-13820000D01*
X57250000Y-10580000D02*
X59250000Y-10580000D01*
%TO.C,R64*%
X82522500Y-13587742D02*
X82522500Y-14062258D01*
X81477500Y-13587742D02*
X81477500Y-14062258D01*
%TO.C,R32*%
X84522500Y-14062258D02*
X84522500Y-13587742D01*
X83477500Y-14062258D02*
X83477500Y-13587742D01*
%TO.C,D12*%
X86235000Y-14625000D02*
X86235000Y-12340000D01*
X86235000Y-12340000D02*
X84765000Y-12340000D01*
X84765000Y-12340000D02*
X84765000Y-14625000D01*
%TO.C,TPB1*%
X73500000Y-32100000D02*
G75*
G02*
X72100000Y-32100000I-700000J0D01*
G01*
X72100000Y-32100000D02*
G75*
G02*
X73500000Y-32100000I700000J0D01*
G01*
%TO.C,TPB2*%
X73500000Y-25900000D02*
G75*
G02*
X72100000Y-25900000I-700000J0D01*
G01*
X72100000Y-25900000D02*
G75*
G02*
X73500000Y-25900000I700000J0D01*
G01*
D14*
%TO.C,J1*%
X100250000Y-6500000D02*
X87750000Y-6500000D01*
X100250000Y-100000D02*
X100250000Y-6500000D01*
D12*
X90250000Y400000D02*
X90250000Y400000D01*
X90250000Y500000D02*
X90250000Y500000D01*
D14*
X87750000Y-6500000D02*
X87750000Y-100000D01*
X87750000Y-100000D02*
X100250000Y-100000D01*
D12*
X90250000Y400000D02*
G75*
G02*
X90250000Y500000I0J50000D01*
G01*
X90250000Y500000D02*
G75*
G02*
X90250000Y400000I0J-50000D01*
G01*
D14*
%TO.C,J5*%
X86950000Y-4500000D02*
X77050000Y-4500000D01*
X86950000Y0D02*
X86950000Y-4500000D01*
X79000000Y0D02*
X86950000Y0D01*
X77050000Y-4500000D02*
X77050000Y-1700000D01*
D15*
%TO.C,TP5*%
X52950000Y-4000000D02*
G75*
G02*
X51550000Y-4000000I-700000J0D01*
G01*
X51550000Y-4000000D02*
G75*
G02*
X52950000Y-4000000I700000J0D01*
G01*
%TO.C,R34*%
X68262742Y-9727500D02*
X68737258Y-9727500D01*
X68262742Y-10772500D02*
X68737258Y-10772500D01*
D14*
%TO.C,IC7*%
X78750000Y-24750000D02*
X79350000Y-24750000D01*
X78750000Y-27650000D02*
X78750000Y-24750000D01*
X79350000Y-24750000D02*
X79350000Y-27650000D01*
X79350000Y-27650000D02*
X78750000Y-27650000D01*
X80900000Y-27700000D02*
X79700000Y-27700000D01*
D15*
%TO.C,C39*%
X74890000Y-29538748D02*
X74890000Y-30961252D01*
X77610000Y-29538748D02*
X77610000Y-30961252D01*
D14*
%TO.C,REF\u002A\u002A*%
X3600000Y-2240000D02*
X3850000Y-2040000D01*
X3845000Y-1920000D02*
X4095000Y-1720000D01*
X5480000Y-2130000D02*
X5570000Y-1620000D01*
D12*
X5636542Y-1779104D02*
X5432813Y-1444406D01*
X6320490Y-2041042D01*
X5272740Y-2259323D01*
X5592886Y-2026489D01*
X3861188Y-1750000D01*
X4457823Y-2870510D01*
X2250000Y-2250000D01*
X2250000Y-1750000D01*
X3875740Y-2288427D01*
X3250000Y-1124260D01*
X5636542Y-1779104D01*
G36*
X5636542Y-1779104D02*
G01*
X5432813Y-1444406D01*
X6320490Y-2041042D01*
X5272740Y-2259323D01*
X5592886Y-2026489D01*
X3861188Y-1750000D01*
X4457823Y-2870510D01*
X2250000Y-2250000D01*
X2250000Y-1750000D01*
X3875740Y-2288427D01*
X3250000Y-1124260D01*
X5636542Y-1779104D01*
G37*
D15*
%TO.C,C36*%
X69640000Y-37711252D02*
X69640000Y-36288748D01*
X72360000Y-37711252D02*
X72360000Y-36288748D01*
D14*
%TO.C,IC6*%
X87575000Y-26207836D02*
X88425000Y-26207836D01*
X87575000Y-29107836D02*
X87575000Y-26207836D01*
X88425000Y-26207836D02*
X88425000Y-29107836D01*
X88425000Y-29107836D02*
X87575000Y-29107836D01*
X89825000Y-29232836D02*
X88775000Y-29232836D01*
D15*
%TO.C,R48*%
X81227500Y-37512742D02*
X81227500Y-37987258D01*
X82272500Y-37512742D02*
X82272500Y-37987258D01*
%TO.C,D16*%
X70540000Y-23400000D02*
X70540000Y-25100000D01*
X70540000Y-23400000D02*
X73200000Y-23400000D01*
X70540000Y-25100000D02*
X73200000Y-25100000D01*
%TO.C,C42*%
X46920000Y-35710000D02*
X55080000Y-35710000D01*
X46920000Y-35750000D02*
X55080000Y-35750000D01*
X46921000Y-35670000D02*
X55079000Y-35670000D01*
X46922000Y-35630000D02*
X55078000Y-35630000D01*
X46923000Y-35590000D02*
X55077000Y-35590000D01*
X46925000Y-35550000D02*
X55075000Y-35550000D01*
X46927000Y-35510000D02*
X55073000Y-35510000D01*
X46930000Y-35470000D02*
X55070000Y-35470000D01*
X46932000Y-35430000D02*
X55068000Y-35430000D01*
X46936000Y-35390000D02*
X55064000Y-35390000D01*
X46939000Y-35350000D02*
X55061000Y-35350000D01*
X46944000Y-35310000D02*
X55056000Y-35310000D01*
X46948000Y-35270000D02*
X55052000Y-35270000D01*
X46953000Y-35230000D02*
X55047000Y-35230000D01*
X46958000Y-35190000D02*
X55042000Y-35190000D01*
X46964000Y-35150000D02*
X55036000Y-35150000D01*
X46970000Y-35110000D02*
X55030000Y-35110000D01*
X46977000Y-35070000D02*
X55023000Y-35070000D01*
X46983000Y-35030000D02*
X49960000Y-35030000D01*
X46991000Y-34990000D02*
X49960000Y-34990000D01*
X46998000Y-34950000D02*
X49960000Y-34950000D01*
X47007000Y-34910000D02*
X49960000Y-34910000D01*
X47015000Y-34870000D02*
X49960000Y-34870000D01*
X47024000Y-34830000D02*
X49960000Y-34830000D01*
X47033000Y-34790000D02*
X49960000Y-34790000D01*
X47043000Y-34750000D02*
X49960000Y-34750000D01*
X47053000Y-34710000D02*
X49960000Y-34710000D01*
X47064000Y-34670000D02*
X49960000Y-34670000D01*
X47075000Y-34630000D02*
X49960000Y-34630000D01*
X47087000Y-34590000D02*
X49960000Y-34590000D01*
X47099000Y-34550000D02*
X49960000Y-34550000D01*
X47111000Y-34510000D02*
X49960000Y-34510000D01*
X47124000Y-34470000D02*
X49960000Y-34470000D01*
X47137000Y-34430000D02*
X49960000Y-34430000D01*
X47151000Y-34390000D02*
X49960000Y-34390000D01*
X47165000Y-34350000D02*
X49960000Y-34350000D01*
X47180000Y-34310000D02*
X49960000Y-34310000D01*
X47195000Y-34270000D02*
X49960000Y-34270000D01*
X47211000Y-34230000D02*
X49960000Y-34230000D01*
X47227000Y-34190000D02*
X49960000Y-34190000D01*
X47243000Y-34150000D02*
X49960000Y-34150000D01*
X47260000Y-34110000D02*
X49960000Y-34110000D01*
X47278000Y-34070000D02*
X49960000Y-34070000D01*
X47296000Y-34030000D02*
X49960000Y-34030000D01*
X47298000Y-39151000D02*
X48098000Y-39151000D01*
X47315000Y-33990000D02*
X49960000Y-33990000D01*
X47334000Y-33950000D02*
X49960000Y-33950000D01*
X47354000Y-33910000D02*
X49960000Y-33910000D01*
X47374000Y-33870000D02*
X49960000Y-33870000D01*
X47395000Y-33830000D02*
X49960000Y-33830000D01*
X47416000Y-33790000D02*
X49960000Y-33790000D01*
X47438000Y-33750000D02*
X49960000Y-33750000D01*
X47461000Y-33710000D02*
X49960000Y-33710000D01*
X47484000Y-33670000D02*
X49960000Y-33670000D01*
X47507000Y-33630000D02*
X49960000Y-33630000D01*
X47532000Y-33590000D02*
X49960000Y-33590000D01*
X47557000Y-33550000D02*
X49960000Y-33550000D01*
X47582000Y-33510000D02*
X49960000Y-33510000D01*
X47608000Y-33470000D02*
X49960000Y-33470000D01*
X47635000Y-33430000D02*
X49960000Y-33430000D01*
X47663000Y-33390000D02*
X49960000Y-33390000D01*
X47691000Y-33350000D02*
X49960000Y-33350000D01*
X47698000Y-39551000D02*
X47698000Y-38751000D01*
X47720000Y-33310000D02*
X49960000Y-33310000D01*
X47750000Y-33270000D02*
X49960000Y-33270000D01*
X47781000Y-33230000D02*
X49960000Y-33230000D01*
X47812000Y-33190000D02*
X49960000Y-33190000D01*
X47844000Y-33150000D02*
X49960000Y-33150000D01*
X47877000Y-33110000D02*
X49960000Y-33110000D01*
X47911000Y-33070000D02*
X49960000Y-33070000D01*
X47945000Y-33030000D02*
X49960000Y-33030000D01*
X47981000Y-32990000D02*
X49960000Y-32990000D01*
X48018000Y-32950000D02*
X53982000Y-32950000D01*
X48055000Y-32910000D02*
X53945000Y-32910000D01*
X48094000Y-32870000D02*
X53906000Y-32870000D01*
X48133000Y-32830000D02*
X53867000Y-32830000D01*
X48174000Y-32790000D02*
X53826000Y-32790000D01*
X48216000Y-32750000D02*
X53784000Y-32750000D01*
X48259000Y-32710000D02*
X53741000Y-32710000D01*
X48304000Y-32670000D02*
X53696000Y-32670000D01*
X48349000Y-32630000D02*
X53651000Y-32630000D01*
X48396000Y-32590000D02*
X53604000Y-32590000D01*
X48445000Y-32550000D02*
X53555000Y-32550000D01*
X48495000Y-32510000D02*
X53505000Y-32510000D01*
X48547000Y-32470000D02*
X53453000Y-32470000D01*
X48600000Y-32430000D02*
X53400000Y-32430000D01*
X48656000Y-32390000D02*
X53344000Y-32390000D01*
X48713000Y-32350000D02*
X53287000Y-32350000D01*
X48773000Y-32310000D02*
X53227000Y-32310000D01*
X48835000Y-32270000D02*
X53165000Y-32270000D01*
X48899000Y-32230000D02*
X53101000Y-32230000D01*
X48966000Y-32190000D02*
X53034000Y-32190000D01*
X49036000Y-32150000D02*
X52964000Y-32150000D01*
X49110000Y-32110000D02*
X52890000Y-32110000D01*
X49187000Y-32070000D02*
X52813000Y-32070000D01*
X49269000Y-32030000D02*
X52731000Y-32030000D01*
X49356000Y-31990000D02*
X52644000Y-31990000D01*
X49448000Y-31950000D02*
X52552000Y-31950000D01*
X49547000Y-31910000D02*
X52453000Y-31910000D01*
X49654000Y-31870000D02*
X52346000Y-31870000D01*
X49772000Y-31830000D02*
X52228000Y-31830000D01*
X49903000Y-31790000D02*
X52097000Y-31790000D01*
X50053000Y-31750000D02*
X51947000Y-31750000D01*
X50232000Y-31710000D02*
X51768000Y-31710000D01*
X50467000Y-31670000D02*
X51533000Y-31670000D01*
X52040000Y-32990000D02*
X54019000Y-32990000D01*
X52040000Y-33030000D02*
X54055000Y-33030000D01*
X52040000Y-33070000D02*
X54089000Y-33070000D01*
X52040000Y-33110000D02*
X54123000Y-33110000D01*
X52040000Y-33150000D02*
X54156000Y-33150000D01*
X52040000Y-33190000D02*
X54188000Y-33190000D01*
X52040000Y-33230000D02*
X54219000Y-33230000D01*
X52040000Y-33270000D02*
X54250000Y-33270000D01*
X52040000Y-33310000D02*
X54280000Y-33310000D01*
X52040000Y-33350000D02*
X54309000Y-33350000D01*
X52040000Y-33390000D02*
X54337000Y-33390000D01*
X52040000Y-33430000D02*
X54365000Y-33430000D01*
X52040000Y-33470000D02*
X54392000Y-33470000D01*
X52040000Y-33510000D02*
X54418000Y-33510000D01*
X52040000Y-33550000D02*
X54443000Y-33550000D01*
X52040000Y-33590000D02*
X54468000Y-33590000D01*
X52040000Y-33630000D02*
X54493000Y-33630000D01*
X52040000Y-33670000D02*
X54516000Y-33670000D01*
X52040000Y-33710000D02*
X54539000Y-33710000D01*
X52040000Y-33750000D02*
X54562000Y-33750000D01*
X52040000Y-33790000D02*
X54584000Y-33790000D01*
X52040000Y-33830000D02*
X54605000Y-33830000D01*
X52040000Y-33870000D02*
X54626000Y-33870000D01*
X52040000Y-33910000D02*
X54646000Y-33910000D01*
X52040000Y-33950000D02*
X54666000Y-33950000D01*
X52040000Y-33990000D02*
X54685000Y-33990000D01*
X52040000Y-34030000D02*
X54704000Y-34030000D01*
X52040000Y-34070000D02*
X54722000Y-34070000D01*
X52040000Y-34110000D02*
X54740000Y-34110000D01*
X52040000Y-34150000D02*
X54757000Y-34150000D01*
X52040000Y-34190000D02*
X54773000Y-34190000D01*
X52040000Y-34230000D02*
X54789000Y-34230000D01*
X52040000Y-34270000D02*
X54805000Y-34270000D01*
X52040000Y-34310000D02*
X54820000Y-34310000D01*
X52040000Y-34350000D02*
X54835000Y-34350000D01*
X52040000Y-34390000D02*
X54849000Y-34390000D01*
X52040000Y-34430000D02*
X54863000Y-34430000D01*
X52040000Y-34470000D02*
X54876000Y-34470000D01*
X52040000Y-34510000D02*
X54889000Y-34510000D01*
X52040000Y-34550000D02*
X54901000Y-34550000D01*
X52040000Y-34590000D02*
X54913000Y-34590000D01*
X52040000Y-34630000D02*
X54925000Y-34630000D01*
X52040000Y-34670000D02*
X54936000Y-34670000D01*
X52040000Y-34710000D02*
X54947000Y-34710000D01*
X52040000Y-34750000D02*
X54957000Y-34750000D01*
X52040000Y-34790000D02*
X54967000Y-34790000D01*
X52040000Y-34830000D02*
X54976000Y-34830000D01*
X52040000Y-34870000D02*
X54985000Y-34870000D01*
X52040000Y-34910000D02*
X54993000Y-34910000D01*
X52040000Y-34950000D02*
X55002000Y-34950000D01*
X52040000Y-34990000D02*
X55009000Y-34990000D01*
X52040000Y-35030000D02*
X55017000Y-35030000D01*
X55120000Y-35750000D02*
G75*
G02*
X46880000Y-35750000I-4120000J0D01*
G01*
X46880000Y-35750000D02*
G75*
G02*
X55120000Y-35750000I4120000J0D01*
G01*
%TO.C,TP9*%
X74950000Y-24250000D02*
G75*
G02*
X73550000Y-24250000I-700000J0D01*
G01*
X73550000Y-24250000D02*
G75*
G02*
X74950000Y-24250000I700000J0D01*
G01*
%TO.C,T101*%
X49030000Y-25549000D02*
X49030000Y-30820000D01*
X49030000Y-25549000D02*
X65170000Y-25549000D01*
X49030000Y-30820000D02*
X65170000Y-30820000D01*
X55296000Y-25549000D02*
X55296000Y-30820000D01*
X58905000Y-25549000D02*
X58905000Y-25600000D01*
X58905000Y-30400000D02*
X58905000Y-30820000D01*
X65170000Y-25549000D02*
X65170000Y-30820000D01*
%TO.C,R27*%
X85377500Y-10062742D02*
X85377500Y-10537258D01*
X86422500Y-10062742D02*
X86422500Y-10537258D01*
%TO.C,D11*%
X84765000Y-15987500D02*
X84765000Y-18272500D01*
X84765000Y-18272500D02*
X86235000Y-18272500D01*
X86235000Y-18272500D02*
X86235000Y-15987500D01*
D14*
%TO.C,IC5*%
X79825000Y-33050000D02*
X80675000Y-33050000D01*
X79825000Y-35950000D02*
X79825000Y-33050000D01*
X80675000Y-33050000D02*
X80675000Y-35950000D01*
X80675000Y-35950000D02*
X79825000Y-35950000D01*
X82075000Y-36075000D02*
X81025000Y-36075000D01*
D15*
%TO.C,R75*%
X48477500Y-12762742D02*
X48477500Y-13237258D01*
X49522500Y-12762742D02*
X49522500Y-13237258D01*
%TO.C,TP8*%
X66700000Y-28750000D02*
G75*
G02*
X65300000Y-28750000I-700000J0D01*
G01*
X65300000Y-28750000D02*
G75*
G02*
X66700000Y-28750000I700000J0D01*
G01*
%TO.C,R28*%
X76087258Y-8427500D02*
X75612742Y-8427500D01*
X76087258Y-9472500D02*
X75612742Y-9472500D01*
%TO.C,TP4*%
X94950000Y-34750000D02*
G75*
G02*
X93550000Y-34750000I-700000J0D01*
G01*
X93550000Y-34750000D02*
G75*
G02*
X94950000Y-34750000I700000J0D01*
G01*
%TO.C,T3*%
X50290000Y-7562500D02*
X50290000Y-6912500D01*
X50290000Y-7562500D02*
X50290000Y-8212500D01*
X53410000Y-7562500D02*
X53410000Y-6912500D01*
X53410000Y-7562500D02*
X53410000Y-8212500D01*
X50340000Y-8725000D02*
X50010000Y-8965000D01*
X50010000Y-8485000D01*
X50340000Y-8725000D01*
G36*
X50340000Y-8725000D02*
G01*
X50010000Y-8965000D01*
X50010000Y-8485000D01*
X50340000Y-8725000D01*
G37*
%TO.C,C44*%
X60490000Y-37640580D02*
X60490000Y-37359420D01*
X61510000Y-37640580D02*
X61510000Y-37359420D01*
%TO.C,D18*%
X71640000Y-10400000D02*
X71640000Y-12100000D01*
X71640000Y-10400000D02*
X74300000Y-10400000D01*
X71640000Y-12100000D02*
X74300000Y-12100000D01*
%TO.C,R80*%
X64987258Y-12227500D02*
X64512742Y-12227500D01*
X64987258Y-13272500D02*
X64512742Y-13272500D01*
%TO.C,D15*%
X88515000Y-29590000D02*
X88515000Y-31875000D01*
X89985000Y-29590000D02*
X88515000Y-29590000D01*
X89985000Y-31875000D02*
X89985000Y-29590000D01*
D14*
%TO.C,VR1*%
X70000000Y-27150000D02*
X70000000Y-30950000D01*
D16*
X70748000Y-31675000D02*
X70748000Y-31675000D01*
X70770000Y-31675000D02*
X70770000Y-31675000D01*
D14*
X73600000Y-30950000D02*
X73600000Y-27150000D01*
D16*
X70748000Y-31675000D02*
G75*
G02*
X70770000Y-31675000I11000J0D01*
G01*
X70770000Y-31675000D02*
G75*
G02*
X70748000Y-31675000I-11000J0D01*
G01*
D15*
%TO.C,C5*%
X96711252Y-19390000D02*
X95288748Y-19390000D01*
X96711252Y-22110000D02*
X95288748Y-22110000D01*
%TO.C,TP2*%
X94950000Y-39000000D02*
G75*
G02*
X93550000Y-39000000I-700000J0D01*
G01*
X93550000Y-39000000D02*
G75*
G02*
X94950000Y-39000000I700000J0D01*
G01*
%TO.C,R74*%
X58227500Y-15212742D02*
X58227500Y-15687258D01*
X59272500Y-15212742D02*
X59272500Y-15687258D01*
%TO.C,IC8*%
X61940000Y-37000000D02*
X61940000Y-36200000D01*
X61940000Y-37000000D02*
X61940000Y-37800000D01*
X65060000Y-37000000D02*
X65060000Y-36200000D01*
X65060000Y-37000000D02*
X65060000Y-37800000D01*
X65340000Y-35940000D02*
X65010000Y-35700000D01*
X65340000Y-35460000D01*
X65340000Y-35940000D01*
G36*
X65340000Y-35940000D02*
G01*
X65010000Y-35700000D01*
X65340000Y-35460000D01*
X65340000Y-35940000D01*
G37*
%TO.C,R40*%
X79687258Y-9477500D02*
X79212742Y-9477500D01*
X79687258Y-10522500D02*
X79212742Y-10522500D01*
%TO.C,C37*%
X78140000Y-29538748D02*
X78140000Y-30961252D01*
X80860000Y-29538748D02*
X80860000Y-30961252D01*
%TO.C,TP11*%
X71700000Y-11500000D02*
G75*
G02*
X70300000Y-11500000I-700000J0D01*
G01*
X70300000Y-11500000D02*
G75*
G02*
X71700000Y-11500000I700000J0D01*
G01*
%TO.C,L2*%
X85349622Y-7340000D02*
X84550378Y-7340000D01*
X85349622Y-8460000D02*
X84550378Y-8460000D01*
%TO.C,R73*%
X56262742Y-15677500D02*
X56737258Y-15677500D01*
X56262742Y-16722500D02*
X56737258Y-16722500D01*
%TO.C,C43*%
X18190000Y-35538748D02*
X18190000Y-36961252D01*
X20910000Y-35538748D02*
X20910000Y-36961252D01*
%TO.C,R72*%
X48487258Y-15227500D02*
X48012742Y-15227500D01*
X48487258Y-16272500D02*
X48012742Y-16272500D01*
D14*
%TO.C,T5*%
X56450000Y-17050000D02*
X57650000Y-17050000D01*
D15*
%TO.C,C17*%
X96711252Y-26390000D02*
X95288748Y-26390000D01*
X96711252Y-29110000D02*
X95288748Y-29110000D01*
D14*
%TO.C,D13*%
X70375000Y-6900000D02*
X71525000Y-6900000D01*
X71875000Y-7000000D02*
X72625000Y-7000000D01*
X71875000Y-10000000D02*
X71875000Y-7000000D01*
X72625000Y-7000000D02*
X72625000Y-10000000D01*
X72625000Y-10000000D02*
X71875000Y-10000000D01*
D15*
%TO.C,R36*%
X92727500Y-34487258D02*
X92727500Y-34012742D01*
X93772500Y-34487258D02*
X93772500Y-34012742D01*
%TO.C,R59*%
X69227500Y-24262742D02*
X69227500Y-24737258D01*
X70272500Y-24262742D02*
X70272500Y-24737258D01*
%TO.C,J2*%
X53690000Y310000D02*
X53690000Y-940000D01*
X53990000Y10000D02*
X53990000Y-6610000D01*
X53990000Y-3300000D02*
X55000000Y-3300000D01*
X53990000Y-6610000D02*
X76710000Y-6610000D01*
X54940000Y310000D02*
X53690000Y310000D01*
X55000000Y-1600000D02*
X75700000Y-1600000D01*
X55000000Y-3900000D02*
X55000000Y-1600000D01*
X56290000Y10000D02*
X53990000Y10000D01*
X56290000Y-990000D02*
X56290000Y10000D01*
X60550000Y10000D02*
X60550000Y-990000D01*
X60550000Y-990000D02*
X56290000Y-990000D01*
X62650000Y10000D02*
X60550000Y10000D01*
X62650000Y-990000D02*
X62650000Y10000D01*
X64550000Y-390000D02*
X64550000Y-990000D01*
X64550000Y-990000D02*
X62650000Y-990000D01*
X66150000Y-390000D02*
X64550000Y-390000D01*
X66150000Y-990000D02*
X66150000Y-390000D01*
X68050000Y10000D02*
X68050000Y-990000D01*
X68050000Y-990000D02*
X66150000Y-990000D01*
X70150000Y10000D02*
X68050000Y10000D01*
X70150000Y-990000D02*
X70150000Y10000D01*
X74410000Y10000D02*
X74410000Y-990000D01*
X74410000Y-990000D02*
X70150000Y-990000D01*
X75700000Y-1600000D02*
X75700000Y-5900000D01*
X75700000Y-5900000D02*
X55000000Y-5900000D01*
X76710000Y10000D02*
X74410000Y10000D01*
X76710000Y-3300000D02*
X75700000Y-3300000D01*
X76710000Y-6610000D02*
X76710000Y10000D01*
%TO.C,R52*%
X66477500Y-13362742D02*
X66477500Y-13837258D01*
X67522500Y-13362742D02*
X67522500Y-13837258D01*
%TO.C,C28*%
X88640000Y-9040580D02*
X88640000Y-8759420D01*
X89660000Y-9040580D02*
X89660000Y-8759420D01*
%TO.C,R42*%
X48677064Y-7765000D02*
X48222936Y-7765000D01*
X48677064Y-9235000D02*
X48222936Y-9235000D01*
%TO.C,C30*%
X84390000Y-34538748D02*
X84390000Y-35961252D01*
X87110000Y-34538748D02*
X87110000Y-35961252D01*
%TO.C,TP7*%
X73950000Y-38750000D02*
G75*
G02*
X72550000Y-38750000I-700000J0D01*
G01*
X72550000Y-38750000D02*
G75*
G02*
X73950000Y-38750000I700000J0D01*
G01*
%TO.C,R29*%
X65227500Y-10262742D02*
X65227500Y-10737258D01*
X66272500Y-10262742D02*
X66272500Y-10737258D01*
%TO.C,C31*%
X90455000Y-26138748D02*
X90455000Y-27561252D01*
X93175000Y-26138748D02*
X93175000Y-27561252D01*
%TO.C,D20*%
X56650000Y-10360000D02*
X56650000Y-7700000D01*
X56650000Y-10360000D02*
X58350000Y-10360000D01*
X58350000Y-10360000D02*
X58350000Y-7700000D01*
D14*
%TO.C,T2*%
X69850000Y-9250000D02*
X68650000Y-9250000D01*
D15*
%TO.C,R53*%
X67977500Y-13362742D02*
X67977500Y-13837258D01*
X69022500Y-13362742D02*
X69022500Y-13837258D01*
%TO.C,TP13*%
X52700000Y-10500000D02*
G75*
G02*
X51300000Y-10500000I-700000J0D01*
G01*
X51300000Y-10500000D02*
G75*
G02*
X52700000Y-10500000I700000J0D01*
G01*
%TO.C,R45*%
X80877500Y-6487258D02*
X80877500Y-6012742D01*
X81922500Y-6487258D02*
X81922500Y-6012742D01*
%TO.C,R56*%
X65977500Y-22487258D02*
X65977500Y-22012742D01*
X67022500Y-22487258D02*
X67022500Y-22012742D01*
%TO.C,R55*%
X64477500Y-22487258D02*
X64477500Y-22012742D01*
X65522500Y-22487258D02*
X65522500Y-22012742D01*
%TO.C,R38*%
X92727500Y-37012742D02*
X92727500Y-37487258D01*
X93772500Y-37012742D02*
X93772500Y-37487258D01*
%TO.C,R39*%
X53777500Y-8987258D02*
X53777500Y-8512742D01*
X54822500Y-8987258D02*
X54822500Y-8512742D01*
%TO.C,R81*%
X63562258Y-10727500D02*
X63087742Y-10727500D01*
X63562258Y-11772500D02*
X63087742Y-11772500D01*
%TO.C,R47*%
X85727500Y-30837742D02*
X85727500Y-31312258D01*
X86772500Y-30837742D02*
X86772500Y-31312258D01*
%TO.C,R43*%
X48677064Y-5865000D02*
X48222936Y-5865000D01*
X48677064Y-7335000D02*
X48222936Y-7335000D01*
%TO.C,R51*%
X87227500Y-31312258D02*
X87227500Y-30837742D01*
X88272500Y-31312258D02*
X88272500Y-30837742D01*
%TO.C,R35*%
X96989564Y-30090000D02*
X95535436Y-30090000D01*
X96989564Y-31910000D02*
X95535436Y-31910000D01*
%TO.C,TP1*%
X92200000Y-10250000D02*
G75*
G02*
X90800000Y-10250000I-700000J0D01*
G01*
X90800000Y-10250000D02*
G75*
G02*
X92200000Y-10250000I700000J0D01*
G01*
%TO.C,R46*%
X82727500Y-37987258D02*
X82727500Y-37512742D01*
X83772500Y-37987258D02*
X83772500Y-37512742D01*
%TO.C,TP14*%
X65700000Y-8000000D02*
G75*
G02*
X64300000Y-8000000I-700000J0D01*
G01*
X64300000Y-8000000D02*
G75*
G02*
X65700000Y-8000000I700000J0D01*
G01*
%TO.C,D21*%
X50860000Y-9650000D02*
X48200000Y-9650000D01*
X50860000Y-11350000D02*
X48200000Y-11350000D01*
X50860000Y-11350000D02*
X50860000Y-9650000D01*
%TO.C,R31*%
X83477500Y-17062258D02*
X83477500Y-16587742D01*
X84522500Y-17062258D02*
X84522500Y-16587742D01*
%TO.C,C101*%
X86420000Y-16283000D02*
X86420000Y-15217000D01*
X86460000Y-16518000D02*
X86460000Y-14982000D01*
X86500000Y-16697000D02*
X86500000Y-14803000D01*
X86540000Y-16847000D02*
X86540000Y-14653000D01*
X86580000Y-16978000D02*
X86580000Y-14522000D01*
X86620000Y-17096000D02*
X86620000Y-14404000D01*
X86660000Y-17203000D02*
X86660000Y-14297000D01*
X86700000Y-17302000D02*
X86700000Y-14198000D01*
X86740000Y-17394000D02*
X86740000Y-14106000D01*
X86780000Y-17481000D02*
X86780000Y-14019000D01*
X86820000Y-17563000D02*
X86820000Y-13937000D01*
X86860000Y-17640000D02*
X86860000Y-13860000D01*
X86900000Y-17714000D02*
X86900000Y-13786000D01*
X86940000Y-17784000D02*
X86940000Y-13716000D01*
X86980000Y-17851000D02*
X86980000Y-13649000D01*
X87020000Y-17915000D02*
X87020000Y-13585000D01*
X87060000Y-17977000D02*
X87060000Y-13523000D01*
X87100000Y-18037000D02*
X87100000Y-13463000D01*
X87140000Y-18094000D02*
X87140000Y-13406000D01*
X87180000Y-18150000D02*
X87180000Y-13350000D01*
X87220000Y-18203000D02*
X87220000Y-13297000D01*
X87260000Y-18255000D02*
X87260000Y-13245000D01*
X87300000Y-18305000D02*
X87300000Y-13195000D01*
X87340000Y-18354000D02*
X87340000Y-13146000D01*
X87380000Y-18401000D02*
X87380000Y-13099000D01*
X87420000Y-18446000D02*
X87420000Y-13054000D01*
X87460000Y-18491000D02*
X87460000Y-13009000D01*
X87500000Y-18534000D02*
X87500000Y-12966000D01*
X87540000Y-18576000D02*
X87540000Y-12924000D01*
X87580000Y-18617000D02*
X87580000Y-12883000D01*
X87620000Y-18656000D02*
X87620000Y-12844000D01*
X87660000Y-18695000D02*
X87660000Y-12805000D01*
X87700000Y-18732000D02*
X87700000Y-12768000D01*
X87740000Y-14710000D02*
X87740000Y-12731000D01*
X87740000Y-18769000D02*
X87740000Y-16790000D01*
X87780000Y-14710000D02*
X87780000Y-12695000D01*
X87780000Y-18805000D02*
X87780000Y-16790000D01*
X87820000Y-14710000D02*
X87820000Y-12661000D01*
X87820000Y-18839000D02*
X87820000Y-16790000D01*
X87860000Y-14710000D02*
X87860000Y-12627000D01*
X87860000Y-18873000D02*
X87860000Y-16790000D01*
X87900000Y-14710000D02*
X87900000Y-12594000D01*
X87900000Y-18906000D02*
X87900000Y-16790000D01*
X87940000Y-14710000D02*
X87940000Y-12562000D01*
X87940000Y-18938000D02*
X87940000Y-16790000D01*
X87980000Y-14710000D02*
X87980000Y-12531000D01*
X87980000Y-18969000D02*
X87980000Y-16790000D01*
X88020000Y-14710000D02*
X88020000Y-12500000D01*
X88020000Y-19000000D02*
X88020000Y-16790000D01*
X88060000Y-14710000D02*
X88060000Y-12470000D01*
X88060000Y-19030000D02*
X88060000Y-16790000D01*
X88100000Y-14710000D02*
X88100000Y-12441000D01*
X88100000Y-19059000D02*
X88100000Y-16790000D01*
X88140000Y-14710000D02*
X88140000Y-12413000D01*
X88140000Y-19087000D02*
X88140000Y-16790000D01*
X88180000Y-14710000D02*
X88180000Y-12385000D01*
X88180000Y-19115000D02*
X88180000Y-16790000D01*
X88220000Y-14710000D02*
X88220000Y-12358000D01*
X88220000Y-19142000D02*
X88220000Y-16790000D01*
X88260000Y-14710000D02*
X88260000Y-12332000D01*
X88260000Y-19168000D02*
X88260000Y-16790000D01*
X88300000Y-14710000D02*
X88300000Y-12307000D01*
X88300000Y-19193000D02*
X88300000Y-16790000D01*
X88340000Y-14710000D02*
X88340000Y-12282000D01*
X88340000Y-19218000D02*
X88340000Y-16790000D01*
X88380000Y-14710000D02*
X88380000Y-12257000D01*
X88380000Y-19243000D02*
X88380000Y-16790000D01*
X88420000Y-14710000D02*
X88420000Y-12234000D01*
X88420000Y-19266000D02*
X88420000Y-16790000D01*
X88460000Y-14710000D02*
X88460000Y-12211000D01*
X88460000Y-19289000D02*
X88460000Y-16790000D01*
X88500000Y-14710000D02*
X88500000Y-12188000D01*
X88500000Y-19312000D02*
X88500000Y-16790000D01*
X88540000Y-14710000D02*
X88540000Y-12166000D01*
X88540000Y-19334000D02*
X88540000Y-16790000D01*
X88580000Y-14710000D02*
X88580000Y-12145000D01*
X88580000Y-19355000D02*
X88580000Y-16790000D01*
X88620000Y-14710000D02*
X88620000Y-12124000D01*
X88620000Y-19376000D02*
X88620000Y-16790000D01*
X88660000Y-14710000D02*
X88660000Y-12104000D01*
X88660000Y-19396000D02*
X88660000Y-16790000D01*
X88700000Y-14710000D02*
X88700000Y-12084000D01*
X88700000Y-19416000D02*
X88700000Y-16790000D01*
X88740000Y-14710000D02*
X88740000Y-12065000D01*
X88740000Y-19435000D02*
X88740000Y-16790000D01*
X88780000Y-14710000D02*
X88780000Y-12046000D01*
X88780000Y-19454000D02*
X88780000Y-16790000D01*
X88820000Y-14710000D02*
X88820000Y-12028000D01*
X88820000Y-19472000D02*
X88820000Y-16790000D01*
X88860000Y-14710000D02*
X88860000Y-12010000D01*
X88860000Y-19490000D02*
X88860000Y-16790000D01*
X88900000Y-14710000D02*
X88900000Y-11993000D01*
X88900000Y-19507000D02*
X88900000Y-16790000D01*
X88940000Y-14710000D02*
X88940000Y-11977000D01*
X88940000Y-19523000D02*
X88940000Y-16790000D01*
X88980000Y-14710000D02*
X88980000Y-11961000D01*
X88980000Y-19539000D02*
X88980000Y-16790000D01*
X89020000Y-14710000D02*
X89020000Y-11945000D01*
X89020000Y-19555000D02*
X89020000Y-16790000D01*
X89060000Y-14710000D02*
X89060000Y-11930000D01*
X89060000Y-19570000D02*
X89060000Y-16790000D01*
X89100000Y-14710000D02*
X89100000Y-11915000D01*
X89100000Y-19585000D02*
X89100000Y-16790000D01*
X89140000Y-14710000D02*
X89140000Y-11901000D01*
X89140000Y-19599000D02*
X89140000Y-16790000D01*
X89180000Y-14710000D02*
X89180000Y-11887000D01*
X89180000Y-19613000D02*
X89180000Y-16790000D01*
X89220000Y-14710000D02*
X89220000Y-11874000D01*
X89220000Y-19626000D02*
X89220000Y-16790000D01*
X89260000Y-14710000D02*
X89260000Y-11861000D01*
X89260000Y-19639000D02*
X89260000Y-16790000D01*
X89300000Y-14710000D02*
X89300000Y-11849000D01*
X89300000Y-19651000D02*
X89300000Y-16790000D01*
X89340000Y-14710000D02*
X89340000Y-11837000D01*
X89340000Y-19663000D02*
X89340000Y-16790000D01*
X89380000Y-14710000D02*
X89380000Y-11825000D01*
X89380000Y-19675000D02*
X89380000Y-16790000D01*
X89420000Y-14710000D02*
X89420000Y-11814000D01*
X89420000Y-19686000D02*
X89420000Y-16790000D01*
X89460000Y-14710000D02*
X89460000Y-11803000D01*
X89460000Y-19697000D02*
X89460000Y-16790000D01*
X89500000Y-14710000D02*
X89500000Y-11793000D01*
X89500000Y-19707000D02*
X89500000Y-16790000D01*
X89540000Y-14710000D02*
X89540000Y-11783000D01*
X89540000Y-19717000D02*
X89540000Y-16790000D01*
X89580000Y-14710000D02*
X89580000Y-11774000D01*
X89580000Y-19726000D02*
X89580000Y-16790000D01*
X89620000Y-14710000D02*
X89620000Y-11765000D01*
X89620000Y-19735000D02*
X89620000Y-16790000D01*
X89660000Y-14710000D02*
X89660000Y-11757000D01*
X89660000Y-19743000D02*
X89660000Y-16790000D01*
X89700000Y-14710000D02*
X89700000Y-11748000D01*
X89700000Y-19752000D02*
X89700000Y-16790000D01*
X89740000Y-14710000D02*
X89740000Y-11741000D01*
X89740000Y-19759000D02*
X89740000Y-16790000D01*
X89780000Y-14710000D02*
X89780000Y-11733000D01*
X89780000Y-19767000D02*
X89780000Y-16790000D01*
X89820000Y-19773000D02*
X89820000Y-11727000D01*
X89860000Y-19780000D02*
X89860000Y-11720000D01*
X89900000Y-19786000D02*
X89900000Y-11714000D01*
X89940000Y-19792000D02*
X89940000Y-11708000D01*
X89980000Y-19797000D02*
X89980000Y-11703000D01*
X90020000Y-19802000D02*
X90020000Y-11698000D01*
X90060000Y-19806000D02*
X90060000Y-11694000D01*
X90100000Y-19811000D02*
X90100000Y-11689000D01*
X90140000Y-19814000D02*
X90140000Y-11686000D01*
X90180000Y-19818000D02*
X90180000Y-11682000D01*
X90220000Y-19820000D02*
X90220000Y-11680000D01*
X90260000Y-19823000D02*
X90260000Y-11677000D01*
X90300000Y-19825000D02*
X90300000Y-11675000D01*
X90340000Y-19827000D02*
X90340000Y-11673000D01*
X90380000Y-19828000D02*
X90380000Y-11672000D01*
X90420000Y-19829000D02*
X90420000Y-11671000D01*
X90460000Y-19830000D02*
X90460000Y-11670000D01*
X90500000Y-19830000D02*
X90500000Y-11670000D01*
X94509698Y-18465000D02*
X94509698Y-17665000D01*
X94909698Y-18065000D02*
X94109698Y-18065000D01*
X94620000Y-15750000D02*
G75*
G02*
X86380000Y-15750000I-4120000J0D01*
G01*
X86380000Y-15750000D02*
G75*
G02*
X94620000Y-15750000I4120000J0D01*
G01*
%TO.C,D17*%
X65400000Y-34860000D02*
X65400000Y-32200000D01*
X65400000Y-34860000D02*
X67100000Y-34860000D01*
X67100000Y-34860000D02*
X67100000Y-32200000D01*
%TO.C,R82*%
X63227500Y-8512742D02*
X63227500Y-8987258D01*
X64272500Y-8512742D02*
X64272500Y-8987258D01*
%TO.C,C29*%
X87140000Y-9040580D02*
X87140000Y-8759420D01*
X88160000Y-9040580D02*
X88160000Y-8759420D01*
%TO.C,R62*%
X57762742Y-19777500D02*
X58237258Y-19777500D01*
X57762742Y-20822500D02*
X58237258Y-20822500D01*
%TO.C,C56*%
X49640000Y-36436252D02*
X49640000Y-35013748D01*
X52360000Y-36436252D02*
X52360000Y-35013748D01*
D14*
%TO.C,D14*%
X82675000Y-9050000D02*
X83425000Y-9050000D01*
X82675000Y-12050000D02*
X82675000Y-9050000D01*
X83425000Y-9050000D02*
X83425000Y-12050000D01*
X83425000Y-12050000D02*
X82675000Y-12050000D01*
X84925000Y-12150000D02*
X83775000Y-12150000D01*
D15*
%TO.C,R44*%
X79377500Y-6487258D02*
X79377500Y-6012742D01*
X80422500Y-6487258D02*
X80422500Y-6012742D01*
%TO.C,D19*%
X49900000Y-11390000D02*
X49900000Y-14050000D01*
X51600000Y-11390000D02*
X49900000Y-11390000D01*
X51600000Y-11390000D02*
X51600000Y-14050000D01*
%TO.C,C16*%
X96711252Y-22890000D02*
X95288748Y-22890000D01*
X96711252Y-25610000D02*
X95288748Y-25610000D01*
%TO.C,R79*%
X61977500Y-13737258D02*
X61977500Y-13262742D01*
X63022500Y-13737258D02*
X63022500Y-13262742D01*
%TO.C,R54*%
X70737258Y-32977500D02*
X70262742Y-32977500D01*
X70737258Y-34022500D02*
X70262742Y-34022500D01*
%TO.C,R37*%
X89727500Y-37012742D02*
X89727500Y-37487258D01*
X90772500Y-37012742D02*
X90772500Y-37487258D01*
%TO.C,R76*%
X55277500Y-8987258D02*
X55277500Y-8512742D01*
X56322500Y-8987258D02*
X56322500Y-8512742D01*
%TO.C,R77*%
X59727500Y-15687258D02*
X59727500Y-15212742D01*
X60772500Y-15687258D02*
X60772500Y-15212742D01*
%TO.C,TP6*%
X75350000Y-27550000D02*
G75*
G02*
X73950000Y-27550000I-700000J0D01*
G01*
X73950000Y-27550000D02*
G75*
G02*
X75350000Y-27550000I700000J0D01*
G01*
%TO.C,C57*%
X62740000Y-22390580D02*
X62740000Y-22109420D01*
X63760000Y-22390580D02*
X63760000Y-22109420D01*
%TO.C,J3*%
X84893300Y-19615000D02*
X85528300Y-19615000D01*
X85528300Y-19615000D02*
X85528300Y-20250000D01*
%TO.C,R57*%
X76637258Y-10727500D02*
X76162742Y-10727500D01*
X76637258Y-11772500D02*
X76162742Y-11772500D01*
%TO.C,R61*%
X59727500Y-22487258D02*
X59727500Y-22012742D01*
X60772500Y-22487258D02*
X60772500Y-22012742D01*
%TO.C,R33*%
X83487258Y-23477500D02*
X83012742Y-23477500D01*
X83487258Y-24522500D02*
X83012742Y-24522500D01*
%TO.C,R58*%
X61227500Y-22012742D02*
X61227500Y-22487258D01*
X62272500Y-22012742D02*
X62272500Y-22487258D01*
%TO.C,R41*%
X79687258Y-7977500D02*
X79212742Y-7977500D01*
X79687258Y-9022500D02*
X79212742Y-9022500D01*
%TO.C,R78*%
X60227500Y-8987258D02*
X60227500Y-8512742D01*
X61272500Y-8987258D02*
X61272500Y-8512742D01*
%TO.C,R49*%
X79727500Y-37512742D02*
X79727500Y-37987258D01*
X80772500Y-37512742D02*
X80772500Y-37987258D01*
%TO.C,R50*%
X84227500Y-30837742D02*
X84227500Y-31312258D01*
X85272500Y-30837742D02*
X85272500Y-31312258D01*
%TO.C,TP3*%
X92200000Y-31000000D02*
G75*
G02*
X90800000Y-31000000I-700000J0D01*
G01*
X90800000Y-31000000D02*
G75*
G02*
X92200000Y-31000000I700000J0D01*
G01*
%TO.C,C47*%
X24690000Y-35538748D02*
X24690000Y-36961252D01*
X27410000Y-35538748D02*
X27410000Y-36961252D01*
%TO.C,F2*%
X83847936Y-4990000D02*
X85052064Y-4990000D01*
X83847936Y-6810000D02*
X85052064Y-6810000D01*
D14*
%TO.C,T4*%
X56900000Y-24350000D02*
X56900000Y-23150000D01*
D15*
%TO.C,R69*%
X51977500Y-13487258D02*
X51977500Y-13012742D01*
X53022500Y-13487258D02*
X53022500Y-13012742D01*
%TO.C,TP12*%
X98700000Y-27800000D02*
X101100000Y-27800000D01*
X98700000Y-30200000D02*
X98700000Y-27800000D01*
X101100000Y-27800000D02*
X101100000Y-30200000D01*
X101100000Y-30200000D02*
X98700000Y-30200000D01*
%TO.C,TP10*%
X61700000Y-33500000D02*
G75*
G02*
X60300000Y-33500000I-700000J0D01*
G01*
X60300000Y-33500000D02*
G75*
G02*
X61700000Y-33500000I700000J0D01*
G01*
%TO.C,C45*%
X21440000Y-35538748D02*
X21440000Y-36961252D01*
X24160000Y-35538748D02*
X24160000Y-36961252D01*
%TO.C,R30*%
X76087258Y-6927500D02*
X75612742Y-6927500D01*
X76087258Y-7972500D02*
X75612742Y-7972500D01*
D12*
%TO.C,M1*%
X45500000Y-24900000D02*
X45500000Y-28300000D01*
X45500000Y-24900000D02*
X46000000Y-24900000D01*
X45500000Y-28300000D02*
X45500000Y-29000000D01*
X45500000Y-32300000D02*
X45500000Y-31600000D01*
X45500000Y-32300000D02*
X45500000Y-39900000D01*
X45500000Y-39900000D02*
X46100000Y-39900000D01*
X45600000Y-24900000D02*
X45500000Y-24900000D01*
X46100000Y-24900000D02*
X46100000Y-25500000D01*
X46100000Y-25500000D02*
X46100000Y-24900000D01*
X46100000Y-25500000D02*
X47600000Y-25500000D01*
X46100000Y-25500000D02*
X67900000Y-25500000D01*
X46100000Y-28300000D02*
X45500000Y-28300000D01*
X46100000Y-28300000D02*
X46100000Y-25500000D01*
X46100000Y-28300000D02*
X46100000Y-29000000D01*
X46100000Y-32300000D02*
X45500000Y-32300000D01*
X46100000Y-32300000D02*
X46100000Y-31600000D01*
X46100000Y-32300000D02*
X46100000Y-39900000D01*
X48500000Y-25500000D02*
X48500000Y-24900000D01*
X65500000Y-24900000D02*
X65500000Y-25500000D01*
X67900000Y-24900000D02*
X66400000Y-24900000D01*
X67900000Y-25500000D02*
X67900000Y-24900000D01*
X67900000Y-25500000D02*
X67900000Y-29000000D01*
X67900000Y-28300000D02*
X68500000Y-28300000D01*
X67900000Y-31600000D02*
X67900000Y-39900000D01*
X67900000Y-39900000D02*
X68500000Y-39900000D01*
X68500000Y-24900000D02*
X45600000Y-24900000D01*
X68500000Y-29000000D02*
X68500000Y-24900000D01*
X68500000Y-32300000D02*
X67900000Y-32300000D01*
X68500000Y-39900000D02*
X68500000Y-31600000D01*
%TD*%
M02*
