%TF.GenerationSoftware,KiCad,Pcbnew,9.0.2*%
%TF.CreationDate,2026-03-04T09:51:00+01:00*%
%TF.ProjectId,OSLUV,4f534c55-562e-46b6-9963-61645f706362,01*%
%TF.SameCoordinates,PX2faf080PY5a995c0*%
%TF.FileFunction,Paste,Top*%
%TF.FilePolarity,Positive*%
%FSLAX46Y46*%
G04 Gerber Fmt 4.6, Leading zero omitted, Abs format (unit mm)*
G04 Created by KiCad (PCBNEW 9.0.2) date 2026-03-04 09:51:00*
%MOMM*%
%LPD*%
G01*
G04 APERTURE LIST*
G04 Aperture macros list*
%AMRoundRect*
0 Rectangle with rounded corners*
0 $1 Rounding radius*
0 $2 $3 $4 $5 $6 $7 $8 $9 X,Y pos of 4 corners*
0 Add a 4 corners polygon primitive as box body*
4,1,4,$2,$3,$4,$5,$6,$7,$8,$9,$2,$3,0*
0 Add four circle primitives for the rounded corners*
1,1,$1+$1,$2,$3*
1,1,$1+$1,$4,$5*
1,1,$1+$1,$6,$7*
1,1,$1+$1,$8,$9*
0 Add four rect primitives between the rounded corners*
20,1,$1+$1,$2,$3,$4,$5,0*
20,1,$1+$1,$4,$5,$6,$7,0*
20,1,$1+$1,$6,$7,$8,$9,0*
20,1,$1+$1,$8,$9,$2,$3,0*%
G04 Aperture macros list end*
%ADD10RoundRect,0.100000X-0.637500X-0.100000X0.637500X-0.100000X0.637500X0.100000X-0.637500X0.100000X0*%
%ADD11R,1.450000X0.450000*%
%ADD12RoundRect,0.250000X0.475000X-0.250000X0.475000X0.250000X-0.475000X0.250000X-0.475000X-0.250000X0*%
%ADD13RoundRect,0.225000X0.250000X-0.225000X0.250000X0.225000X-0.250000X0.225000X-0.250000X-0.225000X0*%
%ADD14RoundRect,0.200000X-0.275000X0.200000X-0.275000X-0.200000X0.275000X-0.200000X0.275000X0.200000X0*%
%ADD15RoundRect,0.200000X0.275000X-0.200000X0.275000X0.200000X-0.275000X0.200000X-0.275000X-0.200000X0*%
%ADD16RoundRect,0.218750X-0.256250X0.218750X-0.256250X-0.218750X0.256250X-0.218750X0.256250X0.218750X0*%
%ADD17RoundRect,0.200000X-0.200000X-0.275000X0.200000X-0.275000X0.200000X0.275000X-0.200000X0.275000X0*%
%ADD18RoundRect,0.250000X1.400000X1.000000X-1.400000X1.000000X-1.400000X-1.000000X1.400000X-1.000000X0*%
%ADD19R,1.200000X0.600000*%
%ADD20RoundRect,0.250000X-1.100000X0.325000X-1.100000X-0.325000X1.100000X-0.325000X1.100000X0.325000X0*%
%ADD21R,2.000000X3.600000*%
%ADD22RoundRect,0.250000X1.100000X-0.325000X1.100000X0.325000X-1.100000X0.325000X-1.100000X-0.325000X0*%
%ADD23R,1.050000X0.550000*%
%ADD24RoundRect,0.125000X-0.125000X-0.125000X0.125000X-0.125000X0.125000X0.125000X-0.125000X0.125000X0*%
%ADD25RoundRect,0.225000X-0.250000X0.225000X-0.250000X-0.225000X0.250000X-0.225000X0.250000X0.225000X0*%
%ADD26RoundRect,0.218750X0.256250X-0.218750X0.256250X0.218750X-0.256250X0.218750X-0.256250X-0.218750X0*%
%ADD27RoundRect,0.250000X0.650000X-0.325000X0.650000X0.325000X-0.650000X0.325000X-0.650000X-0.325000X0*%
%ADD28RoundRect,0.200000X0.200000X0.275000X-0.200000X0.275000X-0.200000X-0.275000X0.200000X-0.275000X0*%
%ADD29RoundRect,0.150000X0.150000X-0.587500X0.150000X0.587500X-0.150000X0.587500X-0.150000X-0.587500X0*%
%ADD30RoundRect,0.250000X0.262500X0.450000X-0.262500X0.450000X-0.262500X-0.450000X0.262500X-0.450000X0*%
%ADD31RoundRect,0.225000X0.225000X0.250000X-0.225000X0.250000X-0.225000X-0.250000X0.225000X-0.250000X0*%
%ADD32R,1.200000X1.200000*%
%ADD33R,1.600000X1.500000*%
%ADD34RoundRect,0.250000X0.325000X1.100000X-0.325000X1.100000X-0.325000X-1.100000X0.325000X-1.100000X0*%
%ADD35RoundRect,0.250000X-0.262500X-0.450000X0.262500X-0.450000X0.262500X0.450000X-0.262500X0.450000X0*%
%ADD36RoundRect,0.150000X-0.150000X0.512500X-0.150000X-0.512500X0.150000X-0.512500X0.150000X0.512500X0*%
%ADD37RoundRect,0.100000X0.100000X-0.225000X0.100000X0.225000X-0.100000X0.225000X-0.100000X-0.225000X0*%
%ADD38R,0.600000X1.550000*%
%ADD39R,1.200000X1.800000*%
%ADD40RoundRect,0.225000X-0.225000X-0.250000X0.225000X-0.250000X0.225000X0.250000X-0.225000X0.250000X0*%
%ADD41RoundRect,0.218750X0.218750X0.381250X-0.218750X0.381250X-0.218750X-0.381250X0.218750X-0.381250X0*%
%ADD42RoundRect,0.250000X-0.625000X0.375000X-0.625000X-0.375000X0.625000X-0.375000X0.625000X0.375000X0*%
%ADD43R,1.200000X0.400000*%
%ADD44R,1.150000X0.600000*%
%ADD45RoundRect,0.125000X0.125000X-0.125000X0.125000X0.125000X-0.125000X0.125000X-0.125000X-0.125000X0*%
%ADD46R,0.980000X3.700000*%
%ADD47RoundRect,0.250000X0.625000X-0.312500X0.625000X0.312500X-0.625000X0.312500X-0.625000X-0.312500X0*%
%ADD48R,1.475000X0.600000*%
%ADD49R,0.600000X1.475000*%
%ADD50RoundRect,0.250000X0.312500X0.625000X-0.312500X0.625000X-0.312500X-0.625000X0.312500X-0.625000X0*%
%ADD51RoundRect,0.125000X0.125000X0.125000X-0.125000X0.125000X-0.125000X-0.125000X0.125000X-0.125000X0*%
%ADD52RoundRect,0.125000X-0.125000X0.125000X-0.125000X-0.125000X0.125000X-0.125000X0.125000X0.125000X0*%
%ADD53RoundRect,0.250000X-0.625000X0.312500X-0.625000X-0.312500X0.625000X-0.312500X0.625000X0.312500X0*%
%ADD54R,1.450000X2.500000*%
%ADD55RoundRect,0.250000X-0.375000X-0.625000X0.375000X-0.625000X0.375000X0.625000X-0.375000X0.625000X0*%
%ADD56R,0.400000X1.200000*%
G04 APERTURE END LIST*
D10*
%TO.C,IC2*%
X61987500Y-15900000D03*
X61987500Y-16550000D03*
X61987500Y-17200000D03*
X61987500Y-17850000D03*
X61987500Y-18500000D03*
X61987500Y-19150000D03*
X61987500Y-19800000D03*
X67712500Y-19800000D03*
X67712500Y-19150000D03*
X67712500Y-18500000D03*
X67712500Y-17850000D03*
X67712500Y-17200000D03*
X67712500Y-16550000D03*
X67712500Y-15900000D03*
%TD*%
D11*
%TO.C,IC1*%
X60450000Y-13175000D03*
X60450000Y-12525000D03*
X60450000Y-11875000D03*
X60450000Y-11225000D03*
X56050000Y-11225000D03*
X56050000Y-11875000D03*
X56050000Y-12525000D03*
X56050000Y-13175000D03*
%TD*%
D12*
%TO.C,C1*%
X82250000Y-16125000D03*
X82250000Y-18025000D03*
%TD*%
D13*
%TO.C,C3*%
X80500000Y-16550000D03*
X80500000Y-18100000D03*
%TD*%
%TO.C,C4*%
X80500000Y-13525000D03*
X80500000Y-15075000D03*
%TD*%
D14*
%TO.C,R64*%
X82000000Y-14650000D03*
X82000000Y-13000000D03*
%TD*%
D15*
%TO.C,R32*%
X84000000Y-13000000D03*
X84000000Y-14650000D03*
%TD*%
D16*
%TO.C,D12*%
X85500000Y-14612500D03*
X85500000Y-13037500D03*
%TD*%
D17*
%TO.C,R34*%
X67675000Y-10250000D03*
X69325000Y-10250000D03*
%TD*%
D18*
%TO.C,D10*%
X98250000Y-16400000D03*
X98250000Y-9600000D03*
%TD*%
D19*
%TO.C,IC7*%
X80300000Y-27150000D03*
X80300000Y-26200000D03*
X80300000Y-25250000D03*
X77800000Y-25250000D03*
X77800000Y-27150000D03*
%TD*%
D13*
%TO.C,C40*%
X66000000Y-38025000D03*
X66000000Y-36475000D03*
%TD*%
D20*
%TO.C,C39*%
X76250000Y-28775000D03*
X76250000Y-31725000D03*
%TD*%
D21*
%TO.C,L1*%
X88550000Y-22250000D03*
X91950000Y-22250000D03*
%TD*%
D13*
%TO.C,C51*%
X54000000Y-14025000D03*
X54000000Y-12475000D03*
%TD*%
D22*
%TO.C,C36*%
X71000000Y-38475000D03*
X71000000Y-35525000D03*
%TD*%
D23*
%TO.C,IC6*%
X89300000Y-28607836D03*
X89300000Y-27657836D03*
X89300000Y-26707836D03*
X86700000Y-26707836D03*
X86700000Y-27657836D03*
X86700000Y-28607836D03*
%TD*%
D14*
%TO.C,R48*%
X81750000Y-36925000D03*
X81750000Y-38575000D03*
%TD*%
D24*
%TO.C,D16*%
X71050000Y-24250000D03*
X73250000Y-24250000D03*
%TD*%
D25*
%TO.C,C34*%
X78750000Y-36975000D03*
X78750000Y-38525000D03*
%TD*%
D14*
%TO.C,R27*%
X85900000Y-9475000D03*
X85900000Y-11125000D03*
%TD*%
D26*
%TO.C,D11*%
X85500000Y-17575000D03*
X85500000Y-16000000D03*
%TD*%
D23*
%TO.C,IC5*%
X81550000Y-35450000D03*
X81550000Y-34500000D03*
X81550000Y-33550000D03*
X78950000Y-33550000D03*
X78950000Y-34500000D03*
X78950000Y-35450000D03*
%TD*%
D14*
%TO.C,R75*%
X49000000Y-12175000D03*
X49000000Y-13825000D03*
%TD*%
D27*
%TO.C,C50*%
X53500000Y-18512500D03*
X53500000Y-15562500D03*
%TD*%
D25*
%TO.C,C32*%
X83250000Y-33725000D03*
X83250000Y-35275000D03*
%TD*%
D28*
%TO.C,R28*%
X76675000Y-8950000D03*
X75025000Y-8950000D03*
%TD*%
D29*
%TO.C,T3*%
X50900000Y-8500000D03*
X52800000Y-8500000D03*
X51850000Y-6625000D03*
%TD*%
D13*
%TO.C,C44*%
X61000000Y-38275000D03*
X61000000Y-36725000D03*
%TD*%
D30*
%TO.C,R60*%
X64412500Y-34000000D03*
X62587500Y-34000000D03*
%TD*%
D24*
%TO.C,D18*%
X72150000Y-11250000D03*
X74350000Y-11250000D03*
%TD*%
D31*
%TO.C,C33*%
X88275000Y-25157836D03*
X86725000Y-25157836D03*
%TD*%
D28*
%TO.C,R80*%
X65575000Y-12750000D03*
X63925000Y-12750000D03*
%TD*%
D16*
%TO.C,D15*%
X89250000Y-30287500D03*
X89250000Y-31862500D03*
%TD*%
D13*
%TO.C,C55*%
X62250000Y-9525000D03*
X62250000Y-7975000D03*
%TD*%
D32*
%TO.C,VR1*%
X70800000Y-30750000D03*
D33*
X71800000Y-27500000D03*
D32*
X72800000Y-30750000D03*
%TD*%
D34*
%TO.C,C5*%
X97475000Y-20750000D03*
X94525000Y-20750000D03*
%TD*%
D14*
%TO.C,R74*%
X58750000Y-14625000D03*
X58750000Y-16275000D03*
%TD*%
D35*
%TO.C,TH1*%
X66300000Y-27200000D03*
X68125000Y-27200000D03*
%TD*%
D36*
%TO.C,IC8*%
X64450000Y-35862500D03*
X63500000Y-35862500D03*
X62550000Y-35862500D03*
X62550000Y-38137500D03*
X63500000Y-38137500D03*
X64450000Y-38137500D03*
%TD*%
D13*
%TO.C,C53*%
X59250000Y-9525000D03*
X59250000Y-7975000D03*
%TD*%
D37*
%TO.C,IC4*%
X95600000Y-35450000D03*
X96250000Y-35450000D03*
X96900000Y-35450000D03*
X96900000Y-33550000D03*
X96250000Y-33550000D03*
X95600000Y-33550000D03*
%TD*%
D38*
%TO.C,J4*%
X50500000Y-3937000D03*
X49500000Y-3937000D03*
D39*
X51800000Y-1412000D03*
X48200000Y-1412000D03*
%TD*%
D28*
%TO.C,R40*%
X80275000Y-10000000D03*
X78625000Y-10000000D03*
%TD*%
D20*
%TO.C,C37*%
X79500000Y-28775000D03*
X79500000Y-31725000D03*
%TD*%
D40*
%TO.C,C54*%
X55725000Y-14700000D03*
X57275000Y-14700000D03*
%TD*%
D41*
%TO.C,L2*%
X86012500Y-7900000D03*
X83887500Y-7900000D03*
%TD*%
D17*
%TO.C,R73*%
X55675000Y-16200000D03*
X57325000Y-16200000D03*
%TD*%
D20*
%TO.C,C43*%
X19550000Y-34775000D03*
X19550000Y-37725000D03*
%TD*%
D42*
%TO.C,F1*%
X93500000Y-8100000D03*
X93500000Y-10900000D03*
%TD*%
D28*
%TO.C,R72*%
X49075000Y-15750000D03*
X47425000Y-15750000D03*
%TD*%
D43*
%TO.C,T5*%
X57050000Y-17600000D03*
X57050000Y-18250000D03*
X57050000Y-18900000D03*
X58950000Y-18900000D03*
X58950000Y-18250000D03*
X58950000Y-17600000D03*
%TD*%
D25*
%TO.C,C52*%
X47500000Y-12225000D03*
X47500000Y-13775000D03*
%TD*%
%TO.C,C41*%
X68000000Y-21475000D03*
X68000000Y-23025000D03*
%TD*%
D34*
%TO.C,C17*%
X97475000Y-27750000D03*
X94525000Y-27750000D03*
%TD*%
D13*
%TO.C,C35*%
X83250000Y-31850000D03*
X83250000Y-30300000D03*
%TD*%
D44*
%TO.C,D13*%
X70950000Y-7550000D03*
X70950000Y-8500000D03*
X70950000Y-9450000D03*
X73550000Y-9450000D03*
X73550000Y-8500000D03*
X73550000Y-7550000D03*
%TD*%
D15*
%TO.C,R36*%
X93250000Y-35075000D03*
X93250000Y-33425000D03*
%TD*%
D14*
%TO.C,R59*%
X69750000Y-23675000D03*
X69750000Y-25325000D03*
%TD*%
%TO.C,R52*%
X67000000Y-12775000D03*
X67000000Y-14425000D03*
%TD*%
D13*
%TO.C,C28*%
X89150000Y-9675000D03*
X89150000Y-8125000D03*
%TD*%
D30*
%TO.C,R42*%
X49362500Y-8500000D03*
X47537500Y-8500000D03*
%TD*%
D20*
%TO.C,C30*%
X85750000Y-33775000D03*
X85750000Y-36725000D03*
%TD*%
D21*
%TO.C,L5*%
X32500000Y-36250000D03*
X29100000Y-36250000D03*
%TD*%
D14*
%TO.C,R29*%
X65750000Y-9675000D03*
X65750000Y-11325000D03*
%TD*%
D20*
%TO.C,C31*%
X91815000Y-25375000D03*
X91815000Y-28325000D03*
%TD*%
D45*
%TO.C,D20*%
X57500000Y-9850000D03*
X57500000Y-7650000D03*
%TD*%
D43*
%TO.C,T2*%
X69250000Y-8700000D03*
X69250000Y-8050000D03*
X69250000Y-7400000D03*
X67350000Y-7400000D03*
X67350000Y-8050000D03*
X67350000Y-8700000D03*
%TD*%
D14*
%TO.C,R53*%
X68500000Y-12775000D03*
X68500000Y-14425000D03*
%TD*%
D31*
%TO.C,C25*%
X97275000Y-37500000D03*
X95725000Y-37500000D03*
%TD*%
D15*
%TO.C,R45*%
X81400000Y-7075000D03*
X81400000Y-5425000D03*
%TD*%
%TO.C,R56*%
X66500000Y-23075000D03*
X66500000Y-21425000D03*
%TD*%
%TO.C,R55*%
X65000000Y-23075000D03*
X65000000Y-21425000D03*
%TD*%
D46*
%TO.C,L3*%
X76685000Y-36250000D03*
X74315000Y-36250000D03*
%TD*%
D14*
%TO.C,R38*%
X93250000Y-36425000D03*
X93250000Y-38075000D03*
%TD*%
D15*
%TO.C,R39*%
X54300000Y-9575000D03*
X54300000Y-7925000D03*
%TD*%
D47*
%TO.C,R70*%
X45500000Y-20462500D03*
X45500000Y-17537500D03*
%TD*%
D28*
%TO.C,R81*%
X64150000Y-11250000D03*
X62500000Y-11250000D03*
%TD*%
D48*
%TO.C,IC3*%
X78738000Y-20562000D03*
X78738000Y-19762000D03*
X78738000Y-18962000D03*
X78738000Y-18162000D03*
X78738000Y-17362000D03*
X78738000Y-16562000D03*
X78738000Y-15762000D03*
X78738000Y-14962000D03*
D49*
X77300000Y-13524000D03*
X76500000Y-13524000D03*
X75700000Y-13524000D03*
X74900000Y-13524000D03*
X74100000Y-13524000D03*
X73300000Y-13524000D03*
X72500000Y-13524000D03*
X71700000Y-13524000D03*
D48*
X70262000Y-14962000D03*
X70262000Y-15762000D03*
X70262000Y-16562000D03*
X70262000Y-17362000D03*
X70262000Y-18162000D03*
X70262000Y-18962000D03*
X70262000Y-19762000D03*
X70262000Y-20562000D03*
D49*
X71700000Y-22000000D03*
X72500000Y-22000000D03*
X73300000Y-22000000D03*
X74100000Y-22000000D03*
X74900000Y-22000000D03*
X75700000Y-22000000D03*
X76500000Y-22000000D03*
X77300000Y-22000000D03*
%TD*%
D46*
%TO.C,L4*%
X84685000Y-27250000D03*
X82315000Y-27250000D03*
%TD*%
D14*
%TO.C,R47*%
X86250000Y-30250000D03*
X86250000Y-31900000D03*
%TD*%
D47*
%TO.C,R71*%
X48000000Y-20462500D03*
X48000000Y-17537500D03*
%TD*%
D30*
%TO.C,R43*%
X49362500Y-6600000D03*
X47537500Y-6600000D03*
%TD*%
D15*
%TO.C,R51*%
X87750000Y-31900000D03*
X87750000Y-30250000D03*
%TD*%
D50*
%TO.C,R35*%
X97725000Y-31000000D03*
X94800000Y-31000000D03*
%TD*%
D15*
%TO.C,R46*%
X83250000Y-38575000D03*
X83250000Y-36925000D03*
%TD*%
D51*
%TO.C,D21*%
X50350000Y-10500000D03*
X48150000Y-10500000D03*
%TD*%
D15*
%TO.C,R31*%
X84000000Y-17650000D03*
X84000000Y-16000000D03*
%TD*%
D47*
%TO.C,R66*%
X59000000Y-34862500D03*
X59000000Y-31937500D03*
%TD*%
D45*
%TO.C,D17*%
X66250000Y-34350000D03*
X66250000Y-32150000D03*
%TD*%
D30*
%TO.C,R63*%
X64412500Y-32000000D03*
X62587500Y-32000000D03*
%TD*%
D14*
%TO.C,R82*%
X63750000Y-7925000D03*
X63750000Y-9575000D03*
%TD*%
D13*
%TO.C,C29*%
X87650000Y-9675000D03*
X87650000Y-8125000D03*
%TD*%
D17*
%TO.C,R62*%
X57175000Y-20300000D03*
X58825000Y-20300000D03*
%TD*%
D22*
%TO.C,C56*%
X51000000Y-37200000D03*
X51000000Y-34250000D03*
%TD*%
D44*
%TO.C,D14*%
X84350000Y-11500000D03*
X84350000Y-10550000D03*
X84350000Y-9600000D03*
X81750000Y-9600000D03*
X81750000Y-10550000D03*
X81750000Y-11500000D03*
%TD*%
D15*
%TO.C,R44*%
X79900000Y-7075000D03*
X79900000Y-5425000D03*
%TD*%
D52*
%TO.C,D19*%
X50750000Y-11900000D03*
X50750000Y-14100000D03*
%TD*%
D34*
%TO.C,C16*%
X97475000Y-24250000D03*
X94525000Y-24250000D03*
%TD*%
D15*
%TO.C,R79*%
X62500000Y-14325000D03*
X62500000Y-12675000D03*
%TD*%
D28*
%TO.C,R54*%
X71325000Y-33500000D03*
X69675000Y-33500000D03*
%TD*%
D14*
%TO.C,R37*%
X90250000Y-36425000D03*
X90250000Y-38075000D03*
%TD*%
D53*
%TO.C,R67*%
X51250000Y-20175000D03*
X51250000Y-23100000D03*
%TD*%
D15*
%TO.C,R76*%
X55800000Y-9575000D03*
X55800000Y-7925000D03*
%TD*%
D54*
%TO.C,C6*%
X105625000Y-24500000D03*
X99875000Y-24500000D03*
%TD*%
D15*
%TO.C,R77*%
X60250000Y-16275000D03*
X60250000Y-14625000D03*
%TD*%
D47*
%TO.C,R65*%
X56500000Y-34862500D03*
X56500000Y-31937500D03*
%TD*%
D13*
%TO.C,C57*%
X63250000Y-23025000D03*
X63250000Y-21475000D03*
%TD*%
D40*
%TO.C,C48*%
X75475000Y-23750000D03*
X77025000Y-23750000D03*
%TD*%
D28*
%TO.C,R57*%
X77225000Y-11250000D03*
X75575000Y-11250000D03*
%TD*%
D15*
%TO.C,R61*%
X60250000Y-23075000D03*
X60250000Y-21425000D03*
%TD*%
D28*
%TO.C,R33*%
X84075000Y-24000000D03*
X82425000Y-24000000D03*
%TD*%
D14*
%TO.C,R58*%
X61750000Y-21425000D03*
X61750000Y-23075000D03*
%TD*%
D28*
%TO.C,R41*%
X80275000Y-8500000D03*
X78625000Y-8500000D03*
%TD*%
D15*
%TO.C,R78*%
X60750000Y-9575000D03*
X60750000Y-7925000D03*
%TD*%
D14*
%TO.C,R49*%
X80250000Y-36925000D03*
X80250000Y-38575000D03*
%TD*%
D25*
%TO.C,C38*%
X76200000Y-25225000D03*
X76200000Y-26775000D03*
%TD*%
D14*
%TO.C,R50*%
X84750000Y-30250000D03*
X84750000Y-31900000D03*
%TD*%
D20*
%TO.C,C47*%
X26050000Y-34775000D03*
X26050000Y-37725000D03*
%TD*%
D55*
%TO.C,F2*%
X83050000Y-5900000D03*
X85850000Y-5900000D03*
%TD*%
D27*
%TO.C,C49*%
X53500000Y-23112500D03*
X53500000Y-20162500D03*
%TD*%
D56*
%TO.C,T4*%
X57450000Y-23750000D03*
X58100000Y-23750000D03*
X58750000Y-23750000D03*
X58750000Y-21850000D03*
X58100000Y-21850000D03*
X57450000Y-21850000D03*
%TD*%
D25*
%TO.C,C27*%
X91750000Y-33475000D03*
X91750000Y-35025000D03*
%TD*%
D15*
%TO.C,R69*%
X52500000Y-14075000D03*
X52500000Y-12425000D03*
%TD*%
D40*
%TO.C,C46*%
X63975000Y-14250000D03*
X65525000Y-14250000D03*
%TD*%
D53*
%TO.C,R68*%
X51250000Y-15575000D03*
X51250000Y-18500000D03*
%TD*%
D13*
%TO.C,C26*%
X91750000Y-38025000D03*
X91750000Y-36475000D03*
%TD*%
D54*
%TO.C,C24*%
X105625000Y-20750000D03*
X99875000Y-20750000D03*
%TD*%
D20*
%TO.C,C45*%
X22800000Y-34775000D03*
X22800000Y-37725000D03*
%TD*%
D28*
%TO.C,R30*%
X76675000Y-7450000D03*
X75025000Y-7450000D03*
%TD*%
M02*
