M48
; DRILL file {KiCad 9.0.2} date 2026-04-02T07:38:21+0200
; FORMAT={-:-/ absolute / metric / decimal}
; #@! TF.CreationDate,2026-04-02T07:38:21+02:00
; #@! TF.GenerationSoftware,Kicad,Pcbnew,9.0.2
; #@! TF.FileFunction,Plated,1,4,PTH
FMAT,2
METRIC
; #@! TA.AperFunction,Plated,PTH,ViaDrill
T1C0.200
; #@! TA.AperFunction,Plated,PTH,ComponentDrill
T2C0.200
; #@! TA.AperFunction,Plated,PTH,ViaDrill
T3C0.300
; #@! TA.AperFunction,Plated,PTH,ComponentDrill
T4C0.700
; #@! TA.AperFunction,Plated,PTH,ComponentDrill
T5C0.800
; #@! TA.AperFunction,Plated,PTH,ComponentDrill
T6C0.900
; #@! TA.AperFunction,Plated,PTH,ComponentDrill
T7C0.950
; #@! TA.AperFunction,Plated,PTH,ComponentDrill
T8C1.000
; #@! TA.AperFunction,Plated,PTH,ComponentDrill
T9C1.500
; #@! TA.AperFunction,Plated,PTH,ComponentDrill
T10C1.600
; #@! TA.AperFunction,Plated,PTH,ComponentDrill
T11C1.750
%
G90
G05
T1
X18.8Y-36.5
X19.8Y-36.5
X20.8Y-36.5
X21.8Y-36.5
X22.8Y-36.5
X23.8Y-36.5
X24.8Y-36.5
X25.8Y-36.5
X27.75Y-34.5
X27.75Y-35.25
X27.75Y-36.0
X34.25Y-37.5
X34.3Y-35.5
X34.3Y-36.5
X35.25Y-35.5
X35.3Y-36.5
X35.3Y-37.5
X41.0Y-22.062
X41.75Y-22.062
X42.5Y-22.062
X48.25Y-14.5
X48.5Y-3.5
X50.5Y-9.75
X52.0Y-8.7
X52.25Y-11.5
X53.25Y-9.75
X55.5Y-6.25
X56.425Y-16.975
X57.5Y-13.25
X58.25Y-24.75
X58.75Y-13.85
X60.0Y-8.5
X60.7Y-15.4
X61.0Y-10.5
X61.25Y-24.25
X61.5Y-8.5
X61.5Y-14.25
X62.95Y-15.9
X62.962Y-8.713
X63.2Y-17.05
X63.75Y-23.973
X63.948Y-36.87
X64.153Y-15.5
X64.25Y-22.25
X64.75Y-6.0
X64.75Y-10.5
X65.5Y-18.75
X65.5Y-35.0
X66.5Y-19.0
X66.55Y-15.912
X66.556Y-17.144
X66.75Y-25.25
X67.0Y-6.0
X67.0Y-12.0
X67.5Y-23.75
X67.75Y-14.425
X68.3Y-9.2
X68.35Y-25.75
X68.5Y-35.5
X68.7Y-17.75
X69.25Y-35.525
X69.262Y-12.075
X69.5Y-6.0
X69.5Y-10.973
X70.15Y-22.05
X70.25Y-28.75
X70.5Y-14.0
X70.771Y-6.775
X70.778Y-21.736
X71.388Y-19.779
X71.5Y-20.473
X71.5Y-25.0
X71.5Y-25.75
X71.75Y-17.25
X71.75Y-19.0
X72.5Y-14.5
X72.5Y-15.25
X72.5Y-17.5
X73.25Y-11.777
X73.5Y-15.25
X74.0Y-19.25
X74.25Y-18.0
X74.5Y-15.25
X74.65Y-27.55
X74.686Y-25.372
X75.0Y-26.0
X75.45Y-20.6
X75.5Y-12.25
X75.75Y-30.5
X76.123Y-15.873
X76.206Y-20.835
X76.25Y-27.75
X76.5Y-2.0
X76.65Y-19.35
X77.0Y-30.5
X77.225Y-27.725
X77.25Y-17.5
X77.25Y-18.25
X77.265Y-16.265
X77.75Y-9.25
X77.75Y-33.55
X77.777Y-11.977
X78.0Y-24.25
X78.5Y-5.75
X78.75Y-30.5
X79.0Y-6.775
X79.0Y-26.25
X79.25Y-21.25
X79.527Y-10.75
X80.0Y-19.0
X80.0Y-30.5
X80.0Y-33.5
X80.25Y-12.75
X81.25Y-12.25
X82.5Y-7.75
X82.641Y-10.25
X82.75Y-12.0
X83.25Y-13.75
X84.0Y-31.0
X84.5Y-4.25
X84.75Y-35.275
X84.893Y-19.429
X85.5Y-24.9
X85.5Y-35.5
X85.5Y-29.5
X86.0Y-18.5
X86.2Y-23.6
X86.25Y-12.25
X86.5Y-32.75
X87.5Y-7.0
X87.75Y-1.277
X87.8Y-4.4
X88.0Y-27.75
X88.5Y-10.323
X89.5Y-29.5
X90.7Y-27.2
X90.75Y-30.5
X90.75Y-31.5
X90.75Y-33.75
X92.25Y-30.5
X92.25Y-31.5
X92.5Y-27.25
X93.25Y-30.5
X93.25Y-31.5
X93.5Y-27.25
X94.25Y-33.0
X94.25Y-36.25
X94.25Y-37.25
X94.5Y-22.5
X94.5Y-26.0
X94.75Y-37.75
X95.0Y-10.5
X96.0Y-38.5
X98.0Y-36.0
X98.027Y-34.0
X99.5Y-26.5
X100.5Y-26.5
T2
X103.0Y-4.0
X103.0Y-36.0
X104.0Y-2.0
X104.0Y-6.0
X104.0Y-34.0
X104.0Y-38.0
X106.0Y-1.0
X106.0Y-7.0
X106.0Y-33.0
X106.0Y-39.0
X108.0Y-2.0
X108.0Y-6.0
X108.0Y-34.0
X108.0Y-38.0
X109.0Y-4.0
X109.0Y-36.0
T3
X52.263Y-23.404
X53.25Y-11.85
X54.5Y-10.5
X56.0Y-36.0
X57.0Y-22.9
X57.75Y-36.0
X59.25Y-36.0
X59.804Y-20.096
X59.94Y-18.0
X60.8Y-20.3
X63.5Y-19.3
X65.524Y-23.836
X66.35Y-28.25
X68.5Y-22.0
X69.3Y-22.7
X71.8Y-32.1
X72.25Y-9.0
X72.25Y-33.5
X72.25Y-6.8
X74.6Y-10.3
X81.5Y-23.581
T4
X79.0Y-1.7
X81.0Y-1.7
X82.353Y-20.25
X82.353Y-21.52
X83.0Y-1.7
X83.623Y-20.25
X83.623Y-21.52
X84.893Y-20.25
X84.893Y-21.52
X85.0Y-1.7
T5
X51.0Y-33.825
X51.0Y-37.325
X88.75Y-15.75
X92.25Y-15.75
T6
X90.25Y-3.3
X92.75Y-3.3
X95.25Y-3.3
X97.75Y-3.3
T7
X56.6Y-3.3
X59.1Y-3.3
X61.6Y-3.3
X64.1Y-3.3
X66.6Y-3.3
X69.1Y-3.3
X71.6Y-3.3
X74.1Y-3.3
T8
X99.9Y-29.0
T9
X45.8Y-30.3
X52.02Y-28.0
X57.1Y-28.0
X59.64Y-28.0
X62.18Y-28.0
X68.2Y-30.3
T10
X3.995Y-6.975
X3.995Y-22.815
T11
X14.8Y-9.58
X14.8Y-24.617
X14.8Y-29.9
X40.2Y-9.58
X40.2Y-29.9
M30
