%TF.GenerationSoftware,KiCad,Pcbnew,9.0.2*%
%TF.CreationDate,2026-03-04T09:51:00+01:00*%
%TF.ProjectId,OSLUV,4f534c55-562e-46b6-9963-61645f706362,01*%
%TF.SameCoordinates,PX2faf080PY5a995c0*%
%TF.FileFunction,Soldermask,Bot*%
%TF.FilePolarity,Negative*%
%FSLAX46Y46*%
G04 Gerber Fmt 4.6, Leading zero omitted, Abs format (unit mm)*
G04 Created by KiCad (PCBNEW 9.0.2) date 2026-03-04 09:51:00*
%MOMM*%
%LPD*%
G01*
G04 APERTURE LIST*
G04 Aperture macros list*
%AMRoundRect*
0 Rectangle with rounded corners*
0 $1 Rounding radius*
0 $2 $3 $4 $5 $6 $7 $8 $9 X,Y pos of 4 corners*
0 Add a 4 corners polygon primitive as box body*
4,1,4,$2,$3,$4,$5,$6,$7,$8,$9,$2,$3,0*
0 Add four circle primitives for the rounded corners*
1,1,$1+$1,$2,$3*
1,1,$1+$1,$4,$5*
1,1,$1+$1,$6,$7*
1,1,$1+$1,$8,$9*
0 Add four rect primitives between the rounded corners*
20,1,$1+$1,$2,$3,$4,$5,0*
20,1,$1+$1,$4,$5,$6,$7,0*
20,1,$1+$1,$6,$7,$8,$9,0*
20,1,$1+$1,$8,$9,$2,$3,0*%
G04 Aperture macros list end*
%ADD10R,1.600000X1.600000*%
%ADD11C,1.600000*%
%ADD12R,1.400000X1.100000*%
%ADD13C,1.400000*%
%ADD14O,1.905000X4.500000*%
%ADD15C,0.600000*%
%ADD16C,6.600000*%
%ADD17C,2.600000*%
%ADD18C,2.500000*%
%ADD19C,1.250000*%
%ADD20RoundRect,0.250000X-0.600000X-0.725000X0.600000X-0.725000X0.600000X0.725000X-0.600000X0.725000X0*%
%ADD21O,1.700000X1.950000*%
%ADD22C,0.990600*%
%ADD23C,0.787400*%
%ADD24C,2.625000*%
%ADD25R,2.000000X2.000000*%
G04 APERTURE END LIST*
D10*
%TO.C,J1*%
X90250000Y-3300000D03*
D11*
X92750000Y-3300000D03*
X95250000Y-3300000D03*
X97750000Y-3300000D03*
%TD*%
D12*
%TO.C,J5*%
X79000000Y-1700000D03*
D13*
X81000000Y-1700000D03*
X83000000Y-1700000D03*
X85000000Y-1700000D03*
%TD*%
D10*
%TO.C,C42*%
X51000000Y-37500000D03*
D11*
X51000000Y-34000000D03*
%TD*%
D14*
%TO.C,T101*%
X52020000Y-28000000D03*
X57100000Y-28000000D03*
X59640000Y-28000000D03*
X62180000Y-28000000D03*
%TD*%
D15*
%TO.C,H3*%
X103000000Y-4000000D03*
X104000000Y-2000000D03*
X104000000Y-6000000D03*
X106000000Y-1000000D03*
D16*
X106000000Y-4000000D03*
D15*
X106000000Y-7000000D03*
X108000000Y-2000000D03*
X108000000Y-6000000D03*
X109000000Y-4000000D03*
%TD*%
D17*
%TO.C,J6*%
X3995500Y-22815100D03*
D18*
X3995500Y-6975101D03*
%TD*%
D19*
%TO.C,J2*%
X55000000Y-4900000D03*
D20*
X56600000Y-3300000D03*
D21*
X59100000Y-3300000D03*
X61600000Y-3300000D03*
X64100000Y-3300000D03*
X66600000Y-3300000D03*
X69100000Y-3300000D03*
X71600000Y-3300000D03*
X74100000Y-3300000D03*
%TD*%
D15*
%TO.C,H4*%
X103000000Y-36000000D03*
X104000000Y-34000000D03*
X104000000Y-38000000D03*
X106000000Y-33000000D03*
D16*
X106000000Y-36000000D03*
D15*
X106000000Y-39000000D03*
X108000000Y-34000000D03*
X108000000Y-38000000D03*
X109000000Y-36000000D03*
%TD*%
D10*
%TO.C,C101*%
X92250000Y-15750000D03*
D11*
X88750000Y-15750000D03*
%TD*%
D22*
%TO.C,J3*%
X86163300Y-20885000D03*
X81083300Y-21901000D03*
X81083300Y-19869000D03*
D23*
X84893300Y-21520000D03*
X84893300Y-20250000D03*
X83623300Y-21520000D03*
X83623300Y-20250000D03*
X82353300Y-21520000D03*
X82353300Y-20250000D03*
%TD*%
D24*
%TO.C,L101*%
X14800000Y-9580000D03*
X14800000Y-24616800D03*
X14800000Y-29900000D03*
X40200000Y-29900000D03*
X40200000Y-9580000D03*
%TD*%
D25*
%TO.C,TP12*%
X99900000Y-29000000D03*
%TD*%
D18*
%TO.C,M1*%
X68200000Y-30300000D03*
X45800000Y-30300000D03*
%TD*%
M02*
