%TF.GenerationSoftware,KiCad,Pcbnew,9.0.2*%
%TF.CreationDate,2026-04-02T07:38:14+02:00*%
%TF.ProjectId,OSLUV,4f534c55-562e-46b6-9963-61645f706362,01*%
%TF.SameCoordinates,PX2faf080PY5a995c0*%
%TF.FileFunction,Copper,L3,Inr*%
%TF.FilePolarity,Positive*%
%FSLAX46Y46*%
G04 Gerber Fmt 4.6, Leading zero omitted, Abs format (unit mm)*
G04 Created by KiCad (PCBNEW 9.0.2) date 2026-04-02 07:38:14*
%MOMM*%
%LPD*%
G01*
G04 APERTURE LIST*
G04 Aperture macros list*
%AMRoundRect*
0 Rectangle with rounded corners*
0 $1 Rounding radius*
0 $2 $3 $4 $5 $6 $7 $8 $9 X,Y pos of 4 corners*
0 Add a 4 corners polygon primitive as box body*
4,1,4,$2,$3,$4,$5,$6,$7,$8,$9,$2,$3,0*
0 Add four circle primitives for the rounded corners*
1,1,$1+$1,$2,$3*
1,1,$1+$1,$4,$5*
1,1,$1+$1,$6,$7*
1,1,$1+$1,$8,$9*
0 Add four rect primitives between the rounded corners*
20,1,$1+$1,$2,$3,$4,$5,0*
20,1,$1+$1,$4,$5,$6,$7,0*
20,1,$1+$1,$6,$7,$8,$9,0*
20,1,$1+$1,$8,$9,$2,$3,0*%
G04 Aperture macros list end*
%TA.AperFunction,ComponentPad*%
%ADD10O,1.905000X4.500000*%
%TD*%
%TA.AperFunction,ComponentPad*%
%ADD11C,2.500000*%
%TD*%
%TA.AperFunction,ComponentPad*%
%ADD12C,0.600000*%
%TD*%
%TA.AperFunction,ComponentPad*%
%ADD13C,2.600000*%
%TD*%
%TA.AperFunction,ComponentPad*%
%ADD14R,1.600000X1.600000*%
%TD*%
%TA.AperFunction,ComponentPad*%
%ADD15C,1.600000*%
%TD*%
%TA.AperFunction,ComponentPad*%
%ADD16RoundRect,0.250000X-0.600000X-0.725000X0.600000X-0.725000X0.600000X0.725000X-0.600000X0.725000X0*%
%TD*%
%TA.AperFunction,ComponentPad*%
%ADD17O,1.700000X1.950000*%
%TD*%
%TA.AperFunction,ComponentPad*%
%ADD18R,1.400000X1.100000*%
%TD*%
%TA.AperFunction,ComponentPad*%
%ADD19C,1.400000*%
%TD*%
%TA.AperFunction,ComponentPad*%
%ADD20C,1.000000*%
%TD*%
%TA.AperFunction,ComponentPad*%
%ADD21C,2.625000*%
%TD*%
%TA.AperFunction,ComponentPad*%
%ADD22R,2.000000X2.000000*%
%TD*%
%TA.AperFunction,ViaPad*%
%ADD23C,0.550000*%
%TD*%
%TA.AperFunction,ViaPad*%
%ADD24C,0.600000*%
%TD*%
%TA.AperFunction,Conductor*%
%ADD25C,1.000000*%
%TD*%
%TA.AperFunction,Conductor*%
%ADD26C,0.200000*%
%TD*%
%TA.AperFunction,Conductor*%
%ADD27C,0.152400*%
%TD*%
%TA.AperFunction,Conductor*%
%ADD28C,2.000000*%
%TD*%
G04 APERTURE END LIST*
D10*
%TO.N,/excimerDriver/lampDriver/HV_Drain*%
%TO.C,T101*%
X52020000Y-28000000D03*
%TO.N,/excimerDriver/lampDriver/Source*%
X57100000Y-28000000D03*
X59640000Y-28000000D03*
%TO.N,Net-(T101-G)*%
X62180000Y-28000000D03*
%TD*%
D11*
%TO.N,GND*%
%TO.C,M1*%
X68200000Y-30300000D03*
X45800000Y-30300000D03*
%TD*%
D12*
%TO.N,/excimerDriver/EARTH*%
%TO.C,H3*%
X103000000Y-4000000D03*
X104000000Y-2000000D03*
X104000000Y-6000000D03*
X106000000Y-1000000D03*
X106000000Y-7000000D03*
X108000000Y-2000000D03*
X108000000Y-6000000D03*
X109000000Y-4000000D03*
%TD*%
D13*
%TO.N,/excimerDriver/lampDriver/Lamp_GND*%
%TO.C,J6*%
X3995500Y-22815100D03*
D11*
%TO.N,/excimerDriver/lampDriver/HV_Lamp*%
X3995500Y-6975101D03*
%TD*%
D14*
%TO.N,/excimerDriver/VDC_power*%
%TO.C,C42*%
X51000000Y-37325000D03*
D15*
%TO.N,GND*%
X51000000Y-33825000D03*
%TD*%
D16*
%TO.N,/excimerDriver/VDC*%
%TO.C,J2*%
X56600000Y-3300000D03*
D17*
%TO.N,GND*%
X59100000Y-3300000D03*
X61600000Y-3300000D03*
%TO.N,/excimerDriver/!REMOTE*%
X64100000Y-3300000D03*
%TO.N,/excimerDriver/Lamp_on_status*%
X66600000Y-3300000D03*
%TO.N,Net-(J2-Pad6)*%
X69100000Y-3300000D03*
%TO.N,Net-(J2-Pad7)*%
X71600000Y-3300000D03*
%TO.N,Net-(J2-Pad8)*%
X74100000Y-3300000D03*
%TD*%
D12*
%TO.N,/excimerDriver/EARTH*%
%TO.C,H4*%
X103000000Y-36000000D03*
X104000000Y-34000000D03*
X104000000Y-38000000D03*
X106000000Y-33000000D03*
X106000000Y-39000000D03*
X108000000Y-34000000D03*
X108000000Y-38000000D03*
X109000000Y-36000000D03*
%TD*%
D14*
%TO.N,/excimerDriver/24V_FUSE*%
%TO.C,C101*%
X92250000Y-15750000D03*
D15*
%TO.N,GND*%
X88750000Y-15750000D03*
%TD*%
D18*
%TO.N,Net-(J5-Pad1)*%
%TO.C,J5*%
X79000000Y-1700000D03*
D19*
%TO.N,Net-(J5-Pad2)*%
X81000000Y-1700000D03*
%TO.N,Net-(F2-Pad2)*%
X83000000Y-1700000D03*
%TO.N,GND*%
X85000000Y-1700000D03*
%TD*%
D20*
%TO.N,+3V3*%
%TO.C,J3*%
X84893300Y-20250000D03*
%TO.N,/excimerDriver/SWDIO*%
X84893300Y-21520000D03*
%TO.N,/excimerDriver/RESET*%
X83623300Y-20250000D03*
%TO.N,/excimerDriver/SWCLK*%
X83623300Y-21520000D03*
%TO.N,GND*%
X82353300Y-20250000D03*
%TO.N,unconnected-(J3-Pad6)*%
X82353300Y-21520000D03*
%TD*%
D21*
%TO.N,/excimerDriver/lampDriver/HV_Lamp*%
%TO.C,L101*%
X14800000Y-9580000D03*
%TO.N,GND*%
X14800000Y-24616800D03*
%TO.N,/excimerDriver/lampDriver/VDC_Trafo*%
X14800000Y-29900000D03*
%TO.N,/excimerDriver/lampDriver/HV_Drain*%
X40200000Y-29900000D03*
%TO.N,/excimerDriver/lampDriver/HV_Lamp{slash}2*%
X40200000Y-9580000D03*
%TD*%
D14*
%TO.N,/excimerDriver/VDC*%
%TO.C,J1*%
X90250000Y-3300000D03*
D15*
%TO.N,/excimerDriver/!REMOTE*%
X92750000Y-3300000D03*
%TO.N,/excimerDriver/Lamp_on_status*%
X95250000Y-3300000D03*
%TO.N,GND*%
X97750000Y-3300000D03*
%TD*%
D22*
%TO.N,GND*%
%TO.C,TP12*%
X99900000Y-29000000D03*
%TD*%
D23*
%TO.N,GND*%
X61250000Y-24250000D03*
D24*
X60800000Y-20300000D03*
X72250000Y-9000000D03*
D23*
X86000000Y-18500000D03*
X78500000Y-5750000D03*
D24*
X74600000Y-10300000D03*
D23*
X75000000Y-26000000D03*
D24*
X54500000Y-10500000D03*
D23*
X75750000Y-30500000D03*
X79000000Y-26250000D03*
X64250000Y-22250000D03*
X94750000Y-37750000D03*
X41750000Y-22062500D03*
X74500000Y-15250000D03*
X93500000Y-27250000D03*
X42500000Y-22062500D03*
X72500000Y-17500000D03*
X78000000Y-24250000D03*
X85500000Y-35500000D03*
X65500000Y-35000000D03*
X67500000Y-23750000D03*
X77000000Y-30500000D03*
X64750000Y-6000000D03*
X77250000Y-17500000D03*
X77750000Y-33550000D03*
X71500000Y-25750000D03*
X100500000Y-26500000D03*
X68300000Y-9200000D03*
X86250000Y-12250000D03*
X94250000Y-36250000D03*
X84750000Y-35275000D03*
X25800000Y-36500000D03*
D24*
X53250000Y-11850000D03*
D23*
X69250000Y-35525000D03*
X78750000Y-30500000D03*
X22800000Y-36500000D03*
X72500000Y-15250000D03*
X89500000Y-29500000D03*
X66750000Y-25250000D03*
X66556251Y-17143749D03*
X61500000Y-8500000D03*
X80250000Y-12750000D03*
X18800000Y-36500000D03*
X52000000Y-8700000D03*
X56425000Y-16975000D03*
X76122929Y-15872929D03*
X86200000Y-23600000D03*
X70250000Y-28750000D03*
X68500000Y-35500000D03*
X88500000Y-10322600D03*
X80000000Y-33500000D03*
X21800000Y-36500000D03*
X67000000Y-6000000D03*
D24*
X56000000Y-36000000D03*
X63500000Y-19300000D03*
D23*
X99500000Y-26500000D03*
X96000000Y-38500000D03*
X76500000Y-2000000D03*
X41000000Y-22062500D03*
X24800000Y-36500000D03*
X90700000Y-27200000D03*
X61000000Y-10500000D03*
D24*
X57000000Y-22900000D03*
D23*
X68350000Y-25750000D03*
X58750000Y-13850000D03*
X94500000Y-22500000D03*
X55500000Y-6250000D03*
X23800000Y-36500000D03*
X94250000Y-33000000D03*
X64750000Y-10500000D03*
X85500000Y-24900000D03*
X92500000Y-27250000D03*
X94500000Y-26000000D03*
X82500000Y-7750000D03*
X20800000Y-36500000D03*
D24*
X57750000Y-36000000D03*
D23*
X76650000Y-19350000D03*
X74000000Y-19250000D03*
X48250000Y-14500000D03*
X69261828Y-12075000D03*
X69500000Y-6000000D03*
X98027400Y-34000000D03*
X84500000Y-4250000D03*
D24*
X69300000Y-22700000D03*
D23*
X80000000Y-30500000D03*
X19800000Y-36500000D03*
X60000000Y-8500000D03*
D24*
X59250000Y-36000000D03*
D23*
%TO.N,+3V3*%
X77225000Y-27725000D03*
X81250000Y-12250000D03*
X50500000Y-9750000D03*
D24*
X72250371Y-6800000D03*
D23*
X71500000Y-25000000D03*
X84893300Y-19428897D03*
D24*
X65524000Y-23835952D03*
D23*
X63200000Y-17050000D03*
X98000000Y-36000000D03*
D24*
X71800000Y-32100000D03*
X59804020Y-20095980D03*
D23*
X82640800Y-10250000D03*
X74650000Y-27550000D03*
X77250000Y-18250000D03*
X67000000Y-12000000D03*
X77750000Y-9250000D03*
X87500000Y-7000000D03*
X57500000Y-13250000D03*
X76250000Y-27750000D03*
X77777400Y-11976745D03*
X61500000Y-14250000D03*
%TO.N,/excimerDriver/Isense_In*%
X74250000Y-18000000D03*
X90750000Y-33750000D03*
%TO.N,/excimerDriver/VDC_power*%
X35300000Y-37500000D03*
X93250000Y-30500000D03*
X90750000Y-31500000D03*
X34300000Y-36500000D03*
X35250000Y-35500000D03*
X90750000Y-30500000D03*
X34250000Y-37500000D03*
X34300000Y-35500000D03*
X93250000Y-31500000D03*
X35300000Y-36500000D03*
X92250000Y-30500000D03*
X92250000Y-31500000D03*
%TO.N,Net-(D18-A)*%
X63947789Y-36870457D03*
X65500000Y-18750000D03*
%TO.N,/excimerDriver/OCP*%
X62950000Y-15900000D03*
D24*
X59940000Y-18000000D03*
D23*
X66550000Y-15912500D03*
%TO.N,/excimerDriver/Usense_Lamp*%
X70500000Y-14000000D03*
X64152600Y-15500000D03*
X62962500Y-8712500D03*
%TO.N,/excimerDriver/SWDIO*%
X71500000Y-20472600D03*
%TO.N,/excimerDriver/temp_MOSFET*%
X76206468Y-20835098D03*
D24*
X68500000Y-22000000D03*
X66350000Y-28250000D03*
D23*
X66500000Y-19000000D03*
%TO.N,/excimerDriver/Status*%
X73250000Y-11777400D03*
X70770855Y-6775000D03*
%TO.N,/excimerDriver/PWM*%
X73500000Y-15250000D03*
X69500000Y-10972600D03*
D24*
%TO.N,/excimerDriver/SWCLK*%
X81500000Y-23580800D03*
D23*
X70778248Y-21735876D03*
%TO.N,/excimerDriver/UV_LED*%
X53250000Y-9750000D03*
X75500000Y-12250000D03*
%TO.N,/excimerDriver/24V_Sense*%
X77264735Y-16264735D03*
X94250000Y-37250000D03*
%TO.N,/excimerDriver/MCU_REMOTE*%
X79250000Y-21250000D03*
X82750000Y-12000000D03*
D24*
%TO.N,/excimerDriver/DRV*%
X72250000Y-33500000D03*
D23*
X70150000Y-22050000D03*
D24*
%TO.N,/excimerDriver/lampDriver/HV_Drain*%
X52263341Y-23403716D03*
D23*
%TO.N,/excimerDriver/Isense_Lamp*%
X52250000Y-11500000D03*
X72500000Y-14500000D03*
X60700000Y-15400000D03*
%TO.N,/excimerDriver/Isense_MOS*%
X63750000Y-23972600D03*
%TO.N,/excimerDriver/lampDriver/VDC_Trafo*%
X27750000Y-36000000D03*
X27750000Y-35250000D03*
X27750000Y-34500000D03*
%TO.N,/excimerDriver/24V_FUSE*%
X95000000Y-10500000D03*
X48500000Y-3500000D03*
%TO.N,/excimerDriver/VDC_filter*%
X88000000Y-27750000D03*
X86500000Y-32750000D03*
%TO.N,/excimerDriver/I2C_SCL*%
X79000000Y-6775000D03*
X71750000Y-19000000D03*
%TO.N,/excimerDriver/I2C_SDA*%
X71387816Y-19779216D03*
X79527400Y-10750000D03*
%TO.N,/excimerDriver/OCP_RESET*%
X71750000Y-17250000D03*
X58250000Y-24750000D03*
%TO.N,/excimerDriver/LED1*%
X80000000Y-19000000D03*
X83250000Y-13750000D03*
%TO.N,/excimerDriver/Lamp_on_status*%
X87750000Y-1277400D03*
%TO.N,/excimerDriver/!REMOTE*%
X87800000Y-4400000D03*
%TO.N,Net-(IC6-BST)*%
X85500216Y-29500000D03*
X84000000Y-31000000D03*
%TO.N,Net-(IC3-PA5)*%
X75450000Y-20600000D03*
X74685876Y-25371752D03*
%TO.N,Net-(IC2C-+)*%
X68700000Y-17750000D03*
X67750000Y-14425000D03*
%TD*%
D25*
%TO.N,/excimerDriver/VDC*%
X90050000Y-3200000D02*
X90250000Y-3000000D01*
X56600000Y-3000000D02*
X56600000Y-3850000D01*
X57750000Y-5000000D02*
X76500000Y-5000000D01*
X56600000Y-3850000D02*
X57750000Y-5000000D01*
X78300000Y-3200000D02*
X90050000Y-3200000D01*
X76500000Y-5000000D02*
X78300000Y-3200000D01*
D26*
%TO.N,/excimerDriver/SWDIO*%
X71500000Y-20472600D02*
X71637900Y-20610500D01*
D27*
X74000000Y-22750000D02*
X71722600Y-20472600D01*
X83663300Y-22750000D02*
X74000000Y-22750000D01*
X71722600Y-20472600D02*
X71500000Y-20472600D01*
X84893300Y-21520000D02*
X83663300Y-22750000D01*
%TO.N,/excimerDriver/SWCLK*%
X81080800Y-23580800D02*
X80750000Y-23250000D01*
X71985876Y-21735876D02*
X70778248Y-21735876D01*
X73500000Y-23250000D02*
X71985876Y-21735876D01*
X80750000Y-23250000D02*
X73500000Y-23250000D01*
X81500000Y-23580800D02*
X81080800Y-23580800D01*
D28*
%TO.N,/excimerDriver/lampDriver/HV_Drain*%
X40200000Y-29300000D02*
X40200000Y-29900000D01*
X49000000Y-25500000D02*
X44000000Y-25500000D01*
X51000000Y-27500000D02*
X49000000Y-25500000D01*
X44000000Y-25500000D02*
X40200000Y-29300000D01*
D26*
%TO.N,/excimerDriver/24V_FUSE*%
X53500000Y-1250000D02*
X77000000Y-1250000D01*
X48500000Y-3500000D02*
X51250000Y-3500000D01*
X96500000Y-3750000D02*
X95000000Y-5250000D01*
X95000000Y-5250000D02*
X95000000Y-10500000D01*
X51250000Y-3500000D02*
X53500000Y-1250000D01*
X77000000Y-1250000D02*
X77503400Y-746600D01*
X96500000Y-2000000D02*
X96500000Y-3750000D01*
X95246600Y-746600D02*
X96500000Y-2000000D01*
X77503400Y-746600D02*
X95246600Y-746600D01*
%TO.N,/excimerDriver/Lamp_on_status*%
X95250000Y-3300000D02*
X93227400Y-1277400D01*
X93227400Y-1277400D02*
X87750000Y-1277400D01*
%TO.N,/excimerDriver/!REMOTE*%
X88150000Y-4400000D02*
X88250000Y-4500000D01*
X91250000Y-4500000D02*
X92750000Y-3000000D01*
X88250000Y-4500000D02*
X91250000Y-4500000D01*
X87800000Y-4400000D02*
X88150000Y-4400000D01*
%TD*%
%TA.AperFunction,Conductor*%
%TO.N,/excimerDriver/lampDriver/VDC_Trafo*%
G36*
X17261176Y-27269685D02*
G01*
X17287013Y-27291841D01*
X23000000Y-33750000D01*
X29198638Y-33750000D01*
X29265677Y-33769685D01*
X29286319Y-33786319D01*
X30213681Y-34713681D01*
X30247166Y-34775004D01*
X30250000Y-34801362D01*
X30250000Y-38448638D01*
X30230315Y-38515677D01*
X30213681Y-38536319D01*
X29286819Y-39463181D01*
X29225496Y-39496666D01*
X29199138Y-39499500D01*
X13550862Y-39499500D01*
X13483823Y-39479815D01*
X13463181Y-39463181D01*
X12036319Y-38036319D01*
X12002834Y-37974996D01*
X12000000Y-37948638D01*
X12000000Y-36423615D01*
X18024500Y-36423615D01*
X18024500Y-36576384D01*
X18054300Y-36726197D01*
X18054302Y-36726205D01*
X18112759Y-36867334D01*
X18112764Y-36867343D01*
X18197629Y-36994351D01*
X18197632Y-36994355D01*
X18305644Y-37102367D01*
X18305648Y-37102370D01*
X18432656Y-37187235D01*
X18432662Y-37187238D01*
X18432663Y-37187239D01*
X18573795Y-37245698D01*
X18723615Y-37275499D01*
X18723619Y-37275500D01*
X18723620Y-37275500D01*
X18876381Y-37275500D01*
X18876382Y-37275499D01*
X19026205Y-37245698D01*
X19167337Y-37187239D01*
X19231109Y-37144628D01*
X19297786Y-37123750D01*
X19365166Y-37142234D01*
X19368891Y-37144628D01*
X19432663Y-37187239D01*
X19573795Y-37245698D01*
X19723615Y-37275499D01*
X19723619Y-37275500D01*
X19723620Y-37275500D01*
X19876381Y-37275500D01*
X19876382Y-37275499D01*
X20026205Y-37245698D01*
X20167337Y-37187239D01*
X20231109Y-37144628D01*
X20297786Y-37123750D01*
X20365166Y-37142234D01*
X20368891Y-37144628D01*
X20432663Y-37187239D01*
X20573795Y-37245698D01*
X20723615Y-37275499D01*
X20723619Y-37275500D01*
X20723620Y-37275500D01*
X20876381Y-37275500D01*
X20876382Y-37275499D01*
X21026205Y-37245698D01*
X21167337Y-37187239D01*
X21231109Y-37144628D01*
X21297786Y-37123750D01*
X21365166Y-37142234D01*
X21368891Y-37144628D01*
X21432663Y-37187239D01*
X21573795Y-37245698D01*
X21723615Y-37275499D01*
X21723619Y-37275500D01*
X21723620Y-37275500D01*
X21876381Y-37275500D01*
X21876382Y-37275499D01*
X22026205Y-37245698D01*
X22167337Y-37187239D01*
X22231109Y-37144628D01*
X22297786Y-37123750D01*
X22365166Y-37142234D01*
X22368891Y-37144628D01*
X22432663Y-37187239D01*
X22573795Y-37245698D01*
X22723615Y-37275499D01*
X22723619Y-37275500D01*
X22723620Y-37275500D01*
X22876381Y-37275500D01*
X22876382Y-37275499D01*
X23026205Y-37245698D01*
X23167337Y-37187239D01*
X23231109Y-37144628D01*
X23297786Y-37123750D01*
X23365166Y-37142234D01*
X23368891Y-37144628D01*
X23432663Y-37187239D01*
X23573795Y-37245698D01*
X23723615Y-37275499D01*
X23723619Y-37275500D01*
X23723620Y-37275500D01*
X23876381Y-37275500D01*
X23876382Y-37275499D01*
X24026205Y-37245698D01*
X24167337Y-37187239D01*
X24231109Y-37144628D01*
X24297786Y-37123750D01*
X24365166Y-37142234D01*
X24368891Y-37144628D01*
X24432663Y-37187239D01*
X24573795Y-37245698D01*
X24723615Y-37275499D01*
X24723619Y-37275500D01*
X24723620Y-37275500D01*
X24876381Y-37275500D01*
X24876382Y-37275499D01*
X25026205Y-37245698D01*
X25167337Y-37187239D01*
X25231109Y-37144628D01*
X25297786Y-37123750D01*
X25365166Y-37142234D01*
X25368891Y-37144628D01*
X25432663Y-37187239D01*
X25573795Y-37245698D01*
X25723615Y-37275499D01*
X25723619Y-37275500D01*
X25723620Y-37275500D01*
X25876381Y-37275500D01*
X25876382Y-37275499D01*
X26026205Y-37245698D01*
X26167337Y-37187239D01*
X26294352Y-37102370D01*
X26402370Y-36994352D01*
X26487239Y-36867337D01*
X26545698Y-36726205D01*
X26575500Y-36576380D01*
X26575500Y-36423620D01*
X26545698Y-36273795D01*
X26500482Y-36164636D01*
X26487240Y-36132665D01*
X26487235Y-36132656D01*
X26402370Y-36005648D01*
X26402367Y-36005644D01*
X26294355Y-35897632D01*
X26294351Y-35897629D01*
X26167343Y-35812764D01*
X26167334Y-35812759D01*
X26026205Y-35754302D01*
X26026197Y-35754300D01*
X25876384Y-35724500D01*
X25876380Y-35724500D01*
X25723620Y-35724500D01*
X25723615Y-35724500D01*
X25573802Y-35754300D01*
X25573794Y-35754302D01*
X25432665Y-35812759D01*
X25432658Y-35812763D01*
X25368890Y-35855372D01*
X25302213Y-35876249D01*
X25234833Y-35857764D01*
X25231110Y-35855372D01*
X25167341Y-35812763D01*
X25167334Y-35812759D01*
X25026205Y-35754302D01*
X25026197Y-35754300D01*
X24876384Y-35724500D01*
X24876380Y-35724500D01*
X24723620Y-35724500D01*
X24723615Y-35724500D01*
X24573802Y-35754300D01*
X24573794Y-35754302D01*
X24432665Y-35812759D01*
X24432658Y-35812763D01*
X24368890Y-35855372D01*
X24302213Y-35876249D01*
X24234833Y-35857764D01*
X24231110Y-35855372D01*
X24167341Y-35812763D01*
X24167334Y-35812759D01*
X24026205Y-35754302D01*
X24026197Y-35754300D01*
X23876384Y-35724500D01*
X23876380Y-35724500D01*
X23723620Y-35724500D01*
X23723615Y-35724500D01*
X23573802Y-35754300D01*
X23573794Y-35754302D01*
X23432665Y-35812759D01*
X23432658Y-35812763D01*
X23368890Y-35855372D01*
X23302213Y-35876249D01*
X23234833Y-35857764D01*
X23231110Y-35855372D01*
X23167341Y-35812763D01*
X23167334Y-35812759D01*
X23026205Y-35754302D01*
X23026197Y-35754300D01*
X22876384Y-35724500D01*
X22876380Y-35724500D01*
X22723620Y-35724500D01*
X22723615Y-35724500D01*
X22573802Y-35754300D01*
X22573794Y-35754302D01*
X22432665Y-35812759D01*
X22432658Y-35812763D01*
X22368890Y-35855372D01*
X22302213Y-35876249D01*
X22234833Y-35857764D01*
X22231110Y-35855372D01*
X22167341Y-35812763D01*
X22167334Y-35812759D01*
X22026205Y-35754302D01*
X22026197Y-35754300D01*
X21876384Y-35724500D01*
X21876380Y-35724500D01*
X21723620Y-35724500D01*
X21723615Y-35724500D01*
X21573802Y-35754300D01*
X21573794Y-35754302D01*
X21432665Y-35812759D01*
X21432658Y-35812763D01*
X21368890Y-35855372D01*
X21302213Y-35876249D01*
X21234833Y-35857764D01*
X21231110Y-35855372D01*
X21167341Y-35812763D01*
X21167334Y-35812759D01*
X21026205Y-35754302D01*
X21026197Y-35754300D01*
X20876384Y-35724500D01*
X20876380Y-35724500D01*
X20723620Y-35724500D01*
X20723615Y-35724500D01*
X20573802Y-35754300D01*
X20573794Y-35754302D01*
X20432665Y-35812759D01*
X20432658Y-35812763D01*
X20368890Y-35855372D01*
X20302213Y-35876249D01*
X20234833Y-35857764D01*
X20231110Y-35855372D01*
X20167341Y-35812763D01*
X20167334Y-35812759D01*
X20026205Y-35754302D01*
X20026197Y-35754300D01*
X19876384Y-35724500D01*
X19876380Y-35724500D01*
X19723620Y-35724500D01*
X19723615Y-35724500D01*
X19573802Y-35754300D01*
X19573794Y-35754302D01*
X19432665Y-35812759D01*
X19432658Y-35812763D01*
X19368890Y-35855372D01*
X19302213Y-35876249D01*
X19234833Y-35857764D01*
X19231110Y-35855372D01*
X19167341Y-35812763D01*
X19167334Y-35812759D01*
X19026205Y-35754302D01*
X19026197Y-35754300D01*
X18876384Y-35724500D01*
X18876380Y-35724500D01*
X18723620Y-35724500D01*
X18723615Y-35724500D01*
X18573802Y-35754300D01*
X18573794Y-35754302D01*
X18432665Y-35812759D01*
X18432656Y-35812764D01*
X18305648Y-35897629D01*
X18305644Y-35897632D01*
X18197632Y-36005644D01*
X18197629Y-36005648D01*
X18112764Y-36132656D01*
X18112759Y-36132665D01*
X18054302Y-36273794D01*
X18054300Y-36273802D01*
X18024500Y-36423615D01*
X12000000Y-36423615D01*
X12000000Y-29781208D01*
X12987500Y-29781208D01*
X12987500Y-30018791D01*
X12987501Y-30018808D01*
X13018511Y-30254356D01*
X13080009Y-30483866D01*
X13170924Y-30703356D01*
X13170931Y-30703371D01*
X13289721Y-30909122D01*
X13289727Y-30909129D01*
X13353805Y-30992639D01*
X14027545Y-30318899D01*
X14120343Y-30457780D01*
X14242220Y-30579657D01*
X14381099Y-30672453D01*
X13707359Y-31346193D01*
X13707359Y-31346194D01*
X13790868Y-31410272D01*
X13996628Y-31529068D01*
X13996643Y-31529075D01*
X14216133Y-31619990D01*
X14445643Y-31681488D01*
X14681191Y-31712498D01*
X14681209Y-31712500D01*
X14918791Y-31712500D01*
X14918808Y-31712498D01*
X15154356Y-31681488D01*
X15383866Y-31619990D01*
X15603356Y-31529075D01*
X15603370Y-31529068D01*
X15809125Y-31410275D01*
X15809132Y-31410270D01*
X15892639Y-31346193D01*
X15218899Y-30672453D01*
X15357780Y-30579657D01*
X15479657Y-30457780D01*
X15572453Y-30318899D01*
X16246193Y-30992639D01*
X16310270Y-30909132D01*
X16310275Y-30909125D01*
X16429068Y-30703370D01*
X16429075Y-30703356D01*
X16519990Y-30483866D01*
X16581488Y-30254356D01*
X16612498Y-30018808D01*
X16612500Y-30018791D01*
X16612500Y-29781208D01*
X16612498Y-29781191D01*
X16581488Y-29545643D01*
X16519990Y-29316133D01*
X16429075Y-29096643D01*
X16429068Y-29096628D01*
X16310272Y-28890868D01*
X16246194Y-28807359D01*
X16246193Y-28807359D01*
X15572453Y-29481099D01*
X15479657Y-29342220D01*
X15357780Y-29220343D01*
X15218899Y-29127546D01*
X15892639Y-28453805D01*
X15892639Y-28453804D01*
X15809129Y-28389727D01*
X15809122Y-28389721D01*
X15603371Y-28270931D01*
X15603356Y-28270924D01*
X15383866Y-28180009D01*
X15154356Y-28118511D01*
X14918808Y-28087501D01*
X14918791Y-28087500D01*
X14681209Y-28087500D01*
X14681191Y-28087501D01*
X14445643Y-28118511D01*
X14216133Y-28180009D01*
X13996643Y-28270924D01*
X13996628Y-28270931D01*
X13790875Y-28389723D01*
X13790861Y-28389732D01*
X13707359Y-28453804D01*
X13707359Y-28453805D01*
X14381100Y-29127546D01*
X14242220Y-29220343D01*
X14120343Y-29342220D01*
X14027546Y-29481099D01*
X13353805Y-28807358D01*
X13353804Y-28807359D01*
X13289732Y-28890861D01*
X13289723Y-28890875D01*
X13170931Y-29096628D01*
X13170924Y-29096643D01*
X13080009Y-29316133D01*
X13018511Y-29545643D01*
X12987501Y-29781191D01*
X12987500Y-29781208D01*
X12000000Y-29781208D01*
X12000000Y-28612099D01*
X12008234Y-28584056D01*
X12013751Y-28555343D01*
X12018714Y-28548363D01*
X12019685Y-28545060D01*
X12034204Y-28526585D01*
X12542065Y-27993331D01*
X13213350Y-27288483D01*
X13273838Y-27253512D01*
X13303143Y-27250000D01*
X17194137Y-27250000D01*
X17261176Y-27269685D01*
G37*
%TD.AperFunction*%
%TD*%
%TA.AperFunction,Conductor*%
%TO.N,GND*%
G36*
X100150000Y-30200000D02*
G01*
X100805619Y-30200000D01*
X100872658Y-30219685D01*
X100918413Y-30272489D01*
X100928357Y-30341647D01*
X100899332Y-30405203D01*
X100897026Y-30407790D01*
X100129573Y-31245010D01*
X100119909Y-31254462D01*
X100005629Y-31354649D01*
X99983511Y-31370131D01*
X99856223Y-31439937D01*
X99831280Y-31450264D01*
X99691903Y-31490867D01*
X99665316Y-31495551D01*
X99520461Y-31505028D01*
X99493489Y-31503848D01*
X99360623Y-31483383D01*
X99297362Y-31453722D01*
X99260179Y-31394568D01*
X99255500Y-31360828D01*
X99255500Y-30324000D01*
X99275185Y-30256961D01*
X99327989Y-30211206D01*
X99379500Y-30200000D01*
X99650000Y-30200000D01*
X99650000Y-29433012D01*
X99707007Y-29465925D01*
X99834174Y-29500000D01*
X99965826Y-29500000D01*
X100092993Y-29465925D01*
X100150000Y-29433012D01*
X100150000Y-30200000D01*
G37*
%TD.AperFunction*%
%TA.AperFunction,Conductor*%
G36*
X98563181Y-3759628D02*
G01*
X98596666Y-3820951D01*
X98599500Y-3847309D01*
X98599500Y-4192131D01*
X98632991Y-4574932D01*
X98632991Y-4574934D01*
X98699715Y-4953340D01*
X98699719Y-4953357D01*
X98745775Y-5125241D01*
X98750000Y-5157334D01*
X98750000Y-5500000D01*
X98910758Y-5660758D01*
X98935459Y-5696034D01*
X99092985Y-6033851D01*
X99092990Y-6033860D01*
X99285120Y-6366639D01*
X99285124Y-6366645D01*
X99285131Y-6366656D01*
X99505523Y-6681408D01*
X99669315Y-6876607D01*
X99696441Y-6934776D01*
X99699714Y-6953335D01*
X99699717Y-6953351D01*
X99799169Y-7324512D01*
X99930592Y-7685598D01*
X100092985Y-8033851D01*
X100092990Y-8033860D01*
X100285120Y-8366639D01*
X100285124Y-8366645D01*
X100285131Y-8366656D01*
X100505523Y-8681408D01*
X100684053Y-8894171D01*
X100752520Y-8975767D01*
X101024233Y-9247480D01*
X101146625Y-9350179D01*
X101318591Y-9494476D01*
X101365151Y-9527077D01*
X101447124Y-9584475D01*
X101490748Y-9639050D01*
X101500000Y-9686049D01*
X101500000Y-29355263D01*
X101499467Y-29366746D01*
X101483915Y-29533957D01*
X101479679Y-29556532D01*
X101435142Y-29712449D01*
X101426816Y-29733853D01*
X101354288Y-29878885D01*
X101342158Y-29898386D01*
X101322775Y-29923926D01*
X101266567Y-29965428D01*
X101196844Y-29969953D01*
X101135743Y-29936064D01*
X101102663Y-29874522D01*
X101100000Y-29848963D01*
X101100000Y-29250000D01*
X100333012Y-29250000D01*
X100365925Y-29192993D01*
X100400000Y-29065826D01*
X100400000Y-28934174D01*
X100365925Y-28807007D01*
X100333012Y-28750000D01*
X101100000Y-28750000D01*
X101100000Y-27980301D01*
X101099999Y-27980297D01*
X101088397Y-27921966D01*
X101088396Y-27921965D01*
X101044191Y-27855808D01*
X100978034Y-27811603D01*
X100978033Y-27811602D01*
X100919702Y-27800000D01*
X100150000Y-27800000D01*
X100150000Y-28566988D01*
X100092993Y-28534075D01*
X99965826Y-28500000D01*
X99834174Y-28500000D01*
X99707007Y-28534075D01*
X99650000Y-28566988D01*
X99650000Y-27800000D01*
X99379500Y-27800000D01*
X99312461Y-27780315D01*
X99266706Y-27727511D01*
X99255500Y-27676000D01*
X99255500Y-27540998D01*
X99253941Y-27501346D01*
X99253941Y-27501342D01*
X99252722Y-27485855D01*
X99245597Y-27432224D01*
X99199187Y-27296034D01*
X99171410Y-27241517D01*
X99164671Y-27228744D01*
X99078446Y-27113562D01*
X99078441Y-27113557D01*
X99078436Y-27113551D01*
X96357442Y-24392558D01*
X89636439Y-17671555D01*
X89607299Y-17644618D01*
X89607297Y-17644616D01*
X89607287Y-17644607D01*
X89595474Y-17634518D01*
X89552506Y-17601629D01*
X89488988Y-17570399D01*
X89423385Y-17538145D01*
X89423380Y-17538144D01*
X89365196Y-17519239D01*
X89351414Y-17514977D01*
X89351408Y-17514976D01*
X89208992Y-17494500D01*
X89208990Y-17494500D01*
X88510746Y-17494500D01*
X88443707Y-17474815D01*
X88423065Y-17458181D01*
X87553150Y-16588266D01*
X87519665Y-16526943D01*
X87517429Y-16512748D01*
X87506097Y-16397688D01*
X87505500Y-16385534D01*
X87505500Y-15878300D01*
X87525185Y-15811261D01*
X87577989Y-15765506D01*
X87647147Y-15755562D01*
X87710703Y-15784587D01*
X87748477Y-15843365D01*
X87751117Y-15854109D01*
X87788427Y-16041681D01*
X87788430Y-16041693D01*
X87863808Y-16223673D01*
X87863809Y-16223675D01*
X87887425Y-16259019D01*
X88350000Y-15796445D01*
X88350000Y-15802661D01*
X88377259Y-15904394D01*
X88429920Y-15995606D01*
X88504394Y-16070080D01*
X88595606Y-16122741D01*
X88697339Y-16150000D01*
X88703553Y-16150000D01*
X88240979Y-16612572D01*
X88276328Y-16636192D01*
X88458306Y-16711569D01*
X88458318Y-16711572D01*
X88651504Y-16749999D01*
X88651508Y-16750000D01*
X88848492Y-16750000D01*
X88848495Y-16749999D01*
X89041681Y-16711572D01*
X89041693Y-16711569D01*
X89223676Y-16636190D01*
X89223680Y-16636187D01*
X89259019Y-16612573D01*
X89259020Y-16612572D01*
X88796448Y-16150000D01*
X88802661Y-16150000D01*
X88904394Y-16122741D01*
X88995606Y-16070080D01*
X89070080Y-15995606D01*
X89122741Y-15904394D01*
X89150000Y-15802661D01*
X89150000Y-15796447D01*
X89612572Y-16259020D01*
X89612573Y-16259019D01*
X89636187Y-16223680D01*
X89636190Y-16223676D01*
X89711569Y-16041693D01*
X89711572Y-16041681D01*
X89749999Y-15848495D01*
X89750000Y-15848492D01*
X89750000Y-15651508D01*
X89749999Y-15651504D01*
X89711572Y-15458318D01*
X89711569Y-15458306D01*
X89636192Y-15276328D01*
X89612572Y-15240979D01*
X89150000Y-15703551D01*
X89150000Y-15697339D01*
X89122741Y-15595606D01*
X89070080Y-15504394D01*
X88995606Y-15429920D01*
X88904394Y-15377259D01*
X88802661Y-15350000D01*
X88796447Y-15350000D01*
X89244311Y-14902135D01*
X90949500Y-14902135D01*
X90949500Y-16597870D01*
X90949501Y-16597876D01*
X90955908Y-16657483D01*
X91006202Y-16792328D01*
X91006206Y-16792335D01*
X91092452Y-16907544D01*
X91092455Y-16907547D01*
X91207664Y-16993793D01*
X91207671Y-16993797D01*
X91342517Y-17044091D01*
X91342516Y-17044091D01*
X91349444Y-17044835D01*
X91402127Y-17050500D01*
X93097872Y-17050499D01*
X93157483Y-17044091D01*
X93292331Y-16993796D01*
X93407546Y-16907546D01*
X93493796Y-16792331D01*
X93544091Y-16657483D01*
X93550500Y-16597873D01*
X93550499Y-14902128D01*
X93544091Y-14842517D01*
X93509584Y-14750000D01*
X93493797Y-14707671D01*
X93493793Y-14707664D01*
X93407547Y-14592455D01*
X93407544Y-14592452D01*
X93292335Y-14506206D01*
X93292328Y-14506202D01*
X93157482Y-14455908D01*
X93157483Y-14455908D01*
X93097883Y-14449501D01*
X93097881Y-14449500D01*
X93097873Y-14449500D01*
X93097864Y-14449500D01*
X91402129Y-14449500D01*
X91402123Y-14449501D01*
X91342516Y-14455908D01*
X91207671Y-14506202D01*
X91207664Y-14506206D01*
X91092455Y-14592452D01*
X91092452Y-14592455D01*
X91006206Y-14707664D01*
X91006202Y-14707671D01*
X90955908Y-14842517D01*
X90949501Y-14902116D01*
X90949501Y-14902123D01*
X90949500Y-14902135D01*
X89244311Y-14902135D01*
X89259020Y-14887426D01*
X89223675Y-14863809D01*
X89223673Y-14863808D01*
X89041693Y-14788430D01*
X89041681Y-14788427D01*
X88848495Y-14750000D01*
X88651504Y-14750000D01*
X88458318Y-14788427D01*
X88458310Y-14788429D01*
X88276325Y-14863809D01*
X88276318Y-14863813D01*
X88240979Y-14887426D01*
X88240978Y-14887426D01*
X88703554Y-15350000D01*
X88697339Y-15350000D01*
X88595606Y-15377259D01*
X88504394Y-15429920D01*
X88429920Y-15504394D01*
X88377259Y-15595606D01*
X88350000Y-15697339D01*
X88350000Y-15703552D01*
X87887426Y-15240978D01*
X87887426Y-15240979D01*
X87863813Y-15276318D01*
X87863809Y-15276325D01*
X87788429Y-15458310D01*
X87788427Y-15458318D01*
X87751117Y-15645890D01*
X87718732Y-15707801D01*
X87658017Y-15742375D01*
X87588247Y-15738636D01*
X87531575Y-15697770D01*
X87505994Y-15632751D01*
X87505500Y-15621699D01*
X87505500Y-15114464D01*
X87506097Y-15102310D01*
X87517428Y-14987256D01*
X87543589Y-14922472D01*
X87553133Y-14911750D01*
X90578446Y-11886438D01*
X90605393Y-11857287D01*
X90615482Y-11845474D01*
X90648371Y-11802506D01*
X90711853Y-11673388D01*
X90730760Y-11615197D01*
X90735024Y-11601408D01*
X90755500Y-11458992D01*
X90755500Y-5224500D01*
X90775185Y-5157461D01*
X90827989Y-5111706D01*
X90879500Y-5100500D01*
X91163331Y-5100500D01*
X91163347Y-5100501D01*
X91170943Y-5100501D01*
X91329054Y-5100501D01*
X91329057Y-5100501D01*
X91481785Y-5059577D01*
X91531904Y-5030639D01*
X91618716Y-4980520D01*
X91730520Y-4868716D01*
X91730520Y-4868714D01*
X91740728Y-4858507D01*
X91740730Y-4858504D01*
X92083226Y-4516007D01*
X92144547Y-4482524D01*
X92214239Y-4487508D01*
X92227200Y-4493205D01*
X92250783Y-4505221D01*
X92432373Y-4564222D01*
X92445466Y-4568477D01*
X92647648Y-4600500D01*
X92647649Y-4600500D01*
X92852351Y-4600500D01*
X92852352Y-4600500D01*
X93054534Y-4568477D01*
X93249219Y-4505220D01*
X93431610Y-4412287D01*
X93524590Y-4344732D01*
X93597213Y-4291971D01*
X93597215Y-4291968D01*
X93597219Y-4291966D01*
X93741966Y-4147219D01*
X93741968Y-4147215D01*
X93741971Y-4147213D01*
X93794732Y-4074590D01*
X93862287Y-3981610D01*
X93889515Y-3928171D01*
X93937490Y-3877376D01*
X94005311Y-3860581D01*
X94071446Y-3883118D01*
X94110484Y-3928171D01*
X94131797Y-3970000D01*
X94137715Y-3981613D01*
X94258028Y-4147213D01*
X94402786Y-4291971D01*
X94499475Y-4362218D01*
X94568390Y-4412287D01*
X94646930Y-4452305D01*
X94694611Y-4476600D01*
X94715062Y-4495915D01*
X94737583Y-4512774D01*
X94740123Y-4519584D01*
X94745407Y-4524575D01*
X94752168Y-4551878D01*
X94762000Y-4578238D01*
X94760454Y-4585341D01*
X94762202Y-4592396D01*
X94753129Y-4619019D01*
X94747149Y-4646511D01*
X94740928Y-4654821D01*
X94739664Y-4658531D01*
X94725998Y-4674766D01*
X94631286Y-4769478D01*
X94631285Y-4769478D01*
X94631284Y-4769479D01*
X94519479Y-4881284D01*
X94497096Y-4920054D01*
X94487635Y-4936442D01*
X94440423Y-5018215D01*
X94399499Y-5170943D01*
X94399499Y-5170945D01*
X94399499Y-5339046D01*
X94399500Y-5339059D01*
X94399500Y-9965233D01*
X94379815Y-10032272D01*
X94378602Y-10034124D01*
X94312764Y-10132656D01*
X94312759Y-10132665D01*
X94254302Y-10273794D01*
X94254300Y-10273802D01*
X94224500Y-10423615D01*
X94224500Y-10576384D01*
X94254300Y-10726197D01*
X94254302Y-10726205D01*
X94312759Y-10867334D01*
X94312764Y-10867343D01*
X94397629Y-10994351D01*
X94397632Y-10994355D01*
X94505644Y-11102367D01*
X94505648Y-11102370D01*
X94632656Y-11187235D01*
X94632662Y-11187238D01*
X94632663Y-11187239D01*
X94773795Y-11245698D01*
X94923615Y-11275499D01*
X94923619Y-11275500D01*
X94923620Y-11275500D01*
X95076381Y-11275500D01*
X95076382Y-11275499D01*
X95226205Y-11245698D01*
X95367337Y-11187239D01*
X95494352Y-11102370D01*
X95602370Y-10994352D01*
X95687239Y-10867337D01*
X95745698Y-10726205D01*
X95775500Y-10576380D01*
X95775500Y-10423620D01*
X95745698Y-10273795D01*
X95700482Y-10164636D01*
X95687240Y-10132665D01*
X95687235Y-10132656D01*
X95621398Y-10034124D01*
X95600520Y-9967446D01*
X95600500Y-9965233D01*
X95600500Y-5550096D01*
X95620185Y-5483057D01*
X95636814Y-5462420D01*
X96868713Y-4230521D01*
X96868716Y-4230520D01*
X96980520Y-4118716D01*
X96980633Y-4118519D01*
X96986516Y-4112633D01*
X97010228Y-4099674D01*
X97032014Y-4083692D01*
X97040429Y-4083171D01*
X97047829Y-4079128D01*
X97074781Y-4081046D01*
X97101750Y-4079379D01*
X97111738Y-4083678D01*
X97117522Y-4084090D01*
X97124061Y-4088982D01*
X97143117Y-4097184D01*
X97276315Y-4186185D01*
X97276328Y-4186192D01*
X97458306Y-4261569D01*
X97458318Y-4261572D01*
X97651504Y-4299999D01*
X97651508Y-4300000D01*
X97848492Y-4300000D01*
X97848495Y-4299999D01*
X98041681Y-4261572D01*
X98041693Y-4261569D01*
X98223676Y-4186190D01*
X98223680Y-4186187D01*
X98259019Y-4162573D01*
X98259020Y-4162572D01*
X97838585Y-3742137D01*
X97923694Y-3719333D01*
X98026306Y-3660090D01*
X98110090Y-3576306D01*
X98169333Y-3473694D01*
X98192138Y-3388585D01*
X98563181Y-3759628D01*
G37*
%TD.AperFunction*%
%TA.AperFunction,Conductor*%
G36*
X98693039Y-2269685D02*
G01*
X98738794Y-2322489D01*
X98750000Y-2374000D01*
X98750000Y-2667701D01*
X98730315Y-2734740D01*
X98677511Y-2780495D01*
X98613848Y-2791104D01*
X98612573Y-2790978D01*
X98192137Y-3211414D01*
X98169333Y-3126306D01*
X98110090Y-3023694D01*
X98026306Y-2939910D01*
X97923694Y-2880667D01*
X97838584Y-2857861D01*
X98259020Y-2437425D01*
X98253971Y-2386153D01*
X98256786Y-2371308D01*
X98254636Y-2356353D01*
X98263165Y-2337675D01*
X98266991Y-2317507D01*
X98277383Y-2306542D01*
X98283661Y-2292797D01*
X98300933Y-2281696D01*
X98315056Y-2266797D01*
X98330664Y-2262589D01*
X98342439Y-2255023D01*
X98377374Y-2250000D01*
X98626000Y-2250000D01*
X98693039Y-2269685D01*
G37*
%TD.AperFunction*%
%TD*%
%TA.AperFunction,Conductor*%
%TO.N,+3V3*%
G36*
X77143713Y-519407D02*
G01*
X77179677Y-568907D01*
X77179677Y-630093D01*
X77155525Y-669504D01*
X76904524Y-920504D01*
X76850008Y-948281D01*
X76834521Y-949500D01*
X53539562Y-949500D01*
X53460438Y-949500D01*
X53413661Y-962033D01*
X53384007Y-969979D01*
X53315493Y-1009536D01*
X51154525Y-3170504D01*
X51100008Y-3198281D01*
X51084521Y-3199500D01*
X48912967Y-3199500D01*
X48854776Y-3180593D01*
X48842964Y-3170504D01*
X48791966Y-3119507D01*
X48791964Y-3119505D01*
X48683536Y-3056905D01*
X48562601Y-3024500D01*
X48437399Y-3024500D01*
X48356775Y-3046103D01*
X48316463Y-3056905D01*
X48208036Y-3119505D01*
X48119505Y-3208036D01*
X48056905Y-3316463D01*
X48056905Y-3316464D01*
X48024500Y-3437399D01*
X48024500Y-3562601D01*
X48056905Y-3683536D01*
X48119505Y-3791964D01*
X48208036Y-3880495D01*
X48316464Y-3943095D01*
X48437399Y-3975500D01*
X48437401Y-3975500D01*
X48562599Y-3975500D01*
X48562601Y-3975500D01*
X48683536Y-3943095D01*
X48791964Y-3880495D01*
X48817465Y-3854994D01*
X48842964Y-3829496D01*
X48897481Y-3801719D01*
X48912967Y-3800500D01*
X51289563Y-3800500D01*
X51289563Y-3800499D01*
X51365989Y-3780021D01*
X51434511Y-3740460D01*
X51490460Y-3684511D01*
X53595475Y-1579496D01*
X53649992Y-1551719D01*
X53665479Y-1550500D01*
X76039635Y-1550500D01*
X76097826Y-1569407D01*
X76133790Y-1618907D01*
X76133790Y-1680093D01*
X76122208Y-1702104D01*
X76122750Y-1702417D01*
X76119506Y-1708034D01*
X76119505Y-1708036D01*
X76093603Y-1752900D01*
X76056905Y-1816463D01*
X76056905Y-1816464D01*
X76024500Y-1937399D01*
X76024500Y-2062601D01*
X76056905Y-2183536D01*
X76119505Y-2291964D01*
X76208036Y-2380495D01*
X76316464Y-2443095D01*
X76437399Y-2475500D01*
X76437401Y-2475500D01*
X76562599Y-2475500D01*
X76562601Y-2475500D01*
X76683536Y-2443095D01*
X76791964Y-2380495D01*
X76880495Y-2291964D01*
X76943095Y-2183536D01*
X76975500Y-2062601D01*
X76975500Y-1937399D01*
X76943095Y-1816464D01*
X76880495Y-1708036D01*
X76880492Y-1708033D01*
X76877250Y-1702417D01*
X76878886Y-1701472D01*
X76861399Y-1652092D01*
X76878776Y-1593426D01*
X76927317Y-1556179D01*
X76960365Y-1550500D01*
X77039563Y-1550500D01*
X77039563Y-1550499D01*
X77115989Y-1530021D01*
X77184511Y-1490460D01*
X77240460Y-1434511D01*
X77598875Y-1076096D01*
X77653392Y-1048319D01*
X77668879Y-1047100D01*
X78000500Y-1047100D01*
X78058691Y-1066007D01*
X78094655Y-1115507D01*
X78099500Y-1146100D01*
X78099500Y-2269746D01*
X78099501Y-2269758D01*
X78111132Y-2328227D01*
X78111134Y-2328233D01*
X78144480Y-2378138D01*
X78151276Y-2402236D01*
X78160860Y-2425371D01*
X78159453Y-2431228D01*
X78161089Y-2437026D01*
X78152421Y-2460520D01*
X78146577Y-2484866D01*
X78141997Y-2488777D01*
X78139912Y-2494430D01*
X78100052Y-2524603D01*
X78042867Y-2548291D01*
X78042866Y-2548292D01*
X77968191Y-2579223D01*
X77904087Y-2622057D01*
X77904086Y-2622058D01*
X77853460Y-2655884D01*
X76238839Y-4270504D01*
X76184322Y-4298281D01*
X76168835Y-4299500D01*
X74950139Y-4299500D01*
X74891948Y-4280593D01*
X74855984Y-4231093D01*
X74855984Y-4169907D01*
X74880133Y-4130498D01*
X74915977Y-4094655D01*
X75030941Y-3922598D01*
X75110130Y-3731420D01*
X75150500Y-3528465D01*
X75150500Y-3071535D01*
X75110130Y-2868580D01*
X75030941Y-2677402D01*
X74915977Y-2505345D01*
X74769655Y-2359023D01*
X74769651Y-2359020D01*
X74597597Y-2244058D01*
X74406418Y-2164869D01*
X74203467Y-2124500D01*
X74203465Y-2124500D01*
X73996535Y-2124500D01*
X73996532Y-2124500D01*
X73793581Y-2164869D01*
X73602402Y-2244058D01*
X73430348Y-2359020D01*
X73284020Y-2505348D01*
X73169058Y-2677402D01*
X73089869Y-2868581D01*
X73049500Y-3071532D01*
X73049500Y-3528467D01*
X73089869Y-3731418D01*
X73169058Y-3922597D01*
X73267513Y-4069946D01*
X73284023Y-4094655D01*
X73319866Y-4130498D01*
X73347642Y-4185013D01*
X73338071Y-4245445D01*
X73294806Y-4288710D01*
X73249861Y-4299500D01*
X72450139Y-4299500D01*
X72391948Y-4280593D01*
X72355984Y-4231093D01*
X72355984Y-4169907D01*
X72380133Y-4130498D01*
X72415977Y-4094655D01*
X72530941Y-3922598D01*
X72610130Y-3731420D01*
X72650500Y-3528465D01*
X72650500Y-3071535D01*
X72610130Y-2868580D01*
X72530941Y-2677402D01*
X72415977Y-2505345D01*
X72269655Y-2359023D01*
X72269651Y-2359020D01*
X72097597Y-2244058D01*
X71906418Y-2164869D01*
X71703467Y-2124500D01*
X71703465Y-2124500D01*
X71496535Y-2124500D01*
X71496532Y-2124500D01*
X71293581Y-2164869D01*
X71102402Y-2244058D01*
X70930348Y-2359020D01*
X70784020Y-2505348D01*
X70669058Y-2677402D01*
X70589869Y-2868581D01*
X70549500Y-3071532D01*
X70549500Y-3528467D01*
X70589869Y-3731418D01*
X70669058Y-3922597D01*
X70767513Y-4069946D01*
X70784023Y-4094655D01*
X70819866Y-4130498D01*
X70847642Y-4185013D01*
X70838071Y-4245445D01*
X70794806Y-4288710D01*
X70749861Y-4299500D01*
X69950139Y-4299500D01*
X69891948Y-4280593D01*
X69855984Y-4231093D01*
X69855984Y-4169907D01*
X69880133Y-4130498D01*
X69915977Y-4094655D01*
X70030941Y-3922598D01*
X70110130Y-3731420D01*
X70150500Y-3528465D01*
X70150500Y-3071535D01*
X70110130Y-2868580D01*
X70030941Y-2677402D01*
X69915977Y-2505345D01*
X69769655Y-2359023D01*
X69769651Y-2359020D01*
X69597597Y-2244058D01*
X69406418Y-2164869D01*
X69203467Y-2124500D01*
X69203465Y-2124500D01*
X68996535Y-2124500D01*
X68996532Y-2124500D01*
X68793581Y-2164869D01*
X68602402Y-2244058D01*
X68430348Y-2359020D01*
X68284020Y-2505348D01*
X68169058Y-2677402D01*
X68089869Y-2868581D01*
X68049500Y-3071532D01*
X68049500Y-3528467D01*
X68089869Y-3731418D01*
X68169058Y-3922597D01*
X68267513Y-4069946D01*
X68284023Y-4094655D01*
X68319866Y-4130498D01*
X68347642Y-4185013D01*
X68338071Y-4245445D01*
X68294806Y-4288710D01*
X68249861Y-4299500D01*
X67450139Y-4299500D01*
X67391948Y-4280593D01*
X67355984Y-4231093D01*
X67355984Y-4169907D01*
X67380133Y-4130498D01*
X67415977Y-4094655D01*
X67530941Y-3922598D01*
X67610130Y-3731420D01*
X67650500Y-3528465D01*
X67650500Y-3071535D01*
X67610130Y-2868580D01*
X67530941Y-2677402D01*
X67415977Y-2505345D01*
X67269655Y-2359023D01*
X67269651Y-2359020D01*
X67097597Y-2244058D01*
X66906418Y-2164869D01*
X66703467Y-2124500D01*
X66703465Y-2124500D01*
X66496535Y-2124500D01*
X66496532Y-2124500D01*
X66293581Y-2164869D01*
X66102402Y-2244058D01*
X65930348Y-2359020D01*
X65784020Y-2505348D01*
X65669058Y-2677402D01*
X65589869Y-2868581D01*
X65549500Y-3071532D01*
X65549500Y-3528467D01*
X65589869Y-3731418D01*
X65669058Y-3922597D01*
X65767513Y-4069946D01*
X65784023Y-4094655D01*
X65819866Y-4130498D01*
X65847642Y-4185013D01*
X65838071Y-4245445D01*
X65794806Y-4288710D01*
X65749861Y-4299500D01*
X64950139Y-4299500D01*
X64891948Y-4280593D01*
X64855984Y-4231093D01*
X64855984Y-4169907D01*
X64880133Y-4130498D01*
X64915977Y-4094655D01*
X65030941Y-3922598D01*
X65110130Y-3731420D01*
X65150500Y-3528465D01*
X65150500Y-3071535D01*
X65110130Y-2868580D01*
X65030941Y-2677402D01*
X64915977Y-2505345D01*
X64769655Y-2359023D01*
X64769651Y-2359020D01*
X64597597Y-2244058D01*
X64406418Y-2164869D01*
X64203467Y-2124500D01*
X64203465Y-2124500D01*
X63996535Y-2124500D01*
X63996532Y-2124500D01*
X63793581Y-2164869D01*
X63602402Y-2244058D01*
X63430348Y-2359020D01*
X63284020Y-2505348D01*
X63169058Y-2677402D01*
X63089869Y-2868581D01*
X63049500Y-3071532D01*
X63049500Y-3528467D01*
X63089869Y-3731418D01*
X63169058Y-3922597D01*
X63267513Y-4069946D01*
X63284023Y-4094655D01*
X63319866Y-4130498D01*
X63347642Y-4185013D01*
X63338071Y-4245445D01*
X63294806Y-4288710D01*
X63249861Y-4299500D01*
X62450139Y-4299500D01*
X62391948Y-4280593D01*
X62355984Y-4231093D01*
X62355984Y-4169907D01*
X62380133Y-4130498D01*
X62415977Y-4094655D01*
X62530941Y-3922598D01*
X62610130Y-3731420D01*
X62650500Y-3528465D01*
X62650500Y-3071535D01*
X62610130Y-2868580D01*
X62530941Y-2677402D01*
X62415977Y-2505345D01*
X62269655Y-2359023D01*
X62269651Y-2359020D01*
X62097597Y-2244058D01*
X61906418Y-2164869D01*
X61703467Y-2124500D01*
X61703465Y-2124500D01*
X61496535Y-2124500D01*
X61496532Y-2124500D01*
X61293581Y-2164869D01*
X61102402Y-2244058D01*
X60930348Y-2359020D01*
X60784020Y-2505348D01*
X60681316Y-2659058D01*
X60633266Y-2696938D01*
X60572128Y-2699340D01*
X60521254Y-2665348D01*
X60500076Y-2607944D01*
X60500000Y-2604057D01*
X60500000Y-2500001D01*
X60500000Y-2500000D01*
X59750000Y-1750000D01*
X58500000Y-1750000D01*
X58125500Y-2124500D01*
X57788102Y-2461898D01*
X57733585Y-2489675D01*
X57673153Y-2480104D01*
X57629888Y-2436839D01*
X57624654Y-2424592D01*
X57602792Y-2362116D01*
X57522154Y-2252855D01*
X57522152Y-2252853D01*
X57522150Y-2252850D01*
X57522146Y-2252847D01*
X57522144Y-2252845D01*
X57412883Y-2172207D01*
X57284703Y-2127355D01*
X57284694Y-2127353D01*
X57254274Y-2124500D01*
X57254266Y-2124500D01*
X55945734Y-2124500D01*
X55945725Y-2124500D01*
X55915305Y-2127353D01*
X55915296Y-2127355D01*
X55787116Y-2172207D01*
X55677855Y-2252845D01*
X55677845Y-2252855D01*
X55597207Y-2362116D01*
X55552355Y-2490296D01*
X55552353Y-2490305D01*
X55549500Y-2520725D01*
X55549500Y-4031811D01*
X55530593Y-4090002D01*
X55481093Y-4125966D01*
X55419907Y-4125966D01*
X55412615Y-4123275D01*
X55255374Y-4058145D01*
X55086231Y-4024500D01*
X55086229Y-4024500D01*
X54913771Y-4024500D01*
X54913768Y-4024500D01*
X54744626Y-4058145D01*
X54744624Y-4058145D01*
X54585299Y-4124139D01*
X54585287Y-4124145D01*
X54441901Y-4219955D01*
X54441897Y-4219958D01*
X54319958Y-4341897D01*
X54319955Y-4341901D01*
X54224145Y-4485287D01*
X54224139Y-4485299D01*
X54158145Y-4644624D01*
X54158145Y-4644626D01*
X54124500Y-4813768D01*
X54124500Y-4986231D01*
X54158145Y-5155373D01*
X54158145Y-5155375D01*
X54224139Y-5314700D01*
X54224145Y-5314712D01*
X54264076Y-5374471D01*
X54319955Y-5458099D01*
X54441901Y-5580045D01*
X54502855Y-5620773D01*
X54585287Y-5675854D01*
X54585299Y-5675860D01*
X54644153Y-5700238D01*
X54744626Y-5741855D01*
X54913771Y-5775500D01*
X54913772Y-5775500D01*
X55063034Y-5775500D01*
X55121225Y-5794407D01*
X55157189Y-5843907D01*
X55157189Y-5905093D01*
X55133039Y-5944501D01*
X55119505Y-5958036D01*
X55056905Y-6066463D01*
X55056905Y-6066464D01*
X55024500Y-6187399D01*
X55024500Y-6312601D01*
X55056905Y-6433536D01*
X55119505Y-6541964D01*
X55208036Y-6630495D01*
X55316464Y-6693095D01*
X55437399Y-6725500D01*
X55437401Y-6725500D01*
X55562599Y-6725500D01*
X55562601Y-6725500D01*
X55611494Y-6712399D01*
X70295355Y-6712399D01*
X70295355Y-6837601D01*
X70327760Y-6958536D01*
X70390360Y-7066964D01*
X70478891Y-7155495D01*
X70587319Y-7218095D01*
X70708254Y-7250500D01*
X70708256Y-7250500D01*
X70833454Y-7250500D01*
X70833456Y-7250500D01*
X70954391Y-7218095D01*
X71062819Y-7155495D01*
X71151350Y-7066964D01*
X71213950Y-6958536D01*
X71246355Y-6837601D01*
X71246355Y-6712399D01*
X78524500Y-6712399D01*
X78524500Y-6837601D01*
X78556905Y-6958536D01*
X78619505Y-7066964D01*
X78708036Y-7155495D01*
X78816464Y-7218095D01*
X78937399Y-7250500D01*
X78937401Y-7250500D01*
X79062599Y-7250500D01*
X79062601Y-7250500D01*
X79183536Y-7218095D01*
X79291964Y-7155495D01*
X79380495Y-7066964D01*
X79443095Y-6958536D01*
X79475500Y-6837601D01*
X79475500Y-6712399D01*
X79443095Y-6591464D01*
X79380495Y-6483036D01*
X79291964Y-6394505D01*
X79183536Y-6331905D01*
X79062601Y-6299500D01*
X78937399Y-6299500D01*
X78895050Y-6310847D01*
X78855216Y-6321521D01*
X78855214Y-6321521D01*
X78816464Y-6331905D01*
X78725899Y-6384192D01*
X78708036Y-6394505D01*
X78619505Y-6483036D01*
X78556905Y-6591463D01*
X78556905Y-6591464D01*
X78524500Y-6712399D01*
X71246355Y-6712399D01*
X71213950Y-6591464D01*
X71151350Y-6483036D01*
X71062819Y-6394505D01*
X70954391Y-6331905D01*
X70833456Y-6299500D01*
X70708254Y-6299500D01*
X70627630Y-6321103D01*
X70587318Y-6331905D01*
X70478891Y-6394505D01*
X70390360Y-6483036D01*
X70327760Y-6591463D01*
X70327760Y-6591464D01*
X70295355Y-6712399D01*
X55611494Y-6712399D01*
X55683536Y-6693095D01*
X55791964Y-6630495D01*
X55880495Y-6541964D01*
X55943095Y-6433536D01*
X55975500Y-6312601D01*
X55975500Y-6187399D01*
X55943095Y-6066464D01*
X55880495Y-5958036D01*
X55791964Y-5869505D01*
X55683536Y-5806905D01*
X55683533Y-5806904D01*
X55683532Y-5806903D01*
X55562716Y-5774530D01*
X55511402Y-5741206D01*
X55489476Y-5684084D01*
X55505312Y-5624984D01*
X55533335Y-5596591D01*
X55558099Y-5580045D01*
X55680045Y-5458099D01*
X55748188Y-5356115D01*
X55775854Y-5314712D01*
X55775860Y-5314700D01*
X55792511Y-5274500D01*
X55841855Y-5155374D01*
X55875500Y-4986229D01*
X55875500Y-4813771D01*
X55841855Y-4644626D01*
X55827646Y-4610322D01*
X55822846Y-4549325D01*
X55854815Y-4497156D01*
X55911343Y-4473742D01*
X55928352Y-4473869D01*
X55938132Y-4474787D01*
X55945730Y-4475500D01*
X55945734Y-4475500D01*
X56193835Y-4475500D01*
X56252026Y-4494407D01*
X56263839Y-4504496D01*
X57303457Y-5544114D01*
X57418189Y-5620775D01*
X57545672Y-5673580D01*
X57681006Y-5700500D01*
X57681007Y-5700500D01*
X64208958Y-5700500D01*
X64267149Y-5719407D01*
X64303113Y-5768907D01*
X64304584Y-5825122D01*
X64274500Y-5937399D01*
X64274500Y-6062601D01*
X64306905Y-6183536D01*
X64369505Y-6291964D01*
X64458036Y-6380495D01*
X64566464Y-6443095D01*
X64687399Y-6475500D01*
X64687401Y-6475500D01*
X64812599Y-6475500D01*
X64812601Y-6475500D01*
X64933536Y-6443095D01*
X65041964Y-6380495D01*
X65130495Y-6291964D01*
X65193095Y-6183536D01*
X65225500Y-6062601D01*
X65225500Y-5937399D01*
X65195415Y-5825122D01*
X65198617Y-5764022D01*
X65237122Y-5716472D01*
X65291042Y-5700500D01*
X66458958Y-5700500D01*
X66517149Y-5719407D01*
X66553113Y-5768907D01*
X66554584Y-5825122D01*
X66524500Y-5937399D01*
X66524500Y-6062601D01*
X66556905Y-6183536D01*
X66619505Y-6291964D01*
X66708036Y-6380495D01*
X66816464Y-6443095D01*
X66937399Y-6475500D01*
X66937401Y-6475500D01*
X67062599Y-6475500D01*
X67062601Y-6475500D01*
X67183536Y-6443095D01*
X67291964Y-6380495D01*
X67380495Y-6291964D01*
X67443095Y-6183536D01*
X67475500Y-6062601D01*
X67475500Y-5937399D01*
X67445415Y-5825122D01*
X67448617Y-5764022D01*
X67487122Y-5716472D01*
X67541042Y-5700500D01*
X68958958Y-5700500D01*
X69017149Y-5719407D01*
X69053113Y-5768907D01*
X69054584Y-5825122D01*
X69024500Y-5937399D01*
X69024500Y-6062601D01*
X69056905Y-6183536D01*
X69119505Y-6291964D01*
X69208036Y-6380495D01*
X69316464Y-6443095D01*
X69437399Y-6475500D01*
X69437401Y-6475500D01*
X69562599Y-6475500D01*
X69562601Y-6475500D01*
X69683536Y-6443095D01*
X69791964Y-6380495D01*
X69880495Y-6291964D01*
X69943095Y-6183536D01*
X69975500Y-6062601D01*
X69975500Y-5937399D01*
X69945415Y-5825122D01*
X69948617Y-5764022D01*
X69987122Y-5716472D01*
X70041042Y-5700500D01*
X76568993Y-5700500D01*
X76568994Y-5700500D01*
X76634856Y-5687399D01*
X78024500Y-5687399D01*
X78024500Y-5812601D01*
X78056905Y-5933536D01*
X78119505Y-6041964D01*
X78208036Y-6130495D01*
X78316464Y-6193095D01*
X78437399Y-6225500D01*
X78437401Y-6225500D01*
X78562602Y-6225500D01*
X78562602Y-6225499D01*
X78683536Y-6193095D01*
X78791964Y-6130495D01*
X78880495Y-6041964D01*
X78943095Y-5933536D01*
X78975500Y-5812601D01*
X78975500Y-5687399D01*
X78943095Y-5566464D01*
X78880495Y-5458036D01*
X78791964Y-5369505D01*
X78683536Y-5306905D01*
X78562601Y-5274500D01*
X78437399Y-5274500D01*
X78356775Y-5296103D01*
X78316463Y-5306905D01*
X78208036Y-5369505D01*
X78119505Y-5458036D01*
X78056905Y-5566463D01*
X78056905Y-5566464D01*
X78024500Y-5687399D01*
X76634856Y-5687399D01*
X76704328Y-5673580D01*
X76831811Y-5620775D01*
X76853836Y-5606057D01*
X76864972Y-5598618D01*
X76865007Y-5598594D01*
X76946543Y-5544114D01*
X78561160Y-3929495D01*
X78615677Y-3901719D01*
X78631164Y-3900500D01*
X83981251Y-3900500D01*
X84039442Y-3919407D01*
X84075406Y-3968907D01*
X84075406Y-4030093D01*
X84066988Y-4048998D01*
X84056907Y-4066459D01*
X84056906Y-4066460D01*
X84056905Y-4066464D01*
X84024500Y-4187399D01*
X84024500Y-4312601D01*
X84056905Y-4433536D01*
X84119505Y-4541964D01*
X84208036Y-4630495D01*
X84316464Y-4693095D01*
X84437399Y-4725500D01*
X84437401Y-4725500D01*
X84562599Y-4725500D01*
X84562601Y-4725500D01*
X84683536Y-4693095D01*
X84791964Y-4630495D01*
X84880495Y-4541964D01*
X84943095Y-4433536D01*
X84975500Y-4312601D01*
X84975500Y-4187399D01*
X84943095Y-4066464D01*
X84938292Y-4058145D01*
X84933012Y-4048998D01*
X84920292Y-3989150D01*
X84945179Y-3933255D01*
X84998167Y-3902663D01*
X85018749Y-3900500D01*
X87388034Y-3900500D01*
X87446225Y-3919407D01*
X87482189Y-3968907D01*
X87482189Y-4030093D01*
X87458039Y-4069501D01*
X87437539Y-4090002D01*
X87419505Y-4108036D01*
X87356905Y-4216463D01*
X87355969Y-4219958D01*
X87324500Y-4337399D01*
X87324500Y-4462601D01*
X87356905Y-4583536D01*
X87419505Y-4691964D01*
X87508036Y-4780495D01*
X87616464Y-4843095D01*
X87737399Y-4875500D01*
X87737401Y-4875500D01*
X87862599Y-4875500D01*
X87862601Y-4875500D01*
X87983536Y-4843095D01*
X88070341Y-4792978D01*
X88130188Y-4780258D01*
X88145463Y-4783090D01*
X88182370Y-4792979D01*
X88210435Y-4800499D01*
X88210437Y-4800500D01*
X90151000Y-4800500D01*
X90209191Y-4819407D01*
X90245155Y-4868907D01*
X90250000Y-4899500D01*
X90250000Y-11458992D01*
X90231093Y-11517183D01*
X90221004Y-11528996D01*
X87000000Y-14750000D01*
X87000000Y-16750000D01*
X88250000Y-18000000D01*
X89208992Y-18000000D01*
X89267183Y-18018907D01*
X89278996Y-18028996D01*
X96000000Y-24750000D01*
X94451000Y-25524500D01*
X94437399Y-25524500D01*
X94372224Y-25541964D01*
X94316463Y-25556905D01*
X94208036Y-25619505D01*
X94155082Y-25672459D01*
X91500000Y-27000000D01*
X91500000Y-29494500D01*
X90148084Y-29494500D01*
X90094060Y-29497396D01*
X90094051Y-29497396D01*
X90094046Y-29497397D01*
X90094039Y-29497397D01*
X90094036Y-29497398D01*
X90078714Y-29499045D01*
X90018836Y-29486464D01*
X89977789Y-29441091D01*
X89972510Y-29426241D01*
X89943095Y-29316464D01*
X89880495Y-29208036D01*
X89791964Y-29119505D01*
X89683536Y-29056905D01*
X89562601Y-29024500D01*
X89437399Y-29024500D01*
X89372224Y-29041964D01*
X89316463Y-29056905D01*
X89208036Y-29119505D01*
X89119505Y-29208036D01*
X89056905Y-29316463D01*
X89056905Y-29316464D01*
X89024500Y-29437399D01*
X89024500Y-29562601D01*
X89056905Y-29683536D01*
X89119505Y-29791964D01*
X89119507Y-29791966D01*
X89119510Y-29791971D01*
X89123456Y-29797114D01*
X89120914Y-29799064D01*
X89142779Y-29841977D01*
X89133208Y-29902409D01*
X89104330Y-29936715D01*
X89080740Y-29954375D01*
X86931877Y-32103237D01*
X86931874Y-32103240D01*
X86866532Y-32183589D01*
X86866527Y-32183597D01*
X86838818Y-32225879D01*
X86818463Y-32265220D01*
X86774929Y-32308214D01*
X86714439Y-32317408D01*
X86689850Y-32308614D01*
X86689530Y-32309388D01*
X86683539Y-32306906D01*
X86683536Y-32306905D01*
X86562601Y-32274500D01*
X86437399Y-32274500D01*
X86358468Y-32295650D01*
X86316463Y-32306905D01*
X86208036Y-32369505D01*
X86119499Y-32458042D01*
X86117022Y-32461271D01*
X86066596Y-32495924D01*
X86038483Y-32500000D01*
X77750000Y-32500000D01*
X71599000Y-32500000D01*
X71540809Y-32481093D01*
X71504845Y-32431593D01*
X71500000Y-32401000D01*
X71500000Y-31500001D01*
X71500000Y-31500000D01*
X70437399Y-30437399D01*
X75274500Y-30437399D01*
X75274500Y-30562601D01*
X75306905Y-30683536D01*
X75369505Y-30791964D01*
X75458036Y-30880495D01*
X75566464Y-30943095D01*
X75687399Y-30975500D01*
X75687401Y-30975500D01*
X75812599Y-30975500D01*
X75812601Y-30975500D01*
X75933536Y-30943095D01*
X76041964Y-30880495D01*
X76130495Y-30791964D01*
X76193095Y-30683536D01*
X76225500Y-30562601D01*
X76225500Y-30437399D01*
X76524500Y-30437399D01*
X76524500Y-30562601D01*
X76556905Y-30683536D01*
X76619505Y-30791964D01*
X76708036Y-30880495D01*
X76816464Y-30943095D01*
X76937399Y-30975500D01*
X76937401Y-30975500D01*
X77062599Y-30975500D01*
X77062601Y-30975500D01*
X77183536Y-30943095D01*
X77291964Y-30880495D01*
X77380495Y-30791964D01*
X77443095Y-30683536D01*
X77475500Y-30562601D01*
X77475500Y-30437399D01*
X78274500Y-30437399D01*
X78274500Y-30562601D01*
X78306905Y-30683536D01*
X78369505Y-30791964D01*
X78458036Y-30880495D01*
X78566464Y-30943095D01*
X78687399Y-30975500D01*
X78687401Y-30975500D01*
X78812599Y-30975500D01*
X78812601Y-30975500D01*
X78933536Y-30943095D01*
X79041964Y-30880495D01*
X79130495Y-30791964D01*
X79193095Y-30683536D01*
X79225500Y-30562601D01*
X79225500Y-30437399D01*
X79524500Y-30437399D01*
X79524500Y-30562601D01*
X79556905Y-30683536D01*
X79619505Y-30791964D01*
X79708036Y-30880495D01*
X79816464Y-30943095D01*
X79937399Y-30975500D01*
X79937401Y-30975500D01*
X80062599Y-30975500D01*
X80062601Y-30975500D01*
X80183536Y-30943095D01*
X80193402Y-30937399D01*
X83524500Y-30937399D01*
X83524500Y-31062601D01*
X83556905Y-31183536D01*
X83619505Y-31291964D01*
X83708036Y-31380495D01*
X83816464Y-31443095D01*
X83937399Y-31475500D01*
X83937401Y-31475500D01*
X84062599Y-31475500D01*
X84062601Y-31475500D01*
X84183536Y-31443095D01*
X84291964Y-31380495D01*
X84380495Y-31291964D01*
X84443095Y-31183536D01*
X84475500Y-31062601D01*
X84475500Y-30937399D01*
X84443095Y-30816464D01*
X84380495Y-30708036D01*
X84291964Y-30619505D01*
X84183536Y-30556905D01*
X84062601Y-30524500D01*
X83937399Y-30524500D01*
X83856775Y-30546103D01*
X83816463Y-30556905D01*
X83708036Y-30619505D01*
X83619505Y-30708036D01*
X83556905Y-30816463D01*
X83556905Y-30816464D01*
X83524500Y-30937399D01*
X80193402Y-30937399D01*
X80291964Y-30880495D01*
X80380495Y-30791964D01*
X80443095Y-30683536D01*
X80475500Y-30562601D01*
X80475500Y-30437399D01*
X80443095Y-30316464D01*
X80380495Y-30208036D01*
X80291964Y-30119505D01*
X80183536Y-30056905D01*
X80062601Y-30024500D01*
X79937399Y-30024500D01*
X79856775Y-30046103D01*
X79816463Y-30056905D01*
X79708036Y-30119505D01*
X79619505Y-30208036D01*
X79556905Y-30316463D01*
X79546103Y-30356775D01*
X79524500Y-30437399D01*
X79225500Y-30437399D01*
X79193095Y-30316464D01*
X79130495Y-30208036D01*
X79041964Y-30119505D01*
X78933536Y-30056905D01*
X78812601Y-30024500D01*
X78687399Y-30024500D01*
X78606775Y-30046103D01*
X78566463Y-30056905D01*
X78458036Y-30119505D01*
X78369505Y-30208036D01*
X78306905Y-30316463D01*
X78296103Y-30356775D01*
X78274500Y-30437399D01*
X77475500Y-30437399D01*
X77443095Y-30316464D01*
X77380495Y-30208036D01*
X77291964Y-30119505D01*
X77183536Y-30056905D01*
X77062601Y-30024500D01*
X76937399Y-30024500D01*
X76856775Y-30046103D01*
X76816463Y-30056905D01*
X76708036Y-30119505D01*
X76619505Y-30208036D01*
X76556905Y-30316463D01*
X76546103Y-30356775D01*
X76524500Y-30437399D01*
X76225500Y-30437399D01*
X76193095Y-30316464D01*
X76130495Y-30208036D01*
X76041964Y-30119505D01*
X75933536Y-30056905D01*
X75812601Y-30024500D01*
X75687399Y-30024500D01*
X75606775Y-30046103D01*
X75566463Y-30056905D01*
X75458036Y-30119505D01*
X75369505Y-30208036D01*
X75306905Y-30316463D01*
X75296103Y-30356775D01*
X75274500Y-30437399D01*
X70437399Y-30437399D01*
X69437399Y-29437399D01*
X85024716Y-29437399D01*
X85024716Y-29562601D01*
X85057121Y-29683536D01*
X85119721Y-29791964D01*
X85208252Y-29880495D01*
X85316680Y-29943095D01*
X85437615Y-29975500D01*
X85437617Y-29975500D01*
X85562815Y-29975500D01*
X85562817Y-29975500D01*
X85683752Y-29943095D01*
X85792180Y-29880495D01*
X85880711Y-29791964D01*
X85943311Y-29683536D01*
X85975716Y-29562601D01*
X85975716Y-29437399D01*
X85943311Y-29316464D01*
X85880711Y-29208036D01*
X85792180Y-29119505D01*
X85683752Y-29056905D01*
X85562817Y-29024500D01*
X85437615Y-29024500D01*
X85372440Y-29041964D01*
X85316679Y-29056905D01*
X85208252Y-29119505D01*
X85119721Y-29208036D01*
X85057121Y-29316463D01*
X85057121Y-29316464D01*
X85024716Y-29437399D01*
X69437399Y-29437399D01*
X68687399Y-28687399D01*
X69774500Y-28687399D01*
X69774500Y-28812601D01*
X69806905Y-28933536D01*
X69869505Y-29041964D01*
X69958036Y-29130495D01*
X70066464Y-29193095D01*
X70187399Y-29225500D01*
X70187401Y-29225500D01*
X70312599Y-29225500D01*
X70312601Y-29225500D01*
X70433536Y-29193095D01*
X70541964Y-29130495D01*
X70630495Y-29041964D01*
X70693095Y-28933536D01*
X70725500Y-28812601D01*
X70725500Y-28687399D01*
X70693095Y-28566464D01*
X70630495Y-28458036D01*
X70541964Y-28369505D01*
X70433536Y-28306905D01*
X70312601Y-28274500D01*
X70187399Y-28274500D01*
X70106775Y-28296103D01*
X70066463Y-28306905D01*
X69958036Y-28369505D01*
X69869505Y-28458036D01*
X69806905Y-28566463D01*
X69806905Y-28566464D01*
X69774500Y-28687399D01*
X68687399Y-28687399D01*
X67687399Y-27687399D01*
X87524500Y-27687399D01*
X87524500Y-27812601D01*
X87556905Y-27933536D01*
X87619505Y-28041964D01*
X87708036Y-28130495D01*
X87816464Y-28193095D01*
X87937399Y-28225500D01*
X87937401Y-28225500D01*
X88062599Y-28225500D01*
X88062601Y-28225500D01*
X88183536Y-28193095D01*
X88291964Y-28130495D01*
X88380495Y-28041964D01*
X88443095Y-27933536D01*
X88475500Y-27812601D01*
X88475500Y-27687399D01*
X88443095Y-27566464D01*
X88380495Y-27458036D01*
X88291964Y-27369505D01*
X88183536Y-27306905D01*
X88062601Y-27274500D01*
X87937399Y-27274500D01*
X87856775Y-27296103D01*
X87816463Y-27306905D01*
X87708036Y-27369505D01*
X87619505Y-27458036D01*
X87556905Y-27566463D01*
X87553145Y-27580495D01*
X87524500Y-27687399D01*
X67687399Y-27687399D01*
X67137399Y-27137399D01*
X90224500Y-27137399D01*
X90224500Y-27262601D01*
X90256905Y-27383536D01*
X90319505Y-27491964D01*
X90408036Y-27580495D01*
X90516464Y-27643095D01*
X90637399Y-27675500D01*
X90637401Y-27675500D01*
X90762599Y-27675500D01*
X90762601Y-27675500D01*
X90883536Y-27643095D01*
X90991964Y-27580495D01*
X91080495Y-27491964D01*
X91143095Y-27383536D01*
X91175500Y-27262601D01*
X91175500Y-27137399D01*
X91143095Y-27016464D01*
X91080495Y-26908036D01*
X90991964Y-26819505D01*
X90883536Y-26756905D01*
X90762601Y-26724500D01*
X90637399Y-26724500D01*
X90556775Y-26746103D01*
X90516463Y-26756905D01*
X90408036Y-26819505D01*
X90319505Y-26908036D01*
X90256905Y-27016463D01*
X90256905Y-27016464D01*
X90224500Y-27137399D01*
X67137399Y-27137399D01*
X65187399Y-25187399D01*
X66274500Y-25187399D01*
X66274500Y-25312601D01*
X66306905Y-25433536D01*
X66369505Y-25541964D01*
X66458036Y-25630495D01*
X66566464Y-25693095D01*
X66687399Y-25725500D01*
X66687401Y-25725500D01*
X66812599Y-25725500D01*
X66812601Y-25725500D01*
X66933536Y-25693095D01*
X66943402Y-25687399D01*
X67874500Y-25687399D01*
X67874500Y-25812601D01*
X67906905Y-25933536D01*
X67969505Y-26041964D01*
X68058036Y-26130495D01*
X68166464Y-26193095D01*
X68287399Y-26225500D01*
X68287401Y-26225500D01*
X68412599Y-26225500D01*
X68412601Y-26225500D01*
X68533536Y-26193095D01*
X68641964Y-26130495D01*
X68730495Y-26041964D01*
X68793095Y-25933536D01*
X68825500Y-25812601D01*
X68825500Y-25687399D01*
X71024500Y-25687399D01*
X71024500Y-25812601D01*
X71056905Y-25933536D01*
X71119505Y-26041964D01*
X71208036Y-26130495D01*
X71316464Y-26193095D01*
X71437399Y-26225500D01*
X71437401Y-26225500D01*
X71562599Y-26225500D01*
X71562601Y-26225500D01*
X71683536Y-26193095D01*
X71791964Y-26130495D01*
X71880495Y-26041964D01*
X71943095Y-25933536D01*
X71975500Y-25812601D01*
X71975500Y-25687399D01*
X71943095Y-25566464D01*
X71880495Y-25458036D01*
X71791964Y-25369505D01*
X71687426Y-25309151D01*
X74210376Y-25309151D01*
X74210376Y-25434353D01*
X74242781Y-25555288D01*
X74305381Y-25663716D01*
X74393912Y-25752247D01*
X74484180Y-25804362D01*
X74525122Y-25849831D01*
X74531518Y-25910682D01*
X74530308Y-25915719D01*
X74524500Y-25937394D01*
X74524500Y-25937399D01*
X74524500Y-26062601D01*
X74556905Y-26183536D01*
X74619505Y-26291964D01*
X74708036Y-26380495D01*
X74816464Y-26443095D01*
X74937399Y-26475500D01*
X74937401Y-26475500D01*
X75062599Y-26475500D01*
X75062601Y-26475500D01*
X75183536Y-26443095D01*
X75291964Y-26380495D01*
X75380495Y-26291964D01*
X75440865Y-26187399D01*
X78524500Y-26187399D01*
X78524500Y-26312601D01*
X78556905Y-26433536D01*
X78619505Y-26541964D01*
X78708036Y-26630495D01*
X78816464Y-26693095D01*
X78937399Y-26725500D01*
X78937401Y-26725500D01*
X79062599Y-26725500D01*
X79062601Y-26725500D01*
X79183536Y-26693095D01*
X79291964Y-26630495D01*
X79380495Y-26541964D01*
X79443095Y-26433536D01*
X79475500Y-26312601D01*
X79475500Y-26187399D01*
X79443095Y-26066464D01*
X79380495Y-25958036D01*
X79291964Y-25869505D01*
X79183536Y-25806905D01*
X79062601Y-25774500D01*
X78937399Y-25774500D01*
X78856775Y-25796103D01*
X78816463Y-25806905D01*
X78708036Y-25869505D01*
X78619505Y-25958036D01*
X78556905Y-26066463D01*
X78556905Y-26066464D01*
X78524500Y-26187399D01*
X75440865Y-26187399D01*
X75443095Y-26183536D01*
X75475500Y-26062601D01*
X75475500Y-25937399D01*
X75443095Y-25816464D01*
X75380495Y-25708036D01*
X75291964Y-25619505D01*
X75201692Y-25567387D01*
X75160753Y-25521919D01*
X75154357Y-25461069D01*
X75155568Y-25456027D01*
X75161376Y-25434353D01*
X75161376Y-25309153D01*
X75161376Y-25309151D01*
X75128971Y-25188216D01*
X75066371Y-25079788D01*
X74977840Y-24991257D01*
X74869412Y-24928657D01*
X74869409Y-24928656D01*
X74869408Y-24928655D01*
X74861505Y-24926537D01*
X74861500Y-24926537D01*
X74748477Y-24896252D01*
X74623275Y-24896252D01*
X74542651Y-24917855D01*
X74502339Y-24928657D01*
X74393912Y-24991257D01*
X74305381Y-25079788D01*
X74242781Y-25188215D01*
X74232791Y-25225500D01*
X74210376Y-25309151D01*
X71687426Y-25309151D01*
X71683536Y-25306905D01*
X71562601Y-25274500D01*
X71437399Y-25274500D01*
X71356775Y-25296103D01*
X71316463Y-25306905D01*
X71208036Y-25369505D01*
X71119505Y-25458036D01*
X71056905Y-25566463D01*
X71056905Y-25566464D01*
X71024500Y-25687399D01*
X68825500Y-25687399D01*
X68793095Y-25566464D01*
X68730495Y-25458036D01*
X68641964Y-25369505D01*
X68533536Y-25306905D01*
X68412601Y-25274500D01*
X68287399Y-25274500D01*
X68206775Y-25296103D01*
X68166463Y-25306905D01*
X68058036Y-25369505D01*
X67969505Y-25458036D01*
X67906905Y-25566463D01*
X67906905Y-25566464D01*
X67874500Y-25687399D01*
X66943402Y-25687399D01*
X67041964Y-25630495D01*
X67130495Y-25541964D01*
X67193095Y-25433536D01*
X67225500Y-25312601D01*
X67225500Y-25187399D01*
X67193095Y-25066464D01*
X67130495Y-24958036D01*
X67041964Y-24869505D01*
X66986354Y-24837399D01*
X85024500Y-24837399D01*
X85024500Y-24962601D01*
X85056905Y-25083536D01*
X85119505Y-25191964D01*
X85208036Y-25280495D01*
X85316464Y-25343095D01*
X85437399Y-25375500D01*
X85437401Y-25375500D01*
X85562599Y-25375500D01*
X85562601Y-25375500D01*
X85683536Y-25343095D01*
X85791964Y-25280495D01*
X85880495Y-25191964D01*
X85943095Y-25083536D01*
X85975500Y-24962601D01*
X85975500Y-24837399D01*
X85943095Y-24716464D01*
X85880495Y-24608036D01*
X85791964Y-24519505D01*
X85683536Y-24456905D01*
X85562601Y-24424500D01*
X85437399Y-24424500D01*
X85356775Y-24446103D01*
X85316463Y-24456905D01*
X85208036Y-24519505D01*
X85119505Y-24608036D01*
X85056905Y-24716463D01*
X85056905Y-24716464D01*
X85024500Y-24837399D01*
X66986354Y-24837399D01*
X66933536Y-24806905D01*
X66812601Y-24774500D01*
X66687399Y-24774500D01*
X66606775Y-24796103D01*
X66566463Y-24806905D01*
X66458036Y-24869505D01*
X66369505Y-24958036D01*
X66306905Y-25066463D01*
X66306905Y-25066464D01*
X66274500Y-25187399D01*
X65187399Y-25187399D01*
X65000000Y-25000000D01*
X64999999Y-25000000D01*
X58804306Y-25000000D01*
X58746115Y-24981093D01*
X58710151Y-24931593D01*
X58708679Y-24875377D01*
X58725500Y-24812600D01*
X58725500Y-24687401D01*
X58725500Y-24687399D01*
X58693095Y-24566464D01*
X58630495Y-24458036D01*
X58541964Y-24369505D01*
X58433536Y-24306905D01*
X58312601Y-24274500D01*
X58187399Y-24274500D01*
X58106775Y-24296103D01*
X58066463Y-24306905D01*
X57958036Y-24369505D01*
X57869505Y-24458036D01*
X57806905Y-24566463D01*
X57806905Y-24566464D01*
X57774500Y-24687399D01*
X57774500Y-24687401D01*
X57774500Y-24812600D01*
X57791321Y-24875377D01*
X57788118Y-24936478D01*
X57749613Y-24984028D01*
X57695694Y-25000000D01*
X57291008Y-25000000D01*
X57232817Y-24981093D01*
X57221004Y-24971004D01*
X56437399Y-24187399D01*
X60774500Y-24187399D01*
X60774500Y-24312601D01*
X60806905Y-24433536D01*
X60869505Y-24541964D01*
X60958036Y-24630495D01*
X61066464Y-24693095D01*
X61187399Y-24725500D01*
X61187401Y-24725500D01*
X61312599Y-24725500D01*
X61312601Y-24725500D01*
X61433536Y-24693095D01*
X61541964Y-24630495D01*
X61630495Y-24541964D01*
X61693095Y-24433536D01*
X61725500Y-24312601D01*
X61725500Y-24187399D01*
X61693095Y-24066464D01*
X61630495Y-23958036D01*
X61582458Y-23909999D01*
X63274500Y-23909999D01*
X63274500Y-24035201D01*
X63306905Y-24156136D01*
X63369505Y-24264564D01*
X63458036Y-24353095D01*
X63566464Y-24415695D01*
X63687399Y-24448100D01*
X63687401Y-24448100D01*
X63812599Y-24448100D01*
X63812601Y-24448100D01*
X63933536Y-24415695D01*
X64041964Y-24353095D01*
X64130495Y-24264564D01*
X64193095Y-24156136D01*
X64225500Y-24035201D01*
X64225500Y-23909999D01*
X64193095Y-23789064D01*
X64134400Y-23687399D01*
X67024500Y-23687399D01*
X67024500Y-23812601D01*
X67056905Y-23933536D01*
X67119505Y-24041964D01*
X67208036Y-24130495D01*
X67316464Y-24193095D01*
X67437399Y-24225500D01*
X67437401Y-24225500D01*
X67562599Y-24225500D01*
X67562601Y-24225500D01*
X67683536Y-24193095D01*
X67693402Y-24187399D01*
X77524500Y-24187399D01*
X77524500Y-24312601D01*
X77556905Y-24433536D01*
X77619505Y-24541964D01*
X77708036Y-24630495D01*
X77816464Y-24693095D01*
X77937399Y-24725500D01*
X77937401Y-24725500D01*
X78062599Y-24725500D01*
X78062601Y-24725500D01*
X78183536Y-24693095D01*
X78291964Y-24630495D01*
X78380495Y-24541964D01*
X78443095Y-24433536D01*
X78475500Y-24312601D01*
X78475500Y-24187399D01*
X78443095Y-24066464D01*
X78380495Y-23958036D01*
X78291964Y-23869505D01*
X78183536Y-23806905D01*
X78062601Y-23774500D01*
X77937399Y-23774500D01*
X77856775Y-23796103D01*
X77816463Y-23806905D01*
X77708036Y-23869505D01*
X77619505Y-23958036D01*
X77556905Y-24066463D01*
X77546103Y-24106775D01*
X77524500Y-24187399D01*
X67693402Y-24187399D01*
X67791964Y-24130495D01*
X67880495Y-24041964D01*
X67943095Y-23933536D01*
X67975500Y-23812601D01*
X67975500Y-23687399D01*
X67943095Y-23566464D01*
X67880495Y-23458036D01*
X67791964Y-23369505D01*
X67683536Y-23306905D01*
X67562601Y-23274500D01*
X67437399Y-23274500D01*
X67356775Y-23296103D01*
X67316463Y-23306905D01*
X67208036Y-23369505D01*
X67119505Y-23458036D01*
X67056905Y-23566463D01*
X67056905Y-23566464D01*
X67024500Y-23687399D01*
X64134400Y-23687399D01*
X64130495Y-23680636D01*
X64041964Y-23592105D01*
X63933536Y-23529505D01*
X63812601Y-23497100D01*
X63687399Y-23497100D01*
X63620940Y-23514908D01*
X63566463Y-23529505D01*
X63458036Y-23592105D01*
X63369505Y-23680636D01*
X63306905Y-23789063D01*
X63306905Y-23789064D01*
X63274500Y-23909999D01*
X61582458Y-23909999D01*
X61541964Y-23869505D01*
X61433536Y-23806905D01*
X61312601Y-23774500D01*
X61187399Y-23774500D01*
X61106775Y-23796103D01*
X61066463Y-23806905D01*
X60958036Y-23869505D01*
X60869505Y-23958036D01*
X60806905Y-24066463D01*
X60796103Y-24106775D01*
X60774500Y-24187399D01*
X56437399Y-24187399D01*
X55528996Y-23278996D01*
X55501219Y-23224479D01*
X55500000Y-23208992D01*
X55500000Y-22834108D01*
X56499500Y-22834108D01*
X56499500Y-22965892D01*
X56529579Y-23078151D01*
X56533609Y-23093190D01*
X56599496Y-23207309D01*
X56599498Y-23207311D01*
X56599500Y-23207314D01*
X56692686Y-23300500D01*
X56692688Y-23300501D01*
X56692690Y-23300503D01*
X56806810Y-23366390D01*
X56806808Y-23366390D01*
X56806812Y-23366391D01*
X56806814Y-23366392D01*
X56934108Y-23400500D01*
X56934110Y-23400500D01*
X57065890Y-23400500D01*
X57065892Y-23400500D01*
X57193186Y-23366392D01*
X57193188Y-23366390D01*
X57193190Y-23366390D01*
X57307309Y-23300503D01*
X57307309Y-23300502D01*
X57307314Y-23300500D01*
X57400500Y-23207314D01*
X57416097Y-23180300D01*
X57466390Y-23093190D01*
X57466390Y-23093188D01*
X57466392Y-23093186D01*
X57500500Y-22965892D01*
X57500500Y-22834108D01*
X57466392Y-22706814D01*
X57466390Y-22706811D01*
X57466390Y-22706809D01*
X57400503Y-22592690D01*
X57400501Y-22592688D01*
X57400500Y-22592686D01*
X57307314Y-22499500D01*
X57307311Y-22499498D01*
X57307309Y-22499496D01*
X57193189Y-22433609D01*
X57193191Y-22433609D01*
X57143799Y-22420375D01*
X57065892Y-22399500D01*
X56934108Y-22399500D01*
X56856200Y-22420375D01*
X56806809Y-22433609D01*
X56692690Y-22499496D01*
X56599496Y-22592690D01*
X56533609Y-22706809D01*
X56533608Y-22706814D01*
X56499500Y-22834108D01*
X55500000Y-22834108D01*
X55500000Y-22187399D01*
X63774500Y-22187399D01*
X63774500Y-22312601D01*
X63806905Y-22433536D01*
X63869505Y-22541964D01*
X63958036Y-22630495D01*
X64066464Y-22693095D01*
X64187399Y-22725500D01*
X64187401Y-22725500D01*
X64312599Y-22725500D01*
X64312601Y-22725500D01*
X64433536Y-22693095D01*
X64541964Y-22630495D01*
X64630495Y-22541964D01*
X64693095Y-22433536D01*
X64725500Y-22312601D01*
X64725500Y-22187399D01*
X64693095Y-22066464D01*
X64647449Y-21987401D01*
X64641512Y-21977118D01*
X64635405Y-21966541D01*
X64630495Y-21958036D01*
X64606567Y-21934108D01*
X67999500Y-21934108D01*
X67999500Y-22065892D01*
X68019564Y-22140771D01*
X68033609Y-22193190D01*
X68099496Y-22307309D01*
X68099498Y-22307311D01*
X68099500Y-22307314D01*
X68192686Y-22400500D01*
X68192688Y-22400501D01*
X68192690Y-22400503D01*
X68306810Y-22466390D01*
X68306808Y-22466390D01*
X68306812Y-22466391D01*
X68306814Y-22466392D01*
X68434108Y-22500500D01*
X68434110Y-22500500D01*
X68565889Y-22500500D01*
X68565892Y-22500500D01*
X68690512Y-22467108D01*
X68751609Y-22470310D01*
X68799159Y-22508815D01*
X68814995Y-22567916D01*
X68811758Y-22588356D01*
X68799500Y-22634105D01*
X68799500Y-22634108D01*
X68799500Y-22765892D01*
X68803406Y-22780469D01*
X68833609Y-22893190D01*
X68899496Y-23007309D01*
X68899498Y-23007311D01*
X68899500Y-23007314D01*
X68992686Y-23100500D01*
X68992688Y-23100501D01*
X68992690Y-23100503D01*
X69106810Y-23166390D01*
X69106808Y-23166390D01*
X69106812Y-23166391D01*
X69106814Y-23166392D01*
X69234108Y-23200500D01*
X69234110Y-23200500D01*
X69365890Y-23200500D01*
X69365892Y-23200500D01*
X69493186Y-23166392D01*
X69493188Y-23166390D01*
X69493190Y-23166390D01*
X69607309Y-23100503D01*
X69607309Y-23100502D01*
X69607314Y-23100500D01*
X69700500Y-23007314D01*
X69720138Y-22973300D01*
X69766390Y-22893190D01*
X69766390Y-22893188D01*
X69766392Y-22893186D01*
X69800500Y-22765892D01*
X69800500Y-22634108D01*
X69787286Y-22584792D01*
X69790488Y-22523694D01*
X69828994Y-22476144D01*
X69888094Y-22460308D01*
X69932409Y-22473434D01*
X69966464Y-22493095D01*
X70087399Y-22525500D01*
X70087401Y-22525500D01*
X70212599Y-22525500D01*
X70212601Y-22525500D01*
X70333536Y-22493095D01*
X70441964Y-22430495D01*
X70530495Y-22341964D01*
X70582612Y-22251693D01*
X70628079Y-22210753D01*
X70688929Y-22204357D01*
X70693971Y-22205568D01*
X70715644Y-22211375D01*
X70715646Y-22211376D01*
X70715647Y-22211376D01*
X70840847Y-22211376D01*
X70840849Y-22211376D01*
X70961784Y-22178971D01*
X71070212Y-22116371D01*
X71122469Y-22064114D01*
X71145012Y-22041572D01*
X71199529Y-22013795D01*
X71215015Y-22012576D01*
X71830255Y-22012576D01*
X71888446Y-22031483D01*
X71900259Y-22041572D01*
X73330102Y-23471415D01*
X73393197Y-23507844D01*
X73463572Y-23526700D01*
X80594379Y-23526700D01*
X80652570Y-23545607D01*
X80664383Y-23555696D01*
X80910902Y-23802215D01*
X80973997Y-23838644D01*
X81044372Y-23857500D01*
X81044374Y-23857500D01*
X81050640Y-23859179D01*
X81049908Y-23861909D01*
X81094466Y-23883130D01*
X81096365Y-23884978D01*
X81099498Y-23888111D01*
X81099500Y-23888114D01*
X81192686Y-23981300D01*
X81192688Y-23981301D01*
X81192690Y-23981303D01*
X81306810Y-24047190D01*
X81306808Y-24047190D01*
X81306812Y-24047191D01*
X81306814Y-24047192D01*
X81434108Y-24081300D01*
X81434110Y-24081300D01*
X81565890Y-24081300D01*
X81565892Y-24081300D01*
X81693186Y-24047192D01*
X81693188Y-24047190D01*
X81693190Y-24047190D01*
X81807309Y-23981303D01*
X81807309Y-23981302D01*
X81807314Y-23981300D01*
X81900500Y-23888114D01*
X81929063Y-23838642D01*
X81966390Y-23773990D01*
X81966390Y-23773988D01*
X81966392Y-23773986D01*
X82000500Y-23646692D01*
X82000500Y-23537399D01*
X85724500Y-23537399D01*
X85724500Y-23662601D01*
X85756905Y-23783536D01*
X85819505Y-23891964D01*
X85908036Y-23980495D01*
X86016464Y-24043095D01*
X86137399Y-24075500D01*
X86137401Y-24075500D01*
X86262599Y-24075500D01*
X86262601Y-24075500D01*
X86383536Y-24043095D01*
X86491964Y-23980495D01*
X86580495Y-23891964D01*
X86643095Y-23783536D01*
X86675500Y-23662601D01*
X86675500Y-23537399D01*
X86643095Y-23416464D01*
X86580495Y-23308036D01*
X86491964Y-23219505D01*
X86383536Y-23156905D01*
X86262601Y-23124500D01*
X86137399Y-23124500D01*
X86056775Y-23146103D01*
X86016463Y-23156905D01*
X85908036Y-23219505D01*
X85819505Y-23308036D01*
X85756905Y-23416463D01*
X85756905Y-23416464D01*
X85724500Y-23537399D01*
X82000500Y-23537399D01*
X82000500Y-23514908D01*
X81966392Y-23387614D01*
X81966390Y-23387611D01*
X81966390Y-23387609D01*
X81900503Y-23273490D01*
X81900501Y-23273488D01*
X81900500Y-23273486D01*
X81822715Y-23195701D01*
X81794940Y-23141187D01*
X81804511Y-23080755D01*
X81847776Y-23037490D01*
X81892721Y-23026700D01*
X83699726Y-23026700D01*
X83699728Y-23026700D01*
X83770103Y-23007844D01*
X83833198Y-22971415D01*
X84587214Y-22217397D01*
X84641731Y-22189620D01*
X84685971Y-22192668D01*
X84688956Y-22193573D01*
X84688972Y-22193580D01*
X84824307Y-22220500D01*
X84824308Y-22220500D01*
X84962292Y-22220500D01*
X84962293Y-22220500D01*
X85097628Y-22193580D01*
X85225111Y-22140775D01*
X85339842Y-22064114D01*
X85437414Y-21966542D01*
X85514075Y-21851811D01*
X85566880Y-21724328D01*
X85593800Y-21588993D01*
X85593800Y-21586654D01*
X85594130Y-21585637D01*
X85594276Y-21584157D01*
X85594600Y-21584188D01*
X85612707Y-21528463D01*
X85662207Y-21492499D01*
X85723393Y-21492499D01*
X85747797Y-21504337D01*
X85810031Y-21545920D01*
X85810032Y-21545920D01*
X85810033Y-21545921D01*
X85814408Y-21547733D01*
X85945758Y-21602140D01*
X86089845Y-21630800D01*
X86089847Y-21630800D01*
X86236753Y-21630800D01*
X86236755Y-21630800D01*
X86380842Y-21602140D01*
X86516569Y-21545920D01*
X86638720Y-21464301D01*
X86742601Y-21360420D01*
X86824220Y-21238269D01*
X86880440Y-21102542D01*
X86909100Y-20958455D01*
X86909100Y-20811545D01*
X86880440Y-20667458D01*
X86844962Y-20581806D01*
X86824221Y-20531733D01*
X86824221Y-20531732D01*
X86798465Y-20493186D01*
X86742601Y-20409580D01*
X86638720Y-20305699D01*
X86516569Y-20224080D01*
X86516568Y-20224079D01*
X86516566Y-20224078D01*
X86380842Y-20167860D01*
X86236757Y-20139200D01*
X86236755Y-20139200D01*
X86089845Y-20139200D01*
X86089842Y-20139200D01*
X85945758Y-20167860D01*
X85945756Y-20167860D01*
X85810033Y-20224078D01*
X85810032Y-20224078D01*
X85687880Y-20305699D01*
X85687876Y-20305702D01*
X85584002Y-20409576D01*
X85583999Y-20409580D01*
X85502378Y-20531732D01*
X85502378Y-20531733D01*
X85446160Y-20667456D01*
X85446160Y-20667458D01*
X85417500Y-20811542D01*
X85417500Y-20842559D01*
X85398593Y-20900750D01*
X85349093Y-20936714D01*
X85287907Y-20936714D01*
X85263498Y-20924874D01*
X85225117Y-20899228D01*
X85225106Y-20899222D01*
X85097628Y-20846420D01*
X84962295Y-20819500D01*
X84962293Y-20819500D01*
X84824307Y-20819500D01*
X84824304Y-20819500D01*
X84688972Y-20846420D01*
X84688970Y-20846420D01*
X84561493Y-20899222D01*
X84561482Y-20899228D01*
X84446758Y-20975885D01*
X84349189Y-21073454D01*
X84349186Y-21073458D01*
X84344971Y-21079767D01*
X84340615Y-21086286D01*
X84292565Y-21124165D01*
X84231427Y-21126567D01*
X84180553Y-21092574D01*
X84175985Y-21086286D01*
X84167414Y-21073458D01*
X84069842Y-20975886D01*
X84057012Y-20967313D01*
X84019135Y-20919268D01*
X84016731Y-20858129D01*
X84050723Y-20807255D01*
X84056985Y-20802704D01*
X84069842Y-20794114D01*
X84167414Y-20696542D01*
X84244075Y-20581811D01*
X84296880Y-20454328D01*
X84323800Y-20318993D01*
X84323800Y-20181007D01*
X84296880Y-20045672D01*
X84254127Y-19942457D01*
X84244077Y-19918193D01*
X84244071Y-19918182D01*
X84167414Y-19803458D01*
X84069841Y-19705885D01*
X83955117Y-19629228D01*
X83955106Y-19629222D01*
X83827628Y-19576420D01*
X83692295Y-19549500D01*
X83692293Y-19549500D01*
X83554307Y-19549500D01*
X83554304Y-19549500D01*
X83418972Y-19576420D01*
X83418970Y-19576420D01*
X83291493Y-19629222D01*
X83291482Y-19629228D01*
X83176758Y-19705885D01*
X83079189Y-19803454D01*
X83079186Y-19803458D01*
X83070615Y-19816286D01*
X83022565Y-19854165D01*
X82961427Y-19856567D01*
X82910553Y-19822574D01*
X82905985Y-19816286D01*
X82897414Y-19803458D01*
X82799842Y-19705886D01*
X82791786Y-19700503D01*
X82685117Y-19629228D01*
X82685106Y-19629222D01*
X82557628Y-19576420D01*
X82422295Y-19549500D01*
X82422293Y-19549500D01*
X82284307Y-19549500D01*
X82284304Y-19549500D01*
X82148972Y-19576420D01*
X82148970Y-19576420D01*
X82021493Y-19629222D01*
X82021484Y-19629227D01*
X81941445Y-19682708D01*
X81882557Y-19699316D01*
X81825154Y-19678138D01*
X81794980Y-19638277D01*
X81791231Y-19629227D01*
X81744221Y-19515733D01*
X81744221Y-19515732D01*
X81695685Y-19443094D01*
X81662601Y-19393580D01*
X81558720Y-19289699D01*
X81436569Y-19208080D01*
X81436568Y-19208079D01*
X81436566Y-19208078D01*
X81300842Y-19151860D01*
X81156757Y-19123200D01*
X81156755Y-19123200D01*
X81009845Y-19123200D01*
X81009842Y-19123200D01*
X80865758Y-19151860D01*
X80865756Y-19151860D01*
X80730033Y-19208078D01*
X80730032Y-19208078D01*
X80607880Y-19289699D01*
X80607868Y-19289708D01*
X80603433Y-19294144D01*
X80548915Y-19321918D01*
X80488483Y-19312343D01*
X80445222Y-19269075D01*
X80435654Y-19208643D01*
X80441972Y-19186245D01*
X80443093Y-19183539D01*
X80443095Y-19183536D01*
X80475500Y-19062601D01*
X80475500Y-18937399D01*
X80443095Y-18816464D01*
X80380495Y-18708036D01*
X80291964Y-18619505D01*
X80183536Y-18556905D01*
X80062601Y-18524500D01*
X79937399Y-18524500D01*
X79856775Y-18546103D01*
X79816463Y-18556905D01*
X79708036Y-18619505D01*
X79619505Y-18708036D01*
X79556905Y-18816463D01*
X79556905Y-18816464D01*
X79524500Y-18937399D01*
X79524500Y-19062601D01*
X79556905Y-19183536D01*
X79619505Y-19291964D01*
X79708036Y-19380495D01*
X79816464Y-19443095D01*
X79937399Y-19475500D01*
X79937401Y-19475500D01*
X80062599Y-19475500D01*
X80062601Y-19475500D01*
X80183536Y-19443095D01*
X80284906Y-19384569D01*
X80344752Y-19371848D01*
X80400648Y-19396734D01*
X80431241Y-19449722D01*
X80424845Y-19510573D01*
X80422690Y-19514979D01*
X80366160Y-19651456D01*
X80366160Y-19651458D01*
X80337500Y-19795542D01*
X80337500Y-19942457D01*
X80356606Y-20038513D01*
X80363104Y-20071180D01*
X80366160Y-20086541D01*
X80366160Y-20086543D01*
X80422378Y-20222266D01*
X80422378Y-20222267D01*
X80463049Y-20283134D01*
X80503999Y-20344420D01*
X80607880Y-20448301D01*
X80730031Y-20529920D01*
X80730032Y-20529920D01*
X80730033Y-20529921D01*
X80734408Y-20531733D01*
X80865758Y-20586140D01*
X81009845Y-20614800D01*
X81009847Y-20614800D01*
X81156753Y-20614800D01*
X81156755Y-20614800D01*
X81300842Y-20586140D01*
X81436569Y-20529920D01*
X81551234Y-20453302D01*
X81610121Y-20436694D01*
X81667525Y-20457871D01*
X81697699Y-20497733D01*
X81732522Y-20581806D01*
X81732528Y-20581817D01*
X81796411Y-20677423D01*
X81809186Y-20696542D01*
X81906758Y-20794114D01*
X81919586Y-20802685D01*
X81957465Y-20850735D01*
X81959867Y-20911873D01*
X81925874Y-20962747D01*
X81919593Y-20967309D01*
X81913068Y-20971670D01*
X81906758Y-20975886D01*
X81906754Y-20975889D01*
X81809185Y-21073458D01*
X81732528Y-21188182D01*
X81732524Y-21188190D01*
X81697698Y-21272267D01*
X81657961Y-21318793D01*
X81598466Y-21333076D01*
X81551233Y-21316696D01*
X81436569Y-21240080D01*
X81436568Y-21240079D01*
X81436566Y-21240078D01*
X81300842Y-21183860D01*
X81156757Y-21155200D01*
X81156755Y-21155200D01*
X81009845Y-21155200D01*
X81009842Y-21155200D01*
X80865758Y-21183860D01*
X80865756Y-21183860D01*
X80730033Y-21240078D01*
X80730032Y-21240078D01*
X80607880Y-21321699D01*
X80607876Y-21321702D01*
X80504002Y-21425576D01*
X80503999Y-21425580D01*
X80422378Y-21547732D01*
X80422378Y-21547733D01*
X80366160Y-21683456D01*
X80366160Y-21683458D01*
X80337500Y-21827542D01*
X80337500Y-21974457D01*
X80355801Y-22066461D01*
X80364787Y-22111641D01*
X80366160Y-22118541D01*
X80366160Y-22118543D01*
X80422378Y-22254266D01*
X80422379Y-22254268D01*
X80422380Y-22254269D01*
X80465832Y-22319300D01*
X80482441Y-22378186D01*
X80461264Y-22435590D01*
X80410390Y-22469583D01*
X80383517Y-22473300D01*
X74155621Y-22473300D01*
X74097430Y-22454393D01*
X74085617Y-22444304D01*
X72178712Y-20537399D01*
X74974500Y-20537399D01*
X74974500Y-20662601D01*
X75006905Y-20783536D01*
X75069505Y-20891964D01*
X75158036Y-20980495D01*
X75266464Y-21043095D01*
X75387399Y-21075500D01*
X75387401Y-21075500D01*
X75512599Y-21075500D01*
X75512601Y-21075500D01*
X75633536Y-21043095D01*
X75655770Y-21030258D01*
X75715615Y-21017537D01*
X75771511Y-21042423D01*
X75791004Y-21066495D01*
X75811817Y-21102543D01*
X75825973Y-21127062D01*
X75914504Y-21215593D01*
X76022932Y-21278193D01*
X76143867Y-21310598D01*
X76143869Y-21310598D01*
X76269067Y-21310598D01*
X76269069Y-21310598D01*
X76390004Y-21278193D01*
X76498432Y-21215593D01*
X76526626Y-21187399D01*
X78774500Y-21187399D01*
X78774500Y-21312601D01*
X78806905Y-21433536D01*
X78869505Y-21541964D01*
X78958036Y-21630495D01*
X79066464Y-21693095D01*
X79187399Y-21725500D01*
X79187401Y-21725500D01*
X79312599Y-21725500D01*
X79312601Y-21725500D01*
X79433536Y-21693095D01*
X79541964Y-21630495D01*
X79630495Y-21541964D01*
X79693095Y-21433536D01*
X79725500Y-21312601D01*
X79725500Y-21187399D01*
X79693095Y-21066464D01*
X79630495Y-20958036D01*
X79541964Y-20869505D01*
X79433536Y-20806905D01*
X79312601Y-20774500D01*
X79187399Y-20774500D01*
X79114215Y-20794110D01*
X79066463Y-20806905D01*
X78958036Y-20869505D01*
X78869505Y-20958036D01*
X78806905Y-21066463D01*
X78799909Y-21092574D01*
X78774500Y-21187399D01*
X76526626Y-21187399D01*
X76586963Y-21127062D01*
X76649563Y-21018634D01*
X76681968Y-20897699D01*
X76681968Y-20772497D01*
X76649563Y-20651562D01*
X76586963Y-20543134D01*
X76498432Y-20454603D01*
X76390004Y-20392003D01*
X76269069Y-20359598D01*
X76143867Y-20359598D01*
X76063243Y-20381201D01*
X76022931Y-20392003D01*
X76000695Y-20404841D01*
X75940846Y-20417559D01*
X75884951Y-20392671D01*
X75865463Y-20368603D01*
X75830495Y-20308036D01*
X75741964Y-20219505D01*
X75633536Y-20156905D01*
X75512601Y-20124500D01*
X75387399Y-20124500D01*
X75332539Y-20139200D01*
X75266463Y-20156905D01*
X75158036Y-20219505D01*
X75069505Y-20308036D01*
X75006905Y-20416463D01*
X74996103Y-20456775D01*
X74974500Y-20537399D01*
X72178712Y-20537399D01*
X71966010Y-20324697D01*
X71944547Y-20292572D01*
X71943097Y-20289074D01*
X71943095Y-20289064D01*
X71880495Y-20180636D01*
X71823022Y-20123163D01*
X71795247Y-20068649D01*
X71804818Y-20008217D01*
X71807275Y-20003689D01*
X71830911Y-19962752D01*
X71863316Y-19841817D01*
X71863316Y-19716615D01*
X71830911Y-19595680D01*
X71830909Y-19595676D01*
X71828428Y-19589686D01*
X71830681Y-19588752D01*
X71820155Y-19539242D01*
X71845038Y-19483345D01*
X71892987Y-19453960D01*
X71933536Y-19443095D01*
X72041964Y-19380495D01*
X72130495Y-19291964D01*
X72190865Y-19187399D01*
X73524500Y-19187399D01*
X73524500Y-19312601D01*
X73556905Y-19433536D01*
X73619505Y-19541964D01*
X73708036Y-19630495D01*
X73816464Y-19693095D01*
X73937399Y-19725500D01*
X73937401Y-19725500D01*
X74062599Y-19725500D01*
X74062601Y-19725500D01*
X74183536Y-19693095D01*
X74291964Y-19630495D01*
X74380495Y-19541964D01*
X74443095Y-19433536D01*
X74475500Y-19312601D01*
X74475500Y-19287399D01*
X76174500Y-19287399D01*
X76174500Y-19412601D01*
X76206905Y-19533536D01*
X76269505Y-19641964D01*
X76358036Y-19730495D01*
X76466464Y-19793095D01*
X76587399Y-19825500D01*
X76587401Y-19825500D01*
X76712599Y-19825500D01*
X76712601Y-19825500D01*
X76833536Y-19793095D01*
X76941964Y-19730495D01*
X77030495Y-19641964D01*
X77093095Y-19533536D01*
X77125500Y-19412601D01*
X77125500Y-19287399D01*
X77093095Y-19166464D01*
X77030495Y-19058036D01*
X76941964Y-18969505D01*
X76833536Y-18906905D01*
X76712601Y-18874500D01*
X76587399Y-18874500D01*
X76506775Y-18896103D01*
X76466463Y-18906905D01*
X76358036Y-18969505D01*
X76269505Y-19058036D01*
X76206905Y-19166463D01*
X76201295Y-19187399D01*
X76174500Y-19287399D01*
X74475500Y-19287399D01*
X74475500Y-19187399D01*
X74443095Y-19066464D01*
X74380495Y-18958036D01*
X74291964Y-18869505D01*
X74183536Y-18806905D01*
X74062601Y-18774500D01*
X73937399Y-18774500D01*
X73872224Y-18791964D01*
X73816463Y-18806905D01*
X73708036Y-18869505D01*
X73619505Y-18958036D01*
X73556905Y-19066463D01*
X73556905Y-19066464D01*
X73524500Y-19187399D01*
X72190865Y-19187399D01*
X72193095Y-19183536D01*
X72225500Y-19062601D01*
X72225500Y-18937399D01*
X72193095Y-18816464D01*
X72130495Y-18708036D01*
X72041964Y-18619505D01*
X71933536Y-18556905D01*
X71812601Y-18524500D01*
X71687399Y-18524500D01*
X71606775Y-18546103D01*
X71566463Y-18556905D01*
X71458036Y-18619505D01*
X71369505Y-18708036D01*
X71306905Y-18816463D01*
X71306905Y-18816464D01*
X71274500Y-18937399D01*
X71274500Y-19062601D01*
X71306904Y-19183533D01*
X71306906Y-19183539D01*
X71309388Y-19189530D01*
X71307136Y-19190462D01*
X71317659Y-19239987D01*
X71292768Y-19295880D01*
X71244826Y-19325256D01*
X71204283Y-19336119D01*
X71204282Y-19336120D01*
X71095852Y-19398721D01*
X71007321Y-19487252D01*
X70944721Y-19595679D01*
X70935733Y-19629222D01*
X70912316Y-19716615D01*
X70912316Y-19841817D01*
X70944721Y-19962752D01*
X71007321Y-20071180D01*
X71064792Y-20128651D01*
X71092568Y-20183166D01*
X71082997Y-20243598D01*
X71080525Y-20248151D01*
X71056906Y-20289062D01*
X71056905Y-20289064D01*
X71024500Y-20409999D01*
X71024500Y-20535201D01*
X71056905Y-20656136D01*
X71119505Y-20764564D01*
X71208036Y-20853095D01*
X71316464Y-20915695D01*
X71437399Y-20948100D01*
X71437401Y-20948100D01*
X71562599Y-20948100D01*
X71562601Y-20948100D01*
X71683536Y-20915695D01*
X71683542Y-20915691D01*
X71686653Y-20914403D01*
X71689063Y-20914213D01*
X71689803Y-20914015D01*
X71689839Y-20914152D01*
X71747650Y-20909599D01*
X71794548Y-20935861D01*
X72164787Y-21306100D01*
X72192564Y-21360617D01*
X72182993Y-21421049D01*
X72139728Y-21464314D01*
X72079296Y-21473885D01*
X72069166Y-21471732D01*
X72022304Y-21459176D01*
X72022302Y-21459176D01*
X71215015Y-21459176D01*
X71156824Y-21440269D01*
X71145012Y-21430180D01*
X71070214Y-21355383D01*
X71070212Y-21355381D01*
X70961784Y-21292781D01*
X70840849Y-21260376D01*
X70715647Y-21260376D01*
X70635023Y-21281979D01*
X70594711Y-21292781D01*
X70486284Y-21355381D01*
X70397753Y-21443912D01*
X70345637Y-21534181D01*
X70300167Y-21575122D01*
X70239317Y-21581518D01*
X70234279Y-21580308D01*
X70212603Y-21574500D01*
X70212601Y-21574500D01*
X70087399Y-21574500D01*
X70006775Y-21596103D01*
X69966463Y-21606905D01*
X69858036Y-21669505D01*
X69769505Y-21758036D01*
X69706905Y-21866463D01*
X69696103Y-21906775D01*
X69674500Y-21987399D01*
X69674500Y-22112601D01*
X69679624Y-22131722D01*
X69684181Y-22148730D01*
X69680978Y-22209831D01*
X69642473Y-22257381D01*
X69583373Y-22273217D01*
X69539054Y-22260090D01*
X69493187Y-22233608D01*
X69444262Y-22220499D01*
X69365892Y-22199500D01*
X69234108Y-22199500D01*
X69109490Y-22232890D01*
X69048389Y-22229688D01*
X69000839Y-22191183D01*
X68985004Y-22132082D01*
X68988239Y-22111647D01*
X69000500Y-22065892D01*
X69000500Y-21934108D01*
X68966392Y-21806814D01*
X68966390Y-21806811D01*
X68966390Y-21806809D01*
X68900503Y-21692690D01*
X68900501Y-21692688D01*
X68900500Y-21692686D01*
X68807314Y-21599500D01*
X68807311Y-21599498D01*
X68807309Y-21599496D01*
X68693189Y-21533609D01*
X68693191Y-21533609D01*
X68643799Y-21520375D01*
X68565892Y-21499500D01*
X68434108Y-21499500D01*
X68356200Y-21520375D01*
X68306809Y-21533609D01*
X68192690Y-21599496D01*
X68099496Y-21692690D01*
X68033609Y-21806809D01*
X68017625Y-21866463D01*
X67999500Y-21934108D01*
X64606567Y-21934108D01*
X64541964Y-21869505D01*
X64433536Y-21806905D01*
X64312601Y-21774500D01*
X64187399Y-21774500D01*
X64106775Y-21796103D01*
X64066463Y-21806905D01*
X63958036Y-21869505D01*
X63869505Y-21958036D01*
X63806905Y-22066463D01*
X63806905Y-22066464D01*
X63774500Y-22187399D01*
X55500000Y-22187399D01*
X55500000Y-20234108D01*
X60299500Y-20234108D01*
X60299500Y-20365892D01*
X60325634Y-20463427D01*
X60333609Y-20493190D01*
X60399496Y-20607309D01*
X60399498Y-20607311D01*
X60399500Y-20607314D01*
X60492686Y-20700500D01*
X60492688Y-20700501D01*
X60492690Y-20700503D01*
X60606810Y-20766390D01*
X60606808Y-20766390D01*
X60606812Y-20766391D01*
X60606814Y-20766392D01*
X60734108Y-20800500D01*
X60734110Y-20800500D01*
X60865890Y-20800500D01*
X60865892Y-20800500D01*
X60993186Y-20766392D01*
X60993188Y-20766390D01*
X60993190Y-20766390D01*
X61107309Y-20700503D01*
X61107309Y-20700502D01*
X61107314Y-20700500D01*
X61200500Y-20607314D01*
X61212725Y-20586140D01*
X61266390Y-20493190D01*
X61266390Y-20493188D01*
X61266392Y-20493186D01*
X61300500Y-20365892D01*
X61300500Y-20234108D01*
X61266392Y-20106814D01*
X61266390Y-20106811D01*
X61266390Y-20106809D01*
X61200503Y-19992690D01*
X61200501Y-19992688D01*
X61200500Y-19992686D01*
X61107314Y-19899500D01*
X61107311Y-19899498D01*
X61107309Y-19899496D01*
X60993189Y-19833609D01*
X60993191Y-19833609D01*
X60943799Y-19820375D01*
X60865892Y-19799500D01*
X60734108Y-19799500D01*
X60656200Y-19820375D01*
X60606809Y-19833609D01*
X60492690Y-19899496D01*
X60399496Y-19992690D01*
X60333609Y-20106809D01*
X60328869Y-20124500D01*
X60299500Y-20234108D01*
X55500000Y-20234108D01*
X55500000Y-19234108D01*
X62999500Y-19234108D01*
X62999500Y-19365892D01*
X63012015Y-19412598D01*
X63033609Y-19493190D01*
X63099496Y-19607309D01*
X63099498Y-19607311D01*
X63099500Y-19607314D01*
X63192686Y-19700500D01*
X63192688Y-19700501D01*
X63192690Y-19700503D01*
X63306810Y-19766390D01*
X63306808Y-19766390D01*
X63306812Y-19766391D01*
X63306814Y-19766392D01*
X63434108Y-19800500D01*
X63434110Y-19800500D01*
X63565890Y-19800500D01*
X63565892Y-19800500D01*
X63693186Y-19766392D01*
X63693188Y-19766390D01*
X63693190Y-19766390D01*
X63807309Y-19700503D01*
X63807309Y-19700502D01*
X63807314Y-19700500D01*
X63900500Y-19607314D01*
X63907217Y-19595680D01*
X63966390Y-19493190D01*
X63966390Y-19493188D01*
X63966392Y-19493186D01*
X64000500Y-19365892D01*
X64000500Y-19234108D01*
X63966392Y-19106814D01*
X63966390Y-19106811D01*
X63966390Y-19106809D01*
X63900503Y-18992690D01*
X63900501Y-18992688D01*
X63900500Y-18992686D01*
X63807314Y-18899500D01*
X63807311Y-18899498D01*
X63807309Y-18899496D01*
X63693189Y-18833609D01*
X63693191Y-18833609D01*
X63629199Y-18816463D01*
X63565892Y-18799500D01*
X63434108Y-18799500D01*
X63370801Y-18816463D01*
X63306809Y-18833609D01*
X63192690Y-18899496D01*
X63099496Y-18992690D01*
X63033609Y-19106809D01*
X63027263Y-19130494D01*
X62999500Y-19234108D01*
X55500000Y-19234108D01*
X55500000Y-18687399D01*
X65024500Y-18687399D01*
X65024500Y-18812601D01*
X65056905Y-18933536D01*
X65119505Y-19041964D01*
X65208036Y-19130495D01*
X65316464Y-19193095D01*
X65437399Y-19225500D01*
X65437401Y-19225500D01*
X65562599Y-19225500D01*
X65562601Y-19225500D01*
X65683536Y-19193095D01*
X65791964Y-19130495D01*
X65868458Y-19054000D01*
X65922972Y-19026224D01*
X65983405Y-19035795D01*
X66026669Y-19079059D01*
X66034086Y-19098380D01*
X66042692Y-19130495D01*
X66056905Y-19183536D01*
X66119505Y-19291964D01*
X66208036Y-19380495D01*
X66316464Y-19443095D01*
X66437399Y-19475500D01*
X66437401Y-19475500D01*
X66562599Y-19475500D01*
X66562601Y-19475500D01*
X66683536Y-19443095D01*
X66791964Y-19380495D01*
X66880495Y-19291964D01*
X66943095Y-19183536D01*
X66975500Y-19062601D01*
X66975500Y-18937399D01*
X66943095Y-18816464D01*
X66880495Y-18708036D01*
X66791964Y-18619505D01*
X66683536Y-18556905D01*
X66562601Y-18524500D01*
X66437399Y-18524500D01*
X66356775Y-18546103D01*
X66316463Y-18556905D01*
X66208033Y-18619507D01*
X66131542Y-18695998D01*
X66077025Y-18723775D01*
X66016593Y-18714203D01*
X65973329Y-18670939D01*
X65965913Y-18651618D01*
X65943096Y-18566467D01*
X65943095Y-18566466D01*
X65943095Y-18566464D01*
X65880495Y-18458036D01*
X65791964Y-18369505D01*
X65683536Y-18306905D01*
X65562601Y-18274500D01*
X65437399Y-18274500D01*
X65372224Y-18291964D01*
X65316463Y-18306905D01*
X65208036Y-18369505D01*
X65119505Y-18458036D01*
X65056905Y-18566463D01*
X65056905Y-18566464D01*
X65024500Y-18687399D01*
X55500000Y-18687399D01*
X55500000Y-17934108D01*
X59439500Y-17934108D01*
X59439500Y-18065892D01*
X59456810Y-18130494D01*
X59473609Y-18193190D01*
X59539496Y-18307309D01*
X59539498Y-18307311D01*
X59539500Y-18307314D01*
X59632686Y-18400500D01*
X59632688Y-18400501D01*
X59632690Y-18400503D01*
X59746810Y-18466390D01*
X59746808Y-18466390D01*
X59746812Y-18466391D01*
X59746814Y-18466392D01*
X59874108Y-18500500D01*
X59874110Y-18500500D01*
X60005890Y-18500500D01*
X60005892Y-18500500D01*
X60133186Y-18466392D01*
X60133188Y-18466390D01*
X60133190Y-18466390D01*
X60247309Y-18400503D01*
X60247309Y-18400502D01*
X60247314Y-18400500D01*
X60340500Y-18307314D01*
X60359445Y-18274500D01*
X60406390Y-18193190D01*
X60406390Y-18193188D01*
X60406392Y-18193186D01*
X60440500Y-18065892D01*
X60440500Y-17934108D01*
X60406392Y-17806814D01*
X60406390Y-17806811D01*
X60406390Y-17806809D01*
X60340503Y-17692690D01*
X60340501Y-17692688D01*
X60340500Y-17692686D01*
X60335213Y-17687399D01*
X68224500Y-17687399D01*
X68224500Y-17812601D01*
X68256905Y-17933536D01*
X68319505Y-18041964D01*
X68408036Y-18130495D01*
X68516464Y-18193095D01*
X68637399Y-18225500D01*
X68637401Y-18225500D01*
X68762599Y-18225500D01*
X68762601Y-18225500D01*
X68883536Y-18193095D01*
X68991964Y-18130495D01*
X69080495Y-18041964D01*
X69143095Y-17933536D01*
X69175500Y-17812601D01*
X69175500Y-17687399D01*
X69143095Y-17566464D01*
X69080495Y-17458036D01*
X68991964Y-17369505D01*
X68883536Y-17306905D01*
X68762601Y-17274500D01*
X68637399Y-17274500D01*
X68556775Y-17296103D01*
X68516463Y-17306905D01*
X68408036Y-17369505D01*
X68319505Y-17458036D01*
X68256905Y-17566463D01*
X68256905Y-17566464D01*
X68224500Y-17687399D01*
X60335213Y-17687399D01*
X60247314Y-17599500D01*
X60247311Y-17599498D01*
X60247309Y-17599496D01*
X60133189Y-17533609D01*
X60133191Y-17533609D01*
X60083799Y-17520375D01*
X60005892Y-17499500D01*
X59874108Y-17499500D01*
X59796200Y-17520375D01*
X59746809Y-17533609D01*
X59632690Y-17599496D01*
X59539496Y-17692690D01*
X59473609Y-17806809D01*
X59471022Y-17816464D01*
X59439500Y-17934108D01*
X55500000Y-17934108D01*
X55500000Y-16912399D01*
X55949500Y-16912399D01*
X55949500Y-17037601D01*
X55981905Y-17158536D01*
X56044505Y-17266964D01*
X56133036Y-17355495D01*
X56241464Y-17418095D01*
X56362399Y-17450500D01*
X56362401Y-17450500D01*
X56487599Y-17450500D01*
X56487601Y-17450500D01*
X56608536Y-17418095D01*
X56716964Y-17355495D01*
X56805495Y-17266964D01*
X56868095Y-17158536D01*
X56888831Y-17081150D01*
X56888832Y-17081148D01*
X66080751Y-17081148D01*
X66080751Y-17206350D01*
X66113156Y-17327285D01*
X66175756Y-17435713D01*
X66264287Y-17524244D01*
X66372715Y-17586844D01*
X66493650Y-17619249D01*
X66493652Y-17619249D01*
X66618850Y-17619249D01*
X66618852Y-17619249D01*
X66739787Y-17586844D01*
X66848215Y-17524244D01*
X66936746Y-17435713D01*
X66999346Y-17327285D01*
X67031751Y-17206350D01*
X67031751Y-17187399D01*
X71274500Y-17187399D01*
X71274500Y-17312601D01*
X71306905Y-17433536D01*
X71369505Y-17541964D01*
X71458036Y-17630495D01*
X71566464Y-17693095D01*
X71687399Y-17725500D01*
X71687401Y-17725500D01*
X71812599Y-17725500D01*
X71812601Y-17725500D01*
X71933536Y-17693095D01*
X71944466Y-17686784D01*
X72004311Y-17674063D01*
X72060207Y-17698948D01*
X72079699Y-17723018D01*
X72119505Y-17791964D01*
X72208036Y-17880495D01*
X72316464Y-17943095D01*
X72437399Y-17975500D01*
X72437401Y-17975500D01*
X72562599Y-17975500D01*
X72562601Y-17975500D01*
X72683536Y-17943095D01*
X72693402Y-17937399D01*
X73774500Y-17937399D01*
X73774500Y-18062601D01*
X73806905Y-18183536D01*
X73869505Y-18291964D01*
X73958036Y-18380495D01*
X74066464Y-18443095D01*
X74187399Y-18475500D01*
X74187401Y-18475500D01*
X74312599Y-18475500D01*
X74312601Y-18475500D01*
X74433536Y-18443095D01*
X74443402Y-18437399D01*
X85524500Y-18437399D01*
X85524500Y-18562601D01*
X85556905Y-18683536D01*
X85619505Y-18791964D01*
X85708036Y-18880495D01*
X85816464Y-18943095D01*
X85937399Y-18975500D01*
X85937401Y-18975500D01*
X86062599Y-18975500D01*
X86062601Y-18975500D01*
X86183536Y-18943095D01*
X86291964Y-18880495D01*
X86380495Y-18791964D01*
X86443095Y-18683536D01*
X86475500Y-18562601D01*
X86475500Y-18437399D01*
X86443095Y-18316464D01*
X86380495Y-18208036D01*
X86291964Y-18119505D01*
X86183536Y-18056905D01*
X86062601Y-18024500D01*
X85937399Y-18024500D01*
X85872224Y-18041964D01*
X85816463Y-18056905D01*
X85708036Y-18119505D01*
X85619505Y-18208036D01*
X85556905Y-18316463D01*
X85556905Y-18316464D01*
X85524500Y-18437399D01*
X74443402Y-18437399D01*
X74541964Y-18380495D01*
X74630495Y-18291964D01*
X74693095Y-18183536D01*
X74725500Y-18062601D01*
X74725500Y-17937399D01*
X74693095Y-17816464D01*
X74630495Y-17708036D01*
X74541964Y-17619505D01*
X74433536Y-17556905D01*
X74312601Y-17524500D01*
X74187399Y-17524500D01*
X74122224Y-17541964D01*
X74066463Y-17556905D01*
X73958036Y-17619505D01*
X73869505Y-17708036D01*
X73806905Y-17816463D01*
X73806905Y-17816464D01*
X73774500Y-17937399D01*
X72693402Y-17937399D01*
X72791964Y-17880495D01*
X72880495Y-17791964D01*
X72943095Y-17683536D01*
X72975500Y-17562601D01*
X72975500Y-17437399D01*
X76774500Y-17437399D01*
X76774500Y-17562601D01*
X76806905Y-17683536D01*
X76869505Y-17791964D01*
X76958036Y-17880495D01*
X77066464Y-17943095D01*
X77187399Y-17975500D01*
X77187401Y-17975500D01*
X77312599Y-17975500D01*
X77312601Y-17975500D01*
X77433536Y-17943095D01*
X77541964Y-17880495D01*
X77630495Y-17791964D01*
X77693095Y-17683536D01*
X77725500Y-17562601D01*
X77725500Y-17437399D01*
X77693095Y-17316464D01*
X77630495Y-17208036D01*
X77541964Y-17119505D01*
X77433536Y-17056905D01*
X77312601Y-17024500D01*
X77187399Y-17024500D01*
X77106775Y-17046103D01*
X77066463Y-17056905D01*
X76958036Y-17119505D01*
X76869505Y-17208036D01*
X76806905Y-17316463D01*
X76806905Y-17316464D01*
X76774500Y-17437399D01*
X72975500Y-17437399D01*
X72943095Y-17316464D01*
X72880495Y-17208036D01*
X72791964Y-17119505D01*
X72683536Y-17056905D01*
X72562601Y-17024500D01*
X72437399Y-17024500D01*
X72316464Y-17056905D01*
X72316463Y-17056905D01*
X72316461Y-17056906D01*
X72305530Y-17063217D01*
X72245681Y-17075935D01*
X72189786Y-17051046D01*
X72170298Y-17026979D01*
X72130495Y-16958036D01*
X72041964Y-16869505D01*
X71933536Y-16806905D01*
X71812601Y-16774500D01*
X71687399Y-16774500D01*
X71624090Y-16791464D01*
X71566463Y-16806905D01*
X71458036Y-16869505D01*
X71369505Y-16958036D01*
X71306905Y-17066463D01*
X71306905Y-17066464D01*
X71274500Y-17187399D01*
X67031751Y-17187399D01*
X67031751Y-17081148D01*
X66999346Y-16960213D01*
X66936746Y-16851785D01*
X66848215Y-16763254D01*
X66739787Y-16700654D01*
X66618852Y-16668249D01*
X66493650Y-16668249D01*
X66413026Y-16689852D01*
X66372714Y-16700654D01*
X66264287Y-16763254D01*
X66175756Y-16851785D01*
X66113156Y-16960212D01*
X66113156Y-16960213D01*
X66080751Y-17081148D01*
X56888832Y-17081148D01*
X56897437Y-17049035D01*
X56900500Y-17037601D01*
X56900500Y-16912401D01*
X56900500Y-16912399D01*
X56868095Y-16791464D01*
X56805495Y-16683036D01*
X56716964Y-16594505D01*
X56608536Y-16531905D01*
X56487601Y-16499500D01*
X56362399Y-16499500D01*
X56281775Y-16521103D01*
X56241463Y-16531905D01*
X56133036Y-16594505D01*
X56044505Y-16683036D01*
X55981905Y-16791463D01*
X55971103Y-16831775D01*
X55949500Y-16912399D01*
X55500000Y-16912399D01*
X55500000Y-15337399D01*
X60224500Y-15337399D01*
X60224500Y-15462601D01*
X60256905Y-15583536D01*
X60319505Y-15691964D01*
X60408036Y-15780495D01*
X60516464Y-15843095D01*
X60637399Y-15875500D01*
X60637401Y-15875500D01*
X60762599Y-15875500D01*
X60762601Y-15875500D01*
X60883536Y-15843095D01*
X60893402Y-15837399D01*
X62474500Y-15837399D01*
X62474500Y-15962601D01*
X62506905Y-16083536D01*
X62569505Y-16191964D01*
X62658036Y-16280495D01*
X62766464Y-16343095D01*
X62887399Y-16375500D01*
X62887401Y-16375500D01*
X63012599Y-16375500D01*
X63012601Y-16375500D01*
X63133536Y-16343095D01*
X63241964Y-16280495D01*
X63330495Y-16191964D01*
X63393095Y-16083536D01*
X63425500Y-15962601D01*
X63425500Y-15837399D01*
X63393095Y-15716464D01*
X63330495Y-15608036D01*
X63241964Y-15519505D01*
X63133536Y-15456905D01*
X63060740Y-15437399D01*
X63677100Y-15437399D01*
X63677100Y-15562601D01*
X63709505Y-15683536D01*
X63772105Y-15791964D01*
X63860636Y-15880495D01*
X63969064Y-15943095D01*
X64089999Y-15975500D01*
X64090001Y-15975500D01*
X64215199Y-15975500D01*
X64215201Y-15975500D01*
X64336136Y-15943095D01*
X64444564Y-15880495D01*
X64475160Y-15849899D01*
X66074500Y-15849899D01*
X66074500Y-15975101D01*
X66106905Y-16096036D01*
X66169505Y-16204464D01*
X66258036Y-16292995D01*
X66366464Y-16355595D01*
X66487399Y-16388000D01*
X66487401Y-16388000D01*
X66612599Y-16388000D01*
X66612601Y-16388000D01*
X66733536Y-16355595D01*
X66841964Y-16292995D01*
X66930495Y-16204464D01*
X66993095Y-16096036D01*
X67025500Y-15975101D01*
X67025500Y-15849899D01*
X67014897Y-15810328D01*
X75647429Y-15810328D01*
X75647429Y-15935530D01*
X75679834Y-16056465D01*
X75742434Y-16164893D01*
X75830965Y-16253424D01*
X75939393Y-16316024D01*
X76060328Y-16348429D01*
X76060330Y-16348429D01*
X76185528Y-16348429D01*
X76185530Y-16348429D01*
X76306465Y-16316024D01*
X76414893Y-16253424D01*
X76466183Y-16202134D01*
X76789235Y-16202134D01*
X76789235Y-16327336D01*
X76821640Y-16448271D01*
X76884240Y-16556699D01*
X76972771Y-16645230D01*
X77081199Y-16707830D01*
X77202134Y-16740235D01*
X77202136Y-16740235D01*
X77327334Y-16740235D01*
X77327336Y-16740235D01*
X77448271Y-16707830D01*
X77556699Y-16645230D01*
X77645230Y-16556699D01*
X77707830Y-16448271D01*
X77740235Y-16327336D01*
X77740235Y-16202134D01*
X77707830Y-16081199D01*
X77645230Y-15972771D01*
X77556699Y-15884240D01*
X77448271Y-15821640D01*
X77327336Y-15789235D01*
X77202134Y-15789235D01*
X77123415Y-15810328D01*
X77081198Y-15821640D01*
X76972771Y-15884240D01*
X76884240Y-15972771D01*
X76821640Y-16081198D01*
X76821640Y-16081199D01*
X76789235Y-16202134D01*
X76466183Y-16202134D01*
X76503424Y-16164893D01*
X76566024Y-16056465D01*
X76598429Y-15935530D01*
X76598429Y-15810328D01*
X76566024Y-15689393D01*
X76503424Y-15580965D01*
X76414893Y-15492434D01*
X76306465Y-15429834D01*
X76185530Y-15397429D01*
X76060328Y-15397429D01*
X75979704Y-15419032D01*
X75939392Y-15429834D01*
X75830965Y-15492434D01*
X75742434Y-15580965D01*
X75679834Y-15689392D01*
X75679834Y-15689393D01*
X75647429Y-15810328D01*
X67014897Y-15810328D01*
X66993095Y-15728964D01*
X66930495Y-15620536D01*
X66841964Y-15532005D01*
X66733536Y-15469405D01*
X66612601Y-15437000D01*
X66487399Y-15437000D01*
X66413114Y-15456905D01*
X66366463Y-15469405D01*
X66258036Y-15532005D01*
X66169505Y-15620536D01*
X66106905Y-15728963D01*
X66106905Y-15728964D01*
X66074500Y-15849899D01*
X64475160Y-15849899D01*
X64533095Y-15791964D01*
X64595695Y-15683536D01*
X64628100Y-15562601D01*
X64628100Y-15437399D01*
X64595695Y-15316464D01*
X64533095Y-15208036D01*
X64444564Y-15119505D01*
X64336136Y-15056905D01*
X64215201Y-15024500D01*
X64089999Y-15024500D01*
X64009375Y-15046103D01*
X63969063Y-15056905D01*
X63860636Y-15119505D01*
X63772105Y-15208036D01*
X63709505Y-15316463D01*
X63709505Y-15316464D01*
X63677100Y-15437399D01*
X63060740Y-15437399D01*
X63012601Y-15424500D01*
X62887399Y-15424500D01*
X62839253Y-15437401D01*
X62766463Y-15456905D01*
X62658036Y-15519505D01*
X62569505Y-15608036D01*
X62506905Y-15716463D01*
X62496103Y-15756775D01*
X62474500Y-15837399D01*
X60893402Y-15837399D01*
X60991964Y-15780495D01*
X61080495Y-15691964D01*
X61143095Y-15583536D01*
X61175500Y-15462601D01*
X61175500Y-15337399D01*
X61143095Y-15216464D01*
X61080495Y-15108036D01*
X60991964Y-15019505D01*
X60883536Y-14956905D01*
X60762601Y-14924500D01*
X60637399Y-14924500D01*
X60568003Y-14943095D01*
X60516463Y-14956905D01*
X60408036Y-15019505D01*
X60319505Y-15108036D01*
X60256905Y-15216463D01*
X60256905Y-15216464D01*
X60224500Y-15337399D01*
X55500000Y-15337399D01*
X55500000Y-14362399D01*
X67274500Y-14362399D01*
X67274500Y-14487601D01*
X67306905Y-14608536D01*
X67369505Y-14716964D01*
X67458036Y-14805495D01*
X67566464Y-14868095D01*
X67687399Y-14900500D01*
X67687401Y-14900500D01*
X67812599Y-14900500D01*
X67812601Y-14900500D01*
X67933536Y-14868095D01*
X68041964Y-14805495D01*
X68130495Y-14716964D01*
X68193095Y-14608536D01*
X68225500Y-14487601D01*
X68225500Y-14362399D01*
X68193095Y-14241464D01*
X68130495Y-14133036D01*
X68041964Y-14044505D01*
X67933536Y-13981905D01*
X67812601Y-13949500D01*
X67687399Y-13949500D01*
X67606775Y-13971103D01*
X67566463Y-13981905D01*
X67458036Y-14044505D01*
X67369505Y-14133036D01*
X67306905Y-14241463D01*
X67306905Y-14241464D01*
X67274500Y-14362399D01*
X55500000Y-14362399D01*
X55500000Y-13787399D01*
X58274500Y-13787399D01*
X58274500Y-13912601D01*
X58306905Y-14033536D01*
X58369505Y-14141964D01*
X58458036Y-14230495D01*
X58566464Y-14293095D01*
X58687399Y-14325500D01*
X58687401Y-14325500D01*
X58812599Y-14325500D01*
X58812601Y-14325500D01*
X58933536Y-14293095D01*
X59041964Y-14230495D01*
X59130495Y-14141964D01*
X59193095Y-14033536D01*
X59218855Y-13937399D01*
X70024500Y-13937399D01*
X70024500Y-14062601D01*
X70056905Y-14183536D01*
X70119505Y-14291964D01*
X70208036Y-14380495D01*
X70316464Y-14443095D01*
X70437399Y-14475500D01*
X70437401Y-14475500D01*
X70562599Y-14475500D01*
X70562601Y-14475500D01*
X70683536Y-14443095D01*
X70693402Y-14437399D01*
X72024500Y-14437399D01*
X72024500Y-14562601D01*
X72056905Y-14683536D01*
X72119505Y-14791964D01*
X72132537Y-14804996D01*
X72132539Y-14804998D01*
X72160315Y-14859516D01*
X72150741Y-14919948D01*
X72132539Y-14945002D01*
X72119505Y-14958036D01*
X72093047Y-15003863D01*
X72056905Y-15066463D01*
X72056905Y-15066464D01*
X72024500Y-15187399D01*
X72024500Y-15312601D01*
X72056905Y-15433536D01*
X72119505Y-15541964D01*
X72208036Y-15630495D01*
X72316464Y-15693095D01*
X72437399Y-15725500D01*
X72437401Y-15725500D01*
X72562599Y-15725500D01*
X72562601Y-15725500D01*
X72683536Y-15693095D01*
X72791964Y-15630495D01*
X72880495Y-15541964D01*
X72914264Y-15483472D01*
X72959732Y-15442532D01*
X73020582Y-15436136D01*
X73073571Y-15466728D01*
X73085733Y-15483469D01*
X73119505Y-15541964D01*
X73208036Y-15630495D01*
X73316464Y-15693095D01*
X73437399Y-15725500D01*
X73437401Y-15725500D01*
X73562599Y-15725500D01*
X73562601Y-15725500D01*
X73683536Y-15693095D01*
X73791964Y-15630495D01*
X73880495Y-15541964D01*
X73914264Y-15483472D01*
X73959732Y-15442532D01*
X74020582Y-15436136D01*
X74073571Y-15466728D01*
X74085733Y-15483469D01*
X74119505Y-15541964D01*
X74208036Y-15630495D01*
X74316464Y-15693095D01*
X74437399Y-15725500D01*
X74437401Y-15725500D01*
X74562602Y-15725500D01*
X74562602Y-15725499D01*
X74683536Y-15693095D01*
X74791964Y-15630495D01*
X74880495Y-15541964D01*
X74943095Y-15433536D01*
X74975500Y-15312601D01*
X74975500Y-15187399D01*
X74943095Y-15066464D01*
X74880495Y-14958036D01*
X74791964Y-14869505D01*
X74683536Y-14806905D01*
X74562601Y-14774500D01*
X74437399Y-14774500D01*
X74372224Y-14791964D01*
X74316463Y-14806905D01*
X74276366Y-14830055D01*
X74208036Y-14869505D01*
X74119505Y-14958036D01*
X74085735Y-15016527D01*
X74040267Y-15057467D01*
X73979417Y-15063863D01*
X73926429Y-15033270D01*
X73914266Y-15016530D01*
X73880495Y-14958036D01*
X73791964Y-14869505D01*
X73683536Y-14806905D01*
X73562601Y-14774500D01*
X73437399Y-14774500D01*
X73372224Y-14791964D01*
X73316463Y-14806905D01*
X73276366Y-14830055D01*
X73208036Y-14869505D01*
X73119505Y-14958036D01*
X73085735Y-15016527D01*
X73080574Y-15021174D01*
X73078222Y-15027708D01*
X73058231Y-15041291D01*
X73040267Y-15057467D01*
X73033358Y-15058193D01*
X73027615Y-15062096D01*
X73003461Y-15061335D01*
X72979417Y-15063863D01*
X72973400Y-15060389D01*
X72966460Y-15060171D01*
X72951820Y-15047929D01*
X72926429Y-15033270D01*
X72918116Y-15022668D01*
X72916079Y-15019670D01*
X72880495Y-14958036D01*
X72860842Y-14938383D01*
X72855582Y-14930642D01*
X72849531Y-14909813D01*
X72839685Y-14890487D01*
X72841178Y-14881055D01*
X72838515Y-14871885D01*
X72845862Y-14851478D01*
X72849256Y-14830055D01*
X72857823Y-14818262D01*
X72859244Y-14814318D01*
X72862098Y-14812378D01*
X72867461Y-14804998D01*
X72880495Y-14791964D01*
X72943095Y-14683536D01*
X72975500Y-14562601D01*
X72975500Y-14437399D01*
X72943095Y-14316464D01*
X72880495Y-14208036D01*
X72791964Y-14119505D01*
X72683536Y-14056905D01*
X72562601Y-14024500D01*
X72437399Y-14024500D01*
X72362741Y-14044505D01*
X72316463Y-14056905D01*
X72208036Y-14119505D01*
X72119505Y-14208036D01*
X72056905Y-14316463D01*
X72056905Y-14316464D01*
X72024500Y-14437399D01*
X70693402Y-14437399D01*
X70791964Y-14380495D01*
X70880495Y-14291964D01*
X70943095Y-14183536D01*
X70975500Y-14062601D01*
X70975500Y-13937399D01*
X70943095Y-13816464D01*
X70880495Y-13708036D01*
X70859858Y-13687399D01*
X82774500Y-13687399D01*
X82774500Y-13812601D01*
X82806905Y-13933536D01*
X82869505Y-14041964D01*
X82958036Y-14130495D01*
X83066464Y-14193095D01*
X83187399Y-14225500D01*
X83187401Y-14225500D01*
X83312599Y-14225500D01*
X83312601Y-14225500D01*
X83433536Y-14193095D01*
X83541964Y-14130495D01*
X83630495Y-14041964D01*
X83693095Y-13933536D01*
X83725500Y-13812601D01*
X83725500Y-13687399D01*
X83693095Y-13566464D01*
X83630495Y-13458036D01*
X83541964Y-13369505D01*
X83433536Y-13306905D01*
X83312601Y-13274500D01*
X83187399Y-13274500D01*
X83106775Y-13296103D01*
X83066463Y-13306905D01*
X82958036Y-13369505D01*
X82869505Y-13458036D01*
X82806905Y-13566463D01*
X82806905Y-13566464D01*
X82774500Y-13687399D01*
X70859858Y-13687399D01*
X70791964Y-13619505D01*
X70683536Y-13556905D01*
X70562601Y-13524500D01*
X70437399Y-13524500D01*
X70356775Y-13546103D01*
X70316463Y-13556905D01*
X70208036Y-13619505D01*
X70119505Y-13708036D01*
X70056905Y-13816463D01*
X70056905Y-13816464D01*
X70024500Y-13937399D01*
X59218855Y-13937399D01*
X59225500Y-13912601D01*
X59225500Y-13787399D01*
X59193095Y-13666464D01*
X59130495Y-13558036D01*
X59041964Y-13469505D01*
X58933536Y-13406905D01*
X58812601Y-13374500D01*
X58687399Y-13374500D01*
X58606775Y-13396103D01*
X58566463Y-13406905D01*
X58458036Y-13469505D01*
X58369505Y-13558036D01*
X58306905Y-13666463D01*
X58306905Y-13666464D01*
X58274500Y-13787399D01*
X55500000Y-13787399D01*
X55500000Y-12500001D01*
X55500000Y-12500000D01*
X55012399Y-12012399D01*
X68786328Y-12012399D01*
X68786328Y-12137601D01*
X68818733Y-12258536D01*
X68881333Y-12366964D01*
X68969864Y-12455495D01*
X69078292Y-12518095D01*
X69199227Y-12550500D01*
X69199229Y-12550500D01*
X69324427Y-12550500D01*
X69324429Y-12550500D01*
X69445364Y-12518095D01*
X69553792Y-12455495D01*
X69642323Y-12366964D01*
X69704923Y-12258536D01*
X69737328Y-12137601D01*
X69737328Y-12012399D01*
X69704923Y-11891464D01*
X69642323Y-11783036D01*
X69574086Y-11714799D01*
X72774500Y-11714799D01*
X72774500Y-11840001D01*
X72806905Y-11960936D01*
X72869505Y-12069364D01*
X72958036Y-12157895D01*
X73066464Y-12220495D01*
X73187399Y-12252900D01*
X73187401Y-12252900D01*
X73312599Y-12252900D01*
X73312601Y-12252900D01*
X73433536Y-12220495D01*
X73490861Y-12187399D01*
X75024500Y-12187399D01*
X75024500Y-12312601D01*
X75056905Y-12433536D01*
X75119505Y-12541964D01*
X75208036Y-12630495D01*
X75316464Y-12693095D01*
X75437399Y-12725500D01*
X75437401Y-12725500D01*
X75562599Y-12725500D01*
X75562601Y-12725500D01*
X75683536Y-12693095D01*
X75693402Y-12687399D01*
X79774500Y-12687399D01*
X79774500Y-12812601D01*
X79806905Y-12933536D01*
X79869505Y-13041964D01*
X79958036Y-13130495D01*
X80066464Y-13193095D01*
X80187399Y-13225500D01*
X80187401Y-13225500D01*
X80312599Y-13225500D01*
X80312601Y-13225500D01*
X80433536Y-13193095D01*
X80541964Y-13130495D01*
X80630495Y-13041964D01*
X80693095Y-12933536D01*
X80725500Y-12812601D01*
X80725500Y-12687399D01*
X80693095Y-12566464D01*
X80630495Y-12458036D01*
X80541964Y-12369505D01*
X80433536Y-12306905D01*
X80312601Y-12274500D01*
X80187399Y-12274500D01*
X80122224Y-12291964D01*
X80066463Y-12306905D01*
X79958036Y-12369505D01*
X79869505Y-12458036D01*
X79806905Y-12566463D01*
X79806905Y-12566464D01*
X79774500Y-12687399D01*
X75693402Y-12687399D01*
X75791964Y-12630495D01*
X75880495Y-12541964D01*
X75943095Y-12433536D01*
X75975500Y-12312601D01*
X75975500Y-12187399D01*
X75943095Y-12066464D01*
X75880495Y-11958036D01*
X75859858Y-11937399D01*
X82274500Y-11937399D01*
X82274500Y-12062601D01*
X82306905Y-12183536D01*
X82369505Y-12291964D01*
X82458036Y-12380495D01*
X82566464Y-12443095D01*
X82687399Y-12475500D01*
X82687401Y-12475500D01*
X82812599Y-12475500D01*
X82812601Y-12475500D01*
X82933536Y-12443095D01*
X83041964Y-12380495D01*
X83130495Y-12291964D01*
X83190865Y-12187399D01*
X85774500Y-12187399D01*
X85774500Y-12312601D01*
X85806905Y-12433536D01*
X85869505Y-12541964D01*
X85958036Y-12630495D01*
X86066464Y-12693095D01*
X86187399Y-12725500D01*
X86187401Y-12725500D01*
X86312599Y-12725500D01*
X86312601Y-12725500D01*
X86433536Y-12693095D01*
X86541964Y-12630495D01*
X86630495Y-12541964D01*
X86693095Y-12433536D01*
X86725500Y-12312601D01*
X86725500Y-12187399D01*
X86693095Y-12066464D01*
X86630495Y-11958036D01*
X86541964Y-11869505D01*
X86433536Y-11806905D01*
X86312601Y-11774500D01*
X86187399Y-11774500D01*
X86122224Y-11791964D01*
X86066463Y-11806905D01*
X85958036Y-11869505D01*
X85869505Y-11958036D01*
X85806905Y-12066463D01*
X85806905Y-12066464D01*
X85774500Y-12187399D01*
X83190865Y-12187399D01*
X83193095Y-12183536D01*
X83225500Y-12062601D01*
X83225500Y-11937399D01*
X83193095Y-11816464D01*
X83130495Y-11708036D01*
X83041964Y-11619505D01*
X82933536Y-11556905D01*
X82812601Y-11524500D01*
X82687399Y-11524500D01*
X82619529Y-11542686D01*
X82566463Y-11556905D01*
X82458036Y-11619505D01*
X82369505Y-11708036D01*
X82306905Y-11816463D01*
X82306905Y-11816464D01*
X82274500Y-11937399D01*
X75859858Y-11937399D01*
X75791964Y-11869505D01*
X75683536Y-11806905D01*
X75562601Y-11774500D01*
X75437399Y-11774500D01*
X75372224Y-11791964D01*
X75316463Y-11806905D01*
X75208036Y-11869505D01*
X75119505Y-11958036D01*
X75056905Y-12066463D01*
X75056905Y-12066464D01*
X75024500Y-12187399D01*
X73490861Y-12187399D01*
X73541964Y-12157895D01*
X73630495Y-12069364D01*
X73693095Y-11960936D01*
X73725500Y-11840001D01*
X73725500Y-11714799D01*
X73693095Y-11593864D01*
X73630495Y-11485436D01*
X73541964Y-11396905D01*
X73433536Y-11334305D01*
X73312601Y-11301900D01*
X73187399Y-11301900D01*
X73106775Y-11323503D01*
X73066463Y-11334305D01*
X72958036Y-11396905D01*
X72869505Y-11485436D01*
X72806905Y-11593863D01*
X72806905Y-11593864D01*
X72774500Y-11714799D01*
X69574086Y-11714799D01*
X69553792Y-11694505D01*
X69446975Y-11632835D01*
X69406036Y-11587367D01*
X69399640Y-11526517D01*
X69430233Y-11473529D01*
X69486128Y-11448642D01*
X69496477Y-11448100D01*
X69562599Y-11448100D01*
X69562601Y-11448100D01*
X69683536Y-11415695D01*
X69791964Y-11353095D01*
X69880495Y-11264564D01*
X69943095Y-11156136D01*
X69975500Y-11035201D01*
X69975500Y-10909999D01*
X69943095Y-10789064D01*
X69880495Y-10680636D01*
X69791964Y-10592105D01*
X69683536Y-10529505D01*
X69562601Y-10497100D01*
X69437399Y-10497100D01*
X69362450Y-10517183D01*
X69316463Y-10529505D01*
X69208036Y-10592105D01*
X69119505Y-10680636D01*
X69056905Y-10789063D01*
X69052016Y-10807309D01*
X69024500Y-10909999D01*
X69024500Y-11035201D01*
X69056905Y-11156136D01*
X69119505Y-11264564D01*
X69208036Y-11353095D01*
X69314852Y-11414764D01*
X69355792Y-11460233D01*
X69362188Y-11521083D01*
X69331595Y-11574071D01*
X69275700Y-11598958D01*
X69265351Y-11599500D01*
X69199227Y-11599500D01*
X69124569Y-11619505D01*
X69078291Y-11631905D01*
X68969864Y-11694505D01*
X68881333Y-11783036D01*
X68818733Y-11891463D01*
X68818733Y-11891464D01*
X68786328Y-12012399D01*
X55012399Y-12012399D01*
X54250000Y-11250000D01*
X54249999Y-11250000D01*
X52711517Y-11250000D01*
X52653326Y-11231093D01*
X52632978Y-11211271D01*
X52630500Y-11208042D01*
X52630496Y-11208038D01*
X52630495Y-11208036D01*
X52541964Y-11119505D01*
X52433536Y-11056905D01*
X52312601Y-11024500D01*
X52187399Y-11024500D01*
X52122224Y-11041964D01*
X52066463Y-11056905D01*
X51958036Y-11119505D01*
X51869499Y-11208042D01*
X51867022Y-11211271D01*
X51816596Y-11245924D01*
X51788483Y-11250000D01*
X48291008Y-11250000D01*
X48232817Y-11231093D01*
X48221004Y-11221004D01*
X47528996Y-10528996D01*
X47525369Y-10521878D01*
X47518907Y-10517183D01*
X47511743Y-10495134D01*
X47501219Y-10474479D01*
X47500000Y-10458992D01*
X47500000Y-10434108D01*
X53999500Y-10434108D01*
X53999500Y-10565892D01*
X54029579Y-10678151D01*
X54033609Y-10693190D01*
X54099496Y-10807309D01*
X54099498Y-10807311D01*
X54099500Y-10807314D01*
X54192686Y-10900500D01*
X54192688Y-10900501D01*
X54192690Y-10900503D01*
X54306810Y-10966390D01*
X54306808Y-10966390D01*
X54306812Y-10966391D01*
X54306814Y-10966392D01*
X54434108Y-11000500D01*
X54434110Y-11000500D01*
X54565890Y-11000500D01*
X54565892Y-11000500D01*
X54693186Y-10966392D01*
X54693188Y-10966390D01*
X54693190Y-10966390D01*
X54807309Y-10900503D01*
X54807309Y-10900502D01*
X54807314Y-10900500D01*
X54900500Y-10807314D01*
X54911037Y-10789063D01*
X54966390Y-10693190D01*
X54966390Y-10693188D01*
X54966392Y-10693186D01*
X55000500Y-10565892D01*
X55000500Y-10437399D01*
X60524500Y-10437399D01*
X60524500Y-10562601D01*
X60556905Y-10683536D01*
X60619505Y-10791964D01*
X60708036Y-10880495D01*
X60816464Y-10943095D01*
X60937399Y-10975500D01*
X60937401Y-10975500D01*
X61062599Y-10975500D01*
X61062601Y-10975500D01*
X61183536Y-10943095D01*
X61291964Y-10880495D01*
X61380495Y-10791964D01*
X61443095Y-10683536D01*
X61475500Y-10562601D01*
X61475500Y-10437399D01*
X64274500Y-10437399D01*
X64274500Y-10562601D01*
X64306905Y-10683536D01*
X64369505Y-10791964D01*
X64458036Y-10880495D01*
X64566464Y-10943095D01*
X64687399Y-10975500D01*
X64687401Y-10975500D01*
X64812599Y-10975500D01*
X64812601Y-10975500D01*
X64933536Y-10943095D01*
X65041964Y-10880495D01*
X65130495Y-10791964D01*
X65193095Y-10683536D01*
X65225500Y-10562601D01*
X65225500Y-10437399D01*
X65193095Y-10316464D01*
X65145547Y-10234108D01*
X74099500Y-10234108D01*
X74099500Y-10365892D01*
X74104673Y-10385198D01*
X74133609Y-10493190D01*
X74199496Y-10607309D01*
X74199498Y-10607311D01*
X74199500Y-10607314D01*
X74292686Y-10700500D01*
X74292688Y-10700501D01*
X74292690Y-10700503D01*
X74406810Y-10766390D01*
X74406808Y-10766390D01*
X74406812Y-10766391D01*
X74406814Y-10766392D01*
X74534108Y-10800500D01*
X74534110Y-10800500D01*
X74665890Y-10800500D01*
X74665892Y-10800500D01*
X74793186Y-10766392D01*
X74793188Y-10766390D01*
X74793190Y-10766390D01*
X74907309Y-10700503D01*
X74907309Y-10700502D01*
X74907314Y-10700500D01*
X74920415Y-10687399D01*
X79051900Y-10687399D01*
X79051900Y-10812601D01*
X79084305Y-10933536D01*
X79146905Y-11041964D01*
X79235436Y-11130495D01*
X79343864Y-11193095D01*
X79464799Y-11225500D01*
X79464801Y-11225500D01*
X79589999Y-11225500D01*
X79590001Y-11225500D01*
X79710936Y-11193095D01*
X79819364Y-11130495D01*
X79907895Y-11041964D01*
X79970495Y-10933536D01*
X80002900Y-10812601D01*
X80002900Y-10687399D01*
X79970495Y-10566464D01*
X79907895Y-10458036D01*
X79819364Y-10369505D01*
X79710936Y-10306905D01*
X79590001Y-10274500D01*
X79464799Y-10274500D01*
X79384175Y-10296103D01*
X79343863Y-10306905D01*
X79235436Y-10369505D01*
X79146905Y-10458036D01*
X79084305Y-10566463D01*
X79084305Y-10566464D01*
X79051900Y-10687399D01*
X74920415Y-10687399D01*
X75000500Y-10607314D01*
X75024085Y-10566464D01*
X75066390Y-10493190D01*
X75066390Y-10493188D01*
X75066392Y-10493186D01*
X75100500Y-10365892D01*
X75100500Y-10259999D01*
X88024500Y-10259999D01*
X88024500Y-10385201D01*
X88056905Y-10506136D01*
X88119505Y-10614564D01*
X88208036Y-10703095D01*
X88316464Y-10765695D01*
X88437399Y-10798100D01*
X88437401Y-10798100D01*
X88562599Y-10798100D01*
X88562601Y-10798100D01*
X88683536Y-10765695D01*
X88791964Y-10703095D01*
X88880495Y-10614564D01*
X88943095Y-10506136D01*
X88975500Y-10385201D01*
X88975500Y-10259999D01*
X88943095Y-10139064D01*
X88880495Y-10030636D01*
X88791964Y-9942105D01*
X88683536Y-9879505D01*
X88562601Y-9847100D01*
X88437399Y-9847100D01*
X88356775Y-9868703D01*
X88316463Y-9879505D01*
X88208036Y-9942105D01*
X88119505Y-10030636D01*
X88056905Y-10139063D01*
X88056905Y-10139064D01*
X88024500Y-10259999D01*
X75100500Y-10259999D01*
X75100500Y-10234108D01*
X75066392Y-10106814D01*
X75066390Y-10106811D01*
X75066390Y-10106809D01*
X75000503Y-9992690D01*
X75000501Y-9992688D01*
X75000500Y-9992686D01*
X74907314Y-9899500D01*
X74907311Y-9899498D01*
X74907309Y-9899496D01*
X74793189Y-9833609D01*
X74793191Y-9833609D01*
X74743799Y-9820375D01*
X74665892Y-9799500D01*
X74534108Y-9799500D01*
X74456200Y-9820375D01*
X74406809Y-9833609D01*
X74292690Y-9899496D01*
X74199496Y-9992690D01*
X74133609Y-10106809D01*
X74133608Y-10106814D01*
X74099500Y-10234108D01*
X65145547Y-10234108D01*
X65130495Y-10208036D01*
X65041964Y-10119505D01*
X64933536Y-10056905D01*
X64812601Y-10024500D01*
X64687399Y-10024500D01*
X64622224Y-10041964D01*
X64566463Y-10056905D01*
X64458036Y-10119505D01*
X64369505Y-10208036D01*
X64306905Y-10316463D01*
X64306905Y-10316464D01*
X64274500Y-10437399D01*
X61475500Y-10437399D01*
X61443095Y-10316464D01*
X61380495Y-10208036D01*
X61291964Y-10119505D01*
X61183536Y-10056905D01*
X61062601Y-10024500D01*
X60937399Y-10024500D01*
X60872224Y-10041964D01*
X60816463Y-10056905D01*
X60708036Y-10119505D01*
X60619505Y-10208036D01*
X60556905Y-10316463D01*
X60556905Y-10316464D01*
X60524500Y-10437399D01*
X55000500Y-10437399D01*
X55000500Y-10434108D01*
X54966392Y-10306814D01*
X54966390Y-10306811D01*
X54966390Y-10306809D01*
X54900503Y-10192690D01*
X54900501Y-10192688D01*
X54900500Y-10192686D01*
X54807314Y-10099500D01*
X54807311Y-10099498D01*
X54807309Y-10099496D01*
X54693189Y-10033609D01*
X54693191Y-10033609D01*
X54643799Y-10020375D01*
X54565892Y-9999500D01*
X54434108Y-9999500D01*
X54356200Y-10020375D01*
X54306809Y-10033609D01*
X54192690Y-10099496D01*
X54099496Y-10192690D01*
X54033609Y-10306809D01*
X54031022Y-10316464D01*
X53999500Y-10434108D01*
X47500000Y-10434108D01*
X47500000Y-9687399D01*
X52774500Y-9687399D01*
X52774500Y-9812601D01*
X52806905Y-9933536D01*
X52869505Y-10041964D01*
X52958036Y-10130495D01*
X53066464Y-10193095D01*
X53187399Y-10225500D01*
X53187401Y-10225500D01*
X53312599Y-10225500D01*
X53312601Y-10225500D01*
X53433536Y-10193095D01*
X53541964Y-10130495D01*
X53630495Y-10041964D01*
X53693095Y-9933536D01*
X53725500Y-9812601D01*
X53725500Y-9687399D01*
X53693095Y-9566464D01*
X53630495Y-9458036D01*
X53541964Y-9369505D01*
X53433536Y-9306905D01*
X53312601Y-9274500D01*
X53187399Y-9274500D01*
X53106775Y-9296103D01*
X53066463Y-9306905D01*
X52958036Y-9369505D01*
X52869505Y-9458036D01*
X52806905Y-9566463D01*
X52803145Y-9580495D01*
X52774500Y-9687399D01*
X47500000Y-9687399D01*
X47500000Y-8637399D01*
X51524500Y-8637399D01*
X51524500Y-8762601D01*
X51556905Y-8883536D01*
X51619505Y-8991964D01*
X51708036Y-9080495D01*
X51816464Y-9143095D01*
X51937399Y-9175500D01*
X51937401Y-9175500D01*
X52062599Y-9175500D01*
X52062601Y-9175500D01*
X52183536Y-9143095D01*
X52291964Y-9080495D01*
X52380495Y-8991964D01*
X52443095Y-8883536D01*
X52475500Y-8762601D01*
X52475500Y-8637399D01*
X52443095Y-8516464D01*
X52397447Y-8437399D01*
X59524500Y-8437399D01*
X59524500Y-8562601D01*
X59556905Y-8683536D01*
X59619505Y-8791964D01*
X59708036Y-8880495D01*
X59816464Y-8943095D01*
X59937399Y-8975500D01*
X59937401Y-8975500D01*
X60062599Y-8975500D01*
X60062601Y-8975500D01*
X60183536Y-8943095D01*
X60291964Y-8880495D01*
X60380495Y-8791964D01*
X60443095Y-8683536D01*
X60475500Y-8562601D01*
X60475500Y-8437399D01*
X61024500Y-8437399D01*
X61024500Y-8562601D01*
X61056905Y-8683536D01*
X61119505Y-8791964D01*
X61208036Y-8880495D01*
X61316464Y-8943095D01*
X61437399Y-8975500D01*
X61437401Y-8975500D01*
X61562599Y-8975500D01*
X61562601Y-8975500D01*
X61683536Y-8943095D01*
X61791964Y-8880495D01*
X61880495Y-8791964D01*
X61943095Y-8683536D01*
X61952108Y-8649899D01*
X62487000Y-8649899D01*
X62487000Y-8775101D01*
X62519405Y-8896036D01*
X62582005Y-9004464D01*
X62670536Y-9092995D01*
X62778964Y-9155595D01*
X62899899Y-9188000D01*
X62899901Y-9188000D01*
X63025099Y-9188000D01*
X63025101Y-9188000D01*
X63146036Y-9155595D01*
X63177553Y-9137399D01*
X67824500Y-9137399D01*
X67824500Y-9262601D01*
X67856905Y-9383536D01*
X67919505Y-9491964D01*
X68008036Y-9580495D01*
X68116464Y-9643095D01*
X68237399Y-9675500D01*
X68237401Y-9675500D01*
X68362599Y-9675500D01*
X68362601Y-9675500D01*
X68483536Y-9643095D01*
X68591964Y-9580495D01*
X68680495Y-9491964D01*
X68743095Y-9383536D01*
X68775500Y-9262601D01*
X68775500Y-9137399D01*
X68743095Y-9016464D01*
X68695547Y-8934108D01*
X71749500Y-8934108D01*
X71749500Y-9065892D01*
X71768660Y-9137399D01*
X71783609Y-9193190D01*
X71849496Y-9307309D01*
X71849498Y-9307311D01*
X71849500Y-9307314D01*
X71942686Y-9400500D01*
X71942688Y-9400501D01*
X71942690Y-9400503D01*
X72056810Y-9466390D01*
X72056808Y-9466390D01*
X72056812Y-9466391D01*
X72056814Y-9466392D01*
X72184108Y-9500500D01*
X72184110Y-9500500D01*
X72315890Y-9500500D01*
X72315892Y-9500500D01*
X72443186Y-9466392D01*
X72443188Y-9466390D01*
X72443190Y-9466390D01*
X72557309Y-9400503D01*
X72557309Y-9400502D01*
X72557314Y-9400500D01*
X72650500Y-9307314D01*
X72716392Y-9193186D01*
X72750500Y-9065892D01*
X72750500Y-8934108D01*
X72716392Y-8806814D01*
X72716390Y-8806811D01*
X72716390Y-8806809D01*
X72650503Y-8692690D01*
X72650501Y-8692688D01*
X72650500Y-8692686D01*
X72557314Y-8599500D01*
X72557311Y-8599498D01*
X72557309Y-8599496D01*
X72443189Y-8533609D01*
X72443191Y-8533609D01*
X72379192Y-8516461D01*
X72315892Y-8499500D01*
X72184108Y-8499500D01*
X72120808Y-8516461D01*
X72056809Y-8533609D01*
X71942690Y-8599496D01*
X71849496Y-8692690D01*
X71783609Y-8806809D01*
X71783608Y-8806814D01*
X71749500Y-8934108D01*
X68695547Y-8934108D01*
X68680495Y-8908036D01*
X68591964Y-8819505D01*
X68483536Y-8756905D01*
X68362601Y-8724500D01*
X68237399Y-8724500D01*
X68156775Y-8746103D01*
X68116463Y-8756905D01*
X68008036Y-8819505D01*
X67919505Y-8908036D01*
X67856905Y-9016463D01*
X67856905Y-9016464D01*
X67824500Y-9137399D01*
X63177553Y-9137399D01*
X63254464Y-9092995D01*
X63342995Y-9004464D01*
X63405595Y-8896036D01*
X63438000Y-8775101D01*
X63438000Y-8649899D01*
X63405595Y-8528964D01*
X63342995Y-8420536D01*
X63254464Y-8332005D01*
X63146036Y-8269405D01*
X63025101Y-8237000D01*
X62899899Y-8237000D01*
X62825614Y-8256905D01*
X62778963Y-8269405D01*
X62670536Y-8332005D01*
X62582005Y-8420536D01*
X62519405Y-8528963D01*
X62518160Y-8533609D01*
X62487000Y-8649899D01*
X61952108Y-8649899D01*
X61975500Y-8562601D01*
X61975500Y-8437399D01*
X61943095Y-8316464D01*
X61880495Y-8208036D01*
X61791964Y-8119505D01*
X61683536Y-8056905D01*
X61562601Y-8024500D01*
X61437399Y-8024500D01*
X61372224Y-8041964D01*
X61316463Y-8056905D01*
X61208036Y-8119505D01*
X61119505Y-8208036D01*
X61056905Y-8316463D01*
X61056905Y-8316464D01*
X61024500Y-8437399D01*
X60475500Y-8437399D01*
X60443095Y-8316464D01*
X60380495Y-8208036D01*
X60291964Y-8119505D01*
X60183536Y-8056905D01*
X60062601Y-8024500D01*
X59937399Y-8024500D01*
X59872224Y-8041964D01*
X59816463Y-8056905D01*
X59708036Y-8119505D01*
X59619505Y-8208036D01*
X59556905Y-8316463D01*
X59556905Y-8316464D01*
X59524500Y-8437399D01*
X52397447Y-8437399D01*
X52380495Y-8408036D01*
X52291964Y-8319505D01*
X52183536Y-8256905D01*
X52062601Y-8224500D01*
X51937399Y-8224500D01*
X51856775Y-8246103D01*
X51816463Y-8256905D01*
X51708036Y-8319505D01*
X51619505Y-8408036D01*
X51556905Y-8516463D01*
X51552311Y-8533608D01*
X51524500Y-8637399D01*
X47500000Y-8637399D01*
X47500000Y-7687399D01*
X82024500Y-7687399D01*
X82024500Y-7812601D01*
X82056905Y-7933536D01*
X82119505Y-8041964D01*
X82208036Y-8130495D01*
X82316464Y-8193095D01*
X82437399Y-8225500D01*
X82437401Y-8225500D01*
X82562599Y-8225500D01*
X82562601Y-8225500D01*
X82683536Y-8193095D01*
X82791964Y-8130495D01*
X82880495Y-8041964D01*
X82943095Y-7933536D01*
X82975500Y-7812601D01*
X82975500Y-7687399D01*
X82943095Y-7566464D01*
X82880495Y-7458036D01*
X82791964Y-7369505D01*
X82683536Y-7306905D01*
X82562601Y-7274500D01*
X82437399Y-7274500D01*
X82356775Y-7296103D01*
X82316463Y-7306905D01*
X82208036Y-7369505D01*
X82119505Y-7458036D01*
X82056905Y-7566463D01*
X82056905Y-7566464D01*
X82024500Y-7687399D01*
X47500000Y-7687399D01*
X47500000Y-1891008D01*
X47518907Y-1832817D01*
X47528996Y-1821004D01*
X48820504Y-529496D01*
X48875021Y-501719D01*
X48890508Y-500500D01*
X77085522Y-500500D01*
X77143713Y-519407D01*
G37*
%TD.AperFunction*%
%TD*%
%TA.AperFunction,Conductor*%
%TO.N,/excimerDriver/VDC_power*%
G36*
X93515677Y-30019685D02*
G01*
X93536319Y-30036319D01*
X93963681Y-30463681D01*
X93997166Y-30525004D01*
X94000000Y-30551362D01*
X94000000Y-31448638D01*
X93980315Y-31515677D01*
X93963681Y-31536319D01*
X93536319Y-31963681D01*
X93474996Y-31997166D01*
X93448638Y-32000000D01*
X90499999Y-32000000D01*
X89500000Y-32999999D01*
X89500000Y-38948638D01*
X89480315Y-39015677D01*
X89463681Y-39036319D01*
X89036819Y-39463181D01*
X88975496Y-39496666D01*
X88949138Y-39499500D01*
X31124000Y-39499500D01*
X31056961Y-39479815D01*
X31011206Y-39427011D01*
X31000000Y-39375500D01*
X31000000Y-33874000D01*
X31019685Y-33806961D01*
X31072489Y-33761206D01*
X31124000Y-33750000D01*
X34698638Y-33750000D01*
X34765677Y-33769685D01*
X34786319Y-33786319D01*
X37500000Y-36500000D01*
X55316559Y-36500000D01*
X55383598Y-36519685D01*
X55404240Y-36536319D01*
X55489707Y-36621786D01*
X55489711Y-36621789D01*
X55620814Y-36709390D01*
X55620827Y-36709397D01*
X55766498Y-36769735D01*
X55766503Y-36769737D01*
X55888848Y-36794073D01*
X55921153Y-36800499D01*
X55921156Y-36800500D01*
X55921158Y-36800500D01*
X56078844Y-36800500D01*
X56078845Y-36800499D01*
X56233497Y-36769737D01*
X56379179Y-36709394D01*
X56510289Y-36621789D01*
X56529708Y-36602370D01*
X56595760Y-36536319D01*
X56657083Y-36502834D01*
X56683441Y-36500000D01*
X57066559Y-36500000D01*
X57133598Y-36519685D01*
X57154240Y-36536319D01*
X57239707Y-36621786D01*
X57239711Y-36621789D01*
X57370814Y-36709390D01*
X57370827Y-36709397D01*
X57516498Y-36769735D01*
X57516503Y-36769737D01*
X57638848Y-36794073D01*
X57671153Y-36800499D01*
X57671156Y-36800500D01*
X57671158Y-36800500D01*
X57828844Y-36800500D01*
X57828845Y-36800499D01*
X57983497Y-36769737D01*
X58129179Y-36709394D01*
X58260289Y-36621789D01*
X58279708Y-36602370D01*
X58345760Y-36536319D01*
X58372687Y-36521615D01*
X58398506Y-36505023D01*
X58404706Y-36504131D01*
X58407083Y-36502834D01*
X58433441Y-36500000D01*
X58566559Y-36500000D01*
X58633598Y-36519685D01*
X58654240Y-36536319D01*
X58739707Y-36621786D01*
X58739711Y-36621789D01*
X58870814Y-36709390D01*
X58870827Y-36709397D01*
X59016498Y-36769735D01*
X59016503Y-36769737D01*
X59138848Y-36794073D01*
X59171153Y-36800499D01*
X59171156Y-36800500D01*
X59171158Y-36800500D01*
X59328844Y-36800500D01*
X59328845Y-36800499D01*
X59483497Y-36769737D01*
X59629179Y-36709394D01*
X59760289Y-36621789D01*
X59779708Y-36602370D01*
X59845760Y-36536319D01*
X59907083Y-36502834D01*
X59933441Y-36500000D01*
X63079690Y-36500000D01*
X63146729Y-36519685D01*
X63192484Y-36572489D01*
X63202428Y-36641647D01*
X63201307Y-36648191D01*
X63172289Y-36794073D01*
X63172289Y-36946841D01*
X63202089Y-37096654D01*
X63202091Y-37096662D01*
X63260548Y-37237791D01*
X63260553Y-37237800D01*
X63345418Y-37364808D01*
X63345421Y-37364812D01*
X63453433Y-37472824D01*
X63453437Y-37472827D01*
X63580445Y-37557692D01*
X63580451Y-37557695D01*
X63580452Y-37557696D01*
X63721584Y-37616155D01*
X63871404Y-37645956D01*
X63871408Y-37645957D01*
X63871409Y-37645957D01*
X64024170Y-37645957D01*
X64024171Y-37645956D01*
X64173994Y-37616155D01*
X64315126Y-37557696D01*
X64442141Y-37472827D01*
X64550159Y-37364809D01*
X64635028Y-37237794D01*
X64693487Y-37096662D01*
X64723289Y-36946837D01*
X64723289Y-36794077D01*
X64713398Y-36744352D01*
X64694271Y-36648191D01*
X64700498Y-36578600D01*
X64743361Y-36523422D01*
X64809251Y-36500178D01*
X64815888Y-36500000D01*
X86500000Y-36500000D01*
X87000000Y-36000000D01*
X87000000Y-33398084D01*
X87019685Y-33331045D01*
X87036314Y-33310407D01*
X87102370Y-33244352D01*
X87187239Y-33117337D01*
X87245698Y-32976205D01*
X87275500Y-32826380D01*
X87275500Y-32673620D01*
X87255394Y-32572540D01*
X87261621Y-32502949D01*
X87289326Y-32460673D01*
X89438181Y-30311819D01*
X89499504Y-30278334D01*
X89525862Y-30275500D01*
X89576381Y-30275500D01*
X89576382Y-30275499D01*
X89726205Y-30245698D01*
X89867337Y-30187239D01*
X89994352Y-30102370D01*
X90060404Y-30036317D01*
X90121725Y-30002834D01*
X90148084Y-30000000D01*
X93448638Y-30000000D01*
X93515677Y-30019685D01*
G37*
%TD.AperFunction*%
%TD*%
%TA.AperFunction,Conductor*%
%TO.N,+3V3*%
G36*
X98721004Y-27471004D02*
G01*
X98748781Y-27525521D01*
X98750000Y-27541008D01*
X98750000Y-27833569D01*
X98733315Y-27888571D01*
X98711135Y-27921765D01*
X98711132Y-27921772D01*
X98699501Y-27980241D01*
X98699500Y-27980251D01*
X98699500Y-27980252D01*
X98699500Y-30019748D01*
X98711133Y-30078231D01*
X98711134Y-30078232D01*
X98733314Y-30111426D01*
X98750000Y-30166429D01*
X98750000Y-34845956D01*
X98746627Y-34871579D01*
X98699716Y-35046653D01*
X98699715Y-35046656D01*
X98632990Y-35425073D01*
X98632990Y-35425076D01*
X98599500Y-35807861D01*
X98599500Y-36192138D01*
X98632990Y-36574923D01*
X98632990Y-36574926D01*
X98699716Y-36953348D01*
X98746627Y-37128419D01*
X98750000Y-37154042D01*
X98750000Y-38458992D01*
X98731093Y-38517183D01*
X98721004Y-38528996D01*
X97779496Y-39470504D01*
X97724979Y-39498281D01*
X97709492Y-39499500D01*
X90540508Y-39499500D01*
X90482317Y-39480593D01*
X90470504Y-39470504D01*
X90033393Y-39033393D01*
X90005616Y-38978876D01*
X90005427Y-38952183D01*
X90005248Y-38952171D01*
X90005411Y-38949886D01*
X90005407Y-38949286D01*
X90005500Y-38948639D01*
X90005500Y-38437399D01*
X95524500Y-38437399D01*
X95524500Y-38562601D01*
X95556905Y-38683536D01*
X95619505Y-38791964D01*
X95708036Y-38880495D01*
X95816464Y-38943095D01*
X95937399Y-38975500D01*
X95937401Y-38975500D01*
X96062599Y-38975500D01*
X96062601Y-38975500D01*
X96183536Y-38943095D01*
X96291964Y-38880495D01*
X96380495Y-38791964D01*
X96443095Y-38683536D01*
X96475500Y-38562601D01*
X96475500Y-38437399D01*
X96443095Y-38316464D01*
X96380495Y-38208036D01*
X96291964Y-38119505D01*
X96183536Y-38056905D01*
X96062601Y-38024500D01*
X95937399Y-38024500D01*
X95872224Y-38041964D01*
X95816463Y-38056905D01*
X95708036Y-38119505D01*
X95619505Y-38208036D01*
X95556905Y-38316463D01*
X95556905Y-38316464D01*
X95524500Y-38437399D01*
X90005500Y-38437399D01*
X90005500Y-36187399D01*
X93774500Y-36187399D01*
X93774500Y-36312601D01*
X93806905Y-36433536D01*
X93869505Y-36541964D01*
X93958036Y-36630495D01*
X94016527Y-36664264D01*
X94057467Y-36709733D01*
X94063863Y-36770583D01*
X94033270Y-36823571D01*
X94016530Y-36835733D01*
X93958038Y-36869504D01*
X93958036Y-36869505D01*
X93869505Y-36958036D01*
X93806905Y-37066463D01*
X93806905Y-37066464D01*
X93774500Y-37187399D01*
X93774500Y-37312601D01*
X93806905Y-37433536D01*
X93869505Y-37541964D01*
X93958036Y-37630495D01*
X94066464Y-37693095D01*
X94187399Y-37725500D01*
X94187406Y-37725500D01*
X94189045Y-37725716D01*
X94190119Y-37726228D01*
X94193667Y-37727179D01*
X94193490Y-37727836D01*
X94244271Y-37752053D01*
X94273470Y-37805822D01*
X94274282Y-37810944D01*
X94274499Y-37812598D01*
X94274500Y-37812601D01*
X94306905Y-37933536D01*
X94369505Y-38041964D01*
X94458036Y-38130495D01*
X94566464Y-38193095D01*
X94687399Y-38225500D01*
X94687401Y-38225500D01*
X94812599Y-38225500D01*
X94812601Y-38225500D01*
X94933536Y-38193095D01*
X95041964Y-38130495D01*
X95130495Y-38041964D01*
X95193095Y-37933536D01*
X95225500Y-37812601D01*
X95225500Y-37687399D01*
X95193095Y-37566464D01*
X95130495Y-37458036D01*
X95041964Y-37369505D01*
X94933536Y-37306905D01*
X94812598Y-37274499D01*
X94810944Y-37274282D01*
X94809865Y-37273767D01*
X94806333Y-37272821D01*
X94806508Y-37272166D01*
X94755720Y-37247938D01*
X94726527Y-37194166D01*
X94725716Y-37189045D01*
X94725500Y-37187405D01*
X94725500Y-37187399D01*
X94693095Y-37066464D01*
X94630495Y-36958036D01*
X94541964Y-36869505D01*
X94483472Y-36835735D01*
X94442532Y-36790268D01*
X94436136Y-36729418D01*
X94466728Y-36676429D01*
X94483469Y-36664266D01*
X94541964Y-36630495D01*
X94630495Y-36541964D01*
X94693095Y-36433536D01*
X94725500Y-36312601D01*
X94725500Y-36187399D01*
X94693095Y-36066464D01*
X94630495Y-35958036D01*
X94541964Y-35869505D01*
X94433536Y-35806905D01*
X94312601Y-35774500D01*
X94187399Y-35774500D01*
X94122224Y-35791964D01*
X94066463Y-35806905D01*
X93958036Y-35869505D01*
X93869505Y-35958036D01*
X93806905Y-36066463D01*
X93799886Y-36092657D01*
X93774500Y-36187399D01*
X90005500Y-36187399D01*
X90005500Y-33687399D01*
X90274500Y-33687399D01*
X90274500Y-33812601D01*
X90306905Y-33933536D01*
X90369505Y-34041964D01*
X90458036Y-34130495D01*
X90566464Y-34193095D01*
X90687399Y-34225500D01*
X90687401Y-34225500D01*
X90812599Y-34225500D01*
X90812601Y-34225500D01*
X90933536Y-34193095D01*
X91041964Y-34130495D01*
X91130495Y-34041964D01*
X91190865Y-33937399D01*
X97551900Y-33937399D01*
X97551900Y-34062601D01*
X97584305Y-34183536D01*
X97646905Y-34291964D01*
X97735436Y-34380495D01*
X97843864Y-34443095D01*
X97964799Y-34475500D01*
X97964801Y-34475500D01*
X98089999Y-34475500D01*
X98090001Y-34475500D01*
X98210936Y-34443095D01*
X98319364Y-34380495D01*
X98407895Y-34291964D01*
X98470495Y-34183536D01*
X98502900Y-34062601D01*
X98502900Y-33937399D01*
X98470495Y-33816464D01*
X98407895Y-33708036D01*
X98319364Y-33619505D01*
X98210936Y-33556905D01*
X98090001Y-33524500D01*
X97964799Y-33524500D01*
X97884175Y-33546103D01*
X97843863Y-33556905D01*
X97735436Y-33619505D01*
X97646905Y-33708036D01*
X97584305Y-33816463D01*
X97584305Y-33816464D01*
X97551900Y-33937399D01*
X91190865Y-33937399D01*
X91193095Y-33933536D01*
X91225500Y-33812601D01*
X91225500Y-33687399D01*
X91193095Y-33566464D01*
X91130495Y-33458036D01*
X91041964Y-33369505D01*
X90933536Y-33306905D01*
X90812601Y-33274500D01*
X90687399Y-33274500D01*
X90622224Y-33291964D01*
X90566463Y-33306905D01*
X90458036Y-33369505D01*
X90369505Y-33458036D01*
X90306905Y-33566463D01*
X90306905Y-33566464D01*
X90274500Y-33687399D01*
X90005500Y-33687399D01*
X90005500Y-33285508D01*
X90024407Y-33227317D01*
X90034496Y-33215504D01*
X90312601Y-32937399D01*
X93774500Y-32937399D01*
X93774500Y-33062601D01*
X93806905Y-33183536D01*
X93869505Y-33291964D01*
X93958036Y-33380495D01*
X94066464Y-33443095D01*
X94187399Y-33475500D01*
X94187401Y-33475500D01*
X94312599Y-33475500D01*
X94312601Y-33475500D01*
X94433536Y-33443095D01*
X94541964Y-33380495D01*
X94630495Y-33291964D01*
X94693095Y-33183536D01*
X94725500Y-33062601D01*
X94725500Y-32937399D01*
X94693095Y-32816464D01*
X94630495Y-32708036D01*
X94541964Y-32619505D01*
X94433536Y-32556905D01*
X94312601Y-32524500D01*
X94187399Y-32524500D01*
X94106775Y-32546103D01*
X94066463Y-32556905D01*
X93958036Y-32619505D01*
X93869505Y-32708036D01*
X93806905Y-32816463D01*
X93806905Y-32816464D01*
X93774500Y-32937399D01*
X90312601Y-32937399D01*
X90715504Y-32534496D01*
X90770021Y-32506719D01*
X90785508Y-32505500D01*
X93448638Y-32505500D01*
X93502678Y-32502603D01*
X93529036Y-32499769D01*
X93582448Y-32491114D01*
X93717257Y-32440832D01*
X93778580Y-32407347D01*
X93893761Y-32321123D01*
X93914824Y-32300059D01*
X93935889Y-32278996D01*
X93990406Y-32251219D01*
X94005892Y-32250000D01*
X94249999Y-32250000D01*
X94250000Y-32250000D01*
X94250000Y-32005891D01*
X94268907Y-31947700D01*
X94278990Y-31935893D01*
X94321123Y-31893761D01*
X94357288Y-31853500D01*
X94373922Y-31832858D01*
X94405567Y-31788974D01*
X94465338Y-31658097D01*
X94485023Y-31591058D01*
X94485024Y-31591054D01*
X94501638Y-31475500D01*
X94505500Y-31448643D01*
X94505500Y-30551361D01*
X94504060Y-30524500D01*
X94502603Y-30497322D01*
X94499769Y-30470964D01*
X94491114Y-30417552D01*
X94440832Y-30282743D01*
X94407347Y-30221420D01*
X94321123Y-30106239D01*
X94307874Y-30092990D01*
X94278996Y-30064111D01*
X94251219Y-30009594D01*
X94250000Y-29994108D01*
X94250000Y-29750001D01*
X94250000Y-29750000D01*
X94249999Y-29750000D01*
X94005892Y-29750000D01*
X93947701Y-29731093D01*
X93935889Y-29721004D01*
X93893774Y-29678890D01*
X93893761Y-29678877D01*
X93853500Y-29642712D01*
X93853014Y-29642320D01*
X93832862Y-29626080D01*
X93788974Y-29594433D01*
X93788969Y-29594430D01*
X93658102Y-29534664D01*
X93658100Y-29534663D01*
X93658097Y-29534662D01*
X93591058Y-29514977D01*
X93591054Y-29514976D01*
X93591051Y-29514975D01*
X93591044Y-29514974D01*
X93448643Y-29494500D01*
X93448638Y-29494500D01*
X91500000Y-29494500D01*
X91500000Y-27187399D01*
X92024500Y-27187399D01*
X92024500Y-27312601D01*
X92056905Y-27433536D01*
X92119505Y-27541964D01*
X92208036Y-27630495D01*
X92316464Y-27693095D01*
X92437399Y-27725500D01*
X92437401Y-27725500D01*
X92562599Y-27725500D01*
X92562601Y-27725500D01*
X92683536Y-27693095D01*
X92791964Y-27630495D01*
X92880495Y-27541964D01*
X92914264Y-27483472D01*
X92959732Y-27442532D01*
X93020582Y-27436136D01*
X93073571Y-27466728D01*
X93085733Y-27483469D01*
X93119505Y-27541964D01*
X93208036Y-27630495D01*
X93316464Y-27693095D01*
X93437399Y-27725500D01*
X93437401Y-27725500D01*
X93562599Y-27725500D01*
X93562601Y-27725500D01*
X93683536Y-27693095D01*
X93791964Y-27630495D01*
X93880495Y-27541964D01*
X93943095Y-27433536D01*
X93975500Y-27312601D01*
X93975500Y-27187399D01*
X93943095Y-27066464D01*
X93880495Y-26958036D01*
X93791964Y-26869505D01*
X93683536Y-26806905D01*
X93562601Y-26774500D01*
X93437399Y-26774500D01*
X93372224Y-26791964D01*
X93316463Y-26806905D01*
X93208036Y-26869505D01*
X93119505Y-26958036D01*
X93085735Y-27016527D01*
X93040267Y-27057467D01*
X92979417Y-27063863D01*
X92926429Y-27033270D01*
X92914266Y-27016530D01*
X92880495Y-26958036D01*
X92791964Y-26869505D01*
X92683536Y-26806905D01*
X92562601Y-26774500D01*
X92437399Y-26774500D01*
X92372224Y-26791964D01*
X92316463Y-26806905D01*
X92208036Y-26869505D01*
X92119505Y-26958036D01*
X92056905Y-27066463D01*
X92056905Y-27066464D01*
X92024500Y-27187399D01*
X91500000Y-27187399D01*
X91500000Y-27000000D01*
X94155083Y-25672458D01*
X94119505Y-25708036D01*
X94056905Y-25816463D01*
X94056905Y-25816464D01*
X94024500Y-25937399D01*
X94024500Y-26062601D01*
X94056905Y-26183536D01*
X94119505Y-26291964D01*
X94208036Y-26380495D01*
X94316464Y-26443095D01*
X94437399Y-26475500D01*
X94437401Y-26475500D01*
X94562599Y-26475500D01*
X94562601Y-26475500D01*
X94683536Y-26443095D01*
X94791964Y-26380495D01*
X94880495Y-26291964D01*
X94943095Y-26183536D01*
X94975500Y-26062601D01*
X94975500Y-25937399D01*
X94943095Y-25816464D01*
X94880495Y-25708036D01*
X94791964Y-25619505D01*
X94683536Y-25556905D01*
X94562601Y-25524500D01*
X94451000Y-25524500D01*
X96000000Y-24750000D01*
X98721004Y-27471004D01*
G37*
%TD.AperFunction*%
%TD*%
M02*
