%TF.GenerationSoftware,KiCad,Pcbnew,9.0.2*%
%TF.CreationDate,2026-03-04T09:50:59+01:00*%
%TF.ProjectId,OSLUV,4f534c55-562e-46b6-9963-61645f706362,01*%
%TF.SameCoordinates,PX2faf080PY5a995c0*%
%TF.FileFunction,Copper,L4,Bot*%
%TF.FilePolarity,Positive*%
%FSLAX46Y46*%
G04 Gerber Fmt 4.6, Leading zero omitted, Abs format (unit mm)*
G04 Created by KiCad (PCBNEW 9.0.2) date 2026-03-04 09:50:59*
%MOMM*%
%LPD*%
G01*
G04 APERTURE LIST*
G04 Aperture macros list*
%AMRoundRect*
0 Rectangle with rounded corners*
0 $1 Rounding radius*
0 $2 $3 $4 $5 $6 $7 $8 $9 X,Y pos of 4 corners*
0 Add a 4 corners polygon primitive as box body*
4,1,4,$2,$3,$4,$5,$6,$7,$8,$9,$2,$3,0*
0 Add four circle primitives for the rounded corners*
1,1,$1+$1,$2,$3*
1,1,$1+$1,$4,$5*
1,1,$1+$1,$6,$7*
1,1,$1+$1,$8,$9*
0 Add four rect primitives between the rounded corners*
20,1,$1+$1,$2,$3,$4,$5,0*
20,1,$1+$1,$4,$5,$6,$7,0*
20,1,$1+$1,$6,$7,$8,$9,0*
20,1,$1+$1,$8,$9,$2,$3,0*%
G04 Aperture macros list end*
%ADD10C,0.200000*%
%TA.AperFunction,ComponentPad*%
%ADD11R,1.600000X1.600000*%
%TD*%
%TA.AperFunction,ComponentPad*%
%ADD12C,1.600000*%
%TD*%
%TA.AperFunction,ComponentPad*%
%ADD13R,1.400000X1.100000*%
%TD*%
%TA.AperFunction,ComponentPad*%
%ADD14C,1.400000*%
%TD*%
%TA.AperFunction,ComponentPad*%
%ADD15O,1.905000X4.500000*%
%TD*%
%TA.AperFunction,ComponentPad*%
%ADD16C,0.600000*%
%TD*%
%TA.AperFunction,SMDPad,CuDef*%
%ADD17C,6.600000*%
%TD*%
%TA.AperFunction,ComponentPad*%
%ADD18C,2.600000*%
%TD*%
%TA.AperFunction,ComponentPad*%
%ADD19C,2.500000*%
%TD*%
%TA.AperFunction,ComponentPad*%
%ADD20RoundRect,0.250000X-0.600000X-0.725000X0.600000X-0.725000X0.600000X0.725000X-0.600000X0.725000X0*%
%TD*%
%TA.AperFunction,ComponentPad*%
%ADD21O,1.700000X1.950000*%
%TD*%
%TA.AperFunction,ConnectorPad*%
%ADD22C,0.787400*%
%TD*%
%TA.AperFunction,ComponentPad*%
%ADD23C,2.625000*%
%TD*%
%TA.AperFunction,ComponentPad*%
%ADD24R,2.000000X2.000000*%
%TD*%
%TA.AperFunction,ViaPad*%
%ADD25C,0.600000*%
%TD*%
%TA.AperFunction,ViaPad*%
%ADD26C,0.550000*%
%TD*%
%TA.AperFunction,Conductor*%
%ADD27C,1.000000*%
%TD*%
%TA.AperFunction,Conductor*%
%ADD28C,0.200000*%
%TD*%
%TA.AperFunction,Conductor*%
%ADD29C,0.152400*%
%TD*%
%TA.AperFunction,Conductor*%
%ADD30C,0.500000*%
%TD*%
G04 APERTURE END LIST*
D10*
X80000000Y-50000000D02*
X80000000Y-50000000D01*
D11*
%TO.P,J1,1,1*%
%TO.N,/excimerDriver/VDC*%
X90250000Y-3300000D03*
D12*
%TO.P,J1,2,2*%
%TO.N,/excimerDriver/!REMOTE*%
X92750000Y-3300000D03*
%TO.P,J1,3,3*%
%TO.N,/excimerDriver/Lamp_on_status*%
X95250000Y-3300000D03*
%TO.P,J1,4,4*%
%TO.N,GND*%
X97750000Y-3300000D03*
%TD*%
D13*
%TO.P,J5,1,1*%
%TO.N,Net-(J5-Pad1)*%
X79000000Y-1700000D03*
D14*
%TO.P,J5,2,2*%
%TO.N,Net-(J5-Pad2)*%
X81000000Y-1700000D03*
%TO.P,J5,3,3*%
%TO.N,Net-(F2-Pad2)*%
X83000000Y-1700000D03*
%TO.P,J5,4,4*%
%TO.N,GND*%
X85000000Y-1700000D03*
%TD*%
D11*
%TO.P,C42,1*%
%TO.N,/excimerDriver/VDC_power*%
X51000000Y-37500000D03*
D12*
%TO.P,C42,2*%
%TO.N,GND*%
X51000000Y-34000000D03*
%TD*%
D15*
%TO.P,T101,1,D*%
%TO.N,/excimerDriver/lampDriver/HV_Drain*%
X52020000Y-28000000D03*
%TO.P,T101,2,S*%
%TO.N,/excimerDriver/lampDriver/Source*%
X57100000Y-28000000D03*
%TO.P,T101,3,K*%
X59640000Y-28000000D03*
%TO.P,T101,4,G*%
%TO.N,Net-(T101-G)*%
X62180000Y-28000000D03*
%TD*%
D16*
%TO.P,H3,1,1*%
%TO.N,/excimerDriver/EARTH*%
X103000000Y-4000000D03*
X104000000Y-2000000D03*
X104000000Y-6000000D03*
X106000000Y-1000000D03*
D17*
X106000000Y-4000000D03*
D16*
X106000000Y-7000000D03*
X108000000Y-2000000D03*
X108000000Y-6000000D03*
X109000000Y-4000000D03*
%TD*%
D18*
%TO.P,J6,1,1*%
%TO.N,/excimerDriver/lampDriver/Lamp_GND*%
X3995500Y-22815100D03*
D19*
%TO.P,J6,5,5*%
%TO.N,/excimerDriver/lampDriver/HV_Lamp*%
X3995500Y-6975101D03*
%TD*%
D20*
%TO.P,J2,1,1*%
%TO.N,/excimerDriver/VDC*%
X56600000Y-3300000D03*
D21*
%TO.P,J2,2,2*%
%TO.N,GND*%
X59100000Y-3300000D03*
%TO.P,J2,3,3*%
X61600000Y-3300000D03*
%TO.P,J2,4,4*%
%TO.N,/excimerDriver/!REMOTE*%
X64100000Y-3300000D03*
%TO.P,J2,5,5*%
%TO.N,/excimerDriver/Lamp_on_status*%
X66600000Y-3300000D03*
%TO.P,J2,6,6*%
%TO.N,Net-(J2-Pad6)*%
X69100000Y-3300000D03*
%TO.P,J2,7,7*%
%TO.N,Net-(J2-Pad7)*%
X71600000Y-3300000D03*
%TO.P,J2,8,8*%
%TO.N,Net-(J2-Pad8)*%
X74100000Y-3300000D03*
%TD*%
D16*
%TO.P,H4,1,1*%
%TO.N,/excimerDriver/EARTH*%
X103000000Y-36000000D03*
X104000000Y-34000000D03*
X104000000Y-38000000D03*
X106000000Y-33000000D03*
D17*
X106000000Y-36000000D03*
D16*
X106000000Y-39000000D03*
X108000000Y-34000000D03*
X108000000Y-38000000D03*
X109000000Y-36000000D03*
%TD*%
D11*
%TO.P,C101,1*%
%TO.N,/excimerDriver/24V_FUSE*%
X92250000Y-15750000D03*
D12*
%TO.P,C101,2*%
%TO.N,GND*%
X88750000Y-15750000D03*
%TD*%
D22*
%TO.P,J3,1*%
%TO.N,+3V3*%
X84893300Y-21520000D03*
%TO.P,J3,2*%
%TO.N,/excimerDriver/SWDIO*%
X84893300Y-20250000D03*
%TO.P,J3,3*%
%TO.N,/excimerDriver/RESET*%
X83623300Y-21520000D03*
%TO.P,J3,4*%
%TO.N,/excimerDriver/SWCLK*%
X83623300Y-20250000D03*
%TO.P,J3,5*%
%TO.N,GND*%
X82353300Y-21520000D03*
%TO.P,J3,6*%
%TO.N,unconnected-(J3-Pad6)*%
X82353300Y-20250000D03*
%TD*%
D23*
%TO.P,L101,2,2*%
%TO.N,/excimerDriver/lampDriver/HV_Lamp*%
X14800000Y-9580000D03*
%TO.P,L101,4,4*%
%TO.N,GND*%
X14800000Y-24616800D03*
%TO.P,L101,5,5*%
%TO.N,/excimerDriver/lampDriver/VDC_Trafo*%
X14800000Y-29900000D03*
%TO.P,L101,8,8*%
%TO.N,/excimerDriver/lampDriver/HV_Drain*%
X40200000Y-29900000D03*
%TO.P,L101,12,12*%
%TO.N,/excimerDriver/lampDriver/HV_Lamp{slash}2*%
X40200000Y-9580000D03*
%TD*%
D24*
%TO.P,TP12,1,1*%
%TO.N,GND*%
X99900000Y-29000000D03*
%TD*%
D19*
%TO.P,M1,1,1*%
%TO.N,GND*%
X68200000Y-30300000D03*
X45800000Y-30300000D03*
%TD*%
D25*
%TO.N,+3V3*%
X71800000Y-32100000D03*
D26*
%TO.N,GND*%
X61250000Y-24250000D03*
D25*
X60800000Y-20300000D03*
X72250000Y-9000000D03*
D26*
X86000000Y-18500000D03*
X78500000Y-5750000D03*
D25*
X74600000Y-10300000D03*
D26*
X75000000Y-26000000D03*
D25*
X54500000Y-10500000D03*
D26*
X75750000Y-30500000D03*
X79000000Y-26250000D03*
X64250000Y-22250000D03*
X94750000Y-37750000D03*
X41750000Y-22062500D03*
X74500000Y-15250000D03*
X93500000Y-27250000D03*
X42500000Y-22062500D03*
X72500000Y-17500000D03*
X78000000Y-24250000D03*
X85500000Y-35500000D03*
X65500000Y-35000000D03*
X67500000Y-23750000D03*
X77000000Y-30500000D03*
X64750000Y-6000000D03*
X77250000Y-17500000D03*
X77750000Y-33550000D03*
X71500000Y-25750000D03*
X100500000Y-26500000D03*
X68300000Y-9200000D03*
X86250000Y-12250000D03*
X94250000Y-36250000D03*
X84750000Y-35275000D03*
X25800000Y-36500000D03*
D25*
X53250000Y-11850000D03*
D26*
X69250000Y-35525000D03*
X78750000Y-30500000D03*
X22800000Y-36500000D03*
X72500000Y-15250000D03*
X81415248Y-20936208D03*
X89500000Y-29500000D03*
X66750000Y-25250000D03*
X66556251Y-17143749D03*
X61500000Y-8500000D03*
X80250000Y-12750000D03*
X18800000Y-36500000D03*
X52000000Y-8700000D03*
X56425000Y-16975000D03*
X76122929Y-15872929D03*
X86200000Y-23600000D03*
X70250000Y-28750000D03*
X68500000Y-35500000D03*
X88500000Y-10322600D03*
X80000000Y-33500000D03*
X21800000Y-36500000D03*
X67000000Y-6000000D03*
D25*
X56000000Y-36000000D03*
X63500000Y-19300000D03*
D26*
X99500000Y-26500000D03*
X96000000Y-38500000D03*
X76500000Y-2000000D03*
X41000000Y-22062500D03*
X24800000Y-36500000D03*
X90700000Y-27200000D03*
X61000000Y-10500000D03*
D25*
X57000000Y-22900000D03*
D26*
X68350000Y-25750000D03*
X58750000Y-13850000D03*
X94500000Y-22500000D03*
X55500000Y-6250000D03*
X23800000Y-36500000D03*
X94250000Y-33000000D03*
X64750000Y-10500000D03*
X85500000Y-24900000D03*
X92500000Y-27250000D03*
X94500000Y-26000000D03*
X82500000Y-7750000D03*
X20800000Y-36500000D03*
D25*
X57750000Y-36000000D03*
D26*
X76650000Y-19350000D03*
X74000000Y-19250000D03*
X48250000Y-14500000D03*
X69261828Y-12075000D03*
X69500000Y-6000000D03*
X98027400Y-34000000D03*
X84500000Y-4250000D03*
D25*
X69300000Y-22700000D03*
D26*
X80000000Y-30500000D03*
X19800000Y-36500000D03*
X60000000Y-8500000D03*
D25*
X59250000Y-36000000D03*
D26*
%TO.N,+3V3*%
X77225000Y-27725000D03*
X81250000Y-12250000D03*
X50500000Y-9750000D03*
D25*
X72250371Y-6800000D03*
D26*
X71500000Y-25000000D03*
X84893300Y-19428897D03*
D25*
X65524000Y-23835952D03*
D26*
X63200000Y-17050000D03*
X98000000Y-36000000D03*
D25*
X59804020Y-20095980D03*
D26*
X82640800Y-10250000D03*
X74650000Y-27550000D03*
X77250000Y-18250000D03*
X67000000Y-12000000D03*
X77750000Y-9250000D03*
X87500000Y-7000000D03*
X57500000Y-13250000D03*
X76250000Y-27750000D03*
X77777400Y-11976745D03*
X61500000Y-14250000D03*
%TO.N,/excimerDriver/RESET*%
X83645188Y-19429189D03*
%TO.N,/excimerDriver/Isense_In*%
X74250000Y-18000000D03*
X90750000Y-33750000D03*
%TO.N,/excimerDriver/VDC_power*%
X35300000Y-37500000D03*
X93250000Y-30500000D03*
X90750000Y-31500000D03*
X34300000Y-36500000D03*
X35250000Y-35500000D03*
X90750000Y-30500000D03*
X34250000Y-37500000D03*
X34300000Y-35500000D03*
X93250000Y-31500000D03*
X35300000Y-36500000D03*
X92250000Y-30500000D03*
X92250000Y-31500000D03*
%TO.N,Net-(D18-A)*%
X63947789Y-36870457D03*
X65500000Y-18750000D03*
%TO.N,/excimerDriver/OCP*%
X62950000Y-15900000D03*
D25*
X59940000Y-18000000D03*
D26*
X66550000Y-15912500D03*
%TO.N,/excimerDriver/Usense_Lamp*%
X70500000Y-14000000D03*
X64152600Y-15500000D03*
X62962500Y-8712500D03*
%TO.N,/excimerDriver/SWDIO*%
X84893300Y-22500000D03*
X71500000Y-20472600D03*
%TO.N,/excimerDriver/temp_MOSFET*%
X76206468Y-20835098D03*
D25*
X68500000Y-22000000D03*
X66350000Y-28250000D03*
D26*
X66500000Y-19000000D03*
%TO.N,/excimerDriver/Status*%
X73250000Y-11777400D03*
X70770855Y-6775000D03*
%TO.N,/excimerDriver/PWM*%
X73500000Y-15250000D03*
X69500000Y-10972600D03*
%TO.N,/excimerDriver/SWCLK*%
X83643300Y-22500000D03*
X70778248Y-21735876D03*
%TO.N,/excimerDriver/UV_LED*%
X53250000Y-9750000D03*
X75500000Y-12250000D03*
%TO.N,/excimerDriver/24V_Sense*%
X77264735Y-16264735D03*
X94250000Y-37250000D03*
%TO.N,/excimerDriver/MCU_REMOTE*%
X79250000Y-21250000D03*
X82750000Y-12000000D03*
D25*
%TO.N,/excimerDriver/DRV*%
X72250000Y-33500000D03*
D26*
X70150000Y-22050000D03*
D25*
%TO.N,/excimerDriver/lampDriver/HV_Drain*%
X52263341Y-23403716D03*
D26*
%TO.N,/excimerDriver/Isense_Lamp*%
X52250000Y-11500000D03*
X72500000Y-14500000D03*
X60700000Y-15400000D03*
%TO.N,/excimerDriver/Isense_MOS*%
X63750000Y-23972600D03*
%TO.N,/excimerDriver/lampDriver/VDC_Trafo*%
X27750000Y-36000000D03*
X27750000Y-35250000D03*
X27750000Y-34500000D03*
%TO.N,/excimerDriver/24V_FUSE*%
X95000000Y-10500000D03*
X48500000Y-3500000D03*
%TO.N,/excimerDriver/VDC_filter*%
X88000000Y-27750000D03*
X86500000Y-32750000D03*
%TO.N,/excimerDriver/I2C_SCL*%
X79000000Y-6775000D03*
X71750000Y-19000000D03*
%TO.N,/excimerDriver/I2C_SDA*%
X71387816Y-19779216D03*
X79527400Y-10750000D03*
%TO.N,/excimerDriver/OCP_RESET*%
X71750000Y-17250000D03*
X58250000Y-24750000D03*
%TO.N,/excimerDriver/LED1*%
X80000000Y-19000000D03*
X83250000Y-13750000D03*
%TO.N,/excimerDriver/Lamp_on_status*%
X87750000Y-1277400D03*
%TO.N,/excimerDriver/!REMOTE*%
X87800000Y-4400000D03*
%TO.N,Net-(IC6-BST)*%
X85500216Y-29500000D03*
X84000000Y-31000000D03*
%TO.N,Net-(IC3-PA5)*%
X75450000Y-20600000D03*
X74685876Y-25371752D03*
%TO.N,Net-(IC2C-+)*%
X68700000Y-17750000D03*
X67750000Y-14425000D03*
%TD*%
D27*
%TO.N,GND*%
X60000000Y-5000000D02*
X59100000Y-4100000D01*
X59100000Y-4100000D02*
X59100000Y-3000000D01*
X76500000Y-5000000D02*
X60000000Y-5000000D01*
X89750000Y-1000000D02*
X87550000Y-3200000D01*
X78300000Y-3200000D02*
X76500000Y-5000000D01*
X95750000Y-1000000D02*
X89750000Y-1000000D01*
X87550000Y-3200000D02*
X78300000Y-3200000D01*
X96750000Y-2000000D02*
X95750000Y-1000000D01*
D28*
%TO.N,/excimerDriver/Lamp_on_status*%
X69153400Y-746600D02*
X66600000Y-3300000D01*
X87219200Y-746600D02*
X69153400Y-746600D01*
X87750000Y-1277400D02*
X87219200Y-746600D01*
%TO.N,GND*%
X81769508Y-20936208D02*
X82353300Y-21520000D01*
X81415248Y-20936208D02*
X81769508Y-20936208D01*
X82637500Y-26612500D02*
X82750000Y-26725000D01*
X82750000Y-26500000D02*
X82637500Y-26612500D01*
D29*
%TO.N,+3V3*%
X84270000Y-19991820D02*
X84832923Y-19428897D01*
X84270000Y-20626700D02*
X84270000Y-19991820D01*
X84893300Y-21250000D02*
X84270000Y-20626700D01*
X84832923Y-19428897D02*
X84893300Y-19428897D01*
X84893300Y-21520000D02*
X84893300Y-21250000D01*
%TO.N,/excimerDriver/RESET*%
X83562631Y-19429189D02*
X83645188Y-19429189D01*
X83623300Y-21520000D02*
X83000000Y-20896700D01*
X83000000Y-20896700D02*
X83000000Y-19991820D01*
X83000000Y-19991820D02*
X83562631Y-19429189D01*
D28*
%TO.N,/excimerDriver/Isense_In*%
X96500000Y-30000000D02*
X96500000Y-32500000D01*
X76900000Y-21400000D02*
X76900000Y-20350000D01*
X86950000Y-24250000D02*
X91700000Y-29000000D01*
X82000000Y-24250000D02*
X86950000Y-24250000D01*
X82000000Y-24250000D02*
X81500000Y-24250000D01*
X96500000Y-32500000D02*
X95250000Y-33750000D01*
X91700000Y-29000000D02*
X95500000Y-29000000D01*
X79750000Y-24250000D02*
X76900000Y-21400000D01*
X76900000Y-20350000D02*
X74550000Y-18000000D01*
X95500000Y-29000000D02*
X96500000Y-30000000D01*
X74550000Y-18000000D02*
X74250000Y-18000000D01*
X82000000Y-24250000D02*
X79750000Y-24250000D01*
X95250000Y-33750000D02*
X90750000Y-33750000D01*
%TO.N,Net-(D18-A)*%
X66471600Y-35528400D02*
X67500000Y-34500000D01*
X63947789Y-36870457D02*
X65289846Y-35528400D01*
X65289846Y-35528400D02*
X66471600Y-35528400D01*
X67500000Y-34500000D02*
X67500000Y-32250000D01*
X67500000Y-32250000D02*
X64971600Y-29721600D01*
X64971600Y-20653400D02*
X65500000Y-20125000D01*
X64971600Y-29721600D02*
X64971600Y-20653400D01*
X65500000Y-20125000D02*
X65500000Y-18750000D01*
%TO.N,/excimerDriver/OCP*%
X66337500Y-15912500D02*
X66550000Y-15912500D01*
X62950000Y-15900000D02*
X63550000Y-16500000D01*
X65750000Y-16500000D02*
X66337500Y-15912500D01*
X60850000Y-18000000D02*
X62950000Y-15900000D01*
X59940000Y-18000000D02*
X59750000Y-18190000D01*
X59940000Y-18000000D02*
X60850000Y-18000000D01*
X63550000Y-16500000D02*
X65750000Y-16500000D01*
%TO.N,/excimerDriver/Usense_Lamp*%
X69400000Y-12900000D02*
X66600000Y-12900000D01*
X70500000Y-14000000D02*
X69400000Y-12900000D01*
X64150000Y-15350000D02*
X64150000Y-15497400D01*
X66600000Y-12900000D02*
X64150000Y-15350000D01*
X66500000Y-12900000D02*
X66600000Y-12900000D01*
X64485456Y-12235456D02*
X65250000Y-12235456D01*
X62875000Y-8800000D02*
X62875000Y-10625000D01*
X65250000Y-12235456D02*
X65835456Y-12235456D01*
X64150000Y-15497400D02*
X64152600Y-15500000D01*
X65000000Y-12235456D02*
X65250000Y-12235456D01*
X62962500Y-8712500D02*
X62875000Y-8800000D01*
X62875000Y-10625000D02*
X64485456Y-12235456D01*
X65835456Y-12235456D02*
X66500000Y-12900000D01*
D29*
%TO.N,/excimerDriver/SWDIO*%
X85893300Y-22500000D02*
X84893300Y-22500000D01*
X86985800Y-21407500D02*
X85893300Y-22500000D01*
X86393300Y-19750000D02*
X86985800Y-20342500D01*
X85393300Y-19750000D02*
X86393300Y-19750000D01*
X86985800Y-20342500D02*
X86985800Y-21407500D01*
X84893300Y-20250000D02*
X85393300Y-19750000D01*
D28*
%TO.N,/excimerDriver/temp_MOSFET*%
X76206468Y-20506468D02*
X75600000Y-19900000D01*
X69000000Y-21000000D02*
X68500000Y-21500000D01*
X66500000Y-19000000D02*
X67000000Y-19000000D01*
X67000000Y-19000000D02*
X69000000Y-21000000D01*
X68500000Y-21500000D02*
X68500000Y-22000000D01*
X75600000Y-19900000D02*
X74700000Y-19900000D01*
X74700000Y-19900000D02*
X73600000Y-21000000D01*
X68500000Y-24500000D02*
X66350000Y-26650000D01*
X68500000Y-23000000D02*
X68500000Y-24500000D01*
X76206468Y-20835098D02*
X76206468Y-20506468D01*
X68500000Y-23000000D02*
X68500000Y-22000000D01*
X66350000Y-26650000D02*
X66350000Y-28250000D01*
X73600000Y-21000000D02*
X69000000Y-21000000D01*
%TO.N,/excimerDriver/Status*%
X70770855Y-7270855D02*
X70770855Y-6775000D01*
X71300000Y-7800000D02*
X70770855Y-7270855D01*
X72800000Y-7800000D02*
X71300000Y-7800000D01*
X73500000Y-8500000D02*
X72800000Y-7800000D01*
X73500000Y-11527400D02*
X73500000Y-8500000D01*
X73250000Y-11777400D02*
X73500000Y-11527400D01*
%TO.N,/excimerDriver/PWM*%
X73500000Y-14250000D02*
X70222600Y-10972600D01*
X73500000Y-15250000D02*
X73500000Y-14250000D01*
X70222600Y-10972600D02*
X69500000Y-10972600D01*
D29*
%TO.N,/excimerDriver/SWCLK*%
X83643300Y-22500000D02*
X84246600Y-21896700D01*
X84246600Y-21035766D02*
X83623300Y-20412466D01*
X83623300Y-20412466D02*
X83623300Y-20250000D01*
X84246600Y-21896700D02*
X84246600Y-21035766D01*
D28*
%TO.N,/excimerDriver/UV_LED*%
X57000000Y-7000000D02*
X63750000Y-7000000D01*
X54250000Y-9750000D02*
X57000000Y-7000000D01*
X73000000Y-12500000D02*
X75250000Y-12500000D01*
X53250000Y-9750000D02*
X54250000Y-9750000D01*
X70250000Y-9750000D02*
X73000000Y-12500000D01*
X63750000Y-7000000D02*
X66500000Y-9750000D01*
X66500000Y-9750000D02*
X70250000Y-9750000D01*
X75250000Y-12500000D02*
X75500000Y-12250000D01*
%TO.N,/excimerDriver/24V_Sense*%
X77500000Y-20700000D02*
X79828400Y-23028400D01*
X95750000Y-28000000D02*
X97500000Y-29750000D01*
X92250000Y-28000000D02*
X93250466Y-28000000D01*
X97500000Y-34000000D02*
X94250000Y-37250000D01*
X76500000Y-18450000D02*
X77500000Y-19450000D01*
X79828400Y-23028400D02*
X87278400Y-23028400D01*
X93749534Y-28000000D02*
X95750000Y-28000000D01*
X77264735Y-16264735D02*
X76500000Y-17029470D01*
X93719534Y-28030000D02*
X93749534Y-28000000D01*
X87278400Y-23028400D02*
X92250000Y-28000000D01*
X77500000Y-19450000D02*
X77500000Y-20700000D01*
X93250466Y-28000000D02*
X93280466Y-28030000D01*
X97500000Y-29750000D02*
X97500000Y-34000000D01*
X76500000Y-17029470D02*
X76500000Y-18450000D01*
X93280466Y-28030000D02*
X93719534Y-28030000D01*
%TO.N,/excimerDriver/MCU_REMOTE*%
X78500000Y-16250000D02*
X82750000Y-12000000D01*
X79250000Y-21250000D02*
X78500000Y-20500000D01*
X78500000Y-20500000D02*
X78500000Y-16250000D01*
%TO.N,/excimerDriver/DRV*%
X74000000Y-25900000D02*
X74000000Y-31750000D01*
X74000000Y-31750000D02*
X72250000Y-33500000D01*
X70150000Y-22050000D02*
X74000000Y-25900000D01*
%TO.N,/excimerDriver/lampDriver/HV_Drain*%
X52250000Y-23602875D02*
X52263341Y-23616216D01*
%TO.N,/excimerDriver/Isense_Lamp*%
X68100000Y-11500000D02*
X67300000Y-10700000D01*
X67300000Y-10700000D02*
X66236000Y-10700000D01*
X57250000Y-11250000D02*
X60700000Y-14700000D01*
X58000000Y-9250000D02*
X58000000Y-10500000D01*
X58000000Y-10500000D02*
X57250000Y-11250000D01*
X59500000Y-7750000D02*
X58000000Y-9250000D01*
X60700000Y-14700000D02*
X60700000Y-15400000D01*
X69500000Y-11500000D02*
X68100000Y-11500000D01*
X63286000Y-7750000D02*
X59500000Y-7750000D01*
X72500000Y-14500000D02*
X69500000Y-11500000D01*
X57250000Y-11250000D02*
X52250000Y-11250000D01*
X66236000Y-10700000D02*
X63286000Y-7750000D01*
D30*
%TO.N,/excimerDriver/VDC_filter*%
X86500000Y-32750000D02*
X88000000Y-31250000D01*
X88000000Y-31250000D02*
X88000000Y-27750000D01*
D28*
%TO.N,/excimerDriver/I2C_SCL*%
X79000000Y-11750000D02*
X79000000Y-6775000D01*
X71750000Y-19000000D02*
X79000000Y-11750000D01*
%TO.N,/excimerDriver/I2C_SDA*%
X71970784Y-19779216D02*
X72500000Y-19250000D01*
X72500000Y-18750000D02*
X79500000Y-11750000D01*
X79500000Y-10750000D02*
X79527400Y-10750000D01*
X79500000Y-11750000D02*
X79500000Y-10750000D01*
X72500000Y-19250000D02*
X72500000Y-18750000D01*
X71387816Y-19779216D02*
X71970784Y-19779216D01*
%TO.N,/excimerDriver/OCP_RESET*%
X70400000Y-18600000D02*
X68350000Y-18600000D01*
X65000000Y-17750000D02*
X64500000Y-18250000D01*
X68350000Y-18600000D02*
X67500000Y-17750000D01*
X64500000Y-18250000D02*
X64500000Y-19600000D01*
X71750000Y-17250000D02*
X70400000Y-18600000D01*
X67500000Y-17750000D02*
X65000000Y-17750000D01*
X64500000Y-19600000D02*
X59350000Y-24750000D01*
X59350000Y-24750000D02*
X58250000Y-24750000D01*
%TO.N,/excimerDriver/LED1*%
X82750000Y-16250000D02*
X82750000Y-14250000D01*
X80000000Y-19000000D02*
X82750000Y-16250000D01*
X82750000Y-14250000D02*
X83250000Y-13750000D01*
%TO.N,/excimerDriver/Lamp_on_status*%
X66600000Y-3000000D02*
X66500000Y-3000000D01*
%TO.N,Net-(IC6-BST)*%
X84000000Y-31000000D02*
X85500000Y-29500000D01*
X85500000Y-29500000D02*
X85500216Y-29500000D01*
%TO.N,Net-(IC3-PA5)*%
X75450000Y-20600000D02*
X75450000Y-24607628D01*
X75450000Y-24607628D02*
X74685876Y-25371752D01*
%TO.N,Net-(IC2C-+)*%
X67750000Y-14425000D02*
X68850000Y-15525000D01*
X68850000Y-15525000D02*
X68850000Y-17600000D01*
X68850000Y-17600000D02*
X68700000Y-17750000D01*
%TD*%
%TA.AperFunction,Conductor*%
%TO.N,/excimerDriver/EARTH*%
G36*
X109442539Y-520185D02*
G01*
X109488294Y-572989D01*
X109499500Y-624500D01*
X109499500Y-39375500D01*
X109479815Y-39442539D01*
X109427011Y-39488294D01*
X109375500Y-39499500D01*
X103124000Y-39499500D01*
X103056961Y-39479815D01*
X103011206Y-39427011D01*
X103000000Y-39375500D01*
X103000000Y-35862332D01*
X103899500Y-35862332D01*
X103899500Y-36137667D01*
X103899501Y-36137684D01*
X103935438Y-36410655D01*
X103935439Y-36410660D01*
X103935440Y-36410666D01*
X103935441Y-36410668D01*
X104006704Y-36676630D01*
X104112075Y-36931017D01*
X104112080Y-36931028D01*
X104175343Y-37040601D01*
X104249751Y-37169479D01*
X104249753Y-37169482D01*
X104249754Y-37169483D01*
X104417370Y-37387926D01*
X104417376Y-37387933D01*
X104612066Y-37582623D01*
X104612072Y-37582628D01*
X104830521Y-37750249D01*
X104983778Y-37838732D01*
X105068971Y-37887919D01*
X105068976Y-37887921D01*
X105068979Y-37887923D01*
X105323368Y-37993295D01*
X105589334Y-38064560D01*
X105862326Y-38100500D01*
X105862333Y-38100500D01*
X106137667Y-38100500D01*
X106137674Y-38100500D01*
X106410666Y-38064560D01*
X106676632Y-37993295D01*
X106931021Y-37887923D01*
X107169479Y-37750249D01*
X107387928Y-37582628D01*
X107582628Y-37387928D01*
X107750249Y-37169479D01*
X107887923Y-36931021D01*
X107993295Y-36676632D01*
X108064560Y-36410666D01*
X108100500Y-36137674D01*
X108100500Y-35862326D01*
X108064560Y-35589334D01*
X107993295Y-35323368D01*
X107887923Y-35068979D01*
X107887921Y-35068976D01*
X107887919Y-35068971D01*
X107815427Y-34943413D01*
X107750249Y-34830521D01*
X107582628Y-34612072D01*
X107582623Y-34612066D01*
X107387933Y-34417376D01*
X107387926Y-34417370D01*
X107169483Y-34249754D01*
X107169482Y-34249753D01*
X107169479Y-34249751D01*
X107074407Y-34194861D01*
X106931028Y-34112080D01*
X106931017Y-34112075D01*
X106676630Y-34006704D01*
X106543649Y-33971072D01*
X106410666Y-33935440D01*
X106410660Y-33935439D01*
X106410655Y-33935438D01*
X106137684Y-33899501D01*
X106137679Y-33899500D01*
X106137674Y-33899500D01*
X105862326Y-33899500D01*
X105862320Y-33899500D01*
X105862315Y-33899501D01*
X105589344Y-33935438D01*
X105589337Y-33935439D01*
X105589334Y-33935440D01*
X105533125Y-33950500D01*
X105323369Y-34006704D01*
X105068982Y-34112075D01*
X105068971Y-34112080D01*
X104830516Y-34249754D01*
X104612073Y-34417370D01*
X104612066Y-34417376D01*
X104417376Y-34612066D01*
X104417370Y-34612073D01*
X104249754Y-34830516D01*
X104112080Y-35068971D01*
X104112075Y-35068982D01*
X104006704Y-35323369D01*
X103935441Y-35589331D01*
X103935438Y-35589344D01*
X103899501Y-35862315D01*
X103899500Y-35862332D01*
X103000000Y-35862332D01*
X103000000Y-34641340D01*
X103018214Y-34576645D01*
X103062772Y-34503789D01*
X103162332Y-34321456D01*
X103166831Y-34313875D01*
X103289299Y-34123311D01*
X103294341Y-34116051D01*
X103430088Y-33934714D01*
X103435628Y-33927838D01*
X103583990Y-33756618D01*
X103589996Y-33750168D01*
X103750168Y-33589996D01*
X103756618Y-33583990D01*
X103958700Y-33408885D01*
X103960398Y-33407442D01*
X104154454Y-33245583D01*
X104440896Y-32962255D01*
X104698189Y-32652215D01*
X104923853Y-32318449D01*
X104950539Y-32274473D01*
X105061446Y-32079936D01*
X105233707Y-31715724D01*
X105369439Y-31336381D01*
X105467335Y-30945561D01*
X105508540Y-30738412D01*
X105552305Y-30473331D01*
X105553589Y-30463578D01*
X105579923Y-30196203D01*
X105580136Y-30192946D01*
X105581207Y-30182897D01*
X105585731Y-30152409D01*
X105605500Y-29750000D01*
X105605500Y-9937781D01*
X105592258Y-9608299D01*
X105540257Y-9208774D01*
X105540254Y-9208759D01*
X105540252Y-9208741D01*
X105532441Y-9165454D01*
X105532438Y-9165440D01*
X105470158Y-8879149D01*
X105351486Y-8494128D01*
X105195648Y-8122593D01*
X105004142Y-7768122D01*
X104778815Y-7434128D01*
X104778795Y-7434101D01*
X104736960Y-7378215D01*
X104736954Y-7378207D01*
X104736946Y-7378197D01*
X104504556Y-7095028D01*
X104504543Y-7095015D01*
X104504537Y-7095008D01*
X104220947Y-6808877D01*
X104220940Y-6808871D01*
X103974822Y-6605042D01*
X103972777Y-6603310D01*
X103756639Y-6416025D01*
X103750161Y-6409993D01*
X103589997Y-6249829D01*
X103583965Y-6243351D01*
X103435629Y-6072163D01*
X103430075Y-6065270D01*
X103294349Y-5883961D01*
X103289320Y-5876719D01*
X103166835Y-5686129D01*
X103162329Y-5678533D01*
X103109958Y-5582623D01*
X103053757Y-5479699D01*
X103049803Y-5471799D01*
X103011205Y-5387278D01*
X103000000Y-5335768D01*
X103000000Y-3862332D01*
X103899500Y-3862332D01*
X103899500Y-4137667D01*
X103899501Y-4137684D01*
X103935438Y-4410655D01*
X103935439Y-4410660D01*
X103935440Y-4410666D01*
X103935441Y-4410668D01*
X104006704Y-4676630D01*
X104112075Y-4931017D01*
X104112080Y-4931028D01*
X104175701Y-5041221D01*
X104249751Y-5169479D01*
X104249753Y-5169482D01*
X104249754Y-5169483D01*
X104417370Y-5387926D01*
X104417376Y-5387933D01*
X104612066Y-5582623D01*
X104612072Y-5582628D01*
X104830521Y-5750249D01*
X104983778Y-5838732D01*
X105068971Y-5887919D01*
X105068976Y-5887921D01*
X105068979Y-5887923D01*
X105323368Y-5993295D01*
X105589334Y-6064560D01*
X105862326Y-6100500D01*
X105862333Y-6100500D01*
X106137667Y-6100500D01*
X106137674Y-6100500D01*
X106410666Y-6064560D01*
X106676632Y-5993295D01*
X106931021Y-5887923D01*
X107169479Y-5750249D01*
X107387928Y-5582628D01*
X107582628Y-5387928D01*
X107750249Y-5169479D01*
X107887923Y-4931021D01*
X107993295Y-4676632D01*
X108064560Y-4410666D01*
X108100500Y-4137674D01*
X108100500Y-3862326D01*
X108064560Y-3589334D01*
X107993295Y-3323368D01*
X107887923Y-3068979D01*
X107887921Y-3068976D01*
X107887919Y-3068971D01*
X107838732Y-2983778D01*
X107750249Y-2830521D01*
X107582628Y-2612072D01*
X107582623Y-2612066D01*
X107387933Y-2417376D01*
X107387926Y-2417370D01*
X107169483Y-2249754D01*
X107169482Y-2249753D01*
X107169479Y-2249751D01*
X107074407Y-2194861D01*
X106931028Y-2112080D01*
X106931017Y-2112075D01*
X106676630Y-2006704D01*
X106543649Y-1971072D01*
X106410666Y-1935440D01*
X106410660Y-1935439D01*
X106410655Y-1935438D01*
X106137684Y-1899501D01*
X106137679Y-1899500D01*
X106137674Y-1899500D01*
X105862326Y-1899500D01*
X105862320Y-1899500D01*
X105862315Y-1899501D01*
X105589344Y-1935438D01*
X105589337Y-1935439D01*
X105589334Y-1935440D01*
X105533125Y-1950500D01*
X105323369Y-2006704D01*
X105068982Y-2112075D01*
X105068971Y-2112080D01*
X104830516Y-2249754D01*
X104612073Y-2417370D01*
X104612066Y-2417376D01*
X104417376Y-2612066D01*
X104417370Y-2612073D01*
X104249754Y-2830516D01*
X104112080Y-3068971D01*
X104112075Y-3068982D01*
X104006704Y-3323369D01*
X103935441Y-3589331D01*
X103935438Y-3589344D01*
X103899501Y-3862315D01*
X103899500Y-3862332D01*
X103000000Y-3862332D01*
X103000000Y-624500D01*
X103019685Y-557461D01*
X103072489Y-511706D01*
X103124000Y-500500D01*
X109375500Y-500500D01*
X109442539Y-520185D01*
G37*
%TD.AperFunction*%
%TD*%
%TA.AperFunction,Conductor*%
%TO.N,GND*%
G36*
X68908635Y-518093D02*
G01*
X68934355Y-562642D01*
X68925422Y-613300D01*
X68913471Y-628874D01*
X67227223Y-2315121D01*
X67180603Y-2336861D01*
X67132272Y-2324474D01*
X67075051Y-2286241D01*
X67075049Y-2286240D01*
X66892538Y-2210642D01*
X66892537Y-2210641D01*
X66698778Y-2172100D01*
X66698777Y-2172100D01*
X66501223Y-2172100D01*
X66501222Y-2172100D01*
X66307462Y-2210641D01*
X66307461Y-2210642D01*
X66124950Y-2286240D01*
X65960682Y-2396000D01*
X65821000Y-2535682D01*
X65711240Y-2699950D01*
X65635642Y-2882461D01*
X65635641Y-2882462D01*
X65597100Y-3076222D01*
X65597100Y-3523777D01*
X65635641Y-3717537D01*
X65635642Y-3717538D01*
X65711240Y-3900049D01*
X65711241Y-3900051D01*
X65820996Y-4064312D01*
X65820997Y-4064313D01*
X65821000Y-4064317D01*
X65878309Y-4121626D01*
X65900049Y-4168246D01*
X65886735Y-4217933D01*
X65844598Y-4247438D01*
X65825135Y-4250000D01*
X64874865Y-4250000D01*
X64826527Y-4232407D01*
X64800807Y-4187858D01*
X64809740Y-4137200D01*
X64821691Y-4121626D01*
X64878998Y-4064318D01*
X64878999Y-4064317D01*
X64879004Y-4064312D01*
X64988759Y-3900051D01*
X65064359Y-3717535D01*
X65102900Y-3523777D01*
X65102900Y-3076223D01*
X65064359Y-2882465D01*
X64988759Y-2699949D01*
X64879004Y-2535688D01*
X64879001Y-2535685D01*
X64878999Y-2535682D01*
X64739317Y-2396000D01*
X64739313Y-2395997D01*
X64739312Y-2395996D01*
X64575051Y-2286241D01*
X64575049Y-2286240D01*
X64392538Y-2210642D01*
X64392537Y-2210641D01*
X64198778Y-2172100D01*
X64198777Y-2172100D01*
X64001223Y-2172100D01*
X64001222Y-2172100D01*
X63807462Y-2210641D01*
X63807461Y-2210642D01*
X63624950Y-2286240D01*
X63460682Y-2396000D01*
X63321000Y-2535682D01*
X63211240Y-2699950D01*
X63135642Y-2882461D01*
X63135641Y-2882462D01*
X63097100Y-3076222D01*
X63097100Y-3523777D01*
X63135641Y-3717537D01*
X63135642Y-3717538D01*
X63211240Y-3900049D01*
X63211241Y-3900051D01*
X63320996Y-4064312D01*
X63320997Y-4064313D01*
X63321000Y-4064317D01*
X63378309Y-4121626D01*
X63400049Y-4168246D01*
X63386735Y-4217933D01*
X63344598Y-4247438D01*
X63325135Y-4250000D01*
X62441474Y-4250000D01*
X62393136Y-4232407D01*
X62367416Y-4187858D01*
X62376349Y-4137200D01*
X62388300Y-4121626D01*
X62415584Y-4094341D01*
X62415586Y-4094338D01*
X62530498Y-3922360D01*
X62609649Y-3731273D01*
X62609650Y-3731271D01*
X62645707Y-3550000D01*
X62004146Y-3550000D01*
X62042630Y-3483343D01*
X62075000Y-3362535D01*
X62075000Y-3237465D01*
X62042630Y-3116657D01*
X62004146Y-3050000D01*
X62645707Y-3050000D01*
X62645707Y-3049999D01*
X62609650Y-2868728D01*
X62609649Y-2868726D01*
X62530498Y-2677639D01*
X62415586Y-2505661D01*
X62415584Y-2505658D01*
X62269341Y-2359415D01*
X62269338Y-2359413D01*
X62097360Y-2244501D01*
X61906271Y-2165349D01*
X61850000Y-2154156D01*
X61850000Y-2895854D01*
X61783343Y-2857370D01*
X61662535Y-2825000D01*
X61537465Y-2825000D01*
X61416657Y-2857370D01*
X61350000Y-2895854D01*
X61350000Y-2154156D01*
X61349999Y-2154156D01*
X61293728Y-2165349D01*
X61102639Y-2244501D01*
X60930661Y-2359413D01*
X60930658Y-2359415D01*
X60784415Y-2505658D01*
X60784413Y-2505661D01*
X60669501Y-2677639D01*
X60644676Y-2737573D01*
X60609923Y-2775498D01*
X60558923Y-2782212D01*
X60515540Y-2754574D01*
X60500000Y-2708795D01*
X60500000Y-2250000D01*
X60000000Y-1750000D01*
X58437500Y-1750000D01*
X57750000Y-2437499D01*
X57750000Y-2516540D01*
X57732407Y-2564878D01*
X57687858Y-2590598D01*
X57637200Y-2581665D01*
X57604135Y-2542260D01*
X57600526Y-2528304D01*
X57596939Y-2505658D01*
X57587957Y-2448945D01*
X57530016Y-2335229D01*
X57439771Y-2244984D01*
X57326055Y-2187043D01*
X57326057Y-2187043D01*
X57231710Y-2172100D01*
X57231708Y-2172100D01*
X55968292Y-2172100D01*
X55968289Y-2172100D01*
X55873943Y-2187043D01*
X55760228Y-2244984D01*
X55669984Y-2335228D01*
X55612043Y-2448943D01*
X55597100Y-2543289D01*
X55597100Y-4056712D01*
X55603737Y-4098615D01*
X55593922Y-4149109D01*
X55553945Y-4181481D01*
X55502513Y-4180583D01*
X55487684Y-4172905D01*
X55467858Y-4159658D01*
X55414705Y-4124142D01*
X55392772Y-4115057D01*
X55255377Y-4058146D01*
X55255376Y-4058145D01*
X55086230Y-4024500D01*
X55086229Y-4024500D01*
X54913771Y-4024500D01*
X54913770Y-4024500D01*
X54744623Y-4058145D01*
X54744622Y-4058146D01*
X54585296Y-4124141D01*
X54441898Y-4219957D01*
X54441895Y-4219959D01*
X54319959Y-4341895D01*
X54319957Y-4341898D01*
X54224141Y-4485296D01*
X54158146Y-4644622D01*
X54158145Y-4644623D01*
X54124500Y-4813770D01*
X54124500Y-4986229D01*
X54158145Y-5155376D01*
X54158146Y-5155377D01*
X54224142Y-5314705D01*
X54319955Y-5458099D01*
X54319957Y-5458101D01*
X54319959Y-5458104D01*
X54441895Y-5580040D01*
X54441898Y-5580042D01*
X54441901Y-5580045D01*
X54585295Y-5675858D01*
X54744622Y-5741853D01*
X54744623Y-5741854D01*
X54744624Y-5741854D01*
X54744626Y-5741855D01*
X54857896Y-5764385D01*
X54913770Y-5775500D01*
X54913771Y-5775500D01*
X55086230Y-5775500D01*
X55128229Y-5767145D01*
X55255374Y-5741855D01*
X55414705Y-5675858D01*
X55558099Y-5580045D01*
X55680045Y-5458099D01*
X55775858Y-5314705D01*
X55841855Y-5155374D01*
X55875500Y-4986229D01*
X55875500Y-4813771D01*
X55841855Y-4644626D01*
X55788289Y-4515308D01*
X55786046Y-4463918D01*
X55817361Y-4423108D01*
X55867581Y-4411974D01*
X55869530Y-4412257D01*
X55873942Y-4412955D01*
X55873945Y-4412957D01*
X55968292Y-4427900D01*
X55968296Y-4427900D01*
X57231704Y-4427900D01*
X57231708Y-4427900D01*
X57326055Y-4412957D01*
X57439771Y-4355016D01*
X57530016Y-4264771D01*
X57587957Y-4151055D01*
X57600526Y-4071694D01*
X57625464Y-4026705D01*
X57673487Y-4008270D01*
X57722125Y-4025018D01*
X57748618Y-4069110D01*
X57750000Y-4083459D01*
X57750000Y-4541667D01*
X58662794Y-5302328D01*
X59200000Y-5750000D01*
X59200001Y-5750000D01*
X76750000Y-5750000D01*
X78527974Y-3972026D01*
X78574594Y-3950286D01*
X78581148Y-3950000D01*
X87463309Y-3950000D01*
X87511647Y-3967593D01*
X87537367Y-4012142D01*
X87528434Y-4062800D01*
X87516483Y-4078374D01*
X87457598Y-4137258D01*
X87457594Y-4137264D01*
X87401261Y-4234835D01*
X87386680Y-4289251D01*
X87372100Y-4343666D01*
X87372100Y-4456334D01*
X87393970Y-4537955D01*
X87401261Y-4565164D01*
X87457594Y-4662735D01*
X87457598Y-4662741D01*
X87537258Y-4742401D01*
X87537261Y-4742403D01*
X87537263Y-4742405D01*
X87634837Y-4798739D01*
X87743666Y-4827900D01*
X87743669Y-4827900D01*
X87856331Y-4827900D01*
X87856334Y-4827900D01*
X87965163Y-4798739D01*
X88062737Y-4742405D01*
X88142405Y-4662737D01*
X88198739Y-4565163D01*
X88227900Y-4456334D01*
X88227900Y-4343666D01*
X88198739Y-4234837D01*
X88142405Y-4137263D01*
X88142403Y-4137261D01*
X88142401Y-4137258D01*
X88062743Y-4057600D01*
X88062738Y-4057596D01*
X88062737Y-4057595D01*
X88062734Y-4057593D01*
X88062683Y-4057554D01*
X88062658Y-4057515D01*
X88059252Y-4054109D01*
X88060006Y-4053354D01*
X88035041Y-4014172D01*
X88041751Y-3963172D01*
X88055280Y-3944719D01*
X89168728Y-2831271D01*
X89215346Y-2809532D01*
X89265033Y-2822846D01*
X89294538Y-2864983D01*
X89297100Y-2884446D01*
X89297100Y-4115055D01*
X89297101Y-4115057D01*
X89305972Y-4159659D01*
X89339764Y-4210232D01*
X89339765Y-4210232D01*
X89339766Y-4210234D01*
X89390342Y-4244028D01*
X89434943Y-4252900D01*
X90174801Y-4252899D01*
X90223138Y-4270492D01*
X90248858Y-4315041D01*
X90250000Y-4328099D01*
X90250000Y-10669111D01*
X90249839Y-10674029D01*
X90233212Y-10927706D01*
X90231928Y-10937459D01*
X90182813Y-11184378D01*
X90180267Y-11193879D01*
X90099344Y-11432270D01*
X90095580Y-11441358D01*
X89984232Y-11667149D01*
X89979313Y-11675668D01*
X89839441Y-11885001D01*
X89833453Y-11892805D01*
X89665832Y-12083940D01*
X89662468Y-12087531D01*
X87000000Y-14749999D01*
X87000000Y-14750000D01*
X87000000Y-16750000D01*
X88250000Y-18000000D01*
X88750000Y-18000000D01*
X91250000Y-20500000D01*
X98705026Y-27955026D01*
X98700000Y-27980301D01*
X98700000Y-28750000D01*
X98750000Y-28750000D01*
X98750000Y-29250000D01*
X98700000Y-29250000D01*
X98700000Y-30019698D01*
X98711603Y-30078034D01*
X98711604Y-30078035D01*
X98750000Y-30135498D01*
X98750000Y-32750000D01*
X101494463Y-29756039D01*
X101483212Y-29927706D01*
X101481928Y-29937459D01*
X101440723Y-30144608D01*
X101414037Y-30188584D01*
X101412034Y-30190137D01*
X101353467Y-30233979D01*
X101353463Y-30233982D01*
X100953941Y-30580171D01*
X100580171Y-30953941D01*
X100312594Y-31262741D01*
X100233990Y-31353455D01*
X100141853Y-31476536D01*
X99917194Y-31776645D01*
X99631408Y-32221336D01*
X99631407Y-32221337D01*
X99459463Y-32536228D01*
X99446636Y-32553362D01*
X98750000Y-33249998D01*
X98750000Y-34504445D01*
X98748281Y-34520430D01*
X98712445Y-34685160D01*
X98712441Y-34685185D01*
X98637210Y-35208429D01*
X98599500Y-35735679D01*
X98599500Y-36264320D01*
X98637210Y-36791570D01*
X98712441Y-37314814D01*
X98712445Y-37314839D01*
X98748281Y-37479569D01*
X98750000Y-37495554D01*
X98750000Y-37789940D01*
X98749768Y-37795840D01*
X98729447Y-38054043D01*
X98727601Y-38065698D01*
X98667830Y-38314659D01*
X98664184Y-38325882D01*
X98566201Y-38562434D01*
X98560844Y-38572948D01*
X98427062Y-38791260D01*
X98420126Y-38800806D01*
X98253844Y-38995499D01*
X98245499Y-39003844D01*
X98050806Y-39170126D01*
X98041260Y-39177062D01*
X97822948Y-39310844D01*
X97812434Y-39316201D01*
X97575882Y-39414184D01*
X97564659Y-39417830D01*
X97315698Y-39477601D01*
X97304043Y-39479447D01*
X97052194Y-39499268D01*
X97046294Y-39499500D01*
X90852172Y-39499500D01*
X90844801Y-39499138D01*
X90694403Y-39484324D01*
X90679945Y-39481448D01*
X90533999Y-39437176D01*
X90520379Y-39431534D01*
X90385879Y-39359642D01*
X90373622Y-39351453D01*
X90324139Y-39310844D01*
X90255721Y-39254695D01*
X90245304Y-39244278D01*
X90148546Y-39126377D01*
X90140357Y-39114120D01*
X90068465Y-38979620D01*
X90062823Y-38966000D01*
X90018551Y-38820054D01*
X90015675Y-38805596D01*
X90000362Y-38650122D01*
X90000000Y-38642751D01*
X90000000Y-33250000D01*
X89823483Y-33073483D01*
X89801743Y-33026863D01*
X89815057Y-32977176D01*
X89823477Y-32967141D01*
X90563093Y-32227526D01*
X90609713Y-32205786D01*
X90616267Y-32205500D01*
X93448636Y-32205500D01*
X93448638Y-32205500D01*
X93470607Y-32204322D01*
X93496965Y-32201488D01*
X93573482Y-32177529D01*
X93634805Y-32144044D01*
X93681629Y-32108991D01*
X94108991Y-31681629D01*
X94123693Y-31665262D01*
X94140327Y-31644620D01*
X94177490Y-31573575D01*
X94197175Y-31506536D01*
X94205500Y-31448638D01*
X94205500Y-30551362D01*
X94204322Y-30529393D01*
X94201488Y-30503035D01*
X94177529Y-30426518D01*
X94175843Y-30423431D01*
X94144042Y-30365192D01*
X94108993Y-30318373D01*
X93681644Y-29891023D01*
X93681639Y-29891018D01*
X93681628Y-29891008D01*
X93665262Y-29876307D01*
X93644620Y-29859673D01*
X93644615Y-29859670D01*
X93593109Y-29832728D01*
X93573575Y-29822510D01*
X93506536Y-29802825D01*
X93506532Y-29802824D01*
X93506531Y-29802824D01*
X93506528Y-29802823D01*
X93448650Y-29794501D01*
X93448641Y-29794500D01*
X93448638Y-29794500D01*
X89801362Y-29794500D01*
X89801358Y-29794500D01*
X89779388Y-29795678D01*
X89779384Y-29795678D01*
X89753034Y-29798512D01*
X89676520Y-29822470D01*
X89676512Y-29822473D01*
X89615197Y-29855954D01*
X89568364Y-29891013D01*
X88531274Y-30928104D01*
X88484654Y-30949844D01*
X88434967Y-30936530D01*
X88405462Y-30894393D01*
X88402900Y-30874930D01*
X88402900Y-27909535D01*
X88405462Y-27890072D01*
X88406127Y-27887590D01*
X88427900Y-27806334D01*
X88427900Y-27693666D01*
X88398739Y-27584837D01*
X88342405Y-27487263D01*
X88342403Y-27487261D01*
X88342401Y-27487258D01*
X88262741Y-27407598D01*
X88262735Y-27407594D01*
X88165164Y-27351261D01*
X88137955Y-27343970D01*
X88056334Y-27322100D01*
X87943666Y-27322100D01*
X87878368Y-27339596D01*
X87834835Y-27351261D01*
X87737264Y-27407594D01*
X87737258Y-27407598D01*
X87657598Y-27487258D01*
X87657594Y-27487264D01*
X87601261Y-27584835D01*
X87595501Y-27606334D01*
X87572100Y-27693666D01*
X87572100Y-27806334D01*
X87593873Y-27887590D01*
X87594538Y-27890072D01*
X87597100Y-27909535D01*
X87597100Y-31051965D01*
X87579507Y-31100303D01*
X87575074Y-31105139D01*
X86327916Y-32352296D01*
X86312342Y-32364247D01*
X86237264Y-32407593D01*
X86216778Y-32428080D01*
X86166883Y-32477974D01*
X86120265Y-32499714D01*
X86113710Y-32500000D01*
X73789201Y-32500000D01*
X73740863Y-32482407D01*
X73715143Y-32437858D01*
X73724076Y-32387200D01*
X73736027Y-32371626D01*
X73930127Y-32177526D01*
X74136023Y-31971629D01*
X74136036Y-31971620D01*
X74214398Y-31893258D01*
X74214399Y-31893257D01*
X74243950Y-31821913D01*
X74243951Y-31821912D01*
X74247657Y-31812963D01*
X74252901Y-31800305D01*
X74252901Y-31699695D01*
X74252901Y-31693640D01*
X74252900Y-31693626D01*
X74252900Y-30943666D01*
X83572100Y-30943666D01*
X83572100Y-31056334D01*
X83593970Y-31137955D01*
X83601261Y-31165164D01*
X83657594Y-31262735D01*
X83657598Y-31262741D01*
X83737258Y-31342401D01*
X83737261Y-31342403D01*
X83737263Y-31342405D01*
X83834837Y-31398739D01*
X83943666Y-31427900D01*
X83943669Y-31427900D01*
X84056331Y-31427900D01*
X84056334Y-31427900D01*
X84165163Y-31398739D01*
X84262737Y-31342405D01*
X84342405Y-31262737D01*
X84398739Y-31165163D01*
X84427900Y-31056334D01*
X84427900Y-30960902D01*
X84445493Y-30912564D01*
X84449926Y-30907728D01*
X85407728Y-29949926D01*
X85454348Y-29928186D01*
X85460902Y-29927900D01*
X85556547Y-29927900D01*
X85556550Y-29927900D01*
X85665379Y-29898739D01*
X85762953Y-29842405D01*
X85842621Y-29762737D01*
X85898955Y-29665163D01*
X85928116Y-29556334D01*
X85928116Y-29443666D01*
X85898955Y-29334837D01*
X85842621Y-29237263D01*
X85842619Y-29237261D01*
X85842617Y-29237258D01*
X85762957Y-29157598D01*
X85762951Y-29157594D01*
X85665380Y-29101261D01*
X85638171Y-29093970D01*
X85556550Y-29072100D01*
X85443882Y-29072100D01*
X85378584Y-29089596D01*
X85335051Y-29101261D01*
X85237480Y-29157594D01*
X85237474Y-29157598D01*
X85157814Y-29237258D01*
X85157810Y-29237264D01*
X85101477Y-29334835D01*
X85090295Y-29376569D01*
X85072316Y-29443666D01*
X85072316Y-29443668D01*
X85072316Y-29538880D01*
X85054723Y-29587218D01*
X85050290Y-29592054D01*
X84092270Y-30550074D01*
X84045650Y-30571814D01*
X84039096Y-30572100D01*
X83943666Y-30572100D01*
X83878368Y-30589596D01*
X83834835Y-30601261D01*
X83737264Y-30657594D01*
X83737258Y-30657598D01*
X83657598Y-30737258D01*
X83657594Y-30737264D01*
X83601261Y-30834835D01*
X83597387Y-30849293D01*
X83572100Y-30943666D01*
X74252900Y-30943666D01*
X74252900Y-27939591D01*
X74270493Y-27891253D01*
X74315042Y-27865533D01*
X74365700Y-27874466D01*
X74381274Y-27886417D01*
X74387258Y-27892401D01*
X74387261Y-27892403D01*
X74387263Y-27892405D01*
X74484837Y-27948739D01*
X74593666Y-27977900D01*
X74593669Y-27977900D01*
X74706331Y-27977900D01*
X74706334Y-27977900D01*
X74815163Y-27948739D01*
X74912737Y-27892405D01*
X74992405Y-27812737D01*
X75048739Y-27715163D01*
X75054499Y-27693666D01*
X75822100Y-27693666D01*
X75822100Y-27806334D01*
X75835608Y-27856746D01*
X75851261Y-27915164D01*
X75907594Y-28012735D01*
X75907598Y-28012741D01*
X75987258Y-28092401D01*
X75987261Y-28092403D01*
X75987263Y-28092405D01*
X76084837Y-28148739D01*
X76193666Y-28177900D01*
X76193669Y-28177900D01*
X76306331Y-28177900D01*
X76306334Y-28177900D01*
X76415163Y-28148739D01*
X76512737Y-28092405D01*
X76592405Y-28012737D01*
X76644812Y-27921965D01*
X76648738Y-27915165D01*
X76650247Y-27909535D01*
X76668212Y-27842486D01*
X76697716Y-27800352D01*
X76747403Y-27787038D01*
X76794023Y-27808777D01*
X76813486Y-27842487D01*
X76817306Y-27856743D01*
X76826261Y-27890164D01*
X76882594Y-27987735D01*
X76882598Y-27987741D01*
X76962258Y-28067401D01*
X76962261Y-28067403D01*
X76962263Y-28067405D01*
X77059837Y-28123739D01*
X77168666Y-28152900D01*
X77168669Y-28152900D01*
X77281331Y-28152900D01*
X77281334Y-28152900D01*
X77390163Y-28123739D01*
X77487737Y-28067405D01*
X77567405Y-27987737D01*
X77623739Y-27890163D01*
X77652900Y-27781334D01*
X77652900Y-27668666D01*
X77623739Y-27559837D01*
X77567405Y-27462263D01*
X77567403Y-27462261D01*
X77567401Y-27462258D01*
X77487741Y-27382598D01*
X77487735Y-27382594D01*
X77390164Y-27326261D01*
X77362955Y-27318970D01*
X77281334Y-27297100D01*
X77168666Y-27297100D01*
X77103368Y-27314596D01*
X77059835Y-27326261D01*
X76962264Y-27382594D01*
X76962258Y-27382598D01*
X76882598Y-27462258D01*
X76882594Y-27462264D01*
X76826260Y-27559837D01*
X76806787Y-27632511D01*
X76777282Y-27674648D01*
X76727595Y-27687961D01*
X76680975Y-27666221D01*
X76661513Y-27632511D01*
X76648739Y-27584837D01*
X76592405Y-27487263D01*
X76592403Y-27487261D01*
X76592401Y-27487258D01*
X76512741Y-27407598D01*
X76512735Y-27407594D01*
X76415164Y-27351261D01*
X76387955Y-27343970D01*
X76306334Y-27322100D01*
X76193666Y-27322100D01*
X76128368Y-27339596D01*
X76084835Y-27351261D01*
X75987264Y-27407594D01*
X75987258Y-27407598D01*
X75907598Y-27487258D01*
X75907594Y-27487264D01*
X75851261Y-27584835D01*
X75845501Y-27606334D01*
X75822100Y-27693666D01*
X75054499Y-27693666D01*
X75077900Y-27606334D01*
X75077900Y-27493666D01*
X75048739Y-27384837D01*
X74992405Y-27287263D01*
X74992403Y-27287261D01*
X74992401Y-27287258D01*
X74912741Y-27207598D01*
X74912735Y-27207594D01*
X74815164Y-27151261D01*
X74787955Y-27143970D01*
X74706334Y-27122100D01*
X74593666Y-27122100D01*
X74528368Y-27139596D01*
X74484835Y-27151261D01*
X74387264Y-27207594D01*
X74387258Y-27207598D01*
X74381274Y-27213583D01*
X74334654Y-27235323D01*
X74284967Y-27222009D01*
X74255462Y-27179872D01*
X74252900Y-27160409D01*
X74252900Y-25959065D01*
X74252901Y-25959056D01*
X74252901Y-25849696D01*
X74238280Y-25814399D01*
X74221558Y-25774028D01*
X74214399Y-25756743D01*
X74214397Y-25756741D01*
X74214395Y-25756738D01*
X74138980Y-25681323D01*
X74138960Y-25681306D01*
X70749804Y-22292150D01*
X70728064Y-22245530D01*
X70741378Y-22195843D01*
X70783515Y-22166338D01*
X70802978Y-22163776D01*
X70834579Y-22163776D01*
X70834582Y-22163776D01*
X70943411Y-22134615D01*
X71040985Y-22078281D01*
X71120653Y-21998613D01*
X71176987Y-21901039D01*
X71206148Y-21792210D01*
X71206148Y-21679542D01*
X71176987Y-21570713D01*
X71120653Y-21473139D01*
X71120651Y-21473137D01*
X71120649Y-21473134D01*
X71040989Y-21393474D01*
X71040986Y-21393472D01*
X71040985Y-21393471D01*
X71040559Y-21393225D01*
X71040369Y-21392998D01*
X71037075Y-21390471D01*
X71037635Y-21389740D01*
X71007494Y-21353821D01*
X71007494Y-21302381D01*
X71040558Y-21262975D01*
X71078159Y-21252900D01*
X73540935Y-21252900D01*
X73540943Y-21252901D01*
X73549695Y-21252901D01*
X73650305Y-21252901D01*
X73696328Y-21233837D01*
X73743257Y-21214399D01*
X73814399Y-21143257D01*
X73821620Y-21136036D01*
X73821629Y-21136023D01*
X74782728Y-20174926D01*
X74829348Y-20153186D01*
X74835902Y-20152900D01*
X75110409Y-20152900D01*
X75158747Y-20170493D01*
X75184467Y-20215042D01*
X75175534Y-20265700D01*
X75163583Y-20281274D01*
X75107598Y-20337258D01*
X75107594Y-20337264D01*
X75051261Y-20434835D01*
X75040066Y-20476615D01*
X75022100Y-20543666D01*
X75022100Y-20656334D01*
X75037659Y-20714399D01*
X75051261Y-20765164D01*
X75086951Y-20826980D01*
X75103112Y-20854973D01*
X75107594Y-20862735D01*
X75107598Y-20862741D01*
X75175074Y-20930217D01*
X75196814Y-20976837D01*
X75197100Y-20983391D01*
X75197100Y-24471724D01*
X75179507Y-24520062D01*
X75175074Y-24524898D01*
X74778146Y-24921826D01*
X74731526Y-24943566D01*
X74724972Y-24943852D01*
X74629542Y-24943852D01*
X74564244Y-24961348D01*
X74520711Y-24973013D01*
X74423140Y-25029346D01*
X74423134Y-25029350D01*
X74343474Y-25109010D01*
X74343470Y-25109016D01*
X74287137Y-25206587D01*
X74276436Y-25246526D01*
X74257976Y-25315418D01*
X74257976Y-25428086D01*
X74279846Y-25509707D01*
X74287137Y-25536916D01*
X74343470Y-25634487D01*
X74343474Y-25634493D01*
X74423134Y-25714153D01*
X74423137Y-25714155D01*
X74423139Y-25714157D01*
X74520713Y-25770491D01*
X74629542Y-25799652D01*
X74629545Y-25799652D01*
X74742207Y-25799652D01*
X74742210Y-25799652D01*
X74851039Y-25770491D01*
X74948613Y-25714157D01*
X75028281Y-25634489D01*
X75084615Y-25536915D01*
X75113776Y-25428086D01*
X75113776Y-25332654D01*
X75131369Y-25284316D01*
X75135802Y-25279480D01*
X75358951Y-25056331D01*
X75593255Y-24822027D01*
X75593257Y-24822027D01*
X75664399Y-24750885D01*
X75685602Y-24699695D01*
X75702901Y-24657933D01*
X75702901Y-24557323D01*
X75702901Y-24551268D01*
X75702900Y-24551254D01*
X75702900Y-21099342D01*
X75720493Y-21051004D01*
X75765042Y-21025284D01*
X75815700Y-21034217D01*
X75843225Y-21061743D01*
X75864059Y-21097830D01*
X75864066Y-21097839D01*
X75943726Y-21177499D01*
X75943729Y-21177501D01*
X75943731Y-21177503D01*
X76041305Y-21233837D01*
X76150134Y-21262998D01*
X76150137Y-21262998D01*
X76262799Y-21262998D01*
X76262802Y-21262998D01*
X76371631Y-21233837D01*
X76469205Y-21177503D01*
X76491508Y-21155200D01*
X76518726Y-21127983D01*
X76565346Y-21106243D01*
X76615033Y-21119557D01*
X76644538Y-21161694D01*
X76647100Y-21181157D01*
X76647100Y-21343626D01*
X76647099Y-21343640D01*
X76647099Y-21349695D01*
X76647099Y-21450305D01*
X76659027Y-21479100D01*
X76685601Y-21543258D01*
X76762928Y-21620585D01*
X76762941Y-21620595D01*
X79531308Y-24388963D01*
X79531321Y-24388978D01*
X79606738Y-24464395D01*
X79606741Y-24464397D01*
X79606743Y-24464399D01*
X79633968Y-24475675D01*
X79699695Y-24502901D01*
X79809057Y-24502901D01*
X79809065Y-24502900D01*
X81449695Y-24502900D01*
X81949695Y-24502900D01*
X86814098Y-24502900D01*
X86862436Y-24520493D01*
X86867272Y-24524926D01*
X91481308Y-29138963D01*
X91481321Y-29138978D01*
X91556741Y-29214398D01*
X91556743Y-29214399D01*
X91603218Y-29233649D01*
X91603221Y-29233650D01*
X91611946Y-29237264D01*
X91649695Y-29252901D01*
X91759057Y-29252901D01*
X91759065Y-29252900D01*
X95364098Y-29252900D01*
X95412436Y-29270493D01*
X95417272Y-29274926D01*
X96225074Y-30082728D01*
X96246814Y-30129348D01*
X96247100Y-30135902D01*
X96247100Y-32364098D01*
X96229507Y-32412436D01*
X96225074Y-32417272D01*
X95167272Y-33475074D01*
X95120652Y-33496814D01*
X95114098Y-33497100D01*
X91133391Y-33497100D01*
X91085053Y-33479507D01*
X91080217Y-33475074D01*
X91012741Y-33407598D01*
X91012735Y-33407594D01*
X90915164Y-33351261D01*
X90887955Y-33343970D01*
X90806334Y-33322100D01*
X90693666Y-33322100D01*
X90628368Y-33339596D01*
X90584835Y-33351261D01*
X90487264Y-33407594D01*
X90487258Y-33407598D01*
X90407598Y-33487258D01*
X90407594Y-33487264D01*
X90351261Y-33584835D01*
X90345602Y-33605956D01*
X90322100Y-33693666D01*
X90322100Y-33806334D01*
X90337126Y-33862410D01*
X90351261Y-33915164D01*
X90407594Y-34012735D01*
X90407598Y-34012741D01*
X90487258Y-34092401D01*
X90487261Y-34092403D01*
X90487263Y-34092405D01*
X90564216Y-34136833D01*
X90575343Y-34143258D01*
X90584837Y-34148739D01*
X90693666Y-34177900D01*
X90693669Y-34177900D01*
X90806331Y-34177900D01*
X90806334Y-34177900D01*
X90915163Y-34148739D01*
X91012737Y-34092405D01*
X91028534Y-34076608D01*
X91080217Y-34024926D01*
X91126837Y-34003186D01*
X91133391Y-34002900D01*
X95190935Y-34002900D01*
X95190943Y-34002901D01*
X95199695Y-34002901D01*
X95300306Y-34002901D01*
X95338806Y-33986952D01*
X95393257Y-33964399D01*
X95464399Y-33893257D01*
X95471620Y-33886036D01*
X95471629Y-33886023D01*
X96636023Y-32721629D01*
X96636036Y-32721620D01*
X96714398Y-32643258D01*
X96714399Y-32643257D01*
X96739280Y-32583187D01*
X96752901Y-32550305D01*
X96752901Y-32449695D01*
X96752901Y-32443640D01*
X96752900Y-32443626D01*
X96752900Y-30059065D01*
X96752901Y-30059056D01*
X96752901Y-29949696D01*
X96752901Y-29949695D01*
X96717759Y-29864856D01*
X96714399Y-29856743D01*
X96643257Y-29785601D01*
X96643255Y-29785600D01*
X95720594Y-28862940D01*
X95720585Y-28862928D01*
X95643258Y-28785601D01*
X95588806Y-28763047D01*
X95557308Y-28750000D01*
X95550305Y-28747099D01*
X95449695Y-28747099D01*
X95440943Y-28747099D01*
X95440935Y-28747100D01*
X91835903Y-28747100D01*
X91787565Y-28729507D01*
X91782729Y-28725074D01*
X87170595Y-24112941D01*
X87170585Y-24112928D01*
X87093258Y-24035601D01*
X87033296Y-24010765D01*
X87033294Y-24010764D01*
X87000306Y-23997099D01*
X87000305Y-23997099D01*
X86899695Y-23997099D01*
X86890943Y-23997099D01*
X86890935Y-23997100D01*
X79885903Y-23997100D01*
X79837565Y-23979507D01*
X79832729Y-23975074D01*
X77174926Y-21317271D01*
X77153186Y-21270651D01*
X77152900Y-21264097D01*
X77152900Y-20892105D01*
X77160641Y-20870835D01*
X77166499Y-20848973D01*
X77169316Y-20847000D01*
X77170493Y-20843767D01*
X77190097Y-20832448D01*
X77208635Y-20819468D01*
X77212061Y-20819767D01*
X77215042Y-20818047D01*
X77237335Y-20821978D01*
X77259880Y-20823950D01*
X77263704Y-20826628D01*
X77265700Y-20826980D01*
X77281273Y-20838930D01*
X77295560Y-20853216D01*
X77356743Y-20914399D01*
X77356745Y-20914399D01*
X77362940Y-20920594D01*
X79609706Y-23167360D01*
X79609723Y-23167380D01*
X79685141Y-23242798D01*
X79685143Y-23242799D01*
X79739592Y-23265352D01*
X79739594Y-23265352D01*
X79778095Y-23281301D01*
X79887457Y-23281301D01*
X79887465Y-23281300D01*
X87142498Y-23281300D01*
X87190836Y-23298893D01*
X87195672Y-23303326D01*
X92031306Y-28138960D01*
X92031323Y-28138980D01*
X92106741Y-28214398D01*
X92106743Y-28214399D01*
X92161192Y-28236952D01*
X92161194Y-28236952D01*
X92199695Y-28252901D01*
X92309057Y-28252901D01*
X92309065Y-28252900D01*
X93142777Y-28252900D01*
X93144923Y-28253326D01*
X93146052Y-28252971D01*
X93171545Y-28258621D01*
X93183682Y-28263648D01*
X93183685Y-28263650D01*
X93183685Y-28263649D01*
X93230161Y-28282901D01*
X93339523Y-28282901D01*
X93339531Y-28282900D01*
X93660469Y-28282900D01*
X93660477Y-28282901D01*
X93669229Y-28282901D01*
X93769840Y-28282901D01*
X93808340Y-28266952D01*
X93828449Y-28258622D01*
X93857223Y-28252900D01*
X95614098Y-28252900D01*
X95662436Y-28270493D01*
X95667272Y-28274926D01*
X97225074Y-29832728D01*
X97246814Y-29879348D01*
X97247100Y-29885902D01*
X97247100Y-33864097D01*
X97229507Y-33912435D01*
X97225074Y-33917271D01*
X94342271Y-36800074D01*
X94295651Y-36821814D01*
X94289097Y-36822100D01*
X94193666Y-36822100D01*
X94128368Y-36839596D01*
X94084835Y-36851261D01*
X93987264Y-36907594D01*
X93987258Y-36907598D01*
X93907598Y-36987258D01*
X93907594Y-36987264D01*
X93851261Y-37084835D01*
X93836680Y-37139251D01*
X93822100Y-37193666D01*
X93822100Y-37306334D01*
X93843970Y-37387955D01*
X93851261Y-37415164D01*
X93907594Y-37512735D01*
X93907598Y-37512741D01*
X93987258Y-37592401D01*
X93987261Y-37592403D01*
X93987263Y-37592405D01*
X94084837Y-37648739D01*
X94193666Y-37677900D01*
X94193669Y-37677900D01*
X94306331Y-37677900D01*
X94306334Y-37677900D01*
X94415163Y-37648739D01*
X94512737Y-37592405D01*
X94592405Y-37512737D01*
X94648739Y-37415163D01*
X94677900Y-37306334D01*
X94677900Y-37210901D01*
X94695493Y-37162563D01*
X94699926Y-37157727D01*
X95913987Y-35943666D01*
X97572100Y-35943666D01*
X97572100Y-36056334D01*
X97593970Y-36137955D01*
X97601261Y-36165164D01*
X97657594Y-36262735D01*
X97657598Y-36262741D01*
X97737258Y-36342401D01*
X97737261Y-36342403D01*
X97737263Y-36342405D01*
X97834837Y-36398739D01*
X97943666Y-36427900D01*
X97943669Y-36427900D01*
X98056331Y-36427900D01*
X98056334Y-36427900D01*
X98165163Y-36398739D01*
X98262737Y-36342405D01*
X98342405Y-36262737D01*
X98398739Y-36165163D01*
X98427900Y-36056334D01*
X98427900Y-35943666D01*
X98398739Y-35834837D01*
X98342405Y-35737263D01*
X98342403Y-35737261D01*
X98342401Y-35737258D01*
X98262741Y-35657598D01*
X98262735Y-35657594D01*
X98165164Y-35601261D01*
X98137955Y-35593970D01*
X98056334Y-35572100D01*
X97943666Y-35572100D01*
X97878368Y-35589596D01*
X97834835Y-35601261D01*
X97737264Y-35657594D01*
X97737258Y-35657598D01*
X97657598Y-35737258D01*
X97657594Y-35737264D01*
X97601261Y-35834835D01*
X97587669Y-35885563D01*
X97572100Y-35943666D01*
X95913987Y-35943666D01*
X95972090Y-35885563D01*
X96649235Y-35208418D01*
X97636023Y-34221629D01*
X97636036Y-34221620D01*
X97714398Y-34143258D01*
X97714399Y-34143257D01*
X97742003Y-34076614D01*
X97752901Y-34050305D01*
X97752901Y-33949695D01*
X97752901Y-33943640D01*
X97752900Y-33943626D01*
X97752900Y-29809065D01*
X97752901Y-29809056D01*
X97752901Y-29699694D01*
X97752900Y-29699693D01*
X97741137Y-29671295D01*
X97726222Y-29635288D01*
X97714399Y-29606743D01*
X97714397Y-29606741D01*
X97714395Y-29606738D01*
X97638980Y-29531323D01*
X97638960Y-29531306D01*
X95970595Y-27862941D01*
X95970585Y-27862928D01*
X95893258Y-27785601D01*
X95838806Y-27763047D01*
X95800305Y-27747099D01*
X95699695Y-27747099D01*
X95690943Y-27747099D01*
X95690935Y-27747100D01*
X93808599Y-27747100D01*
X93808591Y-27747099D01*
X93799839Y-27747099D01*
X93699229Y-27747099D01*
X93699228Y-27747099D01*
X93655504Y-27765211D01*
X93655501Y-27765212D01*
X93640619Y-27771376D01*
X93611843Y-27777100D01*
X93388158Y-27777100D01*
X93359380Y-27771376D01*
X93339272Y-27763047D01*
X93300771Y-27747099D01*
X93200161Y-27747099D01*
X93191409Y-27747099D01*
X93191401Y-27747100D01*
X92385902Y-27747100D01*
X92337564Y-27729507D01*
X92332728Y-27725074D01*
X87498995Y-22891341D01*
X87498985Y-22891328D01*
X87421658Y-22814001D01*
X87353092Y-22785601D01*
X87328705Y-22775499D01*
X87228095Y-22775499D01*
X87219343Y-22775499D01*
X87219335Y-22775500D01*
X86123346Y-22775500D01*
X86075008Y-22757907D01*
X86049288Y-22713358D01*
X86058221Y-22662700D01*
X86070172Y-22647126D01*
X87180021Y-21537276D01*
X87180022Y-21537275D01*
X87214900Y-21453070D01*
X87214900Y-21361930D01*
X87214900Y-20296929D01*
X87195254Y-20249500D01*
X87180022Y-20212726D01*
X87180021Y-20212725D01*
X87180021Y-20212724D01*
X86523076Y-19555778D01*
X86451946Y-19526316D01*
X86451944Y-19526315D01*
X86438872Y-19520900D01*
X86438871Y-19520900D01*
X85396400Y-19520900D01*
X85348062Y-19503307D01*
X85322342Y-19458758D01*
X85321200Y-19445700D01*
X85321200Y-19372565D01*
X85321200Y-19372563D01*
X85292039Y-19263734D01*
X85291463Y-19262737D01*
X85277479Y-19238516D01*
X85235705Y-19166160D01*
X85235703Y-19166158D01*
X85235701Y-19166155D01*
X85156041Y-19086495D01*
X85156035Y-19086491D01*
X85153544Y-19085053D01*
X85135416Y-19074586D01*
X85058464Y-19030158D01*
X85031255Y-19022867D01*
X84949634Y-19000997D01*
X84836966Y-19000997D01*
X84771668Y-19018493D01*
X84728135Y-19030158D01*
X84630564Y-19086491D01*
X84630558Y-19086495D01*
X84550898Y-19166155D01*
X84550894Y-19166161D01*
X84494561Y-19263732D01*
X84484762Y-19300304D01*
X84465400Y-19372563D01*
X84465400Y-19372565D01*
X84465400Y-19441274D01*
X84447807Y-19489612D01*
X84443374Y-19494449D01*
X84095240Y-19842582D01*
X84077532Y-19850838D01*
X84061529Y-19862045D01*
X84054769Y-19861453D01*
X84048620Y-19864321D01*
X84029747Y-19859264D01*
X84010285Y-19857561D01*
X84002160Y-19851871D01*
X83998933Y-19851007D01*
X83988892Y-19842581D01*
X83966089Y-19819778D01*
X83944349Y-19773158D01*
X83957663Y-19723471D01*
X83966090Y-19713429D01*
X83987589Y-19691930D01*
X83987593Y-19691926D01*
X84043927Y-19594352D01*
X84073088Y-19485523D01*
X84073088Y-19372855D01*
X84043927Y-19264026D01*
X84043758Y-19263734D01*
X84011626Y-19208079D01*
X83987593Y-19166452D01*
X83987591Y-19166450D01*
X83987589Y-19166447D01*
X83907929Y-19086787D01*
X83907923Y-19086783D01*
X83907417Y-19086491D01*
X83855179Y-19056331D01*
X83810352Y-19030450D01*
X83783143Y-19023159D01*
X83701522Y-19001289D01*
X83588854Y-19001289D01*
X83523556Y-19018785D01*
X83480023Y-19030450D01*
X83382452Y-19086783D01*
X83382446Y-19086787D01*
X83302786Y-19166447D01*
X83302782Y-19166453D01*
X83246449Y-19264024D01*
X83231868Y-19318440D01*
X83217288Y-19372855D01*
X83217288Y-19372857D01*
X83217288Y-19419386D01*
X83199695Y-19467724D01*
X83195262Y-19472561D01*
X82825240Y-19842582D01*
X82778620Y-19864321D01*
X82728933Y-19851007D01*
X82718892Y-19842581D01*
X82688925Y-19812614D01*
X82688919Y-19812610D01*
X82564281Y-19740650D01*
X82529525Y-19731337D01*
X82425261Y-19703400D01*
X82281339Y-19703400D01*
X82208624Y-19722884D01*
X82142318Y-19740650D01*
X82017680Y-19812610D01*
X82017674Y-19812614D01*
X81957474Y-19872815D01*
X81910854Y-19894555D01*
X81861167Y-19881241D01*
X81831662Y-19839104D01*
X81829100Y-19819641D01*
X81829100Y-19795544D01*
X81818700Y-19743258D01*
X81800440Y-19651458D01*
X81744220Y-19515731D01*
X81662601Y-19393580D01*
X81662598Y-19393577D01*
X81662596Y-19393574D01*
X81558725Y-19289703D01*
X81558722Y-19289701D01*
X81558720Y-19289699D01*
X81436569Y-19208080D01*
X81336073Y-19166453D01*
X81300845Y-19151861D01*
X81300844Y-19151860D01*
X81156756Y-19123200D01*
X81156755Y-19123200D01*
X81009845Y-19123200D01*
X81009844Y-19123200D01*
X80865755Y-19151860D01*
X80865754Y-19151861D01*
X80730032Y-19208079D01*
X80607877Y-19289701D01*
X80607874Y-19289703D01*
X80504003Y-19393574D01*
X80504001Y-19393577D01*
X80422379Y-19515732D01*
X80366161Y-19651454D01*
X80366160Y-19651455D01*
X80337500Y-19795544D01*
X80337500Y-19942455D01*
X80366160Y-20086544D01*
X80366161Y-20086545D01*
X80417715Y-20211006D01*
X80422380Y-20222269D01*
X80503999Y-20344420D01*
X80504001Y-20344422D01*
X80504003Y-20344425D01*
X80607874Y-20448296D01*
X80607877Y-20448298D01*
X80607880Y-20448301D01*
X80730031Y-20529920D01*
X80865754Y-20586138D01*
X80865755Y-20586139D01*
X80865756Y-20586139D01*
X80865758Y-20586140D01*
X80950989Y-20603093D01*
X81009844Y-20614800D01*
X81009845Y-20614800D01*
X81156756Y-20614800D01*
X81215611Y-20603093D01*
X81300842Y-20586140D01*
X81436569Y-20529920D01*
X81558720Y-20448301D01*
X81662601Y-20344420D01*
X81677542Y-20322059D01*
X81719023Y-20291643D01*
X81770353Y-20295006D01*
X81807512Y-20330576D01*
X81812705Y-20344373D01*
X81812719Y-20344425D01*
X81843950Y-20460981D01*
X81915910Y-20585619D01*
X81915914Y-20585625D01*
X82017674Y-20687385D01*
X82017677Y-20687387D01*
X82017679Y-20687389D01*
X82142320Y-20759350D01*
X82281339Y-20796600D01*
X82281342Y-20796600D01*
X82425258Y-20796600D01*
X82425261Y-20796600D01*
X82564280Y-20759350D01*
X82658100Y-20705182D01*
X82708758Y-20696250D01*
X82753306Y-20721970D01*
X82770900Y-20770308D01*
X82770900Y-20942271D01*
X82773975Y-20949695D01*
X82805778Y-21026475D01*
X83077833Y-21298530D01*
X83099573Y-21345150D01*
X83097297Y-21371166D01*
X83085509Y-21415163D01*
X83076700Y-21448039D01*
X83076700Y-21591961D01*
X83101216Y-21683455D01*
X83113950Y-21730981D01*
X83185910Y-21855619D01*
X83185914Y-21855625D01*
X83287674Y-21957385D01*
X83287677Y-21957387D01*
X83287679Y-21957389D01*
X83343501Y-21989618D01*
X83394704Y-22019180D01*
X83427769Y-22058585D01*
X83427769Y-22110025D01*
X83394705Y-22149429D01*
X83380567Y-22157591D01*
X83380558Y-22157598D01*
X83300898Y-22237258D01*
X83300894Y-22237264D01*
X83244561Y-22334835D01*
X83233679Y-22375447D01*
X83215400Y-22443666D01*
X83215400Y-22556334D01*
X83231961Y-22618138D01*
X83244562Y-22665169D01*
X83246447Y-22669718D01*
X83244515Y-22670518D01*
X83252073Y-22713349D01*
X83226359Y-22757900D01*
X83178024Y-22775500D01*
X81273256Y-22775500D01*
X81224918Y-22757907D01*
X81199198Y-22713358D01*
X81208131Y-22662700D01*
X81247536Y-22629635D01*
X81258582Y-22626545D01*
X81300842Y-22618140D01*
X81436569Y-22561920D01*
X81558720Y-22480301D01*
X81662601Y-22376420D01*
X81744220Y-22254269D01*
X81800440Y-22118542D01*
X81829100Y-21974455D01*
X81829100Y-21827545D01*
X81800440Y-21683458D01*
X81744220Y-21547731D01*
X81662601Y-21425580D01*
X81662598Y-21425577D01*
X81662596Y-21425574D01*
X81558725Y-21321703D01*
X81558722Y-21321701D01*
X81558720Y-21321699D01*
X81436569Y-21240080D01*
X81432197Y-21238269D01*
X81300845Y-21183861D01*
X81300844Y-21183860D01*
X81156756Y-21155200D01*
X81156755Y-21155200D01*
X81009845Y-21155200D01*
X81009844Y-21155200D01*
X80865755Y-21183860D01*
X80865754Y-21183861D01*
X80730032Y-21240079D01*
X80607877Y-21321701D01*
X80607874Y-21321703D01*
X80504003Y-21425574D01*
X80504001Y-21425577D01*
X80422379Y-21547732D01*
X80366161Y-21683454D01*
X80366160Y-21683455D01*
X80337500Y-21827544D01*
X80337500Y-21974455D01*
X80366160Y-22118544D01*
X80366161Y-22118545D01*
X80422379Y-22254267D01*
X80422380Y-22254269D01*
X80503999Y-22376420D01*
X80504001Y-22376422D01*
X80504003Y-22376425D01*
X80607874Y-22480296D01*
X80607877Y-22480298D01*
X80607880Y-22480301D01*
X80730031Y-22561920D01*
X80865754Y-22618138D01*
X80865755Y-22618139D01*
X80865756Y-22618139D01*
X80865758Y-22618140D01*
X80908015Y-22626545D01*
X80951991Y-22653230D01*
X80968526Y-22701940D01*
X80949882Y-22749883D01*
X80904784Y-22774625D01*
X80893344Y-22775500D01*
X79964302Y-22775500D01*
X79915964Y-22757907D01*
X79911128Y-22753474D01*
X77774926Y-20617272D01*
X77753186Y-20570652D01*
X77752900Y-20564098D01*
X77752900Y-19509065D01*
X77752901Y-19509056D01*
X77752901Y-19399696D01*
X77752504Y-19398738D01*
X77714399Y-19306744D01*
X77714399Y-19306743D01*
X77643257Y-19235601D01*
X77638970Y-19231314D01*
X77638963Y-19231308D01*
X77213929Y-18806274D01*
X77192189Y-18759654D01*
X77205503Y-18709967D01*
X77247640Y-18680462D01*
X77267103Y-18677900D01*
X77306331Y-18677900D01*
X77306334Y-18677900D01*
X77415163Y-18648739D01*
X77512737Y-18592405D01*
X77533328Y-18571814D01*
X77592403Y-18512740D01*
X77592403Y-18512738D01*
X77592405Y-18512737D01*
X77648739Y-18415163D01*
X77677900Y-18306334D01*
X77677900Y-18193666D01*
X77648739Y-18084837D01*
X77592405Y-17987263D01*
X77592403Y-17987261D01*
X77592401Y-17987258D01*
X77512741Y-17907598D01*
X77512735Y-17907594D01*
X77415164Y-17851261D01*
X77387955Y-17843970D01*
X77306334Y-17822100D01*
X77193666Y-17822100D01*
X77128368Y-17839596D01*
X77084835Y-17851261D01*
X76987264Y-17907594D01*
X76987258Y-17907598D01*
X76907598Y-17987258D01*
X76907594Y-17987264D01*
X76893225Y-18012152D01*
X76853820Y-18045217D01*
X76802380Y-18045217D01*
X76762975Y-18012152D01*
X76752900Y-17974552D01*
X76752900Y-17165372D01*
X76770493Y-17117034D01*
X76774926Y-17112198D01*
X77172463Y-16714661D01*
X77219083Y-16692921D01*
X77225637Y-16692635D01*
X77321066Y-16692635D01*
X77321069Y-16692635D01*
X77429898Y-16663474D01*
X77527472Y-16607140D01*
X77607140Y-16527472D01*
X77663474Y-16429898D01*
X77692635Y-16321069D01*
X77692635Y-16208401D01*
X77690302Y-16199693D01*
X78247099Y-16199693D01*
X78247099Y-16199695D01*
X78247099Y-16300305D01*
X78247099Y-16300306D01*
X78247100Y-16309061D01*
X78247100Y-20443626D01*
X78247099Y-20443640D01*
X78247099Y-20449695D01*
X78247099Y-20550305D01*
X78259868Y-20581130D01*
X78285601Y-20643258D01*
X78362928Y-20720585D01*
X78362941Y-20720595D01*
X78800074Y-21157728D01*
X78821814Y-21204348D01*
X78822100Y-21210902D01*
X78822100Y-21306334D01*
X78836593Y-21360422D01*
X78851261Y-21415164D01*
X78907594Y-21512735D01*
X78907598Y-21512741D01*
X78987258Y-21592401D01*
X78987261Y-21592403D01*
X78987263Y-21592405D01*
X79084837Y-21648739D01*
X79193666Y-21677900D01*
X79193669Y-21677900D01*
X79306331Y-21677900D01*
X79306334Y-21677900D01*
X79415163Y-21648739D01*
X79512737Y-21592405D01*
X79592405Y-21512737D01*
X79648739Y-21415163D01*
X79677900Y-21306334D01*
X79677900Y-21193666D01*
X79648739Y-21084837D01*
X79592405Y-20987263D01*
X79592403Y-20987261D01*
X79592401Y-20987258D01*
X79512741Y-20907598D01*
X79512735Y-20907594D01*
X79415164Y-20851261D01*
X79385292Y-20843257D01*
X79306334Y-20822100D01*
X79210902Y-20822100D01*
X79162564Y-20804507D01*
X79157728Y-20800074D01*
X78774926Y-20417272D01*
X78753186Y-20370652D01*
X78752900Y-20364098D01*
X78752900Y-18943666D01*
X79572100Y-18943666D01*
X79572100Y-19056334D01*
X79592748Y-19133391D01*
X79601261Y-19165164D01*
X79657594Y-19262735D01*
X79657598Y-19262741D01*
X79737258Y-19342401D01*
X79737261Y-19342403D01*
X79737263Y-19342405D01*
X79834837Y-19398739D01*
X79943666Y-19427900D01*
X79943669Y-19427900D01*
X80056331Y-19427900D01*
X80056334Y-19427900D01*
X80165163Y-19398739D01*
X80262737Y-19342405D01*
X80342405Y-19262737D01*
X80398739Y-19165163D01*
X80427900Y-19056334D01*
X80427900Y-18960902D01*
X80445493Y-18912564D01*
X80449926Y-18907728D01*
X81663988Y-17693666D01*
X82893255Y-16464399D01*
X82893257Y-16464399D01*
X82964399Y-16393257D01*
X82991470Y-16327900D01*
X83002901Y-16300305D01*
X83002901Y-16199695D01*
X83002901Y-16193640D01*
X83002900Y-16193626D01*
X83002900Y-14385902D01*
X83020493Y-14337564D01*
X83024926Y-14332728D01*
X83157728Y-14199926D01*
X83204348Y-14178186D01*
X83210902Y-14177900D01*
X83306331Y-14177900D01*
X83306334Y-14177900D01*
X83415163Y-14148739D01*
X83512737Y-14092405D01*
X83592405Y-14012737D01*
X83648739Y-13915163D01*
X83677900Y-13806334D01*
X83677900Y-13693666D01*
X83648739Y-13584837D01*
X83592405Y-13487263D01*
X83592403Y-13487261D01*
X83592401Y-13487258D01*
X83512741Y-13407598D01*
X83512735Y-13407594D01*
X83415164Y-13351261D01*
X83387955Y-13343970D01*
X83306334Y-13322100D01*
X83193666Y-13322100D01*
X83128368Y-13339596D01*
X83084835Y-13351261D01*
X82987264Y-13407594D01*
X82987258Y-13407598D01*
X82907598Y-13487258D01*
X82907594Y-13487264D01*
X82851261Y-13584835D01*
X82849234Y-13592401D01*
X82822100Y-13693666D01*
X82822100Y-13693668D01*
X82822100Y-13789097D01*
X82804507Y-13837435D01*
X82800084Y-13842260D01*
X82698679Y-13943666D01*
X82609380Y-14032965D01*
X82609337Y-14033005D01*
X82535601Y-14106741D01*
X82535601Y-14106742D01*
X82524474Y-14133607D01*
X82518206Y-14148739D01*
X82497100Y-14199694D01*
X82497099Y-14199696D01*
X82497099Y-14309056D01*
X82497100Y-14309065D01*
X82497100Y-16114096D01*
X82479507Y-16162434D01*
X82475074Y-16167270D01*
X80092270Y-18550074D01*
X80045650Y-18571814D01*
X80039096Y-18572100D01*
X79943666Y-18572100D01*
X79878368Y-18589596D01*
X79834835Y-18601261D01*
X79737264Y-18657594D01*
X79737258Y-18657598D01*
X79657598Y-18737258D01*
X79657594Y-18737264D01*
X79601261Y-18834835D01*
X79595924Y-18854754D01*
X79572100Y-18943666D01*
X78752900Y-18943666D01*
X78752900Y-16385902D01*
X78770493Y-16337564D01*
X78774926Y-16332728D01*
X82657728Y-12449926D01*
X82704348Y-12428186D01*
X82710902Y-12427900D01*
X82806331Y-12427900D01*
X82806334Y-12427900D01*
X82915163Y-12398739D01*
X83012737Y-12342405D01*
X83092405Y-12262737D01*
X83148739Y-12165163D01*
X83177900Y-12056334D01*
X83177900Y-11943666D01*
X83148739Y-11834837D01*
X83148100Y-11833731D01*
X83128801Y-11800304D01*
X83092405Y-11737263D01*
X83092403Y-11737261D01*
X83092401Y-11737258D01*
X83012741Y-11657598D01*
X83012735Y-11657594D01*
X82915164Y-11601261D01*
X82887955Y-11593970D01*
X82806334Y-11572100D01*
X82693666Y-11572100D01*
X82628368Y-11589596D01*
X82584835Y-11601261D01*
X82487264Y-11657594D01*
X82487258Y-11657598D01*
X82407598Y-11737258D01*
X82407594Y-11737264D01*
X82351261Y-11834835D01*
X82350930Y-11836071D01*
X82322100Y-11943666D01*
X82322100Y-11943668D01*
X82322100Y-12039096D01*
X82304507Y-12087434D01*
X82300074Y-12092270D01*
X78359380Y-16032964D01*
X78359358Y-16032984D01*
X78285602Y-16106740D01*
X78285599Y-16106744D01*
X78263046Y-16161191D01*
X78263047Y-16161192D01*
X78247099Y-16199693D01*
X77690302Y-16199693D01*
X77663474Y-16099572D01*
X77607140Y-16001998D01*
X77607138Y-16001996D01*
X77607136Y-16001993D01*
X77527476Y-15922333D01*
X77527470Y-15922329D01*
X77429899Y-15865996D01*
X77393212Y-15856166D01*
X77321069Y-15836835D01*
X77208401Y-15836835D01*
X77143103Y-15854331D01*
X77099570Y-15865996D01*
X77001999Y-15922329D01*
X77001993Y-15922333D01*
X76922333Y-16001993D01*
X76922329Y-16001999D01*
X76865996Y-16099570D01*
X76864074Y-16106744D01*
X76836835Y-16208401D01*
X76836835Y-16208403D01*
X76836835Y-16303831D01*
X76819242Y-16352169D01*
X76814809Y-16357005D01*
X76359380Y-16812434D01*
X76359358Y-16812454D01*
X76285604Y-16886208D01*
X76285600Y-16886214D01*
X76276744Y-16907596D01*
X76276744Y-16907597D01*
X76247099Y-16979165D01*
X76247099Y-17088526D01*
X76247100Y-17088535D01*
X76247100Y-18399692D01*
X76247099Y-18399695D01*
X76247099Y-18500305D01*
X76252249Y-18512737D01*
X76256883Y-18523926D01*
X76256884Y-18523928D01*
X76285601Y-18593258D01*
X76362928Y-18670585D01*
X76362941Y-18670595D01*
X77225074Y-19532728D01*
X77246814Y-19579348D01*
X77247100Y-19585902D01*
X77247100Y-20157895D01*
X77239358Y-20179165D01*
X77233501Y-20201027D01*
X77230683Y-20202999D01*
X77229507Y-20206233D01*
X77209902Y-20217551D01*
X77191365Y-20230532D01*
X77187938Y-20230232D01*
X77184958Y-20231953D01*
X77162664Y-20228021D01*
X77140120Y-20226050D01*
X77136295Y-20223371D01*
X77134300Y-20223020D01*
X77118727Y-20211070D01*
X77079756Y-20172100D01*
X77043257Y-20135601D01*
X77043253Y-20135599D01*
X74770595Y-17862941D01*
X74770585Y-17862928D01*
X74693258Y-17785601D01*
X74638806Y-17763047D01*
X74617426Y-17754191D01*
X74593031Y-17737890D01*
X74592406Y-17737265D01*
X74592405Y-17737263D01*
X74512737Y-17657595D01*
X74478087Y-17637590D01*
X74415164Y-17601261D01*
X74374887Y-17590469D01*
X74306334Y-17572100D01*
X74217102Y-17572100D01*
X74168764Y-17554507D01*
X74143044Y-17509958D01*
X74151977Y-17459300D01*
X74163928Y-17443726D01*
X75462409Y-16145245D01*
X79413986Y-12193666D01*
X80822100Y-12193666D01*
X80822100Y-12306334D01*
X80840344Y-12374419D01*
X80851261Y-12415164D01*
X80907594Y-12512735D01*
X80907598Y-12512741D01*
X80987258Y-12592401D01*
X80987261Y-12592403D01*
X80987263Y-12592405D01*
X81084837Y-12648739D01*
X81193666Y-12677900D01*
X81193669Y-12677900D01*
X81306331Y-12677900D01*
X81306334Y-12677900D01*
X81415163Y-12648739D01*
X81512737Y-12592405D01*
X81592405Y-12512737D01*
X81648739Y-12415163D01*
X81677900Y-12306334D01*
X81677900Y-12193666D01*
X81648739Y-12084837D01*
X81592405Y-11987263D01*
X81592403Y-11987261D01*
X81592401Y-11987258D01*
X81512741Y-11907598D01*
X81512735Y-11907594D01*
X81415164Y-11851261D01*
X81382097Y-11842401D01*
X81306334Y-11822100D01*
X81193666Y-11822100D01*
X81128368Y-11839596D01*
X81084835Y-11851261D01*
X80987264Y-11907594D01*
X80987258Y-11907598D01*
X80907598Y-11987258D01*
X80907594Y-11987264D01*
X80851261Y-12084835D01*
X80842180Y-12118726D01*
X80822100Y-12193666D01*
X79413986Y-12193666D01*
X79636023Y-11971629D01*
X79636036Y-11971620D01*
X79714398Y-11893258D01*
X79714399Y-11893257D01*
X79742003Y-11826614D01*
X79752901Y-11800305D01*
X79752901Y-11699695D01*
X79752901Y-11693640D01*
X79752900Y-11693626D01*
X79752900Y-11157320D01*
X79770493Y-11108982D01*
X79786402Y-11095634D01*
X79786227Y-11095405D01*
X79790132Y-11092407D01*
X79790137Y-11092405D01*
X79869805Y-11012737D01*
X79926139Y-10915163D01*
X79955300Y-10806334D01*
X79955300Y-10693666D01*
X79926139Y-10584837D01*
X79869805Y-10487263D01*
X79869803Y-10487261D01*
X79869801Y-10487258D01*
X79790141Y-10407598D01*
X79790135Y-10407594D01*
X79692564Y-10351261D01*
X79665355Y-10343970D01*
X79583734Y-10322100D01*
X79471066Y-10322100D01*
X79418976Y-10336057D01*
X79362230Y-10351262D01*
X79357682Y-10353147D01*
X79356729Y-10350848D01*
X79352632Y-10351569D01*
X79341158Y-10358194D01*
X79328086Y-10355889D01*
X79315018Y-10358189D01*
X79303547Y-10351561D01*
X79290500Y-10349261D01*
X79281968Y-10339094D01*
X79270478Y-10332455D01*
X79265947Y-10320000D01*
X79257435Y-10309856D01*
X79252900Y-10284136D01*
X79252900Y-10193666D01*
X82212900Y-10193666D01*
X82212900Y-10306334D01*
X82234770Y-10387955D01*
X82242061Y-10415164D01*
X82298394Y-10512735D01*
X82298398Y-10512741D01*
X82378058Y-10592401D01*
X82378061Y-10592403D01*
X82378063Y-10592405D01*
X82443516Y-10630194D01*
X82466143Y-10643258D01*
X82475637Y-10648739D01*
X82584466Y-10677900D01*
X82584469Y-10677900D01*
X82697131Y-10677900D01*
X82697134Y-10677900D01*
X82805963Y-10648739D01*
X82903537Y-10592405D01*
X82983205Y-10512737D01*
X83039539Y-10415163D01*
X83068700Y-10306334D01*
X83068700Y-10193666D01*
X83039539Y-10084837D01*
X82983205Y-9987263D01*
X82983203Y-9987261D01*
X82983201Y-9987258D01*
X82903541Y-9907598D01*
X82903535Y-9907594D01*
X82805964Y-9851261D01*
X82778755Y-9843970D01*
X82697134Y-9822100D01*
X82584466Y-9822100D01*
X82519168Y-9839596D01*
X82475635Y-9851261D01*
X82378064Y-9907594D01*
X82378058Y-9907598D01*
X82298398Y-9987258D01*
X82298394Y-9987264D01*
X82242061Y-10084835D01*
X82240034Y-10092401D01*
X82212900Y-10193666D01*
X79252900Y-10193666D01*
X79252900Y-7158391D01*
X79270493Y-7110053D01*
X79274926Y-7105217D01*
X79342401Y-7037741D01*
X79342405Y-7037737D01*
X79396717Y-6943666D01*
X87072100Y-6943666D01*
X87072100Y-7056334D01*
X87089986Y-7123084D01*
X87101261Y-7165164D01*
X87157594Y-7262735D01*
X87157598Y-7262741D01*
X87237258Y-7342401D01*
X87237261Y-7342403D01*
X87237263Y-7342405D01*
X87334837Y-7398739D01*
X87443666Y-7427900D01*
X87443669Y-7427900D01*
X87556331Y-7427900D01*
X87556334Y-7427900D01*
X87665163Y-7398739D01*
X87762737Y-7342405D01*
X87842405Y-7262737D01*
X87898739Y-7165163D01*
X87927900Y-7056334D01*
X87927900Y-6943666D01*
X87898739Y-6834837D01*
X87898171Y-6833854D01*
X87870312Y-6785600D01*
X87842405Y-6737263D01*
X87842403Y-6737261D01*
X87842401Y-6737258D01*
X87762741Y-6657598D01*
X87762735Y-6657594D01*
X87665164Y-6601261D01*
X87637955Y-6593970D01*
X87556334Y-6572100D01*
X87443666Y-6572100D01*
X87378368Y-6589596D01*
X87334835Y-6601261D01*
X87237264Y-6657594D01*
X87237258Y-6657598D01*
X87157598Y-6737258D01*
X87157594Y-6737264D01*
X87101261Y-6834835D01*
X87095391Y-6856743D01*
X87072100Y-6943666D01*
X79396717Y-6943666D01*
X79398739Y-6940163D01*
X79427900Y-6831334D01*
X79427900Y-6718666D01*
X79398739Y-6609837D01*
X79342405Y-6512263D01*
X79342403Y-6512261D01*
X79342401Y-6512258D01*
X79262741Y-6432598D01*
X79262735Y-6432594D01*
X79165164Y-6376261D01*
X79137955Y-6368970D01*
X79056334Y-6347100D01*
X78943666Y-6347100D01*
X78878368Y-6364596D01*
X78834835Y-6376261D01*
X78737264Y-6432594D01*
X78737258Y-6432598D01*
X78657598Y-6512258D01*
X78657594Y-6512264D01*
X78601261Y-6609835D01*
X78597148Y-6625185D01*
X78572100Y-6718666D01*
X78572100Y-6831334D01*
X78593970Y-6912955D01*
X78601261Y-6940164D01*
X78657594Y-7037735D01*
X78657598Y-7037741D01*
X78725074Y-7105217D01*
X78746814Y-7151837D01*
X78747100Y-7158391D01*
X78747100Y-11614096D01*
X78729507Y-11662434D01*
X78725074Y-11667270D01*
X78333674Y-12058670D01*
X78287054Y-12080410D01*
X78237367Y-12067096D01*
X78207862Y-12024959D01*
X78205300Y-12005496D01*
X78205300Y-11920413D01*
X78205300Y-11920411D01*
X78176139Y-11811582D01*
X78119805Y-11714008D01*
X78119803Y-11714006D01*
X78119801Y-11714003D01*
X78040141Y-11634343D01*
X78040135Y-11634339D01*
X77942564Y-11578006D01*
X77915355Y-11570715D01*
X77833734Y-11548845D01*
X77721066Y-11548845D01*
X77655768Y-11566341D01*
X77612235Y-11578006D01*
X77514664Y-11634339D01*
X77514658Y-11634343D01*
X77434998Y-11714003D01*
X77434994Y-11714009D01*
X77378661Y-11811580D01*
X77372099Y-11836071D01*
X77349500Y-11920411D01*
X77349500Y-12033079D01*
X77366999Y-12098384D01*
X77378661Y-12141909D01*
X77434994Y-12239480D01*
X77434998Y-12239486D01*
X77514658Y-12319146D01*
X77514661Y-12319148D01*
X77514663Y-12319150D01*
X77612237Y-12375484D01*
X77721066Y-12404645D01*
X77721069Y-12404645D01*
X77806152Y-12404645D01*
X77854490Y-12422238D01*
X77880210Y-12466787D01*
X77871277Y-12517445D01*
X77859326Y-12533018D01*
X74836013Y-15556331D01*
X71842270Y-18550074D01*
X71795650Y-18571814D01*
X71789096Y-18572100D01*
X71693666Y-18572100D01*
X71628368Y-18589596D01*
X71584835Y-18601261D01*
X71487264Y-18657594D01*
X71487258Y-18657598D01*
X71407598Y-18737258D01*
X71407594Y-18737264D01*
X71351261Y-18834835D01*
X71345924Y-18854754D01*
X71322100Y-18943666D01*
X71322100Y-19056334D01*
X71342748Y-19133391D01*
X71351261Y-19165164D01*
X71393611Y-19238516D01*
X71402544Y-19289174D01*
X71376824Y-19333723D01*
X71336091Y-19348547D01*
X71336371Y-19350672D01*
X71331488Y-19351314D01*
X71222651Y-19380477D01*
X71125080Y-19436810D01*
X71125074Y-19436814D01*
X71045414Y-19516474D01*
X71045410Y-19516480D01*
X70989077Y-19614051D01*
X70980222Y-19647099D01*
X70959916Y-19722882D01*
X70959916Y-19835550D01*
X70972159Y-19881241D01*
X70989077Y-19944380D01*
X71045410Y-20041951D01*
X71045414Y-20041957D01*
X71125074Y-20121617D01*
X71128989Y-20124621D01*
X71127700Y-20126299D01*
X71155615Y-20159566D01*
X71155615Y-20211006D01*
X71150076Y-20222885D01*
X71101261Y-20307436D01*
X71101261Y-20307437D01*
X71072100Y-20416266D01*
X71072100Y-20528934D01*
X71087933Y-20588024D01*
X71101262Y-20637769D01*
X71103147Y-20642318D01*
X71100848Y-20643270D01*
X71108189Y-20684982D01*
X71082455Y-20729522D01*
X71034136Y-20747100D01*
X69135902Y-20747100D01*
X69087564Y-20729507D01*
X69082728Y-20725074D01*
X67220595Y-18862941D01*
X67220585Y-18862928D01*
X67143258Y-18785601D01*
X67088806Y-18763047D01*
X67080615Y-18759654D01*
X67050305Y-18747099D01*
X66949695Y-18747099D01*
X66940943Y-18747099D01*
X66940935Y-18747100D01*
X66883391Y-18747100D01*
X66835053Y-18729507D01*
X66830217Y-18725074D01*
X66762741Y-18657598D01*
X66762735Y-18657594D01*
X66665164Y-18601261D01*
X66632097Y-18592401D01*
X66556334Y-18572100D01*
X66443666Y-18572100D01*
X66378368Y-18589596D01*
X66334835Y-18601261D01*
X66237264Y-18657594D01*
X66237258Y-18657598D01*
X66157598Y-18737258D01*
X66157594Y-18737264D01*
X66101261Y-18834835D01*
X66095924Y-18854754D01*
X66072100Y-18943666D01*
X66072100Y-19056334D01*
X66092748Y-19133391D01*
X66101261Y-19165164D01*
X66157594Y-19262735D01*
X66157598Y-19262741D01*
X66237258Y-19342401D01*
X66237261Y-19342403D01*
X66237263Y-19342405D01*
X66334837Y-19398739D01*
X66443666Y-19427900D01*
X66443669Y-19427900D01*
X66556331Y-19427900D01*
X66556334Y-19427900D01*
X66665163Y-19398739D01*
X66762737Y-19342405D01*
X66820570Y-19284571D01*
X66867189Y-19262832D01*
X66916876Y-19276145D01*
X66926918Y-19284572D01*
X68589171Y-20946825D01*
X68610911Y-20993445D01*
X68597597Y-21043132D01*
X68589171Y-21053174D01*
X68359374Y-21282970D01*
X68359373Y-21282969D01*
X68285602Y-21356740D01*
X68285599Y-21356744D01*
X68263046Y-21411191D01*
X68263047Y-21411192D01*
X68247099Y-21449693D01*
X68247099Y-21559056D01*
X68247100Y-21559065D01*
X68247100Y-21581254D01*
X68229507Y-21629592D01*
X68225074Y-21634428D01*
X68137589Y-21721912D01*
X68077964Y-21825185D01*
X68077964Y-21825186D01*
X68077964Y-21825187D01*
X68047100Y-21940375D01*
X68047100Y-22059625D01*
X68073350Y-22157594D01*
X68077964Y-22174813D01*
X68077964Y-22174814D01*
X68137589Y-22278087D01*
X68225074Y-22365572D01*
X68246814Y-22412192D01*
X68247100Y-22418746D01*
X68247100Y-24364097D01*
X68229507Y-24412435D01*
X68225074Y-24417271D01*
X66450604Y-26191739D01*
X66449424Y-26192288D01*
X66448836Y-26193451D01*
X66426237Y-26203101D01*
X66403984Y-26213479D01*
X66402338Y-26213307D01*
X66401530Y-26213653D01*
X66375601Y-26210527D01*
X66285631Y-26183235D01*
X66272011Y-26177593D01*
X66128560Y-26100916D01*
X66116303Y-26092727D01*
X65987684Y-25987173D01*
X65982216Y-25982216D01*
X65246526Y-25246526D01*
X65224786Y-25199906D01*
X65224500Y-25193352D01*
X65224500Y-24316249D01*
X65242093Y-24267911D01*
X65286642Y-24242191D01*
X65337297Y-24251123D01*
X65349187Y-24257988D01*
X65464375Y-24288852D01*
X65464378Y-24288852D01*
X65583622Y-24288852D01*
X65583625Y-24288852D01*
X65698813Y-24257988D01*
X65802087Y-24198362D01*
X65886410Y-24114039D01*
X65946036Y-24010765D01*
X65976900Y-23895577D01*
X65976900Y-23776327D01*
X65946036Y-23661139D01*
X65928172Y-23630198D01*
X65886410Y-23557864D01*
X65802087Y-23473541D01*
X65698813Y-23413916D01*
X65583625Y-23383052D01*
X65464375Y-23383052D01*
X65377984Y-23406200D01*
X65349186Y-23413916D01*
X65349185Y-23413916D01*
X65337300Y-23420779D01*
X65286641Y-23429711D01*
X65242093Y-23403991D01*
X65224500Y-23355654D01*
X65224500Y-20789302D01*
X65242093Y-20740964D01*
X65246526Y-20736128D01*
X65438988Y-20543666D01*
X65643255Y-20339399D01*
X65643257Y-20339399D01*
X65714399Y-20268257D01*
X65739878Y-20206744D01*
X65752901Y-20175305D01*
X65752901Y-20074695D01*
X65752901Y-20068640D01*
X65752900Y-20068626D01*
X65752900Y-19133391D01*
X65770493Y-19085053D01*
X65774926Y-19080217D01*
X65842401Y-19012741D01*
X65842405Y-19012737D01*
X65898739Y-18915163D01*
X65927900Y-18806334D01*
X65927900Y-18693666D01*
X65898739Y-18584837D01*
X65842405Y-18487263D01*
X65842403Y-18487261D01*
X65842401Y-18487258D01*
X65762741Y-18407598D01*
X65762735Y-18407594D01*
X65757199Y-18404398D01*
X65733749Y-18390859D01*
X65665164Y-18351261D01*
X65632097Y-18342401D01*
X65556334Y-18322100D01*
X65443666Y-18322100D01*
X65378368Y-18339596D01*
X65334835Y-18351261D01*
X65237264Y-18407594D01*
X65237258Y-18407598D01*
X65157598Y-18487258D01*
X65157594Y-18487264D01*
X65101261Y-18584835D01*
X65086680Y-18639251D01*
X65072100Y-18693666D01*
X65072100Y-18806334D01*
X65087265Y-18862928D01*
X65101261Y-18915164D01*
X65157594Y-19012735D01*
X65157598Y-19012741D01*
X65225074Y-19080217D01*
X65246814Y-19126837D01*
X65247100Y-19133391D01*
X65247100Y-19989097D01*
X65229507Y-20037435D01*
X65225074Y-20042271D01*
X64830980Y-20436364D01*
X64830958Y-20436384D01*
X64757201Y-20510141D01*
X64757200Y-20510143D01*
X64740567Y-20550302D01*
X64740566Y-20550305D01*
X64718699Y-20603093D01*
X64718699Y-20712456D01*
X64718700Y-20712465D01*
X64718700Y-24924800D01*
X64701107Y-24973138D01*
X64656558Y-24998858D01*
X64643500Y-25000000D01*
X59639201Y-25000000D01*
X59590863Y-24982407D01*
X59565143Y-24937858D01*
X59574076Y-24887200D01*
X59586027Y-24871626D01*
X60541387Y-23916266D01*
X63322100Y-23916266D01*
X63322100Y-24028934D01*
X63342949Y-24106743D01*
X63351261Y-24137764D01*
X63407594Y-24235335D01*
X63407598Y-24235341D01*
X63487258Y-24315001D01*
X63487261Y-24315003D01*
X63487263Y-24315005D01*
X63584837Y-24371339D01*
X63693666Y-24400500D01*
X63693669Y-24400500D01*
X63806331Y-24400500D01*
X63806334Y-24400500D01*
X63915163Y-24371339D01*
X64012737Y-24315005D01*
X64092405Y-24235337D01*
X64148739Y-24137763D01*
X64177900Y-24028934D01*
X64177900Y-23916266D01*
X64148739Y-23807437D01*
X64092405Y-23709863D01*
X64092403Y-23709861D01*
X64092401Y-23709858D01*
X64012741Y-23630198D01*
X64012735Y-23630194D01*
X63915164Y-23573861D01*
X63887955Y-23566570D01*
X63806334Y-23544700D01*
X63693666Y-23544700D01*
X63628368Y-23562196D01*
X63584835Y-23573861D01*
X63487264Y-23630194D01*
X63487258Y-23630198D01*
X63407598Y-23709858D01*
X63407594Y-23709864D01*
X63351261Y-23807435D01*
X63344159Y-23833940D01*
X63322100Y-23916266D01*
X60541387Y-23916266D01*
X60599490Y-23858163D01*
X62602034Y-21855619D01*
X64636023Y-19821629D01*
X64636036Y-19821620D01*
X64714398Y-19743258D01*
X64714399Y-19743257D01*
X64743109Y-19673944D01*
X64752901Y-19650305D01*
X64752901Y-19549695D01*
X64752901Y-19543640D01*
X64752900Y-19543626D01*
X64752900Y-18385902D01*
X64770493Y-18337564D01*
X64774926Y-18332728D01*
X65082728Y-18024926D01*
X65129348Y-18003186D01*
X65135902Y-18002900D01*
X67364098Y-18002900D01*
X67412436Y-18020493D01*
X67417271Y-18024925D01*
X67778247Y-18385902D01*
X68131308Y-18738963D01*
X68131321Y-18738978D01*
X68206738Y-18814395D01*
X68206741Y-18814397D01*
X68206743Y-18814399D01*
X68233968Y-18825675D01*
X68299695Y-18852901D01*
X68409057Y-18852901D01*
X68409065Y-18852900D01*
X70340935Y-18852900D01*
X70340943Y-18852901D01*
X70349695Y-18852901D01*
X70450305Y-18852901D01*
X70493914Y-18834837D01*
X70543257Y-18814399D01*
X70614399Y-18743257D01*
X70621620Y-18736036D01*
X70621629Y-18736023D01*
X71657728Y-17699926D01*
X71704348Y-17678186D01*
X71710902Y-17677900D01*
X71806331Y-17677900D01*
X71806334Y-17677900D01*
X71915163Y-17648739D01*
X72012737Y-17592405D01*
X72092405Y-17512737D01*
X72148739Y-17415163D01*
X72177900Y-17306334D01*
X72177900Y-17193666D01*
X72148739Y-17084837D01*
X72145816Y-17079775D01*
X72136833Y-17064216D01*
X72092405Y-16987263D01*
X72092403Y-16987261D01*
X72092401Y-16987258D01*
X72012741Y-16907598D01*
X72012735Y-16907594D01*
X71915164Y-16851261D01*
X71887955Y-16843970D01*
X71806334Y-16822100D01*
X71693666Y-16822100D01*
X71628368Y-16839596D01*
X71584835Y-16851261D01*
X71487264Y-16907594D01*
X71487258Y-16907598D01*
X71407598Y-16987258D01*
X71407594Y-16987264D01*
X71351261Y-17084835D01*
X71342634Y-17117034D01*
X71322100Y-17193666D01*
X71322100Y-17193668D01*
X71322100Y-17289096D01*
X71304507Y-17337434D01*
X71300074Y-17342270D01*
X71051876Y-17590469D01*
X70557509Y-18084837D01*
X70317272Y-18325074D01*
X70270652Y-18346814D01*
X70264098Y-18347100D01*
X68485903Y-18347100D01*
X68437565Y-18329507D01*
X68432729Y-18325074D01*
X67720595Y-17612941D01*
X67720585Y-17612928D01*
X67643258Y-17535601D01*
X67588057Y-17512737D01*
X67588055Y-17512736D01*
X67550306Y-17497099D01*
X67550305Y-17497099D01*
X67449695Y-17497099D01*
X67440943Y-17497099D01*
X67440935Y-17497100D01*
X65059065Y-17497100D01*
X65059057Y-17497099D01*
X65050305Y-17497099D01*
X64949695Y-17497099D01*
X64949694Y-17497099D01*
X64911945Y-17512736D01*
X64911943Y-17512737D01*
X64856741Y-17535601D01*
X64782974Y-17609369D01*
X64782964Y-17609380D01*
X64359380Y-18032964D01*
X64359358Y-18032984D01*
X64285601Y-18106741D01*
X64285600Y-18106743D01*
X64270477Y-18143256D01*
X64270476Y-18143259D01*
X64247099Y-18199693D01*
X64247099Y-18309056D01*
X64247100Y-18309065D01*
X64247100Y-19464098D01*
X64229507Y-19512436D01*
X64225074Y-19517272D01*
X59267272Y-24475074D01*
X59220652Y-24496814D01*
X59214098Y-24497100D01*
X58633391Y-24497100D01*
X58585053Y-24479507D01*
X58580217Y-24475074D01*
X58512741Y-24407598D01*
X58512735Y-24407594D01*
X58415164Y-24351261D01*
X58387955Y-24343970D01*
X58306334Y-24322100D01*
X58193666Y-24322100D01*
X58128368Y-24339596D01*
X58084835Y-24351261D01*
X57987264Y-24407594D01*
X57987258Y-24407598D01*
X57907598Y-24487258D01*
X57907594Y-24487264D01*
X57851261Y-24584835D01*
X57850027Y-24589441D01*
X57822100Y-24693666D01*
X57822100Y-24806334D01*
X57830933Y-24839299D01*
X57841038Y-24877013D01*
X57836554Y-24928257D01*
X57800180Y-24964630D01*
X57753729Y-24970230D01*
X57565621Y-24932813D01*
X57556120Y-24930267D01*
X57317729Y-24849344D01*
X57308641Y-24845580D01*
X57286852Y-24834835D01*
X57082850Y-24734232D01*
X57074331Y-24729313D01*
X56864998Y-24589441D01*
X56857194Y-24583453D01*
X56666059Y-24415832D01*
X56662468Y-24412468D01*
X56087531Y-23837531D01*
X56084167Y-23833940D01*
X55916546Y-23642805D01*
X55910558Y-23635001D01*
X55770686Y-23425668D01*
X55765767Y-23417149D01*
X55764173Y-23413916D01*
X55654415Y-23191348D01*
X55650659Y-23182279D01*
X55569729Y-22943870D01*
X55567188Y-22934387D01*
X55518069Y-22687450D01*
X55516788Y-22677715D01*
X55500161Y-22424029D01*
X55500000Y-22419111D01*
X55500000Y-20036355D01*
X59351120Y-20036355D01*
X59351120Y-20155605D01*
X59381984Y-20270793D01*
X59381984Y-20270794D01*
X59441609Y-20374067D01*
X59525932Y-20458390D01*
X59585347Y-20492693D01*
X59629207Y-20518016D01*
X59744395Y-20548880D01*
X59744398Y-20548880D01*
X59863642Y-20548880D01*
X59863645Y-20548880D01*
X59978833Y-20518016D01*
X60082107Y-20458390D01*
X60166430Y-20374067D01*
X60226056Y-20270793D01*
X60256920Y-20155605D01*
X60256920Y-20036355D01*
X60226056Y-19921167D01*
X60219447Y-19909720D01*
X60166430Y-19817892D01*
X60082107Y-19733569D01*
X59978834Y-19673944D01*
X59978833Y-19673944D01*
X59863645Y-19643080D01*
X59744395Y-19643080D01*
X59669880Y-19663046D01*
X59629206Y-19673944D01*
X59629205Y-19673944D01*
X59525932Y-19733569D01*
X59441609Y-19817892D01*
X59381984Y-19921165D01*
X59381984Y-19921166D01*
X59381984Y-19921167D01*
X59351120Y-20036355D01*
X55500000Y-20036355D01*
X55500000Y-17940375D01*
X59487100Y-17940375D01*
X59487100Y-18059625D01*
X59493855Y-18084835D01*
X59497448Y-18098247D01*
X59495346Y-18131794D01*
X59498544Y-18132430D01*
X59497099Y-18139696D01*
X59497099Y-18240306D01*
X59535600Y-18333253D01*
X59535601Y-18333255D01*
X59535602Y-18333256D01*
X59606744Y-18404398D01*
X59606745Y-18404398D01*
X59606746Y-18404399D01*
X59614462Y-18407595D01*
X59699695Y-18442901D01*
X59800305Y-18442901D01*
X59807570Y-18441456D01*
X59808273Y-18444990D01*
X59841752Y-18442551D01*
X59880375Y-18452900D01*
X59880378Y-18452900D01*
X59999622Y-18452900D01*
X59999625Y-18452900D01*
X60114813Y-18422036D01*
X60218087Y-18362410D01*
X60258397Y-18322100D01*
X60305572Y-18274926D01*
X60352192Y-18253186D01*
X60358746Y-18252900D01*
X60790935Y-18252900D01*
X60790943Y-18252901D01*
X60799695Y-18252901D01*
X60900305Y-18252901D01*
X60942067Y-18235602D01*
X60993257Y-18214399D01*
X61064399Y-18143257D01*
X61071620Y-18136036D01*
X61071629Y-18136023D01*
X62857728Y-16349926D01*
X62872604Y-16342988D01*
X62885182Y-16332435D01*
X62901349Y-16329584D01*
X62904348Y-16328186D01*
X62910902Y-16327900D01*
X62989098Y-16327900D01*
X63037436Y-16345493D01*
X63042272Y-16349926D01*
X63186751Y-16494405D01*
X63208491Y-16541025D01*
X63195177Y-16590712D01*
X63153040Y-16620217D01*
X63143941Y-16622026D01*
X63034835Y-16651261D01*
X62937264Y-16707594D01*
X62937258Y-16707598D01*
X62857598Y-16787258D01*
X62857594Y-16787264D01*
X62801261Y-16884835D01*
X62795162Y-16907597D01*
X62772100Y-16993666D01*
X62772100Y-17106334D01*
X62793970Y-17187955D01*
X62801261Y-17215164D01*
X62857594Y-17312735D01*
X62857598Y-17312741D01*
X62937258Y-17392401D01*
X62937261Y-17392403D01*
X62937263Y-17392405D01*
X63034837Y-17448739D01*
X63143666Y-17477900D01*
X63143669Y-17477900D01*
X63256331Y-17477900D01*
X63256334Y-17477900D01*
X63365163Y-17448739D01*
X63462737Y-17392405D01*
X63542405Y-17312737D01*
X63598739Y-17215163D01*
X63627900Y-17106334D01*
X63627900Y-16993666D01*
X63598739Y-16884837D01*
X63587690Y-16865699D01*
X63578759Y-16815041D01*
X63604479Y-16770493D01*
X63652816Y-16752900D01*
X65690935Y-16752900D01*
X65690943Y-16752901D01*
X65699695Y-16752901D01*
X65800306Y-16752901D01*
X65838806Y-16736952D01*
X65893257Y-16714399D01*
X65964399Y-16643257D01*
X65971620Y-16636036D01*
X65971629Y-16636023D01*
X66287977Y-16319675D01*
X66334596Y-16297936D01*
X66378750Y-16307725D01*
X66384835Y-16311238D01*
X66384837Y-16311239D01*
X66493666Y-16340400D01*
X66493669Y-16340400D01*
X66606331Y-16340400D01*
X66606334Y-16340400D01*
X66715163Y-16311239D01*
X66812737Y-16254905D01*
X66892405Y-16175237D01*
X66948739Y-16077663D01*
X66977900Y-15968834D01*
X66977900Y-15856166D01*
X66948739Y-15747337D01*
X66892405Y-15649763D01*
X66892402Y-15649760D01*
X66892401Y-15649758D01*
X66812741Y-15570098D01*
X66812735Y-15570094D01*
X66715164Y-15513761D01*
X66687955Y-15506470D01*
X66606334Y-15484600D01*
X66493666Y-15484600D01*
X66431487Y-15501261D01*
X66384835Y-15513761D01*
X66287264Y-15570094D01*
X66287258Y-15570098D01*
X66207597Y-15649760D01*
X66207595Y-15649762D01*
X66164752Y-15723966D01*
X66152805Y-15739537D01*
X66145008Y-15747335D01*
X66123102Y-15769242D01*
X66123100Y-15769242D01*
X66123100Y-15769244D01*
X65667271Y-16225074D01*
X65620651Y-16246814D01*
X65614097Y-16247100D01*
X63685902Y-16247100D01*
X63637564Y-16229507D01*
X63632728Y-16225074D01*
X63399926Y-15992272D01*
X63378186Y-15945652D01*
X63377900Y-15939098D01*
X63377900Y-15843668D01*
X63377900Y-15843666D01*
X63348739Y-15734837D01*
X63292405Y-15637263D01*
X63292403Y-15637261D01*
X63292401Y-15637258D01*
X63212741Y-15557598D01*
X63212735Y-15557594D01*
X63210547Y-15556331D01*
X63136814Y-15513761D01*
X63115164Y-15501261D01*
X63087955Y-15493970D01*
X63006334Y-15472100D01*
X62893666Y-15472100D01*
X62828368Y-15489596D01*
X62784835Y-15501261D01*
X62687264Y-15557594D01*
X62687258Y-15557598D01*
X62607598Y-15637258D01*
X62607594Y-15637264D01*
X62551261Y-15734835D01*
X62536680Y-15789251D01*
X62522100Y-15843666D01*
X62522100Y-15843668D01*
X62522100Y-15939096D01*
X62504507Y-15987434D01*
X62500074Y-15992270D01*
X60767272Y-17725074D01*
X60720652Y-17746814D01*
X60714098Y-17747100D01*
X60358746Y-17747100D01*
X60310408Y-17729507D01*
X60305572Y-17725074D01*
X60218087Y-17637589D01*
X60114813Y-17577964D01*
X59999625Y-17547100D01*
X59880375Y-17547100D01*
X59793984Y-17570248D01*
X59765186Y-17577964D01*
X59765185Y-17577964D01*
X59661912Y-17637589D01*
X59577589Y-17721912D01*
X59517964Y-17825185D01*
X59517964Y-17825186D01*
X59507848Y-17862941D01*
X59487100Y-17940375D01*
X55500000Y-17940375D01*
X55500000Y-13750000D01*
X54943666Y-13193666D01*
X57072100Y-13193666D01*
X57072100Y-13306334D01*
X57093970Y-13387955D01*
X57101261Y-13415164D01*
X57157594Y-13512735D01*
X57157598Y-13512741D01*
X57237258Y-13592401D01*
X57237261Y-13592403D01*
X57237263Y-13592405D01*
X57334837Y-13648739D01*
X57443666Y-13677900D01*
X57443669Y-13677900D01*
X57556331Y-13677900D01*
X57556334Y-13677900D01*
X57665163Y-13648739D01*
X57762737Y-13592405D01*
X57842405Y-13512737D01*
X57898739Y-13415163D01*
X57927900Y-13306334D01*
X57927900Y-13193666D01*
X57898739Y-13084837D01*
X57842405Y-12987263D01*
X57842403Y-12987261D01*
X57842401Y-12987258D01*
X57762741Y-12907598D01*
X57762735Y-12907594D01*
X57665164Y-12851261D01*
X57637955Y-12843970D01*
X57556334Y-12822100D01*
X57443666Y-12822100D01*
X57378368Y-12839596D01*
X57334835Y-12851261D01*
X57237264Y-12907594D01*
X57237258Y-12907598D01*
X57157598Y-12987258D01*
X57157594Y-12987264D01*
X57101261Y-13084835D01*
X57086680Y-13139251D01*
X57072100Y-13193666D01*
X54943666Y-13193666D01*
X54750000Y-13000000D01*
X54219670Y-13000000D01*
X52828427Y-13000000D01*
X52000000Y-13000000D01*
X51414214Y-13585786D01*
X50837531Y-14162468D01*
X50833940Y-14165832D01*
X50642805Y-14333453D01*
X50635001Y-14339441D01*
X50425668Y-14479313D01*
X50417149Y-14484232D01*
X50191358Y-14595580D01*
X50182270Y-14599344D01*
X49943879Y-14680267D01*
X49934378Y-14682813D01*
X49687459Y-14731928D01*
X49677706Y-14733212D01*
X49424029Y-14749839D01*
X49419111Y-14750000D01*
X48107249Y-14750000D01*
X48099878Y-14749638D01*
X47944403Y-14734324D01*
X47929945Y-14731448D01*
X47783999Y-14687176D01*
X47770379Y-14681534D01*
X47635879Y-14609642D01*
X47623622Y-14601453D01*
X47568640Y-14556331D01*
X47505721Y-14504695D01*
X47495304Y-14494278D01*
X47398546Y-14376377D01*
X47390357Y-14364120D01*
X47318465Y-14229620D01*
X47312823Y-14216000D01*
X47268551Y-14070054D01*
X47265675Y-14055596D01*
X47250362Y-13900122D01*
X47250000Y-13892751D01*
X47250000Y-11443666D01*
X51822100Y-11443666D01*
X51822100Y-11556334D01*
X51843002Y-11634339D01*
X51851261Y-11665164D01*
X51907594Y-11762735D01*
X51907598Y-11762741D01*
X51987258Y-11842401D01*
X51987261Y-11842403D01*
X51987263Y-11842405D01*
X52012465Y-11856955D01*
X52075343Y-11893258D01*
X52084837Y-11898739D01*
X52193666Y-11927900D01*
X52193669Y-11927900D01*
X52306331Y-11927900D01*
X52306334Y-11927900D01*
X52415163Y-11898739D01*
X52512737Y-11842405D01*
X52592405Y-11762737D01*
X52648739Y-11665163D01*
X52677283Y-11558634D01*
X52706787Y-11516500D01*
X52749920Y-11502900D01*
X57114098Y-11502900D01*
X57162436Y-11520493D01*
X57167272Y-11524926D01*
X60425074Y-14782728D01*
X60446814Y-14829348D01*
X60447100Y-14835902D01*
X60447100Y-15016609D01*
X60429507Y-15064947D01*
X60425074Y-15069783D01*
X60357598Y-15137258D01*
X60357594Y-15137264D01*
X60301261Y-15234835D01*
X60288720Y-15281641D01*
X60272100Y-15343666D01*
X60272100Y-15456334D01*
X60287488Y-15513761D01*
X60301261Y-15565164D01*
X60357594Y-15662735D01*
X60357598Y-15662741D01*
X60437258Y-15742401D01*
X60437261Y-15742403D01*
X60437263Y-15742405D01*
X60534837Y-15798739D01*
X60643666Y-15827900D01*
X60643669Y-15827900D01*
X60756331Y-15827900D01*
X60756334Y-15827900D01*
X60865163Y-15798739D01*
X60962737Y-15742405D01*
X61042405Y-15662737D01*
X61098739Y-15565163D01*
X61127900Y-15456334D01*
X61127900Y-15343666D01*
X61098739Y-15234837D01*
X61042405Y-15137263D01*
X61042403Y-15137261D01*
X61042401Y-15137258D01*
X60974926Y-15069783D01*
X60953186Y-15023163D01*
X60952900Y-15016609D01*
X60952900Y-14759065D01*
X60952901Y-14759056D01*
X60952901Y-14649694D01*
X60952900Y-14649693D01*
X60952504Y-14648738D01*
X60929170Y-14592405D01*
X60914399Y-14556743D01*
X60914397Y-14556741D01*
X60914397Y-14556740D01*
X60838980Y-14481323D01*
X60838960Y-14481306D01*
X60551320Y-14193666D01*
X61072100Y-14193666D01*
X61072100Y-14306334D01*
X61087584Y-14364120D01*
X61101261Y-14415164D01*
X61157594Y-14512735D01*
X61157598Y-14512741D01*
X61237258Y-14592401D01*
X61237260Y-14592402D01*
X61237263Y-14592405D01*
X61334837Y-14648739D01*
X61443666Y-14677900D01*
X61443669Y-14677900D01*
X61556331Y-14677900D01*
X61556334Y-14677900D01*
X61665163Y-14648739D01*
X61762737Y-14592405D01*
X61842405Y-14512737D01*
X61898739Y-14415163D01*
X61927900Y-14306334D01*
X61927900Y-14193666D01*
X61898739Y-14084837D01*
X61842405Y-13987263D01*
X61842403Y-13987261D01*
X61842401Y-13987258D01*
X61762741Y-13907598D01*
X61762735Y-13907594D01*
X61665164Y-13851261D01*
X61631616Y-13842272D01*
X61556334Y-13822100D01*
X61443666Y-13822100D01*
X61386436Y-13837435D01*
X61334835Y-13851261D01*
X61237264Y-13907594D01*
X61237258Y-13907598D01*
X61157598Y-13987258D01*
X61157594Y-13987264D01*
X61101261Y-14084835D01*
X61095391Y-14106743D01*
X61072100Y-14193666D01*
X60551320Y-14193666D01*
X57660827Y-11303173D01*
X57639087Y-11256553D01*
X57652401Y-11206866D01*
X57660817Y-11196836D01*
X58136023Y-10721629D01*
X58136036Y-10721620D01*
X58214398Y-10643258D01*
X58214399Y-10643257D01*
X58243143Y-10573861D01*
X58252901Y-10550305D01*
X58252901Y-10449695D01*
X58252901Y-10443640D01*
X58252900Y-10443626D01*
X58252900Y-9385902D01*
X58270493Y-9337564D01*
X58274926Y-9332728D01*
X58951489Y-8656166D01*
X62534600Y-8656166D01*
X62534600Y-8768834D01*
X62548873Y-8822100D01*
X62563761Y-8877664D01*
X62612025Y-8961259D01*
X62622100Y-8998859D01*
X62622100Y-10568626D01*
X62622099Y-10568640D01*
X62622099Y-10675306D01*
X62629067Y-10692126D01*
X62629068Y-10692131D01*
X62629069Y-10692131D01*
X62660601Y-10768258D01*
X62737928Y-10845585D01*
X62737941Y-10845595D01*
X64266764Y-12374419D01*
X64266777Y-12374434D01*
X64342194Y-12449851D01*
X64342197Y-12449853D01*
X64342199Y-12449855D01*
X64369424Y-12461131D01*
X64435151Y-12488357D01*
X64544513Y-12488357D01*
X64544521Y-12488356D01*
X64949695Y-12488356D01*
X65199695Y-12488356D01*
X65699554Y-12488356D01*
X65747892Y-12505949D01*
X65752728Y-12510382D01*
X66139171Y-12896825D01*
X66160911Y-12943445D01*
X66147597Y-12993132D01*
X66139171Y-13003173D01*
X64074969Y-15067375D01*
X64041259Y-15086838D01*
X63987437Y-15101260D01*
X63889864Y-15157594D01*
X63889858Y-15157598D01*
X63810198Y-15237258D01*
X63810194Y-15237264D01*
X63753861Y-15334835D01*
X63748651Y-15354279D01*
X63724700Y-15443666D01*
X63724700Y-15556334D01*
X63738471Y-15607728D01*
X63753861Y-15665164D01*
X63810194Y-15762735D01*
X63810198Y-15762741D01*
X63889858Y-15842401D01*
X63889861Y-15842403D01*
X63889863Y-15842405D01*
X63987437Y-15898739D01*
X64096266Y-15927900D01*
X64096269Y-15927900D01*
X64208931Y-15927900D01*
X64208934Y-15927900D01*
X64317763Y-15898739D01*
X64415337Y-15842405D01*
X64495005Y-15762737D01*
X64551339Y-15665163D01*
X64580500Y-15556334D01*
X64580500Y-15443666D01*
X64556548Y-15354277D01*
X64561030Y-15303035D01*
X64576008Y-15281644D01*
X65488987Y-14368666D01*
X67322100Y-14368666D01*
X67322100Y-14481334D01*
X67342305Y-14556740D01*
X67351261Y-14590164D01*
X67407594Y-14687735D01*
X67407598Y-14687741D01*
X67487258Y-14767401D01*
X67487261Y-14767403D01*
X67487263Y-14767405D01*
X67584837Y-14823739D01*
X67693666Y-14852900D01*
X67693669Y-14852900D01*
X67789098Y-14852900D01*
X67837436Y-14870493D01*
X67842272Y-14874926D01*
X68575074Y-15607728D01*
X68596814Y-15654348D01*
X68597100Y-15660902D01*
X68597100Y-17276874D01*
X68579507Y-17325212D01*
X68541366Y-17349511D01*
X68534837Y-17351260D01*
X68437264Y-17407594D01*
X68437258Y-17407598D01*
X68357598Y-17487258D01*
X68357594Y-17487264D01*
X68301261Y-17584835D01*
X68294537Y-17609930D01*
X68272100Y-17693666D01*
X68272100Y-17806334D01*
X68285608Y-17856746D01*
X68301261Y-17915164D01*
X68357594Y-18012735D01*
X68357598Y-18012741D01*
X68437258Y-18092401D01*
X68437261Y-18092403D01*
X68437263Y-18092405D01*
X68534837Y-18148739D01*
X68643666Y-18177900D01*
X68643669Y-18177900D01*
X68756331Y-18177900D01*
X68756334Y-18177900D01*
X68865163Y-18148739D01*
X68962737Y-18092405D01*
X69042405Y-18012737D01*
X69098739Y-17915163D01*
X69127900Y-17806334D01*
X69127900Y-17693666D01*
X69105463Y-17609930D01*
X69102901Y-17590469D01*
X69102901Y-17572100D01*
X69102901Y-17549695D01*
X69102900Y-17549692D01*
X69102900Y-15584065D01*
X69102901Y-15584056D01*
X69102901Y-15474695D01*
X69090048Y-15443668D01*
X69086952Y-15436193D01*
X69078241Y-15415163D01*
X69064399Y-15381743D01*
X69064398Y-15381741D01*
X68988980Y-15306323D01*
X68988960Y-15306306D01*
X68199926Y-14517272D01*
X68178186Y-14470652D01*
X68177900Y-14464098D01*
X68177900Y-14368668D01*
X68177900Y-14368666D01*
X68148739Y-14259837D01*
X68092405Y-14162263D01*
X68092403Y-14162261D01*
X68092401Y-14162258D01*
X68012741Y-14082598D01*
X68012735Y-14082594D01*
X67999649Y-14075039D01*
X67991015Y-14070054D01*
X67915164Y-14026261D01*
X67887955Y-14018970D01*
X67806334Y-13997100D01*
X67693666Y-13997100D01*
X67635316Y-14012735D01*
X67584835Y-14026261D01*
X67487264Y-14082594D01*
X67487258Y-14082598D01*
X67407598Y-14162258D01*
X67407594Y-14162264D01*
X67351261Y-14259835D01*
X67340417Y-14300305D01*
X67322100Y-14368666D01*
X65488987Y-14368666D01*
X66682728Y-13174926D01*
X66729348Y-13153186D01*
X66735902Y-13152900D01*
X69264098Y-13152900D01*
X69312436Y-13170493D01*
X69317272Y-13174926D01*
X70050074Y-13907728D01*
X70071814Y-13954348D01*
X70072100Y-13960902D01*
X70072100Y-14056334D01*
X70092806Y-14133608D01*
X70101261Y-14165164D01*
X70157594Y-14262735D01*
X70157598Y-14262741D01*
X70237258Y-14342401D01*
X70237261Y-14342403D01*
X70237263Y-14342405D01*
X70334837Y-14398739D01*
X70443666Y-14427900D01*
X70443669Y-14427900D01*
X70556331Y-14427900D01*
X70556334Y-14427900D01*
X70665163Y-14398739D01*
X70762737Y-14342405D01*
X70842405Y-14262737D01*
X70898739Y-14165163D01*
X70927900Y-14056334D01*
X70927900Y-13943666D01*
X70898739Y-13834837D01*
X70842405Y-13737263D01*
X70842403Y-13737261D01*
X70842401Y-13737258D01*
X70762741Y-13657598D01*
X70762735Y-13657594D01*
X70665164Y-13601261D01*
X70632097Y-13592401D01*
X70556334Y-13572100D01*
X70460902Y-13572100D01*
X70412564Y-13554507D01*
X70407728Y-13550074D01*
X69620595Y-12762941D01*
X69620585Y-12762928D01*
X69543258Y-12685601D01*
X69488806Y-12663047D01*
X69450305Y-12647099D01*
X69349695Y-12647099D01*
X69340943Y-12647099D01*
X69340935Y-12647100D01*
X66659062Y-12647100D01*
X66650306Y-12647099D01*
X66650305Y-12647099D01*
X66635898Y-12647099D01*
X66620208Y-12641387D01*
X66587563Y-12629506D01*
X66582727Y-12625073D01*
X66056051Y-12098397D01*
X66056041Y-12098384D01*
X65978714Y-12021057D01*
X65947705Y-12008213D01*
X65947705Y-12008212D01*
X65920873Y-11997099D01*
X65920870Y-11997098D01*
X65885762Y-11982555D01*
X65885761Y-11982555D01*
X65785151Y-11982555D01*
X65776399Y-11982555D01*
X65776391Y-11982556D01*
X64621359Y-11982556D01*
X64573021Y-11964963D01*
X64568185Y-11960530D01*
X64551321Y-11943666D01*
X66572100Y-11943666D01*
X66572100Y-12056334D01*
X66583371Y-12098397D01*
X66601261Y-12165164D01*
X66657594Y-12262735D01*
X66657598Y-12262741D01*
X66737258Y-12342401D01*
X66737261Y-12342403D01*
X66737263Y-12342405D01*
X66834837Y-12398739D01*
X66943666Y-12427900D01*
X66943669Y-12427900D01*
X67056331Y-12427900D01*
X67056334Y-12427900D01*
X67165163Y-12398739D01*
X67262737Y-12342405D01*
X67342405Y-12262737D01*
X67398739Y-12165163D01*
X67427900Y-12056334D01*
X67427900Y-11943666D01*
X67398739Y-11834837D01*
X67398100Y-11833731D01*
X67378801Y-11800304D01*
X67342405Y-11737263D01*
X67342403Y-11737261D01*
X67342401Y-11737258D01*
X67262741Y-11657598D01*
X67262735Y-11657594D01*
X67165164Y-11601261D01*
X67137955Y-11593970D01*
X67056334Y-11572100D01*
X66943666Y-11572100D01*
X66878368Y-11589596D01*
X66834835Y-11601261D01*
X66737264Y-11657594D01*
X66737258Y-11657598D01*
X66657598Y-11737258D01*
X66657594Y-11737264D01*
X66601261Y-11834835D01*
X66600930Y-11836071D01*
X66572100Y-11943666D01*
X64551321Y-11943666D01*
X63149926Y-10542271D01*
X63128186Y-10495651D01*
X63127900Y-10489097D01*
X63127900Y-9154518D01*
X63145493Y-9106180D01*
X63165496Y-9089396D01*
X63225237Y-9054905D01*
X63304905Y-8975237D01*
X63361239Y-8877663D01*
X63390400Y-8768834D01*
X63390400Y-8656166D01*
X63361239Y-8547337D01*
X63304905Y-8449763D01*
X63304903Y-8449761D01*
X63304901Y-8449758D01*
X63225241Y-8370098D01*
X63225235Y-8370094D01*
X63224308Y-8369559D01*
X63202111Y-8356743D01*
X63127664Y-8313761D01*
X63100455Y-8306470D01*
X63018834Y-8284600D01*
X62906166Y-8284600D01*
X62840868Y-8302096D01*
X62797335Y-8313761D01*
X62699764Y-8370094D01*
X62699758Y-8370098D01*
X62620098Y-8449758D01*
X62620094Y-8449764D01*
X62563761Y-8547335D01*
X62560618Y-8559065D01*
X62534600Y-8656166D01*
X58951489Y-8656166D01*
X59009592Y-8598063D01*
X59582729Y-8024926D01*
X59629349Y-8003186D01*
X59635903Y-8002900D01*
X63150098Y-8002900D01*
X63198436Y-8020493D01*
X63203272Y-8024926D01*
X66017306Y-10838960D01*
X66017323Y-10838980D01*
X66092741Y-10914398D01*
X66092743Y-10914399D01*
X66147192Y-10936952D01*
X66147194Y-10936952D01*
X66185695Y-10952901D01*
X66295057Y-10952901D01*
X66295065Y-10952900D01*
X67164098Y-10952900D01*
X67212436Y-10970493D01*
X67217272Y-10974926D01*
X67881306Y-11638960D01*
X67881323Y-11638980D01*
X67956741Y-11714398D01*
X67956743Y-11714399D01*
X68011192Y-11736952D01*
X68011194Y-11736952D01*
X68049695Y-11752901D01*
X68159057Y-11752901D01*
X68159065Y-11752900D01*
X69364098Y-11752900D01*
X69412436Y-11770493D01*
X69417271Y-11774925D01*
X72050074Y-14407729D01*
X72071814Y-14454348D01*
X72072100Y-14460902D01*
X72072100Y-14556334D01*
X72082616Y-14595580D01*
X72101261Y-14665164D01*
X72157594Y-14762735D01*
X72157598Y-14762741D01*
X72237258Y-14842401D01*
X72237261Y-14842403D01*
X72237263Y-14842405D01*
X72334837Y-14898739D01*
X72443666Y-14927900D01*
X72443669Y-14927900D01*
X72556331Y-14927900D01*
X72556334Y-14927900D01*
X72665163Y-14898739D01*
X72762737Y-14842405D01*
X72842405Y-14762737D01*
X72898739Y-14665163D01*
X72927900Y-14556334D01*
X72927900Y-14443666D01*
X72898739Y-14334837D01*
X72897521Y-14332728D01*
X72878802Y-14300305D01*
X72842405Y-14237263D01*
X72842403Y-14237261D01*
X72842401Y-14237258D01*
X72762741Y-14157598D01*
X72762735Y-14157594D01*
X72665164Y-14101261D01*
X72632097Y-14092401D01*
X72556334Y-14072100D01*
X72460903Y-14072100D01*
X72412565Y-14054507D01*
X72407729Y-14050074D01*
X69770872Y-11413218D01*
X69762615Y-11395513D01*
X69751408Y-11379507D01*
X69751999Y-11372747D01*
X69749132Y-11366598D01*
X69754188Y-11347725D01*
X69755892Y-11328263D01*
X69761581Y-11320137D01*
X69762446Y-11316911D01*
X69770866Y-11306875D01*
X69830217Y-11247525D01*
X69876838Y-11225786D01*
X69883391Y-11225500D01*
X70086698Y-11225500D01*
X70135036Y-11243093D01*
X70139872Y-11247526D01*
X73225074Y-14332728D01*
X73246814Y-14379348D01*
X73247100Y-14385902D01*
X73247100Y-14866609D01*
X73229507Y-14914947D01*
X73225074Y-14919783D01*
X73157598Y-14987258D01*
X73157594Y-14987264D01*
X73101261Y-15084835D01*
X73096860Y-15101260D01*
X73072100Y-15193666D01*
X73072100Y-15306334D01*
X73092306Y-15381743D01*
X73101261Y-15415164D01*
X73157594Y-15512735D01*
X73157598Y-15512741D01*
X73237258Y-15592401D01*
X73237261Y-15592403D01*
X73237263Y-15592405D01*
X73334837Y-15648739D01*
X73443666Y-15677900D01*
X73443669Y-15677900D01*
X73556331Y-15677900D01*
X73556334Y-15677900D01*
X73665163Y-15648739D01*
X73762737Y-15592405D01*
X73842405Y-15512737D01*
X73898739Y-15415163D01*
X73927900Y-15306334D01*
X73927900Y-15193666D01*
X73898739Y-15084837D01*
X73842405Y-14987263D01*
X73842403Y-14987261D01*
X73842401Y-14987258D01*
X73774926Y-14919783D01*
X73753186Y-14873163D01*
X73752900Y-14866609D01*
X73752900Y-14309065D01*
X73752901Y-14309056D01*
X73752901Y-14199696D01*
X73752901Y-14199695D01*
X73735462Y-14157594D01*
X73725527Y-14133607D01*
X73725527Y-14133606D01*
X73714399Y-14106743D01*
X73714397Y-14106740D01*
X73638978Y-14031321D01*
X73638963Y-14031308D01*
X70443195Y-10835541D01*
X70443185Y-10835528D01*
X70365858Y-10758201D01*
X70311406Y-10735647D01*
X70272905Y-10719699D01*
X70172295Y-10719699D01*
X70163543Y-10719699D01*
X70163535Y-10719700D01*
X69883391Y-10719700D01*
X69835053Y-10702107D01*
X69830217Y-10697674D01*
X69762741Y-10630198D01*
X69762735Y-10630194D01*
X69665164Y-10573861D01*
X69637955Y-10566570D01*
X69556334Y-10544700D01*
X69443666Y-10544700D01*
X69378368Y-10562196D01*
X69334835Y-10573861D01*
X69237264Y-10630194D01*
X69237258Y-10630198D01*
X69157598Y-10709858D01*
X69157594Y-10709864D01*
X69101261Y-10807435D01*
X69092696Y-10839400D01*
X69072100Y-10916266D01*
X69072100Y-11028934D01*
X69088707Y-11090911D01*
X69101262Y-11137769D01*
X69103147Y-11142318D01*
X69100848Y-11143270D01*
X69108189Y-11184982D01*
X69082455Y-11229522D01*
X69034136Y-11247100D01*
X68235902Y-11247100D01*
X68187564Y-11229507D01*
X68182728Y-11225074D01*
X67520595Y-10562941D01*
X67520585Y-10562928D01*
X67443258Y-10485601D01*
X67388806Y-10463047D01*
X67350305Y-10447099D01*
X67249695Y-10447099D01*
X67240943Y-10447099D01*
X67240935Y-10447100D01*
X66371902Y-10447100D01*
X66323564Y-10429507D01*
X66318728Y-10425074D01*
X63506595Y-7612941D01*
X63506585Y-7612928D01*
X63429258Y-7535601D01*
X63374806Y-7513047D01*
X63336305Y-7497099D01*
X63235695Y-7497099D01*
X63226943Y-7497099D01*
X63226935Y-7497100D01*
X59559065Y-7497100D01*
X59559057Y-7497099D01*
X59550305Y-7497099D01*
X59449695Y-7497099D01*
X59449694Y-7497099D01*
X59403218Y-7516350D01*
X59403217Y-7516349D01*
X59356744Y-7535599D01*
X59356743Y-7535600D01*
X59329297Y-7563047D01*
X59285601Y-7606743D01*
X57859380Y-9032964D01*
X57859358Y-9032984D01*
X57785602Y-9106740D01*
X57785599Y-9106744D01*
X57763046Y-9161191D01*
X57763047Y-9161192D01*
X57747099Y-9199693D01*
X57747099Y-9309056D01*
X57747100Y-9309065D01*
X57747100Y-10364098D01*
X57729507Y-10412436D01*
X57725074Y-10417272D01*
X57167272Y-10975074D01*
X57120652Y-10996814D01*
X57114098Y-10997100D01*
X52199695Y-10997100D01*
X52106741Y-11035601D01*
X52035602Y-11106740D01*
X52035599Y-11106744D01*
X52032877Y-11113317D01*
X52001007Y-11149659D01*
X51987264Y-11157594D01*
X51907595Y-11237262D01*
X51907594Y-11237264D01*
X51851261Y-11334835D01*
X51836680Y-11389251D01*
X51822100Y-11443666D01*
X47250000Y-11443666D01*
X47250000Y-9693666D01*
X50072100Y-9693666D01*
X50072100Y-9806334D01*
X50090590Y-9875337D01*
X50101261Y-9915164D01*
X50157594Y-10012735D01*
X50157598Y-10012741D01*
X50237258Y-10092401D01*
X50237261Y-10092403D01*
X50237263Y-10092405D01*
X50334837Y-10148739D01*
X50443666Y-10177900D01*
X50443669Y-10177900D01*
X50556331Y-10177900D01*
X50556334Y-10177900D01*
X50665163Y-10148739D01*
X50762737Y-10092405D01*
X50842405Y-10012737D01*
X50898739Y-9915163D01*
X50927900Y-9806334D01*
X50927900Y-9693666D01*
X52822100Y-9693666D01*
X52822100Y-9806334D01*
X52840590Y-9875337D01*
X52851261Y-9915164D01*
X52907594Y-10012735D01*
X52907598Y-10012741D01*
X52987258Y-10092401D01*
X52987261Y-10092403D01*
X52987263Y-10092405D01*
X53084837Y-10148739D01*
X53193666Y-10177900D01*
X53193669Y-10177900D01*
X53306331Y-10177900D01*
X53306334Y-10177900D01*
X53415163Y-10148739D01*
X53512737Y-10092405D01*
X53533042Y-10072100D01*
X53580217Y-10024926D01*
X53626837Y-10003186D01*
X53633391Y-10002900D01*
X54190935Y-10002900D01*
X54190943Y-10002901D01*
X54199695Y-10002901D01*
X54300306Y-10002901D01*
X54338806Y-9986952D01*
X54393257Y-9964399D01*
X54464399Y-9893257D01*
X54471620Y-9886036D01*
X54471629Y-9886023D01*
X57082729Y-7274926D01*
X57129349Y-7253186D01*
X57135903Y-7252900D01*
X63614098Y-7252900D01*
X63662436Y-7270493D01*
X63667272Y-7274926D01*
X66281308Y-9888963D01*
X66281321Y-9888978D01*
X66356741Y-9964398D01*
X66356743Y-9964399D01*
X66403218Y-9983649D01*
X66403221Y-9983650D01*
X66411946Y-9987264D01*
X66449695Y-10002901D01*
X66559057Y-10002901D01*
X66559065Y-10002900D01*
X70114098Y-10002900D01*
X70162436Y-10020493D01*
X70167271Y-10024925D01*
X71477180Y-11334835D01*
X72781308Y-12638963D01*
X72781321Y-12638978D01*
X72856741Y-12714398D01*
X72856743Y-12714399D01*
X72903218Y-12733649D01*
X72903221Y-12733650D01*
X72915601Y-12738778D01*
X72949695Y-12752901D01*
X73059057Y-12752901D01*
X73059065Y-12752900D01*
X75190935Y-12752900D01*
X75190943Y-12752901D01*
X75199695Y-12752901D01*
X75300306Y-12752901D01*
X75317158Y-12745919D01*
X75338806Y-12736952D01*
X75393257Y-12714399D01*
X75414851Y-12692803D01*
X75423594Y-12687808D01*
X75439617Y-12685055D01*
X75454350Y-12678186D01*
X75460904Y-12677900D01*
X75556331Y-12677900D01*
X75556334Y-12677900D01*
X75665163Y-12648739D01*
X75762737Y-12592405D01*
X75842405Y-12512737D01*
X75898739Y-12415163D01*
X75927900Y-12306334D01*
X75927900Y-12193666D01*
X75898739Y-12084837D01*
X75842405Y-11987263D01*
X75842403Y-11987261D01*
X75842401Y-11987258D01*
X75762741Y-11907598D01*
X75762735Y-11907594D01*
X75665164Y-11851261D01*
X75632097Y-11842401D01*
X75556334Y-11822100D01*
X75443666Y-11822100D01*
X75378368Y-11839596D01*
X75334835Y-11851261D01*
X75237264Y-11907594D01*
X75237258Y-11907598D01*
X75157598Y-11987258D01*
X75157594Y-11987264D01*
X75101261Y-12084835D01*
X75092180Y-12118726D01*
X75072716Y-12191365D01*
X75043213Y-12233500D01*
X75000080Y-12247100D01*
X73566991Y-12247100D01*
X73518653Y-12229507D01*
X73492933Y-12184958D01*
X73501866Y-12134300D01*
X73513817Y-12118726D01*
X73592401Y-12040141D01*
X73592405Y-12040137D01*
X73648739Y-11942563D01*
X73677900Y-11833734D01*
X73677900Y-11738304D01*
X73687359Y-11701792D01*
X73692474Y-11692580D01*
X73714399Y-11670657D01*
X73741346Y-11605600D01*
X73752901Y-11577705D01*
X73752901Y-11477095D01*
X73752901Y-11471040D01*
X73752900Y-11471026D01*
X73752900Y-9193666D01*
X77322100Y-9193666D01*
X77322100Y-9306334D01*
X77343420Y-9385902D01*
X77351261Y-9415164D01*
X77353960Y-9419838D01*
X77407594Y-9512736D01*
X77407598Y-9512741D01*
X77487258Y-9592401D01*
X77487261Y-9592403D01*
X77487263Y-9592405D01*
X77584837Y-9648739D01*
X77693666Y-9677900D01*
X77693669Y-9677900D01*
X77806331Y-9677900D01*
X77806334Y-9677900D01*
X77915163Y-9648739D01*
X78012737Y-9592405D01*
X78092405Y-9512737D01*
X78148739Y-9415163D01*
X78177900Y-9306334D01*
X78177900Y-9193666D01*
X78148739Y-9084837D01*
X78092405Y-8987263D01*
X78092403Y-8987261D01*
X78092401Y-8987258D01*
X78012741Y-8907598D01*
X78012735Y-8907594D01*
X77915164Y-8851261D01*
X77887955Y-8843970D01*
X77806334Y-8822100D01*
X77693666Y-8822100D01*
X77628368Y-8839596D01*
X77584835Y-8851261D01*
X77487264Y-8907594D01*
X77487258Y-8907598D01*
X77407598Y-8987258D01*
X77407594Y-8987264D01*
X77351261Y-9084835D01*
X77350040Y-9089392D01*
X77322100Y-9193666D01*
X73752900Y-9193666D01*
X73752900Y-8559065D01*
X73752901Y-8559056D01*
X73752901Y-8449696D01*
X73752901Y-8449695D01*
X73719707Y-8369559D01*
X73714399Y-8356743D01*
X73643257Y-8285601D01*
X73643255Y-8285600D01*
X73020594Y-7662940D01*
X73020585Y-7662928D01*
X72943258Y-7585601D01*
X72888806Y-7563047D01*
X72850305Y-7547099D01*
X72749695Y-7547099D01*
X72740943Y-7547099D01*
X72740935Y-7547100D01*
X71435902Y-7547100D01*
X71387564Y-7529507D01*
X71382728Y-7525074D01*
X71057500Y-7199846D01*
X71035760Y-7153226D01*
X71049074Y-7103539D01*
X71057500Y-7093498D01*
X71113256Y-7037741D01*
X71113260Y-7037737D01*
X71169594Y-6940163D01*
X71198755Y-6831334D01*
X71198755Y-6740375D01*
X71797471Y-6740375D01*
X71797471Y-6859625D01*
X71819990Y-6943668D01*
X71828335Y-6974813D01*
X71828335Y-6974814D01*
X71887960Y-7078087D01*
X71972283Y-7162410D01*
X72031909Y-7196834D01*
X72075558Y-7222036D01*
X72190746Y-7252900D01*
X72190749Y-7252900D01*
X72309993Y-7252900D01*
X72309996Y-7252900D01*
X72425184Y-7222036D01*
X72528458Y-7162410D01*
X72612781Y-7078087D01*
X72672407Y-6974813D01*
X72703271Y-6859625D01*
X72703271Y-6740375D01*
X72672407Y-6625187D01*
X72663545Y-6609837D01*
X72612781Y-6521912D01*
X72528458Y-6437589D01*
X72425184Y-6377964D01*
X72418828Y-6376261D01*
X72309996Y-6347100D01*
X72190746Y-6347100D01*
X72104355Y-6370248D01*
X72075557Y-6377964D01*
X72075556Y-6377964D01*
X71972283Y-6437589D01*
X71887960Y-6521912D01*
X71828335Y-6625185D01*
X71828335Y-6625186D01*
X71828335Y-6625187D01*
X71797471Y-6740375D01*
X71198755Y-6740375D01*
X71198755Y-6718666D01*
X71169594Y-6609837D01*
X71113260Y-6512263D01*
X71113258Y-6512261D01*
X71113256Y-6512258D01*
X71033596Y-6432598D01*
X71033590Y-6432594D01*
X70936019Y-6376261D01*
X70908810Y-6368970D01*
X70827189Y-6347100D01*
X70714521Y-6347100D01*
X70649223Y-6364596D01*
X70605690Y-6376261D01*
X70508119Y-6432594D01*
X70508113Y-6432598D01*
X70428453Y-6512258D01*
X70428449Y-6512264D01*
X70372116Y-6609835D01*
X70368003Y-6625185D01*
X70342955Y-6718666D01*
X70342955Y-6831334D01*
X70364825Y-6912955D01*
X70372116Y-6940164D01*
X70428449Y-7037735D01*
X70428453Y-7037741D01*
X70495929Y-7105217D01*
X70502866Y-7120093D01*
X70513420Y-7132671D01*
X70516270Y-7148838D01*
X70517669Y-7151837D01*
X70517955Y-7158391D01*
X70517955Y-7214481D01*
X70517954Y-7214495D01*
X70517954Y-7220550D01*
X70517954Y-7321160D01*
X70533902Y-7359661D01*
X70533902Y-7359662D01*
X70556455Y-7414112D01*
X70633783Y-7491440D01*
X70633796Y-7491450D01*
X71081306Y-7938960D01*
X71081323Y-7938980D01*
X71156741Y-8014398D01*
X71156743Y-8014399D01*
X71211192Y-8036952D01*
X71211194Y-8036952D01*
X71249695Y-8052901D01*
X71359057Y-8052901D01*
X71359065Y-8052900D01*
X72664098Y-8052900D01*
X72712436Y-8070493D01*
X72717272Y-8074926D01*
X73225074Y-8582728D01*
X73246814Y-8629348D01*
X73247100Y-8635902D01*
X73247100Y-11277479D01*
X73229507Y-11325817D01*
X73191364Y-11350116D01*
X73084837Y-11378661D01*
X73084836Y-11378661D01*
X73084834Y-11378662D01*
X72987264Y-11434994D01*
X72987258Y-11434998D01*
X72907598Y-11514658D01*
X72907594Y-11514664D01*
X72851261Y-11612235D01*
X72844095Y-11638980D01*
X72822100Y-11721066D01*
X72822100Y-11721068D01*
X72822100Y-11782897D01*
X72804507Y-11831235D01*
X72759958Y-11856955D01*
X72709300Y-11848022D01*
X72693726Y-11836071D01*
X70470595Y-9612941D01*
X70470585Y-9612928D01*
X70393258Y-9535601D01*
X70338057Y-9512737D01*
X70338055Y-9512736D01*
X70300306Y-9497099D01*
X70300305Y-9497099D01*
X70199695Y-9497099D01*
X70190943Y-9497099D01*
X70190935Y-9497100D01*
X66635903Y-9497100D01*
X66587565Y-9479507D01*
X66582729Y-9475074D01*
X63970595Y-6862941D01*
X63970585Y-6862928D01*
X63893258Y-6785601D01*
X63838806Y-6763047D01*
X63800305Y-6747099D01*
X63699695Y-6747099D01*
X63690943Y-6747099D01*
X63690935Y-6747100D01*
X57059065Y-6747100D01*
X57059057Y-6747099D01*
X57050305Y-6747099D01*
X56949695Y-6747099D01*
X56949694Y-6747099D01*
X56903218Y-6766350D01*
X56903217Y-6766349D01*
X56856744Y-6785599D01*
X56856743Y-6785600D01*
X56821172Y-6821171D01*
X56785601Y-6856743D01*
X56785600Y-6856744D01*
X54820246Y-8822100D01*
X54167272Y-9475074D01*
X54120652Y-9496814D01*
X54114098Y-9497100D01*
X53633391Y-9497100D01*
X53585053Y-9479507D01*
X53580217Y-9475074D01*
X53512741Y-9407598D01*
X53512735Y-9407594D01*
X53415164Y-9351261D01*
X53387955Y-9343970D01*
X53306334Y-9322100D01*
X53193666Y-9322100D01*
X53128368Y-9339596D01*
X53084835Y-9351261D01*
X52987264Y-9407594D01*
X52987258Y-9407598D01*
X52907598Y-9487258D01*
X52907594Y-9487264D01*
X52851261Y-9584835D01*
X52849234Y-9592401D01*
X52822100Y-9693666D01*
X50927900Y-9693666D01*
X50898739Y-9584837D01*
X50842405Y-9487263D01*
X50842403Y-9487261D01*
X50842401Y-9487258D01*
X50762741Y-9407598D01*
X50762735Y-9407594D01*
X50665164Y-9351261D01*
X50637955Y-9343970D01*
X50556334Y-9322100D01*
X50443666Y-9322100D01*
X50378368Y-9339596D01*
X50334835Y-9351261D01*
X50237264Y-9407594D01*
X50237258Y-9407598D01*
X50157598Y-9487258D01*
X50157594Y-9487264D01*
X50101261Y-9584835D01*
X50099234Y-9592401D01*
X50072100Y-9693666D01*
X47250000Y-9693666D01*
X47250000Y-3443666D01*
X48072100Y-3443666D01*
X48072100Y-3556334D01*
X48081565Y-3591657D01*
X48101261Y-3665164D01*
X48157594Y-3762735D01*
X48157598Y-3762741D01*
X48237258Y-3842401D01*
X48237261Y-3842403D01*
X48237263Y-3842405D01*
X48334837Y-3898739D01*
X48443666Y-3927900D01*
X48443669Y-3927900D01*
X48556331Y-3927900D01*
X48556334Y-3927900D01*
X48665163Y-3898739D01*
X48762737Y-3842405D01*
X48842405Y-3762737D01*
X48898739Y-3665163D01*
X48927900Y-3556334D01*
X48927900Y-3443666D01*
X48898739Y-3334837D01*
X48842405Y-3237263D01*
X48842403Y-3237261D01*
X48842401Y-3237258D01*
X48762741Y-3157598D01*
X48762735Y-3157594D01*
X48665164Y-3101261D01*
X48637955Y-3093970D01*
X48556334Y-3072100D01*
X48443666Y-3072100D01*
X48378368Y-3089596D01*
X48334835Y-3101261D01*
X48237264Y-3157594D01*
X48237258Y-3157598D01*
X48157598Y-3237258D01*
X48157594Y-3237264D01*
X48101261Y-3334835D01*
X48093839Y-3362535D01*
X48072100Y-3443666D01*
X47250000Y-3443666D01*
X47250000Y-2002680D01*
X47250192Y-1997315D01*
X47263124Y-1816500D01*
X47269973Y-1720728D01*
X47271500Y-1710114D01*
X47329871Y-1441788D01*
X47332888Y-1431508D01*
X47428861Y-1174194D01*
X47433313Y-1164449D01*
X47564916Y-923436D01*
X47570705Y-914426D01*
X47735287Y-694571D01*
X47742296Y-686483D01*
X47906255Y-522524D01*
X47952874Y-500786D01*
X47959428Y-500500D01*
X68860297Y-500500D01*
X68908635Y-518093D01*
G37*
%TD.AperFunction*%
%TA.AperFunction,Conductor*%
G36*
X70484714Y-21255221D02*
G01*
X70491396Y-21254043D01*
X70508312Y-21263809D01*
X70526675Y-21270493D01*
X70530068Y-21276370D01*
X70535944Y-21279763D01*
X70542625Y-21298119D01*
X70552395Y-21315042D01*
X70551216Y-21321725D01*
X70553537Y-21328101D01*
X70546854Y-21346458D01*
X70543462Y-21365700D01*
X70537785Y-21371376D01*
X70535943Y-21376438D01*
X70519341Y-21390368D01*
X70519421Y-21390471D01*
X70517063Y-21392279D01*
X70515937Y-21393224D01*
X70515634Y-21393399D01*
X70515509Y-21393472D01*
X70515506Y-21393474D01*
X70435846Y-21473134D01*
X70435842Y-21473140D01*
X70379509Y-21570710D01*
X70374523Y-21589317D01*
X70345016Y-21631452D01*
X70295328Y-21644764D01*
X70282423Y-21642488D01*
X70252342Y-21634428D01*
X70206334Y-21622100D01*
X70093666Y-21622100D01*
X70028368Y-21639596D01*
X69984835Y-21651261D01*
X69887264Y-21707594D01*
X69887258Y-21707598D01*
X69807598Y-21787258D01*
X69807594Y-21787264D01*
X69751261Y-21884835D01*
X69746919Y-21901040D01*
X69722100Y-21993666D01*
X69722100Y-22106334D01*
X69743970Y-22187955D01*
X69751261Y-22215164D01*
X69807594Y-22312735D01*
X69807598Y-22312741D01*
X69887258Y-22392401D01*
X69887261Y-22392403D01*
X69887263Y-22392405D01*
X69984837Y-22448739D01*
X70093666Y-22477900D01*
X70093669Y-22477900D01*
X70189098Y-22477900D01*
X70237436Y-22495493D01*
X70242272Y-22499926D01*
X73725074Y-25982728D01*
X73746814Y-26029348D01*
X73747100Y-26035902D01*
X73747100Y-31614097D01*
X73729507Y-31662435D01*
X73725074Y-31667271D01*
X72914371Y-32477974D01*
X72867751Y-32499714D01*
X72861197Y-32500000D01*
X72221354Y-32500000D01*
X72173016Y-32482407D01*
X72147296Y-32437858D01*
X72156229Y-32387200D01*
X72161694Y-32379021D01*
X72162406Y-32378090D01*
X72162410Y-32378087D01*
X72222036Y-32274813D01*
X72252900Y-32159625D01*
X72252900Y-32040375D01*
X72222036Y-31925187D01*
X72222035Y-31925185D01*
X72162410Y-31821912D01*
X72078087Y-31737589D01*
X71974813Y-31677964D01*
X71859625Y-31647100D01*
X71740375Y-31647100D01*
X71665095Y-31667271D01*
X71625186Y-31677964D01*
X71625185Y-31677964D01*
X71521912Y-31737589D01*
X71437589Y-31821912D01*
X71377964Y-31925185D01*
X71377964Y-31925186D01*
X71377964Y-31925187D01*
X71347100Y-32040375D01*
X71347100Y-32159625D01*
X71363636Y-32221339D01*
X71377964Y-32274813D01*
X71377964Y-32274814D01*
X71437589Y-32378086D01*
X71438306Y-32379021D01*
X71438519Y-32379698D01*
X71440054Y-32382356D01*
X71439464Y-32382696D01*
X71443712Y-32396167D01*
X71452704Y-32411742D01*
X71451240Y-32420043D01*
X71453774Y-32428080D01*
X71446893Y-32444691D01*
X71443771Y-32462400D01*
X71437315Y-32467817D01*
X71434090Y-32475604D01*
X71418139Y-32483907D01*
X71404366Y-32495465D01*
X71391621Y-32497712D01*
X71388462Y-32499357D01*
X71378646Y-32500000D01*
X71284026Y-32500000D01*
X71276655Y-32499638D01*
X71037919Y-32476124D01*
X71023461Y-32473248D01*
X70797455Y-32404690D01*
X70783835Y-32399048D01*
X70575548Y-32287716D01*
X70563291Y-32279526D01*
X70557549Y-32274814D01*
X70492386Y-32221336D01*
X70380725Y-32129698D01*
X70370301Y-32119274D01*
X70220473Y-31936708D01*
X70212285Y-31924455D01*
X70100951Y-31716164D01*
X70095309Y-31702544D01*
X70077736Y-31644615D01*
X70026750Y-31476536D01*
X70023875Y-31462080D01*
X70017636Y-31398738D01*
X70000362Y-31223345D01*
X70000000Y-31215974D01*
X70000000Y-27250000D01*
X69000000Y-26250000D01*
X68292893Y-26250000D01*
X67289202Y-26250000D01*
X67240864Y-26232407D01*
X67215144Y-26187858D01*
X67224077Y-26137200D01*
X67236028Y-26121626D01*
X67543255Y-25814399D01*
X68413986Y-24943666D01*
X71072100Y-24943666D01*
X71072100Y-25056334D01*
X71093970Y-25137955D01*
X71101261Y-25165164D01*
X71157594Y-25262735D01*
X71157598Y-25262741D01*
X71237258Y-25342401D01*
X71237261Y-25342403D01*
X71237263Y-25342405D01*
X71334837Y-25398739D01*
X71443666Y-25427900D01*
X71443669Y-25427900D01*
X71556331Y-25427900D01*
X71556334Y-25427900D01*
X71665163Y-25398739D01*
X71762737Y-25342405D01*
X71842405Y-25262737D01*
X71898739Y-25165163D01*
X71927900Y-25056334D01*
X71927900Y-24943666D01*
X71898739Y-24834837D01*
X71897450Y-24832605D01*
X71882282Y-24806332D01*
X71842405Y-24737263D01*
X71842403Y-24737261D01*
X71842401Y-24737258D01*
X71762741Y-24657598D01*
X71762735Y-24657594D01*
X71665164Y-24601261D01*
X71637955Y-24593970D01*
X71556334Y-24572100D01*
X71443666Y-24572100D01*
X71378949Y-24589441D01*
X71334835Y-24601261D01*
X71237264Y-24657594D01*
X71237258Y-24657598D01*
X71157598Y-24737258D01*
X71157594Y-24737264D01*
X71101261Y-24834835D01*
X71091403Y-24871626D01*
X71072100Y-24943666D01*
X68413986Y-24943666D01*
X68636023Y-24721629D01*
X68636036Y-24721620D01*
X68714398Y-24643258D01*
X68714399Y-24643257D01*
X68738597Y-24584837D01*
X68752901Y-24550305D01*
X68752901Y-24449695D01*
X68752901Y-24443640D01*
X68752900Y-24443626D01*
X68752900Y-22418746D01*
X68770493Y-22370408D01*
X68774926Y-22365572D01*
X68862410Y-22278087D01*
X68881207Y-22245530D01*
X68922036Y-22174813D01*
X68952900Y-22059625D01*
X68952900Y-21940375D01*
X68922036Y-21825187D01*
X68922035Y-21825185D01*
X68862410Y-21721912D01*
X68802250Y-21661752D01*
X68780510Y-21615132D01*
X68793824Y-21565445D01*
X68802250Y-21555404D01*
X69082728Y-21274926D01*
X69129348Y-21253186D01*
X69135902Y-21252900D01*
X70478337Y-21252900D01*
X70484714Y-21255221D01*
G37*
%TD.AperFunction*%
%TA.AperFunction,Conductor*%
G36*
X73790033Y-17905501D02*
G01*
X73819538Y-17947638D01*
X73822100Y-17967101D01*
X73822100Y-18056334D01*
X73839937Y-18122902D01*
X73851261Y-18165164D01*
X73907594Y-18262735D01*
X73907598Y-18262741D01*
X73987258Y-18342401D01*
X73987261Y-18342403D01*
X73987263Y-18342405D01*
X74084837Y-18398739D01*
X74193666Y-18427900D01*
X74193669Y-18427900D01*
X74306331Y-18427900D01*
X74306334Y-18427900D01*
X74415163Y-18398739D01*
X74476723Y-18363197D01*
X74527379Y-18354265D01*
X74567495Y-18375149D01*
X75711116Y-19518770D01*
X75732856Y-19565390D01*
X75719542Y-19615077D01*
X75677405Y-19644582D01*
X75657914Y-19647144D01*
X75650406Y-19647141D01*
X75650305Y-19647099D01*
X75549695Y-19647099D01*
X75549693Y-19647100D01*
X74759065Y-19647100D01*
X74759057Y-19647099D01*
X74750305Y-19647099D01*
X74649695Y-19647099D01*
X74649693Y-19647099D01*
X74611192Y-19663047D01*
X74611191Y-19663046D01*
X74556744Y-19685599D01*
X74556740Y-19685602D01*
X74482974Y-19759369D01*
X74482964Y-19759380D01*
X73517272Y-20725074D01*
X73470652Y-20746814D01*
X73464098Y-20747100D01*
X71965864Y-20747100D01*
X71917526Y-20729507D01*
X71891806Y-20684958D01*
X71899150Y-20643269D01*
X71896853Y-20642318D01*
X71898737Y-20637769D01*
X71901138Y-20628810D01*
X71927900Y-20528934D01*
X71927900Y-20416266D01*
X71898739Y-20307437D01*
X71842405Y-20209863D01*
X71842403Y-20209861D01*
X71842401Y-20209858D01*
X71793033Y-20160490D01*
X71783470Y-20139983D01*
X71772149Y-20120374D01*
X71772746Y-20116986D01*
X71771293Y-20113870D01*
X71777150Y-20092008D01*
X71781082Y-20069716D01*
X71783716Y-20067505D01*
X71784607Y-20064183D01*
X71803147Y-20051200D01*
X71820487Y-20036651D01*
X71825083Y-20035840D01*
X71826744Y-20034678D01*
X71846207Y-20032116D01*
X71911719Y-20032116D01*
X71911727Y-20032117D01*
X71920479Y-20032117D01*
X72021090Y-20032117D01*
X72059590Y-20016168D01*
X72114041Y-19993615D01*
X72185183Y-19922473D01*
X72192404Y-19915252D01*
X72192413Y-19915239D01*
X72643255Y-19464399D01*
X72643257Y-19464399D01*
X72714399Y-19393257D01*
X72742003Y-19326614D01*
X72752901Y-19300305D01*
X72752901Y-19199695D01*
X72752901Y-19193640D01*
X72752900Y-19193626D01*
X72752900Y-18885901D01*
X72770493Y-18837563D01*
X72774915Y-18832738D01*
X73693727Y-17913926D01*
X73740346Y-17892187D01*
X73790033Y-17905501D01*
G37*
%TD.AperFunction*%
%TA.AperFunction,Conductor*%
G36*
X78130748Y-1017093D02*
G01*
X78156468Y-1061642D01*
X78156165Y-1089372D01*
X78147100Y-1134942D01*
X78147100Y-2265054D01*
X78153833Y-2298905D01*
X78146006Y-2349746D01*
X78133251Y-2366747D01*
X76272026Y-4227974D01*
X76225406Y-4249714D01*
X76218852Y-4250000D01*
X74874865Y-4250000D01*
X74826527Y-4232407D01*
X74800807Y-4187858D01*
X74809740Y-4137200D01*
X74821691Y-4121626D01*
X74878998Y-4064318D01*
X74878999Y-4064317D01*
X74879004Y-4064312D01*
X74988759Y-3900051D01*
X75064359Y-3717535D01*
X75102900Y-3523777D01*
X75102900Y-3076223D01*
X75064359Y-2882465D01*
X74988759Y-2699949D01*
X74879004Y-2535688D01*
X74879001Y-2535685D01*
X74878999Y-2535682D01*
X74739317Y-2396000D01*
X74739313Y-2395997D01*
X74739312Y-2395996D01*
X74575051Y-2286241D01*
X74575049Y-2286240D01*
X74392538Y-2210642D01*
X74392537Y-2210641D01*
X74198778Y-2172100D01*
X74198777Y-2172100D01*
X74001223Y-2172100D01*
X74001222Y-2172100D01*
X73807462Y-2210641D01*
X73807461Y-2210642D01*
X73624950Y-2286240D01*
X73460682Y-2396000D01*
X73321000Y-2535682D01*
X73211240Y-2699950D01*
X73135642Y-2882461D01*
X73135641Y-2882462D01*
X73097100Y-3076222D01*
X73097100Y-3523777D01*
X73135641Y-3717537D01*
X73135642Y-3717538D01*
X73211240Y-3900049D01*
X73211241Y-3900051D01*
X73320996Y-4064312D01*
X73320997Y-4064313D01*
X73321000Y-4064317D01*
X73378309Y-4121626D01*
X73400049Y-4168246D01*
X73386735Y-4217933D01*
X73344598Y-4247438D01*
X73325135Y-4250000D01*
X72374865Y-4250000D01*
X72326527Y-4232407D01*
X72300807Y-4187858D01*
X72309740Y-4137200D01*
X72321691Y-4121626D01*
X72378998Y-4064318D01*
X72378999Y-4064317D01*
X72379004Y-4064312D01*
X72488759Y-3900051D01*
X72564359Y-3717535D01*
X72602900Y-3523777D01*
X72602900Y-3076223D01*
X72564359Y-2882465D01*
X72488759Y-2699949D01*
X72379004Y-2535688D01*
X72379001Y-2535685D01*
X72378999Y-2535682D01*
X72239317Y-2396000D01*
X72239313Y-2395997D01*
X72239312Y-2395996D01*
X72075051Y-2286241D01*
X72075049Y-2286240D01*
X71892538Y-2210642D01*
X71892537Y-2210641D01*
X71698778Y-2172100D01*
X71698777Y-2172100D01*
X71501223Y-2172100D01*
X71501222Y-2172100D01*
X71307462Y-2210641D01*
X71307461Y-2210642D01*
X71124950Y-2286240D01*
X70960682Y-2396000D01*
X70821000Y-2535682D01*
X70711240Y-2699950D01*
X70635642Y-2882461D01*
X70635641Y-2882462D01*
X70597100Y-3076222D01*
X70597100Y-3523777D01*
X70635641Y-3717537D01*
X70635642Y-3717538D01*
X70711240Y-3900049D01*
X70711241Y-3900051D01*
X70820996Y-4064312D01*
X70820997Y-4064313D01*
X70821000Y-4064317D01*
X70878309Y-4121626D01*
X70900049Y-4168246D01*
X70886735Y-4217933D01*
X70844598Y-4247438D01*
X70825135Y-4250000D01*
X69874865Y-4250000D01*
X69826527Y-4232407D01*
X69800807Y-4187858D01*
X69809740Y-4137200D01*
X69821691Y-4121626D01*
X69878998Y-4064318D01*
X69878999Y-4064317D01*
X69879004Y-4064312D01*
X69988759Y-3900051D01*
X70064359Y-3717535D01*
X70102900Y-3523777D01*
X70102900Y-3076223D01*
X70064359Y-2882465D01*
X69988759Y-2699949D01*
X69879004Y-2535688D01*
X69879001Y-2535685D01*
X69878999Y-2535682D01*
X69739317Y-2396000D01*
X69739313Y-2395997D01*
X69739312Y-2395996D01*
X69575051Y-2286241D01*
X69575049Y-2286240D01*
X69392538Y-2210642D01*
X69392537Y-2210641D01*
X69198778Y-2172100D01*
X69198777Y-2172100D01*
X69001223Y-2172100D01*
X69001222Y-2172100D01*
X68807462Y-2210641D01*
X68807461Y-2210642D01*
X68624950Y-2286240D01*
X68460682Y-2396000D01*
X68321000Y-2535682D01*
X68211240Y-2699950D01*
X68135642Y-2882461D01*
X68135641Y-2882462D01*
X68097100Y-3076222D01*
X68097100Y-3523777D01*
X68135641Y-3717537D01*
X68135642Y-3717538D01*
X68211240Y-3900049D01*
X68211241Y-3900051D01*
X68320996Y-4064312D01*
X68320997Y-4064313D01*
X68321000Y-4064317D01*
X68378309Y-4121626D01*
X68400049Y-4168246D01*
X68386735Y-4217933D01*
X68344598Y-4247438D01*
X68325135Y-4250000D01*
X67374865Y-4250000D01*
X67326527Y-4232407D01*
X67300807Y-4187858D01*
X67309740Y-4137200D01*
X67321691Y-4121626D01*
X67378998Y-4064318D01*
X67378999Y-4064317D01*
X67379004Y-4064312D01*
X67488759Y-3900051D01*
X67564359Y-3717535D01*
X67602900Y-3523777D01*
X67602900Y-3076223D01*
X67564359Y-2882465D01*
X67528179Y-2795121D01*
X67525937Y-2743731D01*
X67544480Y-2713172D01*
X69236128Y-1021526D01*
X69282748Y-999786D01*
X69289302Y-999500D01*
X78082410Y-999500D01*
X78130748Y-1017093D01*
G37*
%TD.AperFunction*%
%TD*%
%TA.AperFunction,Conductor*%
%TO.N,/excimerDriver/VDC_power*%
G36*
X93515677Y-30019685D02*
G01*
X93536319Y-30036319D01*
X93963681Y-30463681D01*
X93997166Y-30525004D01*
X94000000Y-30551362D01*
X94000000Y-31448638D01*
X93980315Y-31515677D01*
X93963681Y-31536319D01*
X93536319Y-31963681D01*
X93474996Y-31997166D01*
X93448638Y-32000000D01*
X90499999Y-32000000D01*
X89500000Y-32999999D01*
X89500000Y-38948638D01*
X89480315Y-39015677D01*
X89463681Y-39036319D01*
X89036819Y-39463181D01*
X88975496Y-39496666D01*
X88949138Y-39499500D01*
X32050862Y-39499500D01*
X31983823Y-39479815D01*
X31963181Y-39463181D01*
X31036319Y-38536319D01*
X31002834Y-38474996D01*
X31000000Y-38448638D01*
X31000000Y-34801362D01*
X31019685Y-34734323D01*
X31036319Y-34713681D01*
X31963681Y-33786319D01*
X32025004Y-33752834D01*
X32051362Y-33750000D01*
X34698638Y-33750000D01*
X34765677Y-33769685D01*
X34786319Y-33786319D01*
X37500000Y-36500000D01*
X55932242Y-36500000D01*
X55934108Y-36500500D01*
X56065892Y-36500500D01*
X56067758Y-36500000D01*
X57672184Y-36500000D01*
X57679813Y-36500500D01*
X57684108Y-36500500D01*
X57820187Y-36500500D01*
X57827816Y-36500000D01*
X59182242Y-36500000D01*
X59184108Y-36500500D01*
X59315892Y-36500500D01*
X59317758Y-36500000D01*
X63397839Y-36500000D01*
X63464878Y-36519685D01*
X63510633Y-36572489D01*
X63520577Y-36641647D01*
X63507543Y-36679302D01*
X63507805Y-36679411D01*
X63505983Y-36683808D01*
X63505224Y-36686003D01*
X63504695Y-36686918D01*
X63504694Y-36686919D01*
X63487363Y-36751599D01*
X63472289Y-36807856D01*
X63472289Y-36933058D01*
X63504694Y-37053993D01*
X63567294Y-37162421D01*
X63655825Y-37250952D01*
X63764253Y-37313552D01*
X63885188Y-37345957D01*
X63885190Y-37345957D01*
X64010388Y-37345957D01*
X64010390Y-37345957D01*
X64131325Y-37313552D01*
X64239753Y-37250952D01*
X64328284Y-37162421D01*
X64390884Y-37053993D01*
X64423289Y-36933058D01*
X64423289Y-36871290D01*
X64442974Y-36804251D01*
X64459608Y-36783609D01*
X64706898Y-36536319D01*
X64768221Y-36502834D01*
X64794579Y-36500000D01*
X86500000Y-36500000D01*
X87000000Y-36000000D01*
X87000000Y-32938464D01*
X87019685Y-32871425D01*
X87036319Y-32850783D01*
X87625753Y-32261349D01*
X88360489Y-31526614D01*
X88361677Y-31524555D01*
X88394731Y-31467306D01*
X88419797Y-31423889D01*
X88419799Y-31423886D01*
X88445491Y-31328000D01*
X88477582Y-31272417D01*
X89713681Y-30036319D01*
X89775004Y-30002834D01*
X89801362Y-30000000D01*
X93448638Y-30000000D01*
X93515677Y-30019685D01*
G37*
%TD.AperFunction*%
%TD*%
%TA.AperFunction,Conductor*%
%TO.N,/excimerDriver/lampDriver/VDC_Trafo*%
G36*
X17241948Y-27269685D02*
G01*
X17267785Y-27291841D01*
X22980772Y-33750000D01*
X29198638Y-33750000D01*
X29265677Y-33769685D01*
X29286319Y-33786319D01*
X30213681Y-34713681D01*
X30247166Y-34775004D01*
X30250000Y-34801362D01*
X30250000Y-38448638D01*
X30230315Y-38515677D01*
X30213681Y-38536319D01*
X29286819Y-39463181D01*
X29225496Y-39496666D01*
X29199138Y-39499500D01*
X13550862Y-39499500D01*
X13483823Y-39479815D01*
X13463181Y-39463181D01*
X12036319Y-38036319D01*
X12002834Y-37974996D01*
X12000000Y-37948638D01*
X12000000Y-36437399D01*
X18324500Y-36437399D01*
X18324500Y-36562601D01*
X18356905Y-36683536D01*
X18419505Y-36791964D01*
X18508036Y-36880495D01*
X18616464Y-36943095D01*
X18737399Y-36975500D01*
X18737401Y-36975500D01*
X18862599Y-36975500D01*
X18862601Y-36975500D01*
X18983536Y-36943095D01*
X19091964Y-36880495D01*
X19180495Y-36791964D01*
X19192612Y-36770975D01*
X19243179Y-36722760D01*
X19311786Y-36709536D01*
X19376651Y-36735504D01*
X19407388Y-36770976D01*
X19419503Y-36791962D01*
X19419505Y-36791964D01*
X19508036Y-36880495D01*
X19616464Y-36943095D01*
X19737399Y-36975500D01*
X19737401Y-36975500D01*
X19862599Y-36975500D01*
X19862601Y-36975500D01*
X19983536Y-36943095D01*
X20091964Y-36880495D01*
X20180495Y-36791964D01*
X20192612Y-36770975D01*
X20243179Y-36722760D01*
X20311786Y-36709536D01*
X20376651Y-36735504D01*
X20407388Y-36770976D01*
X20419503Y-36791962D01*
X20419505Y-36791964D01*
X20508036Y-36880495D01*
X20616464Y-36943095D01*
X20737399Y-36975500D01*
X20737401Y-36975500D01*
X20862599Y-36975500D01*
X20862601Y-36975500D01*
X20983536Y-36943095D01*
X21091964Y-36880495D01*
X21180495Y-36791964D01*
X21192612Y-36770975D01*
X21243179Y-36722760D01*
X21311786Y-36709536D01*
X21376651Y-36735504D01*
X21407388Y-36770976D01*
X21419503Y-36791962D01*
X21419505Y-36791964D01*
X21508036Y-36880495D01*
X21616464Y-36943095D01*
X21737399Y-36975500D01*
X21737401Y-36975500D01*
X21862599Y-36975500D01*
X21862601Y-36975500D01*
X21983536Y-36943095D01*
X22091964Y-36880495D01*
X22180495Y-36791964D01*
X22192612Y-36770975D01*
X22243179Y-36722760D01*
X22311786Y-36709536D01*
X22376651Y-36735504D01*
X22407388Y-36770976D01*
X22419503Y-36791962D01*
X22419505Y-36791964D01*
X22508036Y-36880495D01*
X22616464Y-36943095D01*
X22737399Y-36975500D01*
X22737401Y-36975500D01*
X22862599Y-36975500D01*
X22862601Y-36975500D01*
X22983536Y-36943095D01*
X23091964Y-36880495D01*
X23180495Y-36791964D01*
X23192612Y-36770975D01*
X23243179Y-36722760D01*
X23311786Y-36709536D01*
X23376651Y-36735504D01*
X23407388Y-36770976D01*
X23419503Y-36791962D01*
X23419505Y-36791964D01*
X23508036Y-36880495D01*
X23616464Y-36943095D01*
X23737399Y-36975500D01*
X23737401Y-36975500D01*
X23862599Y-36975500D01*
X23862601Y-36975500D01*
X23983536Y-36943095D01*
X24091964Y-36880495D01*
X24180495Y-36791964D01*
X24192612Y-36770975D01*
X24243179Y-36722760D01*
X24311786Y-36709536D01*
X24376651Y-36735504D01*
X24407388Y-36770976D01*
X24419503Y-36791962D01*
X24419505Y-36791964D01*
X24508036Y-36880495D01*
X24616464Y-36943095D01*
X24737399Y-36975500D01*
X24737401Y-36975500D01*
X24862599Y-36975500D01*
X24862601Y-36975500D01*
X24983536Y-36943095D01*
X25091964Y-36880495D01*
X25180495Y-36791964D01*
X25192612Y-36770975D01*
X25243179Y-36722760D01*
X25311786Y-36709536D01*
X25376651Y-36735504D01*
X25407388Y-36770976D01*
X25419503Y-36791962D01*
X25419505Y-36791964D01*
X25508036Y-36880495D01*
X25616464Y-36943095D01*
X25737399Y-36975500D01*
X25737401Y-36975500D01*
X25862599Y-36975500D01*
X25862601Y-36975500D01*
X25983536Y-36943095D01*
X26091964Y-36880495D01*
X26180495Y-36791964D01*
X26243095Y-36683536D01*
X26275500Y-36562601D01*
X26275500Y-36437399D01*
X26243095Y-36316464D01*
X26180495Y-36208036D01*
X26091964Y-36119505D01*
X25983536Y-36056905D01*
X25983537Y-36056905D01*
X25943224Y-36046103D01*
X25862601Y-36024500D01*
X25737399Y-36024500D01*
X25656775Y-36046103D01*
X25616463Y-36056905D01*
X25508037Y-36119504D01*
X25508034Y-36119506D01*
X25419504Y-36208036D01*
X25407387Y-36229025D01*
X25356820Y-36277240D01*
X25288212Y-36290462D01*
X25223348Y-36264494D01*
X25192613Y-36229025D01*
X25180495Y-36208036D01*
X25091965Y-36119506D01*
X25091964Y-36119505D01*
X24983536Y-36056905D01*
X24983537Y-36056905D01*
X24943224Y-36046103D01*
X24862601Y-36024500D01*
X24737399Y-36024500D01*
X24656775Y-36046103D01*
X24616463Y-36056905D01*
X24508037Y-36119504D01*
X24508034Y-36119506D01*
X24419504Y-36208036D01*
X24407387Y-36229025D01*
X24356820Y-36277240D01*
X24288212Y-36290462D01*
X24223348Y-36264494D01*
X24192613Y-36229025D01*
X24180495Y-36208036D01*
X24091965Y-36119506D01*
X24091964Y-36119505D01*
X23983536Y-36056905D01*
X23983537Y-36056905D01*
X23943224Y-36046103D01*
X23862601Y-36024500D01*
X23737399Y-36024500D01*
X23656775Y-36046103D01*
X23616463Y-36056905D01*
X23508037Y-36119504D01*
X23508034Y-36119506D01*
X23419504Y-36208036D01*
X23407387Y-36229025D01*
X23356820Y-36277240D01*
X23288212Y-36290462D01*
X23223348Y-36264494D01*
X23192613Y-36229025D01*
X23180495Y-36208036D01*
X23091965Y-36119506D01*
X23091964Y-36119505D01*
X22983536Y-36056905D01*
X22983537Y-36056905D01*
X22943224Y-36046103D01*
X22862601Y-36024500D01*
X22737399Y-36024500D01*
X22656775Y-36046103D01*
X22616463Y-36056905D01*
X22508037Y-36119504D01*
X22508034Y-36119506D01*
X22419504Y-36208036D01*
X22407387Y-36229025D01*
X22356820Y-36277240D01*
X22288212Y-36290462D01*
X22223348Y-36264494D01*
X22192613Y-36229025D01*
X22180495Y-36208036D01*
X22091965Y-36119506D01*
X22091964Y-36119505D01*
X21983536Y-36056905D01*
X21983537Y-36056905D01*
X21943224Y-36046103D01*
X21862601Y-36024500D01*
X21737399Y-36024500D01*
X21656775Y-36046103D01*
X21616463Y-36056905D01*
X21508037Y-36119504D01*
X21508034Y-36119506D01*
X21419504Y-36208036D01*
X21407387Y-36229025D01*
X21356820Y-36277240D01*
X21288212Y-36290462D01*
X21223348Y-36264494D01*
X21192613Y-36229025D01*
X21180495Y-36208036D01*
X21091965Y-36119506D01*
X21091964Y-36119505D01*
X20983536Y-36056905D01*
X20983537Y-36056905D01*
X20943224Y-36046103D01*
X20862601Y-36024500D01*
X20737399Y-36024500D01*
X20656775Y-36046103D01*
X20616463Y-36056905D01*
X20508037Y-36119504D01*
X20508034Y-36119506D01*
X20419504Y-36208036D01*
X20407387Y-36229025D01*
X20356820Y-36277240D01*
X20288212Y-36290462D01*
X20223348Y-36264494D01*
X20192613Y-36229025D01*
X20180495Y-36208036D01*
X20091965Y-36119506D01*
X20091964Y-36119505D01*
X19983536Y-36056905D01*
X19983537Y-36056905D01*
X19943224Y-36046103D01*
X19862601Y-36024500D01*
X19737399Y-36024500D01*
X19656775Y-36046103D01*
X19616463Y-36056905D01*
X19508037Y-36119504D01*
X19508034Y-36119506D01*
X19419504Y-36208036D01*
X19407387Y-36229025D01*
X19356820Y-36277240D01*
X19288212Y-36290462D01*
X19223348Y-36264494D01*
X19192613Y-36229025D01*
X19180495Y-36208036D01*
X19091965Y-36119506D01*
X19091964Y-36119505D01*
X18983536Y-36056905D01*
X18983537Y-36056905D01*
X18943224Y-36046103D01*
X18862601Y-36024500D01*
X18737399Y-36024500D01*
X18656775Y-36046103D01*
X18616463Y-36056905D01*
X18508037Y-36119504D01*
X18508034Y-36119506D01*
X18419506Y-36208034D01*
X18419504Y-36208037D01*
X18356905Y-36316463D01*
X18356905Y-36316464D01*
X18324500Y-36437399D01*
X12000000Y-36437399D01*
X12000000Y-29780964D01*
X13287500Y-29780964D01*
X13287500Y-30019035D01*
X13324743Y-30254179D01*
X13398309Y-30480596D01*
X13398310Y-30480599D01*
X13506394Y-30692723D01*
X13568391Y-30778053D01*
X13568392Y-30778054D01*
X14027546Y-30318899D01*
X14120343Y-30457780D01*
X14242220Y-30579657D01*
X14381099Y-30672453D01*
X13921944Y-31131607D01*
X13921945Y-31131608D01*
X14007271Y-31193601D01*
X14007284Y-31193609D01*
X14219400Y-31301689D01*
X14219403Y-31301690D01*
X14445820Y-31375256D01*
X14680965Y-31412500D01*
X14919035Y-31412500D01*
X15154179Y-31375256D01*
X15380596Y-31301690D01*
X15380599Y-31301689D01*
X15592723Y-31193605D01*
X15678053Y-31131607D01*
X15218899Y-30672453D01*
X15357780Y-30579657D01*
X15479657Y-30457780D01*
X15572453Y-30318899D01*
X16031607Y-30778053D01*
X16093605Y-30692723D01*
X16201689Y-30480599D01*
X16201690Y-30480596D01*
X16275256Y-30254179D01*
X16312500Y-30019035D01*
X16312500Y-29780964D01*
X16275256Y-29545820D01*
X16201690Y-29319403D01*
X16201689Y-29319400D01*
X16093609Y-29107284D01*
X16093601Y-29107271D01*
X16031608Y-29021945D01*
X16031607Y-29021944D01*
X15572452Y-29481099D01*
X15479657Y-29342220D01*
X15357780Y-29220343D01*
X15218900Y-29127546D01*
X15678054Y-28668392D01*
X15678053Y-28668391D01*
X15592723Y-28606394D01*
X15380599Y-28498310D01*
X15380596Y-28498309D01*
X15154179Y-28424743D01*
X14919035Y-28387500D01*
X14680965Y-28387500D01*
X14445820Y-28424743D01*
X14219403Y-28498309D01*
X14219400Y-28498310D01*
X14007273Y-28606396D01*
X13921945Y-28668390D01*
X13921944Y-28668391D01*
X14381099Y-29127546D01*
X14242220Y-29220343D01*
X14120343Y-29342220D01*
X14027546Y-29481099D01*
X13568391Y-29021944D01*
X13568390Y-29021945D01*
X13506396Y-29107273D01*
X13398310Y-29319400D01*
X13398309Y-29319403D01*
X13324743Y-29545820D01*
X13287500Y-29780964D01*
X12000000Y-29780964D01*
X12000000Y-28607424D01*
X12019685Y-28540385D01*
X12034359Y-28521747D01*
X13213373Y-27288318D01*
X13273925Y-27253459D01*
X13303009Y-27250000D01*
X17174909Y-27250000D01*
X17241948Y-27269685D01*
G37*
%TD.AperFunction*%
%TD*%
%TA.AperFunction,Conductor*%
%TO.N,GND*%
G36*
X97330667Y-3473694D02*
G01*
X97389910Y-3576306D01*
X97473694Y-3660090D01*
X97576306Y-3719333D01*
X97661414Y-3742137D01*
X97240979Y-4162572D01*
X97276328Y-4186192D01*
X97458306Y-4261569D01*
X97458318Y-4261572D01*
X97651504Y-4299999D01*
X97651508Y-4300000D01*
X97848492Y-4300000D01*
X97848495Y-4299999D01*
X98041681Y-4261572D01*
X98041693Y-4261569D01*
X98223676Y-4186190D01*
X98223680Y-4186187D01*
X98259019Y-4162573D01*
X98259020Y-4162572D01*
X97838585Y-3742137D01*
X97923694Y-3719333D01*
X98026306Y-3660090D01*
X98110090Y-3576306D01*
X98169333Y-3473694D01*
X98192138Y-3388584D01*
X98563181Y-3759627D01*
X98596666Y-3820950D01*
X98599500Y-3847308D01*
X98599500Y-4264312D01*
X98637212Y-4791582D01*
X98712442Y-5314823D01*
X98747166Y-5474442D01*
X98747166Y-5474444D01*
X98750000Y-5487472D01*
X98750000Y-5500000D01*
X98753482Y-5503482D01*
X98758097Y-5524696D01*
X98758098Y-5524699D01*
X98824805Y-5831351D01*
X98824808Y-5831361D01*
X98973736Y-6338562D01*
X99158476Y-6833867D01*
X99378060Y-7314691D01*
X99378064Y-7314698D01*
X99631405Y-7778658D01*
X99631413Y-7778671D01*
X99917186Y-8223343D01*
X99917202Y-8223367D01*
X100233982Y-8646537D01*
X100438588Y-8882663D01*
X100580162Y-9046048D01*
X100953952Y-9419838D01*
X101118894Y-9562761D01*
X101353447Y-9766004D01*
X101353454Y-9766009D01*
X101353455Y-9766010D01*
X101450312Y-9838516D01*
X101492181Y-9894447D01*
X101500000Y-9937781D01*
X101500000Y-29750000D01*
X98750000Y-32750000D01*
X98750000Y-30135498D01*
X98755809Y-30144192D01*
X98821965Y-30188396D01*
X98821966Y-30188397D01*
X98880297Y-30199999D01*
X98880301Y-30200000D01*
X99650000Y-30200000D01*
X99650000Y-29433012D01*
X99707007Y-29465925D01*
X99834174Y-29500000D01*
X99965826Y-29500000D01*
X100092993Y-29465925D01*
X100150000Y-29433012D01*
X100150000Y-30200000D01*
X100919699Y-30200000D01*
X100919702Y-30199999D01*
X100978033Y-30188397D01*
X100978034Y-30188396D01*
X101044191Y-30144191D01*
X101088396Y-30078034D01*
X101088397Y-30078033D01*
X101099999Y-30019702D01*
X101100000Y-30019699D01*
X101100000Y-29250000D01*
X100333012Y-29250000D01*
X100365925Y-29192993D01*
X100400000Y-29065826D01*
X100400000Y-28934174D01*
X100365925Y-28807007D01*
X100333012Y-28750000D01*
X101100000Y-28750000D01*
X101100000Y-27980301D01*
X101099999Y-27980297D01*
X101088397Y-27921966D01*
X101088396Y-27921965D01*
X101044191Y-27855808D01*
X100978034Y-27811603D01*
X100978033Y-27811602D01*
X100919702Y-27800000D01*
X100150000Y-27800000D01*
X100150000Y-28566988D01*
X100092993Y-28534075D01*
X99965826Y-28500000D01*
X99834174Y-28500000D01*
X99707007Y-28534075D01*
X99650000Y-28566988D01*
X99650000Y-27800000D01*
X98880297Y-27800000D01*
X98821966Y-27811602D01*
X98821965Y-27811603D01*
X98755808Y-27855808D01*
X98711603Y-27921965D01*
X98711602Y-27921966D01*
X98705026Y-27955026D01*
X91250000Y-20500000D01*
X88750000Y-18000000D01*
X88750000Y-17999999D01*
X87797202Y-17047202D01*
X87789030Y-17038186D01*
X87676277Y-16900797D01*
X87662772Y-16880585D01*
X87581877Y-16729240D01*
X87572575Y-16706785D01*
X87522758Y-16542558D01*
X87518018Y-16518728D01*
X87500597Y-16341847D01*
X87500000Y-16329693D01*
X87500000Y-15651504D01*
X87750000Y-15651504D01*
X87750000Y-15848495D01*
X87788427Y-16041681D01*
X87788430Y-16041693D01*
X87863808Y-16223673D01*
X87863809Y-16223675D01*
X87887425Y-16259019D01*
X88350000Y-15796445D01*
X88350000Y-15802661D01*
X88377259Y-15904394D01*
X88429920Y-15995606D01*
X88504394Y-16070080D01*
X88595606Y-16122741D01*
X88697339Y-16150000D01*
X88703553Y-16150000D01*
X88240979Y-16612572D01*
X88276328Y-16636192D01*
X88458306Y-16711569D01*
X88458318Y-16711572D01*
X88651504Y-16749999D01*
X88651508Y-16750000D01*
X88848492Y-16750000D01*
X88848495Y-16749999D01*
X89041681Y-16711572D01*
X89041693Y-16711569D01*
X89223676Y-16636190D01*
X89223680Y-16636187D01*
X89259019Y-16612573D01*
X89259020Y-16612572D01*
X88796448Y-16150000D01*
X88802661Y-16150000D01*
X88904394Y-16122741D01*
X88995606Y-16070080D01*
X89070080Y-15995606D01*
X89122741Y-15904394D01*
X89150000Y-15802661D01*
X89150000Y-15796447D01*
X89612572Y-16259020D01*
X89612573Y-16259019D01*
X89636187Y-16223680D01*
X89636190Y-16223676D01*
X89711569Y-16041693D01*
X89711572Y-16041681D01*
X89749999Y-15848495D01*
X89750000Y-15848492D01*
X89750000Y-15651508D01*
X89749999Y-15651504D01*
X89711572Y-15458318D01*
X89711569Y-15458306D01*
X89636192Y-15276328D01*
X89612572Y-15240979D01*
X89150000Y-15703551D01*
X89150000Y-15697339D01*
X89122741Y-15595606D01*
X89070080Y-15504394D01*
X88995606Y-15429920D01*
X88904394Y-15377259D01*
X88802661Y-15350000D01*
X88796447Y-15350000D01*
X89244311Y-14902135D01*
X90949500Y-14902135D01*
X90949500Y-16597870D01*
X90949501Y-16597876D01*
X90955908Y-16657483D01*
X91006202Y-16792328D01*
X91006206Y-16792335D01*
X91092452Y-16907544D01*
X91092455Y-16907547D01*
X91207664Y-16993793D01*
X91207671Y-16993797D01*
X91342517Y-17044091D01*
X91342516Y-17044091D01*
X91349444Y-17044835D01*
X91402127Y-17050500D01*
X93097872Y-17050499D01*
X93157483Y-17044091D01*
X93292331Y-16993796D01*
X93407546Y-16907546D01*
X93493796Y-16792331D01*
X93544091Y-16657483D01*
X93550500Y-16597873D01*
X93550499Y-14902128D01*
X93544091Y-14842517D01*
X93509584Y-14750000D01*
X93493797Y-14707671D01*
X93493793Y-14707664D01*
X93407547Y-14592455D01*
X93407544Y-14592452D01*
X93292335Y-14506206D01*
X93292328Y-14506202D01*
X93157482Y-14455908D01*
X93157483Y-14455908D01*
X93097883Y-14449501D01*
X93097881Y-14449500D01*
X93097873Y-14449500D01*
X93097864Y-14449500D01*
X91402129Y-14449500D01*
X91402123Y-14449501D01*
X91342516Y-14455908D01*
X91207671Y-14506202D01*
X91207664Y-14506206D01*
X91092455Y-14592452D01*
X91092452Y-14592455D01*
X91006206Y-14707664D01*
X91006202Y-14707671D01*
X90955908Y-14842517D01*
X90949501Y-14902116D01*
X90949501Y-14902123D01*
X90949500Y-14902135D01*
X89244311Y-14902135D01*
X89259020Y-14887426D01*
X89223675Y-14863809D01*
X89223673Y-14863808D01*
X89041693Y-14788430D01*
X89041681Y-14788427D01*
X88848495Y-14750000D01*
X88651504Y-14750000D01*
X88458318Y-14788427D01*
X88458310Y-14788429D01*
X88276325Y-14863809D01*
X88276318Y-14863813D01*
X88240979Y-14887426D01*
X88240978Y-14887426D01*
X88703554Y-15350000D01*
X88697339Y-15350000D01*
X88595606Y-15377259D01*
X88504394Y-15429920D01*
X88429920Y-15504394D01*
X88377259Y-15595606D01*
X88350000Y-15697339D01*
X88350000Y-15703552D01*
X87887426Y-15240978D01*
X87887426Y-15240979D01*
X87863813Y-15276318D01*
X87863809Y-15276325D01*
X87788429Y-15458310D01*
X87788427Y-15458318D01*
X87750000Y-15651504D01*
X87500000Y-15651504D01*
X87500000Y-15170306D01*
X87500597Y-15158152D01*
X87518018Y-14981269D01*
X87522757Y-14957443D01*
X87572577Y-14793207D01*
X87581875Y-14770762D01*
X87662775Y-14619408D01*
X87676272Y-14599208D01*
X87789039Y-14461802D01*
X87797192Y-14452807D01*
X90207107Y-12042893D01*
X90500000Y-11750000D01*
X90500000Y-10423615D01*
X94224500Y-10423615D01*
X94224500Y-10576384D01*
X94254300Y-10726197D01*
X94254302Y-10726205D01*
X94312759Y-10867334D01*
X94312764Y-10867343D01*
X94397629Y-10994351D01*
X94397632Y-10994355D01*
X94505644Y-11102367D01*
X94505648Y-11102370D01*
X94632656Y-11187235D01*
X94632662Y-11187238D01*
X94632663Y-11187239D01*
X94773795Y-11245698D01*
X94914179Y-11273622D01*
X94923615Y-11275499D01*
X94923619Y-11275500D01*
X94923620Y-11275500D01*
X95076381Y-11275500D01*
X95076382Y-11275499D01*
X95226205Y-11245698D01*
X95367337Y-11187239D01*
X95494352Y-11102370D01*
X95602370Y-10994352D01*
X95687239Y-10867337D01*
X95745698Y-10726205D01*
X95775500Y-10576380D01*
X95775500Y-10423620D01*
X95745698Y-10273795D01*
X95687239Y-10132663D01*
X95687238Y-10132662D01*
X95687235Y-10132656D01*
X95602370Y-10005648D01*
X95602367Y-10005644D01*
X95494355Y-9897632D01*
X95494351Y-9897629D01*
X95367343Y-9812764D01*
X95367334Y-9812759D01*
X95226205Y-9754302D01*
X95226197Y-9754300D01*
X95076384Y-9724500D01*
X95076380Y-9724500D01*
X94923620Y-9724500D01*
X94923615Y-9724500D01*
X94773802Y-9754300D01*
X94773794Y-9754302D01*
X94632665Y-9812759D01*
X94632656Y-9812764D01*
X94505648Y-9897629D01*
X94505644Y-9897632D01*
X94397632Y-10005644D01*
X94397629Y-10005648D01*
X94312764Y-10132656D01*
X94312759Y-10132665D01*
X94254302Y-10273794D01*
X94254300Y-10273802D01*
X94224500Y-10423615D01*
X90500000Y-10423615D01*
X90500000Y-4724499D01*
X90519685Y-4657460D01*
X90572489Y-4611705D01*
X90623998Y-4600499D01*
X91097872Y-4600499D01*
X91157483Y-4594091D01*
X91292331Y-4543796D01*
X91407546Y-4457546D01*
X91493796Y-4342331D01*
X91544091Y-4207483D01*
X91545394Y-4201968D01*
X91579963Y-4141250D01*
X91641872Y-4108860D01*
X91711464Y-4115083D01*
X91753387Y-4144975D01*
X91754589Y-4143774D01*
X91902786Y-4291971D01*
X92057749Y-4404556D01*
X92068390Y-4412287D01*
X92157212Y-4457544D01*
X92250776Y-4505218D01*
X92250778Y-4505218D01*
X92250781Y-4505220D01*
X92355137Y-4539127D01*
X92445465Y-4568477D01*
X92546557Y-4584488D01*
X92647648Y-4600500D01*
X92647649Y-4600500D01*
X92852351Y-4600500D01*
X92852352Y-4600500D01*
X93054534Y-4568477D01*
X93249219Y-4505220D01*
X93431610Y-4412287D01*
X93553651Y-4323620D01*
X93597213Y-4291971D01*
X93597215Y-4291968D01*
X93597219Y-4291966D01*
X93741966Y-4147219D01*
X93741968Y-4147215D01*
X93741971Y-4147213D01*
X93825195Y-4032663D01*
X93862287Y-3981610D01*
X93889515Y-3928171D01*
X93937490Y-3877376D01*
X94005311Y-3860581D01*
X94071446Y-3883118D01*
X94110485Y-3928172D01*
X94137715Y-3981613D01*
X94258028Y-4147213D01*
X94402786Y-4291971D01*
X94557749Y-4404556D01*
X94568390Y-4412287D01*
X94657212Y-4457544D01*
X94750776Y-4505218D01*
X94750778Y-4505218D01*
X94750781Y-4505220D01*
X94855137Y-4539127D01*
X94945465Y-4568477D01*
X95046557Y-4584488D01*
X95147648Y-4600500D01*
X95147649Y-4600500D01*
X95352351Y-4600500D01*
X95352352Y-4600500D01*
X95554534Y-4568477D01*
X95749219Y-4505220D01*
X95931610Y-4412287D01*
X96053651Y-4323620D01*
X96097213Y-4291971D01*
X96097215Y-4291968D01*
X96097219Y-4291966D01*
X96241966Y-4147219D01*
X96362287Y-3981610D01*
X96455220Y-3799219D01*
X96518477Y-3604534D01*
X96530651Y-3527669D01*
X96560580Y-3464536D01*
X96619891Y-3427604D01*
X96689754Y-3428602D01*
X96747987Y-3467211D01*
X96774741Y-3522877D01*
X96788427Y-3591681D01*
X96788430Y-3591693D01*
X96863808Y-3773673D01*
X96863809Y-3773675D01*
X96887425Y-3809019D01*
X97307861Y-3388583D01*
X97330667Y-3473694D01*
G37*
%TD.AperFunction*%
%TA.AperFunction,Conductor*%
G36*
X97189665Y-2269685D02*
G01*
X97235420Y-2322489D01*
X97246029Y-2386155D01*
X97240978Y-2437426D01*
X97661415Y-2857861D01*
X97576306Y-2880667D01*
X97473694Y-2939910D01*
X97389910Y-3023694D01*
X97330667Y-3126306D01*
X97307861Y-3211414D01*
X96887426Y-2790978D01*
X96887426Y-2790979D01*
X96863813Y-2826318D01*
X96863809Y-2826325D01*
X96788429Y-3008310D01*
X96788427Y-3008318D01*
X96774741Y-3077122D01*
X96742356Y-3139033D01*
X96681640Y-3173607D01*
X96611871Y-3169868D01*
X96555199Y-3129001D01*
X96530651Y-3072329D01*
X96518477Y-2995466D01*
X96455220Y-2800781D01*
X96455218Y-2800778D01*
X96455218Y-2800776D01*
X96389515Y-2671828D01*
X96362287Y-2618390D01*
X96333633Y-2578951D01*
X96239103Y-2448839D01*
X96240468Y-2447847D01*
X96214892Y-2390775D01*
X96225326Y-2321689D01*
X96271455Y-2269211D01*
X96337752Y-2250000D01*
X97122626Y-2250000D01*
X97189665Y-2269685D01*
G37*
%TD.AperFunction*%
%TD*%
M02*
