%TF.GenerationSoftware,KiCad,Pcbnew,9.0.7*%
%TF.CreationDate,2026-04-16T17:11:48-05:00*%
%TF.ProjectId,OSLUV,4f534c55-562e-46b6-9963-61645f706362,01*%
%TF.SameCoordinates,PX2faf080PY5a995c0*%
%TF.FileFunction,Legend,Bot*%
%TF.FilePolarity,Positive*%
%FSLAX46Y46*%
G04 Gerber Fmt 4.6, Leading zero omitted, Abs format (unit mm)*
G04 Created by KiCad (PCBNEW 9.0.7) date 2026-04-16 17:11:48*
%MOMM*%
%LPD*%
G01*
G04 APERTURE LIST*
%ADD10C,0.150000*%
%ADD11C,0.508000*%
G04 APERTURE END LIST*
D10*
X121600000Y-96800000D02*
X121600000Y-95800000D01*
X124500000Y-96400000D02*
X124100000Y-96800000D01*
X122000000Y-96200000D02*
X121600000Y-95800000D01*
X124100000Y-95800000D02*
X124100000Y-96800000D01*
X123700000Y-96400000D02*
X124100000Y-96800000D01*
X121200000Y-96200000D02*
X121600000Y-95800000D01*
X117144295Y-100420112D02*
X117144295Y-100039160D01*
X117144295Y-100039160D02*
X116344295Y-100039160D01*
X117144295Y-101029636D02*
X116725247Y-101029636D01*
X116725247Y-101029636D02*
X116649057Y-100991541D01*
X116649057Y-100991541D02*
X116610961Y-100915350D01*
X116610961Y-100915350D02*
X116610961Y-100762969D01*
X116610961Y-100762969D02*
X116649057Y-100686779D01*
X117106200Y-101029636D02*
X117144295Y-100953445D01*
X117144295Y-100953445D02*
X117144295Y-100762969D01*
X117144295Y-100762969D02*
X117106200Y-100686779D01*
X117106200Y-100686779D02*
X117030009Y-100648683D01*
X117030009Y-100648683D02*
X116953819Y-100648683D01*
X116953819Y-100648683D02*
X116877628Y-100686779D01*
X116877628Y-100686779D02*
X116839533Y-100762969D01*
X116839533Y-100762969D02*
X116839533Y-100953445D01*
X116839533Y-100953445D02*
X116801438Y-101029636D01*
X117144295Y-101410589D02*
X116610961Y-101410589D01*
X116687152Y-101410589D02*
X116649057Y-101448684D01*
X116649057Y-101448684D02*
X116610961Y-101524874D01*
X116610961Y-101524874D02*
X116610961Y-101639160D01*
X116610961Y-101639160D02*
X116649057Y-101715351D01*
X116649057Y-101715351D02*
X116725247Y-101753446D01*
X116725247Y-101753446D02*
X117144295Y-101753446D01*
X116725247Y-101753446D02*
X116649057Y-101791541D01*
X116649057Y-101791541D02*
X116610961Y-101867732D01*
X116610961Y-101867732D02*
X116610961Y-101982017D01*
X116610961Y-101982017D02*
X116649057Y-102058208D01*
X116649057Y-102058208D02*
X116725247Y-102096303D01*
X116725247Y-102096303D02*
X117144295Y-102096303D01*
X116610961Y-102477256D02*
X117410961Y-102477256D01*
X116649057Y-102477256D02*
X116610961Y-102553446D01*
X116610961Y-102553446D02*
X116610961Y-102705827D01*
X116610961Y-102705827D02*
X116649057Y-102782018D01*
X116649057Y-102782018D02*
X116687152Y-102820113D01*
X116687152Y-102820113D02*
X116763342Y-102858208D01*
X116763342Y-102858208D02*
X116991914Y-102858208D01*
X116991914Y-102858208D02*
X117068104Y-102820113D01*
X117068104Y-102820113D02*
X117106200Y-102782018D01*
X117106200Y-102782018D02*
X117144295Y-102705827D01*
X117144295Y-102705827D02*
X117144295Y-102553446D01*
X117144295Y-102553446D02*
X117106200Y-102477256D01*
X117220485Y-103010590D02*
X117220485Y-103620113D01*
X117144295Y-103924875D02*
X117106200Y-103848685D01*
X117106200Y-103848685D02*
X117068104Y-103810590D01*
X117068104Y-103810590D02*
X116991914Y-103772494D01*
X116991914Y-103772494D02*
X116763342Y-103772494D01*
X116763342Y-103772494D02*
X116687152Y-103810590D01*
X116687152Y-103810590D02*
X116649057Y-103848685D01*
X116649057Y-103848685D02*
X116610961Y-103924875D01*
X116610961Y-103924875D02*
X116610961Y-104039161D01*
X116610961Y-104039161D02*
X116649057Y-104115352D01*
X116649057Y-104115352D02*
X116687152Y-104153447D01*
X116687152Y-104153447D02*
X116763342Y-104191542D01*
X116763342Y-104191542D02*
X116991914Y-104191542D01*
X116991914Y-104191542D02*
X117068104Y-104153447D01*
X117068104Y-104153447D02*
X117106200Y-104115352D01*
X117106200Y-104115352D02*
X117144295Y-104039161D01*
X117144295Y-104039161D02*
X117144295Y-103924875D01*
X116610961Y-104534400D02*
X117144295Y-104534400D01*
X116687152Y-104534400D02*
X116649057Y-104572495D01*
X116649057Y-104572495D02*
X116610961Y-104648685D01*
X116610961Y-104648685D02*
X116610961Y-104762971D01*
X116610961Y-104762971D02*
X116649057Y-104839162D01*
X116649057Y-104839162D02*
X116725247Y-104877257D01*
X116725247Y-104877257D02*
X117144295Y-104877257D01*
X133089533Y-98289160D02*
X133089533Y-98898684D01*
X133394295Y-98593922D02*
X132784771Y-98593922D01*
X132594295Y-99203445D02*
X132594295Y-99698683D01*
X132594295Y-99698683D02*
X132899057Y-99432017D01*
X132899057Y-99432017D02*
X132899057Y-99546302D01*
X132899057Y-99546302D02*
X132937152Y-99622493D01*
X132937152Y-99622493D02*
X132975247Y-99660588D01*
X132975247Y-99660588D02*
X133051438Y-99698683D01*
X133051438Y-99698683D02*
X133241914Y-99698683D01*
X133241914Y-99698683D02*
X133318104Y-99660588D01*
X133318104Y-99660588D02*
X133356200Y-99622493D01*
X133356200Y-99622493D02*
X133394295Y-99546302D01*
X133394295Y-99546302D02*
X133394295Y-99317731D01*
X133394295Y-99317731D02*
X133356200Y-99241540D01*
X133356200Y-99241540D02*
X133318104Y-99203445D01*
X132594295Y-99927255D02*
X133394295Y-100193922D01*
X133394295Y-100193922D02*
X132594295Y-100460588D01*
X132594295Y-100651064D02*
X132594295Y-101146302D01*
X132594295Y-101146302D02*
X132899057Y-100879636D01*
X132899057Y-100879636D02*
X132899057Y-100993921D01*
X132899057Y-100993921D02*
X132937152Y-101070112D01*
X132937152Y-101070112D02*
X132975247Y-101108207D01*
X132975247Y-101108207D02*
X133051438Y-101146302D01*
X133051438Y-101146302D02*
X133241914Y-101146302D01*
X133241914Y-101146302D02*
X133318104Y-101108207D01*
X133318104Y-101108207D02*
X133356200Y-101070112D01*
X133356200Y-101070112D02*
X133394295Y-100993921D01*
X133394295Y-100993921D02*
X133394295Y-100765350D01*
X133394295Y-100765350D02*
X133356200Y-100689159D01*
X133356200Y-100689159D02*
X133318104Y-100651064D01*
X119394295Y-100039160D02*
X118594295Y-100039160D01*
X118594295Y-100039160D02*
X118594295Y-100343922D01*
X118594295Y-100343922D02*
X118632390Y-100420112D01*
X118632390Y-100420112D02*
X118670485Y-100458207D01*
X118670485Y-100458207D02*
X118746676Y-100496303D01*
X118746676Y-100496303D02*
X118860961Y-100496303D01*
X118860961Y-100496303D02*
X118937152Y-100458207D01*
X118937152Y-100458207D02*
X118975247Y-100420112D01*
X118975247Y-100420112D02*
X119013342Y-100343922D01*
X119013342Y-100343922D02*
X119013342Y-100039160D01*
X118594295Y-100762969D02*
X119394295Y-100953445D01*
X119394295Y-100953445D02*
X118822866Y-101105826D01*
X118822866Y-101105826D02*
X119394295Y-101258207D01*
X119394295Y-101258207D02*
X118594295Y-101448684D01*
X119394295Y-101753446D02*
X118594295Y-101753446D01*
X118594295Y-101753446D02*
X119165723Y-102020112D01*
X119165723Y-102020112D02*
X118594295Y-102286779D01*
X118594295Y-102286779D02*
X119394295Y-102286779D01*
X135394295Y-98289160D02*
X134594295Y-98289160D01*
X134594295Y-98289160D02*
X134594295Y-98479636D01*
X134594295Y-98479636D02*
X134632390Y-98593922D01*
X134632390Y-98593922D02*
X134708580Y-98670112D01*
X134708580Y-98670112D02*
X134784771Y-98708207D01*
X134784771Y-98708207D02*
X134937152Y-98746303D01*
X134937152Y-98746303D02*
X135051438Y-98746303D01*
X135051438Y-98746303D02*
X135203819Y-98708207D01*
X135203819Y-98708207D02*
X135280009Y-98670112D01*
X135280009Y-98670112D02*
X135356200Y-98593922D01*
X135356200Y-98593922D02*
X135394295Y-98479636D01*
X135394295Y-98479636D02*
X135394295Y-98289160D01*
X134632390Y-99508207D02*
X134594295Y-99432017D01*
X134594295Y-99432017D02*
X134594295Y-99317731D01*
X134594295Y-99317731D02*
X134632390Y-99203445D01*
X134632390Y-99203445D02*
X134708580Y-99127255D01*
X134708580Y-99127255D02*
X134784771Y-99089160D01*
X134784771Y-99089160D02*
X134937152Y-99051064D01*
X134937152Y-99051064D02*
X135051438Y-99051064D01*
X135051438Y-99051064D02*
X135203819Y-99089160D01*
X135203819Y-99089160D02*
X135280009Y-99127255D01*
X135280009Y-99127255D02*
X135356200Y-99203445D01*
X135356200Y-99203445D02*
X135394295Y-99317731D01*
X135394295Y-99317731D02*
X135394295Y-99393922D01*
X135394295Y-99393922D02*
X135356200Y-99508207D01*
X135356200Y-99508207D02*
X135318104Y-99546303D01*
X135318104Y-99546303D02*
X135051438Y-99546303D01*
X135051438Y-99546303D02*
X135051438Y-99393922D01*
X135394295Y-99889160D02*
X134594295Y-99889160D01*
X134594295Y-99889160D02*
X135394295Y-100346303D01*
X135394295Y-100346303D02*
X134594295Y-100346303D01*
X135394295Y-100727255D02*
X134594295Y-100727255D01*
X134594295Y-100727255D02*
X134594295Y-100917731D01*
X134594295Y-100917731D02*
X134632390Y-101032017D01*
X134632390Y-101032017D02*
X134708580Y-101108207D01*
X134708580Y-101108207D02*
X134784771Y-101146302D01*
X134784771Y-101146302D02*
X134937152Y-101184398D01*
X134937152Y-101184398D02*
X135051438Y-101184398D01*
X135051438Y-101184398D02*
X135203819Y-101146302D01*
X135203819Y-101146302D02*
X135280009Y-101108207D01*
X135280009Y-101108207D02*
X135356200Y-101032017D01*
X135356200Y-101032017D02*
X135394295Y-100917731D01*
X135394295Y-100917731D02*
X135394295Y-100727255D01*
X56929887Y-116094295D02*
X57310839Y-116094295D01*
X57310839Y-116094295D02*
X57310839Y-115294295D01*
X56320363Y-116094295D02*
X56320363Y-115675247D01*
X56320363Y-115675247D02*
X56358458Y-115599057D01*
X56358458Y-115599057D02*
X56434649Y-115560961D01*
X56434649Y-115560961D02*
X56587030Y-115560961D01*
X56587030Y-115560961D02*
X56663220Y-115599057D01*
X56320363Y-116056200D02*
X56396554Y-116094295D01*
X56396554Y-116094295D02*
X56587030Y-116094295D01*
X56587030Y-116094295D02*
X56663220Y-116056200D01*
X56663220Y-116056200D02*
X56701316Y-115980009D01*
X56701316Y-115980009D02*
X56701316Y-115903819D01*
X56701316Y-115903819D02*
X56663220Y-115827628D01*
X56663220Y-115827628D02*
X56587030Y-115789533D01*
X56587030Y-115789533D02*
X56396554Y-115789533D01*
X56396554Y-115789533D02*
X56320363Y-115751438D01*
X55939410Y-116094295D02*
X55939410Y-115560961D01*
X55939410Y-115637152D02*
X55901315Y-115599057D01*
X55901315Y-115599057D02*
X55825125Y-115560961D01*
X55825125Y-115560961D02*
X55710839Y-115560961D01*
X55710839Y-115560961D02*
X55634648Y-115599057D01*
X55634648Y-115599057D02*
X55596553Y-115675247D01*
X55596553Y-115675247D02*
X55596553Y-116094295D01*
X55596553Y-115675247D02*
X55558458Y-115599057D01*
X55558458Y-115599057D02*
X55482267Y-115560961D01*
X55482267Y-115560961D02*
X55367982Y-115560961D01*
X55367982Y-115560961D02*
X55291791Y-115599057D01*
X55291791Y-115599057D02*
X55253696Y-115675247D01*
X55253696Y-115675247D02*
X55253696Y-116094295D01*
X54872743Y-115560961D02*
X54872743Y-116360961D01*
X54872743Y-115599057D02*
X54796553Y-115560961D01*
X54796553Y-115560961D02*
X54644172Y-115560961D01*
X54644172Y-115560961D02*
X54567981Y-115599057D01*
X54567981Y-115599057D02*
X54529886Y-115637152D01*
X54529886Y-115637152D02*
X54491791Y-115713342D01*
X54491791Y-115713342D02*
X54491791Y-115941914D01*
X54491791Y-115941914D02*
X54529886Y-116018104D01*
X54529886Y-116018104D02*
X54567981Y-116056200D01*
X54567981Y-116056200D02*
X54644172Y-116094295D01*
X54644172Y-116094295D02*
X54796553Y-116094295D01*
X54796553Y-116094295D02*
X54872743Y-116056200D01*
X53120362Y-115332390D02*
X53196552Y-115294295D01*
X53196552Y-115294295D02*
X53310838Y-115294295D01*
X53310838Y-115294295D02*
X53425124Y-115332390D01*
X53425124Y-115332390D02*
X53501314Y-115408580D01*
X53501314Y-115408580D02*
X53539409Y-115484771D01*
X53539409Y-115484771D02*
X53577505Y-115637152D01*
X53577505Y-115637152D02*
X53577505Y-115751438D01*
X53577505Y-115751438D02*
X53539409Y-115903819D01*
X53539409Y-115903819D02*
X53501314Y-115980009D01*
X53501314Y-115980009D02*
X53425124Y-116056200D01*
X53425124Y-116056200D02*
X53310838Y-116094295D01*
X53310838Y-116094295D02*
X53234647Y-116094295D01*
X53234647Y-116094295D02*
X53120362Y-116056200D01*
X53120362Y-116056200D02*
X53082266Y-116018104D01*
X53082266Y-116018104D02*
X53082266Y-115751438D01*
X53082266Y-115751438D02*
X53234647Y-115751438D01*
X52739409Y-116094295D02*
X52739409Y-115294295D01*
X52739409Y-115294295D02*
X52282266Y-116094295D01*
X52282266Y-116094295D02*
X52282266Y-115294295D01*
X51901314Y-116094295D02*
X51901314Y-115294295D01*
X51901314Y-115294295D02*
X51710838Y-115294295D01*
X51710838Y-115294295D02*
X51596552Y-115332390D01*
X51596552Y-115332390D02*
X51520362Y-115408580D01*
X51520362Y-115408580D02*
X51482267Y-115484771D01*
X51482267Y-115484771D02*
X51444171Y-115637152D01*
X51444171Y-115637152D02*
X51444171Y-115751438D01*
X51444171Y-115751438D02*
X51482267Y-115903819D01*
X51482267Y-115903819D02*
X51520362Y-115980009D01*
X51520362Y-115980009D02*
X51596552Y-116056200D01*
X51596552Y-116056200D02*
X51710838Y-116094295D01*
X51710838Y-116094295D02*
X51901314Y-116094295D01*
X112144295Y-100039160D02*
X111344295Y-100039160D01*
X111344295Y-100039160D02*
X111344295Y-100229636D01*
X111344295Y-100229636D02*
X111382390Y-100343922D01*
X111382390Y-100343922D02*
X111458580Y-100420112D01*
X111458580Y-100420112D02*
X111534771Y-100458207D01*
X111534771Y-100458207D02*
X111687152Y-100496303D01*
X111687152Y-100496303D02*
X111801438Y-100496303D01*
X111801438Y-100496303D02*
X111953819Y-100458207D01*
X111953819Y-100458207D02*
X112030009Y-100420112D01*
X112030009Y-100420112D02*
X112106200Y-100343922D01*
X112106200Y-100343922D02*
X112144295Y-100229636D01*
X112144295Y-100229636D02*
X112144295Y-100039160D01*
X111382390Y-101258207D02*
X111344295Y-101182017D01*
X111344295Y-101182017D02*
X111344295Y-101067731D01*
X111344295Y-101067731D02*
X111382390Y-100953445D01*
X111382390Y-100953445D02*
X111458580Y-100877255D01*
X111458580Y-100877255D02*
X111534771Y-100839160D01*
X111534771Y-100839160D02*
X111687152Y-100801064D01*
X111687152Y-100801064D02*
X111801438Y-100801064D01*
X111801438Y-100801064D02*
X111953819Y-100839160D01*
X111953819Y-100839160D02*
X112030009Y-100877255D01*
X112030009Y-100877255D02*
X112106200Y-100953445D01*
X112106200Y-100953445D02*
X112144295Y-101067731D01*
X112144295Y-101067731D02*
X112144295Y-101143922D01*
X112144295Y-101143922D02*
X112106200Y-101258207D01*
X112106200Y-101258207D02*
X112068104Y-101296303D01*
X112068104Y-101296303D02*
X111801438Y-101296303D01*
X111801438Y-101296303D02*
X111801438Y-101143922D01*
X112144295Y-101639160D02*
X111344295Y-101639160D01*
X111344295Y-101639160D02*
X112144295Y-102096303D01*
X112144295Y-102096303D02*
X111344295Y-102096303D01*
X112144295Y-102477255D02*
X111344295Y-102477255D01*
X111344295Y-102477255D02*
X111344295Y-102667731D01*
X111344295Y-102667731D02*
X111382390Y-102782017D01*
X111382390Y-102782017D02*
X111458580Y-102858207D01*
X111458580Y-102858207D02*
X111534771Y-102896302D01*
X111534771Y-102896302D02*
X111687152Y-102934398D01*
X111687152Y-102934398D02*
X111801438Y-102934398D01*
X111801438Y-102934398D02*
X111953819Y-102896302D01*
X111953819Y-102896302D02*
X112030009Y-102858207D01*
X112030009Y-102858207D02*
X112106200Y-102782017D01*
X112106200Y-102782017D02*
X112144295Y-102667731D01*
X112144295Y-102667731D02*
X112144295Y-102477255D01*
X123844295Y-100039160D02*
X124491914Y-100039160D01*
X124491914Y-100039160D02*
X124568104Y-100077255D01*
X124568104Y-100077255D02*
X124606200Y-100115350D01*
X124606200Y-100115350D02*
X124644295Y-100191541D01*
X124644295Y-100191541D02*
X124644295Y-100343922D01*
X124644295Y-100343922D02*
X124606200Y-100420112D01*
X124606200Y-100420112D02*
X124568104Y-100458207D01*
X124568104Y-100458207D02*
X124491914Y-100496303D01*
X124491914Y-100496303D02*
X123844295Y-100496303D01*
X124415723Y-100839159D02*
X124415723Y-101220112D01*
X124644295Y-100762969D02*
X123844295Y-101029636D01*
X123844295Y-101029636D02*
X124644295Y-101296302D01*
X124644295Y-102020112D02*
X124263342Y-101753445D01*
X124644295Y-101562969D02*
X123844295Y-101562969D01*
X123844295Y-101562969D02*
X123844295Y-101867731D01*
X123844295Y-101867731D02*
X123882390Y-101943921D01*
X123882390Y-101943921D02*
X123920485Y-101982016D01*
X123920485Y-101982016D02*
X123996676Y-102020112D01*
X123996676Y-102020112D02*
X124110961Y-102020112D01*
X124110961Y-102020112D02*
X124187152Y-101982016D01*
X124187152Y-101982016D02*
X124225247Y-101943921D01*
X124225247Y-101943921D02*
X124263342Y-101867731D01*
X124263342Y-101867731D02*
X124263342Y-101562969D01*
X123844295Y-102248683D02*
X123844295Y-102705826D01*
X124644295Y-102477254D02*
X123844295Y-102477254D01*
X124720485Y-102782017D02*
X124720485Y-103391540D01*
X124644295Y-104039160D02*
X124263342Y-103772493D01*
X124644295Y-103582017D02*
X123844295Y-103582017D01*
X123844295Y-103582017D02*
X123844295Y-103886779D01*
X123844295Y-103886779D02*
X123882390Y-103962969D01*
X123882390Y-103962969D02*
X123920485Y-104001064D01*
X123920485Y-104001064D02*
X123996676Y-104039160D01*
X123996676Y-104039160D02*
X124110961Y-104039160D01*
X124110961Y-104039160D02*
X124187152Y-104001064D01*
X124187152Y-104001064D02*
X124225247Y-103962969D01*
X124225247Y-103962969D02*
X124263342Y-103886779D01*
X124263342Y-103886779D02*
X124263342Y-103582017D01*
X123844295Y-104305826D02*
X124644295Y-104839160D01*
X123844295Y-104839160D02*
X124644295Y-104305826D01*
X98689160Y-98805704D02*
X98689160Y-98158085D01*
X98689160Y-98158085D02*
X98727255Y-98081895D01*
X98727255Y-98081895D02*
X98765350Y-98043800D01*
X98765350Y-98043800D02*
X98841541Y-98005704D01*
X98841541Y-98005704D02*
X98993922Y-98005704D01*
X98993922Y-98005704D02*
X99070112Y-98043800D01*
X99070112Y-98043800D02*
X99108207Y-98081895D01*
X99108207Y-98081895D02*
X99146303Y-98158085D01*
X99146303Y-98158085D02*
X99146303Y-98805704D01*
X99412969Y-98805704D02*
X99679636Y-98005704D01*
X99679636Y-98005704D02*
X99946302Y-98805704D01*
X101203445Y-98005704D02*
X100822493Y-98005704D01*
X100822493Y-98005704D02*
X100822493Y-98805704D01*
X101470112Y-98424752D02*
X101736778Y-98424752D01*
X101851064Y-98005704D02*
X101470112Y-98005704D01*
X101470112Y-98005704D02*
X101470112Y-98805704D01*
X101470112Y-98805704D02*
X101851064Y-98805704D01*
X102193922Y-98005704D02*
X102193922Y-98805704D01*
X102193922Y-98805704D02*
X102384398Y-98805704D01*
X102384398Y-98805704D02*
X102498684Y-98767609D01*
X102498684Y-98767609D02*
X102574874Y-98691419D01*
X102574874Y-98691419D02*
X102612969Y-98615228D01*
X102612969Y-98615228D02*
X102651065Y-98462847D01*
X102651065Y-98462847D02*
X102651065Y-98348561D01*
X102651065Y-98348561D02*
X102612969Y-98196180D01*
X102612969Y-98196180D02*
X102574874Y-98119990D01*
X102574874Y-98119990D02*
X102498684Y-98043800D01*
X102498684Y-98043800D02*
X102384398Y-98005704D01*
X102384398Y-98005704D02*
X102193922Y-98005704D01*
X143068104Y-99839160D02*
X143106200Y-99877255D01*
X143106200Y-99877255D02*
X143144295Y-99839160D01*
X143144295Y-99839160D02*
X143106200Y-99801064D01*
X143106200Y-99801064D02*
X143068104Y-99839160D01*
X143068104Y-99839160D02*
X143144295Y-99839160D01*
X142839533Y-99839160D02*
X142382390Y-99801064D01*
X142382390Y-99801064D02*
X142344295Y-99839160D01*
X142344295Y-99839160D02*
X142382390Y-99877255D01*
X142382390Y-99877255D02*
X142839533Y-99839160D01*
X142839533Y-99839160D02*
X142344295Y-99839160D01*
X143144295Y-100677255D02*
X142763342Y-100410588D01*
X143144295Y-100220112D02*
X142344295Y-100220112D01*
X142344295Y-100220112D02*
X142344295Y-100524874D01*
X142344295Y-100524874D02*
X142382390Y-100601064D01*
X142382390Y-100601064D02*
X142420485Y-100639159D01*
X142420485Y-100639159D02*
X142496676Y-100677255D01*
X142496676Y-100677255D02*
X142610961Y-100677255D01*
X142610961Y-100677255D02*
X142687152Y-100639159D01*
X142687152Y-100639159D02*
X142725247Y-100601064D01*
X142725247Y-100601064D02*
X142763342Y-100524874D01*
X142763342Y-100524874D02*
X142763342Y-100220112D01*
X142725247Y-101020112D02*
X142725247Y-101286778D01*
X143144295Y-101401064D02*
X143144295Y-101020112D01*
X143144295Y-101020112D02*
X142344295Y-101020112D01*
X142344295Y-101020112D02*
X142344295Y-101401064D01*
X143144295Y-101743922D02*
X142344295Y-101743922D01*
X142344295Y-101743922D02*
X142915723Y-102010588D01*
X142915723Y-102010588D02*
X142344295Y-102277255D01*
X142344295Y-102277255D02*
X143144295Y-102277255D01*
X142344295Y-102810589D02*
X142344295Y-102962970D01*
X142344295Y-102962970D02*
X142382390Y-103039160D01*
X142382390Y-103039160D02*
X142458580Y-103115351D01*
X142458580Y-103115351D02*
X142610961Y-103153446D01*
X142610961Y-103153446D02*
X142877628Y-103153446D01*
X142877628Y-103153446D02*
X143030009Y-103115351D01*
X143030009Y-103115351D02*
X143106200Y-103039160D01*
X143106200Y-103039160D02*
X143144295Y-102962970D01*
X143144295Y-102962970D02*
X143144295Y-102810589D01*
X143144295Y-102810589D02*
X143106200Y-102734398D01*
X143106200Y-102734398D02*
X143030009Y-102658208D01*
X143030009Y-102658208D02*
X142877628Y-102620112D01*
X142877628Y-102620112D02*
X142610961Y-102620112D01*
X142610961Y-102620112D02*
X142458580Y-102658208D01*
X142458580Y-102658208D02*
X142382390Y-102734398D01*
X142382390Y-102734398D02*
X142344295Y-102810589D01*
X142344295Y-103382017D02*
X142344295Y-103839160D01*
X143144295Y-103610588D02*
X142344295Y-103610588D01*
X142725247Y-104105827D02*
X142725247Y-104372493D01*
X143144295Y-104486779D02*
X143144295Y-104105827D01*
X143144295Y-104105827D02*
X142344295Y-104105827D01*
X142344295Y-104105827D02*
X142344295Y-104486779D01*
X56310839Y-104394295D02*
X56310839Y-103594295D01*
X56310839Y-103975247D02*
X55853696Y-103975247D01*
X55853696Y-104394295D02*
X55853696Y-103594295D01*
X55587030Y-103594295D02*
X55320363Y-104394295D01*
X55320363Y-104394295D02*
X55053697Y-103594295D01*
X54025125Y-103594295D02*
X53872744Y-103594295D01*
X53872744Y-103594295D02*
X53796554Y-103632390D01*
X53796554Y-103632390D02*
X53720363Y-103708580D01*
X53720363Y-103708580D02*
X53682268Y-103860961D01*
X53682268Y-103860961D02*
X53682268Y-104127628D01*
X53682268Y-104127628D02*
X53720363Y-104280009D01*
X53720363Y-104280009D02*
X53796554Y-104356200D01*
X53796554Y-104356200D02*
X53872744Y-104394295D01*
X53872744Y-104394295D02*
X54025125Y-104394295D01*
X54025125Y-104394295D02*
X54101316Y-104356200D01*
X54101316Y-104356200D02*
X54177506Y-104280009D01*
X54177506Y-104280009D02*
X54215602Y-104127628D01*
X54215602Y-104127628D02*
X54215602Y-103860961D01*
X54215602Y-103860961D02*
X54177506Y-103708580D01*
X54177506Y-103708580D02*
X54101316Y-103632390D01*
X54101316Y-103632390D02*
X54025125Y-103594295D01*
X53339411Y-103594295D02*
X53339411Y-104241914D01*
X53339411Y-104241914D02*
X53301316Y-104318104D01*
X53301316Y-104318104D02*
X53263221Y-104356200D01*
X53263221Y-104356200D02*
X53187030Y-104394295D01*
X53187030Y-104394295D02*
X53034649Y-104394295D01*
X53034649Y-104394295D02*
X52958459Y-104356200D01*
X52958459Y-104356200D02*
X52920364Y-104318104D01*
X52920364Y-104318104D02*
X52882268Y-104241914D01*
X52882268Y-104241914D02*
X52882268Y-103594295D01*
X52615602Y-103594295D02*
X52158459Y-103594295D01*
X52387031Y-104394295D02*
X52387031Y-103594295D01*
X109394295Y-100039160D02*
X108594295Y-100039160D01*
X108594295Y-100039160D02*
X108594295Y-100343922D01*
X108594295Y-100343922D02*
X108632390Y-100420112D01*
X108632390Y-100420112D02*
X108670485Y-100458207D01*
X108670485Y-100458207D02*
X108746676Y-100496303D01*
X108746676Y-100496303D02*
X108860961Y-100496303D01*
X108860961Y-100496303D02*
X108937152Y-100458207D01*
X108937152Y-100458207D02*
X108975247Y-100420112D01*
X108975247Y-100420112D02*
X109013342Y-100343922D01*
X109013342Y-100343922D02*
X109013342Y-100039160D01*
X108632390Y-101258207D02*
X108594295Y-101182017D01*
X108594295Y-101182017D02*
X108594295Y-101067731D01*
X108594295Y-101067731D02*
X108632390Y-100953445D01*
X108632390Y-100953445D02*
X108708580Y-100877255D01*
X108708580Y-100877255D02*
X108784771Y-100839160D01*
X108784771Y-100839160D02*
X108937152Y-100801064D01*
X108937152Y-100801064D02*
X109051438Y-100801064D01*
X109051438Y-100801064D02*
X109203819Y-100839160D01*
X109203819Y-100839160D02*
X109280009Y-100877255D01*
X109280009Y-100877255D02*
X109356200Y-100953445D01*
X109356200Y-100953445D02*
X109394295Y-101067731D01*
X109394295Y-101067731D02*
X109394295Y-101143922D01*
X109394295Y-101143922D02*
X109356200Y-101258207D01*
X109356200Y-101258207D02*
X109318104Y-101296303D01*
X109318104Y-101296303D02*
X109051438Y-101296303D01*
X109051438Y-101296303D02*
X109051438Y-101143922D01*
X109394295Y-101639160D02*
X108594295Y-101639160D01*
X108594295Y-101639160D02*
X109394295Y-102096303D01*
X109394295Y-102096303D02*
X108594295Y-102096303D01*
X109394295Y-102477255D02*
X108594295Y-102477255D01*
X108594295Y-102477255D02*
X108594295Y-102667731D01*
X108594295Y-102667731D02*
X108632390Y-102782017D01*
X108632390Y-102782017D02*
X108708580Y-102858207D01*
X108708580Y-102858207D02*
X108784771Y-102896302D01*
X108784771Y-102896302D02*
X108937152Y-102934398D01*
X108937152Y-102934398D02*
X109051438Y-102934398D01*
X109051438Y-102934398D02*
X109203819Y-102896302D01*
X109203819Y-102896302D02*
X109280009Y-102858207D01*
X109280009Y-102858207D02*
X109356200Y-102782017D01*
X109356200Y-102782017D02*
X109394295Y-102667731D01*
X109394295Y-102667731D02*
X109394295Y-102477255D01*
X114318104Y-100039160D02*
X114356200Y-100077255D01*
X114356200Y-100077255D02*
X114394295Y-100039160D01*
X114394295Y-100039160D02*
X114356200Y-100001064D01*
X114356200Y-100001064D02*
X114318104Y-100039160D01*
X114318104Y-100039160D02*
X114394295Y-100039160D01*
X114089533Y-100039160D02*
X113632390Y-100001064D01*
X113632390Y-100001064D02*
X113594295Y-100039160D01*
X113594295Y-100039160D02*
X113632390Y-100077255D01*
X113632390Y-100077255D02*
X114089533Y-100039160D01*
X114089533Y-100039160D02*
X113594295Y-100039160D01*
X114394295Y-100877255D02*
X114013342Y-100610588D01*
X114394295Y-100420112D02*
X113594295Y-100420112D01*
X113594295Y-100420112D02*
X113594295Y-100724874D01*
X113594295Y-100724874D02*
X113632390Y-100801064D01*
X113632390Y-100801064D02*
X113670485Y-100839159D01*
X113670485Y-100839159D02*
X113746676Y-100877255D01*
X113746676Y-100877255D02*
X113860961Y-100877255D01*
X113860961Y-100877255D02*
X113937152Y-100839159D01*
X113937152Y-100839159D02*
X113975247Y-100801064D01*
X113975247Y-100801064D02*
X114013342Y-100724874D01*
X114013342Y-100724874D02*
X114013342Y-100420112D01*
X113975247Y-101220112D02*
X113975247Y-101486778D01*
X114394295Y-101601064D02*
X114394295Y-101220112D01*
X114394295Y-101220112D02*
X113594295Y-101220112D01*
X113594295Y-101220112D02*
X113594295Y-101601064D01*
X114394295Y-101943922D02*
X113594295Y-101943922D01*
X113594295Y-101943922D02*
X114165723Y-102210588D01*
X114165723Y-102210588D02*
X113594295Y-102477255D01*
X113594295Y-102477255D02*
X114394295Y-102477255D01*
X113594295Y-103010589D02*
X113594295Y-103162970D01*
X113594295Y-103162970D02*
X113632390Y-103239160D01*
X113632390Y-103239160D02*
X113708580Y-103315351D01*
X113708580Y-103315351D02*
X113860961Y-103353446D01*
X113860961Y-103353446D02*
X114127628Y-103353446D01*
X114127628Y-103353446D02*
X114280009Y-103315351D01*
X114280009Y-103315351D02*
X114356200Y-103239160D01*
X114356200Y-103239160D02*
X114394295Y-103162970D01*
X114394295Y-103162970D02*
X114394295Y-103010589D01*
X114394295Y-103010589D02*
X114356200Y-102934398D01*
X114356200Y-102934398D02*
X114280009Y-102858208D01*
X114280009Y-102858208D02*
X114127628Y-102820112D01*
X114127628Y-102820112D02*
X113860961Y-102820112D01*
X113860961Y-102820112D02*
X113708580Y-102858208D01*
X113708580Y-102858208D02*
X113632390Y-102934398D01*
X113632390Y-102934398D02*
X113594295Y-103010589D01*
X113594295Y-103582017D02*
X113594295Y-104039160D01*
X114394295Y-103810588D02*
X113594295Y-103810588D01*
X113975247Y-104305827D02*
X113975247Y-104572493D01*
X114394295Y-104686779D02*
X114394295Y-104305827D01*
X114394295Y-104305827D02*
X113594295Y-104305827D01*
X113594295Y-104305827D02*
X113594295Y-104686779D01*
X147382390Y-100258207D02*
X147344295Y-100182017D01*
X147344295Y-100182017D02*
X147344295Y-100067731D01*
X147344295Y-100067731D02*
X147382390Y-99953445D01*
X147382390Y-99953445D02*
X147458580Y-99877255D01*
X147458580Y-99877255D02*
X147534771Y-99839160D01*
X147534771Y-99839160D02*
X147687152Y-99801064D01*
X147687152Y-99801064D02*
X147801438Y-99801064D01*
X147801438Y-99801064D02*
X147953819Y-99839160D01*
X147953819Y-99839160D02*
X148030009Y-99877255D01*
X148030009Y-99877255D02*
X148106200Y-99953445D01*
X148106200Y-99953445D02*
X148144295Y-100067731D01*
X148144295Y-100067731D02*
X148144295Y-100143922D01*
X148144295Y-100143922D02*
X148106200Y-100258207D01*
X148106200Y-100258207D02*
X148068104Y-100296303D01*
X148068104Y-100296303D02*
X147801438Y-100296303D01*
X147801438Y-100296303D02*
X147801438Y-100143922D01*
X148144295Y-100639160D02*
X147344295Y-100639160D01*
X147344295Y-100639160D02*
X148144295Y-101096303D01*
X148144295Y-101096303D02*
X147344295Y-101096303D01*
X148144295Y-101477255D02*
X147344295Y-101477255D01*
X147344295Y-101477255D02*
X147344295Y-101667731D01*
X147344295Y-101667731D02*
X147382390Y-101782017D01*
X147382390Y-101782017D02*
X147458580Y-101858207D01*
X147458580Y-101858207D02*
X147534771Y-101896302D01*
X147534771Y-101896302D02*
X147687152Y-101934398D01*
X147687152Y-101934398D02*
X147801438Y-101934398D01*
X147801438Y-101934398D02*
X147953819Y-101896302D01*
X147953819Y-101896302D02*
X148030009Y-101858207D01*
X148030009Y-101858207D02*
X148106200Y-101782017D01*
X148106200Y-101782017D02*
X148144295Y-101667731D01*
X148144295Y-101667731D02*
X148144295Y-101477255D01*
X145644295Y-100220112D02*
X145644295Y-99839160D01*
X145644295Y-99839160D02*
X144844295Y-99839160D01*
X145644295Y-100829636D02*
X145225247Y-100829636D01*
X145225247Y-100829636D02*
X145149057Y-100791541D01*
X145149057Y-100791541D02*
X145110961Y-100715350D01*
X145110961Y-100715350D02*
X145110961Y-100562969D01*
X145110961Y-100562969D02*
X145149057Y-100486779D01*
X145606200Y-100829636D02*
X145644295Y-100753445D01*
X145644295Y-100753445D02*
X145644295Y-100562969D01*
X145644295Y-100562969D02*
X145606200Y-100486779D01*
X145606200Y-100486779D02*
X145530009Y-100448683D01*
X145530009Y-100448683D02*
X145453819Y-100448683D01*
X145453819Y-100448683D02*
X145377628Y-100486779D01*
X145377628Y-100486779D02*
X145339533Y-100562969D01*
X145339533Y-100562969D02*
X145339533Y-100753445D01*
X145339533Y-100753445D02*
X145301438Y-100829636D01*
X145644295Y-101210589D02*
X145110961Y-101210589D01*
X145187152Y-101210589D02*
X145149057Y-101248684D01*
X145149057Y-101248684D02*
X145110961Y-101324874D01*
X145110961Y-101324874D02*
X145110961Y-101439160D01*
X145110961Y-101439160D02*
X145149057Y-101515351D01*
X145149057Y-101515351D02*
X145225247Y-101553446D01*
X145225247Y-101553446D02*
X145644295Y-101553446D01*
X145225247Y-101553446D02*
X145149057Y-101591541D01*
X145149057Y-101591541D02*
X145110961Y-101667732D01*
X145110961Y-101667732D02*
X145110961Y-101782017D01*
X145110961Y-101782017D02*
X145149057Y-101858208D01*
X145149057Y-101858208D02*
X145225247Y-101896303D01*
X145225247Y-101896303D02*
X145644295Y-101896303D01*
X145110961Y-102277256D02*
X145910961Y-102277256D01*
X145149057Y-102277256D02*
X145110961Y-102353446D01*
X145110961Y-102353446D02*
X145110961Y-102505827D01*
X145110961Y-102505827D02*
X145149057Y-102582018D01*
X145149057Y-102582018D02*
X145187152Y-102620113D01*
X145187152Y-102620113D02*
X145263342Y-102658208D01*
X145263342Y-102658208D02*
X145491914Y-102658208D01*
X145491914Y-102658208D02*
X145568104Y-102620113D01*
X145568104Y-102620113D02*
X145606200Y-102582018D01*
X145606200Y-102582018D02*
X145644295Y-102505827D01*
X145644295Y-102505827D02*
X145644295Y-102353446D01*
X145644295Y-102353446D02*
X145606200Y-102277256D01*
X145720485Y-102810590D02*
X145720485Y-103420113D01*
X145644295Y-103724875D02*
X145606200Y-103648685D01*
X145606200Y-103648685D02*
X145568104Y-103610590D01*
X145568104Y-103610590D02*
X145491914Y-103572494D01*
X145491914Y-103572494D02*
X145263342Y-103572494D01*
X145263342Y-103572494D02*
X145187152Y-103610590D01*
X145187152Y-103610590D02*
X145149057Y-103648685D01*
X145149057Y-103648685D02*
X145110961Y-103724875D01*
X145110961Y-103724875D02*
X145110961Y-103839161D01*
X145110961Y-103839161D02*
X145149057Y-103915352D01*
X145149057Y-103915352D02*
X145187152Y-103953447D01*
X145187152Y-103953447D02*
X145263342Y-103991542D01*
X145263342Y-103991542D02*
X145491914Y-103991542D01*
X145491914Y-103991542D02*
X145568104Y-103953447D01*
X145568104Y-103953447D02*
X145606200Y-103915352D01*
X145606200Y-103915352D02*
X145644295Y-103839161D01*
X145644295Y-103839161D02*
X145644295Y-103724875D01*
X145110961Y-104334400D02*
X145644295Y-104334400D01*
X145187152Y-104334400D02*
X145149057Y-104372495D01*
X145149057Y-104372495D02*
X145110961Y-104448685D01*
X145110961Y-104448685D02*
X145110961Y-104562971D01*
X145110961Y-104562971D02*
X145149057Y-104639162D01*
X145149057Y-104639162D02*
X145225247Y-104677257D01*
X145225247Y-104677257D02*
X145644295Y-104677257D01*
X106589533Y-100039160D02*
X106589533Y-100648684D01*
X106894295Y-100343922D02*
X106284771Y-100343922D01*
X106170485Y-100991540D02*
X106132390Y-101029636D01*
X106132390Y-101029636D02*
X106094295Y-101105826D01*
X106094295Y-101105826D02*
X106094295Y-101296302D01*
X106094295Y-101296302D02*
X106132390Y-101372493D01*
X106132390Y-101372493D02*
X106170485Y-101410588D01*
X106170485Y-101410588D02*
X106246676Y-101448683D01*
X106246676Y-101448683D02*
X106322866Y-101448683D01*
X106322866Y-101448683D02*
X106437152Y-101410588D01*
X106437152Y-101410588D02*
X106894295Y-100953445D01*
X106894295Y-100953445D02*
X106894295Y-101448683D01*
X106360961Y-102134398D02*
X106894295Y-102134398D01*
X106056200Y-101943922D02*
X106627628Y-101753445D01*
X106627628Y-101753445D02*
X106627628Y-102248684D01*
X106094295Y-102439160D02*
X106894295Y-102705827D01*
X106894295Y-102705827D02*
X106094295Y-102972493D01*
X140289533Y-99789160D02*
X140289533Y-100398684D01*
X140594295Y-100093922D02*
X139984771Y-100093922D01*
X139870485Y-100741540D02*
X139832390Y-100779636D01*
X139832390Y-100779636D02*
X139794295Y-100855826D01*
X139794295Y-100855826D02*
X139794295Y-101046302D01*
X139794295Y-101046302D02*
X139832390Y-101122493D01*
X139832390Y-101122493D02*
X139870485Y-101160588D01*
X139870485Y-101160588D02*
X139946676Y-101198683D01*
X139946676Y-101198683D02*
X140022866Y-101198683D01*
X140022866Y-101198683D02*
X140137152Y-101160588D01*
X140137152Y-101160588D02*
X140594295Y-100703445D01*
X140594295Y-100703445D02*
X140594295Y-101198683D01*
X140060961Y-101884398D02*
X140594295Y-101884398D01*
X139756200Y-101693922D02*
X140327628Y-101503445D01*
X140327628Y-101503445D02*
X140327628Y-101998684D01*
X139794295Y-102189160D02*
X140594295Y-102455827D01*
X140594295Y-102455827D02*
X139794295Y-102722493D01*
X131394295Y-98289160D02*
X130860961Y-98289160D01*
X130594295Y-98289160D02*
X130632390Y-98251064D01*
X130632390Y-98251064D02*
X130670485Y-98289160D01*
X130670485Y-98289160D02*
X130632390Y-98327255D01*
X130632390Y-98327255D02*
X130594295Y-98289160D01*
X130594295Y-98289160D02*
X130670485Y-98289160D01*
X130670485Y-98632016D02*
X130632390Y-98670112D01*
X130632390Y-98670112D02*
X130594295Y-98746302D01*
X130594295Y-98746302D02*
X130594295Y-98936778D01*
X130594295Y-98936778D02*
X130632390Y-99012969D01*
X130632390Y-99012969D02*
X130670485Y-99051064D01*
X130670485Y-99051064D02*
X130746676Y-99089159D01*
X130746676Y-99089159D02*
X130822866Y-99089159D01*
X130822866Y-99089159D02*
X130937152Y-99051064D01*
X130937152Y-99051064D02*
X131394295Y-98593921D01*
X131394295Y-98593921D02*
X131394295Y-99089159D01*
X131356200Y-99774874D02*
X131394295Y-99698683D01*
X131394295Y-99698683D02*
X131394295Y-99546302D01*
X131394295Y-99546302D02*
X131356200Y-99470112D01*
X131356200Y-99470112D02*
X131318104Y-99432017D01*
X131318104Y-99432017D02*
X131241914Y-99393921D01*
X131241914Y-99393921D02*
X131013342Y-99393921D01*
X131013342Y-99393921D02*
X130937152Y-99432017D01*
X130937152Y-99432017D02*
X130899057Y-99470112D01*
X130899057Y-99470112D02*
X130860961Y-99546302D01*
X130860961Y-99546302D02*
X130860961Y-99698683D01*
X130860961Y-99698683D02*
X130899057Y-99774874D01*
X131394295Y-100727255D02*
X130594295Y-100727255D01*
X130594295Y-100727255D02*
X130594295Y-100917731D01*
X130594295Y-100917731D02*
X130632390Y-101032017D01*
X130632390Y-101032017D02*
X130708580Y-101108207D01*
X130708580Y-101108207D02*
X130784771Y-101146302D01*
X130784771Y-101146302D02*
X130937152Y-101184398D01*
X130937152Y-101184398D02*
X131051438Y-101184398D01*
X131051438Y-101184398D02*
X131203819Y-101146302D01*
X131203819Y-101146302D02*
X131280009Y-101108207D01*
X131280009Y-101108207D02*
X131356200Y-101032017D01*
X131356200Y-101032017D02*
X131394295Y-100917731D01*
X131394295Y-100917731D02*
X131394295Y-100727255D01*
X131165723Y-101489159D02*
X131165723Y-101870112D01*
X131394295Y-101412969D02*
X130594295Y-101679636D01*
X130594295Y-101679636D02*
X131394295Y-101946302D01*
X130594295Y-102098683D02*
X130594295Y-102555826D01*
X131394295Y-102327254D02*
X130594295Y-102327254D01*
X121094295Y-100039160D02*
X121741914Y-100039160D01*
X121741914Y-100039160D02*
X121818104Y-100077255D01*
X121818104Y-100077255D02*
X121856200Y-100115350D01*
X121856200Y-100115350D02*
X121894295Y-100191541D01*
X121894295Y-100191541D02*
X121894295Y-100343922D01*
X121894295Y-100343922D02*
X121856200Y-100420112D01*
X121856200Y-100420112D02*
X121818104Y-100458207D01*
X121818104Y-100458207D02*
X121741914Y-100496303D01*
X121741914Y-100496303D02*
X121094295Y-100496303D01*
X121665723Y-100839159D02*
X121665723Y-101220112D01*
X121894295Y-100762969D02*
X121094295Y-101029636D01*
X121094295Y-101029636D02*
X121894295Y-101296302D01*
X121894295Y-102020112D02*
X121513342Y-101753445D01*
X121894295Y-101562969D02*
X121094295Y-101562969D01*
X121094295Y-101562969D02*
X121094295Y-101867731D01*
X121094295Y-101867731D02*
X121132390Y-101943921D01*
X121132390Y-101943921D02*
X121170485Y-101982016D01*
X121170485Y-101982016D02*
X121246676Y-102020112D01*
X121246676Y-102020112D02*
X121360961Y-102020112D01*
X121360961Y-102020112D02*
X121437152Y-101982016D01*
X121437152Y-101982016D02*
X121475247Y-101943921D01*
X121475247Y-101943921D02*
X121513342Y-101867731D01*
X121513342Y-101867731D02*
X121513342Y-101562969D01*
X121094295Y-102248683D02*
X121094295Y-102705826D01*
X121894295Y-102477254D02*
X121094295Y-102477254D01*
X121970485Y-102782017D02*
X121970485Y-103391540D01*
X121094295Y-103467731D02*
X121094295Y-103924874D01*
X121894295Y-103696302D02*
X121094295Y-103696302D01*
X121094295Y-104115350D02*
X121894295Y-104648684D01*
X121094295Y-104648684D02*
X121894295Y-104115350D01*
X129394295Y-98289160D02*
X128860961Y-98289160D01*
X128594295Y-98289160D02*
X128632390Y-98251064D01*
X128632390Y-98251064D02*
X128670485Y-98289160D01*
X128670485Y-98289160D02*
X128632390Y-98327255D01*
X128632390Y-98327255D02*
X128594295Y-98289160D01*
X128594295Y-98289160D02*
X128670485Y-98289160D01*
X128670485Y-98632016D02*
X128632390Y-98670112D01*
X128632390Y-98670112D02*
X128594295Y-98746302D01*
X128594295Y-98746302D02*
X128594295Y-98936778D01*
X128594295Y-98936778D02*
X128632390Y-99012969D01*
X128632390Y-99012969D02*
X128670485Y-99051064D01*
X128670485Y-99051064D02*
X128746676Y-99089159D01*
X128746676Y-99089159D02*
X128822866Y-99089159D01*
X128822866Y-99089159D02*
X128937152Y-99051064D01*
X128937152Y-99051064D02*
X129394295Y-98593921D01*
X129394295Y-98593921D02*
X129394295Y-99089159D01*
X129356200Y-99774874D02*
X129394295Y-99698683D01*
X129394295Y-99698683D02*
X129394295Y-99546302D01*
X129394295Y-99546302D02*
X129356200Y-99470112D01*
X129356200Y-99470112D02*
X129318104Y-99432017D01*
X129318104Y-99432017D02*
X129241914Y-99393921D01*
X129241914Y-99393921D02*
X129013342Y-99393921D01*
X129013342Y-99393921D02*
X128937152Y-99432017D01*
X128937152Y-99432017D02*
X128899057Y-99470112D01*
X128899057Y-99470112D02*
X128860961Y-99546302D01*
X128860961Y-99546302D02*
X128860961Y-99698683D01*
X128860961Y-99698683D02*
X128899057Y-99774874D01*
X129318104Y-101184398D02*
X129356200Y-101146302D01*
X129356200Y-101146302D02*
X129394295Y-101032017D01*
X129394295Y-101032017D02*
X129394295Y-100955826D01*
X129394295Y-100955826D02*
X129356200Y-100841540D01*
X129356200Y-100841540D02*
X129280009Y-100765350D01*
X129280009Y-100765350D02*
X129203819Y-100727255D01*
X129203819Y-100727255D02*
X129051438Y-100689159D01*
X129051438Y-100689159D02*
X128937152Y-100689159D01*
X128937152Y-100689159D02*
X128784771Y-100727255D01*
X128784771Y-100727255D02*
X128708580Y-100765350D01*
X128708580Y-100765350D02*
X128632390Y-100841540D01*
X128632390Y-100841540D02*
X128594295Y-100955826D01*
X128594295Y-100955826D02*
X128594295Y-101032017D01*
X128594295Y-101032017D02*
X128632390Y-101146302D01*
X128632390Y-101146302D02*
X128670485Y-101184398D01*
X129394295Y-101908207D02*
X129394295Y-101527255D01*
X129394295Y-101527255D02*
X128594295Y-101527255D01*
X129394295Y-102174874D02*
X128594295Y-102174874D01*
X129394295Y-102632017D02*
X128937152Y-102289159D01*
X128594295Y-102632017D02*
X129051438Y-102174874D01*
D11*
%TO.C,J6*%
X54376500Y-121668000D02*
G75*
G02*
X53614500Y-121668000I-381000J0D01*
G01*
X53614500Y-121668000D02*
G75*
G02*
X54376500Y-121668000I381000J0D01*
G01*
%TD*%
M02*
