M48
; DRILL file {KiCad 9.0.7} date 2026-04-16T17:11:48-0500
; FORMAT={-:-/ absolute / inch / decimal}
; #@! TF.CreationDate,2026-04-16T17:11:48-05:00
; #@! TF.GenerationSoftware,Kicad,Pcbnew,9.0.7
; #@! TF.FileFunction,MixedPlating,1,4
FMAT,2
INCH
; #@! TA.AperFunction,Plated,PTH,ViaDrill
T1C0.0079
; #@! TA.AperFunction,Plated,PTH,ComponentDrill
T2C0.0079
; #@! TA.AperFunction,Plated,PTH,ViaDrill
T3C0.0118
; #@! TA.AperFunction,Plated,PTH,ComponentDrill
T4C0.0276
; #@! TA.AperFunction,Plated,PTH,ComponentDrill
T5C0.0315
; #@! TA.AperFunction,Plated,PTH,ComponentDrill
T6C0.0354
; #@! TA.AperFunction,Plated,PTH,ComponentDrill
T7C0.0374
; #@! TA.AperFunction,Plated,PTH,ComponentDrill
T8C0.0394
; #@! TA.AperFunction,Plated,PTH,ComponentDrill
T9C0.0591
; #@! TA.AperFunction,Plated,PTH,ComponentDrill
T10C0.0630
; #@! TA.AperFunction,Plated,PTH,ComponentDrill
T11C0.0689
; #@! TA.AperFunction,NonPlated,NPTH,ComponentDrill
T12C0.0390
; #@! TA.AperFunction,NonPlated,NPTH,ComponentDrill
T13C0.0492
%
G90
G05
T1
X2.7087Y-5.1772
X2.748Y-5.1772
X2.7874Y-5.1772
X2.8268Y-5.1772
X2.8661Y-5.1772
X2.9055Y-5.1772
X2.9449Y-5.1772
X2.9843Y-5.1772
X3.061Y-5.0984
X3.061Y-5.128
X3.061Y-5.1575
X3.3169Y-5.2165
X3.3189Y-5.1378
X3.3189Y-5.1772
X3.3563Y-5.1378
X3.3583Y-5.1772
X3.3583Y-5.2165
X3.5827Y-4.6088
X3.6122Y-4.6088
X3.6417Y-4.6088
X3.8681Y-4.311
X3.878Y-3.878
X3.9567Y-4.124
X4.0157Y-4.0827
X4.0256Y-4.1929
X4.065Y-4.124
X4.1535Y-3.9862
X4.19Y-4.4085
X4.2323Y-4.2618
X4.2618Y-4.7146
X4.2815Y-4.2854
X4.3307Y-4.0748
X4.3583Y-4.3465
X4.3701Y-4.1535
X4.3799Y-4.6949
X4.3898Y-4.0748
X4.3898Y-4.3012
X4.4469Y-4.3661
X4.4473Y-4.0832
X4.4567Y-4.4114
X4.4783Y-4.684
X4.4861Y-5.1918
X4.4942Y-4.3504
X4.498Y-4.6161
X4.5177Y-3.9764
X4.5177Y-4.1535
X4.5472Y-4.4783
X4.5472Y-5.1181
X4.5866Y-4.4882
X4.5886Y-4.3666
X4.5888Y-4.4151
X4.5965Y-4.7343
X4.6063Y-3.9764
X4.6063Y-4.2126
X4.626Y-4.6752
X4.6358Y-4.3081
X4.6575Y-4.1024
X4.6594Y-4.7539
X4.6654Y-5.1378
X4.6732Y-4.439
X4.6949Y-5.1388
X4.6953Y-4.2156
X4.7047Y-3.9764
X4.7047Y-4.1721
X4.7303Y-4.6083
X4.7343Y-4.872
X4.7441Y-4.2913
X4.7548Y-4.0069
X4.755Y-4.5959
X4.779Y-4.5189
X4.7835Y-4.5462
X4.7835Y-4.7244
X4.7835Y-4.7539
X4.7933Y-4.4193
X4.7933Y-4.4882
X4.8228Y-4.311
X4.8228Y-4.3406
X4.8228Y-4.4291
X4.8524Y-4.2038
X4.8622Y-4.3406
X4.8819Y-4.498
X4.8917Y-4.4488
X4.9016Y-4.3406
X4.9075Y-4.8248
X4.9089Y-4.739
X4.9213Y-4.7638
X4.939Y-4.5512
X4.9409Y-4.2224
X4.9508Y-4.9409
X4.9655Y-4.3651
X4.9688Y-4.5604
X4.9705Y-4.8327
X4.9803Y-3.8189
X4.9862Y-4.502
X5.0Y-4.9409
X5.0089Y-4.8317
X5.0098Y-4.4291
X5.0098Y-4.4587
X5.0104Y-4.3805
X5.0295Y-4.1043
X5.0295Y-5.061
X5.0306Y-4.2117
X5.0394Y-4.6949
X5.0591Y-3.9665
X5.0689Y-4.9409
X5.0787Y-4.0069
X5.0787Y-4.7736
X5.0886Y-4.5768
X5.0995Y-4.1634
X5.1181Y-4.4882
X5.1181Y-4.9409
X5.1181Y-5.0591
X5.128Y-4.2421
X5.1673Y-4.2224
X5.2165Y-4.0453
X5.2221Y-4.1437
X5.2264Y-4.2126
X5.2461Y-4.2815
X5.2756Y-4.9606
X5.2953Y-3.9075
X5.3051Y-5.1289
X5.3108Y-4.5051
X5.3346Y-4.7205
X5.3346Y-5.1378
X5.3347Y-4.9016
X5.3543Y-4.4685
X5.3622Y-4.6693
X5.3642Y-4.2224
X5.374Y-5.0295
X5.4134Y-4.0157
X5.4232Y-3.7904
X5.4252Y-3.9134
X5.4331Y-4.8327
X5.4528Y-4.1466
X5.4921Y-4.9016
X5.5394Y-4.811
X5.5413Y-4.9409
X5.5413Y-4.9803
X5.5413Y-5.0689
X5.6004Y-4.9409
X5.6004Y-4.9803
X5.6102Y-4.813
X5.6398Y-4.9409
X5.6398Y-4.9803
X5.6496Y-4.813
X5.6791Y-5.0394
X5.6791Y-5.1673
X5.6791Y-5.2067
X5.689Y-4.626
X5.689Y-4.7638
X5.6988Y-5.2264
X5.7087Y-4.1535
X5.748Y-5.2559
X5.8268Y-5.1575
X5.8279Y-5.0787
X5.8858Y-4.7835
X5.9252Y-4.7835
T2
X6.0236Y-3.8976
X6.0236Y-5.1575
X6.063Y-3.8189
X6.063Y-3.9764
X6.063Y-5.0787
X6.063Y-5.2362
X6.1417Y-3.7795
X6.1417Y-4.0157
X6.1417Y-5.0394
X6.1417Y-5.2756
X6.2205Y-3.8189
X6.2205Y-3.9764
X6.2205Y-5.0787
X6.2205Y-5.2362
X6.2598Y-3.8976
X6.2598Y-5.1575
T3
X4.0261Y-4.6616
X4.065Y-4.2067
X4.1142Y-4.1535
X4.1732Y-5.1575
X4.2126Y-4.6417
X4.2421Y-5.1575
X4.3012Y-5.1575
X4.323Y-4.5313
X4.3283Y-4.4488
X4.3622Y-4.5394
X4.4685Y-4.5
X4.5482Y-4.6786
X4.5807Y-4.8524
X4.6654Y-4.6063
X4.6969Y-4.6339
X4.7953Y-5.0039
X4.813Y-4.0945
X4.813Y-5.0591
X4.813Y-4.0079
X4.9055Y-4.1457
X5.1772Y-4.6685
T4
X5.0787Y-3.8071
X5.1575Y-3.8071
X5.2108Y-4.5374
X5.2108Y-4.5874
X5.2362Y-3.8071
X5.2608Y-4.5374
X5.2608Y-4.5874
X5.3108Y-4.5374
X5.3108Y-4.5874
X5.315Y-3.8071
T5
X3.9764Y-5.0719
X3.9764Y-5.2096
X5.4626Y-4.3602
X5.6004Y-4.3602
T6
X5.5217Y-3.8701
X5.6201Y-3.8701
X5.7185Y-3.8701
X5.8169Y-3.8701
T7
X4.1969Y-3.8701
X4.2953Y-3.8701
X4.3937Y-3.8701
X4.4921Y-3.8701
X4.5906Y-3.8701
X4.689Y-3.8701
X4.7874Y-3.8701
X4.8858Y-3.8701
T8
X5.9016Y-4.8819
T9
X3.7717Y-4.9331
X4.0165Y-4.8425
X4.2165Y-4.8425
X4.3165Y-4.8425
X4.4165Y-4.8425
X4.6535Y-4.9331
T10
X2.1258Y-4.0148
X2.1258Y-4.6384
T11
X2.5512Y-4.1173
X2.5512Y-4.7093
X2.5512Y-4.9173
X3.5512Y-4.1173
X3.5512Y-4.9173
T12
X5.1608Y-4.5224
X5.1608Y-4.6024
X5.3608Y-4.5624
T13
X4.1339Y-3.9331
M30
