%TF.GenerationSoftware,KiCad,Pcbnew,9.0.7*%
%TF.CreationDate,2026-04-16T17:11:48-05:00*%
%TF.ProjectId,OSLUV,4f534c55-562e-46b6-9963-61645f706362,01*%
%TF.SameCoordinates,PX2faf080PY5a995c0*%
%TF.FileFunction,Copper,L4,Bot*%
%TF.FilePolarity,Positive*%
%FSLAX46Y46*%
G04 Gerber Fmt 4.6, Leading zero omitted, Abs format (unit mm)*
G04 Created by KiCad (PCBNEW 9.0.7) date 2026-04-16 17:11:48*
%MOMM*%
%LPD*%
G01*
G04 APERTURE LIST*
G04 Aperture macros list*
%AMRoundRect*
0 Rectangle with rounded corners*
0 $1 Rounding radius*
0 $2 $3 $4 $5 $6 $7 $8 $9 X,Y pos of 4 corners*
0 Add a 4 corners polygon primitive as box body*
4,1,4,$2,$3,$4,$5,$6,$7,$8,$9,$2,$3,0*
0 Add four circle primitives for the rounded corners*
1,1,$1+$1,$2,$3*
1,1,$1+$1,$4,$5*
1,1,$1+$1,$6,$7*
1,1,$1+$1,$8,$9*
0 Add four rect primitives between the rounded corners*
20,1,$1+$1,$2,$3,$4,$5,0*
20,1,$1+$1,$4,$5,$6,$7,0*
20,1,$1+$1,$6,$7,$8,$9,0*
20,1,$1+$1,$8,$9,$2,$3,0*%
G04 Aperture macros list end*
%ADD10C,0.200000*%
%TA.AperFunction,ComponentPad*%
%ADD11O,1.905000X4.500000*%
%TD*%
%TA.AperFunction,ComponentPad*%
%ADD12C,2.500000*%
%TD*%
%TA.AperFunction,ComponentPad*%
%ADD13C,0.600000*%
%TD*%
%TA.AperFunction,SMDPad,CuDef*%
%ADD14C,6.600000*%
%TD*%
%TA.AperFunction,ComponentPad*%
%ADD15C,2.600000*%
%TD*%
%TA.AperFunction,ComponentPad*%
%ADD16R,1.600000X1.600000*%
%TD*%
%TA.AperFunction,ComponentPad*%
%ADD17C,1.600000*%
%TD*%
%TA.AperFunction,ComponentPad*%
%ADD18RoundRect,0.250000X-0.600000X-0.725000X0.600000X-0.725000X0.600000X0.725000X-0.600000X0.725000X0*%
%TD*%
%TA.AperFunction,ComponentPad*%
%ADD19O,1.700000X1.950000*%
%TD*%
%TA.AperFunction,ComponentPad*%
%ADD20R,1.400000X1.100000*%
%TD*%
%TA.AperFunction,ComponentPad*%
%ADD21C,1.400000*%
%TD*%
%TA.AperFunction,ComponentPad*%
%ADD22C,1.000000*%
%TD*%
%TA.AperFunction,ComponentPad*%
%ADD23C,2.625000*%
%TD*%
%TA.AperFunction,ComponentPad*%
%ADD24R,2.000000X2.000000*%
%TD*%
%TA.AperFunction,ViaPad*%
%ADD25C,0.550000*%
%TD*%
%TA.AperFunction,ViaPad*%
%ADD26C,0.600000*%
%TD*%
%TA.AperFunction,Conductor*%
%ADD27C,1.000000*%
%TD*%
%TA.AperFunction,Conductor*%
%ADD28C,0.200000*%
%TD*%
%TA.AperFunction,Conductor*%
%ADD29C,0.152400*%
%TD*%
%TA.AperFunction,Conductor*%
%ADD30C,0.500000*%
%TD*%
G04 APERTURE END LIST*
D10*
X130000000Y-145000000D02*
X130000000Y-145000000D01*
D11*
%TO.P,T101,1,D*%
%TO.N,/excimerDriver/lampDriver/HV_Drain*%
X102020000Y-123000000D03*
%TO.P,T101,2,S*%
%TO.N,/excimerDriver/lampDriver/Source*%
X107100000Y-123000000D03*
%TO.P,T101,3,K*%
X109640000Y-123000000D03*
%TO.P,T101,4,G*%
%TO.N,Net-(T101-G)*%
X112180000Y-123000000D03*
%TD*%
D12*
%TO.P,M1,1,1*%
%TO.N,GND*%
X118200000Y-125300000D03*
X95800000Y-125300000D03*
%TD*%
D13*
%TO.P,H3,1,1*%
%TO.N,/excimerDriver/EARTH*%
X153000000Y-99000000D03*
X154000000Y-97000000D03*
X154000000Y-101000000D03*
X156000000Y-96000000D03*
D14*
X156000000Y-99000000D03*
D13*
X156000000Y-102000000D03*
X158000000Y-97000000D03*
X158000000Y-101000000D03*
X159000000Y-99000000D03*
%TD*%
D15*
%TO.P,J6,1,1*%
%TO.N,/excimerDriver/lampDriver/Lamp_GND*%
X53995500Y-117815100D03*
D12*
%TO.P,J6,5,5*%
%TO.N,/excimerDriver/lampDriver/HV_Lamp*%
X53995500Y-101975101D03*
%TD*%
D16*
%TO.P,C42,1*%
%TO.N,/excimerDriver/VDC_power*%
X101000000Y-132325000D03*
D17*
%TO.P,C42,2*%
%TO.N,GND*%
X101000000Y-128825000D03*
%TD*%
D18*
%TO.P,J2,1,1*%
%TO.N,/excimerDriver/VDC*%
X106600000Y-98300000D03*
D19*
%TO.P,J2,2,2*%
%TO.N,GND*%
X109100000Y-98300000D03*
%TO.P,J2,3,3*%
X111600000Y-98300000D03*
%TO.P,J2,4,4*%
%TO.N,/excimerDriver/!REMOTE*%
X114100000Y-98300000D03*
%TO.P,J2,5,5*%
%TO.N,/excimerDriver/Lamp_on_status*%
X116600000Y-98300000D03*
%TO.P,J2,6,6*%
%TO.N,Net-(J2-Pad6)*%
X119100000Y-98300000D03*
%TO.P,J2,7,7*%
%TO.N,Net-(J2-Pad7)*%
X121600000Y-98300000D03*
%TO.P,J2,8,8*%
%TO.N,Net-(J2-Pad8)*%
X124100000Y-98300000D03*
%TD*%
D13*
%TO.P,H4,1,1*%
%TO.N,/excimerDriver/EARTH*%
X153000000Y-131000000D03*
X154000000Y-129000000D03*
X154000000Y-133000000D03*
X156000000Y-128000000D03*
D14*
X156000000Y-131000000D03*
D13*
X156000000Y-134000000D03*
X158000000Y-129000000D03*
X158000000Y-133000000D03*
X159000000Y-131000000D03*
%TD*%
D16*
%TO.P,C101,1*%
%TO.N,/excimerDriver/24V_FUSE*%
X142250000Y-110750000D03*
D17*
%TO.P,C101,2*%
%TO.N,GND*%
X138750000Y-110750000D03*
%TD*%
D20*
%TO.P,J5,1,1*%
%TO.N,Net-(J5-Pad1)*%
X129000000Y-96700000D03*
D21*
%TO.P,J5,2,2*%
%TO.N,Net-(J5-Pad2)*%
X131000000Y-96700000D03*
%TO.P,J5,3,3*%
%TO.N,Net-(F2-Pad2)*%
X133000000Y-96700000D03*
%TO.P,J5,4,4*%
%TO.N,GND*%
X135000000Y-96700000D03*
%TD*%
D22*
%TO.P,J3,1*%
%TO.N,+3V3*%
X134893300Y-115250000D03*
%TO.P,J3,2*%
%TO.N,/excimerDriver/SWDIO*%
X134893300Y-116520000D03*
%TO.P,J3,3*%
%TO.N,/excimerDriver/RESET*%
X133623300Y-115250000D03*
%TO.P,J3,4*%
%TO.N,/excimerDriver/SWCLK*%
X133623300Y-116520000D03*
%TO.P,J3,5*%
%TO.N,GND*%
X132353300Y-115250000D03*
%TO.P,J3,6*%
%TO.N,unconnected-(J3-Pad6)*%
X132353300Y-116520000D03*
%TD*%
D23*
%TO.P,L101,2,2*%
%TO.N,/excimerDriver/lampDriver/HV_Lamp*%
X64800000Y-104580000D03*
%TO.P,L101,4,4*%
%TO.N,GND*%
X64800000Y-119616800D03*
%TO.P,L101,5,5*%
%TO.N,/excimerDriver/lampDriver/VDC_Trafo*%
X64800000Y-124900000D03*
%TO.P,L101,8,8*%
%TO.N,/excimerDriver/lampDriver/HV_Drain*%
X90200000Y-124900000D03*
%TO.P,L101,12,12*%
%TO.N,/excimerDriver/lampDriver/HV_Lamp{slash}2*%
X90200000Y-104580000D03*
%TD*%
D16*
%TO.P,J1,1,1*%
%TO.N,/excimerDriver/VDC*%
X140250000Y-98300000D03*
D17*
%TO.P,J1,2,2*%
%TO.N,/excimerDriver/!REMOTE*%
X142750000Y-98300000D03*
%TO.P,J1,3,3*%
%TO.N,/excimerDriver/Lamp_on_status*%
X145250000Y-98300000D03*
%TO.P,J1,4,4*%
%TO.N,GND*%
X147750000Y-98300000D03*
%TD*%
D24*
%TO.P,TP12,1,1*%
%TO.N,GND*%
X149900000Y-124000000D03*
%TD*%
D25*
%TO.N,GND*%
X111250000Y-119250000D03*
D26*
X110800000Y-115300000D03*
X122250000Y-104000000D03*
D25*
X136000000Y-113500000D03*
X128500000Y-100750000D03*
D26*
X124600000Y-105300000D03*
D25*
X125000000Y-121000000D03*
D26*
X104500000Y-105500000D03*
D25*
X125750000Y-125500000D03*
X129000000Y-121250000D03*
X114250000Y-117250000D03*
X144750000Y-132750000D03*
X91750000Y-117062500D03*
X124500000Y-110250000D03*
X143500000Y-122250000D03*
X92500000Y-117062500D03*
X122500000Y-112500000D03*
X128000000Y-119250000D03*
X135500000Y-130500000D03*
X115500000Y-130000000D03*
X117500000Y-118750000D03*
X127000000Y-125500000D03*
X114750000Y-101000000D03*
X127250000Y-112500000D03*
X127750000Y-128550000D03*
X121500000Y-120750000D03*
X150500000Y-121500000D03*
X118300000Y-104200000D03*
X136250000Y-107250000D03*
X144250000Y-131250000D03*
X134750000Y-130275000D03*
X75800000Y-131500000D03*
D26*
X103250000Y-106850000D03*
D25*
X119250000Y-130525000D03*
X128750000Y-125500000D03*
X72800000Y-131500000D03*
X122500000Y-110250000D03*
X139500000Y-124500000D03*
X116750000Y-120250000D03*
X116556251Y-112143749D03*
X111500000Y-103500000D03*
X130250000Y-107750000D03*
X68800000Y-131500000D03*
X102000000Y-103700000D03*
X106425000Y-111975000D03*
X126122929Y-110872929D03*
X136200000Y-118600000D03*
X120250000Y-123750000D03*
X118500000Y-130500000D03*
X138500000Y-105322600D03*
X130000000Y-128500000D03*
X71800000Y-131500000D03*
X117000000Y-101000000D03*
D26*
X106000000Y-131000000D03*
X113500000Y-114300000D03*
D25*
X149500000Y-121500000D03*
X146000000Y-133500000D03*
X126500000Y-97000000D03*
X91000000Y-117062500D03*
X74800000Y-131500000D03*
X140700000Y-122200000D03*
X111000000Y-105500000D03*
D26*
X107000000Y-117900000D03*
D25*
X118350000Y-120750000D03*
X108750000Y-108850000D03*
X144500000Y-117500000D03*
X105500000Y-101250000D03*
X73800000Y-131500000D03*
X144250000Y-128000000D03*
X114750000Y-105500000D03*
X135500000Y-119900000D03*
X142500000Y-122250000D03*
X144500000Y-121000000D03*
X132500000Y-102750000D03*
X70800000Y-131500000D03*
D26*
X107750000Y-131000000D03*
D25*
X126650000Y-114350000D03*
X124000000Y-114250000D03*
X98250000Y-109500000D03*
X119261828Y-107075000D03*
X119500000Y-101000000D03*
X148027400Y-129000000D03*
X134500000Y-99250000D03*
D26*
X119300000Y-117700000D03*
D25*
X130000000Y-125500000D03*
X69800000Y-131500000D03*
X110000000Y-103500000D03*
D26*
X109250000Y-131000000D03*
D25*
%TO.N,+3V3*%
X127225000Y-122725000D03*
X131250000Y-107250000D03*
X100500000Y-104750000D03*
D26*
X122250371Y-101800000D03*
D25*
X121500000Y-120000000D03*
X134893300Y-114428897D03*
D26*
X115524000Y-118835952D03*
D25*
X113200000Y-112050000D03*
X148000000Y-131000000D03*
D26*
X121800000Y-127100000D03*
X109804020Y-115095980D03*
D25*
X132640800Y-105250000D03*
X124650000Y-122550000D03*
X127250000Y-113250000D03*
X117000000Y-107000000D03*
X127750000Y-104250000D03*
X137500000Y-102000000D03*
X107500000Y-108250000D03*
X126250000Y-122750000D03*
X127777400Y-106976745D03*
X111500000Y-109250000D03*
%TO.N,/excimerDriver/Isense_In*%
X124250000Y-113000000D03*
X140750000Y-128750000D03*
%TO.N,/excimerDriver/VDC_power*%
X85300000Y-132500000D03*
X143250000Y-125500000D03*
X140750000Y-126500000D03*
X84300000Y-131500000D03*
X85250000Y-130500000D03*
X140750000Y-125500000D03*
X84250000Y-132500000D03*
X84300000Y-130500000D03*
X143250000Y-126500000D03*
X85300000Y-131500000D03*
X142250000Y-125500000D03*
X142250000Y-126500000D03*
%TO.N,Net-(D18-A)*%
X113947789Y-131870457D03*
X115500000Y-113750000D03*
%TO.N,/excimerDriver/OCP*%
X112950000Y-110900000D03*
D26*
X109940000Y-113000000D03*
D25*
X116550000Y-110912500D03*
%TO.N,/excimerDriver/Usense_Lamp*%
X120500000Y-109000000D03*
X114152600Y-110500000D03*
X112962500Y-103712500D03*
%TO.N,/excimerDriver/SWDIO*%
X121500000Y-115472600D03*
%TO.N,/excimerDriver/temp_MOSFET*%
X126206468Y-115835098D03*
D26*
X118500000Y-117000000D03*
X116350000Y-123250000D03*
D25*
X116500000Y-114000000D03*
%TO.N,/excimerDriver/Status*%
X123250000Y-106777400D03*
X120770855Y-101775000D03*
%TO.N,/excimerDriver/PWM*%
X123500000Y-110250000D03*
X119500000Y-105972600D03*
D26*
%TO.N,/excimerDriver/SWCLK*%
X131500000Y-118580800D03*
D25*
X120778248Y-116735876D03*
%TO.N,/excimerDriver/UV_LED*%
X103250000Y-104750000D03*
X125500000Y-107250000D03*
%TO.N,/excimerDriver/24V_Sense*%
X127264735Y-111264735D03*
X144250000Y-132250000D03*
%TO.N,/excimerDriver/MCU_REMOTE*%
X129250000Y-116250000D03*
X132750000Y-107000000D03*
D26*
%TO.N,/excimerDriver/DRV*%
X122250000Y-128500000D03*
D25*
X120150000Y-117050000D03*
D26*
%TO.N,/excimerDriver/lampDriver/HV_Drain*%
X102263341Y-118403716D03*
D25*
%TO.N,/excimerDriver/Isense_Lamp*%
X102250000Y-106500000D03*
X122500000Y-109500000D03*
X110700000Y-110400000D03*
%TO.N,/excimerDriver/Isense_MOS*%
X113750000Y-118972600D03*
%TO.N,/excimerDriver/lampDriver/VDC_Trafo*%
X77750000Y-131000000D03*
X77750000Y-130250000D03*
X77750000Y-129500000D03*
%TO.N,/excimerDriver/24V_FUSE*%
X145000000Y-105500000D03*
X98500000Y-98500000D03*
%TO.N,/excimerDriver/VDC_filter*%
X138000000Y-122750000D03*
X136500000Y-127750000D03*
%TO.N,/excimerDriver/I2C_SCL*%
X129000000Y-101775000D03*
X121750000Y-114000000D03*
%TO.N,/excimerDriver/I2C_SDA*%
X121387816Y-114779216D03*
X129527400Y-105750000D03*
%TO.N,/excimerDriver/OCP_RESET*%
X121750000Y-112250000D03*
X108250000Y-119750000D03*
%TO.N,/excimerDriver/LED1*%
X130000000Y-114000000D03*
X133250000Y-108750000D03*
%TO.N,/excimerDriver/Lamp_on_status*%
X137750000Y-96277400D03*
%TO.N,/excimerDriver/!REMOTE*%
X137800000Y-99400000D03*
%TO.N,Net-(IC6-BST)*%
X135500216Y-124500000D03*
X134000000Y-126000000D03*
%TO.N,Net-(IC3-PA5)*%
X125450000Y-115600000D03*
X124685876Y-120371752D03*
%TO.N,Net-(IC2C-+)*%
X118700000Y-112750000D03*
X117750000Y-109425000D03*
%TD*%
D27*
%TO.N,GND*%
X110000000Y-100000000D02*
X109100000Y-99100000D01*
D28*
X132637500Y-121612500D02*
X132750000Y-121725000D01*
D27*
X126500000Y-100000000D02*
X110000000Y-100000000D01*
X109100000Y-99100000D02*
X109100000Y-98000000D01*
D28*
X132750000Y-121500000D02*
X132637500Y-121612500D01*
D27*
X137550000Y-98200000D02*
X128300000Y-98200000D01*
X146750000Y-97000000D02*
X145750000Y-96000000D01*
X145750000Y-96000000D02*
X139750000Y-96000000D01*
X139750000Y-96000000D02*
X137550000Y-98200000D01*
X128300000Y-98200000D02*
X126500000Y-100000000D01*
D29*
%TO.N,+3V3*%
X134832923Y-114428897D02*
X134893300Y-114428897D01*
%TO.N,/excimerDriver/RESET*%
X133623300Y-115412466D02*
X133623300Y-115250000D01*
D28*
%TO.N,/excimerDriver/Isense_In*%
X146500000Y-125000000D02*
X146500000Y-127500000D01*
X126900000Y-116400000D02*
X126900000Y-115350000D01*
X136950000Y-119250000D02*
X141700000Y-124000000D01*
X132000000Y-119250000D02*
X136950000Y-119250000D01*
X132000000Y-119250000D02*
X131500000Y-119250000D01*
X146500000Y-127500000D02*
X145250000Y-128750000D01*
X141700000Y-124000000D02*
X145500000Y-124000000D01*
X129750000Y-119250000D02*
X126900000Y-116400000D01*
X126900000Y-115350000D02*
X124550000Y-113000000D01*
X145500000Y-124000000D02*
X146500000Y-125000000D01*
X124550000Y-113000000D02*
X124250000Y-113000000D01*
X132000000Y-119250000D02*
X129750000Y-119250000D01*
X145250000Y-128750000D02*
X140750000Y-128750000D01*
%TO.N,Net-(D18-A)*%
X116471600Y-130528400D02*
X117500000Y-129500000D01*
X113947789Y-131870457D02*
X115289846Y-130528400D01*
X115289846Y-130528400D02*
X116471600Y-130528400D01*
X117500000Y-129500000D02*
X117500000Y-127250000D01*
X117500000Y-127250000D02*
X114971600Y-124721600D01*
X114971600Y-115653400D02*
X115500000Y-115125000D01*
X114971600Y-124721600D02*
X114971600Y-115653400D01*
X115500000Y-115125000D02*
X115500000Y-113750000D01*
%TO.N,/excimerDriver/OCP*%
X116337500Y-110912500D02*
X116550000Y-110912500D01*
X112950000Y-110900000D02*
X113550000Y-111500000D01*
X115750000Y-111500000D02*
X116337500Y-110912500D01*
X110850000Y-113000000D02*
X112950000Y-110900000D01*
X109940000Y-113000000D02*
X109750000Y-113190000D01*
X109940000Y-113000000D02*
X110850000Y-113000000D01*
X113550000Y-111500000D02*
X115750000Y-111500000D01*
%TO.N,/excimerDriver/Usense_Lamp*%
X119400000Y-107900000D02*
X116600000Y-107900000D01*
X120500000Y-109000000D02*
X119400000Y-107900000D01*
X114150000Y-110350000D02*
X114150000Y-110497400D01*
X116600000Y-107900000D02*
X114150000Y-110350000D01*
X116500000Y-107900000D02*
X116600000Y-107900000D01*
X114485456Y-107235456D02*
X115250000Y-107235456D01*
X112875000Y-103800000D02*
X112875000Y-105625000D01*
X115250000Y-107235456D02*
X115835456Y-107235456D01*
X114150000Y-110497400D02*
X114152600Y-110500000D01*
X115000000Y-107235456D02*
X115250000Y-107235456D01*
X112962500Y-103712500D02*
X112875000Y-103800000D01*
X112875000Y-105625000D02*
X114485456Y-107235456D01*
X115835456Y-107235456D02*
X116500000Y-107900000D01*
D29*
%TO.N,/excimerDriver/SWDIO*%
X134893300Y-116520000D02*
X134893300Y-116250000D01*
D28*
%TO.N,/excimerDriver/temp_MOSFET*%
X126206468Y-115506468D02*
X125600000Y-114900000D01*
X119000000Y-116000000D02*
X118500000Y-116500000D01*
X116500000Y-114000000D02*
X117000000Y-114000000D01*
X117000000Y-114000000D02*
X119000000Y-116000000D01*
X118500000Y-116500000D02*
X118500000Y-117000000D01*
X125600000Y-114900000D02*
X124700000Y-114900000D01*
X124700000Y-114900000D02*
X123600000Y-116000000D01*
X118500000Y-119500000D02*
X116350000Y-121650000D01*
X118500000Y-118000000D02*
X118500000Y-119500000D01*
X126206468Y-115835098D02*
X126206468Y-115506468D01*
X118500000Y-118000000D02*
X118500000Y-117000000D01*
X116350000Y-121650000D02*
X116350000Y-123250000D01*
X123600000Y-116000000D02*
X119000000Y-116000000D01*
%TO.N,/excimerDriver/Status*%
X120770855Y-102270855D02*
X120770855Y-101775000D01*
X121300000Y-102800000D02*
X120770855Y-102270855D01*
X122800000Y-102800000D02*
X121300000Y-102800000D01*
X123500000Y-103500000D02*
X122800000Y-102800000D01*
X123500000Y-106527400D02*
X123500000Y-103500000D01*
X123250000Y-106777400D02*
X123500000Y-106527400D01*
%TO.N,/excimerDriver/PWM*%
X123500000Y-109250000D02*
X120222600Y-105972600D01*
X123500000Y-110250000D02*
X123500000Y-109250000D01*
X120222600Y-105972600D02*
X119500000Y-105972600D01*
%TO.N,/excimerDriver/UV_LED*%
X107000000Y-102000000D02*
X113750000Y-102000000D01*
X104250000Y-104750000D02*
X107000000Y-102000000D01*
X123000000Y-107500000D02*
X125250000Y-107500000D01*
X103250000Y-104750000D02*
X104250000Y-104750000D01*
X120250000Y-104750000D02*
X123000000Y-107500000D01*
X113750000Y-102000000D02*
X116500000Y-104750000D01*
X116500000Y-104750000D02*
X120250000Y-104750000D01*
X125250000Y-107500000D02*
X125500000Y-107250000D01*
%TO.N,/excimerDriver/24V_Sense*%
X127500000Y-115700000D02*
X129828400Y-118028400D01*
X145750000Y-123000000D02*
X147500000Y-124750000D01*
X142250000Y-123000000D02*
X143250466Y-123000000D01*
X147500000Y-129000000D02*
X144250000Y-132250000D01*
X126500000Y-113450000D02*
X127500000Y-114450000D01*
X129828400Y-118028400D02*
X137278400Y-118028400D01*
X143749534Y-123000000D02*
X145750000Y-123000000D01*
X127264735Y-111264735D02*
X126500000Y-112029470D01*
X143719534Y-123030000D02*
X143749534Y-123000000D01*
X137278400Y-118028400D02*
X142250000Y-123000000D01*
X127500000Y-114450000D02*
X127500000Y-115700000D01*
X143250466Y-123000000D02*
X143280466Y-123030000D01*
X147500000Y-124750000D02*
X147500000Y-129000000D01*
X126500000Y-112029470D02*
X126500000Y-113450000D01*
X143280466Y-123030000D02*
X143719534Y-123030000D01*
%TO.N,/excimerDriver/MCU_REMOTE*%
X128500000Y-111250000D02*
X132750000Y-107000000D01*
X129250000Y-116250000D02*
X128500000Y-115500000D01*
X128500000Y-115500000D02*
X128500000Y-111250000D01*
%TO.N,/excimerDriver/DRV*%
X124000000Y-120900000D02*
X124000000Y-126750000D01*
X124000000Y-126750000D02*
X122250000Y-128500000D01*
X120150000Y-117050000D02*
X124000000Y-120900000D01*
%TO.N,/excimerDriver/lampDriver/HV_Drain*%
X102250000Y-118602875D02*
X102263341Y-118616216D01*
%TO.N,/excimerDriver/Isense_Lamp*%
X118100000Y-106500000D02*
X117300000Y-105700000D01*
X117300000Y-105700000D02*
X116236000Y-105700000D01*
X107250000Y-106250000D02*
X110700000Y-109700000D01*
X108000000Y-104250000D02*
X108000000Y-105500000D01*
X108000000Y-105500000D02*
X107250000Y-106250000D01*
X109500000Y-102750000D02*
X108000000Y-104250000D01*
X110700000Y-109700000D02*
X110700000Y-110400000D01*
X119500000Y-106500000D02*
X118100000Y-106500000D01*
X113286000Y-102750000D02*
X109500000Y-102750000D01*
X122500000Y-109500000D02*
X119500000Y-106500000D01*
X107250000Y-106250000D02*
X102250000Y-106250000D01*
X116236000Y-105700000D02*
X113286000Y-102750000D01*
D30*
%TO.N,/excimerDriver/VDC_filter*%
X136500000Y-127750000D02*
X138000000Y-126250000D01*
X138000000Y-126250000D02*
X138000000Y-122750000D01*
D28*
%TO.N,/excimerDriver/I2C_SCL*%
X129000000Y-106750000D02*
X129000000Y-101775000D01*
X121750000Y-114000000D02*
X129000000Y-106750000D01*
%TO.N,/excimerDriver/I2C_SDA*%
X121970784Y-114779216D02*
X122500000Y-114250000D01*
X122500000Y-113750000D02*
X129500000Y-106750000D01*
X129500000Y-105750000D02*
X129527400Y-105750000D01*
X129500000Y-106750000D02*
X129500000Y-105750000D01*
X122500000Y-114250000D02*
X122500000Y-113750000D01*
X121387816Y-114779216D02*
X121970784Y-114779216D01*
%TO.N,/excimerDriver/OCP_RESET*%
X120400000Y-113600000D02*
X118350000Y-113600000D01*
X115000000Y-112750000D02*
X114500000Y-113250000D01*
X118350000Y-113600000D02*
X117500000Y-112750000D01*
X114500000Y-113250000D02*
X114500000Y-114600000D01*
X121750000Y-112250000D02*
X120400000Y-113600000D01*
X117500000Y-112750000D02*
X115000000Y-112750000D01*
X114500000Y-114600000D02*
X109350000Y-119750000D01*
X109350000Y-119750000D02*
X108250000Y-119750000D01*
%TO.N,/excimerDriver/LED1*%
X132750000Y-111250000D02*
X132750000Y-109250000D01*
X130000000Y-114000000D02*
X132750000Y-111250000D01*
X132750000Y-109250000D02*
X133250000Y-108750000D01*
%TO.N,/excimerDriver/Lamp_on_status*%
X137219200Y-95746600D02*
X119153400Y-95746600D01*
X119153400Y-95746600D02*
X116600000Y-98300000D01*
X116600000Y-98000000D02*
X116500000Y-98000000D01*
X137750000Y-96277400D02*
X137219200Y-95746600D01*
%TO.N,Net-(IC6-BST)*%
X134000000Y-126000000D02*
X135500000Y-124500000D01*
X135500000Y-124500000D02*
X135500216Y-124500000D01*
%TO.N,Net-(IC3-PA5)*%
X125450000Y-115600000D02*
X125450000Y-119607628D01*
X125450000Y-119607628D02*
X124685876Y-120371752D01*
%TO.N,Net-(IC2C-+)*%
X117750000Y-109425000D02*
X118850000Y-110525000D01*
X118850000Y-110525000D02*
X118850000Y-112600000D01*
X118850000Y-112600000D02*
X118700000Y-112750000D01*
%TD*%
%TA.AperFunction,Conductor*%
%TO.N,/excimerDriver/EARTH*%
G36*
X159442539Y-95520185D02*
G01*
X159488294Y-95572989D01*
X159499500Y-95624500D01*
X159499500Y-134375500D01*
X159479815Y-134442539D01*
X159427011Y-134488294D01*
X159375500Y-134499500D01*
X153124000Y-134499500D01*
X153056961Y-134479815D01*
X153011206Y-134427011D01*
X153000000Y-134375500D01*
X153000000Y-130862332D01*
X153899500Y-130862332D01*
X153899500Y-131137667D01*
X153899501Y-131137684D01*
X153935438Y-131410655D01*
X153935439Y-131410660D01*
X153935440Y-131410666D01*
X153935441Y-131410668D01*
X154006704Y-131676630D01*
X154112075Y-131931017D01*
X154112080Y-131931028D01*
X154175343Y-132040601D01*
X154249751Y-132169479D01*
X154249753Y-132169482D01*
X154249754Y-132169483D01*
X154417370Y-132387926D01*
X154417376Y-132387933D01*
X154612066Y-132582623D01*
X154612072Y-132582628D01*
X154830521Y-132750249D01*
X154983778Y-132838732D01*
X155068971Y-132887919D01*
X155068976Y-132887921D01*
X155068979Y-132887923D01*
X155323368Y-132993295D01*
X155589334Y-133064560D01*
X155862326Y-133100500D01*
X155862333Y-133100500D01*
X156137667Y-133100500D01*
X156137674Y-133100500D01*
X156410666Y-133064560D01*
X156676632Y-132993295D01*
X156931021Y-132887923D01*
X157169479Y-132750249D01*
X157387928Y-132582628D01*
X157582628Y-132387928D01*
X157750249Y-132169479D01*
X157887923Y-131931021D01*
X157993295Y-131676632D01*
X158064560Y-131410666D01*
X158100500Y-131137674D01*
X158100500Y-130862326D01*
X158064560Y-130589334D01*
X157993295Y-130323368D01*
X157887923Y-130068979D01*
X157887921Y-130068976D01*
X157887919Y-130068971D01*
X157815427Y-129943413D01*
X157750249Y-129830521D01*
X157582628Y-129612072D01*
X157582623Y-129612066D01*
X157387933Y-129417376D01*
X157387926Y-129417370D01*
X157169483Y-129249754D01*
X157169482Y-129249753D01*
X157169479Y-129249751D01*
X157074407Y-129194861D01*
X156931028Y-129112080D01*
X156931017Y-129112075D01*
X156676630Y-129006704D01*
X156543649Y-128971072D01*
X156410666Y-128935440D01*
X156410660Y-128935439D01*
X156410655Y-128935438D01*
X156137684Y-128899501D01*
X156137679Y-128899500D01*
X156137674Y-128899500D01*
X155862326Y-128899500D01*
X155862320Y-128899500D01*
X155862315Y-128899501D01*
X155589344Y-128935438D01*
X155589337Y-128935439D01*
X155589334Y-128935440D01*
X155533125Y-128950500D01*
X155323369Y-129006704D01*
X155068982Y-129112075D01*
X155068971Y-129112080D01*
X154830516Y-129249754D01*
X154612073Y-129417370D01*
X154612066Y-129417376D01*
X154417376Y-129612066D01*
X154417370Y-129612073D01*
X154249754Y-129830516D01*
X154112080Y-130068971D01*
X154112075Y-130068982D01*
X154006704Y-130323369D01*
X153935441Y-130589331D01*
X153935438Y-130589344D01*
X153899501Y-130862315D01*
X153899500Y-130862332D01*
X153000000Y-130862332D01*
X153000000Y-129641340D01*
X153018214Y-129576645D01*
X153062772Y-129503789D01*
X153162332Y-129321456D01*
X153166831Y-129313875D01*
X153289299Y-129123311D01*
X153294341Y-129116051D01*
X153430088Y-128934714D01*
X153435628Y-128927838D01*
X153583990Y-128756618D01*
X153589996Y-128750168D01*
X153750168Y-128589996D01*
X153756618Y-128583990D01*
X153958700Y-128408885D01*
X153960398Y-128407442D01*
X154154454Y-128245583D01*
X154440896Y-127962255D01*
X154698189Y-127652215D01*
X154923853Y-127318449D01*
X154950539Y-127274473D01*
X155061446Y-127079936D01*
X155233707Y-126715724D01*
X155369439Y-126336381D01*
X155467335Y-125945561D01*
X155508540Y-125738412D01*
X155552305Y-125473331D01*
X155553589Y-125463578D01*
X155579923Y-125196203D01*
X155580136Y-125192946D01*
X155581207Y-125182897D01*
X155585731Y-125152409D01*
X155605500Y-124750000D01*
X155605500Y-104937781D01*
X155592258Y-104608299D01*
X155540257Y-104208774D01*
X155540254Y-104208759D01*
X155540252Y-104208741D01*
X155532441Y-104165454D01*
X155532438Y-104165440D01*
X155470158Y-103879149D01*
X155351486Y-103494128D01*
X155195648Y-103122593D01*
X155004142Y-102768122D01*
X154778815Y-102434128D01*
X154778795Y-102434101D01*
X154736960Y-102378215D01*
X154736954Y-102378207D01*
X154736946Y-102378197D01*
X154504556Y-102095028D01*
X154504543Y-102095015D01*
X154504537Y-102095008D01*
X154220947Y-101808877D01*
X154220940Y-101808871D01*
X153974822Y-101605042D01*
X153972777Y-101603310D01*
X153756639Y-101416025D01*
X153750161Y-101409993D01*
X153589997Y-101249829D01*
X153583965Y-101243351D01*
X153435629Y-101072163D01*
X153430075Y-101065270D01*
X153294349Y-100883961D01*
X153289320Y-100876719D01*
X153166835Y-100686129D01*
X153162329Y-100678533D01*
X153109958Y-100582623D01*
X153053757Y-100479699D01*
X153049803Y-100471799D01*
X153011205Y-100387278D01*
X153000000Y-100335768D01*
X153000000Y-98862332D01*
X153899500Y-98862332D01*
X153899500Y-99137667D01*
X153899501Y-99137684D01*
X153935438Y-99410655D01*
X153935439Y-99410660D01*
X153935440Y-99410666D01*
X153935441Y-99410668D01*
X154006704Y-99676630D01*
X154112075Y-99931017D01*
X154112080Y-99931028D01*
X154175701Y-100041221D01*
X154249751Y-100169479D01*
X154249753Y-100169482D01*
X154249754Y-100169483D01*
X154417370Y-100387926D01*
X154417376Y-100387933D01*
X154612066Y-100582623D01*
X154612072Y-100582628D01*
X154830521Y-100750249D01*
X154983778Y-100838732D01*
X155068971Y-100887919D01*
X155068976Y-100887921D01*
X155068979Y-100887923D01*
X155323368Y-100993295D01*
X155589334Y-101064560D01*
X155862326Y-101100500D01*
X155862333Y-101100500D01*
X156137667Y-101100500D01*
X156137674Y-101100500D01*
X156410666Y-101064560D01*
X156676632Y-100993295D01*
X156931021Y-100887923D01*
X157169479Y-100750249D01*
X157387928Y-100582628D01*
X157582628Y-100387928D01*
X157750249Y-100169479D01*
X157887923Y-99931021D01*
X157993295Y-99676632D01*
X158064560Y-99410666D01*
X158100500Y-99137674D01*
X158100500Y-98862326D01*
X158064560Y-98589334D01*
X157993295Y-98323368D01*
X157887923Y-98068979D01*
X157887921Y-98068976D01*
X157887919Y-98068971D01*
X157838732Y-97983778D01*
X157750249Y-97830521D01*
X157582628Y-97612072D01*
X157582623Y-97612066D01*
X157387933Y-97417376D01*
X157387926Y-97417370D01*
X157169483Y-97249754D01*
X157169482Y-97249753D01*
X157169479Y-97249751D01*
X157074407Y-97194861D01*
X156931028Y-97112080D01*
X156931017Y-97112075D01*
X156676630Y-97006704D01*
X156543649Y-96971072D01*
X156410666Y-96935440D01*
X156410660Y-96935439D01*
X156410655Y-96935438D01*
X156137684Y-96899501D01*
X156137679Y-96899500D01*
X156137674Y-96899500D01*
X155862326Y-96899500D01*
X155862320Y-96899500D01*
X155862315Y-96899501D01*
X155589344Y-96935438D01*
X155589337Y-96935439D01*
X155589334Y-96935440D01*
X155533125Y-96950500D01*
X155323369Y-97006704D01*
X155068982Y-97112075D01*
X155068971Y-97112080D01*
X154830516Y-97249754D01*
X154612073Y-97417370D01*
X154612066Y-97417376D01*
X154417376Y-97612066D01*
X154417370Y-97612073D01*
X154249754Y-97830516D01*
X154112080Y-98068971D01*
X154112075Y-98068982D01*
X154006704Y-98323369D01*
X153935441Y-98589331D01*
X153935438Y-98589344D01*
X153899501Y-98862315D01*
X153899500Y-98862332D01*
X153000000Y-98862332D01*
X153000000Y-95624500D01*
X153019685Y-95557461D01*
X153072489Y-95511706D01*
X153124000Y-95500500D01*
X159375500Y-95500500D01*
X159442539Y-95520185D01*
G37*
%TD.AperFunction*%
%TD*%
%TA.AperFunction,Conductor*%
%TO.N,GND*%
G36*
X118908635Y-95518093D02*
G01*
X118934355Y-95562642D01*
X118925422Y-95613300D01*
X118913471Y-95628874D01*
X117227223Y-97315121D01*
X117180603Y-97336861D01*
X117132272Y-97324474D01*
X117075051Y-97286241D01*
X117075049Y-97286240D01*
X116892538Y-97210642D01*
X116892537Y-97210641D01*
X116698778Y-97172100D01*
X116698777Y-97172100D01*
X116501223Y-97172100D01*
X116501222Y-97172100D01*
X116307462Y-97210641D01*
X116307461Y-97210642D01*
X116124950Y-97286240D01*
X115960682Y-97396000D01*
X115821000Y-97535682D01*
X115711240Y-97699950D01*
X115635642Y-97882461D01*
X115635641Y-97882462D01*
X115597100Y-98076222D01*
X115597100Y-98523777D01*
X115635641Y-98717537D01*
X115635642Y-98717538D01*
X115711240Y-98900049D01*
X115711241Y-98900051D01*
X115820996Y-99064312D01*
X115820997Y-99064313D01*
X115821000Y-99064317D01*
X115878309Y-99121626D01*
X115900049Y-99168246D01*
X115886735Y-99217933D01*
X115844598Y-99247438D01*
X115825135Y-99250000D01*
X114874865Y-99250000D01*
X114826527Y-99232407D01*
X114800807Y-99187858D01*
X114809740Y-99137200D01*
X114821691Y-99121626D01*
X114878998Y-99064318D01*
X114878999Y-99064317D01*
X114879004Y-99064312D01*
X114988759Y-98900051D01*
X115064359Y-98717535D01*
X115102900Y-98523777D01*
X115102900Y-98076223D01*
X115064359Y-97882465D01*
X114988759Y-97699949D01*
X114879004Y-97535688D01*
X114879001Y-97535685D01*
X114878999Y-97535682D01*
X114739317Y-97396000D01*
X114739313Y-97395997D01*
X114739312Y-97395996D01*
X114575051Y-97286241D01*
X114575049Y-97286240D01*
X114392538Y-97210642D01*
X114392537Y-97210641D01*
X114198778Y-97172100D01*
X114198777Y-97172100D01*
X114001223Y-97172100D01*
X114001222Y-97172100D01*
X113807462Y-97210641D01*
X113807461Y-97210642D01*
X113624950Y-97286240D01*
X113460682Y-97396000D01*
X113321000Y-97535682D01*
X113211240Y-97699950D01*
X113135642Y-97882461D01*
X113135641Y-97882462D01*
X113097100Y-98076222D01*
X113097100Y-98523777D01*
X113135641Y-98717537D01*
X113135642Y-98717538D01*
X113211240Y-98900049D01*
X113211241Y-98900051D01*
X113320996Y-99064312D01*
X113320997Y-99064313D01*
X113321000Y-99064317D01*
X113378309Y-99121626D01*
X113400049Y-99168246D01*
X113386735Y-99217933D01*
X113344598Y-99247438D01*
X113325135Y-99250000D01*
X112441474Y-99250000D01*
X112393136Y-99232407D01*
X112367416Y-99187858D01*
X112376349Y-99137200D01*
X112388300Y-99121626D01*
X112415584Y-99094341D01*
X112415586Y-99094338D01*
X112530498Y-98922360D01*
X112609649Y-98731273D01*
X112609650Y-98731271D01*
X112645707Y-98550000D01*
X112004146Y-98550000D01*
X112042630Y-98483343D01*
X112075000Y-98362535D01*
X112075000Y-98237465D01*
X112042630Y-98116657D01*
X112004146Y-98050000D01*
X112645707Y-98050000D01*
X112645707Y-98049999D01*
X112609650Y-97868728D01*
X112609649Y-97868726D01*
X112530498Y-97677639D01*
X112415586Y-97505661D01*
X112415584Y-97505658D01*
X112269341Y-97359415D01*
X112269338Y-97359413D01*
X112097360Y-97244501D01*
X111906271Y-97165349D01*
X111850000Y-97154156D01*
X111850000Y-97895854D01*
X111783343Y-97857370D01*
X111662535Y-97825000D01*
X111537465Y-97825000D01*
X111416657Y-97857370D01*
X111350000Y-97895854D01*
X111350000Y-97154156D01*
X111349999Y-97154156D01*
X111293728Y-97165349D01*
X111102639Y-97244501D01*
X110930661Y-97359413D01*
X110930658Y-97359415D01*
X110784415Y-97505658D01*
X110784413Y-97505661D01*
X110669501Y-97677639D01*
X110644676Y-97737573D01*
X110609923Y-97775498D01*
X110558923Y-97782212D01*
X110515540Y-97754574D01*
X110500000Y-97708795D01*
X110500000Y-97250000D01*
X110000000Y-96750000D01*
X108437500Y-96750000D01*
X107750000Y-97437499D01*
X107750000Y-97516540D01*
X107732407Y-97564878D01*
X107687858Y-97590598D01*
X107637200Y-97581665D01*
X107604135Y-97542260D01*
X107600526Y-97528304D01*
X107596939Y-97505658D01*
X107587957Y-97448945D01*
X107530016Y-97335229D01*
X107439771Y-97244984D01*
X107326055Y-97187043D01*
X107326057Y-97187043D01*
X107231710Y-97172100D01*
X107231708Y-97172100D01*
X105968292Y-97172100D01*
X105968289Y-97172100D01*
X105873943Y-97187043D01*
X105760228Y-97244984D01*
X105669984Y-97335228D01*
X105612043Y-97448943D01*
X105597100Y-97543289D01*
X105597100Y-99056712D01*
X105603737Y-99098615D01*
X105593922Y-99149109D01*
X105553945Y-99181481D01*
X105502513Y-99180583D01*
X105487684Y-99172905D01*
X105467858Y-99159658D01*
X105414705Y-99124142D01*
X105392772Y-99115057D01*
X105255377Y-99058146D01*
X105255376Y-99058145D01*
X105086230Y-99024500D01*
X105086229Y-99024500D01*
X104913771Y-99024500D01*
X104913770Y-99024500D01*
X104744623Y-99058145D01*
X104744622Y-99058146D01*
X104585296Y-99124141D01*
X104441898Y-99219957D01*
X104441895Y-99219959D01*
X104319959Y-99341895D01*
X104319957Y-99341898D01*
X104224141Y-99485296D01*
X104158146Y-99644622D01*
X104158145Y-99644623D01*
X104124500Y-99813770D01*
X104124500Y-99986229D01*
X104158145Y-100155376D01*
X104158146Y-100155377D01*
X104224142Y-100314705D01*
X104319955Y-100458099D01*
X104319957Y-100458101D01*
X104319959Y-100458104D01*
X104441895Y-100580040D01*
X104441898Y-100580042D01*
X104441901Y-100580045D01*
X104585295Y-100675858D01*
X104744622Y-100741853D01*
X104744623Y-100741854D01*
X104744624Y-100741854D01*
X104744626Y-100741855D01*
X104857896Y-100764385D01*
X104913770Y-100775500D01*
X104913771Y-100775500D01*
X105086230Y-100775500D01*
X105128229Y-100767145D01*
X105255374Y-100741855D01*
X105414705Y-100675858D01*
X105558099Y-100580045D01*
X105680045Y-100458099D01*
X105775858Y-100314705D01*
X105841855Y-100155374D01*
X105875500Y-99986229D01*
X105875500Y-99813771D01*
X105841855Y-99644626D01*
X105788289Y-99515308D01*
X105786046Y-99463918D01*
X105817361Y-99423108D01*
X105867581Y-99411974D01*
X105869530Y-99412257D01*
X105873942Y-99412955D01*
X105873945Y-99412957D01*
X105968292Y-99427900D01*
X105968296Y-99427900D01*
X107231704Y-99427900D01*
X107231708Y-99427900D01*
X107326055Y-99412957D01*
X107439771Y-99355016D01*
X107530016Y-99264771D01*
X107587957Y-99151055D01*
X107600526Y-99071694D01*
X107625464Y-99026705D01*
X107673487Y-99008270D01*
X107722125Y-99025018D01*
X107748618Y-99069110D01*
X107750000Y-99083459D01*
X107750000Y-99541667D01*
X108662794Y-100302328D01*
X109200000Y-100750000D01*
X109200001Y-100750000D01*
X126750000Y-100750000D01*
X128527974Y-98972026D01*
X128574594Y-98950286D01*
X128581148Y-98950000D01*
X137463309Y-98950000D01*
X137511647Y-98967593D01*
X137537367Y-99012142D01*
X137528434Y-99062800D01*
X137516483Y-99078374D01*
X137457598Y-99137258D01*
X137457594Y-99137264D01*
X137401261Y-99234835D01*
X137386680Y-99289251D01*
X137372100Y-99343666D01*
X137372100Y-99456334D01*
X137393970Y-99537955D01*
X137401261Y-99565164D01*
X137457594Y-99662735D01*
X137457598Y-99662741D01*
X137537258Y-99742401D01*
X137537261Y-99742403D01*
X137537263Y-99742405D01*
X137634837Y-99798739D01*
X137743666Y-99827900D01*
X137743669Y-99827900D01*
X137856331Y-99827900D01*
X137856334Y-99827900D01*
X137965163Y-99798739D01*
X138062737Y-99742405D01*
X138142405Y-99662737D01*
X138198739Y-99565163D01*
X138227900Y-99456334D01*
X138227900Y-99343666D01*
X138198739Y-99234837D01*
X138142405Y-99137263D01*
X138142403Y-99137261D01*
X138142401Y-99137258D01*
X138062743Y-99057600D01*
X138062738Y-99057596D01*
X138062737Y-99057595D01*
X138062734Y-99057593D01*
X138062683Y-99057554D01*
X138062658Y-99057515D01*
X138059252Y-99054109D01*
X138060006Y-99053354D01*
X138035041Y-99014172D01*
X138041751Y-98963172D01*
X138055280Y-98944719D01*
X139168728Y-97831271D01*
X139215346Y-97809532D01*
X139265033Y-97822846D01*
X139294538Y-97864983D01*
X139297100Y-97884446D01*
X139297100Y-99115055D01*
X139297101Y-99115057D01*
X139305972Y-99159659D01*
X139339764Y-99210232D01*
X139339765Y-99210232D01*
X139339766Y-99210234D01*
X139390342Y-99244028D01*
X139434943Y-99252900D01*
X140174801Y-99252899D01*
X140223138Y-99270492D01*
X140248858Y-99315041D01*
X140250000Y-99328099D01*
X140250000Y-105669111D01*
X140249839Y-105674029D01*
X140233212Y-105927706D01*
X140231928Y-105937459D01*
X140182813Y-106184378D01*
X140180267Y-106193879D01*
X140099344Y-106432270D01*
X140095580Y-106441358D01*
X139984232Y-106667149D01*
X139979313Y-106675668D01*
X139839441Y-106885001D01*
X139833453Y-106892805D01*
X139665832Y-107083940D01*
X139662468Y-107087531D01*
X137000000Y-109749999D01*
X137000000Y-109750000D01*
X137000000Y-111750000D01*
X138250000Y-113000000D01*
X138750000Y-113000000D01*
X141250000Y-115500000D01*
X148705026Y-122955026D01*
X148700000Y-122980301D01*
X148700000Y-123750000D01*
X148750000Y-123750000D01*
X148750000Y-124250000D01*
X148700000Y-124250000D01*
X148700000Y-125019698D01*
X148711603Y-125078034D01*
X148711604Y-125078035D01*
X148750000Y-125135498D01*
X148750000Y-127750000D01*
X151494463Y-124756039D01*
X151483212Y-124927706D01*
X151481928Y-124937459D01*
X151440723Y-125144608D01*
X151414037Y-125188584D01*
X151412034Y-125190137D01*
X151353467Y-125233979D01*
X151353463Y-125233982D01*
X150953941Y-125580171D01*
X150580171Y-125953941D01*
X150312594Y-126262741D01*
X150233990Y-126353455D01*
X150141853Y-126476536D01*
X149917194Y-126776645D01*
X149631408Y-127221336D01*
X149631407Y-127221337D01*
X149459463Y-127536228D01*
X149446636Y-127553362D01*
X148750000Y-128249998D01*
X148750000Y-129504445D01*
X148748281Y-129520430D01*
X148712445Y-129685160D01*
X148712441Y-129685185D01*
X148637210Y-130208429D01*
X148599500Y-130735679D01*
X148599500Y-131264320D01*
X148637210Y-131791570D01*
X148712441Y-132314814D01*
X148712445Y-132314839D01*
X148748281Y-132479569D01*
X148750000Y-132495554D01*
X148750000Y-132789940D01*
X148749768Y-132795840D01*
X148729447Y-133054043D01*
X148727601Y-133065698D01*
X148667830Y-133314659D01*
X148664184Y-133325882D01*
X148566201Y-133562434D01*
X148560844Y-133572948D01*
X148427062Y-133791260D01*
X148420126Y-133800806D01*
X148253844Y-133995499D01*
X148245499Y-134003844D01*
X148050806Y-134170126D01*
X148041260Y-134177062D01*
X147822948Y-134310844D01*
X147812434Y-134316201D01*
X147575882Y-134414184D01*
X147564659Y-134417830D01*
X147315698Y-134477601D01*
X147304043Y-134479447D01*
X147052194Y-134499268D01*
X147046294Y-134499500D01*
X140852172Y-134499500D01*
X140844801Y-134499138D01*
X140694403Y-134484324D01*
X140679945Y-134481448D01*
X140533999Y-134437176D01*
X140520379Y-134431534D01*
X140385879Y-134359642D01*
X140373622Y-134351453D01*
X140324139Y-134310844D01*
X140255721Y-134254695D01*
X140245304Y-134244278D01*
X140148546Y-134126377D01*
X140140357Y-134114120D01*
X140068465Y-133979620D01*
X140062823Y-133966000D01*
X140018551Y-133820054D01*
X140015675Y-133805596D01*
X140000362Y-133650122D01*
X140000000Y-133642751D01*
X140000000Y-128250000D01*
X139823483Y-128073483D01*
X139801743Y-128026863D01*
X139815057Y-127977176D01*
X139823477Y-127967141D01*
X140563093Y-127227526D01*
X140609713Y-127205786D01*
X140616267Y-127205500D01*
X143448636Y-127205500D01*
X143448638Y-127205500D01*
X143470607Y-127204322D01*
X143496965Y-127201488D01*
X143573482Y-127177529D01*
X143634805Y-127144044D01*
X143681629Y-127108991D01*
X144108991Y-126681629D01*
X144123693Y-126665262D01*
X144140327Y-126644620D01*
X144177490Y-126573575D01*
X144197175Y-126506536D01*
X144205500Y-126448638D01*
X144205500Y-125551362D01*
X144204322Y-125529393D01*
X144201488Y-125503035D01*
X144177529Y-125426518D01*
X144175843Y-125423431D01*
X144144042Y-125365192D01*
X144108993Y-125318373D01*
X143681644Y-124891023D01*
X143681639Y-124891018D01*
X143681628Y-124891008D01*
X143665262Y-124876307D01*
X143644620Y-124859673D01*
X143644615Y-124859670D01*
X143593109Y-124832728D01*
X143573575Y-124822510D01*
X143506536Y-124802825D01*
X143506532Y-124802824D01*
X143506531Y-124802824D01*
X143506528Y-124802823D01*
X143448650Y-124794501D01*
X143448641Y-124794500D01*
X143448638Y-124794500D01*
X139801362Y-124794500D01*
X139801358Y-124794500D01*
X139779388Y-124795678D01*
X139779384Y-124795678D01*
X139753034Y-124798512D01*
X139676520Y-124822470D01*
X139676512Y-124822473D01*
X139615197Y-124855954D01*
X139568364Y-124891013D01*
X138531274Y-125928104D01*
X138484654Y-125949844D01*
X138434967Y-125936530D01*
X138405462Y-125894393D01*
X138402900Y-125874930D01*
X138402900Y-122909535D01*
X138405462Y-122890072D01*
X138406127Y-122887590D01*
X138427900Y-122806334D01*
X138427900Y-122693666D01*
X138398739Y-122584837D01*
X138342405Y-122487263D01*
X138342403Y-122487261D01*
X138342401Y-122487258D01*
X138262741Y-122407598D01*
X138262735Y-122407594D01*
X138165164Y-122351261D01*
X138137955Y-122343970D01*
X138056334Y-122322100D01*
X137943666Y-122322100D01*
X137878368Y-122339596D01*
X137834835Y-122351261D01*
X137737264Y-122407594D01*
X137737258Y-122407598D01*
X137657598Y-122487258D01*
X137657594Y-122487264D01*
X137601261Y-122584835D01*
X137595501Y-122606334D01*
X137572100Y-122693666D01*
X137572100Y-122806334D01*
X137593873Y-122887590D01*
X137594538Y-122890072D01*
X137597100Y-122909535D01*
X137597100Y-126051965D01*
X137579507Y-126100303D01*
X137575074Y-126105139D01*
X136327916Y-127352296D01*
X136312342Y-127364247D01*
X136237264Y-127407593D01*
X136216778Y-127428080D01*
X136166883Y-127477974D01*
X136120265Y-127499714D01*
X136113710Y-127500000D01*
X123789201Y-127500000D01*
X123740863Y-127482407D01*
X123715143Y-127437858D01*
X123724076Y-127387200D01*
X123736027Y-127371626D01*
X123930127Y-127177526D01*
X124136023Y-126971629D01*
X124136036Y-126971620D01*
X124214398Y-126893258D01*
X124214399Y-126893257D01*
X124243950Y-126821913D01*
X124243951Y-126821912D01*
X124247657Y-126812963D01*
X124252901Y-126800305D01*
X124252901Y-126699695D01*
X124252901Y-126693640D01*
X124252900Y-126693626D01*
X124252900Y-125943666D01*
X133572100Y-125943666D01*
X133572100Y-126056334D01*
X133593970Y-126137955D01*
X133601261Y-126165164D01*
X133657594Y-126262735D01*
X133657598Y-126262741D01*
X133737258Y-126342401D01*
X133737261Y-126342403D01*
X133737263Y-126342405D01*
X133834837Y-126398739D01*
X133943666Y-126427900D01*
X133943669Y-126427900D01*
X134056331Y-126427900D01*
X134056334Y-126427900D01*
X134165163Y-126398739D01*
X134262737Y-126342405D01*
X134342405Y-126262737D01*
X134398739Y-126165163D01*
X134427900Y-126056334D01*
X134427900Y-125960902D01*
X134445493Y-125912564D01*
X134449926Y-125907728D01*
X135407728Y-124949926D01*
X135454348Y-124928186D01*
X135460902Y-124927900D01*
X135556547Y-124927900D01*
X135556550Y-124927900D01*
X135665379Y-124898739D01*
X135762953Y-124842405D01*
X135842621Y-124762737D01*
X135898955Y-124665163D01*
X135928116Y-124556334D01*
X135928116Y-124443666D01*
X135898955Y-124334837D01*
X135842621Y-124237263D01*
X135842619Y-124237261D01*
X135842617Y-124237258D01*
X135762957Y-124157598D01*
X135762951Y-124157594D01*
X135665380Y-124101261D01*
X135638171Y-124093970D01*
X135556550Y-124072100D01*
X135443882Y-124072100D01*
X135378584Y-124089596D01*
X135335051Y-124101261D01*
X135237480Y-124157594D01*
X135237474Y-124157598D01*
X135157814Y-124237258D01*
X135157810Y-124237264D01*
X135101477Y-124334835D01*
X135090295Y-124376569D01*
X135072316Y-124443666D01*
X135072316Y-124443668D01*
X135072316Y-124538880D01*
X135054723Y-124587218D01*
X135050290Y-124592054D01*
X134092270Y-125550074D01*
X134045650Y-125571814D01*
X134039096Y-125572100D01*
X133943666Y-125572100D01*
X133878368Y-125589596D01*
X133834835Y-125601261D01*
X133737264Y-125657594D01*
X133737258Y-125657598D01*
X133657598Y-125737258D01*
X133657594Y-125737264D01*
X133601261Y-125834835D01*
X133597387Y-125849293D01*
X133572100Y-125943666D01*
X124252900Y-125943666D01*
X124252900Y-122939591D01*
X124270493Y-122891253D01*
X124315042Y-122865533D01*
X124365700Y-122874466D01*
X124381274Y-122886417D01*
X124387258Y-122892401D01*
X124387261Y-122892403D01*
X124387263Y-122892405D01*
X124484837Y-122948739D01*
X124593666Y-122977900D01*
X124593669Y-122977900D01*
X124706331Y-122977900D01*
X124706334Y-122977900D01*
X124815163Y-122948739D01*
X124912737Y-122892405D01*
X124992405Y-122812737D01*
X125048739Y-122715163D01*
X125054499Y-122693666D01*
X125822100Y-122693666D01*
X125822100Y-122806334D01*
X125835608Y-122856746D01*
X125851261Y-122915164D01*
X125907594Y-123012735D01*
X125907598Y-123012741D01*
X125987258Y-123092401D01*
X125987261Y-123092403D01*
X125987263Y-123092405D01*
X126084837Y-123148739D01*
X126193666Y-123177900D01*
X126193669Y-123177900D01*
X126306331Y-123177900D01*
X126306334Y-123177900D01*
X126415163Y-123148739D01*
X126512737Y-123092405D01*
X126592405Y-123012737D01*
X126644812Y-122921965D01*
X126648738Y-122915165D01*
X126650247Y-122909535D01*
X126668212Y-122842486D01*
X126697716Y-122800352D01*
X126747403Y-122787038D01*
X126794023Y-122808777D01*
X126813486Y-122842487D01*
X126817306Y-122856743D01*
X126826261Y-122890164D01*
X126882594Y-122987735D01*
X126882598Y-122987741D01*
X126962258Y-123067401D01*
X126962261Y-123067403D01*
X126962263Y-123067405D01*
X127059837Y-123123739D01*
X127168666Y-123152900D01*
X127168669Y-123152900D01*
X127281331Y-123152900D01*
X127281334Y-123152900D01*
X127390163Y-123123739D01*
X127487737Y-123067405D01*
X127567405Y-122987737D01*
X127623739Y-122890163D01*
X127652900Y-122781334D01*
X127652900Y-122668666D01*
X127623739Y-122559837D01*
X127567405Y-122462263D01*
X127567403Y-122462261D01*
X127567401Y-122462258D01*
X127487741Y-122382598D01*
X127487735Y-122382594D01*
X127390164Y-122326261D01*
X127362955Y-122318970D01*
X127281334Y-122297100D01*
X127168666Y-122297100D01*
X127103368Y-122314596D01*
X127059835Y-122326261D01*
X126962264Y-122382594D01*
X126962258Y-122382598D01*
X126882598Y-122462258D01*
X126882594Y-122462264D01*
X126826260Y-122559837D01*
X126806787Y-122632511D01*
X126777282Y-122674648D01*
X126727595Y-122687961D01*
X126680975Y-122666221D01*
X126661513Y-122632511D01*
X126648739Y-122584837D01*
X126592405Y-122487263D01*
X126592403Y-122487261D01*
X126592401Y-122487258D01*
X126512741Y-122407598D01*
X126512735Y-122407594D01*
X126415164Y-122351261D01*
X126387955Y-122343970D01*
X126306334Y-122322100D01*
X126193666Y-122322100D01*
X126128368Y-122339596D01*
X126084835Y-122351261D01*
X125987264Y-122407594D01*
X125987258Y-122407598D01*
X125907598Y-122487258D01*
X125907594Y-122487264D01*
X125851261Y-122584835D01*
X125845501Y-122606334D01*
X125822100Y-122693666D01*
X125054499Y-122693666D01*
X125077900Y-122606334D01*
X125077900Y-122493666D01*
X125048739Y-122384837D01*
X124992405Y-122287263D01*
X124992403Y-122287261D01*
X124992401Y-122287258D01*
X124912741Y-122207598D01*
X124912735Y-122207594D01*
X124815164Y-122151261D01*
X124787955Y-122143970D01*
X124706334Y-122122100D01*
X124593666Y-122122100D01*
X124528368Y-122139596D01*
X124484835Y-122151261D01*
X124387264Y-122207594D01*
X124387258Y-122207598D01*
X124381274Y-122213583D01*
X124334654Y-122235323D01*
X124284967Y-122222009D01*
X124255462Y-122179872D01*
X124252900Y-122160409D01*
X124252900Y-120959065D01*
X124252901Y-120959056D01*
X124252901Y-120849696D01*
X124238280Y-120814399D01*
X124221558Y-120774028D01*
X124214399Y-120756743D01*
X124214397Y-120756741D01*
X124214395Y-120756738D01*
X124138980Y-120681323D01*
X124138960Y-120681306D01*
X120749804Y-117292150D01*
X120728064Y-117245530D01*
X120741378Y-117195843D01*
X120783515Y-117166338D01*
X120802978Y-117163776D01*
X120834579Y-117163776D01*
X120834582Y-117163776D01*
X120943411Y-117134615D01*
X121040985Y-117078281D01*
X121120653Y-116998613D01*
X121176987Y-116901039D01*
X121206148Y-116792210D01*
X121206148Y-116679542D01*
X121176987Y-116570713D01*
X121120653Y-116473139D01*
X121120651Y-116473137D01*
X121120649Y-116473134D01*
X121040989Y-116393474D01*
X121040986Y-116393472D01*
X121040985Y-116393471D01*
X121040559Y-116393225D01*
X121040369Y-116392998D01*
X121037075Y-116390471D01*
X121037635Y-116389740D01*
X121007494Y-116353821D01*
X121007494Y-116302381D01*
X121040558Y-116262975D01*
X121078159Y-116252900D01*
X123540935Y-116252900D01*
X123540943Y-116252901D01*
X123549695Y-116252901D01*
X123650305Y-116252901D01*
X123696328Y-116233837D01*
X123743257Y-116214399D01*
X123814399Y-116143257D01*
X123821620Y-116136036D01*
X123821629Y-116136023D01*
X124782728Y-115174926D01*
X124829348Y-115153186D01*
X124835902Y-115152900D01*
X125110409Y-115152900D01*
X125158747Y-115170493D01*
X125184467Y-115215042D01*
X125175534Y-115265700D01*
X125163583Y-115281274D01*
X125107598Y-115337258D01*
X125107594Y-115337264D01*
X125051261Y-115434835D01*
X125044950Y-115458390D01*
X125022100Y-115543666D01*
X125022100Y-115656334D01*
X125037659Y-115714399D01*
X125051261Y-115765164D01*
X125107594Y-115862735D01*
X125107598Y-115862741D01*
X125175074Y-115930217D01*
X125196814Y-115976837D01*
X125197100Y-115983391D01*
X125197100Y-119471724D01*
X125179507Y-119520062D01*
X125175074Y-119524898D01*
X124778146Y-119921826D01*
X124731526Y-119943566D01*
X124724972Y-119943852D01*
X124629542Y-119943852D01*
X124564244Y-119961348D01*
X124520711Y-119973013D01*
X124423140Y-120029346D01*
X124423134Y-120029350D01*
X124343474Y-120109010D01*
X124343470Y-120109016D01*
X124287137Y-120206587D01*
X124276436Y-120246526D01*
X124257976Y-120315418D01*
X124257976Y-120428086D01*
X124279846Y-120509707D01*
X124287137Y-120536916D01*
X124343470Y-120634487D01*
X124343474Y-120634493D01*
X124423134Y-120714153D01*
X124423137Y-120714155D01*
X124423139Y-120714157D01*
X124520713Y-120770491D01*
X124629542Y-120799652D01*
X124629545Y-120799652D01*
X124742207Y-120799652D01*
X124742210Y-120799652D01*
X124851039Y-120770491D01*
X124948613Y-120714157D01*
X125028281Y-120634489D01*
X125084615Y-120536915D01*
X125113776Y-120428086D01*
X125113776Y-120332654D01*
X125131369Y-120284316D01*
X125135802Y-120279480D01*
X125358951Y-120056331D01*
X125593255Y-119822027D01*
X125593257Y-119822027D01*
X125664399Y-119750885D01*
X125685602Y-119699695D01*
X125702901Y-119657933D01*
X125702901Y-119557323D01*
X125702901Y-119551268D01*
X125702900Y-119551254D01*
X125702900Y-116099342D01*
X125720493Y-116051004D01*
X125765042Y-116025284D01*
X125815700Y-116034217D01*
X125843225Y-116061743D01*
X125864059Y-116097830D01*
X125864066Y-116097839D01*
X125943726Y-116177499D01*
X125943729Y-116177501D01*
X125943731Y-116177503D01*
X126041305Y-116233837D01*
X126150134Y-116262998D01*
X126150137Y-116262998D01*
X126262799Y-116262998D01*
X126262802Y-116262998D01*
X126371631Y-116233837D01*
X126469205Y-116177503D01*
X126491508Y-116155200D01*
X126518726Y-116127983D01*
X126565346Y-116106243D01*
X126615033Y-116119557D01*
X126644538Y-116161694D01*
X126647100Y-116181157D01*
X126647100Y-116343626D01*
X126647099Y-116343640D01*
X126647099Y-116349695D01*
X126647099Y-116450305D01*
X126656558Y-116473139D01*
X126656558Y-116473140D01*
X126656559Y-116473142D01*
X126685601Y-116543258D01*
X126762928Y-116620585D01*
X126762941Y-116620595D01*
X129531308Y-119388963D01*
X129531321Y-119388978D01*
X129606738Y-119464395D01*
X129606741Y-119464397D01*
X129606743Y-119464399D01*
X129633968Y-119475675D01*
X129699695Y-119502901D01*
X129809057Y-119502901D01*
X129809065Y-119502900D01*
X131449695Y-119502900D01*
X131949695Y-119502900D01*
X136814098Y-119502900D01*
X136862436Y-119520493D01*
X136867272Y-119524926D01*
X141481308Y-124138963D01*
X141481321Y-124138978D01*
X141556741Y-124214398D01*
X141556743Y-124214399D01*
X141603218Y-124233649D01*
X141603221Y-124233650D01*
X141611946Y-124237264D01*
X141649695Y-124252901D01*
X141759057Y-124252901D01*
X141759065Y-124252900D01*
X145364098Y-124252900D01*
X145412436Y-124270493D01*
X145417272Y-124274926D01*
X146225074Y-125082728D01*
X146246814Y-125129348D01*
X146247100Y-125135902D01*
X146247100Y-127364098D01*
X146229507Y-127412436D01*
X146225074Y-127417272D01*
X145167272Y-128475074D01*
X145120652Y-128496814D01*
X145114098Y-128497100D01*
X141133391Y-128497100D01*
X141085053Y-128479507D01*
X141080217Y-128475074D01*
X141012741Y-128407598D01*
X141012735Y-128407594D01*
X140915164Y-128351261D01*
X140887955Y-128343970D01*
X140806334Y-128322100D01*
X140693666Y-128322100D01*
X140628368Y-128339596D01*
X140584835Y-128351261D01*
X140487264Y-128407594D01*
X140487258Y-128407598D01*
X140407598Y-128487258D01*
X140407594Y-128487264D01*
X140351261Y-128584835D01*
X140345602Y-128605956D01*
X140322100Y-128693666D01*
X140322100Y-128806334D01*
X140337126Y-128862410D01*
X140351261Y-128915164D01*
X140407594Y-129012735D01*
X140407598Y-129012741D01*
X140487258Y-129092401D01*
X140487261Y-129092403D01*
X140487263Y-129092405D01*
X140564216Y-129136833D01*
X140575343Y-129143258D01*
X140584837Y-129148739D01*
X140693666Y-129177900D01*
X140693669Y-129177900D01*
X140806331Y-129177900D01*
X140806334Y-129177900D01*
X140915163Y-129148739D01*
X141012737Y-129092405D01*
X141028534Y-129076608D01*
X141080217Y-129024926D01*
X141126837Y-129003186D01*
X141133391Y-129002900D01*
X145190935Y-129002900D01*
X145190943Y-129002901D01*
X145199695Y-129002901D01*
X145300306Y-129002901D01*
X145338806Y-128986952D01*
X145393257Y-128964399D01*
X145464399Y-128893257D01*
X145471620Y-128886036D01*
X145471629Y-128886023D01*
X146636023Y-127721629D01*
X146636036Y-127721620D01*
X146714398Y-127643258D01*
X146714399Y-127643257D01*
X146739280Y-127583187D01*
X146752901Y-127550305D01*
X146752901Y-127449695D01*
X146752901Y-127443640D01*
X146752900Y-127443626D01*
X146752900Y-125059065D01*
X146752901Y-125059056D01*
X146752901Y-124949696D01*
X146752901Y-124949695D01*
X146717759Y-124864856D01*
X146714399Y-124856743D01*
X146643257Y-124785601D01*
X146643255Y-124785600D01*
X145720594Y-123862940D01*
X145720585Y-123862928D01*
X145643258Y-123785601D01*
X145588806Y-123763047D01*
X145557308Y-123750000D01*
X145550305Y-123747099D01*
X145449695Y-123747099D01*
X145440943Y-123747099D01*
X145440935Y-123747100D01*
X141835903Y-123747100D01*
X141787565Y-123729507D01*
X141782729Y-123725074D01*
X137170595Y-119112941D01*
X137170585Y-119112928D01*
X137093258Y-119035601D01*
X137033296Y-119010765D01*
X137033294Y-119010764D01*
X137000306Y-118997099D01*
X137000305Y-118997099D01*
X136899695Y-118997099D01*
X136890943Y-118997099D01*
X136890935Y-118997100D01*
X131905746Y-118997100D01*
X131857408Y-118979507D01*
X131831688Y-118934958D01*
X131840621Y-118884300D01*
X131852572Y-118868726D01*
X131862410Y-118858887D01*
X131910075Y-118776329D01*
X131922036Y-118755613D01*
X131952900Y-118640425D01*
X131952900Y-118521175D01*
X131922036Y-118405987D01*
X131915173Y-118394100D01*
X131906241Y-118343441D01*
X131931961Y-118298893D01*
X131980298Y-118281300D01*
X137142498Y-118281300D01*
X137190836Y-118298893D01*
X137195672Y-118303326D01*
X142031306Y-123138960D01*
X142031323Y-123138980D01*
X142106741Y-123214398D01*
X142106743Y-123214399D01*
X142161192Y-123236952D01*
X142161194Y-123236952D01*
X142199695Y-123252901D01*
X142309057Y-123252901D01*
X142309065Y-123252900D01*
X143142777Y-123252900D01*
X143144923Y-123253326D01*
X143146052Y-123252971D01*
X143171545Y-123258621D01*
X143183682Y-123263648D01*
X143183685Y-123263650D01*
X143183685Y-123263649D01*
X143230161Y-123282901D01*
X143339523Y-123282901D01*
X143339531Y-123282900D01*
X143660469Y-123282900D01*
X143660477Y-123282901D01*
X143669229Y-123282901D01*
X143769840Y-123282901D01*
X143808340Y-123266952D01*
X143828449Y-123258622D01*
X143857223Y-123252900D01*
X145614098Y-123252900D01*
X145662436Y-123270493D01*
X145667272Y-123274926D01*
X147225074Y-124832728D01*
X147246814Y-124879348D01*
X147247100Y-124885902D01*
X147247100Y-128864097D01*
X147229507Y-128912435D01*
X147225074Y-128917271D01*
X144342271Y-131800074D01*
X144295651Y-131821814D01*
X144289097Y-131822100D01*
X144193666Y-131822100D01*
X144128368Y-131839596D01*
X144084835Y-131851261D01*
X143987264Y-131907594D01*
X143987258Y-131907598D01*
X143907598Y-131987258D01*
X143907594Y-131987264D01*
X143851261Y-132084835D01*
X143836680Y-132139251D01*
X143822100Y-132193666D01*
X143822100Y-132306334D01*
X143843970Y-132387955D01*
X143851261Y-132415164D01*
X143907594Y-132512735D01*
X143907598Y-132512741D01*
X143987258Y-132592401D01*
X143987261Y-132592403D01*
X143987263Y-132592405D01*
X144084837Y-132648739D01*
X144193666Y-132677900D01*
X144193669Y-132677900D01*
X144306331Y-132677900D01*
X144306334Y-132677900D01*
X144415163Y-132648739D01*
X144512737Y-132592405D01*
X144592405Y-132512737D01*
X144648739Y-132415163D01*
X144677900Y-132306334D01*
X144677900Y-132210901D01*
X144695493Y-132162563D01*
X144699926Y-132157727D01*
X145913987Y-130943666D01*
X147572100Y-130943666D01*
X147572100Y-131056334D01*
X147593970Y-131137955D01*
X147601261Y-131165164D01*
X147657594Y-131262735D01*
X147657598Y-131262741D01*
X147737258Y-131342401D01*
X147737261Y-131342403D01*
X147737263Y-131342405D01*
X147834837Y-131398739D01*
X147943666Y-131427900D01*
X147943669Y-131427900D01*
X148056331Y-131427900D01*
X148056334Y-131427900D01*
X148165163Y-131398739D01*
X148262737Y-131342405D01*
X148342405Y-131262737D01*
X148398739Y-131165163D01*
X148427900Y-131056334D01*
X148427900Y-130943666D01*
X148398739Y-130834837D01*
X148342405Y-130737263D01*
X148342403Y-130737261D01*
X148342401Y-130737258D01*
X148262741Y-130657598D01*
X148262735Y-130657594D01*
X148165164Y-130601261D01*
X148137955Y-130593970D01*
X148056334Y-130572100D01*
X147943666Y-130572100D01*
X147878368Y-130589596D01*
X147834835Y-130601261D01*
X147737264Y-130657594D01*
X147737258Y-130657598D01*
X147657598Y-130737258D01*
X147657594Y-130737264D01*
X147601261Y-130834835D01*
X147587669Y-130885563D01*
X147572100Y-130943666D01*
X145913987Y-130943666D01*
X145972090Y-130885563D01*
X146649235Y-130208418D01*
X147636023Y-129221629D01*
X147636036Y-129221620D01*
X147714398Y-129143258D01*
X147714399Y-129143257D01*
X147742003Y-129076614D01*
X147752901Y-129050305D01*
X147752901Y-128949695D01*
X147752901Y-128943640D01*
X147752900Y-128943626D01*
X147752900Y-124809065D01*
X147752901Y-124809056D01*
X147752901Y-124699694D01*
X147752900Y-124699693D01*
X147741137Y-124671295D01*
X147726222Y-124635288D01*
X147714399Y-124606743D01*
X147714397Y-124606741D01*
X147714395Y-124606738D01*
X147638980Y-124531323D01*
X147638960Y-124531306D01*
X145970595Y-122862941D01*
X145970585Y-122862928D01*
X145893258Y-122785601D01*
X145838806Y-122763047D01*
X145800305Y-122747099D01*
X145699695Y-122747099D01*
X145690943Y-122747099D01*
X145690935Y-122747100D01*
X143808599Y-122747100D01*
X143808591Y-122747099D01*
X143799839Y-122747099D01*
X143699229Y-122747099D01*
X143699228Y-122747099D01*
X143655504Y-122765211D01*
X143655501Y-122765212D01*
X143640619Y-122771376D01*
X143611843Y-122777100D01*
X143388158Y-122777100D01*
X143359380Y-122771376D01*
X143339272Y-122763047D01*
X143300771Y-122747099D01*
X143200161Y-122747099D01*
X143191409Y-122747099D01*
X143191401Y-122747100D01*
X142385902Y-122747100D01*
X142337564Y-122729507D01*
X142332728Y-122725074D01*
X137498995Y-117891341D01*
X137498985Y-117891328D01*
X137421658Y-117814001D01*
X137353092Y-117785601D01*
X137328705Y-117775499D01*
X137228095Y-117775499D01*
X137219343Y-117775499D01*
X137219335Y-117775500D01*
X131273256Y-117775500D01*
X131224918Y-117757907D01*
X131199198Y-117713358D01*
X131208131Y-117662700D01*
X131247536Y-117629635D01*
X131258582Y-117626545D01*
X131300842Y-117618140D01*
X131436569Y-117561920D01*
X131558720Y-117480301D01*
X131662601Y-117376420D01*
X131744220Y-117254269D01*
X131800440Y-117118542D01*
X131810831Y-117066301D01*
X131837515Y-117022326D01*
X131886224Y-117005791D01*
X131934167Y-117024434D01*
X131936735Y-117026839D01*
X131937096Y-117027135D01*
X131937101Y-117027140D01*
X132044036Y-117098592D01*
X132162856Y-117147809D01*
X132238539Y-117162863D01*
X132288993Y-117172900D01*
X132288995Y-117172900D01*
X132417607Y-117172900D01*
X132463474Y-117163776D01*
X132543744Y-117147809D01*
X132662564Y-117098592D01*
X132769499Y-117027140D01*
X132860440Y-116936199D01*
X132925775Y-116838418D01*
X132967257Y-116808003D01*
X133018586Y-116811367D01*
X133050824Y-116838417D01*
X133099100Y-116910667D01*
X133116162Y-116936202D01*
X133207095Y-117027135D01*
X133207098Y-117027137D01*
X133207101Y-117027140D01*
X133314036Y-117098592D01*
X133432856Y-117147809D01*
X133508539Y-117162863D01*
X133558993Y-117172900D01*
X133558995Y-117172900D01*
X133687607Y-117172900D01*
X133733474Y-117163776D01*
X133813744Y-117147809D01*
X133932564Y-117098592D01*
X134039499Y-117027140D01*
X134130440Y-116936199D01*
X134195775Y-116838418D01*
X134237257Y-116808003D01*
X134288586Y-116811367D01*
X134320824Y-116838417D01*
X134369100Y-116910667D01*
X134386162Y-116936202D01*
X134477095Y-117027135D01*
X134477098Y-117027137D01*
X134477101Y-117027140D01*
X134584036Y-117098592D01*
X134702856Y-117147809D01*
X134778539Y-117162863D01*
X134828993Y-117172900D01*
X134828995Y-117172900D01*
X134957607Y-117172900D01*
X135003474Y-117163776D01*
X135083744Y-117147809D01*
X135202564Y-117098592D01*
X135309499Y-117027140D01*
X135400440Y-116936199D01*
X135471892Y-116829264D01*
X135521109Y-116710444D01*
X135546200Y-116584305D01*
X135546200Y-116504170D01*
X135563793Y-116455832D01*
X135608342Y-116430112D01*
X135659000Y-116439045D01*
X135674574Y-116450996D01*
X135687874Y-116464296D01*
X135687877Y-116464298D01*
X135687880Y-116464301D01*
X135810031Y-116545920D01*
X135945754Y-116602138D01*
X135945755Y-116602139D01*
X135945756Y-116602139D01*
X135945758Y-116602140D01*
X136038540Y-116620595D01*
X136089844Y-116630800D01*
X136089845Y-116630800D01*
X136236756Y-116630800D01*
X136288060Y-116620595D01*
X136380842Y-116602140D01*
X136516569Y-116545920D01*
X136638720Y-116464301D01*
X136742601Y-116360420D01*
X136824220Y-116238269D01*
X136880440Y-116102542D01*
X136909100Y-115958455D01*
X136909100Y-115811545D01*
X136880440Y-115667458D01*
X136824220Y-115531731D01*
X136742601Y-115409580D01*
X136742598Y-115409577D01*
X136742596Y-115409574D01*
X136638725Y-115305703D01*
X136638722Y-115305701D01*
X136638720Y-115305699D01*
X136516569Y-115224080D01*
X136516567Y-115224079D01*
X136380845Y-115167861D01*
X136380844Y-115167860D01*
X136236756Y-115139200D01*
X136236755Y-115139200D01*
X136089845Y-115139200D01*
X136089844Y-115139200D01*
X135945755Y-115167860D01*
X135945754Y-115167861D01*
X135810032Y-115224079D01*
X135687877Y-115305701D01*
X135687874Y-115305703D01*
X135674574Y-115319004D01*
X135627954Y-115340744D01*
X135578267Y-115327430D01*
X135548762Y-115285293D01*
X135546200Y-115265830D01*
X135546200Y-115185693D01*
X135527564Y-115092008D01*
X135521109Y-115059556D01*
X135471892Y-114940736D01*
X135400440Y-114833801D01*
X135400437Y-114833798D01*
X135400435Y-114833795D01*
X135309504Y-114742864D01*
X135309496Y-114742858D01*
X135293466Y-114732146D01*
X135263051Y-114690662D01*
X135266416Y-114639332D01*
X135270115Y-114632033D01*
X135292039Y-114594060D01*
X135321200Y-114485231D01*
X135321200Y-114372563D01*
X135292039Y-114263734D01*
X135291463Y-114262737D01*
X135277479Y-114238516D01*
X135235705Y-114166160D01*
X135235703Y-114166158D01*
X135235701Y-114166155D01*
X135156041Y-114086495D01*
X135156035Y-114086491D01*
X135153544Y-114085053D01*
X135135416Y-114074586D01*
X135058464Y-114030158D01*
X135031255Y-114022867D01*
X134949634Y-114000997D01*
X134836966Y-114000997D01*
X134771668Y-114018493D01*
X134728135Y-114030158D01*
X134630564Y-114086491D01*
X134630558Y-114086495D01*
X134550898Y-114166155D01*
X134550894Y-114166161D01*
X134494561Y-114263732D01*
X134484762Y-114300304D01*
X134465400Y-114372563D01*
X134465400Y-114485231D01*
X134490619Y-114579348D01*
X134494562Y-114594063D01*
X134516477Y-114632022D01*
X134525409Y-114682680D01*
X134499689Y-114727228D01*
X134493134Y-114732145D01*
X134477106Y-114742855D01*
X134477095Y-114742864D01*
X134386164Y-114833795D01*
X134386156Y-114833804D01*
X134320826Y-114931579D01*
X134279343Y-114961996D01*
X134228013Y-114958631D01*
X134195774Y-114931579D01*
X134130443Y-114833804D01*
X134130435Y-114833795D01*
X134039504Y-114742864D01*
X134039501Y-114742862D01*
X134039499Y-114742860D01*
X133932564Y-114671408D01*
X133912376Y-114663046D01*
X133887614Y-114652789D01*
X133813744Y-114622191D01*
X133813741Y-114622190D01*
X133813740Y-114622190D01*
X133687607Y-114597100D01*
X133687605Y-114597100D01*
X133558995Y-114597100D01*
X133558993Y-114597100D01*
X133432859Y-114622190D01*
X133432856Y-114622191D01*
X133314037Y-114671407D01*
X133207098Y-114742862D01*
X133207095Y-114742864D01*
X133116164Y-114833795D01*
X133116156Y-114833804D01*
X133052647Y-114928853D01*
X133011164Y-114959270D01*
X132996963Y-114959889D01*
X132706854Y-115249999D01*
X132706854Y-115250001D01*
X132999764Y-115542911D01*
X133026288Y-115546993D01*
X133052646Y-115571145D01*
X133116156Y-115666195D01*
X133116164Y-115666204D01*
X133207095Y-115757135D01*
X133207104Y-115757143D01*
X133304879Y-115822474D01*
X133335296Y-115863957D01*
X133331931Y-115915287D01*
X133304879Y-115947526D01*
X133207104Y-116012856D01*
X133207095Y-116012864D01*
X133116164Y-116103795D01*
X133116156Y-116103804D01*
X133050826Y-116201579D01*
X133009343Y-116231996D01*
X132958013Y-116228631D01*
X132925774Y-116201579D01*
X132860443Y-116103804D01*
X132860435Y-116103795D01*
X132769504Y-116012864D01*
X132769495Y-116012856D01*
X132674445Y-115949346D01*
X132644028Y-115907863D01*
X132643408Y-115893661D01*
X132353301Y-115603554D01*
X132353300Y-115603554D01*
X132060386Y-115896467D01*
X132056303Y-115922992D01*
X132032153Y-115949347D01*
X131937104Y-116012856D01*
X131937095Y-116012864D01*
X131846164Y-116103795D01*
X131846162Y-116103798D01*
X131774707Y-116210737D01*
X131747521Y-116276370D01*
X131728746Y-116321699D01*
X131725490Y-116329559D01*
X131724924Y-116331426D01*
X131724462Y-116332041D01*
X131724078Y-116332969D01*
X131723840Y-116332870D01*
X131694054Y-116372574D01*
X131643957Y-116384252D01*
X131599789Y-116362767D01*
X131558725Y-116321703D01*
X131558722Y-116321701D01*
X131558720Y-116321699D01*
X131436569Y-116240080D01*
X131432192Y-116238267D01*
X131300845Y-116183861D01*
X131300844Y-116183860D01*
X131156756Y-116155200D01*
X131156755Y-116155200D01*
X131009845Y-116155200D01*
X131009844Y-116155200D01*
X130865755Y-116183860D01*
X130865754Y-116183861D01*
X130730032Y-116240079D01*
X130607877Y-116321701D01*
X130607874Y-116321703D01*
X130504003Y-116425574D01*
X130504001Y-116425577D01*
X130422379Y-116547732D01*
X130366161Y-116683454D01*
X130366160Y-116683455D01*
X130337500Y-116827544D01*
X130337500Y-116974455D01*
X130366160Y-117118544D01*
X130366161Y-117118545D01*
X130398179Y-117195843D01*
X130422380Y-117254269D01*
X130503999Y-117376420D01*
X130504001Y-117376422D01*
X130504003Y-117376425D01*
X130607874Y-117480296D01*
X130607877Y-117480298D01*
X130607880Y-117480301D01*
X130730031Y-117561920D01*
X130865754Y-117618138D01*
X130865755Y-117618139D01*
X130865756Y-117618139D01*
X130865758Y-117618140D01*
X130908015Y-117626545D01*
X130951991Y-117653230D01*
X130968526Y-117701940D01*
X130949882Y-117749883D01*
X130904784Y-117774625D01*
X130893344Y-117775500D01*
X129964302Y-117775500D01*
X129915964Y-117757907D01*
X129911128Y-117753474D01*
X127774926Y-115617272D01*
X127753186Y-115570652D01*
X127752900Y-115564098D01*
X127752900Y-114509065D01*
X127752901Y-114509056D01*
X127752901Y-114399696D01*
X127752504Y-114398738D01*
X127714399Y-114306744D01*
X127714399Y-114306743D01*
X127643257Y-114235601D01*
X127638970Y-114231314D01*
X127638963Y-114231308D01*
X127213929Y-113806274D01*
X127192189Y-113759654D01*
X127205503Y-113709967D01*
X127247640Y-113680462D01*
X127267103Y-113677900D01*
X127306331Y-113677900D01*
X127306334Y-113677900D01*
X127415163Y-113648739D01*
X127512737Y-113592405D01*
X127533328Y-113571814D01*
X127592403Y-113512740D01*
X127592403Y-113512738D01*
X127592405Y-113512737D01*
X127648739Y-113415163D01*
X127677900Y-113306334D01*
X127677900Y-113193666D01*
X127648739Y-113084837D01*
X127592405Y-112987263D01*
X127592403Y-112987261D01*
X127592401Y-112987258D01*
X127512741Y-112907598D01*
X127512735Y-112907594D01*
X127415164Y-112851261D01*
X127387955Y-112843970D01*
X127306334Y-112822100D01*
X127193666Y-112822100D01*
X127128368Y-112839596D01*
X127084835Y-112851261D01*
X126987264Y-112907594D01*
X126987258Y-112907598D01*
X126907598Y-112987258D01*
X126907594Y-112987264D01*
X126893225Y-113012152D01*
X126853820Y-113045217D01*
X126802380Y-113045217D01*
X126762975Y-113012152D01*
X126752900Y-112974552D01*
X126752900Y-112165372D01*
X126770493Y-112117034D01*
X126774926Y-112112198D01*
X127172463Y-111714661D01*
X127219083Y-111692921D01*
X127225637Y-111692635D01*
X127321066Y-111692635D01*
X127321069Y-111692635D01*
X127429898Y-111663474D01*
X127527472Y-111607140D01*
X127607140Y-111527472D01*
X127663474Y-111429898D01*
X127692635Y-111321069D01*
X127692635Y-111208401D01*
X127690302Y-111199693D01*
X128247099Y-111199693D01*
X128247099Y-111199695D01*
X128247099Y-111300305D01*
X128247099Y-111300306D01*
X128247100Y-111309061D01*
X128247100Y-115443626D01*
X128247099Y-115443640D01*
X128247099Y-115449695D01*
X128247099Y-115550305D01*
X128261943Y-115586139D01*
X128261943Y-115586140D01*
X128285601Y-115643258D01*
X128362928Y-115720585D01*
X128362941Y-115720595D01*
X128800074Y-116157728D01*
X128821814Y-116204348D01*
X128822100Y-116210902D01*
X128822100Y-116306334D01*
X128838007Y-116365700D01*
X128851261Y-116415164D01*
X128907594Y-116512735D01*
X128907598Y-116512741D01*
X128987258Y-116592401D01*
X128987261Y-116592403D01*
X128987263Y-116592405D01*
X129084837Y-116648739D01*
X129193666Y-116677900D01*
X129193669Y-116677900D01*
X129306331Y-116677900D01*
X129306334Y-116677900D01*
X129415163Y-116648739D01*
X129512737Y-116592405D01*
X129592405Y-116512737D01*
X129648739Y-116415163D01*
X129677900Y-116306334D01*
X129677900Y-116193666D01*
X129648739Y-116084837D01*
X129592405Y-115987263D01*
X129592403Y-115987261D01*
X129592401Y-115987258D01*
X129512741Y-115907598D01*
X129512735Y-115907594D01*
X129415164Y-115851261D01*
X129369147Y-115838931D01*
X129306334Y-115822100D01*
X129210902Y-115822100D01*
X129162564Y-115804507D01*
X129157728Y-115800074D01*
X128774926Y-115417272D01*
X128753186Y-115370652D01*
X128752900Y-115364098D01*
X128752900Y-114795544D01*
X130337500Y-114795544D01*
X130337500Y-114942455D01*
X130366160Y-115086544D01*
X130366161Y-115086545D01*
X130417715Y-115211006D01*
X130422380Y-115222269D01*
X130503999Y-115344420D01*
X130504001Y-115344422D01*
X130504003Y-115344425D01*
X130607874Y-115448296D01*
X130607877Y-115448298D01*
X130607880Y-115448301D01*
X130730031Y-115529920D01*
X130865754Y-115586138D01*
X130865755Y-115586139D01*
X130865756Y-115586139D01*
X130865758Y-115586140D01*
X130935439Y-115600000D01*
X131009844Y-115614800D01*
X131009845Y-115614800D01*
X131156756Y-115614800D01*
X131192532Y-115607683D01*
X131300842Y-115586140D01*
X131436569Y-115529920D01*
X131558720Y-115448301D01*
X131563313Y-115443707D01*
X131609931Y-115421966D01*
X131659619Y-115435276D01*
X131685966Y-115468101D01*
X131713989Y-115535756D01*
X132003300Y-115246445D01*
X132003300Y-115296078D01*
X132027152Y-115385095D01*
X132073230Y-115464905D01*
X132138395Y-115530070D01*
X132218205Y-115576148D01*
X132307222Y-115600000D01*
X132399378Y-115600000D01*
X132488395Y-115576148D01*
X132568205Y-115530070D01*
X132633370Y-115464905D01*
X132679448Y-115385095D01*
X132703300Y-115296078D01*
X132703300Y-115203922D01*
X132679448Y-115114905D01*
X132633370Y-115035095D01*
X132568205Y-114969930D01*
X132488395Y-114923852D01*
X132399378Y-114900000D01*
X132349745Y-114900000D01*
X132639056Y-114610689D01*
X132557486Y-114576902D01*
X132557483Y-114576901D01*
X132422246Y-114550000D01*
X132284354Y-114550000D01*
X132149116Y-114576901D01*
X132149114Y-114576902D01*
X132021727Y-114629667D01*
X131916152Y-114700210D01*
X131866186Y-114712436D01*
X131820051Y-114689684D01*
X131801921Y-114654859D01*
X131801509Y-114654984D01*
X131800843Y-114652789D01*
X131800619Y-114652357D01*
X131800440Y-114651458D01*
X131744220Y-114515731D01*
X131662601Y-114393580D01*
X131662598Y-114393577D01*
X131662596Y-114393574D01*
X131558725Y-114289703D01*
X131558722Y-114289701D01*
X131558720Y-114289699D01*
X131436569Y-114208080D01*
X131335368Y-114166161D01*
X131300845Y-114151861D01*
X131300844Y-114151860D01*
X131156756Y-114123200D01*
X131156755Y-114123200D01*
X131009845Y-114123200D01*
X131009844Y-114123200D01*
X130865755Y-114151860D01*
X130865754Y-114151861D01*
X130730032Y-114208079D01*
X130607877Y-114289701D01*
X130607874Y-114289703D01*
X130504003Y-114393574D01*
X130504001Y-114393577D01*
X130422379Y-114515732D01*
X130366161Y-114651454D01*
X130366160Y-114651455D01*
X130337500Y-114795544D01*
X128752900Y-114795544D01*
X128752900Y-113943666D01*
X129572100Y-113943666D01*
X129572100Y-114056334D01*
X129592748Y-114133391D01*
X129601261Y-114165164D01*
X129657594Y-114262735D01*
X129657598Y-114262741D01*
X129737258Y-114342401D01*
X129737261Y-114342403D01*
X129737263Y-114342405D01*
X129834837Y-114398739D01*
X129943666Y-114427900D01*
X129943669Y-114427900D01*
X130056331Y-114427900D01*
X130056334Y-114427900D01*
X130165163Y-114398739D01*
X130262737Y-114342405D01*
X130342405Y-114262737D01*
X130398739Y-114165163D01*
X130427900Y-114056334D01*
X130427900Y-113960902D01*
X130445493Y-113912564D01*
X130449926Y-113907728D01*
X131663988Y-112693666D01*
X132893255Y-111464399D01*
X132893257Y-111464399D01*
X132964399Y-111393257D01*
X132991470Y-111327900D01*
X133002901Y-111300305D01*
X133002901Y-111199695D01*
X133002901Y-111193640D01*
X133002900Y-111193626D01*
X133002900Y-109385902D01*
X133020493Y-109337564D01*
X133024926Y-109332728D01*
X133157728Y-109199926D01*
X133204348Y-109178186D01*
X133210902Y-109177900D01*
X133306331Y-109177900D01*
X133306334Y-109177900D01*
X133415163Y-109148739D01*
X133512737Y-109092405D01*
X133592405Y-109012737D01*
X133648739Y-108915163D01*
X133677900Y-108806334D01*
X133677900Y-108693666D01*
X133648739Y-108584837D01*
X133592405Y-108487263D01*
X133592403Y-108487261D01*
X133592401Y-108487258D01*
X133512741Y-108407598D01*
X133512735Y-108407594D01*
X133415164Y-108351261D01*
X133387955Y-108343970D01*
X133306334Y-108322100D01*
X133193666Y-108322100D01*
X133128368Y-108339596D01*
X133084835Y-108351261D01*
X132987264Y-108407594D01*
X132987258Y-108407598D01*
X132907598Y-108487258D01*
X132907594Y-108487264D01*
X132851261Y-108584835D01*
X132849234Y-108592401D01*
X132822100Y-108693666D01*
X132822100Y-108693668D01*
X132822100Y-108789097D01*
X132804507Y-108837435D01*
X132800084Y-108842260D01*
X132698679Y-108943666D01*
X132609380Y-109032965D01*
X132609337Y-109033005D01*
X132535601Y-109106741D01*
X132535601Y-109106742D01*
X132524474Y-109133607D01*
X132518206Y-109148739D01*
X132497100Y-109199694D01*
X132497099Y-109199696D01*
X132497099Y-109309056D01*
X132497100Y-109309065D01*
X132497100Y-111114096D01*
X132479507Y-111162434D01*
X132475074Y-111167270D01*
X130092270Y-113550074D01*
X130045650Y-113571814D01*
X130039096Y-113572100D01*
X129943666Y-113572100D01*
X129878368Y-113589596D01*
X129834835Y-113601261D01*
X129737264Y-113657594D01*
X129737258Y-113657598D01*
X129657598Y-113737258D01*
X129657594Y-113737264D01*
X129601261Y-113834835D01*
X129595924Y-113854754D01*
X129572100Y-113943666D01*
X128752900Y-113943666D01*
X128752900Y-111385902D01*
X128770493Y-111337564D01*
X128774926Y-111332728D01*
X132657728Y-107449926D01*
X132704348Y-107428186D01*
X132710902Y-107427900D01*
X132806331Y-107427900D01*
X132806334Y-107427900D01*
X132915163Y-107398739D01*
X133012737Y-107342405D01*
X133092405Y-107262737D01*
X133148739Y-107165163D01*
X133177900Y-107056334D01*
X133177900Y-106943666D01*
X133148739Y-106834837D01*
X133148100Y-106833731D01*
X133128801Y-106800304D01*
X133092405Y-106737263D01*
X133092403Y-106737261D01*
X133092401Y-106737258D01*
X133012741Y-106657598D01*
X133012735Y-106657594D01*
X132915164Y-106601261D01*
X132887955Y-106593970D01*
X132806334Y-106572100D01*
X132693666Y-106572100D01*
X132628368Y-106589596D01*
X132584835Y-106601261D01*
X132487264Y-106657594D01*
X132487258Y-106657598D01*
X132407598Y-106737258D01*
X132407594Y-106737264D01*
X132351261Y-106834835D01*
X132350930Y-106836071D01*
X132322100Y-106943666D01*
X132322100Y-106943668D01*
X132322100Y-107039096D01*
X132304507Y-107087434D01*
X132300074Y-107092270D01*
X128359380Y-111032964D01*
X128359358Y-111032984D01*
X128285602Y-111106740D01*
X128285599Y-111106744D01*
X128263046Y-111161191D01*
X128263047Y-111161192D01*
X128247099Y-111199693D01*
X127690302Y-111199693D01*
X127663474Y-111099572D01*
X127607140Y-111001998D01*
X127607138Y-111001996D01*
X127607136Y-111001993D01*
X127527476Y-110922333D01*
X127527470Y-110922329D01*
X127429899Y-110865996D01*
X127393212Y-110856166D01*
X127321069Y-110836835D01*
X127208401Y-110836835D01*
X127143103Y-110854331D01*
X127099570Y-110865996D01*
X127001999Y-110922329D01*
X127001993Y-110922333D01*
X126922333Y-111001993D01*
X126922329Y-111001999D01*
X126865996Y-111099570D01*
X126864074Y-111106744D01*
X126836835Y-111208401D01*
X126836835Y-111208403D01*
X126836835Y-111303831D01*
X126819242Y-111352169D01*
X126814809Y-111357005D01*
X126359380Y-111812434D01*
X126359358Y-111812454D01*
X126285604Y-111886208D01*
X126285600Y-111886214D01*
X126276744Y-111907596D01*
X126276744Y-111907597D01*
X126247099Y-111979165D01*
X126247099Y-112088526D01*
X126247100Y-112088535D01*
X126247100Y-113399692D01*
X126247099Y-113399695D01*
X126247099Y-113500305D01*
X126252249Y-113512737D01*
X126256883Y-113523926D01*
X126256884Y-113523928D01*
X126285601Y-113593258D01*
X126362928Y-113670585D01*
X126362941Y-113670595D01*
X127225074Y-114532728D01*
X127246814Y-114579348D01*
X127247100Y-114585902D01*
X127247100Y-115157895D01*
X127239358Y-115179165D01*
X127233501Y-115201027D01*
X127230683Y-115202999D01*
X127229507Y-115206233D01*
X127209902Y-115217551D01*
X127191365Y-115230532D01*
X127187938Y-115230232D01*
X127184958Y-115231953D01*
X127162664Y-115228021D01*
X127140120Y-115226050D01*
X127136295Y-115223371D01*
X127134300Y-115223020D01*
X127118727Y-115211070D01*
X127079756Y-115172100D01*
X127043257Y-115135601D01*
X127043253Y-115135599D01*
X124770595Y-112862941D01*
X124770585Y-112862928D01*
X124693258Y-112785601D01*
X124638806Y-112763047D01*
X124617426Y-112754191D01*
X124593031Y-112737890D01*
X124592406Y-112737265D01*
X124592405Y-112737263D01*
X124512737Y-112657595D01*
X124478087Y-112637590D01*
X124415164Y-112601261D01*
X124374887Y-112590469D01*
X124306334Y-112572100D01*
X124217102Y-112572100D01*
X124168764Y-112554507D01*
X124143044Y-112509958D01*
X124151977Y-112459300D01*
X124163928Y-112443726D01*
X125462409Y-111145245D01*
X129413986Y-107193666D01*
X130822100Y-107193666D01*
X130822100Y-107306334D01*
X130840344Y-107374419D01*
X130851261Y-107415164D01*
X130907594Y-107512735D01*
X130907598Y-107512741D01*
X130987258Y-107592401D01*
X130987261Y-107592403D01*
X130987263Y-107592405D01*
X131084837Y-107648739D01*
X131193666Y-107677900D01*
X131193669Y-107677900D01*
X131306331Y-107677900D01*
X131306334Y-107677900D01*
X131415163Y-107648739D01*
X131512737Y-107592405D01*
X131592405Y-107512737D01*
X131648739Y-107415163D01*
X131677900Y-107306334D01*
X131677900Y-107193666D01*
X131648739Y-107084837D01*
X131592405Y-106987263D01*
X131592403Y-106987261D01*
X131592401Y-106987258D01*
X131512741Y-106907598D01*
X131512735Y-106907594D01*
X131415164Y-106851261D01*
X131382097Y-106842401D01*
X131306334Y-106822100D01*
X131193666Y-106822100D01*
X131128368Y-106839596D01*
X131084835Y-106851261D01*
X130987264Y-106907594D01*
X130987258Y-106907598D01*
X130907598Y-106987258D01*
X130907594Y-106987264D01*
X130851261Y-107084835D01*
X130842180Y-107118726D01*
X130822100Y-107193666D01*
X129413986Y-107193666D01*
X129636023Y-106971629D01*
X129636036Y-106971620D01*
X129714398Y-106893258D01*
X129714399Y-106893257D01*
X129742003Y-106826614D01*
X129752901Y-106800305D01*
X129752901Y-106699695D01*
X129752901Y-106693640D01*
X129752900Y-106693626D01*
X129752900Y-106157320D01*
X129770493Y-106108982D01*
X129786402Y-106095634D01*
X129786227Y-106095405D01*
X129790132Y-106092407D01*
X129790137Y-106092405D01*
X129869805Y-106012737D01*
X129926139Y-105915163D01*
X129955300Y-105806334D01*
X129955300Y-105693666D01*
X129926139Y-105584837D01*
X129869805Y-105487263D01*
X129869803Y-105487261D01*
X129869801Y-105487258D01*
X129790141Y-105407598D01*
X129790135Y-105407594D01*
X129692564Y-105351261D01*
X129665355Y-105343970D01*
X129583734Y-105322100D01*
X129471066Y-105322100D01*
X129418976Y-105336057D01*
X129362230Y-105351262D01*
X129357682Y-105353147D01*
X129356729Y-105350848D01*
X129352632Y-105351569D01*
X129341158Y-105358194D01*
X129328086Y-105355889D01*
X129315018Y-105358189D01*
X129303547Y-105351561D01*
X129290500Y-105349261D01*
X129281968Y-105339094D01*
X129270478Y-105332455D01*
X129265947Y-105320000D01*
X129257435Y-105309856D01*
X129252900Y-105284136D01*
X129252900Y-105193666D01*
X132212900Y-105193666D01*
X132212900Y-105306334D01*
X132234770Y-105387955D01*
X132242061Y-105415164D01*
X132298394Y-105512735D01*
X132298398Y-105512741D01*
X132378058Y-105592401D01*
X132378061Y-105592403D01*
X132378063Y-105592405D01*
X132443516Y-105630194D01*
X132466143Y-105643258D01*
X132475637Y-105648739D01*
X132584466Y-105677900D01*
X132584469Y-105677900D01*
X132697131Y-105677900D01*
X132697134Y-105677900D01*
X132805963Y-105648739D01*
X132903537Y-105592405D01*
X132983205Y-105512737D01*
X133039539Y-105415163D01*
X133068700Y-105306334D01*
X133068700Y-105193666D01*
X133039539Y-105084837D01*
X132983205Y-104987263D01*
X132983203Y-104987261D01*
X132983201Y-104987258D01*
X132903541Y-104907598D01*
X132903535Y-104907594D01*
X132805964Y-104851261D01*
X132778755Y-104843970D01*
X132697134Y-104822100D01*
X132584466Y-104822100D01*
X132519168Y-104839596D01*
X132475635Y-104851261D01*
X132378064Y-104907594D01*
X132378058Y-104907598D01*
X132298398Y-104987258D01*
X132298394Y-104987264D01*
X132242061Y-105084835D01*
X132240034Y-105092401D01*
X132212900Y-105193666D01*
X129252900Y-105193666D01*
X129252900Y-102158391D01*
X129270493Y-102110053D01*
X129274926Y-102105217D01*
X129342401Y-102037741D01*
X129342405Y-102037737D01*
X129396717Y-101943666D01*
X137072100Y-101943666D01*
X137072100Y-102056334D01*
X137089986Y-102123084D01*
X137101261Y-102165164D01*
X137157594Y-102262735D01*
X137157598Y-102262741D01*
X137237258Y-102342401D01*
X137237261Y-102342403D01*
X137237263Y-102342405D01*
X137334837Y-102398739D01*
X137443666Y-102427900D01*
X137443669Y-102427900D01*
X137556331Y-102427900D01*
X137556334Y-102427900D01*
X137665163Y-102398739D01*
X137762737Y-102342405D01*
X137842405Y-102262737D01*
X137898739Y-102165163D01*
X137927900Y-102056334D01*
X137927900Y-101943666D01*
X137898739Y-101834837D01*
X137898171Y-101833854D01*
X137870312Y-101785600D01*
X137842405Y-101737263D01*
X137842403Y-101737261D01*
X137842401Y-101737258D01*
X137762741Y-101657598D01*
X137762735Y-101657594D01*
X137665164Y-101601261D01*
X137637955Y-101593970D01*
X137556334Y-101572100D01*
X137443666Y-101572100D01*
X137378368Y-101589596D01*
X137334835Y-101601261D01*
X137237264Y-101657594D01*
X137237258Y-101657598D01*
X137157598Y-101737258D01*
X137157594Y-101737264D01*
X137101261Y-101834835D01*
X137095391Y-101856743D01*
X137072100Y-101943666D01*
X129396717Y-101943666D01*
X129398739Y-101940163D01*
X129427900Y-101831334D01*
X129427900Y-101718666D01*
X129398739Y-101609837D01*
X129342405Y-101512263D01*
X129342403Y-101512261D01*
X129342401Y-101512258D01*
X129262741Y-101432598D01*
X129262735Y-101432594D01*
X129165164Y-101376261D01*
X129137955Y-101368970D01*
X129056334Y-101347100D01*
X128943666Y-101347100D01*
X128878368Y-101364596D01*
X128834835Y-101376261D01*
X128737264Y-101432594D01*
X128737258Y-101432598D01*
X128657598Y-101512258D01*
X128657594Y-101512264D01*
X128601261Y-101609835D01*
X128597148Y-101625185D01*
X128572100Y-101718666D01*
X128572100Y-101831334D01*
X128593970Y-101912955D01*
X128601261Y-101940164D01*
X128657594Y-102037735D01*
X128657598Y-102037741D01*
X128725074Y-102105217D01*
X128746814Y-102151837D01*
X128747100Y-102158391D01*
X128747100Y-106614096D01*
X128729507Y-106662434D01*
X128725074Y-106667270D01*
X128333674Y-107058670D01*
X128287054Y-107080410D01*
X128237367Y-107067096D01*
X128207862Y-107024959D01*
X128205300Y-107005496D01*
X128205300Y-106920413D01*
X128205300Y-106920411D01*
X128176139Y-106811582D01*
X128119805Y-106714008D01*
X128119803Y-106714006D01*
X128119801Y-106714003D01*
X128040141Y-106634343D01*
X128040135Y-106634339D01*
X127942564Y-106578006D01*
X127915355Y-106570715D01*
X127833734Y-106548845D01*
X127721066Y-106548845D01*
X127655768Y-106566341D01*
X127612235Y-106578006D01*
X127514664Y-106634339D01*
X127514658Y-106634343D01*
X127434998Y-106714003D01*
X127434994Y-106714009D01*
X127378661Y-106811580D01*
X127372099Y-106836071D01*
X127349500Y-106920411D01*
X127349500Y-107033079D01*
X127366999Y-107098384D01*
X127378661Y-107141909D01*
X127434994Y-107239480D01*
X127434998Y-107239486D01*
X127514658Y-107319146D01*
X127514661Y-107319148D01*
X127514663Y-107319150D01*
X127612237Y-107375484D01*
X127721066Y-107404645D01*
X127721069Y-107404645D01*
X127806152Y-107404645D01*
X127854490Y-107422238D01*
X127880210Y-107466787D01*
X127871277Y-107517445D01*
X127859326Y-107533018D01*
X124836013Y-110556331D01*
X121842270Y-113550074D01*
X121795650Y-113571814D01*
X121789096Y-113572100D01*
X121693666Y-113572100D01*
X121628368Y-113589596D01*
X121584835Y-113601261D01*
X121487264Y-113657594D01*
X121487258Y-113657598D01*
X121407598Y-113737258D01*
X121407594Y-113737264D01*
X121351261Y-113834835D01*
X121345924Y-113854754D01*
X121322100Y-113943666D01*
X121322100Y-114056334D01*
X121342748Y-114133391D01*
X121351261Y-114165164D01*
X121393611Y-114238516D01*
X121402544Y-114289174D01*
X121376824Y-114333723D01*
X121336091Y-114348547D01*
X121336371Y-114350672D01*
X121331488Y-114351314D01*
X121222651Y-114380477D01*
X121125080Y-114436810D01*
X121125074Y-114436814D01*
X121045414Y-114516474D01*
X121045410Y-114516480D01*
X120989077Y-114614051D01*
X120978143Y-114654859D01*
X120959916Y-114722882D01*
X120959916Y-114835550D01*
X120977186Y-114900000D01*
X120989077Y-114944380D01*
X121045410Y-115041951D01*
X121045414Y-115041957D01*
X121125074Y-115121617D01*
X121128989Y-115124621D01*
X121127700Y-115126299D01*
X121155615Y-115159566D01*
X121155615Y-115211006D01*
X121150076Y-115222885D01*
X121101261Y-115307436D01*
X121095904Y-115327430D01*
X121072100Y-115416266D01*
X121072100Y-115528934D01*
X121088707Y-115590911D01*
X121101262Y-115637769D01*
X121103147Y-115642318D01*
X121100848Y-115643270D01*
X121108189Y-115684982D01*
X121082455Y-115729522D01*
X121034136Y-115747100D01*
X119135902Y-115747100D01*
X119087564Y-115729507D01*
X119082728Y-115725074D01*
X117220595Y-113862941D01*
X117220585Y-113862928D01*
X117143258Y-113785601D01*
X117088806Y-113763047D01*
X117080615Y-113759654D01*
X117050305Y-113747099D01*
X116949695Y-113747099D01*
X116940943Y-113747099D01*
X116940935Y-113747100D01*
X116883391Y-113747100D01*
X116835053Y-113729507D01*
X116830217Y-113725074D01*
X116762741Y-113657598D01*
X116762735Y-113657594D01*
X116665164Y-113601261D01*
X116632097Y-113592401D01*
X116556334Y-113572100D01*
X116443666Y-113572100D01*
X116378368Y-113589596D01*
X116334835Y-113601261D01*
X116237264Y-113657594D01*
X116237258Y-113657598D01*
X116157598Y-113737258D01*
X116157594Y-113737264D01*
X116101261Y-113834835D01*
X116095924Y-113854754D01*
X116072100Y-113943666D01*
X116072100Y-114056334D01*
X116092748Y-114133391D01*
X116101261Y-114165164D01*
X116157594Y-114262735D01*
X116157598Y-114262741D01*
X116237258Y-114342401D01*
X116237261Y-114342403D01*
X116237263Y-114342405D01*
X116334837Y-114398739D01*
X116443666Y-114427900D01*
X116443669Y-114427900D01*
X116556331Y-114427900D01*
X116556334Y-114427900D01*
X116665163Y-114398739D01*
X116762737Y-114342405D01*
X116820570Y-114284571D01*
X116867189Y-114262832D01*
X116916876Y-114276145D01*
X116926918Y-114284572D01*
X118589171Y-115946825D01*
X118610911Y-115993445D01*
X118597597Y-116043132D01*
X118589171Y-116053174D01*
X118359374Y-116282970D01*
X118359373Y-116282969D01*
X118285602Y-116356740D01*
X118285599Y-116356744D01*
X118263046Y-116411191D01*
X118263047Y-116411192D01*
X118247099Y-116449693D01*
X118247099Y-116559056D01*
X118247100Y-116559065D01*
X118247100Y-116581254D01*
X118229507Y-116629592D01*
X118225074Y-116634428D01*
X118137589Y-116721912D01*
X118077964Y-116825185D01*
X118077964Y-116825186D01*
X118074418Y-116838420D01*
X118047100Y-116940375D01*
X118047100Y-117059625D01*
X118075007Y-117163776D01*
X118077964Y-117174813D01*
X118077964Y-117174814D01*
X118137589Y-117278087D01*
X118225074Y-117365572D01*
X118246814Y-117412192D01*
X118247100Y-117418746D01*
X118247100Y-119364097D01*
X118229507Y-119412435D01*
X118225074Y-119417271D01*
X116450604Y-121191739D01*
X116449424Y-121192288D01*
X116448836Y-121193451D01*
X116426237Y-121203101D01*
X116403984Y-121213479D01*
X116402338Y-121213307D01*
X116401530Y-121213653D01*
X116375601Y-121210527D01*
X116285631Y-121183235D01*
X116272011Y-121177593D01*
X116128560Y-121100916D01*
X116116303Y-121092727D01*
X115987684Y-120987173D01*
X115982216Y-120982216D01*
X115246526Y-120246526D01*
X115224786Y-120199906D01*
X115224500Y-120193352D01*
X115224500Y-119316249D01*
X115242093Y-119267911D01*
X115286642Y-119242191D01*
X115337297Y-119251123D01*
X115349187Y-119257988D01*
X115464375Y-119288852D01*
X115464378Y-119288852D01*
X115583622Y-119288852D01*
X115583625Y-119288852D01*
X115698813Y-119257988D01*
X115802087Y-119198362D01*
X115886410Y-119114039D01*
X115946036Y-119010765D01*
X115976900Y-118895577D01*
X115976900Y-118776327D01*
X115946036Y-118661139D01*
X115928172Y-118630198D01*
X115886410Y-118557864D01*
X115802087Y-118473541D01*
X115698813Y-118413916D01*
X115583625Y-118383052D01*
X115464375Y-118383052D01*
X115378786Y-118405985D01*
X115349186Y-118413916D01*
X115349185Y-118413916D01*
X115337300Y-118420779D01*
X115286641Y-118429711D01*
X115242093Y-118403991D01*
X115224500Y-118355654D01*
X115224500Y-115789302D01*
X115242093Y-115740964D01*
X115246526Y-115736128D01*
X115438988Y-115543666D01*
X115643255Y-115339399D01*
X115643257Y-115339399D01*
X115714399Y-115268257D01*
X115739878Y-115206744D01*
X115752901Y-115175305D01*
X115752901Y-115074695D01*
X115752901Y-115068640D01*
X115752900Y-115068626D01*
X115752900Y-114133391D01*
X115770493Y-114085053D01*
X115774926Y-114080217D01*
X115842401Y-114012741D01*
X115842405Y-114012737D01*
X115898739Y-113915163D01*
X115927900Y-113806334D01*
X115927900Y-113693666D01*
X115898739Y-113584837D01*
X115842405Y-113487263D01*
X115842403Y-113487261D01*
X115842401Y-113487258D01*
X115762741Y-113407598D01*
X115762735Y-113407594D01*
X115757199Y-113404398D01*
X115733749Y-113390859D01*
X115665164Y-113351261D01*
X115632097Y-113342401D01*
X115556334Y-113322100D01*
X115443666Y-113322100D01*
X115378368Y-113339596D01*
X115334835Y-113351261D01*
X115237264Y-113407594D01*
X115237258Y-113407598D01*
X115157598Y-113487258D01*
X115157594Y-113487264D01*
X115101261Y-113584835D01*
X115086680Y-113639251D01*
X115072100Y-113693666D01*
X115072100Y-113806334D01*
X115087265Y-113862928D01*
X115101261Y-113915164D01*
X115157594Y-114012735D01*
X115157598Y-114012741D01*
X115225074Y-114080217D01*
X115246814Y-114126837D01*
X115247100Y-114133391D01*
X115247100Y-114989097D01*
X115229507Y-115037435D01*
X115225074Y-115042271D01*
X114830980Y-115436364D01*
X114830958Y-115436384D01*
X114757201Y-115510141D01*
X114757200Y-115510143D01*
X114740567Y-115550302D01*
X114740566Y-115550305D01*
X114718699Y-115603093D01*
X114718699Y-115712456D01*
X114718700Y-115712465D01*
X114718700Y-119924800D01*
X114701107Y-119973138D01*
X114656558Y-119998858D01*
X114643500Y-120000000D01*
X109639201Y-120000000D01*
X109590863Y-119982407D01*
X109565143Y-119937858D01*
X109574076Y-119887200D01*
X109586027Y-119871626D01*
X110541387Y-118916266D01*
X113322100Y-118916266D01*
X113322100Y-119028934D01*
X113342949Y-119106743D01*
X113351261Y-119137764D01*
X113407594Y-119235335D01*
X113407598Y-119235341D01*
X113487258Y-119315001D01*
X113487261Y-119315003D01*
X113487263Y-119315005D01*
X113584837Y-119371339D01*
X113693666Y-119400500D01*
X113693669Y-119400500D01*
X113806331Y-119400500D01*
X113806334Y-119400500D01*
X113915163Y-119371339D01*
X114012737Y-119315005D01*
X114092405Y-119235337D01*
X114148739Y-119137763D01*
X114177900Y-119028934D01*
X114177900Y-118916266D01*
X114148739Y-118807437D01*
X114092405Y-118709863D01*
X114092403Y-118709861D01*
X114092401Y-118709858D01*
X114012741Y-118630198D01*
X114012735Y-118630194D01*
X113915164Y-118573861D01*
X113887955Y-118566570D01*
X113806334Y-118544700D01*
X113693666Y-118544700D01*
X113628368Y-118562196D01*
X113584835Y-118573861D01*
X113487264Y-118630194D01*
X113487258Y-118630198D01*
X113407598Y-118709858D01*
X113407594Y-118709864D01*
X113351261Y-118807435D01*
X113344159Y-118833940D01*
X113322100Y-118916266D01*
X110541387Y-118916266D01*
X110599490Y-118858163D01*
X112572818Y-116884835D01*
X114636023Y-114821629D01*
X114636036Y-114821620D01*
X114714398Y-114743258D01*
X114714399Y-114743257D01*
X114743109Y-114673944D01*
X114752901Y-114650305D01*
X114752901Y-114549695D01*
X114752901Y-114543640D01*
X114752900Y-114543626D01*
X114752900Y-113385902D01*
X114770493Y-113337564D01*
X114774926Y-113332728D01*
X115082728Y-113024926D01*
X115129348Y-113003186D01*
X115135902Y-113002900D01*
X117364098Y-113002900D01*
X117412436Y-113020493D01*
X117417271Y-113024925D01*
X117778247Y-113385902D01*
X118131308Y-113738963D01*
X118131321Y-113738978D01*
X118206738Y-113814395D01*
X118206741Y-113814397D01*
X118206743Y-113814399D01*
X118233968Y-113825675D01*
X118299695Y-113852901D01*
X118409057Y-113852901D01*
X118409065Y-113852900D01*
X120340935Y-113852900D01*
X120340943Y-113852901D01*
X120349695Y-113852901D01*
X120450305Y-113852901D01*
X120493914Y-113834837D01*
X120543257Y-113814399D01*
X120614399Y-113743257D01*
X120621620Y-113736036D01*
X120621629Y-113736023D01*
X121657728Y-112699926D01*
X121704348Y-112678186D01*
X121710902Y-112677900D01*
X121806331Y-112677900D01*
X121806334Y-112677900D01*
X121915163Y-112648739D01*
X122012737Y-112592405D01*
X122092405Y-112512737D01*
X122148739Y-112415163D01*
X122177900Y-112306334D01*
X122177900Y-112193666D01*
X122148739Y-112084837D01*
X122145816Y-112079775D01*
X122136833Y-112064216D01*
X122092405Y-111987263D01*
X122092403Y-111987261D01*
X122092401Y-111987258D01*
X122012741Y-111907598D01*
X122012735Y-111907594D01*
X121915164Y-111851261D01*
X121887955Y-111843970D01*
X121806334Y-111822100D01*
X121693666Y-111822100D01*
X121628368Y-111839596D01*
X121584835Y-111851261D01*
X121487264Y-111907594D01*
X121487258Y-111907598D01*
X121407598Y-111987258D01*
X121407594Y-111987264D01*
X121351261Y-112084835D01*
X121342634Y-112117034D01*
X121322100Y-112193666D01*
X121322100Y-112193668D01*
X121322100Y-112289096D01*
X121304507Y-112337434D01*
X121300074Y-112342270D01*
X121051876Y-112590469D01*
X120557509Y-113084837D01*
X120317272Y-113325074D01*
X120270652Y-113346814D01*
X120264098Y-113347100D01*
X118485903Y-113347100D01*
X118437565Y-113329507D01*
X118432729Y-113325074D01*
X117720595Y-112612941D01*
X117720585Y-112612928D01*
X117643258Y-112535601D01*
X117588057Y-112512737D01*
X117588055Y-112512736D01*
X117550306Y-112497099D01*
X117550305Y-112497099D01*
X117449695Y-112497099D01*
X117440943Y-112497099D01*
X117440935Y-112497100D01*
X115059065Y-112497100D01*
X115059057Y-112497099D01*
X115050305Y-112497099D01*
X114949695Y-112497099D01*
X114949694Y-112497099D01*
X114911945Y-112512736D01*
X114911943Y-112512737D01*
X114856741Y-112535601D01*
X114782974Y-112609369D01*
X114782964Y-112609380D01*
X114359380Y-113032964D01*
X114359358Y-113032984D01*
X114285601Y-113106741D01*
X114285600Y-113106743D01*
X114270477Y-113143256D01*
X114270476Y-113143259D01*
X114247099Y-113199693D01*
X114247099Y-113309056D01*
X114247100Y-113309065D01*
X114247100Y-114464098D01*
X114229507Y-114512436D01*
X114225074Y-114517272D01*
X109267272Y-119475074D01*
X109220652Y-119496814D01*
X109214098Y-119497100D01*
X108633391Y-119497100D01*
X108585053Y-119479507D01*
X108580217Y-119475074D01*
X108512741Y-119407598D01*
X108512735Y-119407594D01*
X108415164Y-119351261D01*
X108387955Y-119343970D01*
X108306334Y-119322100D01*
X108193666Y-119322100D01*
X108128368Y-119339596D01*
X108084835Y-119351261D01*
X107987264Y-119407594D01*
X107987258Y-119407598D01*
X107907598Y-119487258D01*
X107907594Y-119487264D01*
X107851261Y-119584835D01*
X107850027Y-119589441D01*
X107822100Y-119693666D01*
X107822100Y-119806334D01*
X107830933Y-119839299D01*
X107841038Y-119877013D01*
X107836554Y-119928257D01*
X107800180Y-119964630D01*
X107753729Y-119970230D01*
X107565621Y-119932813D01*
X107556120Y-119930267D01*
X107317729Y-119849344D01*
X107308641Y-119845580D01*
X107286852Y-119834835D01*
X107082850Y-119734232D01*
X107074331Y-119729313D01*
X106864998Y-119589441D01*
X106857194Y-119583453D01*
X106666059Y-119415832D01*
X106662468Y-119412468D01*
X106087531Y-118837531D01*
X106084167Y-118833940D01*
X105916546Y-118642805D01*
X105910558Y-118635001D01*
X105770686Y-118425668D01*
X105765767Y-118417149D01*
X105760262Y-118405985D01*
X105654415Y-118191348D01*
X105650659Y-118182279D01*
X105569729Y-117943870D01*
X105567188Y-117934387D01*
X105518069Y-117687450D01*
X105516788Y-117677715D01*
X105500161Y-117424029D01*
X105500000Y-117419111D01*
X105500000Y-115036355D01*
X109351120Y-115036355D01*
X109351120Y-115155605D01*
X109381984Y-115270793D01*
X109381984Y-115270794D01*
X109441609Y-115374067D01*
X109525932Y-115458390D01*
X109585347Y-115492693D01*
X109629207Y-115518016D01*
X109744395Y-115548880D01*
X109744398Y-115548880D01*
X109863642Y-115548880D01*
X109863645Y-115548880D01*
X109978833Y-115518016D01*
X110082107Y-115458390D01*
X110166430Y-115374067D01*
X110226056Y-115270793D01*
X110256920Y-115155605D01*
X110256920Y-115036355D01*
X110226056Y-114921167D01*
X110213835Y-114900000D01*
X110166430Y-114817892D01*
X110082107Y-114733569D01*
X109978834Y-114673944D01*
X109978833Y-114673944D01*
X109863645Y-114643080D01*
X109744395Y-114643080D01*
X109669880Y-114663046D01*
X109629206Y-114673944D01*
X109629205Y-114673944D01*
X109525932Y-114733569D01*
X109441609Y-114817892D01*
X109381984Y-114921165D01*
X109381984Y-114921166D01*
X109376740Y-114940737D01*
X109351120Y-115036355D01*
X105500000Y-115036355D01*
X105500000Y-112940375D01*
X109487100Y-112940375D01*
X109487100Y-113059625D01*
X109493855Y-113084835D01*
X109497448Y-113098247D01*
X109495346Y-113131794D01*
X109498544Y-113132430D01*
X109497099Y-113139696D01*
X109497099Y-113240306D01*
X109535600Y-113333253D01*
X109535601Y-113333255D01*
X109535602Y-113333256D01*
X109606744Y-113404398D01*
X109606745Y-113404398D01*
X109606746Y-113404399D01*
X109614462Y-113407595D01*
X109699695Y-113442901D01*
X109800305Y-113442901D01*
X109807570Y-113441456D01*
X109808273Y-113444990D01*
X109841752Y-113442551D01*
X109880375Y-113452900D01*
X109880378Y-113452900D01*
X109999622Y-113452900D01*
X109999625Y-113452900D01*
X110114813Y-113422036D01*
X110218087Y-113362410D01*
X110258397Y-113322100D01*
X110305572Y-113274926D01*
X110352192Y-113253186D01*
X110358746Y-113252900D01*
X110790935Y-113252900D01*
X110790943Y-113252901D01*
X110799695Y-113252901D01*
X110900305Y-113252901D01*
X110942067Y-113235602D01*
X110993257Y-113214399D01*
X111064399Y-113143257D01*
X111071620Y-113136036D01*
X111071629Y-113136023D01*
X112857728Y-111349926D01*
X112872604Y-111342988D01*
X112885182Y-111332435D01*
X112901349Y-111329584D01*
X112904348Y-111328186D01*
X112910902Y-111327900D01*
X112989098Y-111327900D01*
X113037436Y-111345493D01*
X113042272Y-111349926D01*
X113186751Y-111494405D01*
X113208491Y-111541025D01*
X113195177Y-111590712D01*
X113153040Y-111620217D01*
X113143941Y-111622026D01*
X113034835Y-111651261D01*
X112937264Y-111707594D01*
X112937258Y-111707598D01*
X112857598Y-111787258D01*
X112857594Y-111787264D01*
X112801261Y-111884835D01*
X112795162Y-111907597D01*
X112772100Y-111993666D01*
X112772100Y-112106334D01*
X112793970Y-112187955D01*
X112801261Y-112215164D01*
X112857594Y-112312735D01*
X112857598Y-112312741D01*
X112937258Y-112392401D01*
X112937261Y-112392403D01*
X112937263Y-112392405D01*
X113034837Y-112448739D01*
X113143666Y-112477900D01*
X113143669Y-112477900D01*
X113256331Y-112477900D01*
X113256334Y-112477900D01*
X113365163Y-112448739D01*
X113462737Y-112392405D01*
X113542405Y-112312737D01*
X113598739Y-112215163D01*
X113627900Y-112106334D01*
X113627900Y-111993666D01*
X113598739Y-111884837D01*
X113587690Y-111865699D01*
X113578759Y-111815041D01*
X113604479Y-111770493D01*
X113652816Y-111752900D01*
X115690935Y-111752900D01*
X115690943Y-111752901D01*
X115699695Y-111752901D01*
X115800306Y-111752901D01*
X115838806Y-111736952D01*
X115893257Y-111714399D01*
X115964399Y-111643257D01*
X115971620Y-111636036D01*
X115971629Y-111636023D01*
X116287977Y-111319675D01*
X116334596Y-111297936D01*
X116378750Y-111307725D01*
X116384835Y-111311238D01*
X116384837Y-111311239D01*
X116493666Y-111340400D01*
X116493669Y-111340400D01*
X116606331Y-111340400D01*
X116606334Y-111340400D01*
X116715163Y-111311239D01*
X116812737Y-111254905D01*
X116892405Y-111175237D01*
X116948739Y-111077663D01*
X116977900Y-110968834D01*
X116977900Y-110856166D01*
X116948739Y-110747337D01*
X116892405Y-110649763D01*
X116892402Y-110649760D01*
X116892401Y-110649758D01*
X116812741Y-110570098D01*
X116812735Y-110570094D01*
X116715164Y-110513761D01*
X116687955Y-110506470D01*
X116606334Y-110484600D01*
X116493666Y-110484600D01*
X116431487Y-110501261D01*
X116384835Y-110513761D01*
X116287264Y-110570094D01*
X116287258Y-110570098D01*
X116207597Y-110649760D01*
X116207595Y-110649762D01*
X116164752Y-110723966D01*
X116152805Y-110739537D01*
X116145008Y-110747335D01*
X116123102Y-110769242D01*
X116123100Y-110769242D01*
X116123100Y-110769244D01*
X115667271Y-111225074D01*
X115620651Y-111246814D01*
X115614097Y-111247100D01*
X113685902Y-111247100D01*
X113637564Y-111229507D01*
X113632728Y-111225074D01*
X113399926Y-110992272D01*
X113378186Y-110945652D01*
X113377900Y-110939098D01*
X113377900Y-110843668D01*
X113377900Y-110843666D01*
X113348739Y-110734837D01*
X113292405Y-110637263D01*
X113292403Y-110637261D01*
X113292401Y-110637258D01*
X113212741Y-110557598D01*
X113212735Y-110557594D01*
X113210547Y-110556331D01*
X113136814Y-110513761D01*
X113115164Y-110501261D01*
X113087955Y-110493970D01*
X113006334Y-110472100D01*
X112893666Y-110472100D01*
X112828368Y-110489596D01*
X112784835Y-110501261D01*
X112687264Y-110557594D01*
X112687258Y-110557598D01*
X112607598Y-110637258D01*
X112607594Y-110637264D01*
X112551261Y-110734835D01*
X112536680Y-110789251D01*
X112522100Y-110843666D01*
X112522100Y-110843668D01*
X112522100Y-110939096D01*
X112504507Y-110987434D01*
X112500074Y-110992270D01*
X110767272Y-112725074D01*
X110720652Y-112746814D01*
X110714098Y-112747100D01*
X110358746Y-112747100D01*
X110310408Y-112729507D01*
X110305572Y-112725074D01*
X110218087Y-112637589D01*
X110114813Y-112577964D01*
X109999625Y-112547100D01*
X109880375Y-112547100D01*
X109793984Y-112570248D01*
X109765186Y-112577964D01*
X109765185Y-112577964D01*
X109661912Y-112637589D01*
X109577589Y-112721912D01*
X109517964Y-112825185D01*
X109517964Y-112825186D01*
X109507848Y-112862941D01*
X109487100Y-112940375D01*
X105500000Y-112940375D01*
X105500000Y-108750000D01*
X104943666Y-108193666D01*
X107072100Y-108193666D01*
X107072100Y-108306334D01*
X107093970Y-108387955D01*
X107101261Y-108415164D01*
X107157594Y-108512735D01*
X107157598Y-108512741D01*
X107237258Y-108592401D01*
X107237261Y-108592403D01*
X107237263Y-108592405D01*
X107334837Y-108648739D01*
X107443666Y-108677900D01*
X107443669Y-108677900D01*
X107556331Y-108677900D01*
X107556334Y-108677900D01*
X107665163Y-108648739D01*
X107762737Y-108592405D01*
X107842405Y-108512737D01*
X107898739Y-108415163D01*
X107927900Y-108306334D01*
X107927900Y-108193666D01*
X107898739Y-108084837D01*
X107842405Y-107987263D01*
X107842403Y-107987261D01*
X107842401Y-107987258D01*
X107762741Y-107907598D01*
X107762735Y-107907594D01*
X107665164Y-107851261D01*
X107637955Y-107843970D01*
X107556334Y-107822100D01*
X107443666Y-107822100D01*
X107378368Y-107839596D01*
X107334835Y-107851261D01*
X107237264Y-107907594D01*
X107237258Y-107907598D01*
X107157598Y-107987258D01*
X107157594Y-107987264D01*
X107101261Y-108084835D01*
X107086680Y-108139251D01*
X107072100Y-108193666D01*
X104943666Y-108193666D01*
X104750000Y-108000000D01*
X104219670Y-108000000D01*
X102828427Y-108000000D01*
X102000000Y-108000000D01*
X101414214Y-108585786D01*
X100837531Y-109162468D01*
X100833940Y-109165832D01*
X100642805Y-109333453D01*
X100635001Y-109339441D01*
X100425668Y-109479313D01*
X100417149Y-109484232D01*
X100191358Y-109595580D01*
X100182270Y-109599344D01*
X99943879Y-109680267D01*
X99934378Y-109682813D01*
X99687459Y-109731928D01*
X99677706Y-109733212D01*
X99424029Y-109749839D01*
X99419111Y-109750000D01*
X98107249Y-109750000D01*
X98099878Y-109749638D01*
X97944403Y-109734324D01*
X97929945Y-109731448D01*
X97783999Y-109687176D01*
X97770379Y-109681534D01*
X97635879Y-109609642D01*
X97623622Y-109601453D01*
X97568640Y-109556331D01*
X97505721Y-109504695D01*
X97495304Y-109494278D01*
X97398546Y-109376377D01*
X97390357Y-109364120D01*
X97318465Y-109229620D01*
X97312823Y-109216000D01*
X97268551Y-109070054D01*
X97265675Y-109055596D01*
X97250362Y-108900122D01*
X97250000Y-108892751D01*
X97250000Y-106443666D01*
X101822100Y-106443666D01*
X101822100Y-106556334D01*
X101843002Y-106634339D01*
X101851261Y-106665164D01*
X101907594Y-106762735D01*
X101907598Y-106762741D01*
X101987258Y-106842401D01*
X101987261Y-106842403D01*
X101987263Y-106842405D01*
X102012465Y-106856955D01*
X102075343Y-106893258D01*
X102084837Y-106898739D01*
X102193666Y-106927900D01*
X102193669Y-106927900D01*
X102306331Y-106927900D01*
X102306334Y-106927900D01*
X102415163Y-106898739D01*
X102512737Y-106842405D01*
X102592405Y-106762737D01*
X102648739Y-106665163D01*
X102677283Y-106558634D01*
X102706787Y-106516500D01*
X102749920Y-106502900D01*
X107114098Y-106502900D01*
X107162436Y-106520493D01*
X107167272Y-106524926D01*
X110425074Y-109782728D01*
X110446814Y-109829348D01*
X110447100Y-109835902D01*
X110447100Y-110016609D01*
X110429507Y-110064947D01*
X110425074Y-110069783D01*
X110357598Y-110137258D01*
X110357594Y-110137264D01*
X110301261Y-110234835D01*
X110288720Y-110281641D01*
X110272100Y-110343666D01*
X110272100Y-110456334D01*
X110287488Y-110513761D01*
X110301261Y-110565164D01*
X110357594Y-110662735D01*
X110357598Y-110662741D01*
X110437258Y-110742401D01*
X110437261Y-110742403D01*
X110437263Y-110742405D01*
X110534837Y-110798739D01*
X110643666Y-110827900D01*
X110643669Y-110827900D01*
X110756331Y-110827900D01*
X110756334Y-110827900D01*
X110865163Y-110798739D01*
X110962737Y-110742405D01*
X111042405Y-110662737D01*
X111098739Y-110565163D01*
X111127900Y-110456334D01*
X111127900Y-110343666D01*
X111098739Y-110234837D01*
X111042405Y-110137263D01*
X111042403Y-110137261D01*
X111042401Y-110137258D01*
X110974926Y-110069783D01*
X110953186Y-110023163D01*
X110952900Y-110016609D01*
X110952900Y-109759065D01*
X110952901Y-109759056D01*
X110952901Y-109649694D01*
X110952900Y-109649693D01*
X110952504Y-109648738D01*
X110929170Y-109592405D01*
X110914399Y-109556743D01*
X110914397Y-109556741D01*
X110914397Y-109556740D01*
X110838980Y-109481323D01*
X110838960Y-109481306D01*
X110551320Y-109193666D01*
X111072100Y-109193666D01*
X111072100Y-109306334D01*
X111087584Y-109364120D01*
X111101261Y-109415164D01*
X111157594Y-109512735D01*
X111157598Y-109512741D01*
X111237258Y-109592401D01*
X111237260Y-109592402D01*
X111237263Y-109592405D01*
X111334837Y-109648739D01*
X111443666Y-109677900D01*
X111443669Y-109677900D01*
X111556331Y-109677900D01*
X111556334Y-109677900D01*
X111665163Y-109648739D01*
X111762737Y-109592405D01*
X111842405Y-109512737D01*
X111898739Y-109415163D01*
X111927900Y-109306334D01*
X111927900Y-109193666D01*
X111898739Y-109084837D01*
X111842405Y-108987263D01*
X111842403Y-108987261D01*
X111842401Y-108987258D01*
X111762741Y-108907598D01*
X111762735Y-108907594D01*
X111665164Y-108851261D01*
X111631616Y-108842272D01*
X111556334Y-108822100D01*
X111443666Y-108822100D01*
X111386436Y-108837435D01*
X111334835Y-108851261D01*
X111237264Y-108907594D01*
X111237258Y-108907598D01*
X111157598Y-108987258D01*
X111157594Y-108987264D01*
X111101261Y-109084835D01*
X111095391Y-109106743D01*
X111072100Y-109193666D01*
X110551320Y-109193666D01*
X107660827Y-106303173D01*
X107639087Y-106256553D01*
X107652401Y-106206866D01*
X107660817Y-106196836D01*
X108136023Y-105721629D01*
X108136036Y-105721620D01*
X108214398Y-105643258D01*
X108214399Y-105643257D01*
X108243143Y-105573861D01*
X108252901Y-105550305D01*
X108252901Y-105449695D01*
X108252901Y-105443640D01*
X108252900Y-105443626D01*
X108252900Y-104385902D01*
X108270493Y-104337564D01*
X108274926Y-104332728D01*
X108951489Y-103656166D01*
X112534600Y-103656166D01*
X112534600Y-103768834D01*
X112548873Y-103822100D01*
X112563761Y-103877664D01*
X112612025Y-103961259D01*
X112622100Y-103998859D01*
X112622100Y-105568626D01*
X112622099Y-105568640D01*
X112622099Y-105675306D01*
X112629067Y-105692126D01*
X112629068Y-105692131D01*
X112629069Y-105692131D01*
X112660601Y-105768258D01*
X112737928Y-105845585D01*
X112737941Y-105845595D01*
X114266764Y-107374419D01*
X114266777Y-107374434D01*
X114342194Y-107449851D01*
X114342197Y-107449853D01*
X114342199Y-107449855D01*
X114369424Y-107461131D01*
X114435151Y-107488357D01*
X114544513Y-107488357D01*
X114544521Y-107488356D01*
X114949695Y-107488356D01*
X115199695Y-107488356D01*
X115699554Y-107488356D01*
X115747892Y-107505949D01*
X115752728Y-107510382D01*
X116139171Y-107896825D01*
X116160911Y-107943445D01*
X116147597Y-107993132D01*
X116139171Y-108003173D01*
X114074969Y-110067375D01*
X114041259Y-110086838D01*
X113987437Y-110101260D01*
X113889864Y-110157594D01*
X113889858Y-110157598D01*
X113810198Y-110237258D01*
X113810194Y-110237264D01*
X113753861Y-110334835D01*
X113748651Y-110354279D01*
X113724700Y-110443666D01*
X113724700Y-110556334D01*
X113738471Y-110607728D01*
X113753861Y-110665164D01*
X113810194Y-110762735D01*
X113810198Y-110762741D01*
X113889858Y-110842401D01*
X113889861Y-110842403D01*
X113889863Y-110842405D01*
X113987437Y-110898739D01*
X114096266Y-110927900D01*
X114096269Y-110927900D01*
X114208931Y-110927900D01*
X114208934Y-110927900D01*
X114317763Y-110898739D01*
X114415337Y-110842405D01*
X114495005Y-110762737D01*
X114551339Y-110665163D01*
X114580500Y-110556334D01*
X114580500Y-110443666D01*
X114556548Y-110354277D01*
X114561030Y-110303035D01*
X114576008Y-110281644D01*
X115488987Y-109368666D01*
X117322100Y-109368666D01*
X117322100Y-109481334D01*
X117342305Y-109556740D01*
X117351261Y-109590164D01*
X117407594Y-109687735D01*
X117407598Y-109687741D01*
X117487258Y-109767401D01*
X117487261Y-109767403D01*
X117487263Y-109767405D01*
X117584837Y-109823739D01*
X117693666Y-109852900D01*
X117693669Y-109852900D01*
X117789098Y-109852900D01*
X117837436Y-109870493D01*
X117842272Y-109874926D01*
X118575074Y-110607728D01*
X118596814Y-110654348D01*
X118597100Y-110660902D01*
X118597100Y-112276874D01*
X118579507Y-112325212D01*
X118541366Y-112349511D01*
X118534837Y-112351260D01*
X118437264Y-112407594D01*
X118437258Y-112407598D01*
X118357598Y-112487258D01*
X118357594Y-112487264D01*
X118301261Y-112584835D01*
X118294537Y-112609930D01*
X118272100Y-112693666D01*
X118272100Y-112806334D01*
X118285608Y-112856746D01*
X118301261Y-112915164D01*
X118357594Y-113012735D01*
X118357598Y-113012741D01*
X118437258Y-113092401D01*
X118437261Y-113092403D01*
X118437263Y-113092405D01*
X118534837Y-113148739D01*
X118643666Y-113177900D01*
X118643669Y-113177900D01*
X118756331Y-113177900D01*
X118756334Y-113177900D01*
X118865163Y-113148739D01*
X118962737Y-113092405D01*
X119042405Y-113012737D01*
X119098739Y-112915163D01*
X119127900Y-112806334D01*
X119127900Y-112693666D01*
X119105463Y-112609930D01*
X119102901Y-112590469D01*
X119102901Y-112572100D01*
X119102901Y-112549695D01*
X119102900Y-112549692D01*
X119102900Y-110584065D01*
X119102901Y-110584056D01*
X119102901Y-110474695D01*
X119090048Y-110443668D01*
X119086952Y-110436193D01*
X119078241Y-110415163D01*
X119064399Y-110381743D01*
X119064398Y-110381741D01*
X118988980Y-110306323D01*
X118988960Y-110306306D01*
X118199926Y-109517272D01*
X118178186Y-109470652D01*
X118177900Y-109464098D01*
X118177900Y-109368668D01*
X118177900Y-109368666D01*
X118148739Y-109259837D01*
X118092405Y-109162263D01*
X118092403Y-109162261D01*
X118092401Y-109162258D01*
X118012741Y-109082598D01*
X118012735Y-109082594D01*
X117999649Y-109075039D01*
X117991015Y-109070054D01*
X117915164Y-109026261D01*
X117887955Y-109018970D01*
X117806334Y-108997100D01*
X117693666Y-108997100D01*
X117635316Y-109012735D01*
X117584835Y-109026261D01*
X117487264Y-109082594D01*
X117487258Y-109082598D01*
X117407598Y-109162258D01*
X117407594Y-109162264D01*
X117351261Y-109259835D01*
X117340417Y-109300305D01*
X117322100Y-109368666D01*
X115488987Y-109368666D01*
X116682728Y-108174926D01*
X116729348Y-108153186D01*
X116735902Y-108152900D01*
X119264098Y-108152900D01*
X119312436Y-108170493D01*
X119317272Y-108174926D01*
X120050074Y-108907728D01*
X120071814Y-108954348D01*
X120072100Y-108960902D01*
X120072100Y-109056334D01*
X120092806Y-109133608D01*
X120101261Y-109165164D01*
X120157594Y-109262735D01*
X120157598Y-109262741D01*
X120237258Y-109342401D01*
X120237261Y-109342403D01*
X120237263Y-109342405D01*
X120334837Y-109398739D01*
X120443666Y-109427900D01*
X120443669Y-109427900D01*
X120556331Y-109427900D01*
X120556334Y-109427900D01*
X120665163Y-109398739D01*
X120762737Y-109342405D01*
X120842405Y-109262737D01*
X120898739Y-109165163D01*
X120927900Y-109056334D01*
X120927900Y-108943666D01*
X120898739Y-108834837D01*
X120842405Y-108737263D01*
X120842403Y-108737261D01*
X120842401Y-108737258D01*
X120762741Y-108657598D01*
X120762735Y-108657594D01*
X120665164Y-108601261D01*
X120632097Y-108592401D01*
X120556334Y-108572100D01*
X120460902Y-108572100D01*
X120412564Y-108554507D01*
X120407728Y-108550074D01*
X119620595Y-107762941D01*
X119620585Y-107762928D01*
X119543258Y-107685601D01*
X119488806Y-107663047D01*
X119450305Y-107647099D01*
X119349695Y-107647099D01*
X119340943Y-107647099D01*
X119340935Y-107647100D01*
X116659062Y-107647100D01*
X116650306Y-107647099D01*
X116650305Y-107647099D01*
X116635898Y-107647099D01*
X116620208Y-107641387D01*
X116587563Y-107629506D01*
X116582727Y-107625073D01*
X116056051Y-107098397D01*
X116056041Y-107098384D01*
X115978714Y-107021057D01*
X115947705Y-107008213D01*
X115947705Y-107008212D01*
X115920873Y-106997099D01*
X115920870Y-106997098D01*
X115885762Y-106982555D01*
X115885761Y-106982555D01*
X115785151Y-106982555D01*
X115776399Y-106982555D01*
X115776391Y-106982556D01*
X114621359Y-106982556D01*
X114573021Y-106964963D01*
X114568185Y-106960530D01*
X114551321Y-106943666D01*
X116572100Y-106943666D01*
X116572100Y-107056334D01*
X116583371Y-107098397D01*
X116601261Y-107165164D01*
X116657594Y-107262735D01*
X116657598Y-107262741D01*
X116737258Y-107342401D01*
X116737261Y-107342403D01*
X116737263Y-107342405D01*
X116834837Y-107398739D01*
X116943666Y-107427900D01*
X116943669Y-107427900D01*
X117056331Y-107427900D01*
X117056334Y-107427900D01*
X117165163Y-107398739D01*
X117262737Y-107342405D01*
X117342405Y-107262737D01*
X117398739Y-107165163D01*
X117427900Y-107056334D01*
X117427900Y-106943666D01*
X117398739Y-106834837D01*
X117398100Y-106833731D01*
X117378801Y-106800304D01*
X117342405Y-106737263D01*
X117342403Y-106737261D01*
X117342401Y-106737258D01*
X117262741Y-106657598D01*
X117262735Y-106657594D01*
X117165164Y-106601261D01*
X117137955Y-106593970D01*
X117056334Y-106572100D01*
X116943666Y-106572100D01*
X116878368Y-106589596D01*
X116834835Y-106601261D01*
X116737264Y-106657594D01*
X116737258Y-106657598D01*
X116657598Y-106737258D01*
X116657594Y-106737264D01*
X116601261Y-106834835D01*
X116600930Y-106836071D01*
X116572100Y-106943666D01*
X114551321Y-106943666D01*
X113149926Y-105542271D01*
X113128186Y-105495651D01*
X113127900Y-105489097D01*
X113127900Y-104154518D01*
X113145493Y-104106180D01*
X113165496Y-104089396D01*
X113225237Y-104054905D01*
X113304905Y-103975237D01*
X113361239Y-103877663D01*
X113390400Y-103768834D01*
X113390400Y-103656166D01*
X113361239Y-103547337D01*
X113304905Y-103449763D01*
X113304903Y-103449761D01*
X113304901Y-103449758D01*
X113225241Y-103370098D01*
X113225235Y-103370094D01*
X113224308Y-103369559D01*
X113202111Y-103356743D01*
X113127664Y-103313761D01*
X113100455Y-103306470D01*
X113018834Y-103284600D01*
X112906166Y-103284600D01*
X112840868Y-103302096D01*
X112797335Y-103313761D01*
X112699764Y-103370094D01*
X112699758Y-103370098D01*
X112620098Y-103449758D01*
X112620094Y-103449764D01*
X112563761Y-103547335D01*
X112560618Y-103559065D01*
X112534600Y-103656166D01*
X108951489Y-103656166D01*
X109009592Y-103598063D01*
X109582729Y-103024926D01*
X109629349Y-103003186D01*
X109635903Y-103002900D01*
X113150098Y-103002900D01*
X113198436Y-103020493D01*
X113203272Y-103024926D01*
X116017306Y-105838960D01*
X116017323Y-105838980D01*
X116092741Y-105914398D01*
X116092743Y-105914399D01*
X116147192Y-105936952D01*
X116147194Y-105936952D01*
X116185695Y-105952901D01*
X116295057Y-105952901D01*
X116295065Y-105952900D01*
X117164098Y-105952900D01*
X117212436Y-105970493D01*
X117217272Y-105974926D01*
X117881306Y-106638960D01*
X117881323Y-106638980D01*
X117956741Y-106714398D01*
X117956743Y-106714399D01*
X118011192Y-106736952D01*
X118011194Y-106736952D01*
X118049695Y-106752901D01*
X118159057Y-106752901D01*
X118159065Y-106752900D01*
X119364098Y-106752900D01*
X119412436Y-106770493D01*
X119417271Y-106774925D01*
X122050074Y-109407729D01*
X122071814Y-109454348D01*
X122072100Y-109460902D01*
X122072100Y-109556334D01*
X122082616Y-109595580D01*
X122101261Y-109665164D01*
X122157594Y-109762735D01*
X122157598Y-109762741D01*
X122237258Y-109842401D01*
X122237261Y-109842403D01*
X122237263Y-109842405D01*
X122334837Y-109898739D01*
X122443666Y-109927900D01*
X122443669Y-109927900D01*
X122556331Y-109927900D01*
X122556334Y-109927900D01*
X122665163Y-109898739D01*
X122762737Y-109842405D01*
X122842405Y-109762737D01*
X122898739Y-109665163D01*
X122927900Y-109556334D01*
X122927900Y-109443666D01*
X122898739Y-109334837D01*
X122897521Y-109332728D01*
X122878802Y-109300305D01*
X122842405Y-109237263D01*
X122842403Y-109237261D01*
X122842401Y-109237258D01*
X122762741Y-109157598D01*
X122762735Y-109157594D01*
X122665164Y-109101261D01*
X122632097Y-109092401D01*
X122556334Y-109072100D01*
X122460903Y-109072100D01*
X122412565Y-109054507D01*
X122407729Y-109050074D01*
X119770872Y-106413218D01*
X119762615Y-106395513D01*
X119751408Y-106379507D01*
X119751999Y-106372747D01*
X119749132Y-106366598D01*
X119754188Y-106347725D01*
X119755892Y-106328263D01*
X119761581Y-106320137D01*
X119762446Y-106316911D01*
X119770866Y-106306875D01*
X119830217Y-106247525D01*
X119876838Y-106225786D01*
X119883391Y-106225500D01*
X120086698Y-106225500D01*
X120135036Y-106243093D01*
X120139872Y-106247526D01*
X123225074Y-109332728D01*
X123246814Y-109379348D01*
X123247100Y-109385902D01*
X123247100Y-109866609D01*
X123229507Y-109914947D01*
X123225074Y-109919783D01*
X123157598Y-109987258D01*
X123157594Y-109987264D01*
X123101261Y-110084835D01*
X123096860Y-110101260D01*
X123072100Y-110193666D01*
X123072100Y-110306334D01*
X123092306Y-110381743D01*
X123101261Y-110415164D01*
X123157594Y-110512735D01*
X123157598Y-110512741D01*
X123237258Y-110592401D01*
X123237261Y-110592403D01*
X123237263Y-110592405D01*
X123334837Y-110648739D01*
X123443666Y-110677900D01*
X123443669Y-110677900D01*
X123556331Y-110677900D01*
X123556334Y-110677900D01*
X123665163Y-110648739D01*
X123762737Y-110592405D01*
X123842405Y-110512737D01*
X123898739Y-110415163D01*
X123927900Y-110306334D01*
X123927900Y-110193666D01*
X123898739Y-110084837D01*
X123842405Y-109987263D01*
X123842403Y-109987261D01*
X123842401Y-109987258D01*
X123774926Y-109919783D01*
X123753186Y-109873163D01*
X123752900Y-109866609D01*
X123752900Y-109309065D01*
X123752901Y-109309056D01*
X123752901Y-109199696D01*
X123752901Y-109199695D01*
X123735462Y-109157594D01*
X123725527Y-109133607D01*
X123725527Y-109133606D01*
X123714399Y-109106743D01*
X123714397Y-109106740D01*
X123638978Y-109031321D01*
X123638963Y-109031308D01*
X120443195Y-105835541D01*
X120443185Y-105835528D01*
X120365858Y-105758201D01*
X120311406Y-105735647D01*
X120272905Y-105719699D01*
X120172295Y-105719699D01*
X120163543Y-105719699D01*
X120163535Y-105719700D01*
X119883391Y-105719700D01*
X119835053Y-105702107D01*
X119830217Y-105697674D01*
X119762741Y-105630198D01*
X119762735Y-105630194D01*
X119665164Y-105573861D01*
X119637955Y-105566570D01*
X119556334Y-105544700D01*
X119443666Y-105544700D01*
X119378368Y-105562196D01*
X119334835Y-105573861D01*
X119237264Y-105630194D01*
X119237258Y-105630198D01*
X119157598Y-105709858D01*
X119157594Y-105709864D01*
X119101261Y-105807435D01*
X119092696Y-105839400D01*
X119072100Y-105916266D01*
X119072100Y-106028934D01*
X119088707Y-106090911D01*
X119101262Y-106137769D01*
X119103147Y-106142318D01*
X119100848Y-106143270D01*
X119108189Y-106184982D01*
X119082455Y-106229522D01*
X119034136Y-106247100D01*
X118235902Y-106247100D01*
X118187564Y-106229507D01*
X118182728Y-106225074D01*
X117520595Y-105562941D01*
X117520585Y-105562928D01*
X117443258Y-105485601D01*
X117388806Y-105463047D01*
X117350305Y-105447099D01*
X117249695Y-105447099D01*
X117240943Y-105447099D01*
X117240935Y-105447100D01*
X116371902Y-105447100D01*
X116323564Y-105429507D01*
X116318728Y-105425074D01*
X113506595Y-102612941D01*
X113506585Y-102612928D01*
X113429258Y-102535601D01*
X113374806Y-102513047D01*
X113336305Y-102497099D01*
X113235695Y-102497099D01*
X113226943Y-102497099D01*
X113226935Y-102497100D01*
X109559065Y-102497100D01*
X109559057Y-102497099D01*
X109550305Y-102497099D01*
X109449695Y-102497099D01*
X109449694Y-102497099D01*
X109403218Y-102516350D01*
X109403217Y-102516349D01*
X109356744Y-102535599D01*
X109356743Y-102535600D01*
X109329297Y-102563047D01*
X109285601Y-102606743D01*
X107859380Y-104032964D01*
X107859358Y-104032984D01*
X107785602Y-104106740D01*
X107785599Y-104106744D01*
X107763046Y-104161191D01*
X107763047Y-104161192D01*
X107747099Y-104199693D01*
X107747099Y-104309056D01*
X107747100Y-104309065D01*
X107747100Y-105364098D01*
X107729507Y-105412436D01*
X107725074Y-105417272D01*
X107167272Y-105975074D01*
X107120652Y-105996814D01*
X107114098Y-105997100D01*
X102199695Y-105997100D01*
X102106741Y-106035601D01*
X102035602Y-106106740D01*
X102035599Y-106106744D01*
X102032877Y-106113317D01*
X102001007Y-106149659D01*
X101987264Y-106157594D01*
X101907595Y-106237262D01*
X101907594Y-106237264D01*
X101851261Y-106334835D01*
X101836680Y-106389251D01*
X101822100Y-106443666D01*
X97250000Y-106443666D01*
X97250000Y-104693666D01*
X100072100Y-104693666D01*
X100072100Y-104806334D01*
X100090590Y-104875337D01*
X100101261Y-104915164D01*
X100157594Y-105012735D01*
X100157598Y-105012741D01*
X100237258Y-105092401D01*
X100237261Y-105092403D01*
X100237263Y-105092405D01*
X100334837Y-105148739D01*
X100443666Y-105177900D01*
X100443669Y-105177900D01*
X100556331Y-105177900D01*
X100556334Y-105177900D01*
X100665163Y-105148739D01*
X100762737Y-105092405D01*
X100842405Y-105012737D01*
X100898739Y-104915163D01*
X100927900Y-104806334D01*
X100927900Y-104693666D01*
X102822100Y-104693666D01*
X102822100Y-104806334D01*
X102840590Y-104875337D01*
X102851261Y-104915164D01*
X102907594Y-105012735D01*
X102907598Y-105012741D01*
X102987258Y-105092401D01*
X102987261Y-105092403D01*
X102987263Y-105092405D01*
X103084837Y-105148739D01*
X103193666Y-105177900D01*
X103193669Y-105177900D01*
X103306331Y-105177900D01*
X103306334Y-105177900D01*
X103415163Y-105148739D01*
X103512737Y-105092405D01*
X103533042Y-105072100D01*
X103580217Y-105024926D01*
X103626837Y-105003186D01*
X103633391Y-105002900D01*
X104190935Y-105002900D01*
X104190943Y-105002901D01*
X104199695Y-105002901D01*
X104300306Y-105002901D01*
X104338806Y-104986952D01*
X104393257Y-104964399D01*
X104464399Y-104893257D01*
X104471620Y-104886036D01*
X104471629Y-104886023D01*
X107082729Y-102274926D01*
X107129349Y-102253186D01*
X107135903Y-102252900D01*
X113614098Y-102252900D01*
X113662436Y-102270493D01*
X113667272Y-102274926D01*
X116281308Y-104888963D01*
X116281321Y-104888978D01*
X116356741Y-104964398D01*
X116356743Y-104964399D01*
X116403218Y-104983649D01*
X116403221Y-104983650D01*
X116411946Y-104987264D01*
X116449695Y-105002901D01*
X116559057Y-105002901D01*
X116559065Y-105002900D01*
X120114098Y-105002900D01*
X120162436Y-105020493D01*
X120167271Y-105024925D01*
X121477180Y-106334835D01*
X122781308Y-107638963D01*
X122781321Y-107638978D01*
X122856741Y-107714398D01*
X122856743Y-107714399D01*
X122903218Y-107733649D01*
X122903221Y-107733650D01*
X122915601Y-107738778D01*
X122949695Y-107752901D01*
X123059057Y-107752901D01*
X123059065Y-107752900D01*
X125190935Y-107752900D01*
X125190943Y-107752901D01*
X125199695Y-107752901D01*
X125300306Y-107752901D01*
X125317158Y-107745919D01*
X125338806Y-107736952D01*
X125393257Y-107714399D01*
X125414851Y-107692803D01*
X125423594Y-107687808D01*
X125439617Y-107685055D01*
X125454350Y-107678186D01*
X125460904Y-107677900D01*
X125556331Y-107677900D01*
X125556334Y-107677900D01*
X125665163Y-107648739D01*
X125762737Y-107592405D01*
X125842405Y-107512737D01*
X125898739Y-107415163D01*
X125927900Y-107306334D01*
X125927900Y-107193666D01*
X125898739Y-107084837D01*
X125842405Y-106987263D01*
X125842403Y-106987261D01*
X125842401Y-106987258D01*
X125762741Y-106907598D01*
X125762735Y-106907594D01*
X125665164Y-106851261D01*
X125632097Y-106842401D01*
X125556334Y-106822100D01*
X125443666Y-106822100D01*
X125378368Y-106839596D01*
X125334835Y-106851261D01*
X125237264Y-106907594D01*
X125237258Y-106907598D01*
X125157598Y-106987258D01*
X125157594Y-106987264D01*
X125101261Y-107084835D01*
X125092180Y-107118726D01*
X125072716Y-107191365D01*
X125043213Y-107233500D01*
X125000080Y-107247100D01*
X123566991Y-107247100D01*
X123518653Y-107229507D01*
X123492933Y-107184958D01*
X123501866Y-107134300D01*
X123513817Y-107118726D01*
X123592401Y-107040141D01*
X123592405Y-107040137D01*
X123648739Y-106942563D01*
X123677900Y-106833734D01*
X123677900Y-106738304D01*
X123687359Y-106701792D01*
X123692474Y-106692580D01*
X123714399Y-106670657D01*
X123741346Y-106605600D01*
X123752901Y-106577705D01*
X123752901Y-106477095D01*
X123752901Y-106471040D01*
X123752900Y-106471026D01*
X123752900Y-104193666D01*
X127322100Y-104193666D01*
X127322100Y-104306334D01*
X127343420Y-104385902D01*
X127351261Y-104415164D01*
X127353960Y-104419838D01*
X127407594Y-104512736D01*
X127407598Y-104512741D01*
X127487258Y-104592401D01*
X127487261Y-104592403D01*
X127487263Y-104592405D01*
X127584837Y-104648739D01*
X127693666Y-104677900D01*
X127693669Y-104677900D01*
X127806331Y-104677900D01*
X127806334Y-104677900D01*
X127915163Y-104648739D01*
X128012737Y-104592405D01*
X128092405Y-104512737D01*
X128148739Y-104415163D01*
X128177900Y-104306334D01*
X128177900Y-104193666D01*
X128148739Y-104084837D01*
X128092405Y-103987263D01*
X128092403Y-103987261D01*
X128092401Y-103987258D01*
X128012741Y-103907598D01*
X128012735Y-103907594D01*
X127915164Y-103851261D01*
X127887955Y-103843970D01*
X127806334Y-103822100D01*
X127693666Y-103822100D01*
X127628368Y-103839596D01*
X127584835Y-103851261D01*
X127487264Y-103907594D01*
X127487258Y-103907598D01*
X127407598Y-103987258D01*
X127407594Y-103987264D01*
X127351261Y-104084835D01*
X127350040Y-104089392D01*
X127322100Y-104193666D01*
X123752900Y-104193666D01*
X123752900Y-103559065D01*
X123752901Y-103559056D01*
X123752901Y-103449696D01*
X123752901Y-103449695D01*
X123719707Y-103369559D01*
X123714399Y-103356743D01*
X123643257Y-103285601D01*
X123643255Y-103285600D01*
X123020594Y-102662940D01*
X123020585Y-102662928D01*
X122943258Y-102585601D01*
X122888806Y-102563047D01*
X122850305Y-102547099D01*
X122749695Y-102547099D01*
X122740943Y-102547099D01*
X122740935Y-102547100D01*
X121435902Y-102547100D01*
X121387564Y-102529507D01*
X121382728Y-102525074D01*
X121057500Y-102199846D01*
X121035760Y-102153226D01*
X121049074Y-102103539D01*
X121057500Y-102093498D01*
X121113256Y-102037741D01*
X121113260Y-102037737D01*
X121169594Y-101940163D01*
X121198755Y-101831334D01*
X121198755Y-101740375D01*
X121797471Y-101740375D01*
X121797471Y-101859625D01*
X121819990Y-101943668D01*
X121828335Y-101974813D01*
X121828335Y-101974814D01*
X121887960Y-102078087D01*
X121972283Y-102162410D01*
X122031909Y-102196834D01*
X122075558Y-102222036D01*
X122190746Y-102252900D01*
X122190749Y-102252900D01*
X122309993Y-102252900D01*
X122309996Y-102252900D01*
X122425184Y-102222036D01*
X122528458Y-102162410D01*
X122612781Y-102078087D01*
X122672407Y-101974813D01*
X122703271Y-101859625D01*
X122703271Y-101740375D01*
X122672407Y-101625187D01*
X122663545Y-101609837D01*
X122612781Y-101521912D01*
X122528458Y-101437589D01*
X122425184Y-101377964D01*
X122418828Y-101376261D01*
X122309996Y-101347100D01*
X122190746Y-101347100D01*
X122104355Y-101370248D01*
X122075557Y-101377964D01*
X122075556Y-101377964D01*
X121972283Y-101437589D01*
X121887960Y-101521912D01*
X121828335Y-101625185D01*
X121828335Y-101625186D01*
X121828335Y-101625187D01*
X121797471Y-101740375D01*
X121198755Y-101740375D01*
X121198755Y-101718666D01*
X121169594Y-101609837D01*
X121113260Y-101512263D01*
X121113258Y-101512261D01*
X121113256Y-101512258D01*
X121033596Y-101432598D01*
X121033590Y-101432594D01*
X120936019Y-101376261D01*
X120908810Y-101368970D01*
X120827189Y-101347100D01*
X120714521Y-101347100D01*
X120649223Y-101364596D01*
X120605690Y-101376261D01*
X120508119Y-101432594D01*
X120508113Y-101432598D01*
X120428453Y-101512258D01*
X120428449Y-101512264D01*
X120372116Y-101609835D01*
X120368003Y-101625185D01*
X120342955Y-101718666D01*
X120342955Y-101831334D01*
X120364825Y-101912955D01*
X120372116Y-101940164D01*
X120428449Y-102037735D01*
X120428453Y-102037741D01*
X120495929Y-102105217D01*
X120502866Y-102120093D01*
X120513420Y-102132671D01*
X120516270Y-102148838D01*
X120517669Y-102151837D01*
X120517955Y-102158391D01*
X120517955Y-102214481D01*
X120517954Y-102214495D01*
X120517954Y-102220550D01*
X120517954Y-102321160D01*
X120533902Y-102359661D01*
X120533902Y-102359662D01*
X120556455Y-102414112D01*
X120633783Y-102491440D01*
X120633796Y-102491450D01*
X121081306Y-102938960D01*
X121081323Y-102938980D01*
X121156741Y-103014398D01*
X121156743Y-103014399D01*
X121211192Y-103036952D01*
X121211194Y-103036952D01*
X121249695Y-103052901D01*
X121359057Y-103052901D01*
X121359065Y-103052900D01*
X122664098Y-103052900D01*
X122712436Y-103070493D01*
X122717272Y-103074926D01*
X123225074Y-103582728D01*
X123246814Y-103629348D01*
X123247100Y-103635902D01*
X123247100Y-106277479D01*
X123229507Y-106325817D01*
X123191364Y-106350116D01*
X123084837Y-106378661D01*
X123084836Y-106378661D01*
X123084834Y-106378662D01*
X122987264Y-106434994D01*
X122987258Y-106434998D01*
X122907598Y-106514658D01*
X122907594Y-106514664D01*
X122851261Y-106612235D01*
X122844095Y-106638980D01*
X122822100Y-106721066D01*
X122822100Y-106721068D01*
X122822100Y-106782897D01*
X122804507Y-106831235D01*
X122759958Y-106856955D01*
X122709300Y-106848022D01*
X122693726Y-106836071D01*
X120470595Y-104612941D01*
X120470585Y-104612928D01*
X120393258Y-104535601D01*
X120338057Y-104512737D01*
X120338055Y-104512736D01*
X120300306Y-104497099D01*
X120300305Y-104497099D01*
X120199695Y-104497099D01*
X120190943Y-104497099D01*
X120190935Y-104497100D01*
X116635903Y-104497100D01*
X116587565Y-104479507D01*
X116582729Y-104475074D01*
X113970595Y-101862941D01*
X113970585Y-101862928D01*
X113893258Y-101785601D01*
X113838806Y-101763047D01*
X113800305Y-101747099D01*
X113699695Y-101747099D01*
X113690943Y-101747099D01*
X113690935Y-101747100D01*
X107059065Y-101747100D01*
X107059057Y-101747099D01*
X107050305Y-101747099D01*
X106949695Y-101747099D01*
X106949694Y-101747099D01*
X106903218Y-101766350D01*
X106903217Y-101766349D01*
X106856744Y-101785599D01*
X106856743Y-101785600D01*
X106821172Y-101821171D01*
X106785601Y-101856743D01*
X106785600Y-101856744D01*
X104820246Y-103822100D01*
X104167272Y-104475074D01*
X104120652Y-104496814D01*
X104114098Y-104497100D01*
X103633391Y-104497100D01*
X103585053Y-104479507D01*
X103580217Y-104475074D01*
X103512741Y-104407598D01*
X103512735Y-104407594D01*
X103415164Y-104351261D01*
X103387955Y-104343970D01*
X103306334Y-104322100D01*
X103193666Y-104322100D01*
X103128368Y-104339596D01*
X103084835Y-104351261D01*
X102987264Y-104407594D01*
X102987258Y-104407598D01*
X102907598Y-104487258D01*
X102907594Y-104487264D01*
X102851261Y-104584835D01*
X102849234Y-104592401D01*
X102822100Y-104693666D01*
X100927900Y-104693666D01*
X100898739Y-104584837D01*
X100842405Y-104487263D01*
X100842403Y-104487261D01*
X100842401Y-104487258D01*
X100762741Y-104407598D01*
X100762735Y-104407594D01*
X100665164Y-104351261D01*
X100637955Y-104343970D01*
X100556334Y-104322100D01*
X100443666Y-104322100D01*
X100378368Y-104339596D01*
X100334835Y-104351261D01*
X100237264Y-104407594D01*
X100237258Y-104407598D01*
X100157598Y-104487258D01*
X100157594Y-104487264D01*
X100101261Y-104584835D01*
X100099234Y-104592401D01*
X100072100Y-104693666D01*
X97250000Y-104693666D01*
X97250000Y-98443666D01*
X98072100Y-98443666D01*
X98072100Y-98556334D01*
X98081565Y-98591657D01*
X98101261Y-98665164D01*
X98157594Y-98762735D01*
X98157598Y-98762741D01*
X98237258Y-98842401D01*
X98237261Y-98842403D01*
X98237263Y-98842405D01*
X98334837Y-98898739D01*
X98443666Y-98927900D01*
X98443669Y-98927900D01*
X98556331Y-98927900D01*
X98556334Y-98927900D01*
X98665163Y-98898739D01*
X98762737Y-98842405D01*
X98842405Y-98762737D01*
X98898739Y-98665163D01*
X98927900Y-98556334D01*
X98927900Y-98443666D01*
X98898739Y-98334837D01*
X98842405Y-98237263D01*
X98842403Y-98237261D01*
X98842401Y-98237258D01*
X98762741Y-98157598D01*
X98762735Y-98157594D01*
X98665164Y-98101261D01*
X98637955Y-98093970D01*
X98556334Y-98072100D01*
X98443666Y-98072100D01*
X98378368Y-98089596D01*
X98334835Y-98101261D01*
X98237264Y-98157594D01*
X98237258Y-98157598D01*
X98157598Y-98237258D01*
X98157594Y-98237264D01*
X98101261Y-98334835D01*
X98093839Y-98362535D01*
X98072100Y-98443666D01*
X97250000Y-98443666D01*
X97250000Y-97002680D01*
X97250192Y-96997315D01*
X97263124Y-96816500D01*
X97269973Y-96720728D01*
X97271500Y-96710114D01*
X97329871Y-96441788D01*
X97332888Y-96431508D01*
X97428861Y-96174194D01*
X97433313Y-96164449D01*
X97564916Y-95923436D01*
X97570705Y-95914426D01*
X97735287Y-95694571D01*
X97742296Y-95686483D01*
X97906255Y-95522524D01*
X97952874Y-95500786D01*
X97959428Y-95500500D01*
X118860297Y-95500500D01*
X118908635Y-95518093D01*
G37*
%TD.AperFunction*%
%TA.AperFunction,Conductor*%
G36*
X120484714Y-116255221D02*
G01*
X120491396Y-116254043D01*
X120508312Y-116263809D01*
X120526675Y-116270493D01*
X120530068Y-116276370D01*
X120535944Y-116279763D01*
X120542625Y-116298119D01*
X120552395Y-116315042D01*
X120551216Y-116321725D01*
X120553537Y-116328101D01*
X120546854Y-116346458D01*
X120543462Y-116365700D01*
X120537785Y-116371376D01*
X120535943Y-116376438D01*
X120519341Y-116390368D01*
X120519421Y-116390471D01*
X120517063Y-116392279D01*
X120515937Y-116393224D01*
X120515634Y-116393399D01*
X120515509Y-116393472D01*
X120515506Y-116393474D01*
X120435846Y-116473134D01*
X120435842Y-116473140D01*
X120379509Y-116570710D01*
X120374523Y-116589317D01*
X120345016Y-116631452D01*
X120295328Y-116644764D01*
X120282423Y-116642488D01*
X120252342Y-116634428D01*
X120206334Y-116622100D01*
X120093666Y-116622100D01*
X120028368Y-116639596D01*
X119984835Y-116651261D01*
X119887264Y-116707594D01*
X119887258Y-116707598D01*
X119807598Y-116787258D01*
X119807594Y-116787264D01*
X119751261Y-116884835D01*
X119746919Y-116901040D01*
X119722100Y-116993666D01*
X119722100Y-117106334D01*
X119743970Y-117187955D01*
X119751261Y-117215164D01*
X119807594Y-117312735D01*
X119807598Y-117312741D01*
X119887258Y-117392401D01*
X119887261Y-117392403D01*
X119887263Y-117392405D01*
X119984837Y-117448739D01*
X120093666Y-117477900D01*
X120093669Y-117477900D01*
X120189098Y-117477900D01*
X120237436Y-117495493D01*
X120242272Y-117499926D01*
X123725074Y-120982728D01*
X123746814Y-121029348D01*
X123747100Y-121035902D01*
X123747100Y-126614097D01*
X123729507Y-126662435D01*
X123725074Y-126667271D01*
X122914371Y-127477974D01*
X122867751Y-127499714D01*
X122861197Y-127500000D01*
X122221354Y-127500000D01*
X122173016Y-127482407D01*
X122147296Y-127437858D01*
X122156229Y-127387200D01*
X122161694Y-127379021D01*
X122162406Y-127378090D01*
X122162410Y-127378087D01*
X122222036Y-127274813D01*
X122252900Y-127159625D01*
X122252900Y-127040375D01*
X122222036Y-126925187D01*
X122222035Y-126925185D01*
X122162410Y-126821912D01*
X122078087Y-126737589D01*
X121974813Y-126677964D01*
X121859625Y-126647100D01*
X121740375Y-126647100D01*
X121665095Y-126667271D01*
X121625186Y-126677964D01*
X121625185Y-126677964D01*
X121521912Y-126737589D01*
X121437589Y-126821912D01*
X121377964Y-126925185D01*
X121377964Y-126925186D01*
X121377964Y-126925187D01*
X121347100Y-127040375D01*
X121347100Y-127159625D01*
X121363636Y-127221339D01*
X121377964Y-127274813D01*
X121377964Y-127274814D01*
X121437589Y-127378086D01*
X121438306Y-127379021D01*
X121438519Y-127379698D01*
X121440054Y-127382356D01*
X121439464Y-127382696D01*
X121443712Y-127396167D01*
X121452704Y-127411742D01*
X121451240Y-127420043D01*
X121453774Y-127428080D01*
X121446893Y-127444691D01*
X121443771Y-127462400D01*
X121437315Y-127467817D01*
X121434090Y-127475604D01*
X121418139Y-127483907D01*
X121404366Y-127495465D01*
X121391621Y-127497712D01*
X121388462Y-127499357D01*
X121378646Y-127500000D01*
X121284026Y-127500000D01*
X121276655Y-127499638D01*
X121037919Y-127476124D01*
X121023461Y-127473248D01*
X120797455Y-127404690D01*
X120783835Y-127399048D01*
X120575548Y-127287716D01*
X120563291Y-127279526D01*
X120557549Y-127274814D01*
X120492386Y-127221336D01*
X120380725Y-127129698D01*
X120370301Y-127119274D01*
X120220473Y-126936708D01*
X120212285Y-126924455D01*
X120100951Y-126716164D01*
X120095309Y-126702544D01*
X120077736Y-126644615D01*
X120026750Y-126476536D01*
X120023875Y-126462080D01*
X120017636Y-126398738D01*
X120000362Y-126223345D01*
X120000000Y-126215974D01*
X120000000Y-122250000D01*
X119000000Y-121250000D01*
X118292893Y-121250000D01*
X117289202Y-121250000D01*
X117240864Y-121232407D01*
X117215144Y-121187858D01*
X117224077Y-121137200D01*
X117236028Y-121121626D01*
X117543255Y-120814399D01*
X118413986Y-119943666D01*
X121072100Y-119943666D01*
X121072100Y-120056334D01*
X121093970Y-120137955D01*
X121101261Y-120165164D01*
X121157594Y-120262735D01*
X121157598Y-120262741D01*
X121237258Y-120342401D01*
X121237261Y-120342403D01*
X121237263Y-120342405D01*
X121334837Y-120398739D01*
X121443666Y-120427900D01*
X121443669Y-120427900D01*
X121556331Y-120427900D01*
X121556334Y-120427900D01*
X121665163Y-120398739D01*
X121762737Y-120342405D01*
X121842405Y-120262737D01*
X121898739Y-120165163D01*
X121927900Y-120056334D01*
X121927900Y-119943666D01*
X121898739Y-119834837D01*
X121897450Y-119832605D01*
X121882282Y-119806332D01*
X121842405Y-119737263D01*
X121842403Y-119737261D01*
X121842401Y-119737258D01*
X121762741Y-119657598D01*
X121762735Y-119657594D01*
X121665164Y-119601261D01*
X121637955Y-119593970D01*
X121556334Y-119572100D01*
X121443666Y-119572100D01*
X121378949Y-119589441D01*
X121334835Y-119601261D01*
X121237264Y-119657594D01*
X121237258Y-119657598D01*
X121157598Y-119737258D01*
X121157594Y-119737264D01*
X121101261Y-119834835D01*
X121091403Y-119871626D01*
X121072100Y-119943666D01*
X118413986Y-119943666D01*
X118636023Y-119721629D01*
X118636036Y-119721620D01*
X118714398Y-119643258D01*
X118714399Y-119643257D01*
X118738597Y-119584837D01*
X118752901Y-119550305D01*
X118752901Y-119449695D01*
X118752901Y-119443640D01*
X118752900Y-119443626D01*
X118752900Y-117418746D01*
X118770493Y-117370408D01*
X118774926Y-117365572D01*
X118862410Y-117278087D01*
X118898739Y-117215164D01*
X118922036Y-117174813D01*
X118952900Y-117059625D01*
X118952900Y-116940375D01*
X118922036Y-116825187D01*
X118912115Y-116808003D01*
X118862410Y-116721912D01*
X118802250Y-116661752D01*
X118780510Y-116615132D01*
X118793824Y-116565445D01*
X118802250Y-116555404D01*
X119082728Y-116274926D01*
X119129348Y-116253186D01*
X119135902Y-116252900D01*
X120478337Y-116252900D01*
X120484714Y-116255221D01*
G37*
%TD.AperFunction*%
%TA.AperFunction,Conductor*%
G36*
X123790033Y-112905501D02*
G01*
X123819538Y-112947638D01*
X123822100Y-112967101D01*
X123822100Y-113056334D01*
X123839937Y-113122902D01*
X123851261Y-113165164D01*
X123907594Y-113262735D01*
X123907598Y-113262741D01*
X123987258Y-113342401D01*
X123987261Y-113342403D01*
X123987263Y-113342405D01*
X124084837Y-113398739D01*
X124193666Y-113427900D01*
X124193669Y-113427900D01*
X124306331Y-113427900D01*
X124306334Y-113427900D01*
X124415163Y-113398739D01*
X124476723Y-113363197D01*
X124527379Y-113354265D01*
X124567495Y-113375149D01*
X125711116Y-114518770D01*
X125732856Y-114565390D01*
X125719542Y-114615077D01*
X125677405Y-114644582D01*
X125657914Y-114647144D01*
X125650406Y-114647141D01*
X125650305Y-114647099D01*
X125549695Y-114647099D01*
X125549693Y-114647100D01*
X124759065Y-114647100D01*
X124759057Y-114647099D01*
X124750305Y-114647099D01*
X124649695Y-114647099D01*
X124649693Y-114647099D01*
X124611192Y-114663047D01*
X124611191Y-114663046D01*
X124556744Y-114685599D01*
X124556740Y-114685602D01*
X124482974Y-114759369D01*
X124482964Y-114759380D01*
X123517272Y-115725074D01*
X123470652Y-115746814D01*
X123464098Y-115747100D01*
X121965864Y-115747100D01*
X121917526Y-115729507D01*
X121891806Y-115684958D01*
X121899150Y-115643269D01*
X121896853Y-115642318D01*
X121898737Y-115637769D01*
X121898739Y-115637763D01*
X121927900Y-115528934D01*
X121927900Y-115416266D01*
X121898739Y-115307437D01*
X121842405Y-115209863D01*
X121842403Y-115209861D01*
X121842401Y-115209858D01*
X121793033Y-115160490D01*
X121783470Y-115139983D01*
X121772149Y-115120374D01*
X121772746Y-115116986D01*
X121771293Y-115113870D01*
X121777150Y-115092008D01*
X121781082Y-115069716D01*
X121783716Y-115067505D01*
X121784607Y-115064183D01*
X121803147Y-115051200D01*
X121820487Y-115036651D01*
X121825083Y-115035840D01*
X121826744Y-115034678D01*
X121846207Y-115032116D01*
X121911719Y-115032116D01*
X121911727Y-115032117D01*
X121920479Y-115032117D01*
X122021090Y-115032117D01*
X122059590Y-115016168D01*
X122114041Y-114993615D01*
X122185183Y-114922473D01*
X122192404Y-114915252D01*
X122192413Y-114915239D01*
X122643255Y-114464399D01*
X122643257Y-114464399D01*
X122714399Y-114393257D01*
X122742003Y-114326614D01*
X122752901Y-114300305D01*
X122752901Y-114199695D01*
X122752901Y-114193640D01*
X122752900Y-114193626D01*
X122752900Y-113885901D01*
X122770493Y-113837563D01*
X122774915Y-113832738D01*
X123693727Y-112913926D01*
X123740346Y-112892187D01*
X123790033Y-112905501D01*
G37*
%TD.AperFunction*%
%TA.AperFunction,Conductor*%
G36*
X128083227Y-95999797D02*
G01*
X128084051Y-95999518D01*
X128107287Y-96008554D01*
X128130748Y-96017093D01*
X128131183Y-96017847D01*
X128131993Y-96018162D01*
X128143983Y-96040017D01*
X128156468Y-96061642D01*
X128156455Y-96062752D01*
X128156735Y-96063261D01*
X128156165Y-96089371D01*
X128156165Y-96089372D01*
X128147100Y-96134942D01*
X128147100Y-97265054D01*
X128153833Y-97298905D01*
X128146006Y-97349746D01*
X128133251Y-97366747D01*
X126272026Y-99227974D01*
X126225406Y-99249714D01*
X126218852Y-99250000D01*
X124874865Y-99250000D01*
X124826527Y-99232407D01*
X124800807Y-99187858D01*
X124809740Y-99137200D01*
X124821691Y-99121626D01*
X124878998Y-99064318D01*
X124878999Y-99064317D01*
X124879004Y-99064312D01*
X124988759Y-98900051D01*
X125064359Y-98717535D01*
X125102900Y-98523777D01*
X125102900Y-98076223D01*
X125064359Y-97882465D01*
X124988759Y-97699949D01*
X124879004Y-97535688D01*
X124879001Y-97535685D01*
X124878999Y-97535682D01*
X124739317Y-97396000D01*
X124739313Y-97395997D01*
X124739312Y-97395996D01*
X124575051Y-97286241D01*
X124575049Y-97286240D01*
X124392538Y-97210642D01*
X124392537Y-97210641D01*
X124198778Y-97172100D01*
X124198777Y-97172100D01*
X124001223Y-97172100D01*
X124001222Y-97172100D01*
X123807462Y-97210641D01*
X123807461Y-97210642D01*
X123624950Y-97286240D01*
X123460682Y-97396000D01*
X123321000Y-97535682D01*
X123211240Y-97699950D01*
X123135642Y-97882461D01*
X123135641Y-97882462D01*
X123097100Y-98076222D01*
X123097100Y-98523777D01*
X123135641Y-98717537D01*
X123135642Y-98717538D01*
X123211240Y-98900049D01*
X123211241Y-98900051D01*
X123320996Y-99064312D01*
X123320997Y-99064313D01*
X123321000Y-99064317D01*
X123378309Y-99121626D01*
X123400049Y-99168246D01*
X123386735Y-99217933D01*
X123344598Y-99247438D01*
X123325135Y-99250000D01*
X122374865Y-99250000D01*
X122326527Y-99232407D01*
X122300807Y-99187858D01*
X122309740Y-99137200D01*
X122321691Y-99121626D01*
X122378998Y-99064318D01*
X122378999Y-99064317D01*
X122379004Y-99064312D01*
X122488759Y-98900051D01*
X122564359Y-98717535D01*
X122602900Y-98523777D01*
X122602900Y-98076223D01*
X122564359Y-97882465D01*
X122488759Y-97699949D01*
X122379004Y-97535688D01*
X122379001Y-97535685D01*
X122378999Y-97535682D01*
X122239317Y-97396000D01*
X122239313Y-97395997D01*
X122239312Y-97395996D01*
X122075051Y-97286241D01*
X122075049Y-97286240D01*
X121892538Y-97210642D01*
X121892537Y-97210641D01*
X121698778Y-97172100D01*
X121698777Y-97172100D01*
X121501223Y-97172100D01*
X121501222Y-97172100D01*
X121307462Y-97210641D01*
X121307461Y-97210642D01*
X121124950Y-97286240D01*
X120960682Y-97396000D01*
X120821000Y-97535682D01*
X120711240Y-97699950D01*
X120635642Y-97882461D01*
X120635641Y-97882462D01*
X120597100Y-98076222D01*
X120597100Y-98523777D01*
X120635641Y-98717537D01*
X120635642Y-98717538D01*
X120711240Y-98900049D01*
X120711241Y-98900051D01*
X120820996Y-99064312D01*
X120820997Y-99064313D01*
X120821000Y-99064317D01*
X120878309Y-99121626D01*
X120900049Y-99168246D01*
X120886735Y-99217933D01*
X120844598Y-99247438D01*
X120825135Y-99250000D01*
X119874865Y-99250000D01*
X119826527Y-99232407D01*
X119800807Y-99187858D01*
X119809740Y-99137200D01*
X119821691Y-99121626D01*
X119878998Y-99064318D01*
X119878999Y-99064317D01*
X119879004Y-99064312D01*
X119988759Y-98900051D01*
X120064359Y-98717535D01*
X120102900Y-98523777D01*
X120102900Y-98076223D01*
X120064359Y-97882465D01*
X119988759Y-97699949D01*
X119879004Y-97535688D01*
X119879001Y-97535685D01*
X119878999Y-97535682D01*
X119739317Y-97396000D01*
X119739313Y-97395997D01*
X119739312Y-97395996D01*
X119575051Y-97286241D01*
X119575049Y-97286240D01*
X119392538Y-97210642D01*
X119392537Y-97210641D01*
X119198778Y-97172100D01*
X119198777Y-97172100D01*
X119001223Y-97172100D01*
X119001222Y-97172100D01*
X118807462Y-97210641D01*
X118807461Y-97210642D01*
X118624950Y-97286240D01*
X118460682Y-97396000D01*
X118321000Y-97535682D01*
X118211240Y-97699950D01*
X118135642Y-97882461D01*
X118135641Y-97882462D01*
X118097100Y-98076222D01*
X118097100Y-98523777D01*
X118135641Y-98717537D01*
X118135642Y-98717538D01*
X118211240Y-98900049D01*
X118211241Y-98900051D01*
X118320996Y-99064312D01*
X118320997Y-99064313D01*
X118321000Y-99064317D01*
X118378309Y-99121626D01*
X118400049Y-99168246D01*
X118386735Y-99217933D01*
X118344598Y-99247438D01*
X118325135Y-99250000D01*
X117374865Y-99250000D01*
X117326527Y-99232407D01*
X117300807Y-99187858D01*
X117309740Y-99137200D01*
X117321691Y-99121626D01*
X117378998Y-99064318D01*
X117378999Y-99064317D01*
X117379004Y-99064312D01*
X117488759Y-98900051D01*
X117564359Y-98717535D01*
X117602900Y-98523777D01*
X117602900Y-98076223D01*
X117564359Y-97882465D01*
X117528179Y-97795121D01*
X117525937Y-97743731D01*
X117544480Y-97713172D01*
X119236128Y-96021526D01*
X119282748Y-95999786D01*
X119289302Y-95999500D01*
X128082410Y-95999500D01*
X128083227Y-95999797D01*
G37*
%TD.AperFunction*%
%TD*%
%TA.AperFunction,Conductor*%
%TO.N,/excimerDriver/VDC_power*%
G36*
X143515677Y-125019685D02*
G01*
X143536319Y-125036319D01*
X143963681Y-125463681D01*
X143997166Y-125525004D01*
X144000000Y-125551362D01*
X144000000Y-126448638D01*
X143980315Y-126515677D01*
X143963681Y-126536319D01*
X143536319Y-126963681D01*
X143474996Y-126997166D01*
X143448638Y-127000000D01*
X140499999Y-127000000D01*
X139500000Y-127999999D01*
X139500000Y-133948638D01*
X139480315Y-134015677D01*
X139463681Y-134036319D01*
X139036819Y-134463181D01*
X138975496Y-134496666D01*
X138949138Y-134499500D01*
X82050862Y-134499500D01*
X81983823Y-134479815D01*
X81963181Y-134463181D01*
X81036319Y-133536319D01*
X81002834Y-133474996D01*
X81000000Y-133448638D01*
X81000000Y-129801362D01*
X81019685Y-129734323D01*
X81036319Y-129713681D01*
X81963681Y-128786319D01*
X82025004Y-128752834D01*
X82051362Y-128750000D01*
X84698638Y-128750000D01*
X84765677Y-128769685D01*
X84786319Y-128786319D01*
X87500000Y-131500000D01*
X105932242Y-131500000D01*
X105934108Y-131500500D01*
X106065892Y-131500500D01*
X106067758Y-131500000D01*
X107672184Y-131500000D01*
X107679813Y-131500500D01*
X107684108Y-131500500D01*
X107820187Y-131500500D01*
X107827816Y-131500000D01*
X109182242Y-131500000D01*
X109184108Y-131500500D01*
X109315892Y-131500500D01*
X109317758Y-131500000D01*
X113397839Y-131500000D01*
X113464878Y-131519685D01*
X113510633Y-131572489D01*
X113520577Y-131641647D01*
X113507543Y-131679302D01*
X113507805Y-131679411D01*
X113505983Y-131683808D01*
X113505224Y-131686003D01*
X113504695Y-131686918D01*
X113504694Y-131686919D01*
X113487363Y-131751599D01*
X113472289Y-131807856D01*
X113472289Y-131933058D01*
X113504694Y-132053993D01*
X113567294Y-132162421D01*
X113655825Y-132250952D01*
X113764253Y-132313552D01*
X113885188Y-132345957D01*
X113885190Y-132345957D01*
X114010388Y-132345957D01*
X114010390Y-132345957D01*
X114131325Y-132313552D01*
X114239753Y-132250952D01*
X114328284Y-132162421D01*
X114390884Y-132053993D01*
X114423289Y-131933058D01*
X114423289Y-131871290D01*
X114442974Y-131804251D01*
X114459608Y-131783609D01*
X114706898Y-131536319D01*
X114768221Y-131502834D01*
X114794579Y-131500000D01*
X136500000Y-131500000D01*
X137000000Y-131000000D01*
X137000000Y-127938464D01*
X137019685Y-127871425D01*
X137036319Y-127850783D01*
X137625753Y-127261349D01*
X138360489Y-126526614D01*
X138361677Y-126524555D01*
X138394731Y-126467306D01*
X138419797Y-126423889D01*
X138419799Y-126423886D01*
X138445491Y-126328000D01*
X138477582Y-126272417D01*
X139713681Y-125036319D01*
X139775004Y-125002834D01*
X139801362Y-125000000D01*
X143448638Y-125000000D01*
X143515677Y-125019685D01*
G37*
%TD.AperFunction*%
%TD*%
%TA.AperFunction,Conductor*%
%TO.N,/excimerDriver/lampDriver/VDC_Trafo*%
G36*
X67241948Y-122269685D02*
G01*
X67267785Y-122291841D01*
X72980772Y-128750000D01*
X79198638Y-128750000D01*
X79265677Y-128769685D01*
X79286319Y-128786319D01*
X80213681Y-129713681D01*
X80247166Y-129775004D01*
X80250000Y-129801362D01*
X80250000Y-133448638D01*
X80230315Y-133515677D01*
X80213681Y-133536319D01*
X79286819Y-134463181D01*
X79225496Y-134496666D01*
X79199138Y-134499500D01*
X63550862Y-134499500D01*
X63483823Y-134479815D01*
X63463181Y-134463181D01*
X62036319Y-133036319D01*
X62002834Y-132974996D01*
X62000000Y-132948638D01*
X62000000Y-131437399D01*
X68324500Y-131437399D01*
X68324500Y-131562601D01*
X68356905Y-131683536D01*
X68419505Y-131791964D01*
X68508036Y-131880495D01*
X68616464Y-131943095D01*
X68737399Y-131975500D01*
X68737401Y-131975500D01*
X68862599Y-131975500D01*
X68862601Y-131975500D01*
X68983536Y-131943095D01*
X69091964Y-131880495D01*
X69180495Y-131791964D01*
X69192612Y-131770975D01*
X69243179Y-131722760D01*
X69311786Y-131709536D01*
X69376651Y-131735504D01*
X69407388Y-131770976D01*
X69419503Y-131791962D01*
X69419505Y-131791964D01*
X69508036Y-131880495D01*
X69616464Y-131943095D01*
X69737399Y-131975500D01*
X69737401Y-131975500D01*
X69862599Y-131975500D01*
X69862601Y-131975500D01*
X69983536Y-131943095D01*
X70091964Y-131880495D01*
X70180495Y-131791964D01*
X70192612Y-131770975D01*
X70243179Y-131722760D01*
X70311786Y-131709536D01*
X70376651Y-131735504D01*
X70407388Y-131770976D01*
X70419503Y-131791962D01*
X70419505Y-131791964D01*
X70508036Y-131880495D01*
X70616464Y-131943095D01*
X70737399Y-131975500D01*
X70737401Y-131975500D01*
X70862599Y-131975500D01*
X70862601Y-131975500D01*
X70983536Y-131943095D01*
X71091964Y-131880495D01*
X71180495Y-131791964D01*
X71192612Y-131770975D01*
X71243179Y-131722760D01*
X71311786Y-131709536D01*
X71376651Y-131735504D01*
X71407388Y-131770976D01*
X71419503Y-131791962D01*
X71419505Y-131791964D01*
X71508036Y-131880495D01*
X71616464Y-131943095D01*
X71737399Y-131975500D01*
X71737401Y-131975500D01*
X71862599Y-131975500D01*
X71862601Y-131975500D01*
X71983536Y-131943095D01*
X72091964Y-131880495D01*
X72180495Y-131791964D01*
X72192612Y-131770975D01*
X72243179Y-131722760D01*
X72311786Y-131709536D01*
X72376651Y-131735504D01*
X72407388Y-131770976D01*
X72419503Y-131791962D01*
X72419505Y-131791964D01*
X72508036Y-131880495D01*
X72616464Y-131943095D01*
X72737399Y-131975500D01*
X72737401Y-131975500D01*
X72862599Y-131975500D01*
X72862601Y-131975500D01*
X72983536Y-131943095D01*
X73091964Y-131880495D01*
X73180495Y-131791964D01*
X73192612Y-131770975D01*
X73243179Y-131722760D01*
X73311786Y-131709536D01*
X73376651Y-131735504D01*
X73407388Y-131770976D01*
X73419503Y-131791962D01*
X73419505Y-131791964D01*
X73508036Y-131880495D01*
X73616464Y-131943095D01*
X73737399Y-131975500D01*
X73737401Y-131975500D01*
X73862599Y-131975500D01*
X73862601Y-131975500D01*
X73983536Y-131943095D01*
X74091964Y-131880495D01*
X74180495Y-131791964D01*
X74192612Y-131770975D01*
X74243179Y-131722760D01*
X74311786Y-131709536D01*
X74376651Y-131735504D01*
X74407388Y-131770976D01*
X74419503Y-131791962D01*
X74419505Y-131791964D01*
X74508036Y-131880495D01*
X74616464Y-131943095D01*
X74737399Y-131975500D01*
X74737401Y-131975500D01*
X74862599Y-131975500D01*
X74862601Y-131975500D01*
X74983536Y-131943095D01*
X75091964Y-131880495D01*
X75180495Y-131791964D01*
X75192612Y-131770975D01*
X75243179Y-131722760D01*
X75311786Y-131709536D01*
X75376651Y-131735504D01*
X75407388Y-131770976D01*
X75419503Y-131791962D01*
X75419505Y-131791964D01*
X75508036Y-131880495D01*
X75616464Y-131943095D01*
X75737399Y-131975500D01*
X75737401Y-131975500D01*
X75862599Y-131975500D01*
X75862601Y-131975500D01*
X75983536Y-131943095D01*
X76091964Y-131880495D01*
X76180495Y-131791964D01*
X76243095Y-131683536D01*
X76275500Y-131562601D01*
X76275500Y-131437399D01*
X76243095Y-131316464D01*
X76180495Y-131208036D01*
X76091964Y-131119505D01*
X75983536Y-131056905D01*
X75983537Y-131056905D01*
X75943224Y-131046103D01*
X75862601Y-131024500D01*
X75737399Y-131024500D01*
X75656775Y-131046103D01*
X75616463Y-131056905D01*
X75508037Y-131119504D01*
X75508034Y-131119506D01*
X75419504Y-131208036D01*
X75407387Y-131229025D01*
X75356820Y-131277240D01*
X75288212Y-131290462D01*
X75223348Y-131264494D01*
X75192613Y-131229025D01*
X75180495Y-131208036D01*
X75091965Y-131119506D01*
X75091964Y-131119505D01*
X74983536Y-131056905D01*
X74983537Y-131056905D01*
X74943224Y-131046103D01*
X74862601Y-131024500D01*
X74737399Y-131024500D01*
X74656775Y-131046103D01*
X74616463Y-131056905D01*
X74508037Y-131119504D01*
X74508034Y-131119506D01*
X74419504Y-131208036D01*
X74407387Y-131229025D01*
X74356820Y-131277240D01*
X74288212Y-131290462D01*
X74223348Y-131264494D01*
X74192613Y-131229025D01*
X74180495Y-131208036D01*
X74091965Y-131119506D01*
X74091964Y-131119505D01*
X73983536Y-131056905D01*
X73983537Y-131056905D01*
X73943224Y-131046103D01*
X73862601Y-131024500D01*
X73737399Y-131024500D01*
X73656775Y-131046103D01*
X73616463Y-131056905D01*
X73508037Y-131119504D01*
X73508034Y-131119506D01*
X73419504Y-131208036D01*
X73407387Y-131229025D01*
X73356820Y-131277240D01*
X73288212Y-131290462D01*
X73223348Y-131264494D01*
X73192613Y-131229025D01*
X73180495Y-131208036D01*
X73091965Y-131119506D01*
X73091964Y-131119505D01*
X72983536Y-131056905D01*
X72983537Y-131056905D01*
X72943224Y-131046103D01*
X72862601Y-131024500D01*
X72737399Y-131024500D01*
X72656775Y-131046103D01*
X72616463Y-131056905D01*
X72508037Y-131119504D01*
X72508034Y-131119506D01*
X72419504Y-131208036D01*
X72407387Y-131229025D01*
X72356820Y-131277240D01*
X72288212Y-131290462D01*
X72223348Y-131264494D01*
X72192613Y-131229025D01*
X72180495Y-131208036D01*
X72091965Y-131119506D01*
X72091964Y-131119505D01*
X71983536Y-131056905D01*
X71983537Y-131056905D01*
X71943224Y-131046103D01*
X71862601Y-131024500D01*
X71737399Y-131024500D01*
X71656775Y-131046103D01*
X71616463Y-131056905D01*
X71508037Y-131119504D01*
X71508034Y-131119506D01*
X71419504Y-131208036D01*
X71407387Y-131229025D01*
X71356820Y-131277240D01*
X71288212Y-131290462D01*
X71223348Y-131264494D01*
X71192613Y-131229025D01*
X71180495Y-131208036D01*
X71091965Y-131119506D01*
X71091964Y-131119505D01*
X70983536Y-131056905D01*
X70983537Y-131056905D01*
X70943224Y-131046103D01*
X70862601Y-131024500D01*
X70737399Y-131024500D01*
X70656775Y-131046103D01*
X70616463Y-131056905D01*
X70508037Y-131119504D01*
X70508034Y-131119506D01*
X70419504Y-131208036D01*
X70407387Y-131229025D01*
X70356820Y-131277240D01*
X70288212Y-131290462D01*
X70223348Y-131264494D01*
X70192613Y-131229025D01*
X70180495Y-131208036D01*
X70091965Y-131119506D01*
X70091964Y-131119505D01*
X69983536Y-131056905D01*
X69983537Y-131056905D01*
X69943224Y-131046103D01*
X69862601Y-131024500D01*
X69737399Y-131024500D01*
X69656775Y-131046103D01*
X69616463Y-131056905D01*
X69508037Y-131119504D01*
X69508034Y-131119506D01*
X69419504Y-131208036D01*
X69407387Y-131229025D01*
X69356820Y-131277240D01*
X69288212Y-131290462D01*
X69223348Y-131264494D01*
X69192613Y-131229025D01*
X69180495Y-131208036D01*
X69091965Y-131119506D01*
X69091964Y-131119505D01*
X68983536Y-131056905D01*
X68983537Y-131056905D01*
X68943224Y-131046103D01*
X68862601Y-131024500D01*
X68737399Y-131024500D01*
X68656775Y-131046103D01*
X68616463Y-131056905D01*
X68508037Y-131119504D01*
X68508034Y-131119506D01*
X68419506Y-131208034D01*
X68419504Y-131208037D01*
X68356905Y-131316463D01*
X68356905Y-131316464D01*
X68324500Y-131437399D01*
X62000000Y-131437399D01*
X62000000Y-124780964D01*
X63287500Y-124780964D01*
X63287500Y-125019035D01*
X63324743Y-125254179D01*
X63398309Y-125480596D01*
X63398310Y-125480599D01*
X63506394Y-125692723D01*
X63568391Y-125778053D01*
X63568392Y-125778054D01*
X64027546Y-125318899D01*
X64120343Y-125457780D01*
X64242220Y-125579657D01*
X64381099Y-125672453D01*
X63921944Y-126131607D01*
X63921945Y-126131608D01*
X64007271Y-126193601D01*
X64007284Y-126193609D01*
X64219400Y-126301689D01*
X64219403Y-126301690D01*
X64445820Y-126375256D01*
X64680965Y-126412500D01*
X64919035Y-126412500D01*
X65154179Y-126375256D01*
X65380596Y-126301690D01*
X65380599Y-126301689D01*
X65592723Y-126193605D01*
X65678053Y-126131607D01*
X65218899Y-125672453D01*
X65357780Y-125579657D01*
X65479657Y-125457780D01*
X65572453Y-125318899D01*
X66031607Y-125778053D01*
X66093605Y-125692723D01*
X66201689Y-125480599D01*
X66201690Y-125480596D01*
X66275256Y-125254179D01*
X66312500Y-125019035D01*
X66312500Y-124780964D01*
X66275256Y-124545820D01*
X66201690Y-124319403D01*
X66201689Y-124319400D01*
X66093609Y-124107284D01*
X66093601Y-124107271D01*
X66031608Y-124021945D01*
X66031607Y-124021944D01*
X65572452Y-124481099D01*
X65479657Y-124342220D01*
X65357780Y-124220343D01*
X65218900Y-124127546D01*
X65678054Y-123668392D01*
X65678053Y-123668391D01*
X65592723Y-123606394D01*
X65380599Y-123498310D01*
X65380596Y-123498309D01*
X65154179Y-123424743D01*
X64919035Y-123387500D01*
X64680965Y-123387500D01*
X64445820Y-123424743D01*
X64219403Y-123498309D01*
X64219400Y-123498310D01*
X64007273Y-123606396D01*
X63921945Y-123668390D01*
X63921944Y-123668391D01*
X64381099Y-124127546D01*
X64242220Y-124220343D01*
X64120343Y-124342220D01*
X64027546Y-124481099D01*
X63568391Y-124021944D01*
X63568390Y-124021945D01*
X63506396Y-124107273D01*
X63398310Y-124319400D01*
X63398309Y-124319403D01*
X63324743Y-124545820D01*
X63287500Y-124780964D01*
X62000000Y-124780964D01*
X62000000Y-123607424D01*
X62019685Y-123540385D01*
X62034359Y-123521747D01*
X63213373Y-122288318D01*
X63273925Y-122253459D01*
X63303009Y-122250000D01*
X67174909Y-122250000D01*
X67241948Y-122269685D01*
G37*
%TD.AperFunction*%
%TD*%
%TA.AperFunction,Conductor*%
%TO.N,GND*%
G36*
X147330667Y-98473694D02*
G01*
X147389910Y-98576306D01*
X147473694Y-98660090D01*
X147576306Y-98719333D01*
X147661414Y-98742137D01*
X147240979Y-99162572D01*
X147276328Y-99186192D01*
X147458306Y-99261569D01*
X147458318Y-99261572D01*
X147651504Y-99299999D01*
X147651508Y-99300000D01*
X147848492Y-99300000D01*
X147848495Y-99299999D01*
X148041681Y-99261572D01*
X148041693Y-99261569D01*
X148223676Y-99186190D01*
X148223680Y-99186187D01*
X148259019Y-99162573D01*
X148259020Y-99162572D01*
X147838585Y-98742137D01*
X147923694Y-98719333D01*
X148026306Y-98660090D01*
X148110090Y-98576306D01*
X148169333Y-98473694D01*
X148192138Y-98388584D01*
X148563181Y-98759627D01*
X148596666Y-98820950D01*
X148599500Y-98847308D01*
X148599500Y-99264312D01*
X148637212Y-99791582D01*
X148712442Y-100314823D01*
X148747166Y-100474442D01*
X148747166Y-100474444D01*
X148750000Y-100487472D01*
X148750000Y-100500000D01*
X148753482Y-100503482D01*
X148758097Y-100524696D01*
X148758098Y-100524699D01*
X148824805Y-100831351D01*
X148824808Y-100831361D01*
X148973736Y-101338562D01*
X149158476Y-101833867D01*
X149378060Y-102314691D01*
X149378064Y-102314698D01*
X149631405Y-102778658D01*
X149631413Y-102778671D01*
X149917186Y-103223343D01*
X149917202Y-103223367D01*
X150233982Y-103646537D01*
X150438588Y-103882663D01*
X150580162Y-104046048D01*
X150953952Y-104419838D01*
X151118894Y-104562761D01*
X151353447Y-104766004D01*
X151353454Y-104766009D01*
X151353455Y-104766010D01*
X151450312Y-104838516D01*
X151492181Y-104894447D01*
X151500000Y-104937781D01*
X151500000Y-124750000D01*
X148750000Y-127750000D01*
X148750000Y-125135498D01*
X148755809Y-125144192D01*
X148821965Y-125188396D01*
X148821966Y-125188397D01*
X148880297Y-125199999D01*
X148880301Y-125200000D01*
X149650000Y-125200000D01*
X149650000Y-124433012D01*
X149707007Y-124465925D01*
X149834174Y-124500000D01*
X149965826Y-124500000D01*
X150092993Y-124465925D01*
X150150000Y-124433012D01*
X150150000Y-125200000D01*
X150919699Y-125200000D01*
X150919702Y-125199999D01*
X150978033Y-125188397D01*
X150978034Y-125188396D01*
X151044191Y-125144191D01*
X151088396Y-125078034D01*
X151088397Y-125078033D01*
X151099999Y-125019702D01*
X151100000Y-125019699D01*
X151100000Y-124250000D01*
X150333012Y-124250000D01*
X150365925Y-124192993D01*
X150400000Y-124065826D01*
X150400000Y-123934174D01*
X150365925Y-123807007D01*
X150333012Y-123750000D01*
X151100000Y-123750000D01*
X151100000Y-122980301D01*
X151099999Y-122980297D01*
X151088397Y-122921966D01*
X151088396Y-122921965D01*
X151044191Y-122855808D01*
X150978034Y-122811603D01*
X150978033Y-122811602D01*
X150919702Y-122800000D01*
X150150000Y-122800000D01*
X150150000Y-123566988D01*
X150092993Y-123534075D01*
X149965826Y-123500000D01*
X149834174Y-123500000D01*
X149707007Y-123534075D01*
X149650000Y-123566988D01*
X149650000Y-122800000D01*
X148880297Y-122800000D01*
X148821966Y-122811602D01*
X148821965Y-122811603D01*
X148755808Y-122855808D01*
X148711603Y-122921965D01*
X148711602Y-122921966D01*
X148705026Y-122955026D01*
X141250000Y-115500000D01*
X138750000Y-113000000D01*
X138750000Y-112999999D01*
X137797202Y-112047202D01*
X137789030Y-112038186D01*
X137676277Y-111900797D01*
X137662772Y-111880585D01*
X137581877Y-111729240D01*
X137572575Y-111706785D01*
X137522758Y-111542558D01*
X137518018Y-111518728D01*
X137500597Y-111341847D01*
X137500000Y-111329693D01*
X137500000Y-110651504D01*
X137750000Y-110651504D01*
X137750000Y-110848495D01*
X137788427Y-111041681D01*
X137788430Y-111041693D01*
X137863808Y-111223673D01*
X137863809Y-111223675D01*
X137887425Y-111259019D01*
X138350000Y-110796445D01*
X138350000Y-110802661D01*
X138377259Y-110904394D01*
X138429920Y-110995606D01*
X138504394Y-111070080D01*
X138595606Y-111122741D01*
X138697339Y-111150000D01*
X138703553Y-111150000D01*
X138240979Y-111612572D01*
X138276328Y-111636192D01*
X138458306Y-111711569D01*
X138458318Y-111711572D01*
X138651504Y-111749999D01*
X138651508Y-111750000D01*
X138848492Y-111750000D01*
X138848495Y-111749999D01*
X139041681Y-111711572D01*
X139041693Y-111711569D01*
X139223676Y-111636190D01*
X139223680Y-111636187D01*
X139259019Y-111612573D01*
X139259020Y-111612572D01*
X138796448Y-111150000D01*
X138802661Y-111150000D01*
X138904394Y-111122741D01*
X138995606Y-111070080D01*
X139070080Y-110995606D01*
X139122741Y-110904394D01*
X139150000Y-110802661D01*
X139150000Y-110796447D01*
X139612572Y-111259020D01*
X139612573Y-111259019D01*
X139636187Y-111223680D01*
X139636190Y-111223676D01*
X139711569Y-111041693D01*
X139711572Y-111041681D01*
X139749999Y-110848495D01*
X139750000Y-110848492D01*
X139750000Y-110651508D01*
X139749999Y-110651504D01*
X139711572Y-110458318D01*
X139711569Y-110458306D01*
X139636192Y-110276328D01*
X139612572Y-110240979D01*
X139150000Y-110703551D01*
X139150000Y-110697339D01*
X139122741Y-110595606D01*
X139070080Y-110504394D01*
X138995606Y-110429920D01*
X138904394Y-110377259D01*
X138802661Y-110350000D01*
X138796447Y-110350000D01*
X139244311Y-109902135D01*
X140949500Y-109902135D01*
X140949500Y-111597870D01*
X140949501Y-111597876D01*
X140955908Y-111657483D01*
X141006202Y-111792328D01*
X141006206Y-111792335D01*
X141092452Y-111907544D01*
X141092455Y-111907547D01*
X141207664Y-111993793D01*
X141207671Y-111993797D01*
X141342517Y-112044091D01*
X141342516Y-112044091D01*
X141349444Y-112044835D01*
X141402127Y-112050500D01*
X143097872Y-112050499D01*
X143157483Y-112044091D01*
X143292331Y-111993796D01*
X143407546Y-111907546D01*
X143493796Y-111792331D01*
X143544091Y-111657483D01*
X143550500Y-111597873D01*
X143550499Y-109902128D01*
X143544091Y-109842517D01*
X143509584Y-109750000D01*
X143493797Y-109707671D01*
X143493793Y-109707664D01*
X143407547Y-109592455D01*
X143407544Y-109592452D01*
X143292335Y-109506206D01*
X143292328Y-109506202D01*
X143157482Y-109455908D01*
X143157483Y-109455908D01*
X143097883Y-109449501D01*
X143097881Y-109449500D01*
X143097873Y-109449500D01*
X143097864Y-109449500D01*
X141402129Y-109449500D01*
X141402123Y-109449501D01*
X141342516Y-109455908D01*
X141207671Y-109506202D01*
X141207664Y-109506206D01*
X141092455Y-109592452D01*
X141092452Y-109592455D01*
X141006206Y-109707664D01*
X141006202Y-109707671D01*
X140955908Y-109842517D01*
X140949501Y-109902116D01*
X140949501Y-109902123D01*
X140949500Y-109902135D01*
X139244311Y-109902135D01*
X139259020Y-109887426D01*
X139223675Y-109863809D01*
X139223673Y-109863808D01*
X139041693Y-109788430D01*
X139041681Y-109788427D01*
X138848495Y-109750000D01*
X138651504Y-109750000D01*
X138458318Y-109788427D01*
X138458310Y-109788429D01*
X138276325Y-109863809D01*
X138276318Y-109863813D01*
X138240979Y-109887426D01*
X138240978Y-109887426D01*
X138703554Y-110350000D01*
X138697339Y-110350000D01*
X138595606Y-110377259D01*
X138504394Y-110429920D01*
X138429920Y-110504394D01*
X138377259Y-110595606D01*
X138350000Y-110697339D01*
X138350000Y-110703552D01*
X137887426Y-110240978D01*
X137887426Y-110240979D01*
X137863813Y-110276318D01*
X137863809Y-110276325D01*
X137788429Y-110458310D01*
X137788427Y-110458318D01*
X137750000Y-110651504D01*
X137500000Y-110651504D01*
X137500000Y-110170306D01*
X137500597Y-110158152D01*
X137518018Y-109981269D01*
X137522757Y-109957443D01*
X137572577Y-109793207D01*
X137581875Y-109770762D01*
X137662775Y-109619408D01*
X137676272Y-109599208D01*
X137789039Y-109461802D01*
X137797192Y-109452807D01*
X140207107Y-107042893D01*
X140500000Y-106750000D01*
X140500000Y-105423615D01*
X144224500Y-105423615D01*
X144224500Y-105576384D01*
X144254300Y-105726197D01*
X144254302Y-105726205D01*
X144312759Y-105867334D01*
X144312764Y-105867343D01*
X144397629Y-105994351D01*
X144397632Y-105994355D01*
X144505644Y-106102367D01*
X144505648Y-106102370D01*
X144632656Y-106187235D01*
X144632662Y-106187238D01*
X144632663Y-106187239D01*
X144773795Y-106245698D01*
X144914179Y-106273622D01*
X144923615Y-106275499D01*
X144923619Y-106275500D01*
X144923620Y-106275500D01*
X145076381Y-106275500D01*
X145076382Y-106275499D01*
X145226205Y-106245698D01*
X145367337Y-106187239D01*
X145494352Y-106102370D01*
X145602370Y-105994352D01*
X145687239Y-105867337D01*
X145745698Y-105726205D01*
X145775500Y-105576380D01*
X145775500Y-105423620D01*
X145745698Y-105273795D01*
X145687239Y-105132663D01*
X145687238Y-105132662D01*
X145687235Y-105132656D01*
X145602370Y-105005648D01*
X145602367Y-105005644D01*
X145494355Y-104897632D01*
X145494351Y-104897629D01*
X145367343Y-104812764D01*
X145367334Y-104812759D01*
X145226205Y-104754302D01*
X145226197Y-104754300D01*
X145076384Y-104724500D01*
X145076380Y-104724500D01*
X144923620Y-104724500D01*
X144923615Y-104724500D01*
X144773802Y-104754300D01*
X144773794Y-104754302D01*
X144632665Y-104812759D01*
X144632656Y-104812764D01*
X144505648Y-104897629D01*
X144505644Y-104897632D01*
X144397632Y-105005644D01*
X144397629Y-105005648D01*
X144312764Y-105132656D01*
X144312759Y-105132665D01*
X144254302Y-105273794D01*
X144254300Y-105273802D01*
X144224500Y-105423615D01*
X140500000Y-105423615D01*
X140500000Y-99724499D01*
X140519685Y-99657460D01*
X140572489Y-99611705D01*
X140623998Y-99600499D01*
X141097872Y-99600499D01*
X141157483Y-99594091D01*
X141292331Y-99543796D01*
X141407546Y-99457546D01*
X141493796Y-99342331D01*
X141544091Y-99207483D01*
X141545394Y-99201968D01*
X141579963Y-99141250D01*
X141641872Y-99108860D01*
X141711464Y-99115083D01*
X141753387Y-99144975D01*
X141754589Y-99143774D01*
X141902786Y-99291971D01*
X142057749Y-99404556D01*
X142068390Y-99412287D01*
X142157212Y-99457544D01*
X142250776Y-99505218D01*
X142250778Y-99505218D01*
X142250781Y-99505220D01*
X142355137Y-99539127D01*
X142445465Y-99568477D01*
X142546557Y-99584488D01*
X142647648Y-99600500D01*
X142647649Y-99600500D01*
X142852351Y-99600500D01*
X142852352Y-99600500D01*
X143054534Y-99568477D01*
X143249219Y-99505220D01*
X143431610Y-99412287D01*
X143553651Y-99323620D01*
X143597213Y-99291971D01*
X143597215Y-99291968D01*
X143597219Y-99291966D01*
X143741966Y-99147219D01*
X143741968Y-99147215D01*
X143741971Y-99147213D01*
X143825195Y-99032663D01*
X143862287Y-98981610D01*
X143889515Y-98928171D01*
X143937490Y-98877376D01*
X144005311Y-98860581D01*
X144071446Y-98883118D01*
X144110485Y-98928172D01*
X144137715Y-98981613D01*
X144258028Y-99147213D01*
X144402786Y-99291971D01*
X144557749Y-99404556D01*
X144568390Y-99412287D01*
X144657212Y-99457544D01*
X144750776Y-99505218D01*
X144750778Y-99505218D01*
X144750781Y-99505220D01*
X144855137Y-99539127D01*
X144945465Y-99568477D01*
X145046557Y-99584488D01*
X145147648Y-99600500D01*
X145147649Y-99600500D01*
X145352351Y-99600500D01*
X145352352Y-99600500D01*
X145554534Y-99568477D01*
X145749219Y-99505220D01*
X145931610Y-99412287D01*
X146053651Y-99323620D01*
X146097213Y-99291971D01*
X146097215Y-99291968D01*
X146097219Y-99291966D01*
X146241966Y-99147219D01*
X146362287Y-98981610D01*
X146455220Y-98799219D01*
X146518477Y-98604534D01*
X146530651Y-98527669D01*
X146560580Y-98464536D01*
X146619891Y-98427604D01*
X146689754Y-98428602D01*
X146747987Y-98467211D01*
X146774741Y-98522877D01*
X146788427Y-98591681D01*
X146788430Y-98591693D01*
X146863808Y-98773673D01*
X146863809Y-98773675D01*
X146887425Y-98809019D01*
X147307861Y-98388583D01*
X147330667Y-98473694D01*
G37*
%TD.AperFunction*%
%TA.AperFunction,Conductor*%
G36*
X147189665Y-97269685D02*
G01*
X147235420Y-97322489D01*
X147246029Y-97386155D01*
X147240978Y-97437426D01*
X147661415Y-97857861D01*
X147576306Y-97880667D01*
X147473694Y-97939910D01*
X147389910Y-98023694D01*
X147330667Y-98126306D01*
X147307861Y-98211414D01*
X146887426Y-97790978D01*
X146887426Y-97790979D01*
X146863813Y-97826318D01*
X146863809Y-97826325D01*
X146788429Y-98008310D01*
X146788427Y-98008318D01*
X146774741Y-98077122D01*
X146742356Y-98139033D01*
X146681640Y-98173607D01*
X146611871Y-98169868D01*
X146555199Y-98129001D01*
X146530651Y-98072329D01*
X146518477Y-97995466D01*
X146455220Y-97800781D01*
X146455218Y-97800778D01*
X146455218Y-97800776D01*
X146389515Y-97671828D01*
X146362287Y-97618390D01*
X146333633Y-97578951D01*
X146239103Y-97448839D01*
X146240468Y-97447847D01*
X146214892Y-97390775D01*
X146225326Y-97321689D01*
X146271455Y-97269211D01*
X146337752Y-97250000D01*
X147122626Y-97250000D01*
X147189665Y-97269685D01*
G37*
%TD.AperFunction*%
%TD*%
M02*
