%TF.GenerationSoftware,KiCad,Pcbnew,9.0.7*%
%TF.CreationDate,2026-04-16T17:11:48-05:00*%
%TF.ProjectId,OSLUV,4f534c55-562e-46b6-9963-61645f706362,01*%
%TF.SameCoordinates,PX2faf080PY5a995c0*%
%TF.FileFunction,Legend,Top*%
%TF.FilePolarity,Positive*%
%FSLAX46Y46*%
G04 Gerber Fmt 4.6, Leading zero omitted, Abs format (unit mm)*
G04 Created by KiCad (PCBNEW 9.0.7) date 2026-04-16 17:11:48*
%MOMM*%
%LPD*%
G01*
G04 APERTURE LIST*
%ADD10C,0.150000*%
%ADD11C,0.550000*%
%ADD12C,0.100000*%
%ADD13C,0.300000*%
%ADD14C,0.200000*%
%ADD15C,0.120000*%
%ADD16C,0.022000*%
G04 APERTURE END LIST*
D10*
X146700000Y-113000000D02*
X149900000Y-113000000D01*
D11*
X140525000Y-102000000D02*
G75*
G02*
X139975000Y-102000000I-275000J0D01*
G01*
X139975000Y-102000000D02*
G75*
G02*
X140525000Y-102000000I275000J0D01*
G01*
D12*
X156000000Y-102500000D02*
X156000000Y-104000000D01*
D10*
X128100000Y-116200000D02*
X129600000Y-116200000D01*
D11*
X127775000Y-100000000D02*
G75*
G02*
X127225000Y-100000000I-275000J0D01*
G01*
X127225000Y-100000000D02*
G75*
G02*
X127775000Y-100000000I275000J0D01*
G01*
D12*
X155750000Y-105000000D02*
X156250000Y-105000000D01*
D13*
X54050000Y-120300000D02*
G75*
G02*
X53750000Y-120300000I-150000J0D01*
G01*
X53750000Y-120300000D02*
G75*
G02*
X54050000Y-120300000I150000J0D01*
G01*
D12*
X155000000Y-104000000D02*
X157000000Y-104000000D01*
D10*
X145100000Y-130825000D02*
X145100000Y-129975000D01*
D13*
X100750000Y-100000000D02*
G75*
G02*
X100450000Y-100000000I-150000J0D01*
G01*
X100450000Y-100000000D02*
G75*
G02*
X100750000Y-100000000I150000J0D01*
G01*
X107150000Y-95000000D02*
G75*
G02*
X106850000Y-95000000I-150000J0D01*
G01*
X106850000Y-95000000D02*
G75*
G02*
X107150000Y-95000000I150000J0D01*
G01*
D10*
X125100000Y-119500000D02*
X128300000Y-119500000D01*
D12*
X155500000Y-104500000D02*
X156500000Y-104500000D01*
D10*
X144900000Y-128200000D02*
X144600000Y-128900000D01*
X128600000Y-119100000D02*
X130800000Y-119100000D01*
X128300000Y-119500000D02*
X128600000Y-119100000D01*
X149508207Y-125632390D02*
X149432017Y-125594295D01*
X149432017Y-125594295D02*
X149317731Y-125594295D01*
X149317731Y-125594295D02*
X149203445Y-125632390D01*
X149203445Y-125632390D02*
X149127255Y-125708580D01*
X149127255Y-125708580D02*
X149089160Y-125784771D01*
X149089160Y-125784771D02*
X149051064Y-125937152D01*
X149051064Y-125937152D02*
X149051064Y-126051438D01*
X149051064Y-126051438D02*
X149089160Y-126203819D01*
X149089160Y-126203819D02*
X149127255Y-126280009D01*
X149127255Y-126280009D02*
X149203445Y-126356200D01*
X149203445Y-126356200D02*
X149317731Y-126394295D01*
X149317731Y-126394295D02*
X149393922Y-126394295D01*
X149393922Y-126394295D02*
X149508207Y-126356200D01*
X149508207Y-126356200D02*
X149546303Y-126318104D01*
X149546303Y-126318104D02*
X149546303Y-126051438D01*
X149546303Y-126051438D02*
X149393922Y-126051438D01*
X149889160Y-126394295D02*
X149889160Y-125594295D01*
X149889160Y-125594295D02*
X150346303Y-126394295D01*
X150346303Y-126394295D02*
X150346303Y-125594295D01*
X150727255Y-126394295D02*
X150727255Y-125594295D01*
X150727255Y-125594295D02*
X150917731Y-125594295D01*
X150917731Y-125594295D02*
X151032017Y-125632390D01*
X151032017Y-125632390D02*
X151108207Y-125708580D01*
X151108207Y-125708580D02*
X151146302Y-125784771D01*
X151146302Y-125784771D02*
X151184398Y-125937152D01*
X151184398Y-125937152D02*
X151184398Y-126051438D01*
X151184398Y-126051438D02*
X151146302Y-126203819D01*
X151146302Y-126203819D02*
X151108207Y-126280009D01*
X151108207Y-126280009D02*
X151032017Y-126356200D01*
X151032017Y-126356200D02*
X150917731Y-126394295D01*
X150917731Y-126394295D02*
X150727255Y-126394295D01*
X114575125Y-124344295D02*
X114117982Y-124344295D01*
X114346554Y-125144295D02*
X114346554Y-124344295D01*
X113546553Y-125106200D02*
X113622744Y-125144295D01*
X113622744Y-125144295D02*
X113775125Y-125144295D01*
X113775125Y-125144295D02*
X113851315Y-125106200D01*
X113851315Y-125106200D02*
X113889411Y-125030009D01*
X113889411Y-125030009D02*
X113889411Y-124725247D01*
X113889411Y-124725247D02*
X113851315Y-124649057D01*
X113851315Y-124649057D02*
X113775125Y-124610961D01*
X113775125Y-124610961D02*
X113622744Y-124610961D01*
X113622744Y-124610961D02*
X113546553Y-124649057D01*
X113546553Y-124649057D02*
X113508458Y-124725247D01*
X113508458Y-124725247D02*
X113508458Y-124801438D01*
X113508458Y-124801438D02*
X113889411Y-124877628D01*
X113165601Y-125144295D02*
X113165601Y-124610961D01*
X113165601Y-124687152D02*
X113127506Y-124649057D01*
X113127506Y-124649057D02*
X113051316Y-124610961D01*
X113051316Y-124610961D02*
X112937030Y-124610961D01*
X112937030Y-124610961D02*
X112860839Y-124649057D01*
X112860839Y-124649057D02*
X112822744Y-124725247D01*
X112822744Y-124725247D02*
X112822744Y-125144295D01*
X112822744Y-124725247D02*
X112784649Y-124649057D01*
X112784649Y-124649057D02*
X112708458Y-124610961D01*
X112708458Y-124610961D02*
X112594173Y-124610961D01*
X112594173Y-124610961D02*
X112517982Y-124649057D01*
X112517982Y-124649057D02*
X112479887Y-124725247D01*
X112479887Y-124725247D02*
X112479887Y-125144295D01*
X112098934Y-124610961D02*
X112098934Y-125410961D01*
X112098934Y-124649057D02*
X112022744Y-124610961D01*
X112022744Y-124610961D02*
X111870363Y-124610961D01*
X111870363Y-124610961D02*
X111794172Y-124649057D01*
X111794172Y-124649057D02*
X111756077Y-124687152D01*
X111756077Y-124687152D02*
X111717982Y-124763342D01*
X111717982Y-124763342D02*
X111717982Y-124991914D01*
X111717982Y-124991914D02*
X111756077Y-125068104D01*
X111756077Y-125068104D02*
X111794172Y-125106200D01*
X111794172Y-125106200D02*
X111870363Y-125144295D01*
X111870363Y-125144295D02*
X112022744Y-125144295D01*
X112022744Y-125144295D02*
X112098934Y-125106200D01*
D14*
X156757275Y-124439850D02*
X156757275Y-124249374D01*
X156757275Y-124249374D02*
X156804894Y-124154136D01*
X156804894Y-124154136D02*
X156900132Y-124058898D01*
X156900132Y-124058898D02*
X157090608Y-124011279D01*
X157090608Y-124011279D02*
X157423941Y-124011279D01*
X157423941Y-124011279D02*
X157614417Y-124058898D01*
X157614417Y-124058898D02*
X157709656Y-124154136D01*
X157709656Y-124154136D02*
X157757275Y-124249374D01*
X157757275Y-124249374D02*
X157757275Y-124439850D01*
X157757275Y-124439850D02*
X157709656Y-124535088D01*
X157709656Y-124535088D02*
X157614417Y-124630326D01*
X157614417Y-124630326D02*
X157423941Y-124677945D01*
X157423941Y-124677945D02*
X157090608Y-124677945D01*
X157090608Y-124677945D02*
X156900132Y-124630326D01*
X156900132Y-124630326D02*
X156804894Y-124535088D01*
X156804894Y-124535088D02*
X156757275Y-124439850D01*
X157709656Y-123630326D02*
X157757275Y-123487469D01*
X157757275Y-123487469D02*
X157757275Y-123249374D01*
X157757275Y-123249374D02*
X157709656Y-123154136D01*
X157709656Y-123154136D02*
X157662036Y-123106517D01*
X157662036Y-123106517D02*
X157566798Y-123058898D01*
X157566798Y-123058898D02*
X157471560Y-123058898D01*
X157471560Y-123058898D02*
X157376322Y-123106517D01*
X157376322Y-123106517D02*
X157328703Y-123154136D01*
X157328703Y-123154136D02*
X157281084Y-123249374D01*
X157281084Y-123249374D02*
X157233465Y-123439850D01*
X157233465Y-123439850D02*
X157185846Y-123535088D01*
X157185846Y-123535088D02*
X157138227Y-123582707D01*
X157138227Y-123582707D02*
X157042989Y-123630326D01*
X157042989Y-123630326D02*
X156947751Y-123630326D01*
X156947751Y-123630326D02*
X156852513Y-123582707D01*
X156852513Y-123582707D02*
X156804894Y-123535088D01*
X156804894Y-123535088D02*
X156757275Y-123439850D01*
X156757275Y-123439850D02*
X156757275Y-123201755D01*
X156757275Y-123201755D02*
X156804894Y-123058898D01*
X157757275Y-122154136D02*
X157757275Y-122630326D01*
X157757275Y-122630326D02*
X156757275Y-122630326D01*
X156757275Y-121820802D02*
X157566798Y-121820802D01*
X157566798Y-121820802D02*
X157662036Y-121773183D01*
X157662036Y-121773183D02*
X157709656Y-121725564D01*
X157709656Y-121725564D02*
X157757275Y-121630326D01*
X157757275Y-121630326D02*
X157757275Y-121439850D01*
X157757275Y-121439850D02*
X157709656Y-121344612D01*
X157709656Y-121344612D02*
X157662036Y-121296993D01*
X157662036Y-121296993D02*
X157566798Y-121249374D01*
X157566798Y-121249374D02*
X156757275Y-121249374D01*
X156757275Y-120916040D02*
X157757275Y-120582707D01*
X157757275Y-120582707D02*
X156757275Y-120249374D01*
X157233465Y-119154135D02*
X157233465Y-118820802D01*
X157757275Y-118677945D02*
X157757275Y-119154135D01*
X157757275Y-119154135D02*
X156757275Y-119154135D01*
X156757275Y-119154135D02*
X156757275Y-118677945D01*
X157757275Y-118344611D02*
X157090608Y-117820802D01*
X157090608Y-118344611D02*
X157757275Y-117820802D01*
X157709656Y-117011278D02*
X157757275Y-117106516D01*
X157757275Y-117106516D02*
X157757275Y-117296992D01*
X157757275Y-117296992D02*
X157709656Y-117392230D01*
X157709656Y-117392230D02*
X157662036Y-117439849D01*
X157662036Y-117439849D02*
X157566798Y-117487468D01*
X157566798Y-117487468D02*
X157281084Y-117487468D01*
X157281084Y-117487468D02*
X157185846Y-117439849D01*
X157185846Y-117439849D02*
X157138227Y-117392230D01*
X157138227Y-117392230D02*
X157090608Y-117296992D01*
X157090608Y-117296992D02*
X157090608Y-117106516D01*
X157090608Y-117106516D02*
X157138227Y-117011278D01*
X157757275Y-116582706D02*
X157090608Y-116582706D01*
X156757275Y-116582706D02*
X156804894Y-116630325D01*
X156804894Y-116630325D02*
X156852513Y-116582706D01*
X156852513Y-116582706D02*
X156804894Y-116535087D01*
X156804894Y-116535087D02*
X156757275Y-116582706D01*
X156757275Y-116582706D02*
X156852513Y-116582706D01*
X157757275Y-116106516D02*
X157090608Y-116106516D01*
X157185846Y-116106516D02*
X157138227Y-116058897D01*
X157138227Y-116058897D02*
X157090608Y-115963659D01*
X157090608Y-115963659D02*
X157090608Y-115820802D01*
X157090608Y-115820802D02*
X157138227Y-115725564D01*
X157138227Y-115725564D02*
X157233465Y-115677945D01*
X157233465Y-115677945D02*
X157757275Y-115677945D01*
X157233465Y-115677945D02*
X157138227Y-115630326D01*
X157138227Y-115630326D02*
X157090608Y-115535088D01*
X157090608Y-115535088D02*
X157090608Y-115392231D01*
X157090608Y-115392231D02*
X157138227Y-115296992D01*
X157138227Y-115296992D02*
X157233465Y-115249373D01*
X157233465Y-115249373D02*
X157757275Y-115249373D01*
X157709656Y-114392231D02*
X157757275Y-114487469D01*
X157757275Y-114487469D02*
X157757275Y-114677945D01*
X157757275Y-114677945D02*
X157709656Y-114773183D01*
X157709656Y-114773183D02*
X157614417Y-114820802D01*
X157614417Y-114820802D02*
X157233465Y-114820802D01*
X157233465Y-114820802D02*
X157138227Y-114773183D01*
X157138227Y-114773183D02*
X157090608Y-114677945D01*
X157090608Y-114677945D02*
X157090608Y-114487469D01*
X157090608Y-114487469D02*
X157138227Y-114392231D01*
X157138227Y-114392231D02*
X157233465Y-114344612D01*
X157233465Y-114344612D02*
X157328703Y-114344612D01*
X157328703Y-114344612D02*
X157423941Y-114820802D01*
X157757275Y-113916040D02*
X157090608Y-113916040D01*
X157281084Y-113916040D02*
X157185846Y-113868421D01*
X157185846Y-113868421D02*
X157138227Y-113820802D01*
X157138227Y-113820802D02*
X157090608Y-113725564D01*
X157090608Y-113725564D02*
X157090608Y-113630326D01*
X157757275Y-112535087D02*
X156757275Y-112535087D01*
X156757275Y-112535087D02*
X156757275Y-112296992D01*
X156757275Y-112296992D02*
X156804894Y-112154135D01*
X156804894Y-112154135D02*
X156900132Y-112058897D01*
X156900132Y-112058897D02*
X156995370Y-112011278D01*
X156995370Y-112011278D02*
X157185846Y-111963659D01*
X157185846Y-111963659D02*
X157328703Y-111963659D01*
X157328703Y-111963659D02*
X157519179Y-112011278D01*
X157519179Y-112011278D02*
X157614417Y-112058897D01*
X157614417Y-112058897D02*
X157709656Y-112154135D01*
X157709656Y-112154135D02*
X157757275Y-112296992D01*
X157757275Y-112296992D02*
X157757275Y-112535087D01*
X157757275Y-111535087D02*
X157090608Y-111535087D01*
X157281084Y-111535087D02*
X157185846Y-111487468D01*
X157185846Y-111487468D02*
X157138227Y-111439849D01*
X157138227Y-111439849D02*
X157090608Y-111344611D01*
X157090608Y-111344611D02*
X157090608Y-111249373D01*
X157757275Y-110916039D02*
X157090608Y-110916039D01*
X156757275Y-110916039D02*
X156804894Y-110963658D01*
X156804894Y-110963658D02*
X156852513Y-110916039D01*
X156852513Y-110916039D02*
X156804894Y-110868420D01*
X156804894Y-110868420D02*
X156757275Y-110916039D01*
X156757275Y-110916039D02*
X156852513Y-110916039D01*
X157090608Y-110535087D02*
X157757275Y-110296992D01*
X157757275Y-110296992D02*
X157090608Y-110058897D01*
X157709656Y-109296992D02*
X157757275Y-109392230D01*
X157757275Y-109392230D02*
X157757275Y-109582706D01*
X157757275Y-109582706D02*
X157709656Y-109677944D01*
X157709656Y-109677944D02*
X157614417Y-109725563D01*
X157614417Y-109725563D02*
X157233465Y-109725563D01*
X157233465Y-109725563D02*
X157138227Y-109677944D01*
X157138227Y-109677944D02*
X157090608Y-109582706D01*
X157090608Y-109582706D02*
X157090608Y-109392230D01*
X157090608Y-109392230D02*
X157138227Y-109296992D01*
X157138227Y-109296992D02*
X157233465Y-109249373D01*
X157233465Y-109249373D02*
X157328703Y-109249373D01*
X157328703Y-109249373D02*
X157423941Y-109725563D01*
X157757275Y-108820801D02*
X157090608Y-108820801D01*
X157281084Y-108820801D02*
X157185846Y-108773182D01*
X157185846Y-108773182D02*
X157138227Y-108725563D01*
X157138227Y-108725563D02*
X157090608Y-108630325D01*
X157090608Y-108630325D02*
X157090608Y-108535087D01*
X159367219Y-124058898D02*
X158891028Y-124392231D01*
X159367219Y-124630326D02*
X158367219Y-124630326D01*
X158367219Y-124630326D02*
X158367219Y-124249374D01*
X158367219Y-124249374D02*
X158414838Y-124154136D01*
X158414838Y-124154136D02*
X158462457Y-124106517D01*
X158462457Y-124106517D02*
X158557695Y-124058898D01*
X158557695Y-124058898D02*
X158700552Y-124058898D01*
X158700552Y-124058898D02*
X158795790Y-124106517D01*
X158795790Y-124106517D02*
X158843409Y-124154136D01*
X158843409Y-124154136D02*
X158891028Y-124249374D01*
X158891028Y-124249374D02*
X158891028Y-124630326D01*
X159319600Y-123249374D02*
X159367219Y-123344612D01*
X159367219Y-123344612D02*
X159367219Y-123535088D01*
X159367219Y-123535088D02*
X159319600Y-123630326D01*
X159319600Y-123630326D02*
X159224361Y-123677945D01*
X159224361Y-123677945D02*
X158843409Y-123677945D01*
X158843409Y-123677945D02*
X158748171Y-123630326D01*
X158748171Y-123630326D02*
X158700552Y-123535088D01*
X158700552Y-123535088D02*
X158700552Y-123344612D01*
X158700552Y-123344612D02*
X158748171Y-123249374D01*
X158748171Y-123249374D02*
X158843409Y-123201755D01*
X158843409Y-123201755D02*
X158938647Y-123201755D01*
X158938647Y-123201755D02*
X159033885Y-123677945D01*
X158700552Y-122868421D02*
X159367219Y-122630326D01*
X159367219Y-122630326D02*
X158700552Y-122392231D01*
X158462457Y-121296992D02*
X158414838Y-121249373D01*
X158414838Y-121249373D02*
X158367219Y-121154135D01*
X158367219Y-121154135D02*
X158367219Y-120916040D01*
X158367219Y-120916040D02*
X158414838Y-120820802D01*
X158414838Y-120820802D02*
X158462457Y-120773183D01*
X158462457Y-120773183D02*
X158557695Y-120725564D01*
X158557695Y-120725564D02*
X158652933Y-120725564D01*
X158652933Y-120725564D02*
X158795790Y-120773183D01*
X158795790Y-120773183D02*
X159367219Y-121344611D01*
X159367219Y-121344611D02*
X159367219Y-120725564D01*
X159271980Y-120296992D02*
X159319600Y-120249373D01*
X159319600Y-120249373D02*
X159367219Y-120296992D01*
X159367219Y-120296992D02*
X159319600Y-120344611D01*
X159319600Y-120344611D02*
X159271980Y-120296992D01*
X159271980Y-120296992D02*
X159367219Y-120296992D01*
X158367219Y-119630326D02*
X158367219Y-119535088D01*
X158367219Y-119535088D02*
X158414838Y-119439850D01*
X158414838Y-119439850D02*
X158462457Y-119392231D01*
X158462457Y-119392231D02*
X158557695Y-119344612D01*
X158557695Y-119344612D02*
X158748171Y-119296993D01*
X158748171Y-119296993D02*
X158986266Y-119296993D01*
X158986266Y-119296993D02*
X159176742Y-119344612D01*
X159176742Y-119344612D02*
X159271980Y-119392231D01*
X159271980Y-119392231D02*
X159319600Y-119439850D01*
X159319600Y-119439850D02*
X159367219Y-119535088D01*
X159367219Y-119535088D02*
X159367219Y-119630326D01*
X159367219Y-119630326D02*
X159319600Y-119725564D01*
X159319600Y-119725564D02*
X159271980Y-119773183D01*
X159271980Y-119773183D02*
X159176742Y-119820802D01*
X159176742Y-119820802D02*
X158986266Y-119868421D01*
X158986266Y-119868421D02*
X158748171Y-119868421D01*
X158748171Y-119868421D02*
X158557695Y-119820802D01*
X158557695Y-119820802D02*
X158462457Y-119773183D01*
X158462457Y-119773183D02*
X158414838Y-119725564D01*
X158414838Y-119725564D02*
X158367219Y-119630326D01*
X159271980Y-118868421D02*
X159319600Y-118820802D01*
X159319600Y-118820802D02*
X159367219Y-118868421D01*
X159367219Y-118868421D02*
X159319600Y-118916040D01*
X159319600Y-118916040D02*
X159271980Y-118868421D01*
X159271980Y-118868421D02*
X159367219Y-118868421D01*
X158367219Y-118201755D02*
X158367219Y-118106517D01*
X158367219Y-118106517D02*
X158414838Y-118011279D01*
X158414838Y-118011279D02*
X158462457Y-117963660D01*
X158462457Y-117963660D02*
X158557695Y-117916041D01*
X158557695Y-117916041D02*
X158748171Y-117868422D01*
X158748171Y-117868422D02*
X158986266Y-117868422D01*
X158986266Y-117868422D02*
X159176742Y-117916041D01*
X159176742Y-117916041D02*
X159271980Y-117963660D01*
X159271980Y-117963660D02*
X159319600Y-118011279D01*
X159319600Y-118011279D02*
X159367219Y-118106517D01*
X159367219Y-118106517D02*
X159367219Y-118201755D01*
X159367219Y-118201755D02*
X159319600Y-118296993D01*
X159319600Y-118296993D02*
X159271980Y-118344612D01*
X159271980Y-118344612D02*
X159176742Y-118392231D01*
X159176742Y-118392231D02*
X158986266Y-118439850D01*
X158986266Y-118439850D02*
X158748171Y-118439850D01*
X158748171Y-118439850D02*
X158557695Y-118392231D01*
X158557695Y-118392231D02*
X158462457Y-118344612D01*
X158462457Y-118344612D02*
X158414838Y-118296993D01*
X158414838Y-118296993D02*
X158367219Y-118201755D01*
X158462457Y-114439849D02*
X158414838Y-114392230D01*
X158414838Y-114392230D02*
X158367219Y-114296992D01*
X158367219Y-114296992D02*
X158367219Y-114058897D01*
X158367219Y-114058897D02*
X158414838Y-113963659D01*
X158414838Y-113963659D02*
X158462457Y-113916040D01*
X158462457Y-113916040D02*
X158557695Y-113868421D01*
X158557695Y-113868421D02*
X158652933Y-113868421D01*
X158652933Y-113868421D02*
X158795790Y-113916040D01*
X158795790Y-113916040D02*
X159367219Y-114487468D01*
X159367219Y-114487468D02*
X159367219Y-113868421D01*
X158367219Y-113011278D02*
X158367219Y-113201754D01*
X158367219Y-113201754D02*
X158414838Y-113296992D01*
X158414838Y-113296992D02*
X158462457Y-113344611D01*
X158462457Y-113344611D02*
X158605314Y-113439849D01*
X158605314Y-113439849D02*
X158795790Y-113487468D01*
X158795790Y-113487468D02*
X159176742Y-113487468D01*
X159176742Y-113487468D02*
X159271980Y-113439849D01*
X159271980Y-113439849D02*
X159319600Y-113392230D01*
X159319600Y-113392230D02*
X159367219Y-113296992D01*
X159367219Y-113296992D02*
X159367219Y-113106516D01*
X159367219Y-113106516D02*
X159319600Y-113011278D01*
X159319600Y-113011278D02*
X159271980Y-112963659D01*
X159271980Y-112963659D02*
X159176742Y-112916040D01*
X159176742Y-112916040D02*
X158938647Y-112916040D01*
X158938647Y-112916040D02*
X158843409Y-112963659D01*
X158843409Y-112963659D02*
X158795790Y-113011278D01*
X158795790Y-113011278D02*
X158748171Y-113106516D01*
X158748171Y-113106516D02*
X158748171Y-113296992D01*
X158748171Y-113296992D02*
X158795790Y-113392230D01*
X158795790Y-113392230D02*
X158843409Y-113439849D01*
X158843409Y-113439849D02*
X158938647Y-113487468D01*
X158319600Y-111773183D02*
X159605314Y-112630325D01*
X158367219Y-111249373D02*
X158367219Y-111154135D01*
X158367219Y-111154135D02*
X158414838Y-111058897D01*
X158414838Y-111058897D02*
X158462457Y-111011278D01*
X158462457Y-111011278D02*
X158557695Y-110963659D01*
X158557695Y-110963659D02*
X158748171Y-110916040D01*
X158748171Y-110916040D02*
X158986266Y-110916040D01*
X158986266Y-110916040D02*
X159176742Y-110963659D01*
X159176742Y-110963659D02*
X159271980Y-111011278D01*
X159271980Y-111011278D02*
X159319600Y-111058897D01*
X159319600Y-111058897D02*
X159367219Y-111154135D01*
X159367219Y-111154135D02*
X159367219Y-111249373D01*
X159367219Y-111249373D02*
X159319600Y-111344611D01*
X159319600Y-111344611D02*
X159271980Y-111392230D01*
X159271980Y-111392230D02*
X159176742Y-111439849D01*
X159176742Y-111439849D02*
X158986266Y-111487468D01*
X158986266Y-111487468D02*
X158748171Y-111487468D01*
X158748171Y-111487468D02*
X158557695Y-111439849D01*
X158557695Y-111439849D02*
X158462457Y-111392230D01*
X158462457Y-111392230D02*
X158414838Y-111344611D01*
X158414838Y-111344611D02*
X158367219Y-111249373D01*
X158367219Y-110582706D02*
X158367219Y-109963659D01*
X158367219Y-109963659D02*
X158748171Y-110296992D01*
X158748171Y-110296992D02*
X158748171Y-110154135D01*
X158748171Y-110154135D02*
X158795790Y-110058897D01*
X158795790Y-110058897D02*
X158843409Y-110011278D01*
X158843409Y-110011278D02*
X158938647Y-109963659D01*
X158938647Y-109963659D02*
X159176742Y-109963659D01*
X159176742Y-109963659D02*
X159271980Y-110011278D01*
X159271980Y-110011278D02*
X159319600Y-110058897D01*
X159319600Y-110058897D02*
X159367219Y-110154135D01*
X159367219Y-110154135D02*
X159367219Y-110439849D01*
X159367219Y-110439849D02*
X159319600Y-110535087D01*
X159319600Y-110535087D02*
X159271980Y-110582706D01*
X158319600Y-108820802D02*
X159605314Y-109677944D01*
X158367219Y-108296992D02*
X158367219Y-108201754D01*
X158367219Y-108201754D02*
X158414838Y-108106516D01*
X158414838Y-108106516D02*
X158462457Y-108058897D01*
X158462457Y-108058897D02*
X158557695Y-108011278D01*
X158557695Y-108011278D02*
X158748171Y-107963659D01*
X158748171Y-107963659D02*
X158986266Y-107963659D01*
X158986266Y-107963659D02*
X159176742Y-108011278D01*
X159176742Y-108011278D02*
X159271980Y-108058897D01*
X159271980Y-108058897D02*
X159319600Y-108106516D01*
X159319600Y-108106516D02*
X159367219Y-108201754D01*
X159367219Y-108201754D02*
X159367219Y-108296992D01*
X159367219Y-108296992D02*
X159319600Y-108392230D01*
X159319600Y-108392230D02*
X159271980Y-108439849D01*
X159271980Y-108439849D02*
X159176742Y-108487468D01*
X159176742Y-108487468D02*
X158986266Y-108535087D01*
X158986266Y-108535087D02*
X158748171Y-108535087D01*
X158748171Y-108535087D02*
X158557695Y-108487468D01*
X158557695Y-108487468D02*
X158462457Y-108439849D01*
X158462457Y-108439849D02*
X158414838Y-108392230D01*
X158414838Y-108392230D02*
X158367219Y-108296992D01*
X158367219Y-107630325D02*
X158367219Y-107011278D01*
X158367219Y-107011278D02*
X158748171Y-107344611D01*
X158748171Y-107344611D02*
X158748171Y-107201754D01*
X158748171Y-107201754D02*
X158795790Y-107106516D01*
X158795790Y-107106516D02*
X158843409Y-107058897D01*
X158843409Y-107058897D02*
X158938647Y-107011278D01*
X158938647Y-107011278D02*
X159176742Y-107011278D01*
X159176742Y-107011278D02*
X159271980Y-107058897D01*
X159271980Y-107058897D02*
X159319600Y-107106516D01*
X159319600Y-107106516D02*
X159367219Y-107201754D01*
X159367219Y-107201754D02*
X159367219Y-107487468D01*
X159367219Y-107487468D02*
X159319600Y-107582706D01*
X159319600Y-107582706D02*
X159271980Y-107630325D01*
D10*
X103089160Y-106144295D02*
X103089160Y-105610961D01*
X103089160Y-105344295D02*
X103051064Y-105382390D01*
X103051064Y-105382390D02*
X103089160Y-105420485D01*
X103089160Y-105420485D02*
X103127255Y-105382390D01*
X103127255Y-105382390D02*
X103089160Y-105344295D01*
X103089160Y-105344295D02*
X103089160Y-105420485D01*
X103851064Y-106144295D02*
X103470112Y-106144295D01*
X103470112Y-106144295D02*
X103470112Y-105344295D01*
X104460588Y-106144295D02*
X104460588Y-105725247D01*
X104460588Y-105725247D02*
X104422493Y-105649057D01*
X104422493Y-105649057D02*
X104346302Y-105610961D01*
X104346302Y-105610961D02*
X104193921Y-105610961D01*
X104193921Y-105610961D02*
X104117731Y-105649057D01*
X104460588Y-106106200D02*
X104384397Y-106144295D01*
X104384397Y-106144295D02*
X104193921Y-106144295D01*
X104193921Y-106144295D02*
X104117731Y-106106200D01*
X104117731Y-106106200D02*
X104079635Y-106030009D01*
X104079635Y-106030009D02*
X104079635Y-105953819D01*
X104079635Y-105953819D02*
X104117731Y-105877628D01*
X104117731Y-105877628D02*
X104193921Y-105839533D01*
X104193921Y-105839533D02*
X104384397Y-105839533D01*
X104384397Y-105839533D02*
X104460588Y-105801438D01*
X145451064Y-133670485D02*
X145489160Y-133632390D01*
X145489160Y-133632390D02*
X145565350Y-133594295D01*
X145565350Y-133594295D02*
X145755826Y-133594295D01*
X145755826Y-133594295D02*
X145832017Y-133632390D01*
X145832017Y-133632390D02*
X145870112Y-133670485D01*
X145870112Y-133670485D02*
X145908207Y-133746676D01*
X145908207Y-133746676D02*
X145908207Y-133822866D01*
X145908207Y-133822866D02*
X145870112Y-133937152D01*
X145870112Y-133937152D02*
X145412969Y-134394295D01*
X145412969Y-134394295D02*
X145908207Y-134394295D01*
X146593922Y-133860961D02*
X146593922Y-134394295D01*
X146403446Y-133556200D02*
X146212969Y-134127628D01*
X146212969Y-134127628D02*
X146708208Y-134127628D01*
X146898684Y-133594295D02*
X147165351Y-134394295D01*
X147165351Y-134394295D02*
X147432017Y-133594295D01*
X147508208Y-134470485D02*
X148117731Y-134470485D01*
X148270112Y-134356200D02*
X148346303Y-134394295D01*
X148346303Y-134394295D02*
X148498684Y-134394295D01*
X148498684Y-134394295D02*
X148574874Y-134356200D01*
X148574874Y-134356200D02*
X148612970Y-134280009D01*
X148612970Y-134280009D02*
X148612970Y-134241914D01*
X148612970Y-134241914D02*
X148574874Y-134165723D01*
X148574874Y-134165723D02*
X148498684Y-134127628D01*
X148498684Y-134127628D02*
X148384398Y-134127628D01*
X148384398Y-134127628D02*
X148308208Y-134089533D01*
X148308208Y-134089533D02*
X148270112Y-134013342D01*
X148270112Y-134013342D02*
X148270112Y-133975247D01*
X148270112Y-133975247D02*
X148308208Y-133899057D01*
X148308208Y-133899057D02*
X148384398Y-133860961D01*
X148384398Y-133860961D02*
X148498684Y-133860961D01*
X148498684Y-133860961D02*
X148574874Y-133899057D01*
X149260589Y-134356200D02*
X149184398Y-134394295D01*
X149184398Y-134394295D02*
X149032017Y-134394295D01*
X149032017Y-134394295D02*
X148955827Y-134356200D01*
X148955827Y-134356200D02*
X148917731Y-134280009D01*
X148917731Y-134280009D02*
X148917731Y-133975247D01*
X148917731Y-133975247D02*
X148955827Y-133899057D01*
X148955827Y-133899057D02*
X149032017Y-133860961D01*
X149032017Y-133860961D02*
X149184398Y-133860961D01*
X149184398Y-133860961D02*
X149260589Y-133899057D01*
X149260589Y-133899057D02*
X149298684Y-133975247D01*
X149298684Y-133975247D02*
X149298684Y-134051438D01*
X149298684Y-134051438D02*
X148917731Y-134127628D01*
X149641541Y-133860961D02*
X149641541Y-134394295D01*
X149641541Y-133937152D02*
X149679636Y-133899057D01*
X149679636Y-133899057D02*
X149755826Y-133860961D01*
X149755826Y-133860961D02*
X149870112Y-133860961D01*
X149870112Y-133860961D02*
X149946303Y-133899057D01*
X149946303Y-133899057D02*
X149984398Y-133975247D01*
X149984398Y-133975247D02*
X149984398Y-134394295D01*
X150327255Y-134356200D02*
X150403446Y-134394295D01*
X150403446Y-134394295D02*
X150555827Y-134394295D01*
X150555827Y-134394295D02*
X150632017Y-134356200D01*
X150632017Y-134356200D02*
X150670113Y-134280009D01*
X150670113Y-134280009D02*
X150670113Y-134241914D01*
X150670113Y-134241914D02*
X150632017Y-134165723D01*
X150632017Y-134165723D02*
X150555827Y-134127628D01*
X150555827Y-134127628D02*
X150441541Y-134127628D01*
X150441541Y-134127628D02*
X150365351Y-134089533D01*
X150365351Y-134089533D02*
X150327255Y-134013342D01*
X150327255Y-134013342D02*
X150327255Y-133975247D01*
X150327255Y-133975247D02*
X150365351Y-133899057D01*
X150365351Y-133899057D02*
X150441541Y-133860961D01*
X150441541Y-133860961D02*
X150555827Y-133860961D01*
X150555827Y-133860961D02*
X150632017Y-133899057D01*
X151317732Y-134356200D02*
X151241541Y-134394295D01*
X151241541Y-134394295D02*
X151089160Y-134394295D01*
X151089160Y-134394295D02*
X151012970Y-134356200D01*
X151012970Y-134356200D02*
X150974874Y-134280009D01*
X150974874Y-134280009D02*
X150974874Y-133975247D01*
X150974874Y-133975247D02*
X151012970Y-133899057D01*
X151012970Y-133899057D02*
X151089160Y-133860961D01*
X151089160Y-133860961D02*
X151241541Y-133860961D01*
X151241541Y-133860961D02*
X151317732Y-133899057D01*
X151317732Y-133899057D02*
X151355827Y-133975247D01*
X151355827Y-133975247D02*
X151355827Y-134051438D01*
X151355827Y-134051438D02*
X150974874Y-134127628D01*
X144189160Y-127994295D02*
X144189160Y-127460961D01*
X144189160Y-127194295D02*
X144151064Y-127232390D01*
X144151064Y-127232390D02*
X144189160Y-127270485D01*
X144189160Y-127270485D02*
X144227255Y-127232390D01*
X144227255Y-127232390D02*
X144189160Y-127194295D01*
X144189160Y-127194295D02*
X144189160Y-127270485D01*
X144570112Y-127994295D02*
X144570112Y-127194295D01*
X144951064Y-127460961D02*
X144951064Y-127994295D01*
X144951064Y-127537152D02*
X144989159Y-127499057D01*
X144989159Y-127499057D02*
X145065349Y-127460961D01*
X145065349Y-127460961D02*
X145179635Y-127460961D01*
X145179635Y-127460961D02*
X145255826Y-127499057D01*
X145255826Y-127499057D02*
X145293921Y-127575247D01*
X145293921Y-127575247D02*
X145293921Y-127994295D01*
X118055826Y-106475247D02*
X117789160Y-106475247D01*
X117789160Y-106894295D02*
X117789160Y-106094295D01*
X117789160Y-106094295D02*
X118170112Y-106094295D01*
X118817731Y-106894295D02*
X118817731Y-106475247D01*
X118817731Y-106475247D02*
X118779636Y-106399057D01*
X118779636Y-106399057D02*
X118703445Y-106360961D01*
X118703445Y-106360961D02*
X118551064Y-106360961D01*
X118551064Y-106360961D02*
X118474874Y-106399057D01*
X118817731Y-106856200D02*
X118741540Y-106894295D01*
X118741540Y-106894295D02*
X118551064Y-106894295D01*
X118551064Y-106894295D02*
X118474874Y-106856200D01*
X118474874Y-106856200D02*
X118436778Y-106780009D01*
X118436778Y-106780009D02*
X118436778Y-106703819D01*
X118436778Y-106703819D02*
X118474874Y-106627628D01*
X118474874Y-106627628D02*
X118551064Y-106589533D01*
X118551064Y-106589533D02*
X118741540Y-106589533D01*
X118741540Y-106589533D02*
X118817731Y-106551438D01*
X119198684Y-106894295D02*
X119198684Y-106360961D01*
X119198684Y-106094295D02*
X119160588Y-106132390D01*
X119160588Y-106132390D02*
X119198684Y-106170485D01*
X119198684Y-106170485D02*
X119236779Y-106132390D01*
X119236779Y-106132390D02*
X119198684Y-106094295D01*
X119198684Y-106094295D02*
X119198684Y-106170485D01*
X119693921Y-106894295D02*
X119617731Y-106856200D01*
X119617731Y-106856200D02*
X119579636Y-106780009D01*
X119579636Y-106780009D02*
X119579636Y-106094295D01*
X116060961Y-103367982D02*
X116594295Y-103367982D01*
X116060961Y-103710839D02*
X116480009Y-103710839D01*
X116480009Y-103710839D02*
X116556200Y-103672744D01*
X116556200Y-103672744D02*
X116594295Y-103596554D01*
X116594295Y-103596554D02*
X116594295Y-103482268D01*
X116594295Y-103482268D02*
X116556200Y-103406077D01*
X116556200Y-103406077D02*
X116518104Y-103367982D01*
X116594295Y-102606077D02*
X116594295Y-102987029D01*
X116594295Y-102987029D02*
X115794295Y-102987029D01*
X116594295Y-101996553D02*
X116175247Y-101996553D01*
X116175247Y-101996553D02*
X116099057Y-102034648D01*
X116099057Y-102034648D02*
X116060961Y-102110839D01*
X116060961Y-102110839D02*
X116060961Y-102263220D01*
X116060961Y-102263220D02*
X116099057Y-102339410D01*
X116556200Y-101996553D02*
X116594295Y-102072744D01*
X116594295Y-102072744D02*
X116594295Y-102263220D01*
X116594295Y-102263220D02*
X116556200Y-102339410D01*
X116556200Y-102339410D02*
X116480009Y-102377506D01*
X116480009Y-102377506D02*
X116403819Y-102377506D01*
X116403819Y-102377506D02*
X116327628Y-102339410D01*
X116327628Y-102339410D02*
X116289533Y-102263220D01*
X116289533Y-102263220D02*
X116289533Y-102072744D01*
X116289533Y-102072744D02*
X116251438Y-101996553D01*
X110960961Y-127067982D02*
X111494295Y-127067982D01*
X110960961Y-127410839D02*
X111380009Y-127410839D01*
X111380009Y-127410839D02*
X111456200Y-127372744D01*
X111456200Y-127372744D02*
X111494295Y-127296554D01*
X111494295Y-127296554D02*
X111494295Y-127182268D01*
X111494295Y-127182268D02*
X111456200Y-127106077D01*
X111456200Y-127106077D02*
X111418104Y-127067982D01*
X110732390Y-126267982D02*
X110694295Y-126344172D01*
X110694295Y-126344172D02*
X110694295Y-126458458D01*
X110694295Y-126458458D02*
X110732390Y-126572744D01*
X110732390Y-126572744D02*
X110808580Y-126648934D01*
X110808580Y-126648934D02*
X110884771Y-126687029D01*
X110884771Y-126687029D02*
X111037152Y-126725125D01*
X111037152Y-126725125D02*
X111151438Y-126725125D01*
X111151438Y-126725125D02*
X111303819Y-126687029D01*
X111303819Y-126687029D02*
X111380009Y-126648934D01*
X111380009Y-126648934D02*
X111456200Y-126572744D01*
X111456200Y-126572744D02*
X111494295Y-126458458D01*
X111494295Y-126458458D02*
X111494295Y-126382267D01*
X111494295Y-126382267D02*
X111456200Y-126267982D01*
X111456200Y-126267982D02*
X111418104Y-126229886D01*
X111418104Y-126229886D02*
X111151438Y-126229886D01*
X111151438Y-126229886D02*
X111151438Y-126382267D01*
X96805704Y-95289160D02*
X96158085Y-95289160D01*
X96158085Y-95289160D02*
X96081895Y-95327255D01*
X96081895Y-95327255D02*
X96043800Y-95365350D01*
X96043800Y-95365350D02*
X96005704Y-95441541D01*
X96005704Y-95441541D02*
X96005704Y-95593922D01*
X96005704Y-95593922D02*
X96043800Y-95670112D01*
X96043800Y-95670112D02*
X96081895Y-95708207D01*
X96081895Y-95708207D02*
X96158085Y-95746303D01*
X96158085Y-95746303D02*
X96805704Y-95746303D01*
X96805704Y-96012969D02*
X96005704Y-96279636D01*
X96005704Y-96279636D02*
X96805704Y-96546302D01*
X96005704Y-97803445D02*
X96005704Y-97422493D01*
X96005704Y-97422493D02*
X96805704Y-97422493D01*
X96424752Y-98070112D02*
X96424752Y-98336778D01*
X96005704Y-98451064D02*
X96005704Y-98070112D01*
X96005704Y-98070112D02*
X96805704Y-98070112D01*
X96805704Y-98070112D02*
X96805704Y-98451064D01*
X96005704Y-98793922D02*
X96805704Y-98793922D01*
X96805704Y-98793922D02*
X96805704Y-98984398D01*
X96805704Y-98984398D02*
X96767609Y-99098684D01*
X96767609Y-99098684D02*
X96691419Y-99174874D01*
X96691419Y-99174874D02*
X96615228Y-99212969D01*
X96615228Y-99212969D02*
X96462847Y-99251065D01*
X96462847Y-99251065D02*
X96348561Y-99251065D01*
X96348561Y-99251065D02*
X96196180Y-99212969D01*
X96196180Y-99212969D02*
X96119990Y-99174874D01*
X96119990Y-99174874D02*
X96043800Y-99098684D01*
X96043800Y-99098684D02*
X96005704Y-98984398D01*
X96005704Y-98984398D02*
X96005704Y-98793922D01*
X140451064Y-103470485D02*
X140489160Y-103432390D01*
X140489160Y-103432390D02*
X140565350Y-103394295D01*
X140565350Y-103394295D02*
X140755826Y-103394295D01*
X140755826Y-103394295D02*
X140832017Y-103432390D01*
X140832017Y-103432390D02*
X140870112Y-103470485D01*
X140870112Y-103470485D02*
X140908207Y-103546676D01*
X140908207Y-103546676D02*
X140908207Y-103622866D01*
X140908207Y-103622866D02*
X140870112Y-103737152D01*
X140870112Y-103737152D02*
X140412969Y-104194295D01*
X140412969Y-104194295D02*
X140908207Y-104194295D01*
X141593922Y-103660961D02*
X141593922Y-104194295D01*
X141403446Y-103356200D02*
X141212969Y-103927628D01*
X141212969Y-103927628D02*
X141708208Y-103927628D01*
X141898684Y-103394295D02*
X142165351Y-104194295D01*
X142165351Y-104194295D02*
X142432017Y-103394295D01*
X119174874Y-126594295D02*
X119632017Y-126594295D01*
X119403445Y-127394295D02*
X119403445Y-126594295D01*
X119898684Y-127394295D02*
X119898684Y-126860961D01*
X119898684Y-127013342D02*
X119936779Y-126937152D01*
X119936779Y-126937152D02*
X119974874Y-126899057D01*
X119974874Y-126899057D02*
X120051065Y-126860961D01*
X120051065Y-126860961D02*
X120127255Y-126860961D01*
X120393922Y-127394295D02*
X120393922Y-126860961D01*
X120393922Y-126594295D02*
X120355826Y-126632390D01*
X120355826Y-126632390D02*
X120393922Y-126670485D01*
X120393922Y-126670485D02*
X120432017Y-126632390D01*
X120432017Y-126632390D02*
X120393922Y-126594295D01*
X120393922Y-126594295D02*
X120393922Y-126670485D01*
X120774874Y-127394295D02*
X120774874Y-126860961D01*
X120774874Y-126937152D02*
X120812969Y-126899057D01*
X120812969Y-126899057D02*
X120889159Y-126860961D01*
X120889159Y-126860961D02*
X121003445Y-126860961D01*
X121003445Y-126860961D02*
X121079636Y-126899057D01*
X121079636Y-126899057D02*
X121117731Y-126975247D01*
X121117731Y-126975247D02*
X121117731Y-127394295D01*
X121117731Y-126975247D02*
X121155826Y-126899057D01*
X121155826Y-126899057D02*
X121232017Y-126860961D01*
X121232017Y-126860961D02*
X121346302Y-126860961D01*
X121346302Y-126860961D02*
X121422493Y-126899057D01*
X121422493Y-126899057D02*
X121460588Y-126975247D01*
X121460588Y-126975247D02*
X121460588Y-127394295D01*
X140751064Y-124170485D02*
X140789160Y-124132390D01*
X140789160Y-124132390D02*
X140865350Y-124094295D01*
X140865350Y-124094295D02*
X141055826Y-124094295D01*
X141055826Y-124094295D02*
X141132017Y-124132390D01*
X141132017Y-124132390D02*
X141170112Y-124170485D01*
X141170112Y-124170485D02*
X141208207Y-124246676D01*
X141208207Y-124246676D02*
X141208207Y-124322866D01*
X141208207Y-124322866D02*
X141170112Y-124437152D01*
X141170112Y-124437152D02*
X140712969Y-124894295D01*
X140712969Y-124894295D02*
X141208207Y-124894295D01*
X141893922Y-124360961D02*
X141893922Y-124894295D01*
X141703446Y-124056200D02*
X141512969Y-124627628D01*
X141512969Y-124627628D02*
X142008208Y-124627628D01*
X142198684Y-124094295D02*
X142465351Y-124894295D01*
X142465351Y-124894295D02*
X142732017Y-124094295D01*
X142808208Y-124970485D02*
X143417731Y-124970485D01*
X143608208Y-124360961D02*
X143608208Y-125160961D01*
X143608208Y-124399057D02*
X143684398Y-124360961D01*
X143684398Y-124360961D02*
X143836779Y-124360961D01*
X143836779Y-124360961D02*
X143912970Y-124399057D01*
X143912970Y-124399057D02*
X143951065Y-124437152D01*
X143951065Y-124437152D02*
X143989160Y-124513342D01*
X143989160Y-124513342D02*
X143989160Y-124741914D01*
X143989160Y-124741914D02*
X143951065Y-124818104D01*
X143951065Y-124818104D02*
X143912970Y-124856200D01*
X143912970Y-124856200D02*
X143836779Y-124894295D01*
X143836779Y-124894295D02*
X143684398Y-124894295D01*
X143684398Y-124894295D02*
X143608208Y-124856200D01*
X144446303Y-124894295D02*
X144370113Y-124856200D01*
X144370113Y-124856200D02*
X144332018Y-124818104D01*
X144332018Y-124818104D02*
X144293922Y-124741914D01*
X144293922Y-124741914D02*
X144293922Y-124513342D01*
X144293922Y-124513342D02*
X144332018Y-124437152D01*
X144332018Y-124437152D02*
X144370113Y-124399057D01*
X144370113Y-124399057D02*
X144446303Y-124360961D01*
X144446303Y-124360961D02*
X144560589Y-124360961D01*
X144560589Y-124360961D02*
X144636780Y-124399057D01*
X144636780Y-124399057D02*
X144674875Y-124437152D01*
X144674875Y-124437152D02*
X144712970Y-124513342D01*
X144712970Y-124513342D02*
X144712970Y-124741914D01*
X144712970Y-124741914D02*
X144674875Y-124818104D01*
X144674875Y-124818104D02*
X144636780Y-124856200D01*
X144636780Y-124856200D02*
X144560589Y-124894295D01*
X144560589Y-124894295D02*
X144446303Y-124894295D01*
X144979637Y-124360961D02*
X145132018Y-124894295D01*
X145132018Y-124894295D02*
X145284399Y-124513342D01*
X145284399Y-124513342D02*
X145436780Y-124894295D01*
X145436780Y-124894295D02*
X145589161Y-124360961D01*
X146198685Y-124856200D02*
X146122494Y-124894295D01*
X146122494Y-124894295D02*
X145970113Y-124894295D01*
X145970113Y-124894295D02*
X145893923Y-124856200D01*
X145893923Y-124856200D02*
X145855827Y-124780009D01*
X145855827Y-124780009D02*
X145855827Y-124475247D01*
X145855827Y-124475247D02*
X145893923Y-124399057D01*
X145893923Y-124399057D02*
X145970113Y-124360961D01*
X145970113Y-124360961D02*
X146122494Y-124360961D01*
X146122494Y-124360961D02*
X146198685Y-124399057D01*
X146198685Y-124399057D02*
X146236780Y-124475247D01*
X146236780Y-124475247D02*
X146236780Y-124551438D01*
X146236780Y-124551438D02*
X145855827Y-124627628D01*
X146579637Y-124894295D02*
X146579637Y-124360961D01*
X146579637Y-124513342D02*
X146617732Y-124437152D01*
X146617732Y-124437152D02*
X146655827Y-124399057D01*
X146655827Y-124399057D02*
X146732018Y-124360961D01*
X146732018Y-124360961D02*
X146808208Y-124360961D01*
X128289160Y-118894295D02*
X128289160Y-118360961D01*
X128289160Y-118094295D02*
X128251064Y-118132390D01*
X128251064Y-118132390D02*
X128289160Y-118170485D01*
X128289160Y-118170485D02*
X128327255Y-118132390D01*
X128327255Y-118132390D02*
X128289160Y-118094295D01*
X128289160Y-118094295D02*
X128289160Y-118170485D01*
X128670112Y-118894295D02*
X128670112Y-118094295D01*
X128670112Y-118094295D02*
X128936778Y-118665723D01*
X128936778Y-118665723D02*
X129203445Y-118094295D01*
X129203445Y-118094295D02*
X129203445Y-118894295D01*
X129736779Y-118094295D02*
X129889160Y-118094295D01*
X129889160Y-118094295D02*
X129965350Y-118132390D01*
X129965350Y-118132390D02*
X130041541Y-118208580D01*
X130041541Y-118208580D02*
X130079636Y-118360961D01*
X130079636Y-118360961D02*
X130079636Y-118627628D01*
X130079636Y-118627628D02*
X130041541Y-118780009D01*
X130041541Y-118780009D02*
X129965350Y-118856200D01*
X129965350Y-118856200D02*
X129889160Y-118894295D01*
X129889160Y-118894295D02*
X129736779Y-118894295D01*
X129736779Y-118894295D02*
X129660588Y-118856200D01*
X129660588Y-118856200D02*
X129584398Y-118780009D01*
X129584398Y-118780009D02*
X129546302Y-118627628D01*
X129546302Y-118627628D02*
X129546302Y-118360961D01*
X129546302Y-118360961D02*
X129584398Y-118208580D01*
X129584398Y-118208580D02*
X129660588Y-118132390D01*
X129660588Y-118132390D02*
X129736779Y-118094295D01*
X130384397Y-118856200D02*
X130498683Y-118894295D01*
X130498683Y-118894295D02*
X130689159Y-118894295D01*
X130689159Y-118894295D02*
X130765350Y-118856200D01*
X130765350Y-118856200D02*
X130803445Y-118818104D01*
X130803445Y-118818104D02*
X130841540Y-118741914D01*
X130841540Y-118741914D02*
X130841540Y-118665723D01*
X130841540Y-118665723D02*
X130803445Y-118589533D01*
X130803445Y-118589533D02*
X130765350Y-118551438D01*
X130765350Y-118551438D02*
X130689159Y-118513342D01*
X130689159Y-118513342D02*
X130536778Y-118475247D01*
X130536778Y-118475247D02*
X130460588Y-118437152D01*
X130460588Y-118437152D02*
X130422493Y-118399057D01*
X130422493Y-118399057D02*
X130384397Y-118322866D01*
X130384397Y-118322866D02*
X130384397Y-118246676D01*
X130384397Y-118246676D02*
X130422493Y-118170485D01*
X130422493Y-118170485D02*
X130460588Y-118132390D01*
X130460588Y-118132390D02*
X130536778Y-118094295D01*
X130536778Y-118094295D02*
X130727255Y-118094295D01*
X130727255Y-118094295D02*
X130841540Y-118132390D01*
D12*
X51480074Y-121672419D02*
X51003884Y-121672419D01*
X51003884Y-121672419D02*
X51003884Y-120672419D01*
X52241979Y-121672419D02*
X52241979Y-121148609D01*
X52241979Y-121148609D02*
X52194360Y-121053371D01*
X52194360Y-121053371D02*
X52099122Y-121005752D01*
X52099122Y-121005752D02*
X51908646Y-121005752D01*
X51908646Y-121005752D02*
X51813408Y-121053371D01*
X52241979Y-121624800D02*
X52146741Y-121672419D01*
X52146741Y-121672419D02*
X51908646Y-121672419D01*
X51908646Y-121672419D02*
X51813408Y-121624800D01*
X51813408Y-121624800D02*
X51765789Y-121529561D01*
X51765789Y-121529561D02*
X51765789Y-121434323D01*
X51765789Y-121434323D02*
X51813408Y-121339085D01*
X51813408Y-121339085D02*
X51908646Y-121291466D01*
X51908646Y-121291466D02*
X52146741Y-121291466D01*
X52146741Y-121291466D02*
X52241979Y-121243847D01*
X52718170Y-121672419D02*
X52718170Y-121005752D01*
X52718170Y-121100990D02*
X52765789Y-121053371D01*
X52765789Y-121053371D02*
X52861027Y-121005752D01*
X52861027Y-121005752D02*
X53003884Y-121005752D01*
X53003884Y-121005752D02*
X53099122Y-121053371D01*
X53099122Y-121053371D02*
X53146741Y-121148609D01*
X53146741Y-121148609D02*
X53146741Y-121672419D01*
X53146741Y-121148609D02*
X53194360Y-121053371D01*
X53194360Y-121053371D02*
X53289598Y-121005752D01*
X53289598Y-121005752D02*
X53432455Y-121005752D01*
X53432455Y-121005752D02*
X53527694Y-121053371D01*
X53527694Y-121053371D02*
X53575313Y-121148609D01*
X53575313Y-121148609D02*
X53575313Y-121672419D01*
X54051503Y-121005752D02*
X54051503Y-122005752D01*
X54051503Y-121053371D02*
X54146741Y-121005752D01*
X54146741Y-121005752D02*
X54337217Y-121005752D01*
X54337217Y-121005752D02*
X54432455Y-121053371D01*
X54432455Y-121053371D02*
X54480074Y-121100990D01*
X54480074Y-121100990D02*
X54527693Y-121196228D01*
X54527693Y-121196228D02*
X54527693Y-121481942D01*
X54527693Y-121481942D02*
X54480074Y-121577180D01*
X54480074Y-121577180D02*
X54432455Y-121624800D01*
X54432455Y-121624800D02*
X54337217Y-121672419D01*
X54337217Y-121672419D02*
X54146741Y-121672419D01*
X54146741Y-121672419D02*
X54051503Y-121624800D01*
X56241979Y-120720038D02*
X56146741Y-120672419D01*
X56146741Y-120672419D02*
X56003884Y-120672419D01*
X56003884Y-120672419D02*
X55861027Y-120720038D01*
X55861027Y-120720038D02*
X55765789Y-120815276D01*
X55765789Y-120815276D02*
X55718170Y-120910514D01*
X55718170Y-120910514D02*
X55670551Y-121100990D01*
X55670551Y-121100990D02*
X55670551Y-121243847D01*
X55670551Y-121243847D02*
X55718170Y-121434323D01*
X55718170Y-121434323D02*
X55765789Y-121529561D01*
X55765789Y-121529561D02*
X55861027Y-121624800D01*
X55861027Y-121624800D02*
X56003884Y-121672419D01*
X56003884Y-121672419D02*
X56099122Y-121672419D01*
X56099122Y-121672419D02*
X56241979Y-121624800D01*
X56241979Y-121624800D02*
X56289598Y-121577180D01*
X56289598Y-121577180D02*
X56289598Y-121243847D01*
X56289598Y-121243847D02*
X56099122Y-121243847D01*
X56718170Y-121672419D02*
X56718170Y-120672419D01*
X56718170Y-120672419D02*
X57289598Y-121672419D01*
X57289598Y-121672419D02*
X57289598Y-120672419D01*
X57765789Y-121672419D02*
X57765789Y-120672419D01*
X57765789Y-120672419D02*
X58003884Y-120672419D01*
X58003884Y-120672419D02*
X58146741Y-120720038D01*
X58146741Y-120720038D02*
X58241979Y-120815276D01*
X58241979Y-120815276D02*
X58289598Y-120910514D01*
X58289598Y-120910514D02*
X58337217Y-121100990D01*
X58337217Y-121100990D02*
X58337217Y-121243847D01*
X58337217Y-121243847D02*
X58289598Y-121434323D01*
X58289598Y-121434323D02*
X58241979Y-121529561D01*
X58241979Y-121529561D02*
X58146741Y-121624800D01*
X58146741Y-121624800D02*
X58003884Y-121672419D01*
X58003884Y-121672419D02*
X57765789Y-121672419D01*
D10*
X123894295Y-125487030D02*
X123894295Y-124991792D01*
X123894295Y-124991792D02*
X124199057Y-125258458D01*
X124199057Y-125258458D02*
X124199057Y-125144173D01*
X124199057Y-125144173D02*
X124237152Y-125067982D01*
X124237152Y-125067982D02*
X124275247Y-125029887D01*
X124275247Y-125029887D02*
X124351438Y-124991792D01*
X124351438Y-124991792D02*
X124541914Y-124991792D01*
X124541914Y-124991792D02*
X124618104Y-125029887D01*
X124618104Y-125029887D02*
X124656200Y-125067982D01*
X124656200Y-125067982D02*
X124694295Y-125144173D01*
X124694295Y-125144173D02*
X124694295Y-125372744D01*
X124694295Y-125372744D02*
X124656200Y-125448935D01*
X124656200Y-125448935D02*
X124618104Y-125487030D01*
X123894295Y-124763220D02*
X124694295Y-124496553D01*
X124694295Y-124496553D02*
X123894295Y-124229887D01*
X123894295Y-124039411D02*
X123894295Y-123544173D01*
X123894295Y-123544173D02*
X124199057Y-123810839D01*
X124199057Y-123810839D02*
X124199057Y-123696554D01*
X124199057Y-123696554D02*
X124237152Y-123620363D01*
X124237152Y-123620363D02*
X124275247Y-123582268D01*
X124275247Y-123582268D02*
X124351438Y-123544173D01*
X124351438Y-123544173D02*
X124541914Y-123544173D01*
X124541914Y-123544173D02*
X124618104Y-123582268D01*
X124618104Y-123582268D02*
X124656200Y-123620363D01*
X124656200Y-123620363D02*
X124694295Y-123696554D01*
X124694295Y-123696554D02*
X124694295Y-123925125D01*
X124694295Y-123925125D02*
X124656200Y-124001316D01*
X124656200Y-124001316D02*
X124618104Y-124039411D01*
X124908207Y-134694295D02*
X124451064Y-134694295D01*
X124679636Y-134694295D02*
X124679636Y-133894295D01*
X124679636Y-133894295D02*
X124603445Y-134008580D01*
X124603445Y-134008580D02*
X124527255Y-134084771D01*
X124527255Y-134084771D02*
X124451064Y-134122866D01*
X125365350Y-134237152D02*
X125289160Y-134199057D01*
X125289160Y-134199057D02*
X125251065Y-134160961D01*
X125251065Y-134160961D02*
X125212969Y-134084771D01*
X125212969Y-134084771D02*
X125212969Y-134046676D01*
X125212969Y-134046676D02*
X125251065Y-133970485D01*
X125251065Y-133970485D02*
X125289160Y-133932390D01*
X125289160Y-133932390D02*
X125365350Y-133894295D01*
X125365350Y-133894295D02*
X125517731Y-133894295D01*
X125517731Y-133894295D02*
X125593922Y-133932390D01*
X125593922Y-133932390D02*
X125632017Y-133970485D01*
X125632017Y-133970485D02*
X125670112Y-134046676D01*
X125670112Y-134046676D02*
X125670112Y-134084771D01*
X125670112Y-134084771D02*
X125632017Y-134160961D01*
X125632017Y-134160961D02*
X125593922Y-134199057D01*
X125593922Y-134199057D02*
X125517731Y-134237152D01*
X125517731Y-134237152D02*
X125365350Y-134237152D01*
X125365350Y-134237152D02*
X125289160Y-134275247D01*
X125289160Y-134275247D02*
X125251065Y-134313342D01*
X125251065Y-134313342D02*
X125212969Y-134389533D01*
X125212969Y-134389533D02*
X125212969Y-134541914D01*
X125212969Y-134541914D02*
X125251065Y-134618104D01*
X125251065Y-134618104D02*
X125289160Y-134656200D01*
X125289160Y-134656200D02*
X125365350Y-134694295D01*
X125365350Y-134694295D02*
X125517731Y-134694295D01*
X125517731Y-134694295D02*
X125593922Y-134656200D01*
X125593922Y-134656200D02*
X125632017Y-134618104D01*
X125632017Y-134618104D02*
X125670112Y-134541914D01*
X125670112Y-134541914D02*
X125670112Y-134389533D01*
X125670112Y-134389533D02*
X125632017Y-134313342D01*
X125632017Y-134313342D02*
X125593922Y-134275247D01*
X125593922Y-134275247D02*
X125517731Y-134237152D01*
X125898684Y-133894295D02*
X126165351Y-134694295D01*
X126165351Y-134694295D02*
X126432017Y-133894295D01*
D12*
X52303884Y-99622419D02*
X52303884Y-98622419D01*
X52303884Y-99098609D02*
X52875312Y-99098609D01*
X52875312Y-99622419D02*
X52875312Y-98622419D01*
X53208646Y-98622419D02*
X53541979Y-99622419D01*
X53541979Y-99622419D02*
X53875312Y-98622419D01*
X55113408Y-99622419D02*
X55018170Y-99574800D01*
X55018170Y-99574800D02*
X54970551Y-99527180D01*
X54970551Y-99527180D02*
X54922932Y-99431942D01*
X54922932Y-99431942D02*
X54922932Y-99146228D01*
X54922932Y-99146228D02*
X54970551Y-99050990D01*
X54970551Y-99050990D02*
X55018170Y-99003371D01*
X55018170Y-99003371D02*
X55113408Y-98955752D01*
X55113408Y-98955752D02*
X55256265Y-98955752D01*
X55256265Y-98955752D02*
X55351503Y-99003371D01*
X55351503Y-99003371D02*
X55399122Y-99050990D01*
X55399122Y-99050990D02*
X55446741Y-99146228D01*
X55446741Y-99146228D02*
X55446741Y-99431942D01*
X55446741Y-99431942D02*
X55399122Y-99527180D01*
X55399122Y-99527180D02*
X55351503Y-99574800D01*
X55351503Y-99574800D02*
X55256265Y-99622419D01*
X55256265Y-99622419D02*
X55113408Y-99622419D01*
X56303884Y-98955752D02*
X56303884Y-99622419D01*
X55875313Y-98955752D02*
X55875313Y-99479561D01*
X55875313Y-99479561D02*
X55922932Y-99574800D01*
X55922932Y-99574800D02*
X56018170Y-99622419D01*
X56018170Y-99622419D02*
X56161027Y-99622419D01*
X56161027Y-99622419D02*
X56256265Y-99574800D01*
X56256265Y-99574800D02*
X56303884Y-99527180D01*
X56637218Y-98955752D02*
X57018170Y-98955752D01*
X56780075Y-98622419D02*
X56780075Y-99479561D01*
X56780075Y-99479561D02*
X56827694Y-99574800D01*
X56827694Y-99574800D02*
X56922932Y-99622419D01*
X56922932Y-99622419D02*
X57018170Y-99622419D01*
D10*
X152662295Y-108971428D02*
X151862295Y-108971428D01*
X151862295Y-108971428D02*
X151862295Y-108780952D01*
X151862295Y-108780952D02*
X151900390Y-108666666D01*
X151900390Y-108666666D02*
X151976580Y-108590476D01*
X151976580Y-108590476D02*
X152052771Y-108552381D01*
X152052771Y-108552381D02*
X152205152Y-108514285D01*
X152205152Y-108514285D02*
X152319438Y-108514285D01*
X152319438Y-108514285D02*
X152471819Y-108552381D01*
X152471819Y-108552381D02*
X152548009Y-108590476D01*
X152548009Y-108590476D02*
X152624200Y-108666666D01*
X152624200Y-108666666D02*
X152662295Y-108780952D01*
X152662295Y-108780952D02*
X152662295Y-108971428D01*
X152662295Y-107752381D02*
X152662295Y-108209524D01*
X152662295Y-107980952D02*
X151862295Y-107980952D01*
X151862295Y-107980952D02*
X151976580Y-108057143D01*
X151976580Y-108057143D02*
X152052771Y-108133333D01*
X152052771Y-108133333D02*
X152090866Y-108209524D01*
X151862295Y-107257142D02*
X151862295Y-107180952D01*
X151862295Y-107180952D02*
X151900390Y-107104761D01*
X151900390Y-107104761D02*
X151938485Y-107066666D01*
X151938485Y-107066666D02*
X152014676Y-107028571D01*
X152014676Y-107028571D02*
X152167057Y-106990476D01*
X152167057Y-106990476D02*
X152357533Y-106990476D01*
X152357533Y-106990476D02*
X152509914Y-107028571D01*
X152509914Y-107028571D02*
X152586104Y-107066666D01*
X152586104Y-107066666D02*
X152624200Y-107104761D01*
X152624200Y-107104761D02*
X152662295Y-107180952D01*
X152662295Y-107180952D02*
X152662295Y-107257142D01*
X152662295Y-107257142D02*
X152624200Y-107333333D01*
X152624200Y-107333333D02*
X152586104Y-107371428D01*
X152586104Y-107371428D02*
X152509914Y-107409523D01*
X152509914Y-107409523D02*
X152357533Y-107447619D01*
X152357533Y-107447619D02*
X152167057Y-107447619D01*
X152167057Y-107447619D02*
X152014676Y-107409523D01*
X152014676Y-107409523D02*
X151938485Y-107371428D01*
X151938485Y-107371428D02*
X151900390Y-107333333D01*
X151900390Y-107333333D02*
X151862295Y-107257142D01*
X99562295Y-124321428D02*
X99562295Y-123864285D01*
X100362295Y-124092857D02*
X99562295Y-124092857D01*
X100362295Y-123178571D02*
X100362295Y-123635714D01*
X100362295Y-123407142D02*
X99562295Y-123407142D01*
X99562295Y-123407142D02*
X99676580Y-123483333D01*
X99676580Y-123483333D02*
X99752771Y-123559523D01*
X99752771Y-123559523D02*
X99790866Y-123635714D01*
X99562295Y-122683332D02*
X99562295Y-122607142D01*
X99562295Y-122607142D02*
X99600390Y-122530951D01*
X99600390Y-122530951D02*
X99638485Y-122492856D01*
X99638485Y-122492856D02*
X99714676Y-122454761D01*
X99714676Y-122454761D02*
X99867057Y-122416666D01*
X99867057Y-122416666D02*
X100057533Y-122416666D01*
X100057533Y-122416666D02*
X100209914Y-122454761D01*
X100209914Y-122454761D02*
X100286104Y-122492856D01*
X100286104Y-122492856D02*
X100324200Y-122530951D01*
X100324200Y-122530951D02*
X100362295Y-122607142D01*
X100362295Y-122607142D02*
X100362295Y-122683332D01*
X100362295Y-122683332D02*
X100324200Y-122759523D01*
X100324200Y-122759523D02*
X100286104Y-122797618D01*
X100286104Y-122797618D02*
X100209914Y-122835713D01*
X100209914Y-122835713D02*
X100057533Y-122873809D01*
X100057533Y-122873809D02*
X99867057Y-122873809D01*
X99867057Y-122873809D02*
X99714676Y-122835713D01*
X99714676Y-122835713D02*
X99638485Y-122797618D01*
X99638485Y-122797618D02*
X99600390Y-122759523D01*
X99600390Y-122759523D02*
X99562295Y-122683332D01*
X100362295Y-121654761D02*
X100362295Y-122111904D01*
X100362295Y-121883332D02*
X99562295Y-121883332D01*
X99562295Y-121883332D02*
X99676580Y-121959523D01*
X99676580Y-121959523D02*
X99752771Y-122035713D01*
X99752771Y-122035713D02*
X99790866Y-122111904D01*
X135028571Y-114362295D02*
X135028571Y-113562295D01*
X135028571Y-113562295D02*
X135219047Y-113562295D01*
X135219047Y-113562295D02*
X135333333Y-113600390D01*
X135333333Y-113600390D02*
X135409523Y-113676580D01*
X135409523Y-113676580D02*
X135447618Y-113752771D01*
X135447618Y-113752771D02*
X135485714Y-113905152D01*
X135485714Y-113905152D02*
X135485714Y-114019438D01*
X135485714Y-114019438D02*
X135447618Y-114171819D01*
X135447618Y-114171819D02*
X135409523Y-114248009D01*
X135409523Y-114248009D02*
X135333333Y-114324200D01*
X135333333Y-114324200D02*
X135219047Y-114362295D01*
X135219047Y-114362295D02*
X135028571Y-114362295D01*
X136247618Y-114362295D02*
X135790475Y-114362295D01*
X136019047Y-114362295D02*
X136019047Y-113562295D01*
X136019047Y-113562295D02*
X135942856Y-113676580D01*
X135942856Y-113676580D02*
X135866666Y-113752771D01*
X135866666Y-113752771D02*
X135790475Y-113790866D01*
X137009523Y-114362295D02*
X136552380Y-114362295D01*
X136780952Y-114362295D02*
X136780952Y-113562295D01*
X136780952Y-113562295D02*
X136704761Y-113676580D01*
X136704761Y-113676580D02*
X136628571Y-113752771D01*
X136628571Y-113752771D02*
X136552380Y-113790866D01*
X53633333Y-123062295D02*
X53633333Y-123633723D01*
X53633333Y-123633723D02*
X53595238Y-123748009D01*
X53595238Y-123748009D02*
X53519047Y-123824200D01*
X53519047Y-123824200D02*
X53404762Y-123862295D01*
X53404762Y-123862295D02*
X53328571Y-123862295D01*
X54357143Y-123062295D02*
X54204762Y-123062295D01*
X54204762Y-123062295D02*
X54128571Y-123100390D01*
X54128571Y-123100390D02*
X54090476Y-123138485D01*
X54090476Y-123138485D02*
X54014286Y-123252771D01*
X54014286Y-123252771D02*
X53976190Y-123405152D01*
X53976190Y-123405152D02*
X53976190Y-123709914D01*
X53976190Y-123709914D02*
X54014286Y-123786104D01*
X54014286Y-123786104D02*
X54052381Y-123824200D01*
X54052381Y-123824200D02*
X54128571Y-123862295D01*
X54128571Y-123862295D02*
X54280952Y-123862295D01*
X54280952Y-123862295D02*
X54357143Y-123824200D01*
X54357143Y-123824200D02*
X54395238Y-123786104D01*
X54395238Y-123786104D02*
X54433333Y-123709914D01*
X54433333Y-123709914D02*
X54433333Y-123519438D01*
X54433333Y-123519438D02*
X54395238Y-123443247D01*
X54395238Y-123443247D02*
X54357143Y-123405152D01*
X54357143Y-123405152D02*
X54280952Y-123367057D01*
X54280952Y-123367057D02*
X54128571Y-123367057D01*
X54128571Y-123367057D02*
X54052381Y-123405152D01*
X54052381Y-123405152D02*
X54014286Y-123443247D01*
X54014286Y-123443247D02*
X53976190Y-123519438D01*
X138278571Y-128612295D02*
X138278571Y-127812295D01*
X138278571Y-127812295D02*
X138469047Y-127812295D01*
X138469047Y-127812295D02*
X138583333Y-127850390D01*
X138583333Y-127850390D02*
X138659523Y-127926580D01*
X138659523Y-127926580D02*
X138697618Y-128002771D01*
X138697618Y-128002771D02*
X138735714Y-128155152D01*
X138735714Y-128155152D02*
X138735714Y-128269438D01*
X138735714Y-128269438D02*
X138697618Y-128421819D01*
X138697618Y-128421819D02*
X138659523Y-128498009D01*
X138659523Y-128498009D02*
X138583333Y-128574200D01*
X138583333Y-128574200D02*
X138469047Y-128612295D01*
X138469047Y-128612295D02*
X138278571Y-128612295D01*
X139497618Y-128612295D02*
X139040475Y-128612295D01*
X139269047Y-128612295D02*
X139269047Y-127812295D01*
X139269047Y-127812295D02*
X139192856Y-127926580D01*
X139192856Y-127926580D02*
X139116666Y-128002771D01*
X139116666Y-128002771D02*
X139040475Y-128040866D01*
X140221428Y-127812295D02*
X139840476Y-127812295D01*
X139840476Y-127812295D02*
X139802380Y-128193247D01*
X139802380Y-128193247D02*
X139840476Y-128155152D01*
X139840476Y-128155152D02*
X139916666Y-128117057D01*
X139916666Y-128117057D02*
X140107142Y-128117057D01*
X140107142Y-128117057D02*
X140183333Y-128155152D01*
X140183333Y-128155152D02*
X140221428Y-128193247D01*
X140221428Y-128193247D02*
X140259523Y-128269438D01*
X140259523Y-128269438D02*
X140259523Y-128459914D01*
X140259523Y-128459914D02*
X140221428Y-128536104D01*
X140221428Y-128536104D02*
X140183333Y-128574200D01*
X140183333Y-128574200D02*
X140107142Y-128612295D01*
X140107142Y-128612295D02*
X139916666Y-128612295D01*
X139916666Y-128612295D02*
X139840476Y-128574200D01*
X139840476Y-128574200D02*
X139802380Y-128536104D01*
X120752381Y-123780295D02*
X121019048Y-124580295D01*
X121019048Y-124580295D02*
X121285714Y-123780295D01*
X122009524Y-124580295D02*
X121742857Y-124199342D01*
X121552381Y-124580295D02*
X121552381Y-123780295D01*
X121552381Y-123780295D02*
X121857143Y-123780295D01*
X121857143Y-123780295D02*
X121933333Y-123818390D01*
X121933333Y-123818390D02*
X121971428Y-123856485D01*
X121971428Y-123856485D02*
X122009524Y-123932676D01*
X122009524Y-123932676D02*
X122009524Y-124046961D01*
X122009524Y-124046961D02*
X121971428Y-124123152D01*
X121971428Y-124123152D02*
X121933333Y-124161247D01*
X121933333Y-124161247D02*
X121857143Y-124199342D01*
X121857143Y-124199342D02*
X121552381Y-124199342D01*
X122771428Y-124580295D02*
X122314285Y-124580295D01*
X122542857Y-124580295D02*
X122542857Y-123780295D01*
X122542857Y-123780295D02*
X122466666Y-123894580D01*
X122466666Y-123894580D02*
X122390476Y-123970771D01*
X122390476Y-123970771D02*
X122314285Y-124008866D01*
X113812295Y-123278571D02*
X113812295Y-122821428D01*
X114612295Y-123050000D02*
X113812295Y-123050000D01*
X114612295Y-122554761D02*
X113812295Y-122554761D01*
X114193247Y-122554761D02*
X114193247Y-122097618D01*
X114612295Y-122097618D02*
X113812295Y-122097618D01*
X114612295Y-121297619D02*
X114612295Y-121754762D01*
X114612295Y-121526190D02*
X113812295Y-121526190D01*
X113812295Y-121526190D02*
X113926580Y-121602381D01*
X113926580Y-121602381D02*
X114002771Y-121678571D01*
X114002771Y-121678571D02*
X114040866Y-121754762D01*
X97733333Y-97749295D02*
X97733333Y-98320723D01*
X97733333Y-98320723D02*
X97695238Y-98435009D01*
X97695238Y-98435009D02*
X97619047Y-98511200D01*
X97619047Y-98511200D02*
X97504762Y-98549295D01*
X97504762Y-98549295D02*
X97428571Y-98549295D01*
X98457143Y-98015961D02*
X98457143Y-98549295D01*
X98266667Y-97711200D02*
X98076190Y-98282628D01*
X98076190Y-98282628D02*
X98571429Y-98282628D01*
X145233333Y-102143247D02*
X144966667Y-102143247D01*
X144966667Y-102562295D02*
X144966667Y-101762295D01*
X144966667Y-101762295D02*
X145347619Y-101762295D01*
X146071428Y-102562295D02*
X145614285Y-102562295D01*
X145842857Y-102562295D02*
X145842857Y-101762295D01*
X145842857Y-101762295D02*
X145766666Y-101876580D01*
X145766666Y-101876580D02*
X145690476Y-101952771D01*
X145690476Y-101952771D02*
X145614285Y-101990866D01*
X102983333Y-100612295D02*
X102983333Y-101183723D01*
X102983333Y-101183723D02*
X102945238Y-101298009D01*
X102945238Y-101298009D02*
X102869047Y-101374200D01*
X102869047Y-101374200D02*
X102754762Y-101412295D01*
X102754762Y-101412295D02*
X102678571Y-101412295D01*
X103326190Y-100688485D02*
X103364286Y-100650390D01*
X103364286Y-100650390D02*
X103440476Y-100612295D01*
X103440476Y-100612295D02*
X103630952Y-100612295D01*
X103630952Y-100612295D02*
X103707143Y-100650390D01*
X103707143Y-100650390D02*
X103745238Y-100688485D01*
X103745238Y-100688485D02*
X103783333Y-100764676D01*
X103783333Y-100764676D02*
X103783333Y-100840866D01*
X103783333Y-100840866D02*
X103745238Y-100955152D01*
X103745238Y-100955152D02*
X103288095Y-101412295D01*
X103288095Y-101412295D02*
X103783333Y-101412295D01*
X128019048Y-117562295D02*
X128019048Y-116762295D01*
X128857143Y-117486104D02*
X128819047Y-117524200D01*
X128819047Y-117524200D02*
X128704762Y-117562295D01*
X128704762Y-117562295D02*
X128628571Y-117562295D01*
X128628571Y-117562295D02*
X128514285Y-117524200D01*
X128514285Y-117524200D02*
X128438095Y-117448009D01*
X128438095Y-117448009D02*
X128400000Y-117371819D01*
X128400000Y-117371819D02*
X128361904Y-117219438D01*
X128361904Y-117219438D02*
X128361904Y-117105152D01*
X128361904Y-117105152D02*
X128400000Y-116952771D01*
X128400000Y-116952771D02*
X128438095Y-116876580D01*
X128438095Y-116876580D02*
X128514285Y-116800390D01*
X128514285Y-116800390D02*
X128628571Y-116762295D01*
X128628571Y-116762295D02*
X128704762Y-116762295D01*
X128704762Y-116762295D02*
X128819047Y-116800390D01*
X128819047Y-116800390D02*
X128857143Y-116838485D01*
X129123809Y-116762295D02*
X129619047Y-116762295D01*
X129619047Y-116762295D02*
X129352381Y-117067057D01*
X129352381Y-117067057D02*
X129466666Y-117067057D01*
X129466666Y-117067057D02*
X129542857Y-117105152D01*
X129542857Y-117105152D02*
X129580952Y-117143247D01*
X129580952Y-117143247D02*
X129619047Y-117219438D01*
X129619047Y-117219438D02*
X129619047Y-117409914D01*
X129619047Y-117409914D02*
X129580952Y-117486104D01*
X129580952Y-117486104D02*
X129542857Y-117524200D01*
X129542857Y-117524200D02*
X129466666Y-117562295D01*
X129466666Y-117562295D02*
X129238095Y-117562295D01*
X129238095Y-117562295D02*
X129161904Y-117524200D01*
X129161904Y-117524200D02*
X129123809Y-117486104D01*
D12*
X106290476Y-119877419D02*
X106290476Y-118877419D01*
X106290476Y-118877419D02*
X106623809Y-119591704D01*
X106623809Y-119591704D02*
X106957142Y-118877419D01*
X106957142Y-118877419D02*
X106957142Y-119877419D01*
X107385714Y-118972657D02*
X107433333Y-118925038D01*
X107433333Y-118925038D02*
X107528571Y-118877419D01*
X107528571Y-118877419D02*
X107766666Y-118877419D01*
X107766666Y-118877419D02*
X107861904Y-118925038D01*
X107861904Y-118925038D02*
X107909523Y-118972657D01*
X107909523Y-118972657D02*
X107957142Y-119067895D01*
X107957142Y-119067895D02*
X107957142Y-119163133D01*
X107957142Y-119163133D02*
X107909523Y-119305990D01*
X107909523Y-119305990D02*
X107338095Y-119877419D01*
X107338095Y-119877419D02*
X107957142Y-119877419D01*
D10*
X151866667Y-122036104D02*
X151828571Y-122074200D01*
X151828571Y-122074200D02*
X151714286Y-122112295D01*
X151714286Y-122112295D02*
X151638095Y-122112295D01*
X151638095Y-122112295D02*
X151523809Y-122074200D01*
X151523809Y-122074200D02*
X151447619Y-121998009D01*
X151447619Y-121998009D02*
X151409524Y-121921819D01*
X151409524Y-121921819D02*
X151371428Y-121769438D01*
X151371428Y-121769438D02*
X151371428Y-121655152D01*
X151371428Y-121655152D02*
X151409524Y-121502771D01*
X151409524Y-121502771D02*
X151447619Y-121426580D01*
X151447619Y-121426580D02*
X151523809Y-121350390D01*
X151523809Y-121350390D02*
X151638095Y-121312295D01*
X151638095Y-121312295D02*
X151714286Y-121312295D01*
X151714286Y-121312295D02*
X151828571Y-121350390D01*
X151828571Y-121350390D02*
X151866667Y-121388485D01*
X152552381Y-121312295D02*
X152400000Y-121312295D01*
X152400000Y-121312295D02*
X152323809Y-121350390D01*
X152323809Y-121350390D02*
X152285714Y-121388485D01*
X152285714Y-121388485D02*
X152209524Y-121502771D01*
X152209524Y-121502771D02*
X152171428Y-121655152D01*
X152171428Y-121655152D02*
X152171428Y-121959914D01*
X152171428Y-121959914D02*
X152209524Y-122036104D01*
X152209524Y-122036104D02*
X152247619Y-122074200D01*
X152247619Y-122074200D02*
X152323809Y-122112295D01*
X152323809Y-122112295D02*
X152476190Y-122112295D01*
X152476190Y-122112295D02*
X152552381Y-122074200D01*
X152552381Y-122074200D02*
X152590476Y-122036104D01*
X152590476Y-122036104D02*
X152628571Y-121959914D01*
X152628571Y-121959914D02*
X152628571Y-121769438D01*
X152628571Y-121769438D02*
X152590476Y-121693247D01*
X152590476Y-121693247D02*
X152552381Y-121655152D01*
X152552381Y-121655152D02*
X152476190Y-121617057D01*
X152476190Y-121617057D02*
X152323809Y-121617057D01*
X152323809Y-121617057D02*
X152247619Y-121655152D01*
X152247619Y-121655152D02*
X152209524Y-121693247D01*
X152209524Y-121693247D02*
X152171428Y-121769438D01*
X128533333Y-99812295D02*
X128533333Y-100383723D01*
X128533333Y-100383723D02*
X128495238Y-100498009D01*
X128495238Y-100498009D02*
X128419047Y-100574200D01*
X128419047Y-100574200D02*
X128304762Y-100612295D01*
X128304762Y-100612295D02*
X128228571Y-100612295D01*
X129295238Y-99812295D02*
X128914286Y-99812295D01*
X128914286Y-99812295D02*
X128876190Y-100193247D01*
X128876190Y-100193247D02*
X128914286Y-100155152D01*
X128914286Y-100155152D02*
X128990476Y-100117057D01*
X128990476Y-100117057D02*
X129180952Y-100117057D01*
X129180952Y-100117057D02*
X129257143Y-100155152D01*
X129257143Y-100155152D02*
X129295238Y-100193247D01*
X129295238Y-100193247D02*
X129333333Y-100269438D01*
X129333333Y-100269438D02*
X129333333Y-100459914D01*
X129333333Y-100459914D02*
X129295238Y-100536104D01*
X129295238Y-100536104D02*
X129257143Y-100574200D01*
X129257143Y-100574200D02*
X129180952Y-100612295D01*
X129180952Y-100612295D02*
X128990476Y-100612295D01*
X128990476Y-100612295D02*
X128914286Y-100574200D01*
X128914286Y-100574200D02*
X128876190Y-100536104D01*
X133289966Y-112639819D02*
X133289966Y-113354104D01*
X133289966Y-113354104D02*
X133242347Y-113496961D01*
X133242347Y-113496961D02*
X133147109Y-113592200D01*
X133147109Y-113592200D02*
X133004252Y-113639819D01*
X133004252Y-113639819D02*
X132909014Y-113639819D01*
X133670919Y-112639819D02*
X134289966Y-112639819D01*
X134289966Y-112639819D02*
X133956633Y-113020771D01*
X133956633Y-113020771D02*
X134099490Y-113020771D01*
X134099490Y-113020771D02*
X134194728Y-113068390D01*
X134194728Y-113068390D02*
X134242347Y-113116009D01*
X134242347Y-113116009D02*
X134289966Y-113211247D01*
X134289966Y-113211247D02*
X134289966Y-113449342D01*
X134289966Y-113449342D02*
X134242347Y-113544580D01*
X134242347Y-113544580D02*
X134194728Y-113592200D01*
X134194728Y-113592200D02*
X134099490Y-113639819D01*
X134099490Y-113639819D02*
X133813776Y-113639819D01*
X133813776Y-113639819D02*
X133718538Y-113592200D01*
X133718538Y-113592200D02*
X133670919Y-113544580D01*
X136528571Y-107112295D02*
X136528571Y-106312295D01*
X136528571Y-106312295D02*
X136719047Y-106312295D01*
X136719047Y-106312295D02*
X136833333Y-106350390D01*
X136833333Y-106350390D02*
X136909523Y-106426580D01*
X136909523Y-106426580D02*
X136947618Y-106502771D01*
X136947618Y-106502771D02*
X136985714Y-106655152D01*
X136985714Y-106655152D02*
X136985714Y-106769438D01*
X136985714Y-106769438D02*
X136947618Y-106921819D01*
X136947618Y-106921819D02*
X136909523Y-106998009D01*
X136909523Y-106998009D02*
X136833333Y-107074200D01*
X136833333Y-107074200D02*
X136719047Y-107112295D01*
X136719047Y-107112295D02*
X136528571Y-107112295D01*
X137747618Y-107112295D02*
X137290475Y-107112295D01*
X137519047Y-107112295D02*
X137519047Y-106312295D01*
X137519047Y-106312295D02*
X137442856Y-106426580D01*
X137442856Y-106426580D02*
X137366666Y-106502771D01*
X137366666Y-106502771D02*
X137290475Y-106540866D01*
X138052380Y-106388485D02*
X138090476Y-106350390D01*
X138090476Y-106350390D02*
X138166666Y-106312295D01*
X138166666Y-106312295D02*
X138357142Y-106312295D01*
X138357142Y-106312295D02*
X138433333Y-106350390D01*
X138433333Y-106350390D02*
X138471428Y-106388485D01*
X138471428Y-106388485D02*
X138509523Y-106464676D01*
X138509523Y-106464676D02*
X138509523Y-106540866D01*
X138509523Y-106540866D02*
X138471428Y-106655152D01*
X138471428Y-106655152D02*
X138014285Y-107112295D01*
X138014285Y-107112295D02*
X138509523Y-107112295D01*
X89604761Y-129612295D02*
X89223809Y-129612295D01*
X89223809Y-129612295D02*
X89223809Y-128812295D01*
X90290475Y-129612295D02*
X89833332Y-129612295D01*
X90061904Y-129612295D02*
X90061904Y-128812295D01*
X90061904Y-128812295D02*
X89985713Y-128926580D01*
X89985713Y-128926580D02*
X89909523Y-129002771D01*
X89909523Y-129002771D02*
X89833332Y-129040866D01*
X90785714Y-128812295D02*
X90861904Y-128812295D01*
X90861904Y-128812295D02*
X90938095Y-128850390D01*
X90938095Y-128850390D02*
X90976190Y-128888485D01*
X90976190Y-128888485D02*
X91014285Y-128964676D01*
X91014285Y-128964676D02*
X91052380Y-129117057D01*
X91052380Y-129117057D02*
X91052380Y-129307533D01*
X91052380Y-129307533D02*
X91014285Y-129459914D01*
X91014285Y-129459914D02*
X90976190Y-129536104D01*
X90976190Y-129536104D02*
X90938095Y-129574200D01*
X90938095Y-129574200D02*
X90861904Y-129612295D01*
X90861904Y-129612295D02*
X90785714Y-129612295D01*
X90785714Y-129612295D02*
X90709523Y-129574200D01*
X90709523Y-129574200D02*
X90671428Y-129536104D01*
X90671428Y-129536104D02*
X90633333Y-129459914D01*
X90633333Y-129459914D02*
X90595237Y-129307533D01*
X90595237Y-129307533D02*
X90595237Y-129117057D01*
X90595237Y-129117057D02*
X90633333Y-128964676D01*
X90633333Y-128964676D02*
X90671428Y-128888485D01*
X90671428Y-128888485D02*
X90709523Y-128850390D01*
X90709523Y-128850390D02*
X90785714Y-128812295D01*
X91814285Y-129612295D02*
X91357142Y-129612295D01*
X91585714Y-129612295D02*
X91585714Y-128812295D01*
X91585714Y-128812295D02*
X91509523Y-128926580D01*
X91509523Y-128926580D02*
X91433333Y-129002771D01*
X91433333Y-129002771D02*
X91357142Y-129040866D01*
X150833333Y-96362295D02*
X150833333Y-96933723D01*
X150833333Y-96933723D02*
X150795238Y-97048009D01*
X150795238Y-97048009D02*
X150719047Y-97124200D01*
X150719047Y-97124200D02*
X150604762Y-97162295D01*
X150604762Y-97162295D02*
X150528571Y-97162295D01*
X151633333Y-97162295D02*
X151176190Y-97162295D01*
X151404762Y-97162295D02*
X151404762Y-96362295D01*
X151404762Y-96362295D02*
X151328571Y-96476580D01*
X151328571Y-96476580D02*
X151252381Y-96552771D01*
X151252381Y-96552771D02*
X151176190Y-96590866D01*
X137043247Y-101116666D02*
X137043247Y-101383332D01*
X137462295Y-101383332D02*
X136662295Y-101383332D01*
X136662295Y-101383332D02*
X136662295Y-101002380D01*
X136738485Y-100735714D02*
X136700390Y-100697618D01*
X136700390Y-100697618D02*
X136662295Y-100621428D01*
X136662295Y-100621428D02*
X136662295Y-100430952D01*
X136662295Y-100430952D02*
X136700390Y-100354761D01*
X136700390Y-100354761D02*
X136738485Y-100316666D01*
X136738485Y-100316666D02*
X136814676Y-100278571D01*
X136814676Y-100278571D02*
X136890866Y-100278571D01*
X136890866Y-100278571D02*
X137005152Y-100316666D01*
X137005152Y-100316666D02*
X137462295Y-100773809D01*
X137462295Y-100773809D02*
X137462295Y-100278571D01*
X151285714Y-113886104D02*
X151247618Y-113924200D01*
X151247618Y-113924200D02*
X151133333Y-113962295D01*
X151133333Y-113962295D02*
X151057142Y-113962295D01*
X151057142Y-113962295D02*
X150942856Y-113924200D01*
X150942856Y-113924200D02*
X150866666Y-113848009D01*
X150866666Y-113848009D02*
X150828571Y-113771819D01*
X150828571Y-113771819D02*
X150790475Y-113619438D01*
X150790475Y-113619438D02*
X150790475Y-113505152D01*
X150790475Y-113505152D02*
X150828571Y-113352771D01*
X150828571Y-113352771D02*
X150866666Y-113276580D01*
X150866666Y-113276580D02*
X150942856Y-113200390D01*
X150942856Y-113200390D02*
X151057142Y-113162295D01*
X151057142Y-113162295D02*
X151133333Y-113162295D01*
X151133333Y-113162295D02*
X151247618Y-113200390D01*
X151247618Y-113200390D02*
X151285714Y-113238485D01*
X151590475Y-113238485D02*
X151628571Y-113200390D01*
X151628571Y-113200390D02*
X151704761Y-113162295D01*
X151704761Y-113162295D02*
X151895237Y-113162295D01*
X151895237Y-113162295D02*
X151971428Y-113200390D01*
X151971428Y-113200390D02*
X152009523Y-113238485D01*
X152009523Y-113238485D02*
X152047618Y-113314676D01*
X152047618Y-113314676D02*
X152047618Y-113390866D01*
X152047618Y-113390866D02*
X152009523Y-113505152D01*
X152009523Y-113505152D02*
X151552380Y-113962295D01*
X151552380Y-113962295D02*
X152047618Y-113962295D01*
X152733333Y-113428961D02*
X152733333Y-113962295D01*
X152542857Y-113124200D02*
X152352380Y-113695628D01*
X152352380Y-113695628D02*
X152847619Y-113695628D01*
D15*
%TO.C,TP5*%
X102950000Y-99000000D02*
G75*
G02*
X101550000Y-99000000I-700000J0D01*
G01*
X101550000Y-99000000D02*
G75*
G02*
X102950000Y-99000000I700000J0D01*
G01*
%TO.C,R34*%
X118262742Y-104727500D02*
X118737258Y-104727500D01*
X118262742Y-105772500D02*
X118737258Y-105772500D01*
D14*
%TO.C,IC7*%
X128750000Y-119750000D02*
X129350000Y-119750000D01*
X128750000Y-122650000D02*
X128750000Y-119750000D01*
X129350000Y-119750000D02*
X129350000Y-122650000D01*
X129350000Y-122650000D02*
X128750000Y-122650000D01*
X130900000Y-122700000D02*
X129700000Y-122700000D01*
D15*
%TO.C,C39*%
X124890000Y-124538748D02*
X124890000Y-125961252D01*
X127610000Y-124538748D02*
X127610000Y-125961252D01*
D14*
%TO.C,REF\u002A\u002A*%
X53600000Y-97240000D02*
X53850000Y-97040000D01*
X53845000Y-96920000D02*
X54095000Y-96720000D01*
X55480000Y-97130000D02*
X55570000Y-96620000D01*
D12*
X55636542Y-96779104D02*
X55432813Y-96444406D01*
X56320490Y-97041042D01*
X55272740Y-97259323D01*
X55592886Y-97026489D01*
X53861188Y-96750000D01*
X54457823Y-97870510D01*
X52250000Y-97250000D01*
X52250000Y-96750000D01*
X53875740Y-97288427D01*
X53250000Y-96124260D01*
X55636542Y-96779104D01*
G36*
X55636542Y-96779104D02*
G01*
X55432813Y-96444406D01*
X56320490Y-97041042D01*
X55272740Y-97259323D01*
X55592886Y-97026489D01*
X53861188Y-96750000D01*
X54457823Y-97870510D01*
X52250000Y-97250000D01*
X52250000Y-96750000D01*
X53875740Y-97288427D01*
X53250000Y-96124260D01*
X55636542Y-96779104D01*
G37*
D15*
%TO.C,C36*%
X119640000Y-132711252D02*
X119640000Y-131288748D01*
X122360000Y-132711252D02*
X122360000Y-131288748D01*
D14*
%TO.C,IC6*%
X137575000Y-121207836D02*
X138425000Y-121207836D01*
X137575000Y-124107836D02*
X137575000Y-121207836D01*
X138425000Y-121207836D02*
X138425000Y-124107836D01*
X138425000Y-124107836D02*
X137575000Y-124107836D01*
X139825000Y-124232836D02*
X138775000Y-124232836D01*
D15*
%TO.C,R48*%
X131227500Y-132512742D02*
X131227500Y-132987258D01*
X132272500Y-132512742D02*
X132272500Y-132987258D01*
%TO.C,TPB1*%
X123500000Y-127100000D02*
G75*
G02*
X122100000Y-127100000I-700000J0D01*
G01*
X122100000Y-127100000D02*
G75*
G02*
X123500000Y-127100000I700000J0D01*
G01*
%TO.C,D16*%
X120540000Y-118400000D02*
X120540000Y-120100000D01*
X120540000Y-118400000D02*
X123200000Y-118400000D01*
X120540000Y-120100000D02*
X123200000Y-120100000D01*
%TO.C,TP9*%
X124950000Y-119250000D02*
G75*
G02*
X123550000Y-119250000I-700000J0D01*
G01*
X123550000Y-119250000D02*
G75*
G02*
X124950000Y-119250000I700000J0D01*
G01*
%TO.C,T101*%
X99030000Y-120549000D02*
X99030000Y-125820000D01*
X99030000Y-120549000D02*
X115170000Y-120549000D01*
X99030000Y-125820000D02*
X115170000Y-125820000D01*
X105296000Y-120549000D02*
X105296000Y-125820000D01*
X108905000Y-120549000D02*
X108905000Y-120600000D01*
X108905000Y-125400000D02*
X108905000Y-125820000D01*
X115170000Y-120549000D02*
X115170000Y-125820000D01*
%TO.C,R27*%
X135377500Y-105062742D02*
X135377500Y-105537258D01*
X136422500Y-105062742D02*
X136422500Y-105537258D01*
%TO.C,D11*%
X134765000Y-110987500D02*
X134765000Y-113272500D01*
X134765000Y-113272500D02*
X136235000Y-113272500D01*
X136235000Y-113272500D02*
X136235000Y-110987500D01*
D14*
%TO.C,IC5*%
X129825000Y-128050000D02*
X130675000Y-128050000D01*
X129825000Y-130950000D02*
X129825000Y-128050000D01*
X130675000Y-128050000D02*
X130675000Y-130950000D01*
X130675000Y-130950000D02*
X129825000Y-130950000D01*
X132075000Y-131075000D02*
X131025000Y-131075000D01*
D12*
%TO.C,M1*%
X95500000Y-119900000D02*
X95500000Y-123300000D01*
X95500000Y-119900000D02*
X96000000Y-119900000D01*
X95500000Y-123300000D02*
X95500000Y-124000000D01*
X95500000Y-127300000D02*
X95500000Y-126600000D01*
X95500000Y-127300000D02*
X95500000Y-134900000D01*
X95500000Y-134900000D02*
X96100000Y-134900000D01*
X95600000Y-119900000D02*
X95500000Y-119900000D01*
X96100000Y-119900000D02*
X96100000Y-120500000D01*
X96100000Y-120500000D02*
X96100000Y-119900000D01*
X96100000Y-120500000D02*
X97600000Y-120500000D01*
X96100000Y-120500000D02*
X117900000Y-120500000D01*
X96100000Y-123300000D02*
X95500000Y-123300000D01*
X96100000Y-123300000D02*
X96100000Y-120500000D01*
X96100000Y-123300000D02*
X96100000Y-124000000D01*
X96100000Y-127300000D02*
X95500000Y-127300000D01*
X96100000Y-127300000D02*
X96100000Y-126600000D01*
X96100000Y-127300000D02*
X96100000Y-134900000D01*
X98500000Y-120500000D02*
X98500000Y-119900000D01*
X115500000Y-119900000D02*
X115500000Y-120500000D01*
X117900000Y-119900000D02*
X116400000Y-119900000D01*
X117900000Y-120500000D02*
X117900000Y-119900000D01*
X117900000Y-120500000D02*
X117900000Y-124000000D01*
X117900000Y-123300000D02*
X118500000Y-123300000D01*
X117900000Y-126600000D02*
X117900000Y-134900000D01*
X117900000Y-134900000D02*
X118500000Y-134900000D01*
X118500000Y-119900000D02*
X95600000Y-119900000D01*
X118500000Y-124000000D02*
X118500000Y-119900000D01*
X118500000Y-127300000D02*
X117900000Y-127300000D01*
X118500000Y-134900000D02*
X118500000Y-126600000D01*
D15*
%TO.C,R75*%
X98477500Y-107762742D02*
X98477500Y-108237258D01*
X99522500Y-107762742D02*
X99522500Y-108237258D01*
%TO.C,TP8*%
X116700000Y-123750000D02*
G75*
G02*
X115300000Y-123750000I-700000J0D01*
G01*
X115300000Y-123750000D02*
G75*
G02*
X116700000Y-123750000I700000J0D01*
G01*
%TO.C,R28*%
X126087258Y-103427500D02*
X125612742Y-103427500D01*
X126087258Y-104472500D02*
X125612742Y-104472500D01*
%TO.C,TP4*%
X144950000Y-129750000D02*
G75*
G02*
X143550000Y-129750000I-700000J0D01*
G01*
X143550000Y-129750000D02*
G75*
G02*
X144950000Y-129750000I700000J0D01*
G01*
%TO.C,T3*%
X100290000Y-102562500D02*
X100290000Y-101912500D01*
X100290000Y-102562500D02*
X100290000Y-103212500D01*
X103410000Y-102562500D02*
X103410000Y-101912500D01*
X103410000Y-102562500D02*
X103410000Y-103212500D01*
X100340000Y-103725000D02*
X100010000Y-103965000D01*
X100010000Y-103485000D01*
X100340000Y-103725000D01*
G36*
X100340000Y-103725000D02*
G01*
X100010000Y-103965000D01*
X100010000Y-103485000D01*
X100340000Y-103725000D01*
G37*
%TO.C,C44*%
X110490000Y-132640580D02*
X110490000Y-132359420D01*
X111510000Y-132640580D02*
X111510000Y-132359420D01*
%TO.C,D18*%
X121640000Y-105400000D02*
X121640000Y-107100000D01*
X121640000Y-105400000D02*
X124300000Y-105400000D01*
X121640000Y-107100000D02*
X124300000Y-107100000D01*
%TO.C,R80*%
X114987258Y-107227500D02*
X114512742Y-107227500D01*
X114987258Y-108272500D02*
X114512742Y-108272500D01*
%TO.C,D15*%
X138515000Y-124590000D02*
X138515000Y-126875000D01*
X139985000Y-124590000D02*
X138515000Y-124590000D01*
X139985000Y-126875000D02*
X139985000Y-124590000D01*
D14*
%TO.C,VR1*%
X120000000Y-122150000D02*
X120000000Y-125950000D01*
D16*
X120748000Y-126675000D02*
X120748000Y-126675000D01*
X120770000Y-126675000D02*
X120770000Y-126675000D01*
D14*
X123600000Y-125950000D02*
X123600000Y-122150000D01*
D16*
X120748000Y-126675000D02*
G75*
G02*
X120770000Y-126675000I11000J0D01*
G01*
X120770000Y-126675000D02*
G75*
G02*
X120748000Y-126675000I-11000J0D01*
G01*
D15*
%TO.C,C5*%
X146711252Y-114390000D02*
X145288748Y-114390000D01*
X146711252Y-117110000D02*
X145288748Y-117110000D01*
%TO.C,TP2*%
X144950000Y-134000000D02*
G75*
G02*
X143550000Y-134000000I-700000J0D01*
G01*
X143550000Y-134000000D02*
G75*
G02*
X144950000Y-134000000I700000J0D01*
G01*
%TO.C,R74*%
X108227500Y-110212742D02*
X108227500Y-110687258D01*
X109272500Y-110212742D02*
X109272500Y-110687258D01*
%TO.C,IC8*%
X111940000Y-132000000D02*
X111940000Y-131200000D01*
X111940000Y-132000000D02*
X111940000Y-132800000D01*
X115060000Y-132000000D02*
X115060000Y-131200000D01*
X115060000Y-132000000D02*
X115060000Y-132800000D01*
X115340000Y-130940000D02*
X115010000Y-130700000D01*
X115340000Y-130460000D01*
X115340000Y-130940000D01*
G36*
X115340000Y-130940000D02*
G01*
X115010000Y-130700000D01*
X115340000Y-130460000D01*
X115340000Y-130940000D01*
G37*
%TO.C,C42*%
X96920000Y-130535000D02*
X105080000Y-130535000D01*
X96920000Y-130575000D02*
X105080000Y-130575000D01*
X96921000Y-130495000D02*
X105079000Y-130495000D01*
X96922000Y-130455000D02*
X105078000Y-130455000D01*
X96923000Y-130415000D02*
X105077000Y-130415000D01*
X96925000Y-130375000D02*
X105075000Y-130375000D01*
X96927000Y-130335000D02*
X105073000Y-130335000D01*
X96930000Y-130295000D02*
X105070000Y-130295000D01*
X96932000Y-130255000D02*
X105068000Y-130255000D01*
X96936000Y-130215000D02*
X105064000Y-130215000D01*
X96939000Y-130175000D02*
X105061000Y-130175000D01*
X96944000Y-130135000D02*
X105056000Y-130135000D01*
X96948000Y-130095000D02*
X105052000Y-130095000D01*
X96953000Y-130055000D02*
X105047000Y-130055000D01*
X96958000Y-130015000D02*
X105042000Y-130015000D01*
X96964000Y-129975000D02*
X105036000Y-129975000D01*
X96970000Y-129935000D02*
X105030000Y-129935000D01*
X96977000Y-129895000D02*
X105023000Y-129895000D01*
X96983000Y-129855000D02*
X99960000Y-129855000D01*
X96991000Y-129815000D02*
X99960000Y-129815000D01*
X96998000Y-129775000D02*
X99960000Y-129775000D01*
X97007000Y-129735000D02*
X99960000Y-129735000D01*
X97015000Y-129695000D02*
X99960000Y-129695000D01*
X97024000Y-129655000D02*
X99960000Y-129655000D01*
X97033000Y-129615000D02*
X99960000Y-129615000D01*
X97043000Y-129575000D02*
X99960000Y-129575000D01*
X97053000Y-129535000D02*
X99960000Y-129535000D01*
X97064000Y-129495000D02*
X99960000Y-129495000D01*
X97075000Y-129455000D02*
X99960000Y-129455000D01*
X97087000Y-129415000D02*
X99960000Y-129415000D01*
X97099000Y-129375000D02*
X99960000Y-129375000D01*
X97111000Y-129335000D02*
X99960000Y-129335000D01*
X97124000Y-129295000D02*
X99960000Y-129295000D01*
X97137000Y-129255000D02*
X99960000Y-129255000D01*
X97151000Y-129215000D02*
X99960000Y-129215000D01*
X97165000Y-129175000D02*
X99960000Y-129175000D01*
X97180000Y-129135000D02*
X99960000Y-129135000D01*
X97195000Y-129095000D02*
X99960000Y-129095000D01*
X97211000Y-129055000D02*
X99960000Y-129055000D01*
X97227000Y-129015000D02*
X99960000Y-129015000D01*
X97243000Y-128975000D02*
X99960000Y-128975000D01*
X97260000Y-128935000D02*
X99960000Y-128935000D01*
X97278000Y-128895000D02*
X99960000Y-128895000D01*
X97296000Y-128855000D02*
X99960000Y-128855000D01*
X97315000Y-128815000D02*
X99960000Y-128815000D01*
X97334000Y-128775000D02*
X99960000Y-128775000D01*
X97354000Y-128735000D02*
X99960000Y-128735000D01*
X97374000Y-128695000D02*
X99960000Y-128695000D01*
X97395000Y-128655000D02*
X99960000Y-128655000D01*
X97416000Y-128615000D02*
X99960000Y-128615000D01*
X97438000Y-128575000D02*
X99960000Y-128575000D01*
X97461000Y-128535000D02*
X99960000Y-128535000D01*
X97484000Y-128495000D02*
X99960000Y-128495000D01*
X97507000Y-128455000D02*
X99960000Y-128455000D01*
X97532000Y-128415000D02*
X99960000Y-128415000D01*
X97557000Y-128375000D02*
X99960000Y-128375000D01*
X97582000Y-128335000D02*
X99960000Y-128335000D01*
X97608000Y-128295000D02*
X99960000Y-128295000D01*
X97635000Y-128255000D02*
X99960000Y-128255000D01*
X97663000Y-128215000D02*
X99960000Y-128215000D01*
X97691000Y-128175000D02*
X99960000Y-128175000D01*
X97720000Y-128135000D02*
X99960000Y-128135000D01*
X97750000Y-128095000D02*
X99960000Y-128095000D01*
X97781000Y-128055000D02*
X99960000Y-128055000D01*
X97812000Y-128015000D02*
X99960000Y-128015000D01*
X97844000Y-127975000D02*
X99960000Y-127975000D01*
X97877000Y-127935000D02*
X99960000Y-127935000D01*
X97911000Y-127895000D02*
X99960000Y-127895000D01*
X97945000Y-127855000D02*
X99960000Y-127855000D01*
X97981000Y-127815000D02*
X99960000Y-127815000D01*
X98018000Y-127775000D02*
X103982000Y-127775000D01*
X98055000Y-127735000D02*
X103945000Y-127735000D01*
X98094000Y-127695000D02*
X103906000Y-127695000D01*
X98133000Y-127655000D02*
X103867000Y-127655000D01*
X98174000Y-127615000D02*
X103826000Y-127615000D01*
X98216000Y-127575000D02*
X103784000Y-127575000D01*
X98259000Y-127535000D02*
X103741000Y-127535000D01*
X98285000Y-134584698D02*
X99085000Y-134584698D01*
X98304000Y-127495000D02*
X103696000Y-127495000D01*
X98349000Y-127455000D02*
X103651000Y-127455000D01*
X98396000Y-127415000D02*
X103604000Y-127415000D01*
X98445000Y-127375000D02*
X103555000Y-127375000D01*
X98495000Y-127335000D02*
X103505000Y-127335000D01*
X98547000Y-127295000D02*
X103453000Y-127295000D01*
X98600000Y-127255000D02*
X103400000Y-127255000D01*
X98656000Y-127215000D02*
X103344000Y-127215000D01*
X98685000Y-134984698D02*
X98685000Y-134184698D01*
X98713000Y-127175000D02*
X103287000Y-127175000D01*
X98773000Y-127135000D02*
X103227000Y-127135000D01*
X98835000Y-127095000D02*
X103165000Y-127095000D01*
X98899000Y-127055000D02*
X103101000Y-127055000D01*
X98966000Y-127015000D02*
X103034000Y-127015000D01*
X99036000Y-126975000D02*
X102964000Y-126975000D01*
X99110000Y-126935000D02*
X102890000Y-126935000D01*
X99187000Y-126895000D02*
X102813000Y-126895000D01*
X99269000Y-126855000D02*
X102731000Y-126855000D01*
X99356000Y-126815000D02*
X102644000Y-126815000D01*
X99448000Y-126775000D02*
X102552000Y-126775000D01*
X99547000Y-126735000D02*
X102453000Y-126735000D01*
X99654000Y-126695000D02*
X102346000Y-126695000D01*
X99772000Y-126655000D02*
X102228000Y-126655000D01*
X99903000Y-126615000D02*
X102097000Y-126615000D01*
X100053000Y-126575000D02*
X101947000Y-126575000D01*
X100232000Y-126535000D02*
X101768000Y-126535000D01*
X100467000Y-126495000D02*
X101533000Y-126495000D01*
X102040000Y-127815000D02*
X104019000Y-127815000D01*
X102040000Y-127855000D02*
X104055000Y-127855000D01*
X102040000Y-127895000D02*
X104089000Y-127895000D01*
X102040000Y-127935000D02*
X104123000Y-127935000D01*
X102040000Y-127975000D02*
X104156000Y-127975000D01*
X102040000Y-128015000D02*
X104188000Y-128015000D01*
X102040000Y-128055000D02*
X104219000Y-128055000D01*
X102040000Y-128095000D02*
X104250000Y-128095000D01*
X102040000Y-128135000D02*
X104280000Y-128135000D01*
X102040000Y-128175000D02*
X104309000Y-128175000D01*
X102040000Y-128215000D02*
X104337000Y-128215000D01*
X102040000Y-128255000D02*
X104365000Y-128255000D01*
X102040000Y-128295000D02*
X104392000Y-128295000D01*
X102040000Y-128335000D02*
X104418000Y-128335000D01*
X102040000Y-128375000D02*
X104443000Y-128375000D01*
X102040000Y-128415000D02*
X104468000Y-128415000D01*
X102040000Y-128455000D02*
X104493000Y-128455000D01*
X102040000Y-128495000D02*
X104516000Y-128495000D01*
X102040000Y-128535000D02*
X104539000Y-128535000D01*
X102040000Y-128575000D02*
X104562000Y-128575000D01*
X102040000Y-128615000D02*
X104584000Y-128615000D01*
X102040000Y-128655000D02*
X104605000Y-128655000D01*
X102040000Y-128695000D02*
X104626000Y-128695000D01*
X102040000Y-128735000D02*
X104646000Y-128735000D01*
X102040000Y-128775000D02*
X104666000Y-128775000D01*
X102040000Y-128815000D02*
X104685000Y-128815000D01*
X102040000Y-128855000D02*
X104704000Y-128855000D01*
X102040000Y-128895000D02*
X104722000Y-128895000D01*
X102040000Y-128935000D02*
X104740000Y-128935000D01*
X102040000Y-128975000D02*
X104757000Y-128975000D01*
X102040000Y-129015000D02*
X104773000Y-129015000D01*
X102040000Y-129055000D02*
X104789000Y-129055000D01*
X102040000Y-129095000D02*
X104805000Y-129095000D01*
X102040000Y-129135000D02*
X104820000Y-129135000D01*
X102040000Y-129175000D02*
X104835000Y-129175000D01*
X102040000Y-129215000D02*
X104849000Y-129215000D01*
X102040000Y-129255000D02*
X104863000Y-129255000D01*
X102040000Y-129295000D02*
X104876000Y-129295000D01*
X102040000Y-129335000D02*
X104889000Y-129335000D01*
X102040000Y-129375000D02*
X104901000Y-129375000D01*
X102040000Y-129415000D02*
X104913000Y-129415000D01*
X102040000Y-129455000D02*
X104925000Y-129455000D01*
X102040000Y-129495000D02*
X104936000Y-129495000D01*
X102040000Y-129535000D02*
X104947000Y-129535000D01*
X102040000Y-129575000D02*
X104957000Y-129575000D01*
X102040000Y-129615000D02*
X104967000Y-129615000D01*
X102040000Y-129655000D02*
X104976000Y-129655000D01*
X102040000Y-129695000D02*
X104985000Y-129695000D01*
X102040000Y-129735000D02*
X104993000Y-129735000D01*
X102040000Y-129775000D02*
X105002000Y-129775000D01*
X102040000Y-129815000D02*
X105009000Y-129815000D01*
X102040000Y-129855000D02*
X105017000Y-129855000D01*
X105120000Y-130575000D02*
G75*
G02*
X96880000Y-130575000I-4120000J0D01*
G01*
X96880000Y-130575000D02*
G75*
G02*
X105120000Y-130575000I4120000J0D01*
G01*
%TO.C,R40*%
X129687258Y-104477500D02*
X129212742Y-104477500D01*
X129687258Y-105522500D02*
X129212742Y-105522500D01*
%TO.C,C37*%
X128140000Y-124538748D02*
X128140000Y-125961252D01*
X130860000Y-124538748D02*
X130860000Y-125961252D01*
%TO.C,TP11*%
X121700000Y-106500000D02*
G75*
G02*
X120300000Y-106500000I-700000J0D01*
G01*
X120300000Y-106500000D02*
G75*
G02*
X121700000Y-106500000I700000J0D01*
G01*
%TO.C,L2*%
X135349622Y-102340000D02*
X134550378Y-102340000D01*
X135349622Y-103460000D02*
X134550378Y-103460000D01*
%TO.C,R73*%
X106262742Y-110677500D02*
X106737258Y-110677500D01*
X106262742Y-111722500D02*
X106737258Y-111722500D01*
%TO.C,C43*%
X68190000Y-130538748D02*
X68190000Y-131961252D01*
X70910000Y-130538748D02*
X70910000Y-131961252D01*
%TO.C,R72*%
X98487258Y-110227500D02*
X98012742Y-110227500D01*
X98487258Y-111272500D02*
X98012742Y-111272500D01*
D14*
%TO.C,T5*%
X106450000Y-112050000D02*
X107650000Y-112050000D01*
D15*
%TO.C,C17*%
X146711252Y-121390000D02*
X145288748Y-121390000D01*
X146711252Y-124110000D02*
X145288748Y-124110000D01*
D14*
%TO.C,D13*%
X120375000Y-101900000D02*
X121525000Y-101900000D01*
X121875000Y-102000000D02*
X122625000Y-102000000D01*
X121875000Y-105000000D02*
X121875000Y-102000000D01*
X122625000Y-102000000D02*
X122625000Y-105000000D01*
X122625000Y-105000000D02*
X121875000Y-105000000D01*
D15*
%TO.C,R36*%
X142727500Y-129487258D02*
X142727500Y-129012742D01*
X143772500Y-129487258D02*
X143772500Y-129012742D01*
%TO.C,R59*%
X119227500Y-119262742D02*
X119227500Y-119737258D01*
X120272500Y-119262742D02*
X120272500Y-119737258D01*
%TO.C,J2*%
X103690000Y-94690000D02*
X103690000Y-95940000D01*
X103990000Y-94990000D02*
X103990000Y-101610000D01*
X103990000Y-98300000D02*
X105000000Y-98300000D01*
X103990000Y-101610000D02*
X126710000Y-101610000D01*
X104940000Y-94690000D02*
X103690000Y-94690000D01*
X105000000Y-96600000D02*
X125700000Y-96600000D01*
X105000000Y-98900000D02*
X105000000Y-96600000D01*
X106290000Y-94990000D02*
X103990000Y-94990000D01*
X106290000Y-95990000D02*
X106290000Y-94990000D01*
X110550000Y-94990000D02*
X110550000Y-95990000D01*
X110550000Y-95990000D02*
X106290000Y-95990000D01*
X112650000Y-94990000D02*
X110550000Y-94990000D01*
X112650000Y-95990000D02*
X112650000Y-94990000D01*
X114550000Y-95390000D02*
X114550000Y-95990000D01*
X114550000Y-95990000D02*
X112650000Y-95990000D01*
X116150000Y-95390000D02*
X114550000Y-95390000D01*
X116150000Y-95990000D02*
X116150000Y-95390000D01*
X118050000Y-94990000D02*
X118050000Y-95990000D01*
X118050000Y-95990000D02*
X116150000Y-95990000D01*
X120150000Y-94990000D02*
X118050000Y-94990000D01*
X120150000Y-95990000D02*
X120150000Y-94990000D01*
X124410000Y-94990000D02*
X124410000Y-95990000D01*
X124410000Y-95990000D02*
X120150000Y-95990000D01*
X125700000Y-96600000D02*
X125700000Y-100900000D01*
X125700000Y-100900000D02*
X105000000Y-100900000D01*
X126710000Y-94990000D02*
X124410000Y-94990000D01*
X126710000Y-98300000D02*
X125700000Y-98300000D01*
X126710000Y-101610000D02*
X126710000Y-94990000D01*
%TO.C,R52*%
X116477500Y-108362742D02*
X116477500Y-108837258D01*
X117522500Y-108362742D02*
X117522500Y-108837258D01*
%TO.C,C28*%
X138640000Y-104040580D02*
X138640000Y-103759420D01*
X139660000Y-104040580D02*
X139660000Y-103759420D01*
%TO.C,R42*%
X98677064Y-102765000D02*
X98222936Y-102765000D01*
X98677064Y-104235000D02*
X98222936Y-104235000D01*
%TO.C,C30*%
X134390000Y-129538748D02*
X134390000Y-130961252D01*
X137110000Y-129538748D02*
X137110000Y-130961252D01*
%TO.C,TP7*%
X123950000Y-133750000D02*
G75*
G02*
X122550000Y-133750000I-700000J0D01*
G01*
X122550000Y-133750000D02*
G75*
G02*
X123950000Y-133750000I700000J0D01*
G01*
%TO.C,R29*%
X115227500Y-105262742D02*
X115227500Y-105737258D01*
X116272500Y-105262742D02*
X116272500Y-105737258D01*
%TO.C,C31*%
X140455000Y-121138748D02*
X140455000Y-122561252D01*
X143175000Y-121138748D02*
X143175000Y-122561252D01*
%TO.C,D20*%
X106650000Y-105360000D02*
X106650000Y-102700000D01*
X106650000Y-105360000D02*
X108350000Y-105360000D01*
X108350000Y-105360000D02*
X108350000Y-102700000D01*
D14*
%TO.C,T2*%
X119850000Y-104250000D02*
X118650000Y-104250000D01*
D15*
%TO.C,R53*%
X117977500Y-108362742D02*
X117977500Y-108837258D01*
X119022500Y-108362742D02*
X119022500Y-108837258D01*
%TO.C,TP13*%
X102700000Y-105500000D02*
G75*
G02*
X101300000Y-105500000I-700000J0D01*
G01*
X101300000Y-105500000D02*
G75*
G02*
X102700000Y-105500000I700000J0D01*
G01*
%TO.C,R32*%
X133477500Y-109062258D02*
X133477500Y-108587742D01*
X134522500Y-109062258D02*
X134522500Y-108587742D01*
%TO.C,IC1*%
X107250000Y-105580000D02*
X109250000Y-105580000D01*
X108250000Y-108820000D02*
X111250000Y-108820000D01*
%TO.C,R45*%
X130877500Y-101487258D02*
X130877500Y-101012742D01*
X131922500Y-101487258D02*
X131922500Y-101012742D01*
%TO.C,R56*%
X115977500Y-117487258D02*
X115977500Y-117012742D01*
X117022500Y-117487258D02*
X117022500Y-117012742D01*
%TO.C,R55*%
X114477500Y-117487258D02*
X114477500Y-117012742D01*
X115522500Y-117487258D02*
X115522500Y-117012742D01*
%TO.C,R38*%
X142727500Y-132012742D02*
X142727500Y-132487258D01*
X143772500Y-132012742D02*
X143772500Y-132487258D01*
%TO.C,IC2*%
X114850000Y-110240000D02*
X112650000Y-110240000D01*
X114850000Y-110240000D02*
X117050000Y-110240000D01*
X114850000Y-115460000D02*
X112650000Y-115460000D01*
X114850000Y-115460000D02*
X117050000Y-115460000D01*
X111950000Y-110440000D02*
X111710000Y-110110000D01*
X112190000Y-110110000D01*
X111950000Y-110440000D01*
G36*
X111950000Y-110440000D02*
G01*
X111710000Y-110110000D01*
X112190000Y-110110000D01*
X111950000Y-110440000D01*
G37*
%TO.C,R39*%
X103777500Y-103987258D02*
X103777500Y-103512742D01*
X104822500Y-103987258D02*
X104822500Y-103512742D01*
%TO.C,R81*%
X113562258Y-105727500D02*
X113087742Y-105727500D01*
X113562258Y-106772500D02*
X113087742Y-106772500D01*
%TO.C,R64*%
X131477500Y-108587742D02*
X131477500Y-109062258D01*
X132522500Y-108587742D02*
X132522500Y-109062258D01*
%TO.C,R47*%
X135727500Y-125837742D02*
X135727500Y-126312258D01*
X136772500Y-125837742D02*
X136772500Y-126312258D01*
%TO.C,TPB2*%
X123500000Y-120900000D02*
G75*
G02*
X122100000Y-120900000I-700000J0D01*
G01*
X122100000Y-120900000D02*
G75*
G02*
X123500000Y-120900000I700000J0D01*
G01*
%TO.C,R43*%
X98677064Y-100865000D02*
X98222936Y-100865000D01*
X98677064Y-102335000D02*
X98222936Y-102335000D01*
%TO.C,R51*%
X137227500Y-126312258D02*
X137227500Y-125837742D01*
X138272500Y-126312258D02*
X138272500Y-125837742D01*
%TO.C,R35*%
X146989564Y-125090000D02*
X145535436Y-125090000D01*
X146989564Y-126910000D02*
X145535436Y-126910000D01*
%TO.C,TP1*%
X142200000Y-105250000D02*
G75*
G02*
X140800000Y-105250000I-700000J0D01*
G01*
X140800000Y-105250000D02*
G75*
G02*
X142200000Y-105250000I700000J0D01*
G01*
%TO.C,R46*%
X132727500Y-132987258D02*
X132727500Y-132512742D01*
X133772500Y-132987258D02*
X133772500Y-132512742D01*
%TO.C,TP14*%
X115700000Y-103000000D02*
G75*
G02*
X114300000Y-103000000I-700000J0D01*
G01*
X114300000Y-103000000D02*
G75*
G02*
X115700000Y-103000000I700000J0D01*
G01*
%TO.C,D21*%
X100860000Y-104650000D02*
X98200000Y-104650000D01*
X100860000Y-106350000D02*
X98200000Y-106350000D01*
X100860000Y-106350000D02*
X100860000Y-104650000D01*
%TO.C,R31*%
X133477500Y-112062258D02*
X133477500Y-111587742D01*
X134522500Y-112062258D02*
X134522500Y-111587742D01*
%TO.C,C101*%
X136420000Y-111283000D02*
X136420000Y-110217000D01*
X136460000Y-111518000D02*
X136460000Y-109982000D01*
X136500000Y-111697000D02*
X136500000Y-109803000D01*
X136540000Y-111847000D02*
X136540000Y-109653000D01*
X136580000Y-111978000D02*
X136580000Y-109522000D01*
X136620000Y-112096000D02*
X136620000Y-109404000D01*
X136660000Y-112203000D02*
X136660000Y-109297000D01*
X136700000Y-112302000D02*
X136700000Y-109198000D01*
X136740000Y-112394000D02*
X136740000Y-109106000D01*
X136780000Y-112481000D02*
X136780000Y-109019000D01*
X136820000Y-112563000D02*
X136820000Y-108937000D01*
X136860000Y-112640000D02*
X136860000Y-108860000D01*
X136900000Y-112714000D02*
X136900000Y-108786000D01*
X136940000Y-112784000D02*
X136940000Y-108716000D01*
X136980000Y-112851000D02*
X136980000Y-108649000D01*
X137020000Y-112915000D02*
X137020000Y-108585000D01*
X137060000Y-112977000D02*
X137060000Y-108523000D01*
X137100000Y-113037000D02*
X137100000Y-108463000D01*
X137140000Y-113094000D02*
X137140000Y-108406000D01*
X137180000Y-113150000D02*
X137180000Y-108350000D01*
X137220000Y-113203000D02*
X137220000Y-108297000D01*
X137260000Y-113255000D02*
X137260000Y-108245000D01*
X137300000Y-113305000D02*
X137300000Y-108195000D01*
X137340000Y-113354000D02*
X137340000Y-108146000D01*
X137380000Y-113401000D02*
X137380000Y-108099000D01*
X137420000Y-113446000D02*
X137420000Y-108054000D01*
X137460000Y-113491000D02*
X137460000Y-108009000D01*
X137500000Y-113534000D02*
X137500000Y-107966000D01*
X137540000Y-113576000D02*
X137540000Y-107924000D01*
X137580000Y-113617000D02*
X137580000Y-107883000D01*
X137620000Y-113656000D02*
X137620000Y-107844000D01*
X137660000Y-113695000D02*
X137660000Y-107805000D01*
X137700000Y-113732000D02*
X137700000Y-107768000D01*
X137740000Y-109710000D02*
X137740000Y-107731000D01*
X137740000Y-113769000D02*
X137740000Y-111790000D01*
X137780000Y-109710000D02*
X137780000Y-107695000D01*
X137780000Y-113805000D02*
X137780000Y-111790000D01*
X137820000Y-109710000D02*
X137820000Y-107661000D01*
X137820000Y-113839000D02*
X137820000Y-111790000D01*
X137860000Y-109710000D02*
X137860000Y-107627000D01*
X137860000Y-113873000D02*
X137860000Y-111790000D01*
X137900000Y-109710000D02*
X137900000Y-107594000D01*
X137900000Y-113906000D02*
X137900000Y-111790000D01*
X137940000Y-109710000D02*
X137940000Y-107562000D01*
X137940000Y-113938000D02*
X137940000Y-111790000D01*
X137980000Y-109710000D02*
X137980000Y-107531000D01*
X137980000Y-113969000D02*
X137980000Y-111790000D01*
X138020000Y-109710000D02*
X138020000Y-107500000D01*
X138020000Y-114000000D02*
X138020000Y-111790000D01*
X138060000Y-109710000D02*
X138060000Y-107470000D01*
X138060000Y-114030000D02*
X138060000Y-111790000D01*
X138100000Y-109710000D02*
X138100000Y-107441000D01*
X138100000Y-114059000D02*
X138100000Y-111790000D01*
X138140000Y-109710000D02*
X138140000Y-107413000D01*
X138140000Y-114087000D02*
X138140000Y-111790000D01*
X138180000Y-109710000D02*
X138180000Y-107385000D01*
X138180000Y-114115000D02*
X138180000Y-111790000D01*
X138220000Y-109710000D02*
X138220000Y-107358000D01*
X138220000Y-114142000D02*
X138220000Y-111790000D01*
X138260000Y-109710000D02*
X138260000Y-107332000D01*
X138260000Y-114168000D02*
X138260000Y-111790000D01*
X138300000Y-109710000D02*
X138300000Y-107307000D01*
X138300000Y-114193000D02*
X138300000Y-111790000D01*
X138340000Y-109710000D02*
X138340000Y-107282000D01*
X138340000Y-114218000D02*
X138340000Y-111790000D01*
X138380000Y-109710000D02*
X138380000Y-107257000D01*
X138380000Y-114243000D02*
X138380000Y-111790000D01*
X138420000Y-109710000D02*
X138420000Y-107234000D01*
X138420000Y-114266000D02*
X138420000Y-111790000D01*
X138460000Y-109710000D02*
X138460000Y-107211000D01*
X138460000Y-114289000D02*
X138460000Y-111790000D01*
X138500000Y-109710000D02*
X138500000Y-107188000D01*
X138500000Y-114312000D02*
X138500000Y-111790000D01*
X138540000Y-109710000D02*
X138540000Y-107166000D01*
X138540000Y-114334000D02*
X138540000Y-111790000D01*
X138580000Y-109710000D02*
X138580000Y-107145000D01*
X138580000Y-114355000D02*
X138580000Y-111790000D01*
X138620000Y-109710000D02*
X138620000Y-107124000D01*
X138620000Y-114376000D02*
X138620000Y-111790000D01*
X138660000Y-109710000D02*
X138660000Y-107104000D01*
X138660000Y-114396000D02*
X138660000Y-111790000D01*
X138700000Y-109710000D02*
X138700000Y-107084000D01*
X138700000Y-114416000D02*
X138700000Y-111790000D01*
X138740000Y-109710000D02*
X138740000Y-107065000D01*
X138740000Y-114435000D02*
X138740000Y-111790000D01*
X138780000Y-109710000D02*
X138780000Y-107046000D01*
X138780000Y-114454000D02*
X138780000Y-111790000D01*
X138820000Y-109710000D02*
X138820000Y-107028000D01*
X138820000Y-114472000D02*
X138820000Y-111790000D01*
X138860000Y-109710000D02*
X138860000Y-107010000D01*
X138860000Y-114490000D02*
X138860000Y-111790000D01*
X138900000Y-109710000D02*
X138900000Y-106993000D01*
X138900000Y-114507000D02*
X138900000Y-111790000D01*
X138940000Y-109710000D02*
X138940000Y-106977000D01*
X138940000Y-114523000D02*
X138940000Y-111790000D01*
X138980000Y-109710000D02*
X138980000Y-106961000D01*
X138980000Y-114539000D02*
X138980000Y-111790000D01*
X139020000Y-109710000D02*
X139020000Y-106945000D01*
X139020000Y-114555000D02*
X139020000Y-111790000D01*
X139060000Y-109710000D02*
X139060000Y-106930000D01*
X139060000Y-114570000D02*
X139060000Y-111790000D01*
X139100000Y-109710000D02*
X139100000Y-106915000D01*
X139100000Y-114585000D02*
X139100000Y-111790000D01*
X139140000Y-109710000D02*
X139140000Y-106901000D01*
X139140000Y-114599000D02*
X139140000Y-111790000D01*
X139180000Y-109710000D02*
X139180000Y-106887000D01*
X139180000Y-114613000D02*
X139180000Y-111790000D01*
X139220000Y-109710000D02*
X139220000Y-106874000D01*
X139220000Y-114626000D02*
X139220000Y-111790000D01*
X139260000Y-109710000D02*
X139260000Y-106861000D01*
X139260000Y-114639000D02*
X139260000Y-111790000D01*
X139300000Y-109710000D02*
X139300000Y-106849000D01*
X139300000Y-114651000D02*
X139300000Y-111790000D01*
X139340000Y-109710000D02*
X139340000Y-106837000D01*
X139340000Y-114663000D02*
X139340000Y-111790000D01*
X139380000Y-109710000D02*
X139380000Y-106825000D01*
X139380000Y-114675000D02*
X139380000Y-111790000D01*
X139420000Y-109710000D02*
X139420000Y-106814000D01*
X139420000Y-114686000D02*
X139420000Y-111790000D01*
X139460000Y-109710000D02*
X139460000Y-106803000D01*
X139460000Y-114697000D02*
X139460000Y-111790000D01*
X139500000Y-109710000D02*
X139500000Y-106793000D01*
X139500000Y-114707000D02*
X139500000Y-111790000D01*
X139540000Y-109710000D02*
X139540000Y-106783000D01*
X139540000Y-114717000D02*
X139540000Y-111790000D01*
X139580000Y-109710000D02*
X139580000Y-106774000D01*
X139580000Y-114726000D02*
X139580000Y-111790000D01*
X139620000Y-109710000D02*
X139620000Y-106765000D01*
X139620000Y-114735000D02*
X139620000Y-111790000D01*
X139660000Y-109710000D02*
X139660000Y-106757000D01*
X139660000Y-114743000D02*
X139660000Y-111790000D01*
X139700000Y-109710000D02*
X139700000Y-106748000D01*
X139700000Y-114752000D02*
X139700000Y-111790000D01*
X139740000Y-109710000D02*
X139740000Y-106741000D01*
X139740000Y-114759000D02*
X139740000Y-111790000D01*
X139780000Y-109710000D02*
X139780000Y-106733000D01*
X139780000Y-114767000D02*
X139780000Y-111790000D01*
X139820000Y-114773000D02*
X139820000Y-106727000D01*
X139860000Y-114780000D02*
X139860000Y-106720000D01*
X139900000Y-114786000D02*
X139900000Y-106714000D01*
X139940000Y-114792000D02*
X139940000Y-106708000D01*
X139980000Y-114797000D02*
X139980000Y-106703000D01*
X140020000Y-114802000D02*
X140020000Y-106698000D01*
X140060000Y-114806000D02*
X140060000Y-106694000D01*
X140100000Y-114811000D02*
X140100000Y-106689000D01*
X140140000Y-114814000D02*
X140140000Y-106686000D01*
X140180000Y-114818000D02*
X140180000Y-106682000D01*
X140220000Y-114820000D02*
X140220000Y-106680000D01*
X140260000Y-114823000D02*
X140260000Y-106677000D01*
X140300000Y-114825000D02*
X140300000Y-106675000D01*
X140340000Y-114827000D02*
X140340000Y-106673000D01*
X140380000Y-114828000D02*
X140380000Y-106672000D01*
X140420000Y-114829000D02*
X140420000Y-106671000D01*
X140460000Y-114830000D02*
X140460000Y-106670000D01*
X140500000Y-114830000D02*
X140500000Y-106670000D01*
X144509698Y-113465000D02*
X144509698Y-112665000D01*
X144909698Y-113065000D02*
X144109698Y-113065000D01*
X144620000Y-110750000D02*
G75*
G02*
X136380000Y-110750000I-4120000J0D01*
G01*
X136380000Y-110750000D02*
G75*
G02*
X144620000Y-110750000I4120000J0D01*
G01*
%TO.C,D17*%
X115400000Y-129860000D02*
X115400000Y-127200000D01*
X115400000Y-129860000D02*
X117100000Y-129860000D01*
X117100000Y-129860000D02*
X117100000Y-127200000D01*
%TO.C,R82*%
X113227500Y-103512742D02*
X113227500Y-103987258D01*
X114272500Y-103512742D02*
X114272500Y-103987258D01*
%TO.C,C29*%
X137140000Y-104040580D02*
X137140000Y-103759420D01*
X138160000Y-104040580D02*
X138160000Y-103759420D01*
%TO.C,R62*%
X107762742Y-114777500D02*
X108237258Y-114777500D01*
X107762742Y-115822500D02*
X108237258Y-115822500D01*
%TO.C,C56*%
X99640000Y-131436252D02*
X99640000Y-130013748D01*
X102360000Y-131436252D02*
X102360000Y-130013748D01*
D14*
%TO.C,D14*%
X132675000Y-104050000D02*
X133425000Y-104050000D01*
X132675000Y-107050000D02*
X132675000Y-104050000D01*
X133425000Y-104050000D02*
X133425000Y-107050000D01*
X133425000Y-107050000D02*
X132675000Y-107050000D01*
X134925000Y-107150000D02*
X133775000Y-107150000D01*
D15*
%TO.C,R44*%
X129377500Y-101487258D02*
X129377500Y-101012742D01*
X130422500Y-101487258D02*
X130422500Y-101012742D01*
%TO.C,D19*%
X99900000Y-106390000D02*
X99900000Y-109050000D01*
X101600000Y-106390000D02*
X99900000Y-106390000D01*
X101600000Y-106390000D02*
X101600000Y-109050000D01*
%TO.C,C16*%
X146711252Y-117890000D02*
X145288748Y-117890000D01*
X146711252Y-120610000D02*
X145288748Y-120610000D01*
%TO.C,R79*%
X111977500Y-108737258D02*
X111977500Y-108262742D01*
X113022500Y-108737258D02*
X113022500Y-108262742D01*
%TO.C,R54*%
X120737258Y-127977500D02*
X120262742Y-127977500D01*
X120737258Y-129022500D02*
X120262742Y-129022500D01*
%TO.C,R37*%
X139727500Y-132012742D02*
X139727500Y-132487258D01*
X140772500Y-132012742D02*
X140772500Y-132487258D01*
%TO.C,R76*%
X105277500Y-103987258D02*
X105277500Y-103512742D01*
X106322500Y-103987258D02*
X106322500Y-103512742D01*
%TO.C,R77*%
X109727500Y-110687258D02*
X109727500Y-110212742D01*
X110772500Y-110687258D02*
X110772500Y-110212742D01*
%TO.C,TP6*%
X125350000Y-122550000D02*
G75*
G02*
X123950000Y-122550000I-700000J0D01*
G01*
X123950000Y-122550000D02*
G75*
G02*
X125350000Y-122550000I700000J0D01*
G01*
%TO.C,C57*%
X112740000Y-117390580D02*
X112740000Y-117109420D01*
X113760000Y-117390580D02*
X113760000Y-117109420D01*
D14*
%TO.C,J5*%
X127050000Y-99500000D02*
X127050000Y-96700000D01*
X129000000Y-95000000D02*
X136950000Y-95000000D01*
X136950000Y-95000000D02*
X136950000Y-99500000D01*
X136950000Y-99500000D02*
X127050000Y-99500000D01*
D15*
%TO.C,J3*%
X134893300Y-114615000D02*
X135528300Y-114615000D01*
X135528300Y-114615000D02*
X135528300Y-115250000D01*
%TO.C,R57*%
X126637258Y-105727500D02*
X126162742Y-105727500D01*
X126637258Y-106772500D02*
X126162742Y-106772500D01*
%TO.C,R61*%
X109727500Y-117487258D02*
X109727500Y-117012742D01*
X110772500Y-117487258D02*
X110772500Y-117012742D01*
%TO.C,R33*%
X133487258Y-118477500D02*
X133012742Y-118477500D01*
X133487258Y-119522500D02*
X133012742Y-119522500D01*
%TO.C,R58*%
X111227500Y-117012742D02*
X111227500Y-117487258D01*
X112272500Y-117012742D02*
X112272500Y-117487258D01*
%TO.C,D12*%
X134765000Y-107340000D02*
X134765000Y-109625000D01*
X136235000Y-107340000D02*
X134765000Y-107340000D01*
X136235000Y-109625000D02*
X136235000Y-107340000D01*
%TO.C,R41*%
X129687258Y-102977500D02*
X129212742Y-102977500D01*
X129687258Y-104022500D02*
X129212742Y-104022500D01*
%TO.C,R78*%
X110227500Y-103987258D02*
X110227500Y-103512742D01*
X111272500Y-103987258D02*
X111272500Y-103512742D01*
D14*
%TO.C,J1*%
X137750000Y-95100000D02*
X150250000Y-95100000D01*
X137750000Y-101500000D02*
X137750000Y-95100000D01*
D12*
X140250000Y-94500000D02*
X140250000Y-94500000D01*
X140250000Y-94600000D02*
X140250000Y-94600000D01*
D14*
X150250000Y-95100000D02*
X150250000Y-101500000D01*
X150250000Y-101500000D02*
X137750000Y-101500000D01*
D12*
X140250000Y-94500000D02*
G75*
G02*
X140250000Y-94600000I0J-50000D01*
G01*
X140250000Y-94600000D02*
G75*
G02*
X140250000Y-94500000I0J50000D01*
G01*
D15*
%TO.C,R49*%
X129727500Y-132512742D02*
X129727500Y-132987258D01*
X130772500Y-132512742D02*
X130772500Y-132987258D01*
%TO.C,R50*%
X134227500Y-125837742D02*
X134227500Y-126312258D01*
X135272500Y-125837742D02*
X135272500Y-126312258D01*
%TO.C,TP3*%
X142200000Y-126000000D02*
G75*
G02*
X140800000Y-126000000I-700000J0D01*
G01*
X140800000Y-126000000D02*
G75*
G02*
X142200000Y-126000000I700000J0D01*
G01*
%TO.C,C47*%
X74690000Y-130538748D02*
X74690000Y-131961252D01*
X77410000Y-130538748D02*
X77410000Y-131961252D01*
%TO.C,F2*%
X133847936Y-99990000D02*
X135052064Y-99990000D01*
X133847936Y-101810000D02*
X135052064Y-101810000D01*
D14*
%TO.C,T4*%
X106900000Y-119350000D02*
X106900000Y-118150000D01*
D15*
%TO.C,R69*%
X101977500Y-108487258D02*
X101977500Y-108012742D01*
X103022500Y-108487258D02*
X103022500Y-108012742D01*
%TO.C,TP12*%
X148700000Y-122800000D02*
X151100000Y-122800000D01*
X148700000Y-125200000D02*
X148700000Y-122800000D01*
X151100000Y-122800000D02*
X151100000Y-125200000D01*
X151100000Y-125200000D02*
X148700000Y-125200000D01*
%TO.C,TP10*%
X111700000Y-128500000D02*
G75*
G02*
X110300000Y-128500000I-700000J0D01*
G01*
X110300000Y-128500000D02*
G75*
G02*
X111700000Y-128500000I700000J0D01*
G01*
%TO.C,C45*%
X71440000Y-130538748D02*
X71440000Y-131961252D01*
X74160000Y-130538748D02*
X74160000Y-131961252D01*
%TO.C,R30*%
X126087258Y-101927500D02*
X125612742Y-101927500D01*
X126087258Y-102972500D02*
X125612742Y-102972500D01*
%TD*%
M02*
