%TF.GenerationSoftware,KiCad,Pcbnew,9.0.7*%
%TF.CreationDate,2026-04-16T17:11:48-05:00*%
%TF.ProjectId,OSLUV,4f534c55-562e-46b6-9963-61645f706362,01*%
%TF.SameCoordinates,PX2faf080PY5a995c0*%
%TF.FileFunction,Profile,NP*%
%FSLAX46Y46*%
G04 Gerber Fmt 4.6, Leading zero omitted, Abs format (unit mm)*
G04 Created by KiCad (PCBNEW 9.0.7) date 2026-04-16 17:11:48*
%MOMM*%
%LPD*%
G01*
G04 APERTURE LIST*
%TA.AperFunction,Profile*%
%ADD10C,0.050000*%
%TD*%
G04 APERTURE END LIST*
D10*
X160000000Y-95000000D02*
X160000000Y-135000000D01*
X89500000Y-100600000D02*
G75*
G02*
X89500000Y-99600000I0J500000D01*
G01*
X90000000Y-100600000D02*
X89500000Y-100600000D01*
X55600000Y-131000000D02*
G75*
G02*
X52400000Y-131000000I-1600000J0D01*
G01*
X52400000Y-131000000D02*
G75*
G02*
X55600000Y-131000000I1600000J0D01*
G01*
X70000000Y-99000000D02*
X70000000Y-102500000D01*
X50500000Y-109500000D02*
X50000000Y-109500000D01*
X90000000Y-108600000D02*
X89400000Y-108600000D01*
X76500000Y-109000000D02*
G75*
G02*
X75000000Y-110500000I-1500000J0D01*
G01*
X84600000Y-99000000D02*
G75*
G02*
X81400000Y-99000000I-1600000J0D01*
G01*
X81400000Y-99000000D02*
G75*
G02*
X84600000Y-99000000I1600000J0D01*
G01*
X75500000Y-109000000D02*
G75*
G02*
X75000000Y-109500000I-500000J0D01*
G01*
X71000000Y-102500000D02*
X71000000Y-99000000D01*
X69500000Y-97500000D02*
G75*
G02*
X71000000Y-99000000I0J-1500000D01*
G01*
X90000000Y-109600000D02*
X89400000Y-109600000D01*
X75500000Y-109000000D02*
X75500000Y-104500000D01*
X75000000Y-110500000D02*
X50000000Y-110500000D01*
X69500000Y-97500000D02*
X65000000Y-97500000D01*
X50500000Y-109500000D02*
X75000000Y-109500000D01*
X50000000Y-135000000D02*
X160000000Y-135000000D01*
X50000000Y-95000000D02*
X160000000Y-95000000D01*
X71000000Y-102500000D02*
G75*
G02*
X70000000Y-102500000I-500000J0D01*
G01*
X90000000Y-99600000D02*
G75*
G02*
X90000000Y-109600000I0J-5000000D01*
G01*
X90000000Y-99600000D02*
X89500000Y-99600000D01*
X89400000Y-109600000D02*
G75*
G02*
X89400000Y-108600000I0J500000D01*
G01*
X69500000Y-98500000D02*
G75*
G02*
X70000000Y-99000000I0J-500000D01*
G01*
X75500000Y-104500000D02*
G75*
G02*
X76500000Y-104500000I500000J0D01*
G01*
X65000000Y-98500000D02*
X69500000Y-98500000D01*
X65000000Y-98500000D02*
G75*
G02*
X65000000Y-97500000I0J500000D01*
G01*
X90000000Y-100600000D02*
G75*
G02*
X90000000Y-108600000I0J-4000000D01*
G01*
X50000000Y-110500000D02*
X50000000Y-135000000D01*
X76500000Y-104500000D02*
X76500000Y-109000000D01*
X50000000Y-109500000D02*
X50000000Y-109000000D01*
X50000000Y-95000000D02*
X50000000Y-109000000D01*
%TO.C,H3*%
X157600000Y-99000000D02*
G75*
G02*
X154400000Y-99000000I-1600000J0D01*
G01*
X154400000Y-99000000D02*
G75*
G02*
X157600000Y-99000000I1600000J0D01*
G01*
%TO.C,H4*%
X157600000Y-131000000D02*
G75*
G02*
X154400000Y-131000000I-1600000J0D01*
G01*
X154400000Y-131000000D02*
G75*
G02*
X157600000Y-131000000I1600000J0D01*
G01*
%TD*%
M02*
