%TF.GenerationSoftware,KiCad,Pcbnew,9.0.7*%
%TF.CreationDate,2026-04-16T17:11:48-05:00*%
%TF.ProjectId,OSLUV,4f534c55-562e-46b6-9963-61645f706362,01*%
%TF.SameCoordinates,PX2faf080PY5a995c0*%
%TF.FileFunction,Copper,L2,Inr*%
%TF.FilePolarity,Positive*%
%FSLAX46Y46*%
G04 Gerber Fmt 4.6, Leading zero omitted, Abs format (unit mm)*
G04 Created by KiCad (PCBNEW 9.0.7) date 2026-04-16 17:11:48*
%MOMM*%
%LPD*%
G01*
G04 APERTURE LIST*
G04 Aperture macros list*
%AMRoundRect*
0 Rectangle with rounded corners*
0 $1 Rounding radius*
0 $2 $3 $4 $5 $6 $7 $8 $9 X,Y pos of 4 corners*
0 Add a 4 corners polygon primitive as box body*
4,1,4,$2,$3,$4,$5,$6,$7,$8,$9,$2,$3,0*
0 Add four circle primitives for the rounded corners*
1,1,$1+$1,$2,$3*
1,1,$1+$1,$4,$5*
1,1,$1+$1,$6,$7*
1,1,$1+$1,$8,$9*
0 Add four rect primitives between the rounded corners*
20,1,$1+$1,$2,$3,$4,$5,0*
20,1,$1+$1,$4,$5,$6,$7,0*
20,1,$1+$1,$6,$7,$8,$9,0*
20,1,$1+$1,$8,$9,$2,$3,0*%
G04 Aperture macros list end*
%TA.AperFunction,ComponentPad*%
%ADD10O,1.905000X4.500000*%
%TD*%
%TA.AperFunction,ComponentPad*%
%ADD11C,2.500000*%
%TD*%
%TA.AperFunction,ComponentPad*%
%ADD12C,0.600000*%
%TD*%
%TA.AperFunction,ComponentPad*%
%ADD13C,2.600000*%
%TD*%
%TA.AperFunction,ComponentPad*%
%ADD14R,1.600000X1.600000*%
%TD*%
%TA.AperFunction,ComponentPad*%
%ADD15C,1.600000*%
%TD*%
%TA.AperFunction,ComponentPad*%
%ADD16RoundRect,0.250000X-0.600000X-0.725000X0.600000X-0.725000X0.600000X0.725000X-0.600000X0.725000X0*%
%TD*%
%TA.AperFunction,ComponentPad*%
%ADD17O,1.700000X1.950000*%
%TD*%
%TA.AperFunction,ComponentPad*%
%ADD18R,1.400000X1.100000*%
%TD*%
%TA.AperFunction,ComponentPad*%
%ADD19C,1.400000*%
%TD*%
%TA.AperFunction,ComponentPad*%
%ADD20C,1.000000*%
%TD*%
%TA.AperFunction,ComponentPad*%
%ADD21C,2.625000*%
%TD*%
%TA.AperFunction,ComponentPad*%
%ADD22R,2.000000X2.000000*%
%TD*%
%TA.AperFunction,ViaPad*%
%ADD23C,0.550000*%
%TD*%
%TA.AperFunction,ViaPad*%
%ADD24C,0.600000*%
%TD*%
%TA.AperFunction,Conductor*%
%ADD25C,2.000000*%
%TD*%
%TA.AperFunction,Conductor*%
%ADD26C,0.200000*%
%TD*%
%TA.AperFunction,Conductor*%
%ADD27C,1.000000*%
%TD*%
G04 APERTURE END LIST*
D10*
%TO.N,/excimerDriver/lampDriver/HV_Drain*%
%TO.C,T101*%
X102020000Y-123000000D03*
%TO.N,/excimerDriver/lampDriver/Source*%
X107100000Y-123000000D03*
X109640000Y-123000000D03*
%TO.N,Net-(T101-G)*%
X112180000Y-123000000D03*
%TD*%
D11*
%TO.N,GND*%
%TO.C,M1*%
X118200000Y-125300000D03*
X95800000Y-125300000D03*
%TD*%
D12*
%TO.N,/excimerDriver/EARTH*%
%TO.C,H3*%
X153000000Y-99000000D03*
X154000000Y-97000000D03*
X154000000Y-101000000D03*
X156000000Y-96000000D03*
X156000000Y-102000000D03*
X158000000Y-97000000D03*
X158000000Y-101000000D03*
X159000000Y-99000000D03*
%TD*%
D13*
%TO.N,/excimerDriver/lampDriver/Lamp_GND*%
%TO.C,J6*%
X53995500Y-117815100D03*
D11*
%TO.N,/excimerDriver/lampDriver/HV_Lamp*%
X53995500Y-101975101D03*
%TD*%
D14*
%TO.N,/excimerDriver/VDC_power*%
%TO.C,C42*%
X101000000Y-132325000D03*
D15*
%TO.N,GND*%
X101000000Y-128825000D03*
%TD*%
D16*
%TO.N,/excimerDriver/VDC*%
%TO.C,J2*%
X106600000Y-98300000D03*
D17*
%TO.N,GND*%
X109100000Y-98300000D03*
X111600000Y-98300000D03*
%TO.N,/excimerDriver/!REMOTE*%
X114100000Y-98300000D03*
%TO.N,/excimerDriver/Lamp_on_status*%
X116600000Y-98300000D03*
%TO.N,Net-(J2-Pad6)*%
X119100000Y-98300000D03*
%TO.N,Net-(J2-Pad7)*%
X121600000Y-98300000D03*
%TO.N,Net-(J2-Pad8)*%
X124100000Y-98300000D03*
%TD*%
D12*
%TO.N,/excimerDriver/EARTH*%
%TO.C,H4*%
X153000000Y-131000000D03*
X154000000Y-129000000D03*
X154000000Y-133000000D03*
X156000000Y-128000000D03*
X156000000Y-134000000D03*
X158000000Y-129000000D03*
X158000000Y-133000000D03*
X159000000Y-131000000D03*
%TD*%
D14*
%TO.N,/excimerDriver/24V_FUSE*%
%TO.C,C101*%
X142250000Y-110750000D03*
D15*
%TO.N,GND*%
X138750000Y-110750000D03*
%TD*%
D18*
%TO.N,Net-(J5-Pad1)*%
%TO.C,J5*%
X129000000Y-96700000D03*
D19*
%TO.N,Net-(J5-Pad2)*%
X131000000Y-96700000D03*
%TO.N,Net-(F2-Pad2)*%
X133000000Y-96700000D03*
%TO.N,GND*%
X135000000Y-96700000D03*
%TD*%
D20*
%TO.N,+3V3*%
%TO.C,J3*%
X134893300Y-115250000D03*
%TO.N,/excimerDriver/SWDIO*%
X134893300Y-116520000D03*
%TO.N,/excimerDriver/RESET*%
X133623300Y-115250000D03*
%TO.N,/excimerDriver/SWCLK*%
X133623300Y-116520000D03*
%TO.N,GND*%
X132353300Y-115250000D03*
%TO.N,unconnected-(J3-Pad6)*%
X132353300Y-116520000D03*
%TD*%
D21*
%TO.N,/excimerDriver/lampDriver/HV_Lamp*%
%TO.C,L101*%
X64800000Y-104580000D03*
%TO.N,GND*%
X64800000Y-119616800D03*
%TO.N,/excimerDriver/lampDriver/VDC_Trafo*%
X64800000Y-124900000D03*
%TO.N,/excimerDriver/lampDriver/HV_Drain*%
X90200000Y-124900000D03*
%TO.N,/excimerDriver/lampDriver/HV_Lamp{slash}2*%
X90200000Y-104580000D03*
%TD*%
D14*
%TO.N,/excimerDriver/VDC*%
%TO.C,J1*%
X140250000Y-98300000D03*
D15*
%TO.N,/excimerDriver/!REMOTE*%
X142750000Y-98300000D03*
%TO.N,/excimerDriver/Lamp_on_status*%
X145250000Y-98300000D03*
%TO.N,GND*%
X147750000Y-98300000D03*
%TD*%
D22*
%TO.N,GND*%
%TO.C,TP12*%
X149900000Y-124000000D03*
%TD*%
D23*
%TO.N,GND*%
X111250000Y-119250000D03*
D24*
X110800000Y-115300000D03*
X122250000Y-104000000D03*
D23*
X136000000Y-113500000D03*
X128500000Y-100750000D03*
D24*
X124600000Y-105300000D03*
D23*
X125000000Y-121000000D03*
D24*
X104500000Y-105500000D03*
D23*
X125750000Y-125500000D03*
X129000000Y-121250000D03*
X114250000Y-117250000D03*
X144750000Y-132750000D03*
X91750000Y-117062500D03*
X124500000Y-110250000D03*
X143500000Y-122250000D03*
X92500000Y-117062500D03*
X122500000Y-112500000D03*
X128000000Y-119250000D03*
X135500000Y-130500000D03*
X115500000Y-130000000D03*
X117500000Y-118750000D03*
X127000000Y-125500000D03*
X114750000Y-101000000D03*
X127250000Y-112500000D03*
X127750000Y-128550000D03*
X121500000Y-120750000D03*
X150500000Y-121500000D03*
X118300000Y-104200000D03*
X136250000Y-107250000D03*
X144250000Y-131250000D03*
X134750000Y-130275000D03*
X75800000Y-131500000D03*
D24*
X103250000Y-106850000D03*
D23*
X119250000Y-130525000D03*
X128750000Y-125500000D03*
X72800000Y-131500000D03*
X122500000Y-110250000D03*
X139500000Y-124500000D03*
X116750000Y-120250000D03*
X116556251Y-112143749D03*
X111500000Y-103500000D03*
X130250000Y-107750000D03*
X68800000Y-131500000D03*
X102000000Y-103700000D03*
X106425000Y-111975000D03*
X126122929Y-110872929D03*
X136200000Y-118600000D03*
X120250000Y-123750000D03*
X118500000Y-130500000D03*
X138500000Y-105322600D03*
X130000000Y-128500000D03*
X71800000Y-131500000D03*
X117000000Y-101000000D03*
D24*
X106000000Y-131000000D03*
X113500000Y-114300000D03*
D23*
X149500000Y-121500000D03*
X146000000Y-133500000D03*
X126500000Y-97000000D03*
X91000000Y-117062500D03*
X74800000Y-131500000D03*
X140700000Y-122200000D03*
X111000000Y-105500000D03*
D24*
X107000000Y-117900000D03*
D23*
X118350000Y-120750000D03*
X108750000Y-108850000D03*
X144500000Y-117500000D03*
X105500000Y-101250000D03*
X73800000Y-131500000D03*
X144250000Y-128000000D03*
X114750000Y-105500000D03*
X135500000Y-119900000D03*
X142500000Y-122250000D03*
X144500000Y-121000000D03*
X132500000Y-102750000D03*
X70800000Y-131500000D03*
D24*
X107750000Y-131000000D03*
D23*
X126650000Y-114350000D03*
X124000000Y-114250000D03*
X98250000Y-109500000D03*
X119261828Y-107075000D03*
X119500000Y-101000000D03*
X148027400Y-129000000D03*
X134500000Y-99250000D03*
D24*
X119300000Y-117700000D03*
D23*
X130000000Y-125500000D03*
X69800000Y-131500000D03*
X110000000Y-103500000D03*
D24*
X109250000Y-131000000D03*
D23*
%TO.N,+3V3*%
X127225000Y-122725000D03*
X131250000Y-107250000D03*
X100500000Y-104750000D03*
D24*
X122250371Y-101800000D03*
D23*
X121500000Y-120000000D03*
X134893300Y-114428897D03*
D24*
X115524000Y-118835952D03*
D23*
X113200000Y-112050000D03*
X148000000Y-131000000D03*
D24*
X121800000Y-127100000D03*
X109804020Y-115095980D03*
D23*
X132640800Y-105250000D03*
X124650000Y-122550000D03*
X127250000Y-113250000D03*
X117000000Y-107000000D03*
X127750000Y-104250000D03*
X137500000Y-102000000D03*
X107500000Y-108250000D03*
X126250000Y-122750000D03*
X127777400Y-106976745D03*
X111500000Y-109250000D03*
%TO.N,/excimerDriver/Isense_In*%
X124250000Y-113000000D03*
X140750000Y-128750000D03*
%TO.N,/excimerDriver/VDC_power*%
X85300000Y-132500000D03*
X143250000Y-125500000D03*
X140750000Y-126500000D03*
X84300000Y-131500000D03*
X85250000Y-130500000D03*
X140750000Y-125500000D03*
X84250000Y-132500000D03*
X84300000Y-130500000D03*
X143250000Y-126500000D03*
X85300000Y-131500000D03*
X142250000Y-125500000D03*
X142250000Y-126500000D03*
%TO.N,Net-(D18-A)*%
X113947789Y-131870457D03*
X115500000Y-113750000D03*
%TO.N,/excimerDriver/OCP*%
X112950000Y-110900000D03*
D24*
X109940000Y-113000000D03*
D23*
X116550000Y-110912500D03*
%TO.N,/excimerDriver/Usense_Lamp*%
X120500000Y-109000000D03*
X114152600Y-110500000D03*
X112962500Y-103712500D03*
%TO.N,/excimerDriver/SWDIO*%
X121500000Y-115472600D03*
%TO.N,/excimerDriver/temp_MOSFET*%
X126206468Y-115835098D03*
D24*
X118500000Y-117000000D03*
X116350000Y-123250000D03*
D23*
X116500000Y-114000000D03*
%TO.N,/excimerDriver/Status*%
X123250000Y-106777400D03*
X120770855Y-101775000D03*
%TO.N,/excimerDriver/PWM*%
X123500000Y-110250000D03*
X119500000Y-105972600D03*
D24*
%TO.N,/excimerDriver/SWCLK*%
X131500000Y-118580800D03*
D23*
X120778248Y-116735876D03*
%TO.N,/excimerDriver/UV_LED*%
X103250000Y-104750000D03*
X125500000Y-107250000D03*
%TO.N,/excimerDriver/24V_Sense*%
X127264735Y-111264735D03*
X144250000Y-132250000D03*
%TO.N,/excimerDriver/MCU_REMOTE*%
X129250000Y-116250000D03*
X132750000Y-107000000D03*
D24*
%TO.N,/excimerDriver/DRV*%
X122250000Y-128500000D03*
D23*
X120150000Y-117050000D03*
D24*
%TO.N,/excimerDriver/lampDriver/HV_Drain*%
X102263341Y-118403716D03*
D23*
%TO.N,/excimerDriver/Isense_Lamp*%
X102250000Y-106500000D03*
X122500000Y-109500000D03*
X110700000Y-110400000D03*
%TO.N,/excimerDriver/Isense_MOS*%
X113750000Y-118972600D03*
%TO.N,/excimerDriver/lampDriver/VDC_Trafo*%
X77750000Y-131000000D03*
X77750000Y-130250000D03*
X77750000Y-129500000D03*
%TO.N,/excimerDriver/24V_FUSE*%
X145000000Y-105500000D03*
X98500000Y-98500000D03*
%TO.N,/excimerDriver/VDC_filter*%
X138000000Y-122750000D03*
X136500000Y-127750000D03*
%TO.N,/excimerDriver/I2C_SCL*%
X129000000Y-101775000D03*
X121750000Y-114000000D03*
%TO.N,/excimerDriver/I2C_SDA*%
X121387816Y-114779216D03*
X129527400Y-105750000D03*
%TO.N,/excimerDriver/OCP_RESET*%
X121750000Y-112250000D03*
X108250000Y-119750000D03*
%TO.N,/excimerDriver/LED1*%
X130000000Y-114000000D03*
X133250000Y-108750000D03*
%TO.N,/excimerDriver/Lamp_on_status*%
X137750000Y-96277400D03*
%TO.N,/excimerDriver/!REMOTE*%
X137800000Y-99400000D03*
%TO.N,Net-(IC6-BST)*%
X135500216Y-124500000D03*
X134000000Y-126000000D03*
%TO.N,Net-(IC3-PA5)*%
X125450000Y-115600000D03*
X124685876Y-120371752D03*
%TO.N,Net-(IC2C-+)*%
X118700000Y-112750000D03*
X117750000Y-109425000D03*
%TD*%
D25*
%TO.N,/excimerDriver/lampDriver/HV_Drain*%
X90200000Y-124900000D02*
X90200000Y-124300000D01*
D26*
X102263341Y-118403716D02*
X102020000Y-118647057D01*
X102020000Y-118647057D02*
X102020000Y-123000000D01*
D25*
X94000000Y-120500000D02*
X99000000Y-120500000D01*
X90200000Y-124300000D02*
X94000000Y-120500000D01*
X101500000Y-123000000D02*
X102020000Y-123000000D01*
X99000000Y-120500000D02*
X101500000Y-123000000D01*
D27*
%TO.N,/excimerDriver/lampDriver/HV_Lamp*%
X64630000Y-104750000D02*
X64800000Y-104580000D01*
%TD*%
%TA.AperFunction,Conductor*%
%TO.N,GND*%
G36*
X139258571Y-95518093D02*
G01*
X139259816Y-95519162D01*
X139333940Y-95584167D01*
X139337531Y-95587531D01*
X139662468Y-95912468D01*
X139665832Y-95916059D01*
X139833453Y-96107194D01*
X139839441Y-96114998D01*
X139979313Y-96324331D01*
X139984232Y-96332850D01*
X140095580Y-96558641D01*
X140099344Y-96567729D01*
X140180267Y-96806120D01*
X140182813Y-96815621D01*
X140231928Y-97062540D01*
X140233212Y-97072293D01*
X140245972Y-97266982D01*
X140231577Y-97316367D01*
X140188807Y-97344945D01*
X140170933Y-97347100D01*
X139434944Y-97347100D01*
X139434942Y-97347101D01*
X139390340Y-97355972D01*
X139339767Y-97389764D01*
X139305972Y-97440342D01*
X139305971Y-97440343D01*
X139297100Y-97484942D01*
X139297100Y-99115055D01*
X139297101Y-99115057D01*
X139305972Y-99159659D01*
X139339764Y-99210232D01*
X139339765Y-99210232D01*
X139339766Y-99210234D01*
X139390342Y-99244028D01*
X139434943Y-99252900D01*
X140174801Y-99252899D01*
X140223138Y-99270492D01*
X140248858Y-99315041D01*
X140250000Y-99328099D01*
X140250000Y-105669111D01*
X140249839Y-105674029D01*
X140233212Y-105927706D01*
X140231928Y-105937459D01*
X140182813Y-106184378D01*
X140180267Y-106193879D01*
X140099344Y-106432270D01*
X140095580Y-106441358D01*
X139984232Y-106667149D01*
X139979313Y-106675668D01*
X139839441Y-106885001D01*
X139833453Y-106892805D01*
X139665832Y-107083940D01*
X139662468Y-107087531D01*
X137000000Y-109749999D01*
X137000000Y-109750000D01*
X137000000Y-111750000D01*
X138250000Y-113000000D01*
X138750000Y-113000000D01*
X141250000Y-115500000D01*
X148705026Y-122955026D01*
X148700000Y-122980301D01*
X148700000Y-123750000D01*
X148750000Y-123750000D01*
X148750000Y-124250000D01*
X148700000Y-124250000D01*
X148700000Y-125019698D01*
X148711603Y-125078034D01*
X148711604Y-125078035D01*
X148750000Y-125135498D01*
X148750000Y-127750000D01*
X151494463Y-124756039D01*
X151483212Y-124927706D01*
X151481928Y-124937459D01*
X151432813Y-125184378D01*
X151430267Y-125193879D01*
X151349345Y-125432266D01*
X151345581Y-125441354D01*
X151317644Y-125498004D01*
X151298537Y-125522350D01*
X151024237Y-125752515D01*
X151024225Y-125752526D01*
X150752526Y-126024225D01*
X150505518Y-126318598D01*
X150285123Y-126633356D01*
X150285111Y-126633374D01*
X150178712Y-126817663D01*
X150166762Y-126833237D01*
X150000000Y-127000000D01*
X149500000Y-127500000D01*
X148750000Y-128249999D01*
X148750000Y-129849089D01*
X148747438Y-129868552D01*
X148699715Y-130046656D01*
X148632989Y-130425083D01*
X148599500Y-130807862D01*
X148599500Y-131192137D01*
X148632989Y-131574916D01*
X148699715Y-131953343D01*
X148699717Y-131953350D01*
X148734948Y-132084835D01*
X148747438Y-132131446D01*
X148750000Y-132150909D01*
X148750000Y-132789940D01*
X148749768Y-132795840D01*
X148729447Y-133054043D01*
X148727601Y-133065698D01*
X148667830Y-133314659D01*
X148664184Y-133325882D01*
X148566201Y-133562434D01*
X148560844Y-133572948D01*
X148427062Y-133791260D01*
X148420126Y-133800806D01*
X148253844Y-133995499D01*
X148245499Y-134003844D01*
X148050806Y-134170126D01*
X148041260Y-134177062D01*
X147822948Y-134310844D01*
X147812434Y-134316201D01*
X147575882Y-134414184D01*
X147564659Y-134417830D01*
X147315698Y-134477601D01*
X147304043Y-134479447D01*
X147052194Y-134499268D01*
X147046294Y-134499500D01*
X140852172Y-134499500D01*
X140844801Y-134499138D01*
X140694403Y-134484324D01*
X140679945Y-134481448D01*
X140533999Y-134437176D01*
X140520379Y-134431534D01*
X140385879Y-134359642D01*
X140373622Y-134351453D01*
X140324139Y-134310844D01*
X140255721Y-134254695D01*
X140245304Y-134244278D01*
X140148546Y-134126377D01*
X140140357Y-134114120D01*
X140068465Y-133979620D01*
X140062823Y-133966000D01*
X140018551Y-133820054D01*
X140015675Y-133805596D01*
X140000362Y-133650122D01*
X140000000Y-133642751D01*
X140000000Y-132193666D01*
X143822100Y-132193666D01*
X143822100Y-132306334D01*
X143843970Y-132387955D01*
X143851261Y-132415164D01*
X143907594Y-132512735D01*
X143907598Y-132512741D01*
X143987258Y-132592401D01*
X143987261Y-132592403D01*
X143987263Y-132592405D01*
X144084837Y-132648739D01*
X144193666Y-132677900D01*
X144193669Y-132677900D01*
X144306331Y-132677900D01*
X144306334Y-132677900D01*
X144415163Y-132648739D01*
X144512737Y-132592405D01*
X144592405Y-132512737D01*
X144648739Y-132415163D01*
X144677900Y-132306334D01*
X144677900Y-132193666D01*
X144648739Y-132084837D01*
X144592405Y-131987263D01*
X144592403Y-131987261D01*
X144592401Y-131987258D01*
X144512741Y-131907598D01*
X144512735Y-131907594D01*
X144415164Y-131851261D01*
X144387955Y-131843970D01*
X144306334Y-131822100D01*
X144193666Y-131822100D01*
X144128368Y-131839596D01*
X144084835Y-131851261D01*
X143987264Y-131907594D01*
X143987258Y-131907598D01*
X143907598Y-131987258D01*
X143907594Y-131987264D01*
X143851261Y-132084835D01*
X143838772Y-132131446D01*
X143822100Y-132193666D01*
X140000000Y-132193666D01*
X140000000Y-130943666D01*
X147572100Y-130943666D01*
X147572100Y-131056334D01*
X147593970Y-131137955D01*
X147601261Y-131165164D01*
X147657594Y-131262735D01*
X147657598Y-131262741D01*
X147737258Y-131342401D01*
X147737261Y-131342403D01*
X147737263Y-131342405D01*
X147834837Y-131398739D01*
X147943666Y-131427900D01*
X147943669Y-131427900D01*
X148056331Y-131427900D01*
X148056334Y-131427900D01*
X148165163Y-131398739D01*
X148262737Y-131342405D01*
X148342405Y-131262737D01*
X148398739Y-131165163D01*
X148427900Y-131056334D01*
X148427900Y-130943666D01*
X148398739Y-130834837D01*
X148342405Y-130737263D01*
X148342403Y-130737261D01*
X148342401Y-130737258D01*
X148262741Y-130657598D01*
X148262735Y-130657594D01*
X148165164Y-130601261D01*
X148137955Y-130593970D01*
X148056334Y-130572100D01*
X147943666Y-130572100D01*
X147878368Y-130589596D01*
X147834835Y-130601261D01*
X147737264Y-130657594D01*
X147737258Y-130657598D01*
X147657598Y-130737258D01*
X147657594Y-130737264D01*
X147601261Y-130834835D01*
X147586680Y-130889251D01*
X147572100Y-130943666D01*
X140000000Y-130943666D01*
X140000000Y-128693666D01*
X140322100Y-128693666D01*
X140322100Y-128806334D01*
X140337126Y-128862410D01*
X140351261Y-128915164D01*
X140407594Y-129012735D01*
X140407598Y-129012741D01*
X140487258Y-129092401D01*
X140487261Y-129092403D01*
X140487263Y-129092405D01*
X140584837Y-129148739D01*
X140693666Y-129177900D01*
X140693669Y-129177900D01*
X140806331Y-129177900D01*
X140806334Y-129177900D01*
X140915163Y-129148739D01*
X141012737Y-129092405D01*
X141092405Y-129012737D01*
X141148739Y-128915163D01*
X141177900Y-128806334D01*
X141177900Y-128693666D01*
X141148739Y-128584837D01*
X141092405Y-128487263D01*
X141092403Y-128487261D01*
X141092401Y-128487258D01*
X141012741Y-128407598D01*
X141012735Y-128407594D01*
X140915164Y-128351261D01*
X140887955Y-128343970D01*
X140806334Y-128322100D01*
X140693666Y-128322100D01*
X140628368Y-128339596D01*
X140584835Y-128351261D01*
X140487264Y-128407594D01*
X140487258Y-128407598D01*
X140407598Y-128487258D01*
X140407594Y-128487264D01*
X140351261Y-128584835D01*
X140338259Y-128633361D01*
X140322100Y-128693666D01*
X140000000Y-128693666D01*
X140000000Y-128250000D01*
X139250000Y-127500000D01*
X138719670Y-127500000D01*
X136886290Y-127500000D01*
X136837952Y-127482407D01*
X136833126Y-127477984D01*
X136762737Y-127407595D01*
X136715232Y-127380168D01*
X136665164Y-127351261D01*
X136637955Y-127343970D01*
X136556334Y-127322100D01*
X136443666Y-127322100D01*
X136378368Y-127339596D01*
X136334835Y-127351261D01*
X136237264Y-127407594D01*
X136237262Y-127407595D01*
X136202073Y-127442784D01*
X136166883Y-127477974D01*
X136120265Y-127499714D01*
X136113710Y-127500000D01*
X127750000Y-127500000D01*
X122012980Y-127500000D01*
X122078087Y-127462410D01*
X122162410Y-127378087D01*
X122177898Y-127351261D01*
X122222036Y-127274813D01*
X122252900Y-127159625D01*
X122252900Y-127040375D01*
X122222036Y-126925187D01*
X122206766Y-126898739D01*
X122162410Y-126821912D01*
X122078087Y-126737589D01*
X121974813Y-126677964D01*
X121859625Y-126647100D01*
X121740375Y-126647100D01*
X121653984Y-126670248D01*
X121625186Y-126677964D01*
X121625185Y-126677964D01*
X121521912Y-126737589D01*
X121437589Y-126821912D01*
X121377964Y-126925185D01*
X121377964Y-126925186D01*
X121377964Y-126925187D01*
X121347100Y-127040375D01*
X121347100Y-127159625D01*
X121374356Y-127261349D01*
X121377964Y-127274813D01*
X121377964Y-127274814D01*
X121437589Y-127378087D01*
X121521912Y-127462410D01*
X121587020Y-127500000D01*
X120750000Y-127500000D01*
X120252618Y-127002618D01*
X120247661Y-126997150D01*
X120148546Y-126876377D01*
X120140357Y-126864120D01*
X120068465Y-126729620D01*
X120062823Y-126716000D01*
X120018551Y-126570054D01*
X120015675Y-126555596D01*
X120000362Y-126400122D01*
X120000000Y-126392751D01*
X120000000Y-125943666D01*
X133572100Y-125943666D01*
X133572100Y-126056334D01*
X133584279Y-126101786D01*
X133601261Y-126165164D01*
X133657594Y-126262735D01*
X133657598Y-126262741D01*
X133737258Y-126342401D01*
X133737261Y-126342403D01*
X133737263Y-126342405D01*
X133834837Y-126398739D01*
X133943666Y-126427900D01*
X133943669Y-126427900D01*
X134056331Y-126427900D01*
X134056334Y-126427900D01*
X134165163Y-126398739D01*
X134262737Y-126342405D01*
X134342405Y-126262737D01*
X134398739Y-126165163D01*
X134427900Y-126056334D01*
X134427900Y-125943666D01*
X134398739Y-125834837D01*
X134342405Y-125737263D01*
X134342403Y-125737261D01*
X134342401Y-125737258D01*
X134262741Y-125657598D01*
X134262735Y-125657594D01*
X134165164Y-125601261D01*
X134137955Y-125593970D01*
X134056334Y-125572100D01*
X133943666Y-125572100D01*
X133878368Y-125589596D01*
X133834835Y-125601261D01*
X133737264Y-125657594D01*
X133737258Y-125657598D01*
X133657598Y-125737258D01*
X133657594Y-125737264D01*
X133601261Y-125834835D01*
X133599234Y-125842401D01*
X133572100Y-125943666D01*
X120000000Y-125943666D01*
X120000000Y-125443666D01*
X140322100Y-125443666D01*
X140322100Y-125556334D01*
X140343970Y-125637955D01*
X140351261Y-125665164D01*
X140407594Y-125762735D01*
X140407598Y-125762741D01*
X140487258Y-125842401D01*
X140487261Y-125842403D01*
X140487263Y-125842405D01*
X140584837Y-125898739D01*
X140691661Y-125927362D01*
X140733797Y-125956867D01*
X140747111Y-126006554D01*
X140725371Y-126053174D01*
X140691661Y-126072637D01*
X140640782Y-126086270D01*
X140584835Y-126101261D01*
X140487264Y-126157594D01*
X140487258Y-126157598D01*
X140407598Y-126237258D01*
X140407594Y-126237264D01*
X140351261Y-126334835D01*
X140349234Y-126342401D01*
X140322100Y-126443666D01*
X140322100Y-126556334D01*
X140342738Y-126633356D01*
X140351261Y-126665164D01*
X140407594Y-126762735D01*
X140407598Y-126762741D01*
X140487258Y-126842401D01*
X140487261Y-126842403D01*
X140487263Y-126842405D01*
X140584837Y-126898739D01*
X140693666Y-126927900D01*
X140693669Y-126927900D01*
X140806331Y-126927900D01*
X140806334Y-126927900D01*
X140915163Y-126898739D01*
X141012737Y-126842405D01*
X141092405Y-126762737D01*
X141148739Y-126665163D01*
X141177900Y-126556334D01*
X141177900Y-126443666D01*
X141148739Y-126334837D01*
X141139363Y-126318598D01*
X141136833Y-126314216D01*
X141092405Y-126237263D01*
X141092403Y-126237261D01*
X141092401Y-126237258D01*
X141012741Y-126157598D01*
X141012735Y-126157594D01*
X140915164Y-126101261D01*
X140887190Y-126093765D01*
X140808337Y-126072636D01*
X140766202Y-126043133D01*
X140752888Y-125993446D01*
X140774628Y-125946826D01*
X140808336Y-125927363D01*
X140915163Y-125898739D01*
X141012737Y-125842405D01*
X141092405Y-125762737D01*
X141148739Y-125665163D01*
X141177900Y-125556334D01*
X141177900Y-125443666D01*
X141822100Y-125443666D01*
X141822100Y-125556334D01*
X141843970Y-125637955D01*
X141851261Y-125665164D01*
X141907594Y-125762735D01*
X141907598Y-125762741D01*
X141987258Y-125842401D01*
X141987261Y-125842403D01*
X141987263Y-125842405D01*
X142084837Y-125898739D01*
X142191661Y-125927362D01*
X142233797Y-125956867D01*
X142247111Y-126006554D01*
X142225371Y-126053174D01*
X142191661Y-126072637D01*
X142140782Y-126086270D01*
X142084835Y-126101261D01*
X141987264Y-126157594D01*
X141987258Y-126157598D01*
X141907598Y-126237258D01*
X141907594Y-126237264D01*
X141851261Y-126334835D01*
X141849234Y-126342401D01*
X141822100Y-126443666D01*
X141822100Y-126556334D01*
X141842738Y-126633356D01*
X141851261Y-126665164D01*
X141907594Y-126762735D01*
X141907598Y-126762741D01*
X141987258Y-126842401D01*
X141987261Y-126842403D01*
X141987263Y-126842405D01*
X142084837Y-126898739D01*
X142193666Y-126927900D01*
X142193669Y-126927900D01*
X142306331Y-126927900D01*
X142306334Y-126927900D01*
X142415163Y-126898739D01*
X142512737Y-126842405D01*
X142592405Y-126762737D01*
X142648739Y-126665163D01*
X142677363Y-126558337D01*
X142706867Y-126516202D01*
X142756554Y-126502888D01*
X142803174Y-126524628D01*
X142822636Y-126558336D01*
X142842738Y-126633356D01*
X142851261Y-126665164D01*
X142907594Y-126762735D01*
X142907598Y-126762741D01*
X142987258Y-126842401D01*
X142987261Y-126842403D01*
X142987263Y-126842405D01*
X143084837Y-126898739D01*
X143193666Y-126927900D01*
X143193669Y-126927900D01*
X143306331Y-126927900D01*
X143306334Y-126927900D01*
X143415163Y-126898739D01*
X143512737Y-126842405D01*
X143592405Y-126762737D01*
X143648739Y-126665163D01*
X143677900Y-126556334D01*
X143677900Y-126443666D01*
X143648739Y-126334837D01*
X143639363Y-126318598D01*
X143636833Y-126314216D01*
X143592405Y-126237263D01*
X143592403Y-126237261D01*
X143592401Y-126237258D01*
X143512741Y-126157598D01*
X143512735Y-126157594D01*
X143415164Y-126101261D01*
X143387190Y-126093765D01*
X143308337Y-126072636D01*
X143266202Y-126043133D01*
X143252888Y-125993446D01*
X143274628Y-125946826D01*
X143308336Y-125927363D01*
X143415163Y-125898739D01*
X143512737Y-125842405D01*
X143592405Y-125762737D01*
X143648739Y-125665163D01*
X143677900Y-125556334D01*
X143677900Y-125443666D01*
X143648739Y-125334837D01*
X143592405Y-125237263D01*
X143592403Y-125237261D01*
X143592401Y-125237258D01*
X143512741Y-125157598D01*
X143512735Y-125157594D01*
X143415164Y-125101261D01*
X143387955Y-125093970D01*
X143306334Y-125072100D01*
X143193666Y-125072100D01*
X143128368Y-125089596D01*
X143084835Y-125101261D01*
X142987264Y-125157594D01*
X142987258Y-125157598D01*
X142907598Y-125237258D01*
X142907594Y-125237264D01*
X142851261Y-125334835D01*
X142822638Y-125441660D01*
X142793133Y-125483797D01*
X142743446Y-125497111D01*
X142696826Y-125475371D01*
X142677362Y-125441660D01*
X142672477Y-125423431D01*
X142648739Y-125334837D01*
X142592405Y-125237263D01*
X142592403Y-125237261D01*
X142592401Y-125237258D01*
X142512741Y-125157598D01*
X142512735Y-125157594D01*
X142415164Y-125101261D01*
X142387955Y-125093970D01*
X142306334Y-125072100D01*
X142193666Y-125072100D01*
X142128368Y-125089596D01*
X142084835Y-125101261D01*
X141987264Y-125157594D01*
X141987258Y-125157598D01*
X141907598Y-125237258D01*
X141907594Y-125237264D01*
X141851261Y-125334835D01*
X141843934Y-125362182D01*
X141822100Y-125443666D01*
X141177900Y-125443666D01*
X141148739Y-125334837D01*
X141092405Y-125237263D01*
X141092403Y-125237261D01*
X141092401Y-125237258D01*
X141012741Y-125157598D01*
X141012735Y-125157594D01*
X140915164Y-125101261D01*
X140887955Y-125093970D01*
X140806334Y-125072100D01*
X140693666Y-125072100D01*
X140628368Y-125089596D01*
X140584835Y-125101261D01*
X140487264Y-125157594D01*
X140487258Y-125157598D01*
X140407598Y-125237258D01*
X140407594Y-125237264D01*
X140351261Y-125334835D01*
X140343934Y-125362182D01*
X140322100Y-125443666D01*
X120000000Y-125443666D01*
X120000000Y-124443666D01*
X135072316Y-124443666D01*
X135072316Y-124556334D01*
X135094186Y-124637955D01*
X135101477Y-124665164D01*
X135157810Y-124762735D01*
X135157814Y-124762741D01*
X135237474Y-124842401D01*
X135237477Y-124842403D01*
X135237479Y-124842405D01*
X135335053Y-124898739D01*
X135443882Y-124927900D01*
X135443885Y-124927900D01*
X135556547Y-124927900D01*
X135556550Y-124927900D01*
X135665379Y-124898739D01*
X135762953Y-124842405D01*
X135842621Y-124762737D01*
X135898955Y-124665163D01*
X135928116Y-124556334D01*
X135928116Y-124443666D01*
X135898955Y-124334837D01*
X135882887Y-124307007D01*
X135853699Y-124256451D01*
X135842621Y-124237263D01*
X135842619Y-124237261D01*
X135842617Y-124237258D01*
X135762957Y-124157598D01*
X135762951Y-124157594D01*
X135665380Y-124101261D01*
X135638171Y-124093970D01*
X135556550Y-124072100D01*
X135443882Y-124072100D01*
X135378584Y-124089596D01*
X135335051Y-124101261D01*
X135237480Y-124157594D01*
X135237474Y-124157598D01*
X135157814Y-124237258D01*
X135157810Y-124237264D01*
X135101477Y-124334835D01*
X135090295Y-124376569D01*
X135072316Y-124443666D01*
X120000000Y-124443666D01*
X120000000Y-122493666D01*
X124222100Y-122493666D01*
X124222100Y-122606334D01*
X124238147Y-122666221D01*
X124251261Y-122715164D01*
X124307594Y-122812735D01*
X124307598Y-122812741D01*
X124387258Y-122892401D01*
X124387261Y-122892403D01*
X124387263Y-122892405D01*
X124484837Y-122948739D01*
X124593666Y-122977900D01*
X124593669Y-122977900D01*
X124706331Y-122977900D01*
X124706334Y-122977900D01*
X124815163Y-122948739D01*
X124912737Y-122892405D01*
X124992405Y-122812737D01*
X125048739Y-122715163D01*
X125054499Y-122693666D01*
X125822100Y-122693666D01*
X125822100Y-122806334D01*
X125827896Y-122827964D01*
X125851261Y-122915164D01*
X125907594Y-123012735D01*
X125907598Y-123012741D01*
X125987258Y-123092401D01*
X125987261Y-123092403D01*
X125987263Y-123092405D01*
X126084837Y-123148739D01*
X126193666Y-123177900D01*
X126193669Y-123177900D01*
X126306331Y-123177900D01*
X126306334Y-123177900D01*
X126415163Y-123148739D01*
X126512737Y-123092405D01*
X126592405Y-123012737D01*
X126644812Y-122921965D01*
X126648738Y-122915165D01*
X126648739Y-122915162D01*
X126668212Y-122842486D01*
X126697716Y-122800352D01*
X126747403Y-122787038D01*
X126794023Y-122808777D01*
X126813486Y-122842487D01*
X126820864Y-122870023D01*
X126826261Y-122890164D01*
X126882594Y-122987735D01*
X126882598Y-122987741D01*
X126962258Y-123067401D01*
X126962261Y-123067403D01*
X126962263Y-123067405D01*
X127059837Y-123123739D01*
X127168666Y-123152900D01*
X127168669Y-123152900D01*
X127281331Y-123152900D01*
X127281334Y-123152900D01*
X127390163Y-123123739D01*
X127487737Y-123067405D01*
X127567405Y-122987737D01*
X127623739Y-122890163D01*
X127652900Y-122781334D01*
X127652900Y-122693666D01*
X137572100Y-122693666D01*
X137572100Y-122806334D01*
X137577896Y-122827964D01*
X137601261Y-122915164D01*
X137657594Y-123012735D01*
X137657598Y-123012741D01*
X137737258Y-123092401D01*
X137737261Y-123092403D01*
X137737263Y-123092405D01*
X137834837Y-123148739D01*
X137943666Y-123177900D01*
X137943669Y-123177900D01*
X138056331Y-123177900D01*
X138056334Y-123177900D01*
X138165163Y-123148739D01*
X138262737Y-123092405D01*
X138342405Y-123012737D01*
X138398739Y-122915163D01*
X138427900Y-122806334D01*
X138427900Y-122693666D01*
X138398739Y-122584837D01*
X138342405Y-122487263D01*
X138342403Y-122487261D01*
X138342401Y-122487258D01*
X138262741Y-122407598D01*
X138262735Y-122407594D01*
X138165164Y-122351261D01*
X138137955Y-122343970D01*
X138056334Y-122322100D01*
X137943666Y-122322100D01*
X137878368Y-122339596D01*
X137834835Y-122351261D01*
X137737264Y-122407594D01*
X137737258Y-122407598D01*
X137657598Y-122487258D01*
X137657594Y-122487264D01*
X137601261Y-122584835D01*
X137595501Y-122606334D01*
X137572100Y-122693666D01*
X127652900Y-122693666D01*
X127652900Y-122668666D01*
X127623739Y-122559837D01*
X127567405Y-122462263D01*
X127567403Y-122462261D01*
X127567401Y-122462258D01*
X127487741Y-122382598D01*
X127487735Y-122382594D01*
X127390164Y-122326261D01*
X127362955Y-122318970D01*
X127281334Y-122297100D01*
X127168666Y-122297100D01*
X127103368Y-122314596D01*
X127059835Y-122326261D01*
X126962264Y-122382594D01*
X126962258Y-122382598D01*
X126882598Y-122462258D01*
X126882594Y-122462264D01*
X126826260Y-122559837D01*
X126806787Y-122632511D01*
X126777282Y-122674648D01*
X126727595Y-122687961D01*
X126680975Y-122666221D01*
X126661513Y-122632511D01*
X126648739Y-122584837D01*
X126592405Y-122487263D01*
X126592403Y-122487261D01*
X126592401Y-122487258D01*
X126512741Y-122407598D01*
X126512735Y-122407594D01*
X126415164Y-122351261D01*
X126387955Y-122343970D01*
X126306334Y-122322100D01*
X126193666Y-122322100D01*
X126128368Y-122339596D01*
X126084835Y-122351261D01*
X125987264Y-122407594D01*
X125987258Y-122407598D01*
X125907598Y-122487258D01*
X125907594Y-122487264D01*
X125851261Y-122584835D01*
X125845501Y-122606334D01*
X125822100Y-122693666D01*
X125054499Y-122693666D01*
X125077900Y-122606334D01*
X125077900Y-122493666D01*
X125048739Y-122384837D01*
X124992405Y-122287263D01*
X124992403Y-122287261D01*
X124992401Y-122287258D01*
X124912741Y-122207598D01*
X124912735Y-122207594D01*
X124815164Y-122151261D01*
X124787955Y-122143970D01*
X124706334Y-122122100D01*
X124593666Y-122122100D01*
X124528368Y-122139596D01*
X124484835Y-122151261D01*
X124387264Y-122207594D01*
X124387258Y-122207598D01*
X124307598Y-122287258D01*
X124307594Y-122287264D01*
X124251261Y-122384835D01*
X124245163Y-122407594D01*
X124222100Y-122493666D01*
X120000000Y-122493666D01*
X120000000Y-122250000D01*
X119000000Y-121250000D01*
X118292893Y-121250000D01*
X116628696Y-121250000D01*
X116621325Y-121249638D01*
X116455748Y-121233329D01*
X116441290Y-121230453D01*
X116285631Y-121183235D01*
X116272011Y-121177593D01*
X116128560Y-121100916D01*
X116116303Y-121092727D01*
X115987684Y-120987173D01*
X115982216Y-120982216D01*
X115000000Y-120000000D01*
X114171573Y-120000000D01*
X108724010Y-120000000D01*
X108675672Y-119982407D01*
X108653305Y-119943666D01*
X121072100Y-119943666D01*
X121072100Y-120056334D01*
X121093970Y-120137955D01*
X121101261Y-120165164D01*
X121125177Y-120206587D01*
X121157594Y-120262736D01*
X121157598Y-120262741D01*
X121237258Y-120342401D01*
X121237261Y-120342403D01*
X121237263Y-120342405D01*
X121334837Y-120398739D01*
X121443666Y-120427900D01*
X121443669Y-120427900D01*
X121556331Y-120427900D01*
X121556334Y-120427900D01*
X121665163Y-120398739D01*
X121762737Y-120342405D01*
X121789724Y-120315418D01*
X124257976Y-120315418D01*
X124257976Y-120428086D01*
X124279846Y-120509707D01*
X124287137Y-120536916D01*
X124343470Y-120634487D01*
X124343474Y-120634493D01*
X124423134Y-120714153D01*
X124423137Y-120714155D01*
X124423139Y-120714157D01*
X124520713Y-120770491D01*
X124629542Y-120799652D01*
X124629545Y-120799652D01*
X124742207Y-120799652D01*
X124742210Y-120799652D01*
X124851039Y-120770491D01*
X124948613Y-120714157D01*
X125028281Y-120634489D01*
X125084615Y-120536915D01*
X125113776Y-120428086D01*
X125113776Y-120315418D01*
X125084615Y-120206589D01*
X125028281Y-120109015D01*
X125028279Y-120109013D01*
X125028277Y-120109010D01*
X124948617Y-120029350D01*
X124948611Y-120029346D01*
X124851040Y-119973013D01*
X124823831Y-119965722D01*
X124742210Y-119943852D01*
X124629542Y-119943852D01*
X124564244Y-119961348D01*
X124520711Y-119973013D01*
X124423140Y-120029346D01*
X124423134Y-120029350D01*
X124343474Y-120109010D01*
X124343470Y-120109016D01*
X124287137Y-120206587D01*
X124272556Y-120261003D01*
X124257976Y-120315418D01*
X121789724Y-120315418D01*
X121842405Y-120262737D01*
X121898739Y-120165163D01*
X121927900Y-120056334D01*
X121927900Y-119943666D01*
X121898739Y-119834837D01*
X121842405Y-119737263D01*
X121842403Y-119737261D01*
X121842401Y-119737258D01*
X121762741Y-119657598D01*
X121762735Y-119657594D01*
X121665164Y-119601261D01*
X121637955Y-119593970D01*
X121556334Y-119572100D01*
X121443666Y-119572100D01*
X121378949Y-119589441D01*
X121334835Y-119601261D01*
X121237264Y-119657594D01*
X121237258Y-119657598D01*
X121157598Y-119737258D01*
X121157594Y-119737264D01*
X121101261Y-119834835D01*
X121089960Y-119877013D01*
X121072100Y-119943666D01*
X108653305Y-119943666D01*
X108649952Y-119937858D01*
X108651372Y-119905337D01*
X108667246Y-119846095D01*
X108677900Y-119806334D01*
X108677900Y-119693666D01*
X108648739Y-119584837D01*
X108592405Y-119487263D01*
X108592403Y-119487261D01*
X108592401Y-119487258D01*
X108512741Y-119407598D01*
X108512735Y-119407594D01*
X108415164Y-119351261D01*
X108387955Y-119343970D01*
X108306334Y-119322100D01*
X108193666Y-119322100D01*
X108128368Y-119339596D01*
X108084835Y-119351261D01*
X107987264Y-119407594D01*
X107987258Y-119407598D01*
X107907598Y-119487258D01*
X107907594Y-119487264D01*
X107851261Y-119584835D01*
X107850027Y-119589441D01*
X107822100Y-119693666D01*
X107822100Y-119806334D01*
X107830933Y-119839299D01*
X107841038Y-119877013D01*
X107836554Y-119928257D01*
X107800180Y-119964630D01*
X107753729Y-119970230D01*
X107565621Y-119932813D01*
X107556120Y-119930267D01*
X107317729Y-119849344D01*
X107308641Y-119845580D01*
X107286852Y-119834835D01*
X107082850Y-119734232D01*
X107074331Y-119729313D01*
X106864998Y-119589441D01*
X106857194Y-119583453D01*
X106666059Y-119415832D01*
X106662468Y-119412468D01*
X106166266Y-118916266D01*
X113322100Y-118916266D01*
X113322100Y-119028934D01*
X113343970Y-119110555D01*
X113351261Y-119137764D01*
X113407594Y-119235335D01*
X113407598Y-119235341D01*
X113487258Y-119315001D01*
X113487261Y-119315003D01*
X113487263Y-119315005D01*
X113584837Y-119371339D01*
X113693666Y-119400500D01*
X113693669Y-119400500D01*
X113806331Y-119400500D01*
X113806334Y-119400500D01*
X113915163Y-119371339D01*
X114012737Y-119315005D01*
X114092405Y-119235337D01*
X114148739Y-119137763D01*
X114177900Y-119028934D01*
X114177900Y-118916266D01*
X114148739Y-118807437D01*
X114130778Y-118776327D01*
X115071100Y-118776327D01*
X115071100Y-118895577D01*
X115101964Y-119010765D01*
X115101964Y-119010766D01*
X115161589Y-119114039D01*
X115245912Y-119198362D01*
X115305538Y-119232786D01*
X115349187Y-119257988D01*
X115464375Y-119288852D01*
X115464378Y-119288852D01*
X115583622Y-119288852D01*
X115583625Y-119288852D01*
X115698813Y-119257988D01*
X115802087Y-119198362D01*
X115886410Y-119114039D01*
X115946036Y-119010765D01*
X115976900Y-118895577D01*
X115976900Y-118776327D01*
X115946036Y-118661139D01*
X115895646Y-118573861D01*
X115886409Y-118557863D01*
X115849721Y-118521175D01*
X131047100Y-118521175D01*
X131047100Y-118640425D01*
X131065706Y-118709863D01*
X131077964Y-118755613D01*
X131077964Y-118755614D01*
X131137589Y-118858887D01*
X131221912Y-118943210D01*
X131281538Y-118977634D01*
X131325187Y-119002836D01*
X131440375Y-119033700D01*
X131440378Y-119033700D01*
X131559622Y-119033700D01*
X131559625Y-119033700D01*
X131674813Y-119002836D01*
X131778087Y-118943210D01*
X131862410Y-118858887D01*
X131922036Y-118755613D01*
X131952900Y-118640425D01*
X131952900Y-118521175D01*
X131922036Y-118405987D01*
X131922035Y-118405985D01*
X131862410Y-118302712D01*
X131778087Y-118218389D01*
X131674813Y-118158764D01*
X131559625Y-118127900D01*
X131440375Y-118127900D01*
X131353984Y-118151048D01*
X131325186Y-118158764D01*
X131325185Y-118158764D01*
X131221912Y-118218389D01*
X131137589Y-118302712D01*
X131077964Y-118405985D01*
X131077964Y-118405986D01*
X131067676Y-118444383D01*
X131047100Y-118521175D01*
X115849721Y-118521175D01*
X115802087Y-118473541D01*
X115698813Y-118413916D01*
X115583625Y-118383052D01*
X115464375Y-118383052D01*
X115378786Y-118405985D01*
X115349186Y-118413916D01*
X115349185Y-118413916D01*
X115245912Y-118473541D01*
X115161589Y-118557864D01*
X115101964Y-118661137D01*
X115101964Y-118661138D01*
X115101964Y-118661139D01*
X115071100Y-118776327D01*
X114130778Y-118776327D01*
X114092405Y-118709863D01*
X114092403Y-118709861D01*
X114092401Y-118709858D01*
X114012741Y-118630198D01*
X114012735Y-118630194D01*
X113915164Y-118573861D01*
X113887955Y-118566570D01*
X113806334Y-118544700D01*
X113693666Y-118544700D01*
X113628368Y-118562196D01*
X113584835Y-118573861D01*
X113487264Y-118630194D01*
X113487258Y-118630198D01*
X113407598Y-118709858D01*
X113407594Y-118709864D01*
X113351261Y-118807435D01*
X113344159Y-118833940D01*
X113322100Y-118916266D01*
X106166266Y-118916266D01*
X106087531Y-118837531D01*
X106084167Y-118833940D01*
X105916546Y-118642805D01*
X105910558Y-118635001D01*
X105770686Y-118425668D01*
X105765767Y-118417149D01*
X105760262Y-118405985D01*
X105654415Y-118191348D01*
X105650659Y-118182279D01*
X105569729Y-117943870D01*
X105567188Y-117934387D01*
X105518069Y-117687450D01*
X105516788Y-117677715D01*
X105500161Y-117424029D01*
X105500000Y-117419111D01*
X105500000Y-116940375D01*
X118047100Y-116940375D01*
X118047100Y-117059625D01*
X118075007Y-117163776D01*
X118077964Y-117174813D01*
X118077964Y-117174814D01*
X118137589Y-117278087D01*
X118221912Y-117362410D01*
X118246182Y-117376422D01*
X118325187Y-117422036D01*
X118440375Y-117452900D01*
X118440378Y-117452900D01*
X118559622Y-117452900D01*
X118559625Y-117452900D01*
X118674813Y-117422036D01*
X118778087Y-117362410D01*
X118862410Y-117278087D01*
X118922036Y-117174813D01*
X118952900Y-117059625D01*
X118952900Y-116993666D01*
X119722100Y-116993666D01*
X119722100Y-117106334D01*
X119743970Y-117187955D01*
X119751261Y-117215164D01*
X119807594Y-117312735D01*
X119807598Y-117312741D01*
X119887258Y-117392401D01*
X119887261Y-117392403D01*
X119887263Y-117392405D01*
X119984837Y-117448739D01*
X120093666Y-117477900D01*
X120093669Y-117477900D01*
X120206331Y-117477900D01*
X120206334Y-117477900D01*
X120315163Y-117448739D01*
X120412737Y-117392405D01*
X120492405Y-117312737D01*
X120548739Y-117215163D01*
X120553722Y-117196562D01*
X120583225Y-117154426D01*
X120632912Y-117141111D01*
X120645820Y-117143386D01*
X120721914Y-117163776D01*
X120721917Y-117163776D01*
X120834579Y-117163776D01*
X120834582Y-117163776D01*
X120943411Y-117134615D01*
X121040985Y-117078281D01*
X121120653Y-116998613D01*
X121176987Y-116901039D01*
X121196680Y-116827544D01*
X130337500Y-116827544D01*
X130337500Y-116974455D01*
X130366160Y-117118544D01*
X130366161Y-117118545D01*
X130422379Y-117254267D01*
X130422380Y-117254269D01*
X130503999Y-117376420D01*
X130504001Y-117376422D01*
X130504003Y-117376425D01*
X130607874Y-117480296D01*
X130607877Y-117480298D01*
X130607880Y-117480301D01*
X130730031Y-117561920D01*
X130865754Y-117618138D01*
X130865755Y-117618139D01*
X130865756Y-117618139D01*
X130865758Y-117618140D01*
X130962249Y-117637332D01*
X131009844Y-117646800D01*
X131009845Y-117646800D01*
X131156756Y-117646800D01*
X131192532Y-117639683D01*
X131300842Y-117618140D01*
X131436569Y-117561920D01*
X131558720Y-117480301D01*
X131662601Y-117376420D01*
X131744220Y-117254269D01*
X131800440Y-117118542D01*
X131810831Y-117066301D01*
X131837515Y-117022326D01*
X131886224Y-117005791D01*
X131934167Y-117024434D01*
X131936735Y-117026839D01*
X131937096Y-117027135D01*
X131937101Y-117027140D01*
X132044036Y-117098592D01*
X132162856Y-117147809D01*
X132238539Y-117162863D01*
X132288993Y-117172900D01*
X132288995Y-117172900D01*
X132417607Y-117172900D01*
X132463474Y-117163776D01*
X132543744Y-117147809D01*
X132662564Y-117098592D01*
X132769499Y-117027140D01*
X132860440Y-116936199D01*
X132925775Y-116838418D01*
X132967257Y-116808003D01*
X133018586Y-116811367D01*
X133050824Y-116838417D01*
X133099100Y-116910667D01*
X133116162Y-116936202D01*
X133207095Y-117027135D01*
X133207098Y-117027137D01*
X133207101Y-117027140D01*
X133314036Y-117098592D01*
X133432856Y-117147809D01*
X133508539Y-117162863D01*
X133558993Y-117172900D01*
X133558995Y-117172900D01*
X133687607Y-117172900D01*
X133733474Y-117163776D01*
X133813744Y-117147809D01*
X133932564Y-117098592D01*
X134039499Y-117027140D01*
X134130440Y-116936199D01*
X134195775Y-116838418D01*
X134237257Y-116808003D01*
X134288586Y-116811367D01*
X134320824Y-116838417D01*
X134369100Y-116910667D01*
X134386162Y-116936202D01*
X134477095Y-117027135D01*
X134477098Y-117027137D01*
X134477101Y-117027140D01*
X134584036Y-117098592D01*
X134702856Y-117147809D01*
X134778539Y-117162863D01*
X134828993Y-117172900D01*
X134828995Y-117172900D01*
X134957607Y-117172900D01*
X135003474Y-117163776D01*
X135083744Y-117147809D01*
X135202564Y-117098592D01*
X135309499Y-117027140D01*
X135400440Y-116936199D01*
X135471892Y-116829264D01*
X135521109Y-116710444D01*
X135546200Y-116584305D01*
X135546200Y-116504170D01*
X135563793Y-116455832D01*
X135608342Y-116430112D01*
X135659000Y-116439045D01*
X135674574Y-116450996D01*
X135687874Y-116464296D01*
X135687877Y-116464298D01*
X135687880Y-116464301D01*
X135810031Y-116545920D01*
X135945754Y-116602138D01*
X135945755Y-116602139D01*
X135945756Y-116602139D01*
X135945758Y-116602140D01*
X136042249Y-116621332D01*
X136089844Y-116630800D01*
X136089845Y-116630800D01*
X136236756Y-116630800D01*
X136280494Y-116622100D01*
X136380842Y-116602140D01*
X136516569Y-116545920D01*
X136638720Y-116464301D01*
X136742601Y-116360420D01*
X136824220Y-116238269D01*
X136880440Y-116102542D01*
X136909100Y-115958455D01*
X136909100Y-115811545D01*
X136880440Y-115667458D01*
X136824220Y-115531731D01*
X136742601Y-115409580D01*
X136742598Y-115409577D01*
X136742596Y-115409574D01*
X136638725Y-115305703D01*
X136638722Y-115305701D01*
X136638720Y-115305699D01*
X136516569Y-115224080D01*
X136482249Y-115209864D01*
X136380845Y-115167861D01*
X136380844Y-115167860D01*
X136236756Y-115139200D01*
X136236755Y-115139200D01*
X136089845Y-115139200D01*
X136089844Y-115139200D01*
X135945755Y-115167860D01*
X135945754Y-115167861D01*
X135810032Y-115224079D01*
X135687877Y-115305701D01*
X135687874Y-115305703D01*
X135674574Y-115319004D01*
X135627954Y-115340744D01*
X135578267Y-115327430D01*
X135548762Y-115285293D01*
X135546200Y-115265830D01*
X135546200Y-115185693D01*
X135527613Y-115092254D01*
X135521109Y-115059556D01*
X135471892Y-114940736D01*
X135400440Y-114833801D01*
X135400437Y-114833798D01*
X135400435Y-114833795D01*
X135309504Y-114742864D01*
X135309496Y-114742858D01*
X135293466Y-114732146D01*
X135263051Y-114690662D01*
X135266416Y-114639332D01*
X135270115Y-114632033D01*
X135292039Y-114594060D01*
X135321200Y-114485231D01*
X135321200Y-114372563D01*
X135292039Y-114263734D01*
X135291463Y-114262737D01*
X135242483Y-114177900D01*
X135235705Y-114166160D01*
X135235703Y-114166158D01*
X135235701Y-114166155D01*
X135156041Y-114086495D01*
X135156035Y-114086491D01*
X135058464Y-114030158D01*
X135031255Y-114022867D01*
X134949634Y-114000997D01*
X134836966Y-114000997D01*
X134771668Y-114018493D01*
X134728135Y-114030158D01*
X134630564Y-114086491D01*
X134630558Y-114086495D01*
X134550898Y-114166155D01*
X134550894Y-114166161D01*
X134494561Y-114263732D01*
X134479980Y-114318148D01*
X134465400Y-114372563D01*
X134465400Y-114485231D01*
X134494561Y-114594059D01*
X134494562Y-114594063D01*
X134516477Y-114632022D01*
X134525409Y-114682680D01*
X134499689Y-114727228D01*
X134493134Y-114732145D01*
X134477106Y-114742855D01*
X134477095Y-114742864D01*
X134386164Y-114833795D01*
X134386156Y-114833804D01*
X134320826Y-114931579D01*
X134279343Y-114961996D01*
X134228013Y-114958631D01*
X134195774Y-114931579D01*
X134130443Y-114833804D01*
X134130435Y-114833795D01*
X134039504Y-114742864D01*
X134039501Y-114742862D01*
X134039499Y-114742860D01*
X133932564Y-114671408D01*
X133813744Y-114622191D01*
X133813741Y-114622190D01*
X133813740Y-114622190D01*
X133687607Y-114597100D01*
X133687605Y-114597100D01*
X133558995Y-114597100D01*
X133558993Y-114597100D01*
X133432859Y-114622190D01*
X133432856Y-114622191D01*
X133314037Y-114671407D01*
X133207098Y-114742862D01*
X133207095Y-114742864D01*
X133116164Y-114833795D01*
X133116156Y-114833804D01*
X133052647Y-114928853D01*
X133011164Y-114959270D01*
X132996963Y-114959889D01*
X132706854Y-115249999D01*
X132706854Y-115250001D01*
X132999764Y-115542911D01*
X133026288Y-115546993D01*
X133052646Y-115571145D01*
X133116156Y-115666195D01*
X133116164Y-115666204D01*
X133207095Y-115757135D01*
X133207104Y-115757143D01*
X133304879Y-115822474D01*
X133335296Y-115863957D01*
X133331931Y-115915287D01*
X133304879Y-115947526D01*
X133207104Y-116012856D01*
X133207095Y-116012864D01*
X133116164Y-116103795D01*
X133116156Y-116103804D01*
X133050826Y-116201579D01*
X133009343Y-116231996D01*
X132958013Y-116228631D01*
X132925774Y-116201579D01*
X132860443Y-116103804D01*
X132860435Y-116103795D01*
X132769504Y-116012864D01*
X132769495Y-116012856D01*
X132674445Y-115949346D01*
X132644028Y-115907863D01*
X132643408Y-115893661D01*
X132353301Y-115603554D01*
X132353300Y-115603554D01*
X132060386Y-115896467D01*
X132056303Y-115922992D01*
X132032153Y-115949347D01*
X131937104Y-116012856D01*
X131937095Y-116012864D01*
X131846164Y-116103795D01*
X131846162Y-116103798D01*
X131774707Y-116210737D01*
X131762553Y-116240080D01*
X131728746Y-116321699D01*
X131725490Y-116329559D01*
X131724924Y-116331426D01*
X131724462Y-116332041D01*
X131724078Y-116332969D01*
X131723840Y-116332870D01*
X131694054Y-116372574D01*
X131643957Y-116384252D01*
X131599789Y-116362767D01*
X131558725Y-116321703D01*
X131558722Y-116321701D01*
X131558720Y-116321699D01*
X131436569Y-116240080D01*
X131432192Y-116238267D01*
X131300845Y-116183861D01*
X131300844Y-116183860D01*
X131156756Y-116155200D01*
X131156755Y-116155200D01*
X131009845Y-116155200D01*
X131009844Y-116155200D01*
X130865755Y-116183860D01*
X130865754Y-116183861D01*
X130730032Y-116240079D01*
X130607877Y-116321701D01*
X130607874Y-116321703D01*
X130504003Y-116425574D01*
X130504001Y-116425577D01*
X130422379Y-116547732D01*
X130366161Y-116683454D01*
X130366160Y-116683455D01*
X130337500Y-116827544D01*
X121196680Y-116827544D01*
X121206148Y-116792210D01*
X121206148Y-116679542D01*
X121176987Y-116570713D01*
X121120653Y-116473139D01*
X121120651Y-116473137D01*
X121120649Y-116473134D01*
X121040989Y-116393474D01*
X121040983Y-116393470D01*
X120943412Y-116337137D01*
X120915119Y-116329556D01*
X120834582Y-116307976D01*
X120721914Y-116307976D01*
X120670685Y-116321703D01*
X120613083Y-116337137D01*
X120515512Y-116393470D01*
X120515506Y-116393474D01*
X120435846Y-116473134D01*
X120435842Y-116473140D01*
X120379509Y-116570710D01*
X120374523Y-116589317D01*
X120345016Y-116631452D01*
X120295328Y-116644764D01*
X120282423Y-116642488D01*
X120259163Y-116636255D01*
X120206334Y-116622100D01*
X120093666Y-116622100D01*
X120028368Y-116639596D01*
X119984835Y-116651261D01*
X119887264Y-116707594D01*
X119887258Y-116707598D01*
X119807598Y-116787258D01*
X119807594Y-116787264D01*
X119751261Y-116884835D01*
X119746919Y-116901040D01*
X119722100Y-116993666D01*
X118952900Y-116993666D01*
X118952900Y-116940375D01*
X118922036Y-116825187D01*
X118910028Y-116804388D01*
X118862410Y-116721912D01*
X118778087Y-116637589D01*
X118674813Y-116577964D01*
X118647751Y-116570713D01*
X118559625Y-116547100D01*
X118440375Y-116547100D01*
X118353984Y-116570248D01*
X118325186Y-116577964D01*
X118325185Y-116577964D01*
X118221912Y-116637589D01*
X118137589Y-116721912D01*
X118077964Y-116825185D01*
X118077964Y-116825186D01*
X118074418Y-116838420D01*
X118047100Y-116940375D01*
X105500000Y-116940375D01*
X105500000Y-115036355D01*
X109351120Y-115036355D01*
X109351120Y-115155605D01*
X109380654Y-115265830D01*
X109381984Y-115270793D01*
X109381984Y-115270794D01*
X109441609Y-115374067D01*
X109525932Y-115458390D01*
X109569313Y-115483436D01*
X109629207Y-115518016D01*
X109744395Y-115548880D01*
X109744398Y-115548880D01*
X109863642Y-115548880D01*
X109863645Y-115548880D01*
X109978833Y-115518016D01*
X110082107Y-115458390D01*
X110166430Y-115374067D01*
X110226056Y-115270793D01*
X110256920Y-115155605D01*
X110256920Y-115036355D01*
X110226056Y-114921167D01*
X110213835Y-114900000D01*
X110166430Y-114817892D01*
X110082107Y-114733569D01*
X110063596Y-114722882D01*
X120959916Y-114722882D01*
X120959916Y-114835550D01*
X120977186Y-114900000D01*
X120989077Y-114944380D01*
X121033505Y-115021332D01*
X121044753Y-115040814D01*
X121045410Y-115041951D01*
X121045414Y-115041957D01*
X121125074Y-115121617D01*
X121128989Y-115124621D01*
X121127700Y-115126299D01*
X121155615Y-115159566D01*
X121155615Y-115211006D01*
X121150076Y-115222885D01*
X121101261Y-115307436D01*
X121095904Y-115327430D01*
X121072100Y-115416266D01*
X121072100Y-115528934D01*
X121091142Y-115600000D01*
X121101261Y-115637764D01*
X121157594Y-115735335D01*
X121157598Y-115735341D01*
X121237258Y-115815001D01*
X121237261Y-115815003D01*
X121237263Y-115815005D01*
X121334837Y-115871339D01*
X121443666Y-115900500D01*
X121443669Y-115900500D01*
X121556331Y-115900500D01*
X121556334Y-115900500D01*
X121665163Y-115871339D01*
X121762737Y-115815005D01*
X121842405Y-115735337D01*
X121898739Y-115637763D01*
X121923953Y-115543666D01*
X125022100Y-115543666D01*
X125022100Y-115656334D01*
X125043269Y-115735335D01*
X125051261Y-115765164D01*
X125107594Y-115862735D01*
X125107598Y-115862741D01*
X125187258Y-115942401D01*
X125187261Y-115942403D01*
X125187263Y-115942405D01*
X125264216Y-115986833D01*
X125282382Y-115997322D01*
X125284837Y-115998739D01*
X125393666Y-116027900D01*
X125393669Y-116027900D01*
X125506331Y-116027900D01*
X125506334Y-116027900D01*
X125615163Y-115998739D01*
X125696705Y-115951660D01*
X125747362Y-115942728D01*
X125791910Y-115968448D01*
X125806941Y-115997322D01*
X125807728Y-116000260D01*
X125815003Y-116012860D01*
X125856557Y-116084835D01*
X125864062Y-116097833D01*
X125864066Y-116097839D01*
X125943726Y-116177499D01*
X125943729Y-116177501D01*
X125943731Y-116177503D01*
X126041305Y-116233837D01*
X126150134Y-116262998D01*
X126150137Y-116262998D01*
X126262799Y-116262998D01*
X126262802Y-116262998D01*
X126371631Y-116233837D01*
X126441210Y-116193666D01*
X128822100Y-116193666D01*
X128822100Y-116306334D01*
X128838009Y-116365707D01*
X128851261Y-116415164D01*
X128907594Y-116512735D01*
X128907598Y-116512741D01*
X128987258Y-116592401D01*
X128987261Y-116592403D01*
X128987263Y-116592405D01*
X129004125Y-116602140D01*
X129065524Y-116637589D01*
X129084837Y-116648739D01*
X129193666Y-116677900D01*
X129193669Y-116677900D01*
X129306331Y-116677900D01*
X129306334Y-116677900D01*
X129415163Y-116648739D01*
X129512737Y-116592405D01*
X129592405Y-116512737D01*
X129648739Y-116415163D01*
X129677900Y-116306334D01*
X129677900Y-116193666D01*
X129648739Y-116084837D01*
X129592405Y-115987263D01*
X129592403Y-115987261D01*
X129592401Y-115987258D01*
X129512741Y-115907598D01*
X129512735Y-115907594D01*
X129415164Y-115851261D01*
X129387955Y-115843970D01*
X129306334Y-115822100D01*
X129193666Y-115822100D01*
X129128368Y-115839596D01*
X129084835Y-115851261D01*
X128987264Y-115907594D01*
X128987258Y-115907598D01*
X128907598Y-115987258D01*
X128907594Y-115987264D01*
X128851261Y-116084835D01*
X128837669Y-116135563D01*
X128822100Y-116193666D01*
X126441210Y-116193666D01*
X126469205Y-116177503D01*
X126478767Y-116167941D01*
X126511146Y-116135563D01*
X126548869Y-116097839D01*
X126548873Y-116097835D01*
X126605207Y-116000261D01*
X126634368Y-115891432D01*
X126634368Y-115778764D01*
X126605207Y-115669935D01*
X126548873Y-115572361D01*
X126548871Y-115572359D01*
X126548869Y-115572356D01*
X126469209Y-115492696D01*
X126469203Y-115492692D01*
X126371632Y-115436359D01*
X126344423Y-115429068D01*
X126262802Y-115407198D01*
X126150134Y-115407198D01*
X126050226Y-115433968D01*
X126041301Y-115436360D01*
X125959762Y-115483436D01*
X125909104Y-115492368D01*
X125864556Y-115466648D01*
X125849524Y-115437768D01*
X125849147Y-115436360D01*
X125848739Y-115434837D01*
X125792405Y-115337263D01*
X125792403Y-115337261D01*
X125792401Y-115337258D01*
X125712741Y-115257598D01*
X125712735Y-115257594D01*
X125615164Y-115201261D01*
X125587955Y-115193970D01*
X125506334Y-115172100D01*
X125393666Y-115172100D01*
X125328368Y-115189596D01*
X125284835Y-115201261D01*
X125187264Y-115257594D01*
X125187258Y-115257598D01*
X125107598Y-115337258D01*
X125107594Y-115337264D01*
X125051261Y-115434835D01*
X125047653Y-115448301D01*
X125022100Y-115543666D01*
X121923953Y-115543666D01*
X121927900Y-115528934D01*
X121927900Y-115416266D01*
X121898739Y-115307437D01*
X121842405Y-115209863D01*
X121842403Y-115209861D01*
X121842401Y-115209858D01*
X121762737Y-115130194D01*
X121758825Y-115127192D01*
X121760113Y-115125512D01*
X121732202Y-115092254D01*
X121732198Y-115040814D01*
X121737740Y-115028929D01*
X121771803Y-114969930D01*
X121786555Y-114944379D01*
X121815716Y-114835550D01*
X121815716Y-114795544D01*
X130337500Y-114795544D01*
X130337500Y-114942455D01*
X130366160Y-115086544D01*
X130366161Y-115086545D01*
X130417715Y-115211006D01*
X130422380Y-115222269D01*
X130503999Y-115344420D01*
X130504001Y-115344422D01*
X130504003Y-115344425D01*
X130607874Y-115448296D01*
X130607877Y-115448298D01*
X130607880Y-115448301D01*
X130730031Y-115529920D01*
X130865754Y-115586138D01*
X130865755Y-115586139D01*
X130865756Y-115586139D01*
X130865758Y-115586140D01*
X130935439Y-115600000D01*
X131009844Y-115614800D01*
X131009845Y-115614800D01*
X131156756Y-115614800D01*
X131192532Y-115607683D01*
X131300842Y-115586140D01*
X131436569Y-115529920D01*
X131558720Y-115448301D01*
X131563313Y-115443707D01*
X131609931Y-115421966D01*
X131659619Y-115435276D01*
X131685966Y-115468101D01*
X131713989Y-115535756D01*
X132003300Y-115246445D01*
X132003300Y-115296078D01*
X132027152Y-115385095D01*
X132073230Y-115464905D01*
X132138395Y-115530070D01*
X132218205Y-115576148D01*
X132307222Y-115600000D01*
X132399378Y-115600000D01*
X132488395Y-115576148D01*
X132568205Y-115530070D01*
X132633370Y-115464905D01*
X132679448Y-115385095D01*
X132703300Y-115296078D01*
X132703300Y-115203922D01*
X132679448Y-115114905D01*
X132633370Y-115035095D01*
X132568205Y-114969930D01*
X132488395Y-114923852D01*
X132399378Y-114900000D01*
X132349745Y-114900000D01*
X132639056Y-114610689D01*
X132557486Y-114576902D01*
X132557483Y-114576901D01*
X132422246Y-114550000D01*
X132284354Y-114550000D01*
X132149116Y-114576901D01*
X132149114Y-114576902D01*
X132021727Y-114629667D01*
X131916152Y-114700210D01*
X131866186Y-114712436D01*
X131820051Y-114689684D01*
X131801921Y-114654859D01*
X131801509Y-114654984D01*
X131800843Y-114652789D01*
X131800619Y-114652357D01*
X131800440Y-114651458D01*
X131744220Y-114515731D01*
X131662601Y-114393580D01*
X131662598Y-114393577D01*
X131662596Y-114393574D01*
X131558725Y-114289703D01*
X131558722Y-114289701D01*
X131558720Y-114289699D01*
X131436569Y-114208080D01*
X131436567Y-114208079D01*
X131300845Y-114151861D01*
X131300844Y-114151860D01*
X131156756Y-114123200D01*
X131156755Y-114123200D01*
X131009845Y-114123200D01*
X131009844Y-114123200D01*
X130865755Y-114151860D01*
X130865754Y-114151861D01*
X130730032Y-114208079D01*
X130607877Y-114289701D01*
X130607874Y-114289703D01*
X130504003Y-114393574D01*
X130504001Y-114393577D01*
X130422379Y-114515732D01*
X130366161Y-114651454D01*
X130366160Y-114651455D01*
X130337500Y-114795544D01*
X121815716Y-114795544D01*
X121815716Y-114722882D01*
X121786555Y-114614053D01*
X121765105Y-114576901D01*
X121744205Y-114540700D01*
X121735272Y-114490042D01*
X121760992Y-114445493D01*
X121801724Y-114430668D01*
X121801445Y-114428544D01*
X121806327Y-114427901D01*
X121806331Y-114427900D01*
X121806334Y-114427900D01*
X121915163Y-114398739D01*
X122012737Y-114342405D01*
X122092405Y-114262737D01*
X122148739Y-114165163D01*
X122177900Y-114056334D01*
X122177900Y-113943666D01*
X129572100Y-113943666D01*
X129572100Y-114056334D01*
X129590017Y-114123200D01*
X129601261Y-114165164D01*
X129657594Y-114262735D01*
X129657598Y-114262741D01*
X129737258Y-114342401D01*
X129737261Y-114342403D01*
X129737263Y-114342405D01*
X129834837Y-114398739D01*
X129943666Y-114427900D01*
X129943669Y-114427900D01*
X130056331Y-114427900D01*
X130056334Y-114427900D01*
X130165163Y-114398739D01*
X130262737Y-114342405D01*
X130342405Y-114262737D01*
X130398739Y-114165163D01*
X130427900Y-114056334D01*
X130427900Y-113943666D01*
X130398739Y-113834837D01*
X130342405Y-113737263D01*
X130342403Y-113737261D01*
X130342401Y-113737258D01*
X130262741Y-113657598D01*
X130262735Y-113657594D01*
X130165164Y-113601261D01*
X130132097Y-113592401D01*
X130056334Y-113572100D01*
X129943666Y-113572100D01*
X129878368Y-113589596D01*
X129834835Y-113601261D01*
X129737264Y-113657594D01*
X129737258Y-113657598D01*
X129657598Y-113737258D01*
X129657594Y-113737264D01*
X129601261Y-113834835D01*
X129586680Y-113889251D01*
X129572100Y-113943666D01*
X122177900Y-113943666D01*
X122148739Y-113834837D01*
X122092405Y-113737263D01*
X122092403Y-113737261D01*
X122092401Y-113737258D01*
X122012741Y-113657598D01*
X122012735Y-113657594D01*
X121915164Y-113601261D01*
X121882097Y-113592401D01*
X121806334Y-113572100D01*
X121693666Y-113572100D01*
X121628368Y-113589596D01*
X121584835Y-113601261D01*
X121487264Y-113657594D01*
X121487258Y-113657598D01*
X121407598Y-113737258D01*
X121407594Y-113737264D01*
X121351261Y-113834835D01*
X121336680Y-113889251D01*
X121322100Y-113943666D01*
X121322100Y-114056334D01*
X121340017Y-114123200D01*
X121351261Y-114165164D01*
X121393611Y-114238516D01*
X121402544Y-114289174D01*
X121376824Y-114333723D01*
X121336091Y-114348547D01*
X121336371Y-114350672D01*
X121331488Y-114351314D01*
X121222651Y-114380477D01*
X121125080Y-114436810D01*
X121125074Y-114436814D01*
X121045414Y-114516474D01*
X121045410Y-114516480D01*
X120989077Y-114614051D01*
X120978143Y-114654859D01*
X120959916Y-114722882D01*
X110063596Y-114722882D01*
X109978833Y-114673944D01*
X109969368Y-114671408D01*
X109863645Y-114643080D01*
X109744395Y-114643080D01*
X109658004Y-114666228D01*
X109629206Y-114673944D01*
X109629205Y-114673944D01*
X109525932Y-114733569D01*
X109441609Y-114817892D01*
X109381984Y-114921165D01*
X109381984Y-114921166D01*
X109376740Y-114940737D01*
X109351120Y-115036355D01*
X105500000Y-115036355D01*
X105500000Y-113693666D01*
X115072100Y-113693666D01*
X115072100Y-113806334D01*
X115093970Y-113887955D01*
X115101261Y-113915164D01*
X115157594Y-114012735D01*
X115157598Y-114012741D01*
X115237258Y-114092401D01*
X115237261Y-114092403D01*
X115237263Y-114092405D01*
X115334837Y-114148739D01*
X115443666Y-114177900D01*
X115443669Y-114177900D01*
X115556331Y-114177900D01*
X115556334Y-114177900D01*
X115665163Y-114148739D01*
X115762737Y-114092405D01*
X115842405Y-114012737D01*
X115882283Y-113943666D01*
X116072100Y-113943666D01*
X116072100Y-114056334D01*
X116090017Y-114123200D01*
X116101261Y-114165164D01*
X116157594Y-114262735D01*
X116157598Y-114262741D01*
X116237258Y-114342401D01*
X116237261Y-114342403D01*
X116237263Y-114342405D01*
X116334837Y-114398739D01*
X116443666Y-114427900D01*
X116443669Y-114427900D01*
X116556331Y-114427900D01*
X116556334Y-114427900D01*
X116665163Y-114398739D01*
X116762737Y-114342405D01*
X116842405Y-114262737D01*
X116898739Y-114165163D01*
X116927900Y-114056334D01*
X116927900Y-113943666D01*
X116898739Y-113834837D01*
X116842405Y-113737263D01*
X116842403Y-113737261D01*
X116842401Y-113737258D01*
X116762741Y-113657598D01*
X116762735Y-113657594D01*
X116665164Y-113601261D01*
X116632097Y-113592401D01*
X116556334Y-113572100D01*
X116443666Y-113572100D01*
X116378368Y-113589596D01*
X116334835Y-113601261D01*
X116237264Y-113657594D01*
X116237258Y-113657598D01*
X116157598Y-113737258D01*
X116157594Y-113737264D01*
X116101261Y-113834835D01*
X116086680Y-113889251D01*
X116072100Y-113943666D01*
X115882283Y-113943666D01*
X115898739Y-113915163D01*
X115927900Y-113806334D01*
X115927900Y-113693666D01*
X115898739Y-113584837D01*
X115842405Y-113487263D01*
X115842403Y-113487261D01*
X115842401Y-113487258D01*
X115762741Y-113407598D01*
X115762735Y-113407594D01*
X115665164Y-113351261D01*
X115632097Y-113342401D01*
X115556334Y-113322100D01*
X115443666Y-113322100D01*
X115378368Y-113339596D01*
X115334835Y-113351261D01*
X115237264Y-113407594D01*
X115237258Y-113407598D01*
X115157598Y-113487258D01*
X115157594Y-113487264D01*
X115101261Y-113584835D01*
X115099234Y-113592401D01*
X115072100Y-113693666D01*
X105500000Y-113693666D01*
X105500000Y-112940375D01*
X109487100Y-112940375D01*
X109487100Y-113059625D01*
X109510978Y-113148739D01*
X109517964Y-113174813D01*
X109517964Y-113174814D01*
X109577589Y-113278087D01*
X109661912Y-113362410D01*
X109721538Y-113396834D01*
X109765187Y-113422036D01*
X109880375Y-113452900D01*
X109880378Y-113452900D01*
X109999622Y-113452900D01*
X109999625Y-113452900D01*
X110114813Y-113422036D01*
X110218087Y-113362410D01*
X110302410Y-113278087D01*
X110362036Y-113174813D01*
X110392900Y-113059625D01*
X110392900Y-112940375D01*
X110362036Y-112825187D01*
X110302410Y-112721913D01*
X110302409Y-112721911D01*
X110274164Y-112693666D01*
X118272100Y-112693666D01*
X118272100Y-112806334D01*
X118293970Y-112887955D01*
X118301261Y-112915164D01*
X118357594Y-113012735D01*
X118357598Y-113012741D01*
X118437258Y-113092401D01*
X118437261Y-113092403D01*
X118437263Y-113092405D01*
X118534837Y-113148739D01*
X118643666Y-113177900D01*
X118643669Y-113177900D01*
X118756331Y-113177900D01*
X118756334Y-113177900D01*
X118865163Y-113148739D01*
X118962737Y-113092405D01*
X119042405Y-113012737D01*
X119082283Y-112943666D01*
X123822100Y-112943666D01*
X123822100Y-113056334D01*
X123843970Y-113137955D01*
X123851261Y-113165164D01*
X123907594Y-113262735D01*
X123907598Y-113262741D01*
X123987258Y-113342401D01*
X123987261Y-113342403D01*
X123987263Y-113342405D01*
X124084837Y-113398739D01*
X124193666Y-113427900D01*
X124193669Y-113427900D01*
X124306331Y-113427900D01*
X124306334Y-113427900D01*
X124415163Y-113398739D01*
X124512737Y-113342405D01*
X124592405Y-113262737D01*
X124632283Y-113193666D01*
X126822100Y-113193666D01*
X126822100Y-113306334D01*
X126837126Y-113362410D01*
X126851261Y-113415164D01*
X126907594Y-113512735D01*
X126907598Y-113512741D01*
X126987258Y-113592401D01*
X126987261Y-113592403D01*
X126987263Y-113592405D01*
X127084837Y-113648739D01*
X127193666Y-113677900D01*
X127193669Y-113677900D01*
X127306331Y-113677900D01*
X127306334Y-113677900D01*
X127415163Y-113648739D01*
X127512737Y-113592405D01*
X127592405Y-113512737D01*
X127648739Y-113415163D01*
X127677900Y-113306334D01*
X127677900Y-113193666D01*
X127648739Y-113084837D01*
X127592405Y-112987263D01*
X127592403Y-112987261D01*
X127592401Y-112987258D01*
X127512741Y-112907598D01*
X127512735Y-112907594D01*
X127415164Y-112851261D01*
X127387955Y-112843970D01*
X127306334Y-112822100D01*
X127193666Y-112822100D01*
X127128368Y-112839596D01*
X127084835Y-112851261D01*
X126987264Y-112907594D01*
X126987258Y-112907598D01*
X126907598Y-112987258D01*
X126907594Y-112987264D01*
X126851261Y-113084835D01*
X126849234Y-113092401D01*
X126822100Y-113193666D01*
X124632283Y-113193666D01*
X124648739Y-113165163D01*
X124677900Y-113056334D01*
X124677900Y-112943666D01*
X124648739Y-112834837D01*
X124643166Y-112825185D01*
X124632281Y-112806331D01*
X124592405Y-112737263D01*
X124592403Y-112737261D01*
X124592401Y-112737258D01*
X124512741Y-112657598D01*
X124512735Y-112657594D01*
X124415164Y-112601261D01*
X124382097Y-112592401D01*
X124306334Y-112572100D01*
X124193666Y-112572100D01*
X124128368Y-112589596D01*
X124084835Y-112601261D01*
X123987264Y-112657594D01*
X123987258Y-112657598D01*
X123907598Y-112737258D01*
X123907594Y-112737264D01*
X123851261Y-112834835D01*
X123846860Y-112851261D01*
X123822100Y-112943666D01*
X119082283Y-112943666D01*
X119098739Y-112915163D01*
X119127900Y-112806334D01*
X119127900Y-112693666D01*
X119098739Y-112584837D01*
X119042405Y-112487263D01*
X119042403Y-112487261D01*
X119042401Y-112487258D01*
X118962741Y-112407598D01*
X118962735Y-112407594D01*
X118865164Y-112351261D01*
X118837955Y-112343970D01*
X118756334Y-112322100D01*
X118643666Y-112322100D01*
X118578368Y-112339596D01*
X118534835Y-112351261D01*
X118437264Y-112407594D01*
X118437258Y-112407598D01*
X118357598Y-112487258D01*
X118357594Y-112487264D01*
X118301261Y-112584835D01*
X118299234Y-112592401D01*
X118272100Y-112693666D01*
X110274164Y-112693666D01*
X110218087Y-112637589D01*
X110114813Y-112577964D01*
X109999625Y-112547100D01*
X109880375Y-112547100D01*
X109793984Y-112570248D01*
X109765186Y-112577964D01*
X109765185Y-112577964D01*
X109661912Y-112637589D01*
X109577589Y-112721912D01*
X109517964Y-112825185D01*
X109517964Y-112825186D01*
X109517964Y-112825187D01*
X109487100Y-112940375D01*
X105500000Y-112940375D01*
X105500000Y-111993666D01*
X112772100Y-111993666D01*
X112772100Y-112106334D01*
X112788965Y-112169274D01*
X112801261Y-112215164D01*
X112857594Y-112312735D01*
X112857598Y-112312741D01*
X112937258Y-112392401D01*
X112937261Y-112392403D01*
X112937263Y-112392405D01*
X113034837Y-112448739D01*
X113143666Y-112477900D01*
X113143669Y-112477900D01*
X113256331Y-112477900D01*
X113256334Y-112477900D01*
X113365163Y-112448739D01*
X113462737Y-112392405D01*
X113542405Y-112312737D01*
X113598739Y-112215163D01*
X113604499Y-112193666D01*
X121322100Y-112193666D01*
X121322100Y-112306334D01*
X121343970Y-112387955D01*
X121351261Y-112415164D01*
X121407594Y-112512735D01*
X121407598Y-112512741D01*
X121487258Y-112592401D01*
X121487261Y-112592403D01*
X121487263Y-112592405D01*
X121564216Y-112636833D01*
X121565524Y-112637589D01*
X121584837Y-112648739D01*
X121693666Y-112677900D01*
X121693669Y-112677900D01*
X121806331Y-112677900D01*
X121806334Y-112677900D01*
X121915163Y-112648739D01*
X122012737Y-112592405D01*
X122092405Y-112512737D01*
X122148739Y-112415163D01*
X122177900Y-112306334D01*
X122177900Y-112193666D01*
X122148739Y-112084837D01*
X122092405Y-111987263D01*
X122092403Y-111987261D01*
X122092401Y-111987258D01*
X122012741Y-111907598D01*
X122012735Y-111907594D01*
X121915164Y-111851261D01*
X121887955Y-111843970D01*
X121806334Y-111822100D01*
X121693666Y-111822100D01*
X121628368Y-111839596D01*
X121584835Y-111851261D01*
X121487264Y-111907594D01*
X121487258Y-111907598D01*
X121407598Y-111987258D01*
X121407594Y-111987264D01*
X121351261Y-112084835D01*
X121345501Y-112106334D01*
X121322100Y-112193666D01*
X113604499Y-112193666D01*
X113627900Y-112106334D01*
X113627900Y-111993666D01*
X113598739Y-111884837D01*
X113542405Y-111787263D01*
X113542403Y-111787261D01*
X113542401Y-111787258D01*
X113462741Y-111707598D01*
X113462735Y-111707594D01*
X113365164Y-111651261D01*
X113337955Y-111643970D01*
X113256334Y-111622100D01*
X113143666Y-111622100D01*
X113078368Y-111639596D01*
X113034835Y-111651261D01*
X112937264Y-111707594D01*
X112937258Y-111707598D01*
X112857598Y-111787258D01*
X112857594Y-111787264D01*
X112801261Y-111884835D01*
X112795163Y-111907594D01*
X112772100Y-111993666D01*
X105500000Y-111993666D01*
X105500000Y-110843666D01*
X112522100Y-110843666D01*
X112522100Y-110956334D01*
X112534336Y-111001998D01*
X112551261Y-111065164D01*
X112607594Y-111162735D01*
X112607598Y-111162741D01*
X112687258Y-111242401D01*
X112687261Y-111242403D01*
X112687263Y-111242405D01*
X112784837Y-111298739D01*
X112893666Y-111327900D01*
X112893669Y-111327900D01*
X113006331Y-111327900D01*
X113006334Y-111327900D01*
X113115163Y-111298739D01*
X113212737Y-111242405D01*
X113292405Y-111162737D01*
X113348739Y-111065163D01*
X113377900Y-110956334D01*
X113377900Y-110843666D01*
X113348739Y-110734837D01*
X113292405Y-110637263D01*
X113292403Y-110637261D01*
X113292401Y-110637258D01*
X113212741Y-110557598D01*
X113212735Y-110557594D01*
X113210547Y-110556331D01*
X113195439Y-110547608D01*
X113119671Y-110503863D01*
X113119670Y-110503863D01*
X113115163Y-110501261D01*
X113006334Y-110472100D01*
X112893666Y-110472100D01*
X112828368Y-110489596D01*
X112784835Y-110501261D01*
X112687264Y-110557594D01*
X112687258Y-110557598D01*
X112607598Y-110637258D01*
X112607594Y-110637264D01*
X112551261Y-110734835D01*
X112543785Y-110762737D01*
X112522100Y-110843666D01*
X105500000Y-110843666D01*
X105500000Y-110343666D01*
X110272100Y-110343666D01*
X110272100Y-110456334D01*
X110287488Y-110513761D01*
X110301261Y-110565164D01*
X110357594Y-110662735D01*
X110357598Y-110662741D01*
X110437258Y-110742401D01*
X110437261Y-110742403D01*
X110437263Y-110742405D01*
X110534837Y-110798739D01*
X110643666Y-110827900D01*
X110643669Y-110827900D01*
X110756331Y-110827900D01*
X110756334Y-110827900D01*
X110865163Y-110798739D01*
X110962737Y-110742405D01*
X111042405Y-110662737D01*
X111098739Y-110565163D01*
X111127900Y-110456334D01*
X111127900Y-110443666D01*
X113724700Y-110443666D01*
X113724700Y-110556334D01*
X113746384Y-110637258D01*
X113753861Y-110665164D01*
X113810194Y-110762735D01*
X113810198Y-110762741D01*
X113889858Y-110842401D01*
X113889861Y-110842403D01*
X113889863Y-110842405D01*
X113987437Y-110898739D01*
X114096266Y-110927900D01*
X114096269Y-110927900D01*
X114208931Y-110927900D01*
X114208934Y-110927900D01*
X114317763Y-110898739D01*
X114391502Y-110856166D01*
X116122100Y-110856166D01*
X116122100Y-110968834D01*
X116130987Y-111001999D01*
X116151261Y-111077664D01*
X116163909Y-111099570D01*
X116200380Y-111162741D01*
X116207594Y-111175235D01*
X116207598Y-111175241D01*
X116287258Y-111254901D01*
X116287261Y-111254903D01*
X116287263Y-111254905D01*
X116384837Y-111311239D01*
X116493666Y-111340400D01*
X116493669Y-111340400D01*
X116606331Y-111340400D01*
X116606334Y-111340400D01*
X116715163Y-111311239D01*
X116812737Y-111254905D01*
X116859241Y-111208401D01*
X126836835Y-111208401D01*
X126836835Y-111321069D01*
X126842015Y-111340400D01*
X126865996Y-111429899D01*
X126922329Y-111527470D01*
X126922333Y-111527476D01*
X127001993Y-111607136D01*
X127001996Y-111607138D01*
X127001998Y-111607140D01*
X127099572Y-111663474D01*
X127208401Y-111692635D01*
X127208404Y-111692635D01*
X127321066Y-111692635D01*
X127321069Y-111692635D01*
X127429898Y-111663474D01*
X127527472Y-111607140D01*
X127607140Y-111527472D01*
X127663474Y-111429898D01*
X127692635Y-111321069D01*
X127692635Y-111208401D01*
X127663474Y-111099572D01*
X127607140Y-111001998D01*
X127607138Y-111001996D01*
X127607136Y-111001993D01*
X127527476Y-110922333D01*
X127527470Y-110922329D01*
X127429899Y-110865996D01*
X127393212Y-110856166D01*
X127321069Y-110836835D01*
X127208401Y-110836835D01*
X127143103Y-110854331D01*
X127099570Y-110865996D01*
X127001999Y-110922329D01*
X127001993Y-110922333D01*
X126922333Y-111001993D01*
X126922329Y-111001999D01*
X126865996Y-111099570D01*
X126851415Y-111153986D01*
X126836835Y-111208401D01*
X116859241Y-111208401D01*
X116892405Y-111175237D01*
X116948739Y-111077663D01*
X116977900Y-110968834D01*
X116977900Y-110856166D01*
X116948739Y-110747337D01*
X116892405Y-110649763D01*
X116892403Y-110649761D01*
X116892401Y-110649758D01*
X116812741Y-110570098D01*
X116812735Y-110570094D01*
X116715164Y-110513761D01*
X116687955Y-110506470D01*
X116606334Y-110484600D01*
X116493666Y-110484600D01*
X116431487Y-110501261D01*
X116384835Y-110513761D01*
X116287264Y-110570094D01*
X116287258Y-110570098D01*
X116207598Y-110649758D01*
X116207594Y-110649764D01*
X116151261Y-110747335D01*
X116137669Y-110798063D01*
X116122100Y-110856166D01*
X114391502Y-110856166D01*
X114415337Y-110842405D01*
X114429842Y-110827900D01*
X114459680Y-110798063D01*
X114495001Y-110762741D01*
X114495005Y-110762737D01*
X114551339Y-110665163D01*
X114580500Y-110556334D01*
X114580500Y-110443666D01*
X114551339Y-110334837D01*
X114495005Y-110237263D01*
X114495000Y-110237258D01*
X114494997Y-110237254D01*
X114451409Y-110193666D01*
X123072100Y-110193666D01*
X123072100Y-110306334D01*
X123082104Y-110343668D01*
X123101261Y-110415164D01*
X123157594Y-110512735D01*
X123157598Y-110512741D01*
X123237258Y-110592401D01*
X123237261Y-110592403D01*
X123237263Y-110592405D01*
X123334837Y-110648739D01*
X123443666Y-110677900D01*
X123443669Y-110677900D01*
X123556331Y-110677900D01*
X123556334Y-110677900D01*
X123665163Y-110648739D01*
X123762737Y-110592405D01*
X123842405Y-110512737D01*
X123898739Y-110415163D01*
X123927900Y-110306334D01*
X123927900Y-110193666D01*
X123898739Y-110084837D01*
X123842405Y-109987263D01*
X123842403Y-109987261D01*
X123842401Y-109987258D01*
X123762741Y-109907598D01*
X123762735Y-109907594D01*
X123665164Y-109851261D01*
X123632097Y-109842401D01*
X123556334Y-109822100D01*
X123443666Y-109822100D01*
X123378368Y-109839596D01*
X123334835Y-109851261D01*
X123237264Y-109907594D01*
X123237258Y-109907598D01*
X123157598Y-109987258D01*
X123157594Y-109987264D01*
X123101261Y-110084835D01*
X123096860Y-110101261D01*
X123072100Y-110193666D01*
X114451409Y-110193666D01*
X114415341Y-110157598D01*
X114415335Y-110157594D01*
X114317764Y-110101261D01*
X114290555Y-110093970D01*
X114208934Y-110072100D01*
X114096266Y-110072100D01*
X114030968Y-110089596D01*
X113987435Y-110101261D01*
X113889864Y-110157594D01*
X113889858Y-110157598D01*
X113810198Y-110237258D01*
X113810194Y-110237264D01*
X113753861Y-110334835D01*
X113739280Y-110389251D01*
X113724700Y-110443666D01*
X111127900Y-110443666D01*
X111127900Y-110343666D01*
X111098739Y-110234837D01*
X111042405Y-110137263D01*
X111042403Y-110137261D01*
X111042401Y-110137258D01*
X110962741Y-110057598D01*
X110962735Y-110057594D01*
X110865164Y-110001261D01*
X110837955Y-109993970D01*
X110756334Y-109972100D01*
X110643666Y-109972100D01*
X110587078Y-109987263D01*
X110534835Y-110001261D01*
X110437264Y-110057594D01*
X110437258Y-110057598D01*
X110357598Y-110137258D01*
X110357594Y-110137264D01*
X110301261Y-110234835D01*
X110286680Y-110289251D01*
X110272100Y-110343666D01*
X105500000Y-110343666D01*
X105500000Y-109193666D01*
X111072100Y-109193666D01*
X111072100Y-109306334D01*
X111087584Y-109364120D01*
X111101261Y-109415164D01*
X111157594Y-109512735D01*
X111157598Y-109512741D01*
X111237258Y-109592401D01*
X111237261Y-109592403D01*
X111237263Y-109592405D01*
X111334837Y-109648739D01*
X111443666Y-109677900D01*
X111443669Y-109677900D01*
X111556331Y-109677900D01*
X111556334Y-109677900D01*
X111665163Y-109648739D01*
X111762737Y-109592405D01*
X111842405Y-109512737D01*
X111898739Y-109415163D01*
X111911198Y-109368666D01*
X117322100Y-109368666D01*
X117322100Y-109481334D01*
X117343970Y-109562955D01*
X117351261Y-109590164D01*
X117407594Y-109687735D01*
X117407598Y-109687741D01*
X117487258Y-109767401D01*
X117487261Y-109767403D01*
X117487263Y-109767405D01*
X117584837Y-109823739D01*
X117693666Y-109852900D01*
X117693669Y-109852900D01*
X117806331Y-109852900D01*
X117806334Y-109852900D01*
X117915163Y-109823739D01*
X118012737Y-109767405D01*
X118092405Y-109687737D01*
X118148739Y-109590163D01*
X118177900Y-109481334D01*
X118177900Y-109443666D01*
X122072100Y-109443666D01*
X122072100Y-109556334D01*
X122082616Y-109595580D01*
X122101261Y-109665164D01*
X122157594Y-109762735D01*
X122157598Y-109762741D01*
X122237258Y-109842401D01*
X122237261Y-109842403D01*
X122237263Y-109842405D01*
X122334837Y-109898739D01*
X122443666Y-109927900D01*
X122443669Y-109927900D01*
X122556331Y-109927900D01*
X122556334Y-109927900D01*
X122665163Y-109898739D01*
X122762737Y-109842405D01*
X122842405Y-109762737D01*
X122898739Y-109665163D01*
X122927900Y-109556334D01*
X122927900Y-109443666D01*
X122898739Y-109334837D01*
X122842405Y-109237263D01*
X122842403Y-109237261D01*
X122842401Y-109237258D01*
X122762741Y-109157598D01*
X122762735Y-109157594D01*
X122665164Y-109101261D01*
X122632097Y-109092401D01*
X122556334Y-109072100D01*
X122443666Y-109072100D01*
X122378368Y-109089596D01*
X122334835Y-109101261D01*
X122237264Y-109157594D01*
X122237258Y-109157598D01*
X122157598Y-109237258D01*
X122157594Y-109237264D01*
X122101261Y-109334835D01*
X122092196Y-109368666D01*
X122072100Y-109443666D01*
X118177900Y-109443666D01*
X118177900Y-109368666D01*
X118148739Y-109259837D01*
X118092405Y-109162263D01*
X118092403Y-109162261D01*
X118092401Y-109162258D01*
X118012741Y-109082598D01*
X118012735Y-109082594D01*
X117915164Y-109026261D01*
X117898689Y-109021846D01*
X117806334Y-108997100D01*
X117693666Y-108997100D01*
X117640392Y-109011375D01*
X117584835Y-109026261D01*
X117487264Y-109082594D01*
X117487258Y-109082598D01*
X117407598Y-109162258D01*
X117407594Y-109162264D01*
X117351261Y-109259835D01*
X117338803Y-109306331D01*
X117322100Y-109368666D01*
X111911198Y-109368666D01*
X111927900Y-109306334D01*
X111927900Y-109193666D01*
X111898739Y-109084837D01*
X111842405Y-108987263D01*
X111842403Y-108987261D01*
X111842401Y-108987258D01*
X111798809Y-108943666D01*
X120072100Y-108943666D01*
X120072100Y-109056334D01*
X120093970Y-109137955D01*
X120101261Y-109165164D01*
X120157594Y-109262735D01*
X120157598Y-109262741D01*
X120237258Y-109342401D01*
X120237261Y-109342403D01*
X120237263Y-109342405D01*
X120334837Y-109398739D01*
X120443666Y-109427900D01*
X120443669Y-109427900D01*
X120556331Y-109427900D01*
X120556334Y-109427900D01*
X120665163Y-109398739D01*
X120691679Y-109383430D01*
X120708685Y-109373612D01*
X120725125Y-109364120D01*
X120762737Y-109342405D01*
X120842405Y-109262737D01*
X120898739Y-109165163D01*
X120927900Y-109056334D01*
X120927900Y-108943666D01*
X120898739Y-108834837D01*
X120842405Y-108737263D01*
X120842400Y-108737258D01*
X120842397Y-108737254D01*
X120798809Y-108693666D01*
X132822100Y-108693666D01*
X132822100Y-108806334D01*
X132835856Y-108857672D01*
X132851261Y-108915164D01*
X132907594Y-109012735D01*
X132907598Y-109012741D01*
X132987258Y-109092401D01*
X132987261Y-109092403D01*
X132987263Y-109092405D01*
X133084837Y-109148739D01*
X133193666Y-109177900D01*
X133193669Y-109177900D01*
X133306331Y-109177900D01*
X133306334Y-109177900D01*
X133415163Y-109148739D01*
X133512737Y-109092405D01*
X133592405Y-109012737D01*
X133648739Y-108915163D01*
X133677900Y-108806334D01*
X133677900Y-108693666D01*
X133648739Y-108584837D01*
X133592405Y-108487263D01*
X133592403Y-108487261D01*
X133592401Y-108487258D01*
X133512741Y-108407598D01*
X133512735Y-108407594D01*
X133415164Y-108351261D01*
X133387955Y-108343970D01*
X133306334Y-108322100D01*
X133193666Y-108322100D01*
X133128368Y-108339596D01*
X133084835Y-108351261D01*
X132987264Y-108407594D01*
X132987258Y-108407598D01*
X132907598Y-108487258D01*
X132907594Y-108487264D01*
X132851261Y-108584835D01*
X132849234Y-108592401D01*
X132822100Y-108693666D01*
X120798809Y-108693666D01*
X120762741Y-108657598D01*
X120762735Y-108657594D01*
X120665164Y-108601261D01*
X120632097Y-108592401D01*
X120556334Y-108572100D01*
X120443666Y-108572100D01*
X120392590Y-108585786D01*
X120334835Y-108601261D01*
X120237264Y-108657594D01*
X120237258Y-108657598D01*
X120157598Y-108737258D01*
X120157594Y-108737264D01*
X120101261Y-108834835D01*
X120096860Y-108851261D01*
X120072100Y-108943666D01*
X111798809Y-108943666D01*
X111762741Y-108907598D01*
X111762735Y-108907594D01*
X111665164Y-108851261D01*
X111637955Y-108843970D01*
X111556334Y-108822100D01*
X111443666Y-108822100D01*
X111378368Y-108839596D01*
X111334835Y-108851261D01*
X111237264Y-108907594D01*
X111237258Y-108907598D01*
X111157598Y-108987258D01*
X111157594Y-108987264D01*
X111101261Y-109084835D01*
X111099234Y-109092401D01*
X111072100Y-109193666D01*
X105500000Y-109193666D01*
X105500000Y-108750000D01*
X104943666Y-108193666D01*
X107072100Y-108193666D01*
X107072100Y-108306334D01*
X107093970Y-108387955D01*
X107101261Y-108415164D01*
X107157594Y-108512735D01*
X107157598Y-108512741D01*
X107237258Y-108592401D01*
X107237261Y-108592403D01*
X107237263Y-108592405D01*
X107334837Y-108648739D01*
X107443666Y-108677900D01*
X107443669Y-108677900D01*
X107556331Y-108677900D01*
X107556334Y-108677900D01*
X107665163Y-108648739D01*
X107762737Y-108592405D01*
X107842405Y-108512737D01*
X107898739Y-108415163D01*
X107927900Y-108306334D01*
X107927900Y-108193666D01*
X107898739Y-108084837D01*
X107842405Y-107987263D01*
X107842403Y-107987261D01*
X107842401Y-107987258D01*
X107762741Y-107907598D01*
X107762735Y-107907594D01*
X107665164Y-107851261D01*
X107637955Y-107843970D01*
X107556334Y-107822100D01*
X107443666Y-107822100D01*
X107378368Y-107839596D01*
X107334835Y-107851261D01*
X107237264Y-107907594D01*
X107237258Y-107907598D01*
X107157598Y-107987258D01*
X107157594Y-107987264D01*
X107101261Y-108084835D01*
X107086680Y-108139251D01*
X107072100Y-108193666D01*
X104943666Y-108193666D01*
X104750000Y-108000000D01*
X104219670Y-108000000D01*
X102828427Y-108000000D01*
X102000000Y-108000000D01*
X101414214Y-108585786D01*
X100837531Y-109162468D01*
X100833940Y-109165832D01*
X100642805Y-109333453D01*
X100635001Y-109339441D01*
X100425668Y-109479313D01*
X100417149Y-109484232D01*
X100191358Y-109595580D01*
X100182270Y-109599344D01*
X99943879Y-109680267D01*
X99934378Y-109682813D01*
X99687459Y-109731928D01*
X99677706Y-109733212D01*
X99424029Y-109749839D01*
X99419111Y-109750000D01*
X98107249Y-109750000D01*
X98099878Y-109749638D01*
X97944403Y-109734324D01*
X97929945Y-109731448D01*
X97783999Y-109687176D01*
X97770379Y-109681534D01*
X97635879Y-109609642D01*
X97623622Y-109601453D01*
X97568640Y-109556331D01*
X97505721Y-109504695D01*
X97495304Y-109494278D01*
X97398546Y-109376377D01*
X97390357Y-109364120D01*
X97318465Y-109229620D01*
X97312823Y-109216000D01*
X97268551Y-109070054D01*
X97265675Y-109055596D01*
X97250362Y-108900122D01*
X97250000Y-108892751D01*
X97250000Y-106943666D01*
X116572100Y-106943666D01*
X116572100Y-107056334D01*
X116589106Y-107119801D01*
X116601261Y-107165164D01*
X116657594Y-107262735D01*
X116657598Y-107262741D01*
X116737258Y-107342401D01*
X116737261Y-107342403D01*
X116737263Y-107342405D01*
X116834837Y-107398739D01*
X116943666Y-107427900D01*
X116943669Y-107427900D01*
X117056331Y-107427900D01*
X117056334Y-107427900D01*
X117165163Y-107398739D01*
X117262737Y-107342405D01*
X117342405Y-107262737D01*
X117398739Y-107165163D01*
X117427900Y-107056334D01*
X117427900Y-106943666D01*
X117398739Y-106834837D01*
X117398100Y-106833731D01*
X117378600Y-106799956D01*
X117342405Y-106737263D01*
X117342403Y-106737261D01*
X117342401Y-106737258D01*
X117326209Y-106721066D01*
X122822100Y-106721066D01*
X122822100Y-106833734D01*
X122835837Y-106885001D01*
X122851261Y-106942564D01*
X122907594Y-107040135D01*
X122907598Y-107040141D01*
X122987258Y-107119801D01*
X122987261Y-107119803D01*
X122987263Y-107119805D01*
X123084837Y-107176139D01*
X123193666Y-107205300D01*
X123193669Y-107205300D01*
X123306331Y-107205300D01*
X123306334Y-107205300D01*
X123349752Y-107193666D01*
X125072100Y-107193666D01*
X125072100Y-107306334D01*
X125090629Y-107375483D01*
X125101261Y-107415164D01*
X125157594Y-107512735D01*
X125157598Y-107512741D01*
X125237258Y-107592401D01*
X125237261Y-107592403D01*
X125237263Y-107592405D01*
X125334837Y-107648739D01*
X125443666Y-107677900D01*
X125443669Y-107677900D01*
X125556331Y-107677900D01*
X125556334Y-107677900D01*
X125665163Y-107648739D01*
X125762737Y-107592405D01*
X125842405Y-107512737D01*
X125898739Y-107415163D01*
X125927900Y-107306334D01*
X125927900Y-107193666D01*
X125898739Y-107084837D01*
X125842405Y-106987263D01*
X125842403Y-106987261D01*
X125842401Y-106987258D01*
X125775554Y-106920411D01*
X127349500Y-106920411D01*
X127349500Y-107033079D01*
X127363368Y-107084835D01*
X127378661Y-107141909D01*
X127434994Y-107239480D01*
X127434998Y-107239486D01*
X127514658Y-107319146D01*
X127514661Y-107319148D01*
X127514663Y-107319150D01*
X127612237Y-107375484D01*
X127721066Y-107404645D01*
X127721069Y-107404645D01*
X127833731Y-107404645D01*
X127833734Y-107404645D01*
X127942563Y-107375484D01*
X128040137Y-107319150D01*
X128119805Y-107239482D01*
X128146257Y-107193666D01*
X130822100Y-107193666D01*
X130822100Y-107306334D01*
X130840629Y-107375483D01*
X130851261Y-107415164D01*
X130907594Y-107512735D01*
X130907598Y-107512741D01*
X130987258Y-107592401D01*
X130987261Y-107592403D01*
X130987263Y-107592405D01*
X131084837Y-107648739D01*
X131193666Y-107677900D01*
X131193669Y-107677900D01*
X131306331Y-107677900D01*
X131306334Y-107677900D01*
X131415163Y-107648739D01*
X131512737Y-107592405D01*
X131592405Y-107512737D01*
X131648739Y-107415163D01*
X131677900Y-107306334D01*
X131677900Y-107193666D01*
X131648739Y-107084837D01*
X131622930Y-107040135D01*
X131592408Y-106987268D01*
X131592407Y-106987267D01*
X131592405Y-106987263D01*
X131592400Y-106987258D01*
X131592397Y-106987254D01*
X131548809Y-106943666D01*
X132322100Y-106943666D01*
X132322100Y-107056334D01*
X132339106Y-107119801D01*
X132351261Y-107165164D01*
X132407594Y-107262735D01*
X132407598Y-107262741D01*
X132487258Y-107342401D01*
X132487261Y-107342403D01*
X132487263Y-107342405D01*
X132584837Y-107398739D01*
X132693666Y-107427900D01*
X132693669Y-107427900D01*
X132806331Y-107427900D01*
X132806334Y-107427900D01*
X132915163Y-107398739D01*
X133012737Y-107342405D01*
X133092405Y-107262737D01*
X133148739Y-107165163D01*
X133177900Y-107056334D01*
X133177900Y-106943666D01*
X133148739Y-106834837D01*
X133148100Y-106833731D01*
X133135312Y-106811580D01*
X133092405Y-106737263D01*
X133092403Y-106737261D01*
X133092401Y-106737258D01*
X133012741Y-106657598D01*
X133012735Y-106657594D01*
X132915164Y-106601261D01*
X132887955Y-106593970D01*
X132806334Y-106572100D01*
X132693666Y-106572100D01*
X132628368Y-106589596D01*
X132584835Y-106601261D01*
X132487264Y-106657594D01*
X132487258Y-106657598D01*
X132407598Y-106737258D01*
X132407594Y-106737264D01*
X132351261Y-106834835D01*
X132349234Y-106842401D01*
X132322100Y-106943666D01*
X131548809Y-106943666D01*
X131512741Y-106907598D01*
X131512735Y-106907594D01*
X131415164Y-106851261D01*
X131382097Y-106842401D01*
X131306334Y-106822100D01*
X131193666Y-106822100D01*
X131128368Y-106839596D01*
X131084835Y-106851261D01*
X130987264Y-106907594D01*
X130987258Y-106907598D01*
X130907598Y-106987258D01*
X130907594Y-106987264D01*
X130851261Y-107084835D01*
X130850539Y-107087531D01*
X130822100Y-107193666D01*
X128146257Y-107193666D01*
X128176139Y-107141908D01*
X128205300Y-107033079D01*
X128205300Y-106920411D01*
X128176139Y-106811582D01*
X128119805Y-106714008D01*
X128119803Y-106714006D01*
X128119801Y-106714003D01*
X128040141Y-106634343D01*
X128040135Y-106634339D01*
X127942564Y-106578006D01*
X127915355Y-106570715D01*
X127833734Y-106548845D01*
X127721066Y-106548845D01*
X127655768Y-106566341D01*
X127612235Y-106578006D01*
X127514664Y-106634339D01*
X127514658Y-106634343D01*
X127434998Y-106714003D01*
X127434994Y-106714009D01*
X127378661Y-106811580D01*
X127370403Y-106842401D01*
X127349500Y-106920411D01*
X125775554Y-106920411D01*
X125762741Y-106907598D01*
X125762735Y-106907594D01*
X125665164Y-106851261D01*
X125632097Y-106842401D01*
X125556334Y-106822100D01*
X125443666Y-106822100D01*
X125378368Y-106839596D01*
X125334835Y-106851261D01*
X125237264Y-106907594D01*
X125237258Y-106907598D01*
X125157598Y-106987258D01*
X125157594Y-106987264D01*
X125101261Y-107084835D01*
X125100539Y-107087531D01*
X125072100Y-107193666D01*
X123349752Y-107193666D01*
X123415163Y-107176139D01*
X123512737Y-107119805D01*
X123592405Y-107040137D01*
X123648739Y-106942563D01*
X123677900Y-106833734D01*
X123677900Y-106721066D01*
X123648739Y-106612237D01*
X123592405Y-106514663D01*
X123592403Y-106514661D01*
X123592401Y-106514658D01*
X123512741Y-106434998D01*
X123512735Y-106434994D01*
X123415164Y-106378661D01*
X123387834Y-106371338D01*
X123306334Y-106349500D01*
X123193666Y-106349500D01*
X123128368Y-106366996D01*
X123084835Y-106378661D01*
X122987264Y-106434994D01*
X122987258Y-106434998D01*
X122907598Y-106514658D01*
X122907594Y-106514664D01*
X122851261Y-106612235D01*
X122839107Y-106657594D01*
X122822100Y-106721066D01*
X117326209Y-106721066D01*
X117262741Y-106657598D01*
X117262735Y-106657594D01*
X117165164Y-106601261D01*
X117137955Y-106593970D01*
X117056334Y-106572100D01*
X116943666Y-106572100D01*
X116878368Y-106589596D01*
X116834835Y-106601261D01*
X116737264Y-106657594D01*
X116737258Y-106657598D01*
X116657598Y-106737258D01*
X116657594Y-106737264D01*
X116601261Y-106834835D01*
X116599234Y-106842401D01*
X116572100Y-106943666D01*
X97250000Y-106943666D01*
X97250000Y-106443666D01*
X101822100Y-106443666D01*
X101822100Y-106556334D01*
X101843002Y-106634339D01*
X101851261Y-106665164D01*
X101907594Y-106762735D01*
X101907598Y-106762741D01*
X101987258Y-106842401D01*
X101987261Y-106842403D01*
X101987263Y-106842405D01*
X102084837Y-106898739D01*
X102193666Y-106927900D01*
X102193669Y-106927900D01*
X102306331Y-106927900D01*
X102306334Y-106927900D01*
X102415163Y-106898739D01*
X102512737Y-106842405D01*
X102592405Y-106762737D01*
X102648739Y-106665163D01*
X102677900Y-106556334D01*
X102677900Y-106443666D01*
X102648739Y-106334837D01*
X102592405Y-106237263D01*
X102592403Y-106237261D01*
X102592401Y-106237258D01*
X102512741Y-106157598D01*
X102512735Y-106157594D01*
X102415164Y-106101261D01*
X102382097Y-106092401D01*
X102306334Y-106072100D01*
X102193666Y-106072100D01*
X102128368Y-106089596D01*
X102084835Y-106101261D01*
X101987264Y-106157594D01*
X101987258Y-106157598D01*
X101907598Y-106237258D01*
X101907594Y-106237264D01*
X101851261Y-106334835D01*
X101847332Y-106349500D01*
X101822100Y-106443666D01*
X97250000Y-106443666D01*
X97250000Y-105916266D01*
X119072100Y-105916266D01*
X119072100Y-106028934D01*
X119089106Y-106092401D01*
X119101261Y-106137764D01*
X119157594Y-106235335D01*
X119157598Y-106235341D01*
X119237258Y-106315001D01*
X119237261Y-106315003D01*
X119237263Y-106315005D01*
X119334837Y-106371339D01*
X119443666Y-106400500D01*
X119443669Y-106400500D01*
X119556331Y-106400500D01*
X119556334Y-106400500D01*
X119665163Y-106371339D01*
X119762737Y-106315005D01*
X119842405Y-106235337D01*
X119898739Y-106137763D01*
X119927900Y-106028934D01*
X119927900Y-105916266D01*
X119898739Y-105807437D01*
X119898100Y-105806331D01*
X119851916Y-105726337D01*
X119842405Y-105709863D01*
X119842403Y-105709861D01*
X119842401Y-105709858D01*
X119826209Y-105693666D01*
X129099500Y-105693666D01*
X129099500Y-105806334D01*
X129121370Y-105887955D01*
X129128661Y-105915164D01*
X129184994Y-106012735D01*
X129184998Y-106012741D01*
X129264658Y-106092401D01*
X129264661Y-106092403D01*
X129264663Y-106092405D01*
X129362237Y-106148739D01*
X129471066Y-106177900D01*
X129471069Y-106177900D01*
X129583731Y-106177900D01*
X129583734Y-106177900D01*
X129692563Y-106148739D01*
X129790137Y-106092405D01*
X129869805Y-106012737D01*
X129926139Y-105915163D01*
X129955300Y-105806334D01*
X129955300Y-105693666D01*
X129926139Y-105584837D01*
X129869805Y-105487263D01*
X129869803Y-105487261D01*
X129869801Y-105487258D01*
X129790141Y-105407598D01*
X129790135Y-105407594D01*
X129692564Y-105351261D01*
X129665355Y-105343970D01*
X129583734Y-105322100D01*
X129471066Y-105322100D01*
X129405768Y-105339596D01*
X129362235Y-105351261D01*
X129264664Y-105407594D01*
X129264658Y-105407598D01*
X129184998Y-105487258D01*
X129184994Y-105487264D01*
X129128661Y-105584835D01*
X129126634Y-105592401D01*
X129099500Y-105693666D01*
X119826209Y-105693666D01*
X119762741Y-105630198D01*
X119762735Y-105630194D01*
X119665164Y-105573861D01*
X119637955Y-105566570D01*
X119556334Y-105544700D01*
X119443666Y-105544700D01*
X119378368Y-105562196D01*
X119334835Y-105573861D01*
X119237264Y-105630194D01*
X119237258Y-105630198D01*
X119157598Y-105709858D01*
X119157594Y-105709864D01*
X119101261Y-105807435D01*
X119091891Y-105842405D01*
X119072100Y-105916266D01*
X97250000Y-105916266D01*
X97250000Y-105193666D01*
X132212900Y-105193666D01*
X132212900Y-105306334D01*
X132234770Y-105387955D01*
X132242061Y-105415164D01*
X132298394Y-105512735D01*
X132298398Y-105512741D01*
X132378058Y-105592401D01*
X132378061Y-105592403D01*
X132378063Y-105592405D01*
X132475637Y-105648739D01*
X132584466Y-105677900D01*
X132584469Y-105677900D01*
X132697131Y-105677900D01*
X132697134Y-105677900D01*
X132805963Y-105648739D01*
X132903537Y-105592405D01*
X132983205Y-105512737D01*
X133039539Y-105415163D01*
X133068700Y-105306334D01*
X133068700Y-105193666D01*
X133039539Y-105084837D01*
X132983205Y-104987263D01*
X132983203Y-104987261D01*
X132983201Y-104987258D01*
X132903541Y-104907598D01*
X132903535Y-104907594D01*
X132902523Y-104907010D01*
X132882916Y-104895689D01*
X132805964Y-104851261D01*
X132778755Y-104843970D01*
X132697134Y-104822100D01*
X132584466Y-104822100D01*
X132519168Y-104839596D01*
X132475635Y-104851261D01*
X132378064Y-104907594D01*
X132378058Y-104907598D01*
X132298398Y-104987258D01*
X132298394Y-104987264D01*
X132242061Y-105084835D01*
X132240034Y-105092401D01*
X132212900Y-105193666D01*
X97250000Y-105193666D01*
X97250000Y-104693666D01*
X100072100Y-104693666D01*
X100072100Y-104806334D01*
X100093970Y-104887955D01*
X100101261Y-104915164D01*
X100157594Y-105012735D01*
X100157598Y-105012741D01*
X100237258Y-105092401D01*
X100237261Y-105092403D01*
X100237263Y-105092405D01*
X100334837Y-105148739D01*
X100443666Y-105177900D01*
X100443669Y-105177900D01*
X100556331Y-105177900D01*
X100556334Y-105177900D01*
X100665163Y-105148739D01*
X100762737Y-105092405D01*
X100842405Y-105012737D01*
X100898739Y-104915163D01*
X100927900Y-104806334D01*
X100927900Y-104693666D01*
X102822100Y-104693666D01*
X102822100Y-104806334D01*
X102843970Y-104887955D01*
X102851261Y-104915164D01*
X102907594Y-105012735D01*
X102907598Y-105012741D01*
X102987258Y-105092401D01*
X102987261Y-105092403D01*
X102987263Y-105092405D01*
X103084837Y-105148739D01*
X103193666Y-105177900D01*
X103193669Y-105177900D01*
X103306331Y-105177900D01*
X103306334Y-105177900D01*
X103415163Y-105148739D01*
X103512737Y-105092405D01*
X103592405Y-105012737D01*
X103648739Y-104915163D01*
X103677900Y-104806334D01*
X103677900Y-104693666D01*
X103648739Y-104584837D01*
X103592405Y-104487263D01*
X103592403Y-104487261D01*
X103592401Y-104487258D01*
X103512741Y-104407598D01*
X103512735Y-104407594D01*
X103415164Y-104351261D01*
X103387955Y-104343970D01*
X103306334Y-104322100D01*
X103193666Y-104322100D01*
X103128368Y-104339596D01*
X103084835Y-104351261D01*
X102987264Y-104407594D01*
X102987258Y-104407598D01*
X102907598Y-104487258D01*
X102907594Y-104487264D01*
X102851261Y-104584835D01*
X102849234Y-104592401D01*
X102822100Y-104693666D01*
X100927900Y-104693666D01*
X100898739Y-104584837D01*
X100842405Y-104487263D01*
X100842403Y-104487261D01*
X100842401Y-104487258D01*
X100762741Y-104407598D01*
X100762735Y-104407594D01*
X100665164Y-104351261D01*
X100637955Y-104343970D01*
X100556334Y-104322100D01*
X100443666Y-104322100D01*
X100378368Y-104339596D01*
X100334835Y-104351261D01*
X100237264Y-104407594D01*
X100237258Y-104407598D01*
X100157598Y-104487258D01*
X100157594Y-104487264D01*
X100101261Y-104584835D01*
X100099234Y-104592401D01*
X100072100Y-104693666D01*
X97250000Y-104693666D01*
X97250000Y-104193666D01*
X127322100Y-104193666D01*
X127322100Y-104306334D01*
X127343970Y-104387955D01*
X127351261Y-104415164D01*
X127407594Y-104512735D01*
X127407598Y-104512741D01*
X127487258Y-104592401D01*
X127487261Y-104592403D01*
X127487263Y-104592405D01*
X127584837Y-104648739D01*
X127693666Y-104677900D01*
X127693669Y-104677900D01*
X127806331Y-104677900D01*
X127806334Y-104677900D01*
X127915163Y-104648739D01*
X128012737Y-104592405D01*
X128092405Y-104512737D01*
X128148739Y-104415163D01*
X128177900Y-104306334D01*
X128177900Y-104193666D01*
X128148739Y-104084837D01*
X128092405Y-103987263D01*
X128092403Y-103987261D01*
X128092401Y-103987258D01*
X128012741Y-103907598D01*
X128012735Y-103907594D01*
X127915164Y-103851261D01*
X127887955Y-103843970D01*
X127806334Y-103822100D01*
X127693666Y-103822100D01*
X127628368Y-103839596D01*
X127584835Y-103851261D01*
X127487264Y-103907594D01*
X127487258Y-103907598D01*
X127407598Y-103987258D01*
X127407594Y-103987264D01*
X127351261Y-104084835D01*
X127342884Y-104116099D01*
X127322100Y-104193666D01*
X97250000Y-104193666D01*
X97250000Y-103656166D01*
X112534600Y-103656166D01*
X112534600Y-103768834D01*
X112548873Y-103822100D01*
X112563761Y-103877664D01*
X112620094Y-103975235D01*
X112620098Y-103975241D01*
X112699758Y-104054901D01*
X112699761Y-104054903D01*
X112699763Y-104054905D01*
X112797337Y-104111239D01*
X112906166Y-104140400D01*
X112906169Y-104140400D01*
X113018831Y-104140400D01*
X113018834Y-104140400D01*
X113127663Y-104111239D01*
X113225237Y-104054905D01*
X113304905Y-103975237D01*
X113361239Y-103877663D01*
X113390400Y-103768834D01*
X113390400Y-103656166D01*
X113361239Y-103547337D01*
X113304905Y-103449763D01*
X113304903Y-103449761D01*
X113304901Y-103449758D01*
X113225241Y-103370098D01*
X113225235Y-103370094D01*
X113224308Y-103369559D01*
X113204616Y-103358189D01*
X113127664Y-103313761D01*
X113100455Y-103306470D01*
X113018834Y-103284600D01*
X112906166Y-103284600D01*
X112840868Y-103302096D01*
X112797335Y-103313761D01*
X112699764Y-103370094D01*
X112699758Y-103370098D01*
X112620098Y-103449758D01*
X112620094Y-103449764D01*
X112563761Y-103547335D01*
X112549180Y-103601751D01*
X112534600Y-103656166D01*
X97250000Y-103656166D01*
X97250000Y-101718666D01*
X120342955Y-101718666D01*
X120342955Y-101831334D01*
X120343894Y-101834837D01*
X120372116Y-101940164D01*
X120428449Y-102037735D01*
X120428453Y-102037741D01*
X120508113Y-102117401D01*
X120508116Y-102117403D01*
X120508118Y-102117405D01*
X120585071Y-102161833D01*
X120590839Y-102165164D01*
X120605692Y-102173739D01*
X120714521Y-102202900D01*
X120714524Y-102202900D01*
X120827186Y-102202900D01*
X120827189Y-102202900D01*
X120936018Y-102173739D01*
X121033592Y-102117405D01*
X121113260Y-102037737D01*
X121169594Y-101940163D01*
X121198755Y-101831334D01*
X121198755Y-101740375D01*
X121797471Y-101740375D01*
X121797471Y-101859625D01*
X121819990Y-101943668D01*
X121828335Y-101974813D01*
X121828335Y-101974814D01*
X121887960Y-102078087D01*
X121972283Y-102162410D01*
X122031909Y-102196834D01*
X122075558Y-102222036D01*
X122190746Y-102252900D01*
X122190749Y-102252900D01*
X122309993Y-102252900D01*
X122309996Y-102252900D01*
X122425184Y-102222036D01*
X122528458Y-102162410D01*
X122612781Y-102078087D01*
X122672407Y-101974813D01*
X122703271Y-101859625D01*
X122703271Y-101740375D01*
X122697454Y-101718666D01*
X128572100Y-101718666D01*
X128572100Y-101831334D01*
X128573039Y-101834837D01*
X128601261Y-101940164D01*
X128657594Y-102037735D01*
X128657598Y-102037741D01*
X128737258Y-102117401D01*
X128737261Y-102117403D01*
X128737263Y-102117405D01*
X128814216Y-102161833D01*
X128819984Y-102165164D01*
X128834837Y-102173739D01*
X128943666Y-102202900D01*
X128943669Y-102202900D01*
X129056331Y-102202900D01*
X129056334Y-102202900D01*
X129165163Y-102173739D01*
X129262737Y-102117405D01*
X129342405Y-102037737D01*
X129396717Y-101943666D01*
X137072100Y-101943666D01*
X137072100Y-102056334D01*
X137077929Y-102078087D01*
X137101261Y-102165164D01*
X137157594Y-102262735D01*
X137157598Y-102262741D01*
X137237258Y-102342401D01*
X137237261Y-102342403D01*
X137237263Y-102342405D01*
X137334837Y-102398739D01*
X137443666Y-102427900D01*
X137443669Y-102427900D01*
X137556331Y-102427900D01*
X137556334Y-102427900D01*
X137665163Y-102398739D01*
X137762737Y-102342405D01*
X137842405Y-102262737D01*
X137898739Y-102165163D01*
X137927900Y-102056334D01*
X137927900Y-101943666D01*
X137898739Y-101834837D01*
X137842405Y-101737263D01*
X137842403Y-101737261D01*
X137842401Y-101737258D01*
X137762741Y-101657598D01*
X137762735Y-101657594D01*
X137665164Y-101601261D01*
X137637955Y-101593970D01*
X137556334Y-101572100D01*
X137443666Y-101572100D01*
X137378368Y-101589596D01*
X137334835Y-101601261D01*
X137237264Y-101657594D01*
X137237258Y-101657598D01*
X137157598Y-101737258D01*
X137157594Y-101737264D01*
X137101261Y-101834835D01*
X137094620Y-101859622D01*
X137072100Y-101943666D01*
X129396717Y-101943666D01*
X129398739Y-101940163D01*
X129427900Y-101831334D01*
X129427900Y-101718666D01*
X129398739Y-101609837D01*
X129342405Y-101512263D01*
X129342403Y-101512261D01*
X129342401Y-101512258D01*
X129262741Y-101432598D01*
X129262735Y-101432594D01*
X129165164Y-101376261D01*
X129137955Y-101368970D01*
X129056334Y-101347100D01*
X128943666Y-101347100D01*
X128878368Y-101364596D01*
X128834835Y-101376261D01*
X128737264Y-101432594D01*
X128737258Y-101432598D01*
X128657598Y-101512258D01*
X128657594Y-101512264D01*
X128601261Y-101609835D01*
X128597148Y-101625185D01*
X128572100Y-101718666D01*
X122697454Y-101718666D01*
X122672407Y-101625187D01*
X122663545Y-101609837D01*
X122612781Y-101521912D01*
X122528458Y-101437589D01*
X122425184Y-101377964D01*
X122418828Y-101376261D01*
X122309996Y-101347100D01*
X122190746Y-101347100D01*
X122104355Y-101370248D01*
X122075557Y-101377964D01*
X122075556Y-101377964D01*
X121972283Y-101437589D01*
X121887960Y-101521912D01*
X121828335Y-101625185D01*
X121828335Y-101625186D01*
X121828335Y-101625187D01*
X121797471Y-101740375D01*
X121198755Y-101740375D01*
X121198755Y-101718666D01*
X121169594Y-101609837D01*
X121113260Y-101512263D01*
X121113258Y-101512261D01*
X121113256Y-101512258D01*
X121033596Y-101432598D01*
X121033590Y-101432594D01*
X120936019Y-101376261D01*
X120908810Y-101368970D01*
X120827189Y-101347100D01*
X120714521Y-101347100D01*
X120649223Y-101364596D01*
X120605690Y-101376261D01*
X120508119Y-101432594D01*
X120508113Y-101432598D01*
X120428453Y-101512258D01*
X120428449Y-101512264D01*
X120372116Y-101609835D01*
X120368003Y-101625185D01*
X120342955Y-101718666D01*
X97250000Y-101718666D01*
X97250000Y-99813770D01*
X104124500Y-99813770D01*
X104124500Y-99986229D01*
X104158145Y-100155376D01*
X104158146Y-100155377D01*
X104224142Y-100314705D01*
X104319955Y-100458099D01*
X104319957Y-100458101D01*
X104319959Y-100458104D01*
X104441895Y-100580040D01*
X104441898Y-100580042D01*
X104441901Y-100580045D01*
X104585295Y-100675858D01*
X104744622Y-100741853D01*
X104744623Y-100741854D01*
X104744624Y-100741854D01*
X104744626Y-100741855D01*
X104857896Y-100764385D01*
X104913770Y-100775500D01*
X104913771Y-100775500D01*
X105086230Y-100775500D01*
X105128229Y-100767145D01*
X105255374Y-100741855D01*
X105414705Y-100675858D01*
X105558099Y-100580045D01*
X105680045Y-100458099D01*
X105775858Y-100314705D01*
X105841855Y-100155374D01*
X105875500Y-99986229D01*
X105875500Y-99813771D01*
X105841855Y-99644626D01*
X105788289Y-99515308D01*
X105786046Y-99463918D01*
X105817361Y-99423108D01*
X105867581Y-99411974D01*
X105869530Y-99412257D01*
X105873942Y-99412955D01*
X105873945Y-99412957D01*
X105968292Y-99427900D01*
X105968296Y-99427900D01*
X107231704Y-99427900D01*
X107231708Y-99427900D01*
X107326055Y-99412957D01*
X107439771Y-99355016D01*
X107530016Y-99264771D01*
X107587957Y-99151055D01*
X107602900Y-99056708D01*
X107602900Y-98772924D01*
X107620493Y-98724586D01*
X107665042Y-98698866D01*
X107715700Y-98707799D01*
X107747576Y-98744146D01*
X107750000Y-98749998D01*
X107750000Y-98750000D01*
X108500000Y-99500000D01*
X109750000Y-99500000D01*
X110489792Y-98760207D01*
X110536411Y-98738468D01*
X110586098Y-98751782D01*
X110612441Y-98784604D01*
X110669501Y-98922360D01*
X110784413Y-99094338D01*
X110784415Y-99094341D01*
X110930658Y-99240584D01*
X110930661Y-99240586D01*
X111102639Y-99355498D01*
X111293722Y-99434648D01*
X111293723Y-99434649D01*
X111349999Y-99445843D01*
X111350000Y-99445843D01*
X111350000Y-98704145D01*
X111416657Y-98742630D01*
X111537465Y-98775000D01*
X111662535Y-98775000D01*
X111783343Y-98742630D01*
X111850000Y-98704145D01*
X111850000Y-99445843D01*
X111906276Y-99434649D01*
X111906277Y-99434648D01*
X112097360Y-99355498D01*
X112269338Y-99240586D01*
X112269341Y-99240584D01*
X112415584Y-99094341D01*
X112415586Y-99094338D01*
X112530498Y-98922360D01*
X112609649Y-98731273D01*
X112609650Y-98731271D01*
X112645707Y-98550000D01*
X112004146Y-98550000D01*
X112042630Y-98483343D01*
X112075000Y-98362535D01*
X112075000Y-98237465D01*
X112042630Y-98116657D01*
X112019285Y-98076222D01*
X113097100Y-98076222D01*
X113097100Y-98523777D01*
X113135641Y-98717537D01*
X113135642Y-98717538D01*
X113211240Y-98900049D01*
X113211241Y-98900051D01*
X113320996Y-99064312D01*
X113320997Y-99064313D01*
X113321000Y-99064317D01*
X113460682Y-99203999D01*
X113460685Y-99204001D01*
X113460688Y-99204004D01*
X113624949Y-99313759D01*
X113807461Y-99389357D01*
X113807462Y-99389358D01*
X113807463Y-99389358D01*
X113807465Y-99389359D01*
X113921158Y-99411974D01*
X114001222Y-99427900D01*
X114001223Y-99427900D01*
X114198778Y-99427900D01*
X114277419Y-99412257D01*
X114392535Y-99389359D01*
X114575051Y-99313759D01*
X114739312Y-99204004D01*
X114879004Y-99064312D01*
X114988759Y-98900051D01*
X115064359Y-98717535D01*
X115102900Y-98523777D01*
X115102900Y-98076223D01*
X115102900Y-98076222D01*
X115597100Y-98076222D01*
X115597100Y-98523777D01*
X115635641Y-98717537D01*
X115635642Y-98717538D01*
X115711240Y-98900049D01*
X115711241Y-98900051D01*
X115820996Y-99064312D01*
X115820997Y-99064313D01*
X115821000Y-99064317D01*
X115960682Y-99203999D01*
X115960685Y-99204001D01*
X115960688Y-99204004D01*
X116124949Y-99313759D01*
X116307461Y-99389357D01*
X116307462Y-99389358D01*
X116307463Y-99389358D01*
X116307465Y-99389359D01*
X116421158Y-99411974D01*
X116501222Y-99427900D01*
X116501223Y-99427900D01*
X116698778Y-99427900D01*
X116777419Y-99412257D01*
X116892535Y-99389359D01*
X117075051Y-99313759D01*
X117239312Y-99204004D01*
X117379004Y-99064312D01*
X117488759Y-98900051D01*
X117564359Y-98717535D01*
X117602900Y-98523777D01*
X117602900Y-98076223D01*
X117602900Y-98076222D01*
X118097100Y-98076222D01*
X118097100Y-98523777D01*
X118135641Y-98717537D01*
X118135642Y-98717538D01*
X118211240Y-98900049D01*
X118211241Y-98900051D01*
X118320996Y-99064312D01*
X118320997Y-99064313D01*
X118321000Y-99064317D01*
X118460682Y-99203999D01*
X118460685Y-99204001D01*
X118460688Y-99204004D01*
X118624949Y-99313759D01*
X118807461Y-99389357D01*
X118807462Y-99389358D01*
X118807463Y-99389358D01*
X118807465Y-99389359D01*
X118921158Y-99411974D01*
X119001222Y-99427900D01*
X119001223Y-99427900D01*
X119198778Y-99427900D01*
X119277419Y-99412257D01*
X119392535Y-99389359D01*
X119575051Y-99313759D01*
X119739312Y-99204004D01*
X119879004Y-99064312D01*
X119988759Y-98900051D01*
X120064359Y-98717535D01*
X120102900Y-98523777D01*
X120102900Y-98076223D01*
X120102900Y-98076222D01*
X120597100Y-98076222D01*
X120597100Y-98523777D01*
X120635641Y-98717537D01*
X120635642Y-98717538D01*
X120711240Y-98900049D01*
X120711241Y-98900051D01*
X120820996Y-99064312D01*
X120820997Y-99064313D01*
X120821000Y-99064317D01*
X120960682Y-99203999D01*
X120960685Y-99204001D01*
X120960688Y-99204004D01*
X121124949Y-99313759D01*
X121307461Y-99389357D01*
X121307462Y-99389358D01*
X121307463Y-99389358D01*
X121307465Y-99389359D01*
X121421158Y-99411974D01*
X121501222Y-99427900D01*
X121501223Y-99427900D01*
X121698778Y-99427900D01*
X121777419Y-99412257D01*
X121892535Y-99389359D01*
X122075051Y-99313759D01*
X122239312Y-99204004D01*
X122379004Y-99064312D01*
X122488759Y-98900051D01*
X122564359Y-98717535D01*
X122602900Y-98523777D01*
X122602900Y-98076223D01*
X122602900Y-98076222D01*
X123097100Y-98076222D01*
X123097100Y-98523777D01*
X123135641Y-98717537D01*
X123135642Y-98717538D01*
X123211240Y-98900049D01*
X123211241Y-98900051D01*
X123320996Y-99064312D01*
X123320997Y-99064313D01*
X123321000Y-99064317D01*
X123460682Y-99203999D01*
X123460685Y-99204001D01*
X123460688Y-99204004D01*
X123624949Y-99313759D01*
X123807461Y-99389357D01*
X123807462Y-99389358D01*
X123807463Y-99389358D01*
X123807465Y-99389359D01*
X123921158Y-99411974D01*
X124001222Y-99427900D01*
X124001223Y-99427900D01*
X124198778Y-99427900D01*
X124277419Y-99412257D01*
X124392535Y-99389359D01*
X124502849Y-99343666D01*
X137372100Y-99343666D01*
X137372100Y-99456334D01*
X137393970Y-99537955D01*
X137401261Y-99565164D01*
X137457594Y-99662735D01*
X137457598Y-99662741D01*
X137537258Y-99742401D01*
X137537261Y-99742403D01*
X137537263Y-99742405D01*
X137634837Y-99798739D01*
X137743666Y-99827900D01*
X137743669Y-99827900D01*
X137856331Y-99827900D01*
X137856334Y-99827900D01*
X137965163Y-99798739D01*
X138062737Y-99742405D01*
X138142405Y-99662737D01*
X138198739Y-99565163D01*
X138227900Y-99456334D01*
X138227900Y-99343666D01*
X138198739Y-99234837D01*
X138142405Y-99137263D01*
X138142403Y-99137261D01*
X138142401Y-99137258D01*
X138062741Y-99057598D01*
X138062735Y-99057594D01*
X138061207Y-99056712D01*
X138032549Y-99040166D01*
X137965164Y-99001261D01*
X137937955Y-98993970D01*
X137856334Y-98972100D01*
X137743666Y-98972100D01*
X137678368Y-98989596D01*
X137634835Y-99001261D01*
X137537264Y-99057594D01*
X137537258Y-99057598D01*
X137457598Y-99137258D01*
X137457594Y-99137264D01*
X137401261Y-99234835D01*
X137390175Y-99276210D01*
X137372100Y-99343666D01*
X124502849Y-99343666D01*
X124575051Y-99313759D01*
X124739312Y-99204004D01*
X124879004Y-99064312D01*
X124988759Y-98900051D01*
X125064359Y-98717535D01*
X125102900Y-98523777D01*
X125102900Y-98076223D01*
X125064359Y-97882465D01*
X124988759Y-97699949D01*
X124879004Y-97535688D01*
X124879001Y-97535685D01*
X124878999Y-97535682D01*
X124739317Y-97396000D01*
X124739313Y-97395997D01*
X124739312Y-97395996D01*
X124575051Y-97286241D01*
X124575049Y-97286240D01*
X124392538Y-97210642D01*
X124392537Y-97210641D01*
X124198778Y-97172100D01*
X124198777Y-97172100D01*
X124001223Y-97172100D01*
X124001222Y-97172100D01*
X123807462Y-97210641D01*
X123807461Y-97210642D01*
X123624950Y-97286240D01*
X123460682Y-97396000D01*
X123321000Y-97535682D01*
X123211240Y-97699950D01*
X123135642Y-97882461D01*
X123135641Y-97882462D01*
X123097100Y-98076222D01*
X122602900Y-98076222D01*
X122564359Y-97882465D01*
X122488759Y-97699949D01*
X122379004Y-97535688D01*
X122379001Y-97535685D01*
X122378999Y-97535682D01*
X122239317Y-97396000D01*
X122239313Y-97395997D01*
X122239312Y-97395996D01*
X122075051Y-97286241D01*
X122075049Y-97286240D01*
X121892538Y-97210642D01*
X121892537Y-97210641D01*
X121698778Y-97172100D01*
X121698777Y-97172100D01*
X121501223Y-97172100D01*
X121501222Y-97172100D01*
X121307462Y-97210641D01*
X121307461Y-97210642D01*
X121124950Y-97286240D01*
X120960682Y-97396000D01*
X120821000Y-97535682D01*
X120711240Y-97699950D01*
X120635642Y-97882461D01*
X120635641Y-97882462D01*
X120597100Y-98076222D01*
X120102900Y-98076222D01*
X120064359Y-97882465D01*
X119988759Y-97699949D01*
X119879004Y-97535688D01*
X119879001Y-97535685D01*
X119878999Y-97535682D01*
X119739317Y-97396000D01*
X119739313Y-97395997D01*
X119739312Y-97395996D01*
X119575051Y-97286241D01*
X119575049Y-97286240D01*
X119392538Y-97210642D01*
X119392537Y-97210641D01*
X119198778Y-97172100D01*
X119198777Y-97172100D01*
X119001223Y-97172100D01*
X119001222Y-97172100D01*
X118807462Y-97210641D01*
X118807461Y-97210642D01*
X118624950Y-97286240D01*
X118460682Y-97396000D01*
X118321000Y-97535682D01*
X118211240Y-97699950D01*
X118135642Y-97882461D01*
X118135641Y-97882462D01*
X118097100Y-98076222D01*
X117602900Y-98076222D01*
X117564359Y-97882465D01*
X117488759Y-97699949D01*
X117379004Y-97535688D01*
X117379001Y-97535685D01*
X117378999Y-97535682D01*
X117239317Y-97396000D01*
X117239313Y-97395997D01*
X117239312Y-97395996D01*
X117075051Y-97286241D01*
X117075049Y-97286240D01*
X116892538Y-97210642D01*
X116892537Y-97210641D01*
X116698778Y-97172100D01*
X116698777Y-97172100D01*
X116501223Y-97172100D01*
X116501222Y-97172100D01*
X116307462Y-97210641D01*
X116307461Y-97210642D01*
X116124950Y-97286240D01*
X115960682Y-97396000D01*
X115821000Y-97535682D01*
X115711240Y-97699950D01*
X115635642Y-97882461D01*
X115635641Y-97882462D01*
X115597100Y-98076222D01*
X115102900Y-98076222D01*
X115064359Y-97882465D01*
X114988759Y-97699949D01*
X114879004Y-97535688D01*
X114879001Y-97535685D01*
X114878999Y-97535682D01*
X114739317Y-97396000D01*
X114739313Y-97395997D01*
X114739312Y-97395996D01*
X114575051Y-97286241D01*
X114575049Y-97286240D01*
X114392538Y-97210642D01*
X114392537Y-97210641D01*
X114198778Y-97172100D01*
X114198777Y-97172100D01*
X114001223Y-97172100D01*
X114001222Y-97172100D01*
X113807462Y-97210641D01*
X113807461Y-97210642D01*
X113624950Y-97286240D01*
X113460682Y-97396000D01*
X113321000Y-97535682D01*
X113211240Y-97699950D01*
X113135642Y-97882461D01*
X113135641Y-97882462D01*
X113097100Y-98076222D01*
X112019285Y-98076222D01*
X112004146Y-98050000D01*
X112645707Y-98050000D01*
X112609650Y-97868728D01*
X112609649Y-97868726D01*
X112530498Y-97677639D01*
X112415586Y-97505661D01*
X112415584Y-97505658D01*
X112269341Y-97359415D01*
X112269338Y-97359413D01*
X112097360Y-97244501D01*
X111906271Y-97165349D01*
X111850000Y-97154156D01*
X111850000Y-97895854D01*
X111783343Y-97857370D01*
X111662535Y-97825000D01*
X111537465Y-97825000D01*
X111416657Y-97857370D01*
X111350000Y-97895854D01*
X111350000Y-97154156D01*
X111349999Y-97154156D01*
X111293728Y-97165349D01*
X111102639Y-97244501D01*
X110930661Y-97359413D01*
X110930658Y-97359415D01*
X110784415Y-97505658D01*
X110784413Y-97505661D01*
X110669501Y-97677639D01*
X110644676Y-97737573D01*
X110609923Y-97775498D01*
X110558923Y-97782212D01*
X110515540Y-97754574D01*
X110500000Y-97708795D01*
X110500000Y-97500000D01*
X109750000Y-96750000D01*
X108500000Y-96750000D01*
X107750000Y-97499999D01*
X107750000Y-97516540D01*
X107732407Y-97564878D01*
X107687858Y-97590598D01*
X107637200Y-97581665D01*
X107604135Y-97542260D01*
X107600526Y-97528304D01*
X107587957Y-97448945D01*
X107530016Y-97335229D01*
X107439771Y-97244984D01*
X107326055Y-97187043D01*
X107326057Y-97187043D01*
X107231710Y-97172100D01*
X107231708Y-97172100D01*
X105968292Y-97172100D01*
X105968289Y-97172100D01*
X105873943Y-97187043D01*
X105760228Y-97244984D01*
X105669984Y-97335228D01*
X105612043Y-97448943D01*
X105597100Y-97543289D01*
X105597100Y-99056712D01*
X105603737Y-99098615D01*
X105593922Y-99149109D01*
X105553945Y-99181481D01*
X105502513Y-99180583D01*
X105487684Y-99172905D01*
X105467858Y-99159658D01*
X105414705Y-99124142D01*
X105392772Y-99115057D01*
X105255377Y-99058146D01*
X105255376Y-99058145D01*
X105086230Y-99024500D01*
X105086229Y-99024500D01*
X104913771Y-99024500D01*
X104913770Y-99024500D01*
X104744623Y-99058145D01*
X104744622Y-99058146D01*
X104585296Y-99124141D01*
X104441898Y-99219957D01*
X104441895Y-99219959D01*
X104319959Y-99341895D01*
X104319957Y-99341898D01*
X104224141Y-99485296D01*
X104158146Y-99644622D01*
X104158145Y-99644623D01*
X104124500Y-99813770D01*
X97250000Y-99813770D01*
X97250000Y-98443666D01*
X98072100Y-98443666D01*
X98072100Y-98556334D01*
X98081565Y-98591657D01*
X98101261Y-98665164D01*
X98157594Y-98762735D01*
X98157598Y-98762741D01*
X98237258Y-98842401D01*
X98237261Y-98842403D01*
X98237263Y-98842405D01*
X98334837Y-98898739D01*
X98443666Y-98927900D01*
X98443669Y-98927900D01*
X98556331Y-98927900D01*
X98556334Y-98927900D01*
X98665163Y-98898739D01*
X98762737Y-98842405D01*
X98842405Y-98762737D01*
X98898739Y-98665163D01*
X98927900Y-98556334D01*
X98927900Y-98443666D01*
X98898739Y-98334837D01*
X98842405Y-98237263D01*
X98842403Y-98237261D01*
X98842401Y-98237258D01*
X98762741Y-98157598D01*
X98762735Y-98157594D01*
X98665164Y-98101261D01*
X98637955Y-98093970D01*
X98556334Y-98072100D01*
X98443666Y-98072100D01*
X98378368Y-98089596D01*
X98334835Y-98101261D01*
X98237264Y-98157594D01*
X98237258Y-98157598D01*
X98157598Y-98237258D01*
X98157594Y-98237264D01*
X98101261Y-98334835D01*
X98093839Y-98362535D01*
X98072100Y-98443666D01*
X97250000Y-98443666D01*
X97250000Y-97002680D01*
X97250192Y-96997315D01*
X97263187Y-96815621D01*
X97269973Y-96720728D01*
X97271500Y-96710114D01*
X97329871Y-96441788D01*
X97332888Y-96431508D01*
X97428861Y-96174194D01*
X97433307Y-96164460D01*
X97449425Y-96134942D01*
X128147100Y-96134942D01*
X128147100Y-97265055D01*
X128147101Y-97265057D01*
X128155972Y-97309659D01*
X128189764Y-97360232D01*
X128189765Y-97360232D01*
X128189766Y-97360234D01*
X128240342Y-97394028D01*
X128284943Y-97402900D01*
X129715056Y-97402899D01*
X129759658Y-97394028D01*
X129810234Y-97360234D01*
X129844028Y-97309658D01*
X129852900Y-97265057D01*
X129852899Y-96615996D01*
X130147100Y-96615996D01*
X130147100Y-96784003D01*
X130173137Y-96914905D01*
X130179876Y-96948782D01*
X130244170Y-97104000D01*
X130337509Y-97243692D01*
X130337511Y-97243694D01*
X130337513Y-97243697D01*
X130456302Y-97362486D01*
X130456305Y-97362488D01*
X130456308Y-97362491D01*
X130596000Y-97455830D01*
X130751218Y-97520124D01*
X130829435Y-97535682D01*
X130915996Y-97552900D01*
X130915997Y-97552900D01*
X131084004Y-97552900D01*
X131125197Y-97544706D01*
X131248782Y-97520124D01*
X131404000Y-97455830D01*
X131543692Y-97362491D01*
X131662491Y-97243692D01*
X131755830Y-97104000D01*
X131820124Y-96948782D01*
X131852900Y-96784003D01*
X131852900Y-96615997D01*
X131852900Y-96615996D01*
X132147100Y-96615996D01*
X132147100Y-96784003D01*
X132173137Y-96914905D01*
X132179876Y-96948782D01*
X132244170Y-97104000D01*
X132337509Y-97243692D01*
X132337511Y-97243694D01*
X132337513Y-97243697D01*
X132456302Y-97362486D01*
X132456305Y-97362488D01*
X132456308Y-97362491D01*
X132596000Y-97455830D01*
X132751218Y-97520124D01*
X132829435Y-97535682D01*
X132915996Y-97552900D01*
X132915997Y-97552900D01*
X133084004Y-97552900D01*
X133125197Y-97544706D01*
X133248782Y-97520124D01*
X133320358Y-97490476D01*
X134563075Y-97490476D01*
X134563076Y-97490477D01*
X134573690Y-97497570D01*
X134737476Y-97565412D01*
X134737477Y-97565413D01*
X134911357Y-97600000D01*
X135088643Y-97600000D01*
X135262522Y-97565413D01*
X135262523Y-97565412D01*
X135426309Y-97497569D01*
X135436923Y-97490476D01*
X135000001Y-97053554D01*
X134999999Y-97053554D01*
X134563075Y-97490476D01*
X133320358Y-97490476D01*
X133404000Y-97455830D01*
X133543692Y-97362491D01*
X133662491Y-97243692D01*
X133755830Y-97104000D01*
X133820124Y-96948782D01*
X133852900Y-96784003D01*
X133852900Y-96615997D01*
X133851977Y-96611357D01*
X134100000Y-96611357D01*
X134100000Y-96788642D01*
X134134586Y-96962522D01*
X134134587Y-96962523D01*
X134202429Y-97126310D01*
X134209521Y-97136922D01*
X134646446Y-96699999D01*
X134600369Y-96653922D01*
X134650000Y-96653922D01*
X134650000Y-96746078D01*
X134673852Y-96835095D01*
X134719930Y-96914905D01*
X134785095Y-96980070D01*
X134864905Y-97026148D01*
X134953922Y-97050000D01*
X135046078Y-97050000D01*
X135135095Y-97026148D01*
X135214905Y-96980070D01*
X135280070Y-96914905D01*
X135326148Y-96835095D01*
X135350000Y-96746078D01*
X135350000Y-96699998D01*
X135353554Y-96699998D01*
X135353554Y-96700001D01*
X135790476Y-97136923D01*
X135797569Y-97126309D01*
X135865412Y-96962523D01*
X135865413Y-96962522D01*
X135900000Y-96788642D01*
X135900000Y-96611357D01*
X135865413Y-96437477D01*
X135865412Y-96437476D01*
X135797570Y-96273690D01*
X135790477Y-96263076D01*
X135790476Y-96263075D01*
X135353554Y-96699998D01*
X135350000Y-96699998D01*
X135350000Y-96653922D01*
X135326148Y-96564905D01*
X135280070Y-96485095D01*
X135214905Y-96419930D01*
X135135095Y-96373852D01*
X135046078Y-96350000D01*
X134953922Y-96350000D01*
X134864905Y-96373852D01*
X134785095Y-96419930D01*
X134719930Y-96485095D01*
X134673852Y-96564905D01*
X134650000Y-96653922D01*
X134600369Y-96653922D01*
X134209522Y-96263075D01*
X134209521Y-96263075D01*
X134202430Y-96273688D01*
X134134587Y-96437476D01*
X134134586Y-96437477D01*
X134100000Y-96611357D01*
X133851977Y-96611357D01*
X133820124Y-96451218D01*
X133755830Y-96296000D01*
X133662491Y-96156308D01*
X133662488Y-96156305D01*
X133662486Y-96156302D01*
X133543697Y-96037513D01*
X133543694Y-96037511D01*
X133543692Y-96037509D01*
X133404000Y-95944170D01*
X133381847Y-95934994D01*
X133353927Y-95923429D01*
X133320351Y-95909521D01*
X134563075Y-95909521D01*
X134563075Y-95909522D01*
X134999999Y-96346446D01*
X135000000Y-96346446D01*
X135125379Y-96221066D01*
X137322100Y-96221066D01*
X137322100Y-96333734D01*
X137326459Y-96350000D01*
X137351261Y-96442564D01*
X137407594Y-96540135D01*
X137407598Y-96540141D01*
X137487258Y-96619801D01*
X137487261Y-96619803D01*
X137487263Y-96619805D01*
X137584837Y-96676139D01*
X137693666Y-96705300D01*
X137693669Y-96705300D01*
X137806331Y-96705300D01*
X137806334Y-96705300D01*
X137915163Y-96676139D01*
X138012737Y-96619805D01*
X138092405Y-96540137D01*
X138148739Y-96442563D01*
X138177900Y-96333734D01*
X138177900Y-96221066D01*
X138148739Y-96112237D01*
X138145827Y-96107194D01*
X138136097Y-96090340D01*
X138092405Y-96014663D01*
X138092403Y-96014661D01*
X138092401Y-96014658D01*
X138012741Y-95934998D01*
X138012735Y-95934994D01*
X137915164Y-95878661D01*
X137887955Y-95871370D01*
X137806334Y-95849500D01*
X137693666Y-95849500D01*
X137628368Y-95866996D01*
X137584835Y-95878661D01*
X137487264Y-95934994D01*
X137487258Y-95934998D01*
X137407598Y-96014658D01*
X137407594Y-96014664D01*
X137351261Y-96112235D01*
X137339454Y-96156302D01*
X137322100Y-96221066D01*
X135125379Y-96221066D01*
X135436922Y-95909521D01*
X135436923Y-95909521D01*
X135426310Y-95902430D01*
X135426310Y-95902429D01*
X135262523Y-95834587D01*
X135262522Y-95834586D01*
X135088643Y-95800000D01*
X134911357Y-95800000D01*
X134737477Y-95834586D01*
X134737476Y-95834587D01*
X134573688Y-95902430D01*
X134563075Y-95909521D01*
X133320351Y-95909521D01*
X133248782Y-95879876D01*
X133248780Y-95879875D01*
X133248779Y-95879875D01*
X133084004Y-95847100D01*
X133084003Y-95847100D01*
X132915997Y-95847100D01*
X132915996Y-95847100D01*
X132751220Y-95879875D01*
X132751218Y-95879876D01*
X132596001Y-95944169D01*
X132456305Y-96037511D01*
X132456302Y-96037513D01*
X132337513Y-96156302D01*
X132337511Y-96156305D01*
X132244169Y-96296001D01*
X132179876Y-96451218D01*
X132179875Y-96451220D01*
X132147100Y-96615996D01*
X131852900Y-96615996D01*
X131820124Y-96451218D01*
X131755830Y-96296000D01*
X131662491Y-96156308D01*
X131662488Y-96156305D01*
X131662486Y-96156302D01*
X131543697Y-96037513D01*
X131543694Y-96037511D01*
X131543692Y-96037509D01*
X131404000Y-95944170D01*
X131381847Y-95934994D01*
X131353927Y-95923429D01*
X131248782Y-95879876D01*
X131248780Y-95879875D01*
X131248779Y-95879875D01*
X131084004Y-95847100D01*
X131084003Y-95847100D01*
X130915997Y-95847100D01*
X130915996Y-95847100D01*
X130751220Y-95879875D01*
X130751218Y-95879876D01*
X130596001Y-95944169D01*
X130456305Y-96037511D01*
X130456302Y-96037513D01*
X130337513Y-96156302D01*
X130337511Y-96156305D01*
X130244169Y-96296001D01*
X130179876Y-96451218D01*
X130179875Y-96451220D01*
X130147100Y-96615996D01*
X129852899Y-96615996D01*
X129852899Y-96134944D01*
X129844028Y-96090342D01*
X129810234Y-96039766D01*
X129759658Y-96005972D01*
X129759656Y-96005971D01*
X129715057Y-95997100D01*
X128284944Y-95997100D01*
X128284942Y-95997101D01*
X128240340Y-96005972D01*
X128189767Y-96039764D01*
X128155972Y-96090342D01*
X128155971Y-96090343D01*
X128147100Y-96134942D01*
X97449425Y-96134942D01*
X97564920Y-95923429D01*
X97570705Y-95914426D01*
X97735287Y-95694571D01*
X97742296Y-95686483D01*
X97906255Y-95522524D01*
X97952874Y-95500786D01*
X97959428Y-95500500D01*
X139210233Y-95500500D01*
X139258571Y-95518093D01*
G37*
%TD.AperFunction*%
%TD*%
%TA.AperFunction,Conductor*%
%TO.N,GND*%
G36*
X147330667Y-98473694D02*
G01*
X147389910Y-98576306D01*
X147473694Y-98660090D01*
X147576306Y-98719333D01*
X147661414Y-98742137D01*
X147240979Y-99162572D01*
X147276328Y-99186192D01*
X147458306Y-99261569D01*
X147458318Y-99261572D01*
X147651504Y-99299999D01*
X147651508Y-99300000D01*
X147848492Y-99300000D01*
X147848495Y-99299999D01*
X148041681Y-99261572D01*
X148041693Y-99261569D01*
X148223676Y-99186190D01*
X148223680Y-99186187D01*
X148259019Y-99162573D01*
X148259020Y-99162572D01*
X147838585Y-98742137D01*
X147923694Y-98719333D01*
X148026306Y-98660090D01*
X148110090Y-98576306D01*
X148169333Y-98473694D01*
X148192138Y-98388585D01*
X148563181Y-98759628D01*
X148596666Y-98820951D01*
X148599500Y-98847309D01*
X148599500Y-99192131D01*
X148632991Y-99574932D01*
X148632991Y-99574934D01*
X148699715Y-99953340D01*
X148699719Y-99953357D01*
X148745775Y-100125241D01*
X148750000Y-100157334D01*
X148750000Y-100500000D01*
X148910758Y-100660758D01*
X148935459Y-100696034D01*
X149092985Y-101033851D01*
X149092993Y-101033866D01*
X149173109Y-101172630D01*
X149285120Y-101366639D01*
X149285124Y-101366645D01*
X149285131Y-101366656D01*
X149505523Y-101681408D01*
X149669315Y-101876607D01*
X149696441Y-101934776D01*
X149699714Y-101953335D01*
X149699717Y-101953351D01*
X149799169Y-102324512D01*
X149930592Y-102685598D01*
X150092985Y-103033851D01*
X150092990Y-103033860D01*
X150285120Y-103366639D01*
X150285124Y-103366645D01*
X150285131Y-103366656D01*
X150505523Y-103681408D01*
X150674397Y-103882663D01*
X150752520Y-103975767D01*
X151024233Y-104247480D01*
X151146625Y-104350179D01*
X151318591Y-104494476D01*
X151365151Y-104527077D01*
X151447124Y-104584475D01*
X151490748Y-104639050D01*
X151500000Y-104686049D01*
X151500000Y-124750000D01*
X148750000Y-127750000D01*
X148750000Y-125135498D01*
X148755809Y-125144192D01*
X148821965Y-125188396D01*
X148821966Y-125188397D01*
X148880297Y-125199999D01*
X148880301Y-125200000D01*
X149650000Y-125200000D01*
X149650000Y-124433012D01*
X149707007Y-124465925D01*
X149834174Y-124500000D01*
X149965826Y-124500000D01*
X150092993Y-124465925D01*
X150150000Y-124433012D01*
X150150000Y-125200000D01*
X150919699Y-125200000D01*
X150919702Y-125199999D01*
X150978033Y-125188397D01*
X150978034Y-125188396D01*
X151044191Y-125144191D01*
X151088396Y-125078034D01*
X151088397Y-125078033D01*
X151099999Y-125019702D01*
X151100000Y-125019699D01*
X151100000Y-124250000D01*
X150333012Y-124250000D01*
X150365925Y-124192993D01*
X150400000Y-124065826D01*
X150400000Y-123934174D01*
X150365925Y-123807007D01*
X150333012Y-123750000D01*
X151100000Y-123750000D01*
X151100000Y-122980301D01*
X151099999Y-122980297D01*
X151088397Y-122921966D01*
X151088396Y-122921965D01*
X151044191Y-122855808D01*
X150978034Y-122811603D01*
X150978033Y-122811602D01*
X150919702Y-122800000D01*
X150150000Y-122800000D01*
X150150000Y-123566988D01*
X150092993Y-123534075D01*
X149965826Y-123500000D01*
X149834174Y-123500000D01*
X149707007Y-123534075D01*
X149650000Y-123566988D01*
X149650000Y-122800000D01*
X148880297Y-122800000D01*
X148821966Y-122811602D01*
X148821965Y-122811603D01*
X148755808Y-122855808D01*
X148711603Y-122921965D01*
X148711602Y-122921966D01*
X148705026Y-122955026D01*
X141250000Y-115500000D01*
X138750000Y-113000000D01*
X138750000Y-112999999D01*
X137797202Y-112047202D01*
X137789030Y-112038186D01*
X137676277Y-111900797D01*
X137662772Y-111880585D01*
X137581877Y-111729240D01*
X137572575Y-111706785D01*
X137522758Y-111542558D01*
X137518018Y-111518728D01*
X137500597Y-111341847D01*
X137500000Y-111329693D01*
X137500000Y-110651504D01*
X137750000Y-110651504D01*
X137750000Y-110848495D01*
X137788427Y-111041681D01*
X137788430Y-111041693D01*
X137863808Y-111223673D01*
X137863809Y-111223675D01*
X137887425Y-111259019D01*
X138350000Y-110796445D01*
X138350000Y-110802661D01*
X138377259Y-110904394D01*
X138429920Y-110995606D01*
X138504394Y-111070080D01*
X138595606Y-111122741D01*
X138697339Y-111150000D01*
X138703553Y-111150000D01*
X138240979Y-111612572D01*
X138276328Y-111636192D01*
X138458306Y-111711569D01*
X138458318Y-111711572D01*
X138651504Y-111749999D01*
X138651508Y-111750000D01*
X138848492Y-111750000D01*
X138848495Y-111749999D01*
X139041681Y-111711572D01*
X139041693Y-111711569D01*
X139223676Y-111636190D01*
X139223680Y-111636187D01*
X139259019Y-111612573D01*
X139259020Y-111612572D01*
X138796448Y-111150000D01*
X138802661Y-111150000D01*
X138904394Y-111122741D01*
X138995606Y-111070080D01*
X139070080Y-110995606D01*
X139122741Y-110904394D01*
X139150000Y-110802661D01*
X139150000Y-110796447D01*
X139612572Y-111259020D01*
X139612573Y-111259019D01*
X139636187Y-111223680D01*
X139636190Y-111223676D01*
X139711569Y-111041693D01*
X139711572Y-111041681D01*
X139749999Y-110848495D01*
X139750000Y-110848492D01*
X139750000Y-110651508D01*
X139749999Y-110651504D01*
X139711572Y-110458318D01*
X139711569Y-110458306D01*
X139636192Y-110276328D01*
X139612572Y-110240979D01*
X139150000Y-110703551D01*
X139150000Y-110697339D01*
X139122741Y-110595606D01*
X139070080Y-110504394D01*
X138995606Y-110429920D01*
X138904394Y-110377259D01*
X138802661Y-110350000D01*
X138796447Y-110350000D01*
X139244311Y-109902135D01*
X140949500Y-109902135D01*
X140949500Y-111597870D01*
X140949501Y-111597876D01*
X140955908Y-111657483D01*
X141006202Y-111792328D01*
X141006206Y-111792335D01*
X141092452Y-111907544D01*
X141092455Y-111907547D01*
X141207664Y-111993793D01*
X141207671Y-111993797D01*
X141342517Y-112044091D01*
X141342516Y-112044091D01*
X141349444Y-112044835D01*
X141402127Y-112050500D01*
X143097872Y-112050499D01*
X143157483Y-112044091D01*
X143292331Y-111993796D01*
X143407546Y-111907546D01*
X143493796Y-111792331D01*
X143544091Y-111657483D01*
X143550500Y-111597873D01*
X143550499Y-109902128D01*
X143544091Y-109842517D01*
X143509584Y-109750000D01*
X143493797Y-109707671D01*
X143493793Y-109707664D01*
X143407547Y-109592455D01*
X143407544Y-109592452D01*
X143292335Y-109506206D01*
X143292328Y-109506202D01*
X143157482Y-109455908D01*
X143157483Y-109455908D01*
X143097883Y-109449501D01*
X143097881Y-109449500D01*
X143097873Y-109449500D01*
X143097864Y-109449500D01*
X141402129Y-109449500D01*
X141402123Y-109449501D01*
X141342516Y-109455908D01*
X141207671Y-109506202D01*
X141207664Y-109506206D01*
X141092455Y-109592452D01*
X141092452Y-109592455D01*
X141006206Y-109707664D01*
X141006202Y-109707671D01*
X140955908Y-109842517D01*
X140949501Y-109902116D01*
X140949501Y-109902123D01*
X140949500Y-109902135D01*
X139244311Y-109902135D01*
X139259020Y-109887426D01*
X139223675Y-109863809D01*
X139223673Y-109863808D01*
X139041693Y-109788430D01*
X139041681Y-109788427D01*
X138848495Y-109750000D01*
X138651504Y-109750000D01*
X138458318Y-109788427D01*
X138458310Y-109788429D01*
X138276325Y-109863809D01*
X138276318Y-109863813D01*
X138240979Y-109887426D01*
X138240978Y-109887426D01*
X138703554Y-110350000D01*
X138697339Y-110350000D01*
X138595606Y-110377259D01*
X138504394Y-110429920D01*
X138429920Y-110504394D01*
X138377259Y-110595606D01*
X138350000Y-110697339D01*
X138350000Y-110703552D01*
X137887426Y-110240978D01*
X137887426Y-110240979D01*
X137863813Y-110276318D01*
X137863809Y-110276325D01*
X137788429Y-110458310D01*
X137788427Y-110458318D01*
X137750000Y-110651504D01*
X137500000Y-110651504D01*
X137500000Y-110170306D01*
X137500597Y-110158152D01*
X137518018Y-109981269D01*
X137522757Y-109957443D01*
X137572577Y-109793207D01*
X137581875Y-109770762D01*
X137662775Y-109619408D01*
X137676272Y-109599208D01*
X137789039Y-109461802D01*
X137797192Y-109452807D01*
X140207107Y-107042893D01*
X140500000Y-106750000D01*
X140500000Y-105423615D01*
X144224500Y-105423615D01*
X144224500Y-105576384D01*
X144254300Y-105726197D01*
X144254302Y-105726205D01*
X144312759Y-105867334D01*
X144312764Y-105867343D01*
X144397629Y-105994351D01*
X144397632Y-105994355D01*
X144505644Y-106102367D01*
X144505648Y-106102370D01*
X144632656Y-106187235D01*
X144632662Y-106187238D01*
X144632663Y-106187239D01*
X144773795Y-106245698D01*
X144923615Y-106275499D01*
X144923619Y-106275500D01*
X144923620Y-106275500D01*
X145076381Y-106275500D01*
X145076382Y-106275499D01*
X145226205Y-106245698D01*
X145367337Y-106187239D01*
X145494352Y-106102370D01*
X145602370Y-105994352D01*
X145687239Y-105867337D01*
X145745698Y-105726205D01*
X145775500Y-105576380D01*
X145775500Y-105423620D01*
X145745698Y-105273795D01*
X145693439Y-105147630D01*
X145687240Y-105132665D01*
X145687235Y-105132656D01*
X145602370Y-105005648D01*
X145602367Y-105005644D01*
X145494355Y-104897632D01*
X145494351Y-104897629D01*
X145367343Y-104812764D01*
X145367334Y-104812759D01*
X145226205Y-104754302D01*
X145226197Y-104754300D01*
X145076384Y-104724500D01*
X145076380Y-104724500D01*
X144923620Y-104724500D01*
X144923615Y-104724500D01*
X144773802Y-104754300D01*
X144773794Y-104754302D01*
X144632665Y-104812759D01*
X144632656Y-104812764D01*
X144505648Y-104897629D01*
X144505644Y-104897632D01*
X144397632Y-105005644D01*
X144397629Y-105005648D01*
X144312764Y-105132656D01*
X144312759Y-105132665D01*
X144254302Y-105273794D01*
X144254300Y-105273802D01*
X144224500Y-105423615D01*
X140500000Y-105423615D01*
X140500000Y-99724499D01*
X140519685Y-99657460D01*
X140572489Y-99611705D01*
X140623998Y-99600499D01*
X141097872Y-99600499D01*
X141157483Y-99594091D01*
X141292331Y-99543796D01*
X141407546Y-99457546D01*
X141493796Y-99342331D01*
X141544091Y-99207483D01*
X141545394Y-99201968D01*
X141579963Y-99141250D01*
X141641872Y-99108860D01*
X141711464Y-99115083D01*
X141753387Y-99144975D01*
X141754589Y-99143774D01*
X141902786Y-99291971D01*
X142057749Y-99404556D01*
X142068390Y-99412287D01*
X142157212Y-99457544D01*
X142250776Y-99505218D01*
X142250778Y-99505218D01*
X142250781Y-99505220D01*
X142355137Y-99539127D01*
X142445465Y-99568477D01*
X142486233Y-99574934D01*
X142647648Y-99600500D01*
X142647649Y-99600500D01*
X142852351Y-99600500D01*
X142852352Y-99600500D01*
X143054534Y-99568477D01*
X143249219Y-99505220D01*
X143431610Y-99412287D01*
X143553651Y-99323620D01*
X143597213Y-99291971D01*
X143597215Y-99291968D01*
X143597219Y-99291966D01*
X143741966Y-99147219D01*
X143741968Y-99147215D01*
X143741971Y-99147213D01*
X143825195Y-99032663D01*
X143862287Y-98981610D01*
X143889515Y-98928171D01*
X143937490Y-98877376D01*
X144005311Y-98860581D01*
X144071446Y-98883118D01*
X144110485Y-98928172D01*
X144137715Y-98981613D01*
X144258028Y-99147213D01*
X144402786Y-99291971D01*
X144557749Y-99404556D01*
X144568390Y-99412287D01*
X144657212Y-99457544D01*
X144750776Y-99505218D01*
X144750778Y-99505218D01*
X144750781Y-99505220D01*
X144855137Y-99539127D01*
X144945465Y-99568477D01*
X144986233Y-99574934D01*
X145147648Y-99600500D01*
X145147649Y-99600500D01*
X145352351Y-99600500D01*
X145352352Y-99600500D01*
X145554534Y-99568477D01*
X145749219Y-99505220D01*
X145931610Y-99412287D01*
X146053651Y-99323620D01*
X146097213Y-99291971D01*
X146097215Y-99291968D01*
X146097219Y-99291966D01*
X146241966Y-99147219D01*
X146362287Y-98981610D01*
X146455220Y-98799219D01*
X146518477Y-98604534D01*
X146530651Y-98527669D01*
X146560580Y-98464536D01*
X146619891Y-98427604D01*
X146689754Y-98428602D01*
X146747987Y-98467211D01*
X146774741Y-98522877D01*
X146788427Y-98591681D01*
X146788430Y-98591693D01*
X146863808Y-98773673D01*
X146863809Y-98773675D01*
X146887425Y-98809019D01*
X147307861Y-98388583D01*
X147330667Y-98473694D01*
G37*
%TD.AperFunction*%
%TA.AperFunction,Conductor*%
G36*
X148266177Y-95520185D02*
G01*
X148286819Y-95536819D01*
X148452797Y-95702797D01*
X148460969Y-95711813D01*
X148573722Y-95849202D01*
X148587227Y-95869414D01*
X148668121Y-96020756D01*
X148677424Y-96043214D01*
X148727240Y-96207437D01*
X148731982Y-96231278D01*
X148749403Y-96408152D01*
X148750000Y-96420306D01*
X148750000Y-97667701D01*
X148730315Y-97734740D01*
X148677511Y-97780495D01*
X148613848Y-97791104D01*
X148612573Y-97790978D01*
X148192137Y-98211414D01*
X148169333Y-98126306D01*
X148110090Y-98023694D01*
X148026306Y-97939910D01*
X147923694Y-97880667D01*
X147838584Y-97857861D01*
X148259020Y-97437426D01*
X148223675Y-97413809D01*
X148223673Y-97413808D01*
X148041693Y-97338430D01*
X148041681Y-97338427D01*
X147848495Y-97300000D01*
X147651504Y-97300000D01*
X147458318Y-97338427D01*
X147458310Y-97338429D01*
X147276325Y-97413809D01*
X147276318Y-97413813D01*
X147240979Y-97437426D01*
X147240978Y-97437426D01*
X147661415Y-97857861D01*
X147576306Y-97880667D01*
X147473694Y-97939910D01*
X147389910Y-98023694D01*
X147330667Y-98126306D01*
X147307861Y-98211414D01*
X146887426Y-97790978D01*
X146887426Y-97790979D01*
X146863813Y-97826318D01*
X146863809Y-97826325D01*
X146788429Y-98008310D01*
X146788427Y-98008318D01*
X146774741Y-98077122D01*
X146742356Y-98139033D01*
X146681640Y-98173607D01*
X146611871Y-98169868D01*
X146555199Y-98129001D01*
X146530651Y-98072329D01*
X146526584Y-98046650D01*
X146518477Y-97995466D01*
X146455220Y-97800781D01*
X146455218Y-97800778D01*
X146455218Y-97800776D01*
X146400708Y-97693796D01*
X146362287Y-97618390D01*
X146241966Y-97452781D01*
X146097219Y-97308034D01*
X146097213Y-97308028D01*
X145931613Y-97187715D01*
X145931612Y-97187714D01*
X145931610Y-97187713D01*
X145874653Y-97158691D01*
X145749223Y-97094781D01*
X145554534Y-97031522D01*
X145379995Y-97003878D01*
X145352352Y-96999500D01*
X145147648Y-96999500D01*
X145123329Y-97003351D01*
X144945465Y-97031522D01*
X144750776Y-97094781D01*
X144568386Y-97187715D01*
X144402786Y-97308028D01*
X144258028Y-97452786D01*
X144137713Y-97618388D01*
X144110484Y-97671828D01*
X144062510Y-97722623D01*
X143994688Y-97739418D01*
X143928554Y-97716880D01*
X143889516Y-97671828D01*
X143862286Y-97618388D01*
X143741971Y-97452786D01*
X143597213Y-97308028D01*
X143431613Y-97187715D01*
X143431612Y-97187714D01*
X143431610Y-97187713D01*
X143374653Y-97158691D01*
X143249223Y-97094781D01*
X143054534Y-97031522D01*
X142879995Y-97003878D01*
X142852352Y-96999500D01*
X142647648Y-96999500D01*
X142623329Y-97003351D01*
X142445465Y-97031522D01*
X142250776Y-97094781D01*
X142068386Y-97187715D01*
X141902786Y-97308028D01*
X141902782Y-97308032D01*
X141754589Y-97456226D01*
X141753152Y-97454789D01*
X141701746Y-97488280D01*
X141631877Y-97488714D01*
X141572866Y-97451306D01*
X141545394Y-97398034D01*
X141544091Y-97392521D01*
X141544091Y-97392517D01*
X141512579Y-97308028D01*
X141493797Y-97257671D01*
X141493793Y-97257664D01*
X141407547Y-97142455D01*
X141407544Y-97142452D01*
X141292335Y-97056206D01*
X141292328Y-97056202D01*
X141157482Y-97005908D01*
X141157483Y-97005908D01*
X141097883Y-96999501D01*
X141097881Y-96999500D01*
X141097873Y-96999500D01*
X141097865Y-96999500D01*
X140624000Y-96999500D01*
X140556961Y-96979815D01*
X140511206Y-96927011D01*
X140500000Y-96875500D01*
X140500000Y-96420306D01*
X140500597Y-96408152D01*
X140518018Y-96231269D01*
X140522757Y-96207445D01*
X140572577Y-96043207D01*
X140581875Y-96020762D01*
X140662775Y-95869408D01*
X140676272Y-95849208D01*
X140789039Y-95711802D01*
X140797182Y-95702817D01*
X140963183Y-95536816D01*
X141024504Y-95503334D01*
X141050862Y-95500500D01*
X148199138Y-95500500D01*
X148266177Y-95520185D01*
G37*
%TD.AperFunction*%
%TD*%
%TA.AperFunction,Conductor*%
%TO.N,GND*%
G36*
X97315677Y-113519685D02*
G01*
X97336319Y-113536319D01*
X98713681Y-114913681D01*
X98747166Y-114975004D01*
X98750000Y-115001362D01*
X98750000Y-117125500D01*
X98730315Y-117192539D01*
X98677511Y-117238294D01*
X98626000Y-117249500D01*
X93840313Y-117249500D01*
X93835554Y-117249968D01*
X93809009Y-117252582D01*
X93809010Y-117252583D01*
X93522480Y-117280802D01*
X93271548Y-117330717D01*
X93209243Y-117343110D01*
X93010609Y-117403364D01*
X93010609Y-117403365D01*
X92971032Y-117415370D01*
X92903614Y-117435821D01*
X92608562Y-117558036D01*
X92608548Y-117558043D01*
X92326893Y-117708590D01*
X92326884Y-117708595D01*
X92167707Y-117814953D01*
X92167708Y-117814954D01*
X92061352Y-117886018D01*
X92061340Y-117886027D01*
X91990490Y-117944173D01*
X91814459Y-118088637D01*
X88014465Y-121888634D01*
X87788638Y-122114459D01*
X87586029Y-122361338D01*
X87586012Y-122361361D01*
X87408601Y-122626877D01*
X87408589Y-122626898D01*
X87311221Y-122809056D01*
X87304965Y-122819492D01*
X87140232Y-123066033D01*
X87140227Y-123066042D01*
X86975206Y-123374776D01*
X86975199Y-123374790D01*
X86841233Y-123698212D01*
X86739607Y-124033227D01*
X86739604Y-124033238D01*
X86671313Y-124376572D01*
X86650203Y-124590912D01*
X86637000Y-124724961D01*
X86637000Y-125075039D01*
X86637610Y-125081233D01*
X86671313Y-125423427D01*
X86739604Y-125766761D01*
X86739607Y-125766772D01*
X86841233Y-126101787D01*
X86975199Y-126425209D01*
X86975206Y-126425223D01*
X87140220Y-126733945D01*
X87140231Y-126733963D01*
X87334714Y-127025027D01*
X87334724Y-127025041D01*
X87556811Y-127295655D01*
X87804344Y-127543188D01*
X87804349Y-127543192D01*
X87804350Y-127543193D01*
X88074964Y-127765280D01*
X88366043Y-127959773D01*
X88674784Y-128124798D01*
X88998214Y-128258767D01*
X89333218Y-128360390D01*
X89333224Y-128360391D01*
X89333227Y-128360392D01*
X89333238Y-128360395D01*
X89549989Y-128403507D01*
X89676569Y-128428686D01*
X90024961Y-128463000D01*
X90024964Y-128463000D01*
X90375036Y-128463000D01*
X90375039Y-128463000D01*
X90723431Y-128428686D01*
X90892204Y-128395115D01*
X91066761Y-128360395D01*
X91066772Y-128360392D01*
X91066772Y-128360391D01*
X91066782Y-128360390D01*
X91401786Y-128258767D01*
X91725216Y-128124798D01*
X92033957Y-127959773D01*
X92325036Y-127765280D01*
X92595650Y-127543193D01*
X92843193Y-127295650D01*
X93065280Y-127025036D01*
X93259773Y-126733957D01*
X93424798Y-126425216D01*
X93558767Y-126101786D01*
X93660390Y-125766782D01*
X93660392Y-125766772D01*
X93660395Y-125766761D01*
X93698385Y-125575766D01*
X93728686Y-125423431D01*
X93730369Y-125406338D01*
X93739662Y-125383319D01*
X93744940Y-125359062D01*
X93754744Y-125345964D01*
X93756526Y-125341553D01*
X93766082Y-125330817D01*
X93838321Y-125258578D01*
X93899642Y-125225095D01*
X93969334Y-125230079D01*
X94025267Y-125271951D01*
X94049684Y-125337415D01*
X94050000Y-125346261D01*
X94050000Y-125414694D01*
X94050001Y-125414710D01*
X94079942Y-125642137D01*
X94139318Y-125863730D01*
X94227102Y-126075659D01*
X94227106Y-126075669D01*
X94341799Y-126274324D01*
X94341805Y-126274331D01*
X94398381Y-126348064D01*
X95122421Y-125624024D01*
X95135359Y-125655258D01*
X95217437Y-125778097D01*
X95321903Y-125882563D01*
X95444742Y-125964641D01*
X95475974Y-125977578D01*
X94751934Y-126701617D01*
X94751934Y-126701618D01*
X94825666Y-126758194D01*
X95024330Y-126872893D01*
X95024340Y-126872897D01*
X95236269Y-126960681D01*
X95457862Y-127020057D01*
X95685289Y-127049998D01*
X95685306Y-127050000D01*
X95914694Y-127050000D01*
X95914710Y-127049998D01*
X96142137Y-127020057D01*
X96363730Y-126960681D01*
X96575659Y-126872897D01*
X96575668Y-126872893D01*
X96774327Y-126758197D01*
X96774334Y-126758192D01*
X96848064Y-126701617D01*
X96124025Y-125977578D01*
X96155258Y-125964641D01*
X96278097Y-125882563D01*
X96382563Y-125778097D01*
X96464641Y-125655258D01*
X96477578Y-125624025D01*
X97201617Y-126348064D01*
X97258192Y-126274334D01*
X97258197Y-126274327D01*
X97372893Y-126075668D01*
X97372897Y-126075659D01*
X97460681Y-125863730D01*
X97520057Y-125642137D01*
X97549998Y-125414710D01*
X97550000Y-125414694D01*
X97550000Y-125185305D01*
X97549998Y-125185289D01*
X97520057Y-124957862D01*
X97460681Y-124736269D01*
X97372897Y-124524340D01*
X97372893Y-124524330D01*
X97258194Y-124325666D01*
X97201618Y-124251934D01*
X97201617Y-124251934D01*
X96477577Y-124975973D01*
X96464641Y-124944742D01*
X96382563Y-124821903D01*
X96278097Y-124717437D01*
X96155258Y-124635359D01*
X96124024Y-124622421D01*
X96848064Y-123898381D01*
X96847031Y-123882610D01*
X96862290Y-123814426D01*
X96911988Y-123765316D01*
X96970766Y-123750500D01*
X97602237Y-123750500D01*
X97669276Y-123770185D01*
X97689918Y-123786819D01*
X98713681Y-124810582D01*
X98747166Y-124871905D01*
X98750000Y-124898263D01*
X98750000Y-127250000D01*
X99749047Y-128249047D01*
X99782532Y-128310370D01*
X99779297Y-128375046D01*
X99732010Y-128520578D01*
X99732010Y-128520581D01*
X99700000Y-128722682D01*
X99700000Y-128927317D01*
X99732009Y-129129417D01*
X99795244Y-129324031D01*
X99888141Y-129506350D01*
X99888147Y-129506359D01*
X99920523Y-129550921D01*
X99920524Y-129550922D01*
X100485723Y-128985723D01*
X100750000Y-129250000D01*
X100928553Y-129250000D01*
X100274076Y-129904474D01*
X100318650Y-129936859D01*
X100500968Y-130029755D01*
X100695582Y-130092990D01*
X100897683Y-130125000D01*
X101102317Y-130125000D01*
X101304417Y-130092990D01*
X101499031Y-130029755D01*
X101681349Y-129936859D01*
X101725921Y-129904474D01*
X101071447Y-129250000D01*
X101778553Y-129250000D01*
X102079474Y-129550921D01*
X102111859Y-129506349D01*
X102206969Y-129319686D01*
X102208586Y-129320510D01*
X102247530Y-129272161D01*
X102313818Y-129250080D01*
X102318274Y-129250000D01*
X113000000Y-129250000D01*
X113829057Y-128420943D01*
X121649500Y-128420943D01*
X121649500Y-128579057D01*
X121674031Y-128670606D01*
X121690423Y-128731783D01*
X121690426Y-128731790D01*
X121769475Y-128868709D01*
X121769479Y-128868714D01*
X121769480Y-128868716D01*
X121881284Y-128980520D01*
X121881286Y-128980521D01*
X121881290Y-128980524D01*
X122018209Y-129059573D01*
X122018216Y-129059577D01*
X122170943Y-129100500D01*
X122170945Y-129100500D01*
X122329055Y-129100500D01*
X122329057Y-129100500D01*
X122481784Y-129059577D01*
X122618716Y-128980520D01*
X122730520Y-128868716D01*
X122809577Y-128731784D01*
X122850500Y-128579057D01*
X122850500Y-128420943D01*
X122809577Y-128268216D01*
X122798510Y-128249047D01*
X122730524Y-128131290D01*
X122730518Y-128131282D01*
X122618717Y-128019481D01*
X122618709Y-128019475D01*
X122481790Y-127940426D01*
X122481786Y-127940424D01*
X122481784Y-127940423D01*
X122329057Y-127899500D01*
X122170943Y-127899500D01*
X122018216Y-127940423D01*
X122018209Y-127940426D01*
X121881290Y-128019475D01*
X121881282Y-128019481D01*
X121769481Y-128131282D01*
X121769475Y-128131290D01*
X121690426Y-128268209D01*
X121690423Y-128268216D01*
X121649500Y-128420943D01*
X113829057Y-128420943D01*
X114463681Y-127786319D01*
X114525004Y-127752834D01*
X114551362Y-127750000D01*
X119750000Y-127750000D01*
X120213681Y-127286319D01*
X120275004Y-127252834D01*
X120301362Y-127250000D01*
X120500000Y-127250000D01*
X120750000Y-127500000D01*
X121350764Y-127500000D01*
X121431284Y-127580520D01*
X121431286Y-127580521D01*
X121431290Y-127580524D01*
X121568209Y-127659573D01*
X121568216Y-127659577D01*
X121720943Y-127700500D01*
X121720945Y-127700500D01*
X121879055Y-127700500D01*
X121879057Y-127700500D01*
X122031784Y-127659577D01*
X122168716Y-127580520D01*
X122249236Y-127500000D01*
X127750000Y-127500000D01*
X127750000Y-127750000D01*
X134750000Y-127750000D01*
X135809050Y-127750000D01*
X135876089Y-127769685D01*
X135921844Y-127822489D01*
X135928825Y-127841907D01*
X135963719Y-127972136D01*
X135991051Y-128019475D01*
X136039485Y-128103365D01*
X136146635Y-128210515D01*
X136277865Y-128286281D01*
X136424234Y-128325500D01*
X136424236Y-128325500D01*
X136575764Y-128325500D01*
X136575766Y-128325500D01*
X136722135Y-128286281D01*
X136853365Y-128210515D01*
X136960515Y-128103365D01*
X137036281Y-127972135D01*
X137071175Y-127841906D01*
X137107540Y-127782246D01*
X137170387Y-127751717D01*
X137190950Y-127750000D01*
X139198638Y-127750000D01*
X139265677Y-127769685D01*
X139286319Y-127786319D01*
X139713681Y-128213681D01*
X139747166Y-128275004D01*
X139750000Y-128301362D01*
X139750000Y-133698638D01*
X139730315Y-133765677D01*
X139713681Y-133786319D01*
X139036819Y-134463181D01*
X138975496Y-134496666D01*
X138949138Y-134499500D01*
X63550862Y-134499500D01*
X63483823Y-134479815D01*
X63463181Y-134463181D01*
X62286319Y-133286319D01*
X62252834Y-133224996D01*
X62250000Y-133198638D01*
X62250000Y-132424234D01*
X83674500Y-132424234D01*
X83674500Y-132575765D01*
X83713719Y-132722136D01*
X83750754Y-132786281D01*
X83789485Y-132853365D01*
X83896635Y-132960515D01*
X84027865Y-133036281D01*
X84174234Y-133075500D01*
X84174236Y-133075500D01*
X84325764Y-133075500D01*
X84325766Y-133075500D01*
X84472135Y-133036281D01*
X84603365Y-132960515D01*
X84687319Y-132876561D01*
X84748642Y-132843076D01*
X84818334Y-132848060D01*
X84862681Y-132876561D01*
X84946635Y-132960515D01*
X85077865Y-133036281D01*
X85224234Y-133075500D01*
X85224236Y-133075500D01*
X85375764Y-133075500D01*
X85375766Y-133075500D01*
X85522135Y-133036281D01*
X85653365Y-132960515D01*
X85760515Y-132853365D01*
X85836281Y-132722135D01*
X85875500Y-132575766D01*
X85875500Y-132424234D01*
X85836281Y-132277865D01*
X85760515Y-132146635D01*
X85701561Y-132087681D01*
X85668076Y-132026358D01*
X85673060Y-131956666D01*
X85701561Y-131912319D01*
X85726561Y-131887319D01*
X85760515Y-131853365D01*
X85836281Y-131722135D01*
X85875500Y-131575766D01*
X85875500Y-131480131D01*
X99899500Y-131480131D01*
X99899500Y-133169856D01*
X99899502Y-133169882D01*
X99902413Y-133194987D01*
X99902415Y-133194991D01*
X99947793Y-133297764D01*
X99947794Y-133297765D01*
X100027235Y-133377206D01*
X100130009Y-133422585D01*
X100155135Y-133425500D01*
X101844864Y-133425499D01*
X101844879Y-133425497D01*
X101844882Y-133425497D01*
X101869987Y-133422586D01*
X101869988Y-133422585D01*
X101869991Y-133422585D01*
X101972765Y-133377206D01*
X102052206Y-133297765D01*
X102097585Y-133194991D01*
X102100500Y-133169865D01*
X102100499Y-131794691D01*
X113372289Y-131794691D01*
X113372289Y-131946223D01*
X113391611Y-132018334D01*
X113411508Y-132092593D01*
X113442708Y-132146632D01*
X113487274Y-132223822D01*
X113594424Y-132330972D01*
X113725654Y-132406738D01*
X113872023Y-132445957D01*
X113872025Y-132445957D01*
X114023553Y-132445957D01*
X114023555Y-132445957D01*
X114169924Y-132406738D01*
X114301154Y-132330972D01*
X114408304Y-132223822D01*
X114484070Y-132092592D01*
X114523289Y-131946223D01*
X114523289Y-131794691D01*
X114484070Y-131648322D01*
X114408304Y-131517092D01*
X114301154Y-131409942D01*
X114203164Y-131353367D01*
X114169925Y-131334176D01*
X114096739Y-131314566D01*
X114023555Y-131294957D01*
X113872023Y-131294957D01*
X113725652Y-131334176D01*
X113594424Y-131409942D01*
X113594421Y-131409944D01*
X113487276Y-131517089D01*
X113487274Y-131517092D01*
X113411508Y-131648320D01*
X113391730Y-131722135D01*
X113372289Y-131794691D01*
X102100499Y-131794691D01*
X102100499Y-131480136D01*
X102098224Y-131460515D01*
X102097586Y-131455012D01*
X102097585Y-131455010D01*
X102097585Y-131455009D01*
X102052206Y-131352235D01*
X101972765Y-131272794D01*
X101972763Y-131272793D01*
X101869992Y-131227415D01*
X101844865Y-131224500D01*
X100155143Y-131224500D01*
X100155117Y-131224502D01*
X100130012Y-131227413D01*
X100130008Y-131227415D01*
X100027235Y-131272793D01*
X99947794Y-131352234D01*
X99902415Y-131455006D01*
X99902415Y-131455008D01*
X99899500Y-131480131D01*
X85875500Y-131480131D01*
X85875500Y-131424234D01*
X85836281Y-131277865D01*
X85760515Y-131146635D01*
X85676561Y-131062681D01*
X85643076Y-131001358D01*
X85648060Y-130931666D01*
X85676561Y-130887319D01*
X85710515Y-130853365D01*
X85786281Y-130722135D01*
X85825500Y-130575766D01*
X85825500Y-130424234D01*
X85786281Y-130277865D01*
X85710515Y-130146635D01*
X85603365Y-130039485D01*
X85507599Y-129984194D01*
X85473665Y-129964602D01*
X85473664Y-129964601D01*
X85473663Y-129964601D01*
X85472136Y-129963719D01*
X85371891Y-129936859D01*
X85325766Y-129924500D01*
X85174234Y-129924500D01*
X85027863Y-129963719D01*
X84896635Y-130039485D01*
X84896631Y-130039488D01*
X84862680Y-130073439D01*
X84801357Y-130106924D01*
X84731665Y-130101938D01*
X84687320Y-130073439D01*
X84653368Y-130039488D01*
X84653367Y-130039487D01*
X84653365Y-130039485D01*
X84557599Y-129984194D01*
X84522136Y-129963719D01*
X84421891Y-129936859D01*
X84375766Y-129924500D01*
X84224234Y-129924500D01*
X84077863Y-129963719D01*
X83946635Y-130039485D01*
X83946632Y-130039487D01*
X83839487Y-130146632D01*
X83839485Y-130146635D01*
X83763719Y-130277863D01*
X83750884Y-130325765D01*
X83724500Y-130424234D01*
X83724500Y-130575766D01*
X83731895Y-130603365D01*
X83763719Y-130722136D01*
X83795893Y-130777862D01*
X83839485Y-130853365D01*
X83839487Y-130853367D01*
X83898439Y-130912319D01*
X83931924Y-130973642D01*
X83926940Y-131043334D01*
X83898439Y-131087681D01*
X83839487Y-131146632D01*
X83839485Y-131146635D01*
X83763719Y-131277863D01*
X83724500Y-131424234D01*
X83724500Y-131575765D01*
X83763719Y-131722136D01*
X83800000Y-131784975D01*
X83839485Y-131853365D01*
X83839487Y-131853367D01*
X83873439Y-131887319D01*
X83906924Y-131948642D01*
X83901940Y-132018334D01*
X83873439Y-132062681D01*
X83789487Y-132146632D01*
X83789485Y-132146635D01*
X83713719Y-132277863D01*
X83674500Y-132424234D01*
X62250000Y-132424234D01*
X62250000Y-129424234D01*
X77174500Y-129424234D01*
X77174500Y-129575765D01*
X77213720Y-129722137D01*
X77213720Y-129722138D01*
X77266179Y-129813000D01*
X77282652Y-129880900D01*
X77266179Y-129937000D01*
X77213720Y-130027861D01*
X77213720Y-130027862D01*
X77213720Y-130027863D01*
X77213719Y-130027865D01*
X77174500Y-130174234D01*
X77174500Y-130325766D01*
X77200955Y-130424500D01*
X77213720Y-130472137D01*
X77213720Y-130472138D01*
X77266179Y-130563000D01*
X77282652Y-130630900D01*
X77266179Y-130687000D01*
X77213720Y-130777861D01*
X77213720Y-130777862D01*
X77213720Y-130777863D01*
X77213719Y-130777865D01*
X77174500Y-130924234D01*
X77174500Y-131075766D01*
X77177693Y-131087681D01*
X77213719Y-131222136D01*
X77242967Y-131272794D01*
X77289485Y-131353365D01*
X77396635Y-131460515D01*
X77527865Y-131536281D01*
X77674234Y-131575500D01*
X77674236Y-131575500D01*
X77825764Y-131575500D01*
X77825766Y-131575500D01*
X77972135Y-131536281D01*
X78103365Y-131460515D01*
X78210515Y-131353365D01*
X78286281Y-131222135D01*
X78325500Y-131075766D01*
X78325500Y-130924234D01*
X78286281Y-130777865D01*
X78233819Y-130686999D01*
X78217347Y-130619100D01*
X78233820Y-130562999D01*
X78286279Y-130472138D01*
X78286281Y-130472135D01*
X78325500Y-130325766D01*
X78325500Y-130174234D01*
X78286281Y-130027865D01*
X78233819Y-129936999D01*
X78217347Y-129869100D01*
X78233820Y-129812999D01*
X78286279Y-129722138D01*
X78286281Y-129722135D01*
X78325500Y-129575766D01*
X78325500Y-129424234D01*
X78286281Y-129277865D01*
X78210515Y-129146635D01*
X78103365Y-129039485D01*
X78010247Y-128985723D01*
X77972136Y-128963719D01*
X77866595Y-128935440D01*
X77825766Y-128924500D01*
X77674234Y-128924500D01*
X77527863Y-128963719D01*
X77396635Y-129039485D01*
X77396632Y-129039487D01*
X77289487Y-129146632D01*
X77289485Y-129146635D01*
X77213719Y-129277863D01*
X77174500Y-129424234D01*
X62250000Y-129424234D01*
X62250000Y-124773048D01*
X63187000Y-124773048D01*
X63187000Y-125026951D01*
X63226716Y-125277712D01*
X63305175Y-125519181D01*
X63408586Y-125722135D01*
X63420438Y-125745396D01*
X63569672Y-125950799D01*
X63749201Y-126130328D01*
X63954604Y-126279562D01*
X64061484Y-126334020D01*
X64180818Y-126394824D01*
X64180820Y-126394824D01*
X64180823Y-126394826D01*
X64274375Y-126425223D01*
X64422287Y-126473283D01*
X64673049Y-126513000D01*
X64673054Y-126513000D01*
X64926951Y-126513000D01*
X65177712Y-126473283D01*
X65419177Y-126394826D01*
X65645396Y-126279562D01*
X65850799Y-126130328D01*
X66030328Y-125950799D01*
X66179562Y-125745396D01*
X66294826Y-125519177D01*
X66373283Y-125277712D01*
X66391775Y-125160957D01*
X66413000Y-125026951D01*
X66413000Y-124773048D01*
X66373283Y-124522287D01*
X66294824Y-124280818D01*
X66179561Y-124054603D01*
X66168577Y-124039485D01*
X66030328Y-123849201D01*
X65850799Y-123669672D01*
X65645396Y-123520438D01*
X65419181Y-123405175D01*
X65177712Y-123326716D01*
X64926951Y-123287000D01*
X64926946Y-123287000D01*
X64673054Y-123287000D01*
X64673049Y-123287000D01*
X64422287Y-123326716D01*
X64180818Y-123405175D01*
X63954603Y-123520438D01*
X63749198Y-123669674D01*
X63569674Y-123849198D01*
X63420438Y-124054603D01*
X63305175Y-124280818D01*
X63226716Y-124522287D01*
X63187000Y-124773048D01*
X62250000Y-124773048D01*
X62250000Y-119498008D01*
X62987500Y-119498008D01*
X62987500Y-119735591D01*
X62987501Y-119735608D01*
X63018511Y-119971156D01*
X63080009Y-120200666D01*
X63170924Y-120420156D01*
X63170931Y-120420171D01*
X63289721Y-120625922D01*
X63289727Y-120625929D01*
X63353805Y-120709439D01*
X64027545Y-120035699D01*
X64120343Y-120174580D01*
X64242220Y-120296457D01*
X64381099Y-120389253D01*
X63707359Y-121062993D01*
X63707359Y-121062994D01*
X63790868Y-121127072D01*
X63996628Y-121245868D01*
X63996643Y-121245875D01*
X64216133Y-121336790D01*
X64445643Y-121398288D01*
X64681191Y-121429298D01*
X64681209Y-121429300D01*
X64918791Y-121429300D01*
X64918808Y-121429298D01*
X65154356Y-121398288D01*
X65383866Y-121336790D01*
X65603356Y-121245875D01*
X65603370Y-121245868D01*
X65809125Y-121127075D01*
X65809132Y-121127070D01*
X65892639Y-121062993D01*
X65218899Y-120389253D01*
X65357780Y-120296457D01*
X65479657Y-120174580D01*
X65572453Y-120035699D01*
X66246193Y-120709439D01*
X66310270Y-120625932D01*
X66310275Y-120625925D01*
X66429068Y-120420170D01*
X66429075Y-120420156D01*
X66519990Y-120200666D01*
X66581488Y-119971156D01*
X66612498Y-119735608D01*
X66612500Y-119735591D01*
X66612500Y-119498008D01*
X66612498Y-119497991D01*
X66581488Y-119262443D01*
X66519990Y-119032933D01*
X66429075Y-118813443D01*
X66429068Y-118813428D01*
X66310272Y-118607668D01*
X66246194Y-118524159D01*
X66246193Y-118524159D01*
X65572453Y-119197899D01*
X65479657Y-119059020D01*
X65357780Y-118937143D01*
X65218899Y-118844346D01*
X65892639Y-118170605D01*
X65892639Y-118170604D01*
X65809129Y-118106527D01*
X65809122Y-118106521D01*
X65603371Y-117987731D01*
X65603356Y-117987724D01*
X65383866Y-117896809D01*
X65154356Y-117835311D01*
X64918808Y-117804301D01*
X64918791Y-117804300D01*
X64681209Y-117804300D01*
X64681191Y-117804301D01*
X64445643Y-117835311D01*
X64216133Y-117896809D01*
X63996643Y-117987724D01*
X63996628Y-117987731D01*
X63790875Y-118106523D01*
X63790861Y-118106532D01*
X63707359Y-118170604D01*
X63707359Y-118170605D01*
X64381100Y-118844346D01*
X64242220Y-118937143D01*
X64120343Y-119059020D01*
X64027546Y-119197899D01*
X63353805Y-118524158D01*
X63353804Y-118524159D01*
X63289732Y-118607661D01*
X63289723Y-118607675D01*
X63170931Y-118813428D01*
X63170924Y-118813443D01*
X63080009Y-119032933D01*
X63018511Y-119262443D01*
X62987501Y-119497991D01*
X62987500Y-119498008D01*
X62250000Y-119498008D01*
X62250000Y-117801361D01*
X62269685Y-117734322D01*
X62286314Y-117713685D01*
X63166194Y-116833805D01*
X63227513Y-116800323D01*
X63267751Y-116798269D01*
X63764679Y-116854259D01*
X64454531Y-116893000D01*
X64454548Y-116893000D01*
X65145452Y-116893000D01*
X65145469Y-116893000D01*
X65835321Y-116854259D01*
X66521916Y-116776899D01*
X67203093Y-116661162D01*
X67876708Y-116507414D01*
X68540643Y-116316137D01*
X69192809Y-116087935D01*
X69382315Y-116009439D01*
X69429768Y-116000000D01*
X84750000Y-116000000D01*
X87213681Y-113536319D01*
X87275004Y-113502834D01*
X87301362Y-113500000D01*
X97248638Y-113500000D01*
X97315677Y-113519685D01*
G37*
%TD.AperFunction*%
%TD*%
M02*
